<?xml version="1.0" encoding="UTF-8"?><svg id="Layer_1" xmlns="http://www.w3.org/2000/svg" viewBox="0 0 209.23 273.91"><defs><style>.cls-1{fill:#fff;}</style></defs><g id="Arrow_2"><path class="cls-1" d="M124.68,103.95c2.63-.49,3.2-5.06,3.2-5.06h1.76v13.57h-1.76s-.57-4.58-3.2-5.06h-40.13c-2.63.49-3.2,5.06-3.2,5.06h-1.76v-13.57h1.76s.57,4.58,3.2,5.06h40.12Z"/><path class="cls-1" d="M50.8,190.89v-7.53s27.11,0,27.11,0c0,0-5.74,6.71-6.47,15.7-.48,5.9,1.42,13.54,5.75,18.24,6.82,7.39,16.58,12.02,27.42,12.02s20.61-4.63,27.42-12.02c4.34-4.7,6.23-12.34,5.75-18.24-.73-8.99-6.47-15.7-6.47-15.7h27.11s0,7.53,0,7.53h-15.9c.08.28,1.34,7.02,1.34,10.16,0,21.68-17.58,36.25-39.26,36.25-21.68,0-39.26-14.57-39.26-36.25,0-3.13,1.27-9.88,1.34-10.16h-15.9Z"/><path class="cls-1" d="M114.57,73.15v-1h-19.91v1s6.98.98,7.46,5.54v188.68c-.48,4.55-7.46,5.54-7.46,5.54v1h19.91v-1s-6.97-.98-7.46-5.53V78.68c.48-4.55,7.46-5.53,7.46-5.53Z"/><path class="cls-1" d="M193.62,158.91c6.56,1.09,15.61,7.24,15.61,7.24,0,0-9.55-10.1-13.31-14.7L109.53,17.54c-3.34-7.05-4.91-17.54-4.91-17.54,0,0-1.57,10.48-4.91,17.53L13.31,151.45c-3.76,4.61-13.31,14.69-13.31,14.69,0,0,9.05-6.15,15.61-7.24h42.43c2.02,2.21,2.54,6.02,2.54,6.02h2.79v-20.04h-2.79s-.52,3.82-2.54,6.02H23.18L104.62,24.68l81.44,126.23h-34.86c-2.02-2.21-2.54-6.02-2.54-6.02h-2.79v20.04h2.79s.52-3.82,2.54-6.02h42.43Z"/><path class="cls-1" d="M104.62,130.91c-13.23,0-24,10.77-24,24s10.77,24,24,24,24-10.77,24-24-10.77-24-24-24ZM104.62,134.91c10.35,0,18.89,7.91,19.9,18h-39.8c1.01-10.09,9.55-18,19.9-18ZM104.62,174.91c-10.35,0-18.89-7.91-19.9-18h39.8c-1.01,10.09-9.55,18-19.9,18Z"/></g></svg>