<?xml version="1.0" encoding="UTF-8"?><svg id="Layer_1" xmlns="http://www.w3.org/2000/svg" viewBox="0 0 209.09 281.21"><defs><style>.cls-1{fill:#fff;}</style></defs><g id="Arrow_10"><path class="cls-1" d="M209.09,217.14H0L104.54,0l104.54,217.14ZM12.73,209.14h183.62L104.54,18.44,12.73,209.14Z"/><path class="cls-1" d="M173,65.54s-13.62,7.66-27.92,7.66h-81.08c-14.3,0-27.92-7.66-27.92-7.66,0,0,2.04,16.68-14.3,29.96v7.7s10.85-20.68,34.85-20.68h95.8c24,0,34.85,20.68,34.85,20.68v-7.7c-16.34-13.28-14.3-29.96-14.3-29.96Z"/><path class="cls-1" d="M67.82,172.64v57.66c0,7.83,6,11.66,6,10v-66.54h61.45v66.54c0,1.66,6-2.17,6-10v-57.66c0-4.34,1.84-6.73,1.84-6.73,0,0-2.39,1.85-6.73,1.85h-63.68c-4.34,0-6.73-1.85-6.73-1.85,0,0,1.84,2.39,1.84,6.73Z"/><path class="cls-1" d="M122.45,224.41s-.79,5.85-4.47,6.11h-9.44V78.07h-8v152.44h-9.44c-3.68-.26-4.47-6.11-4.47-6.11h-2.26v16.28h2.26s.79-5.84,4.46-6.11h9.44v21.64c-1.54-.64-3.23-1-5-1-7.17,0-13,5.83-13,13s5.83,13,13,13,13-5.83,13-13v-33.63h9.44c3.67.26,4.46,6.11,4.46,6.11h2.26v-16.28h-2.26ZM95.54,273.21c-2.76,0-5-2.24-5-5s2.24-5,5-5,5,2.24,5,5-2.24,5-5,5Z"/><path class="cls-1" d="M104.67,148.14c-18.17,0-31.64-11.44-36.58-16.36l-2.14-2.13,2.14-2.13c4.95-4.92,18.41-16.36,36.58-16.36s31.64,11.44,36.58,16.36l2.14,2.13-2.14,2.13c-4.95,4.92-18.41,16.36-36.58,16.36ZM74.59,129.65c5.56,4.91,16.36,12.49,30.08,12.49s24.52-7.58,30.08-12.49c-5.56-4.91-16.36-12.49-30.08-12.49s-24.52,7.58-30.08,12.49Z"/></g></svg>