<?xml version="1.0" encoding="UTF-8"?><svg id="Layer_1" xmlns="http://www.w3.org/2000/svg" viewBox="0 0 201.76 273.91"><defs><style>.cls-1{fill:#fff;}</style></defs><g id="Arrow_4"><path class="cls-1" d="M200.75,125.57s-.98,6.98-5.53,7.46H6.54c-4.55-.48-5.53-7.46-5.53-7.46H0v19.92h1s.98-6.98,5.53-7.46h188.68c4.55.48,5.53,7.46,5.53,7.46h1v-19.92h-1Z"/><path class="cls-1" d="M102.97,77.78l-.37-.37v-17.57c.49-2.63,5.06-3.2,5.06-3.2v-1.76h-13.57v1.76s4.58.57,5.06,3.2v17.5l-.44.44c-4.92,4.95-16.36,18.41-16.36,36.58s11.44,31.64,16.36,36.58l2.13,2.14,2.13-2.14c4.92-4.95,16.36-18.41,16.36-36.58s-11.44-31.64-16.36-36.58ZM100.84,144.44c-4.91-5.56-12.49-16.36-12.49-30.08,0-12.23,6.02-22.13,10.8-28.07v13.67c-.49,2.63-5.06,3.2-5.06,3.2v1.76h13.57v-1.76s-4.58-.57-5.06-3.2v-13.58c4.78,5.95,10.73,15.82,10.73,27.99,0,13.72-7.58,24.52-12.49,30.08Z"/><path class="cls-1" d="M19.62,129.05s8.04-5.46,13.16-5.73h136.19c5.12.27,13.16,5.73,13.16,5.73,0,0-9.05-9.57-11.09-12.39L105.13,14.48c-2.89-5.43-4.25-14.48-4.25-14.48,0,0-1.36,9.06-4.25,14.49L30.71,116.66c-2.04,2.82-11.09,12.38-11.09,12.38ZM100.88,18.97l63.45,98.35H37.43L100.88,18.97Z"/><path class="cls-1" d="M103.34,267.36v-21.73l39.01-67.56h-39.01v-18.8c.48-4.55,7.46-5.54,7.46-5.54v-1h-19.92v1s6.97.98,7.46,5.53v18.81h-39.01l39.01,67.56v21.74c-.49,4.55-7.46,5.53-7.46,5.53v1h19.92v-1s-6.98-.99-7.46-5.54ZM103.34,197.07c4.58.68,8.26,3.1,10.49,4.97-2.23,1.87-5.91,4.29-10.49,4.97v-9.93ZM98.34,206.99c-4.55-.69-8.2-3.1-10.42-4.96,2.22-1.86,5.87-4.26,10.42-4.96v9.91ZM135.42,182.07l-32.08,55.56v-26.6c7.36-.88,12.76-5.48,14.87-7.58l1.43-1.42-1.43-1.42c-2.11-2.1-7.51-6.69-14.87-7.58v-10.97h32.08ZM66.26,182.07h32.08v10.98c-7.33.9-12.7,5.48-14.8,7.57l-1.43,1.42,1.43,1.42c2.1,2.09,7.47,6.66,14.8,7.57v26.61l-32.08-55.56Z"/></g></svg>