<?xml version="1.0" encoding="UTF-8"?><svg id="Layer_1" xmlns="http://www.w3.org/2000/svg" viewBox="0 0 249.89 269.5"><defs><style>.cls-1{fill:#fff;}</style></defs><g id="Arrow_8"><path class="cls-1" d="M221.92,131.47L134.9,30.33c-4.71-6.88-9.95-21.81-9.95-30.33,0,8.52-5.25,23.44-9.95,30.33L27.99,131.46c-6.31,6.19-37.05,10.5-25.36,10.5s21.7,3.45,34.85,15.19,22.81,29.3,22.81,29.3l1.58-3.38s-13.02-20.55-16.72-33.83c-3.19-11.43,1.48-21.54,7.73-29.83L124.95,35.62l72.07,83.77c6.25,8.29,10.93,18.4,7.74,29.84-3.7,13.28-16.72,33.83-16.72,33.83l1.58,3.38s9.66-17.55,22.81-29.3,22.98-15.19,34.85-15.19-19.02-4.3-25.35-10.49Z"/><path class="cls-1" d="M187.03,143.44c6.87-3.16,17.63-5.42,17.63-5.42,0,0-10.76-2.26-17.63-5.42-1.22-14.12-7.21-27.9-17.99-38.68-10.5-10.5-24.08-16.77-38.69-18.02-3.15-6.87-5.4-17.6-5.4-17.6,0,0-2.25,10.73-5.4,17.6-14.62,1.25-28.2,7.53-38.69,18.02-10.5,10.49-16.77,24.07-18.02,38.69-6.87,3.15-17.6,5.4-17.6,5.4,0,0,10.73,2.25,17.6,5.4,1.25,14.62,7.53,28.2,18.02,38.69,10.5,10.49,24.08,16.77,38.69,18.02,3.15,6.87,5.4,17.6,5.4,17.6,0,0,2.25-10.73,5.4-17.6,14.62-1.25,28.2-7.53,38.69-18.02,10.78-10.78,16.77-24.56,17.99-38.68ZM132.93,193.82c-4.43-1.92-7.99-6.61-7.99-8.69,0,2.08-3.56,6.77-7.99,8.69-12.02-1.7-23.13-7.2-31.87-15.94-8.74-8.74-14.25-19.84-15.94-31.87,1.92-4.43,6.61-7.99,8.69-7.99-2.08,0-6.77-3.56-8.69-7.99,1.7-12.02,7.2-23.13,15.94-31.87,8.74-8.74,19.84-14.25,31.87-15.94,4.43,1.92,7.99,6.61,7.99,8.69,0-2.08,3.56-6.77,7.99-8.69,12.02,1.7,23.13,7.2,31.87,15.94,8.97,8.97,14.27,20.23,15.92,31.91-1.93,4.41-6.59,7.94-8.67,7.94,2.07,0,6.73,3.54,8.67,7.94-1.65,11.68-6.95,22.95-15.92,31.91-8.74,8.74-19.84,14.25-31.87,15.94Z"/><path class="cls-1" d="M149.82,233.66s-.98,6.98-5.53,7.46h-16.84v-16.84c.48-4.55,7.46-5.54,7.46-5.54v-1h-19.91v1s6.97.98,7.46,5.53v16.84h-16.84c-4.55-.48-5.53-7.46-5.53-7.46h-1v19.92h1s.98-6.98,5.53-7.46h16.84v16.84c-.48,4.55-7.46,5.53-7.46,5.53v1h19.91v-1s-6.98-.98-7.46-5.54v-16.84h16.84c4.55.48,5.53,7.46,5.53,7.46h1v-19.92h-1Z"/><path class="cls-1" d="M158.21,131.24s-.57,4.58-3.2,5.06h-28.34v-28.34c.49-2.63,5.06-3.2,5.06-3.2v-1.76h-13.57v1.76s4.58.57,5.06,3.2v28.34h-28.34c-2.63-.49-3.2-5.06-3.2-5.06h-1.76v13.57h1.76s.57-4.58,3.2-5.06h28.34v28.34c-.49,2.63-5.06,3.2-5.06,3.2v1.76h13.57v-1.76s-4.58-.57-5.06-3.2v-28.34h28.34c2.63.49,3.2,5.06,3.2,5.06h1.76v-13.57h-1.76Z"/><path class="cls-1" d="M142.73,128.24c4.41,0,8-3.59,8-8s-3.59-8-8-8-8,3.59-8,8,3.59,8,8,8ZM142.73,116.24c2.21,0,4,1.79,4,4s-1.79,4-4,4-4-1.79-4-4,1.79-4,4-4Z"/><path class="cls-1" d="M107.16,147.81c-4.41,0-8,3.59-8,8s3.59,8,8,8,8-3.59,8-8-3.59-8-8-8ZM107.16,159.81c-2.21,0-4-1.79-4-4s1.79-4,4-4,4,1.79,4,4-1.79,4-4,4Z"/><path class="cls-1" d="M142.73,147.81c-4.41,0-8,3.59-8,8s3.59,8,8,8,8-3.59,8-8-3.59-8-8-8ZM142.73,159.81c-2.21,0-4-1.79-4-4s1.79-4,4-4,4,1.79,4,4-1.79,4-4,4Z"/><path class="cls-1" d="M107.16,128.24c4.41,0,8-3.59,8-8s-3.59-8-8-8-8,3.59-8,8,3.59,8,8,8ZM107.16,116.24c2.21,0,4,1.79,4,4s-1.79,4-4,4-4-1.79-4-4,1.79-4,4-4Z"/></g></svg>