<?xml version="1.0" encoding="UTF-8"?><svg id="Layer_1" xmlns="http://www.w3.org/2000/svg" viewBox="0 0 209.23 275.23"><defs><style>.cls-1{fill:#fff;}</style></defs><g id="Arrow_9"><path class="cls-1" d="M151.42,275.23c5.56-8.66,8.8-18.94,8.8-30,0-30.71-24.89-55.6-55.6-55.6-30.71,0-55.6,24.89-55.6,55.6,0,11.05,3.24,21.34,8.8,30-8.95-10.63-14.34-24.35-14.34-39.34,0-33.77,27.38-61.15,61.15-61.15,33.77,0,61.15,27.38,61.15,61.15,0,14.98-5.4,28.7-14.34,39.34Z"/><path class="cls-1" d="M209.23,239.68s-11.05-16.48-14.21-22.37L111.85,31.34c-.12-.43-.42-1.21-.96-2.43-4.28-9.67-6.28-28.91-6.28-28.91,0,0-2,19.24-6.28,28.91-.54,1.22-.84,1.99-.96,2.42L14.22,217.3c-3.16,5.89-14.22,22.38-14.22,22.38,0,0,10.25-11.47,16.85-12.21h175.54c6.6.74,16.85,12.21,16.85,12.21ZM22.01,219.47L104.62,34.75l82.61,184.72H22.01Z"/><path class="cls-1" d="M127.49,126.17c0-12.61-10.26-22.88-22.88-22.88s-22.88,10.26-22.88,22.88c0,11.77,8.93,21.49,20.38,22.74v90.52c-.48,4.55-7.46,5.53-7.46,5.53v1h19.91v-1s-6.98-.98-7.46-5.54v-90.52c11.44-1.25,20.38-10.97,20.38-22.74ZM85.74,126.17c0-10.41,8.47-18.88,18.88-18.88s18.88,8.47,18.88,18.88c0,9.56-7.15,17.46-16.38,18.69v-14.11c.48-4.55,7.46-5.54,7.46-5.54v-1h-19.91v1s6.97.98,7.46,5.53v14.12c-9.23-1.23-16.38-9.13-16.38-18.69Z"/></g></svg>