<?xml version="1.0" encoding="UTF-8"?><svg id="Layer_1" xmlns="http://www.w3.org/2000/svg" viewBox="0 0 209.23 270.33"><defs><style>.cls-1{fill:#fff;}</style></defs><g id="Arrow_1"><path class="cls-1" d="M124.68,84.39c2.63-.49,3.2-5.06,3.2-5.06h1.76v13.57h-1.76s-.57-4.58-3.2-5.06h-40.13c-2.63.49-3.2,5.06-3.2,5.06h-1.76v-13.57h1.76s.57,4.58,3.2,5.06h40.12Z"/><path class="cls-1" d="M133.62,233.54c3.44-5.36,5.45-11.74,5.45-18.59,0-19.03-15.43-34.45-34.45-34.45-19.03,0-34.45,15.43-34.45,34.45,0,6.85,2.01,13.22,5.45,18.59-5.54-6.59-8.89-15.09-8.89-24.38,0-20.93,16.96-37.89,37.89-37.89,20.93,0,37.89,16.96,37.89,37.89,0,9.29-3.35,17.79-8.89,24.38Z"/><path class="cls-1" d="M0,166.15s9.02-6.13,15.59-7.23h178.06c6.56,1.1,15.59,7.23,15.59,7.23,0,0-9.59-10.13-13.33-14.73L109.52,17.53c-3.33-7.05-4.91-17.53-4.91-17.53,0,0-1.57,10.48-4.91,17.53L13.33,151.43c-3.75,4.59-13.33,14.72-13.33,14.72ZM104.62,24.68l81.44,126.24H23.18L104.62,24.68Z"/><path class="cls-1" d="M129.64,109.58v-1h-19.91v1s6.97.98,7.46,5.53v148.69c-.48,4.55-7.46,5.53-7.46,5.53v1h19.91v-1s-6.98-.98-7.46-5.54V115.12c.48-4.55,7.46-5.54,7.46-5.54Z"/><path class="cls-1" d="M99.51,109.58v-1h-19.91v1s6.97.98,7.46,5.53v148.69c-.48,4.55-7.46,5.53-7.46,5.53v1h19.91v-1s-6.98-.98-7.46-5.54V115.12c.48-4.55,7.46-5.54,7.46-5.54Z"/></g></svg>