<?xml version="1.0" encoding="UTF-8"?><svg id="Layer_1" xmlns="http://www.w3.org/2000/svg" viewBox="0 0 209.23 273.6"><defs><style>.cls-1{fill:#fff;}</style></defs><g id="Arrow_3"><path class="cls-1" d="M133.5,143.58c3.44-5.36,5.45-11.74,5.45-18.59,0-19.03-15.43-34.45-34.45-34.45-19.03,0-34.45,15.43-34.45,34.45,0,6.85,2.01,13.22,5.45,18.59-5.54-6.59-8.89-15.09-8.89-24.38,0-20.93,16.96-37.89,37.89-37.89,20.93,0,37.89,16.96,37.89,37.89,0,9.29-3.35,17.79-8.89,24.38Z"/><path class="cls-1" d="M133.93,242.2s-.98,6.97-5.53,7.46h-47.82c-4.55-.49-5.53-7.46-5.53-7.46h-1v19.91h1s.98-6.98,5.54-7.46h47.8c4.55.48,5.54,7.46,5.54,7.46h1v-19.91h-1Z"/><path class="cls-1" d="M114.45,116.81v-1h-19.92v1s6.98.99,7.46,5.54v144.71c-.48,4.55-7.46,5.54-7.46,5.54v1h19.92v-1s-6.97-.98-7.46-5.53V122.34c.49-4.55,7.46-5.53,7.46-5.53Z"/><path class="cls-1" d="M164.49,201.16s-.98,6.98-5.53,7.46H50.27c-4.55-.48-5.53-7.46-5.53-7.46h-1v19.92h1s.98-6.98,5.53-7.46h108.68c4.55.48,5.53,7.46,5.53,7.46h1v-19.92h-1Z"/><path class="cls-1" d="M164.49,171.03s-.98,6.98-5.53,7.46H50.27c-4.55-.48-5.53-7.46-5.53-7.46h-1v19.92h1s.98-6.98,5.53-7.46h108.68c4.55.48,5.53,7.46,5.53,7.46h1v-19.92h-1Z"/><path class="cls-1" d="M0,166.15s9.02-6.13,15.59-7.23h178.06c6.56,1.1,15.59,7.23,15.59,7.23,0,0-9.59-10.13-13.33-14.73L109.52,17.53c-3.33-7.05-4.91-17.53-4.91-17.53,0,0-1.57,10.48-4.91,17.53L13.33,151.43c-3.75,4.59-13.33,14.72-13.33,14.72ZM104.62,24.68l81.44,126.24H23.18L104.62,24.68Z"/></g></svg>