<?xml version="1.0" encoding="UTF-8"?><svg id="Layer_1" xmlns="http://www.w3.org/2000/svg" viewBox="0 0 235.19 271.39"><defs><style>.cls-1{fill:#fff;}</style></defs><g id="Arrow_6"><path class="cls-1" d="M235.19,203.68H0L117.59,0l117.59,203.68ZM6.93,199.68h221.33L117.59,8,6.93,199.68Z"/><path class="cls-1" d="M65.85,105.91c-.38-.2-.8-.07-1.03.29-.91,1.4-1.78,2.84-2.58,4.31-.19.35-.1.85.27,1.04.35.18.83.09,1.03-.29.81-1.47,1.67-2.91,2.58-4.31.22-.34.08-.86-.27-1.04Z"/><path class="cls-1" d="M65.47,112.21c.04-.41-.37-.76-.75-.75-.44,0-.71.36-.75.77-.04.42-.26.82-.56,1.12-.39.38-1.1.44-1.32.96-.26.61.22,1.3.62,1.72.15.15.32.28.48.41-1.15.67-2.48.97-3.8.87-.74-.06-1.03,1.1-.38,1.42.5.25,1.01.34,1.56.39.4.04.88.03,1.24.24.36.21.56.65.8.97.33.45.72.81,1.28.94.94.21,1.34-1.26.39-1.47-.34-.08-.52-.46-.71-.73-.2-.29-.42-.57-.69-.8.78-.32,1.52-.75,2.18-1.3.39-.32.24-.97-.14-1.2-.36-.21-.87-.48-1.19-.85.97-.58,1.62-1.5,1.74-2.72Z"/><path class="cls-1" d="M56.13,124.58c.49-.85-.81-1.6-1.3-.75-.49.85.81,1.6,1.3.75Z"/><path class="cls-1" d="M60.29,122.43c-.1-.08-.2-.13-.31-.16.23-.61.37-1.28.02-1.78-.56-.83-1.7-.52-2.45-.14-.33.16-.67.42-1.03.64,1.1-1.79,1.78-3.78,2.01-5.91.1-.97-1.4-.95-1.51.02-.25,2.32-1.18,4.56-2.65,6.38-.38.47-.24,1.07.33,1.27,1.28.46,2.34-.4,3.41-.99.11-.06.23-.13.35-.17.05-.02.11-.03.16-.05-.04.11-.08.23-.08.25-.07.19-.14.38-.23.57-.32.71-.73,1.38-1.14,2.05-.4.66-.8,1.32-1.2,1.98-.37.62-.71,1.44-1.2,1.97-.23.25-.43.14-.69,0-.02,0-.09-.06-.16-.11.04-.08.08-.16.13-.24.38-.72.81-1.41,1.27-2.07.56-.81-.74-1.55-1.3-.75-.35.5-.68,1.01-.98,1.54-.25.43-.59.92-.7,1.41-.04.17-.02.32,0,.46-.05.05-.09.09-.13.15-.42.74-.99,1.28-1.74,1.69-.48.26-.96.52-1.3.93.75-1.29,1.51-2.58,2.29-3.86.51-.84-.79-1.59-1.3-.75-2.17,3.55-4.24,7.16-6.21,10.81-.21.38-.06.73.19.94-.02.04-.05.07-.05.11-.24,1.54-.43,3.15-.34,4.71.03.61.25,1.15.88,1.33.66.18,1.4-.14,2.03-.34,1.31-.43,2.65-1.03,3.56-2.13.34-.41.71-.93.71-1.49,0-.3-.11-.6-.31-.83-.26-.3-.65-.32-.92-.58,0,0-.01-.02-.02-.03.01,0,.03,0,.04,0,1.47-.18,3.06-1.04,4.17-2.02,1.13-.99,1.66-2.47,1.08-3.89-.37-.9-1.68-.13-1.31.76.68,1.67-2.09,3.01-3.25,3.43-.15.05-.39.12-.65.18.21-.54.49-1.05.59-1.63.09-.51.11-1.13-.19-1.56-.38-.57-1.18-.55-1.73-.22-.94.55-1.53,1.97-1.52,3.03,0,.87.48,1.41,1.13,1.7.03.28.08.55.2.79.16.33.4.6.71.8.11.07.26.16.4.21-.04.07-.08.15-.13.22-.52.74-1.35,1.2-2.16,1.53-.47.19-.96.35-1.45.49-.09.03-.2.05-.29.09-.02,0-.03.01-.04.02.02-.21-.01-.46,0-.65.01-.84.08-1.68.17-2.51.56.34,1.08.74,1.55,1.2.69.67,1.78-.4,1.08-1.08-.81-.79-1.73-1.44-2.75-1.93,1.15-2.12,2.33-4.22,3.54-6.3-.13.35-.09.8.28.98,1.54.74,3.22.54,4.78-.08,1.57-.63,3.21-1.4,4.6-2.36,1.39-.96,2.66-2.32,2.99-4.03.28-1.44-.11-3.02-1.24-3.97ZM48.84,136.04c-.04.13-.08.26-.13.38-.07.17-.14.34-.21.5.05-.25.14-.5.25-.72.03-.06.07-.11.1-.17ZM59.98,126.42c-.41,1.36-1.57,2.35-2.74,3.06-1.13.69-2.36,1.28-3.57,1.8-.84.36-1.78.63-2.68.55.33-.19.7-.35.97-.55.58-.43,1.04-.97,1.42-1.58.16.08.31.15.47.21.89.32,1.69-.02,2.23-.79.65-.93,1.19-1.95,1.78-2.92.51-.84,1.04-1.67,1.49-2.55.73.72.95,1.76.64,2.77Z"/><path class="cls-1" d="M46.74,144.9c-.94,1.14-1.95,2.22-3,3.26-.38-.34-.8-.63-1.25-.9-.61-.37-1.23-.71-1.53-1.39-.22-.52-1.06-.48-1.31,0-.57,1.14-1.03,2.33-1.36,3.56-.25.95,1.2,1.32,1.46.37.19-.72.45-1.41.73-2.1.27.24.56.45.86.64.38.24.82.47,1.19.76-.29.57-.7,1.08-1.12,1.56-.29.33-.6.65-.89.97-.31.34-.66.7-.89,1.1-.27.47-.2,1.04.21,1.39.36.31.77.58,1.15.85.76.54,1.54,1.04,2.34,1.5.83.49,1.6-.84.76-1.32-.72-.42-1.43-.87-2.11-1.34-.29-.2-.57-.4-.85-.61.06-.07.12-.15.18-.22.85-.99,1.78-1.89,2.42-3.01.18,0,.35-.05.51-.2.89-.85,1.73-1.75,2.55-2.68.13-.03.25-.08.34-.19.3-.34.57-.71.78-1.12.18-.33.11-.75-.19-.97-.27-.2-.74-.23-.99.06ZM40.88,153.02s0,0,0,0c0,0-.01-.01,0,0Z"/><path class="cls-1" d="M37.8,154.05c-.17-.49-.66-.6-1.04-.45.13-.22.26-.45.39-.67.5-.85-.8-1.6-1.3-.75-1.72,2.94-3.44,5.88-5.16,8.81-.4.68.37,1.37,1.02,1.03,2.15-1.1,4.57-2.3,6.97-1.41.69.26,1.28-.8.74-1.27-1.45-1.27-1.05-3.6-1.62-5.29ZM33.21,159.66c1.04-1.77,2.08-3.55,3.12-5.32,0,.04,0,.08.01.12.47,1.39.42,2.98.92,4.34-1.37-.06-2.74.32-4.05.86Z"/><path class="cls-1" d="M35.15,161.29c-.34-.2-.84-.08-1.03.29-.19.37-.09.82.27,1.04.21.12.41.25.6.39.1.07.2.14.29.21.04.03.07.06.11.08.02.02.04.03.06.05.37.3.73.63,1.06.98.27.28.79.3,1.07,0,.28-.31.31-.77.02-1.08-.72-.76-1.55-1.41-2.44-1.95Z"/><path class="cls-1" d="M35.11,166.47c-1.9-1.31-3.74-2.7-5.52-4.17-.31-.26-.75-.31-1.07,0-.27.27-.33.82-.02,1.08,1.88,1.56,3.83,3.03,5.84,4.42.33.23.84.05,1.03-.29.22-.38.07-.81-.27-1.04Z"/><path class="cls-1" d="M33.02,167.97c-.5-.06-.81.1-1.23.36-.27.17-.55.34-.82.51-.32-.26-.85-.3-1.13.17-.76,1.28-1.6,2.54-2.3,3.86-.18.33-.25.68-.1,1.03.14.33.43.55.7.77.59.47,1.21.88,1.88,1.21.4.2,1.02.04,1.11-.48.38-2.24,1.16-4.38,2.33-6.33.23-.38.04-1.05-.45-1.11ZM29.9,174.06c-.21-.13-.43-.27-.63-.43-.08-.06-.16-.13-.24-.2-.02-.01-.03-.03-.05-.04,0-.01.01-.03.02-.04.08-.14.16-.27.24-.41.5-.84,1-1.69,1.51-2.53.1.04.21.07.33.05-.51,1.16-.91,2.36-1.19,3.59Z"/><path class="cls-1" d="M29.73,166.87c-.56-.32-1.11-.65-1.67-.97-.83-.49-1.6.84-.76,1.32.3.17.59.34.89.52-1.14,1.36-2.08,2.87-2.98,4.4-.5.85.8,1.6,1.3.75,1-1.69,2.01-3.39,3.37-4.82.34-.36.29-.95-.14-1.2Z"/><path class="cls-1" d="M105.11,37.9c-.38-.2-.8-.07-1.03.29-.91,1.4-1.78,2.84-2.58,4.31-.19.35-.1.85.27,1.04.35.18.83.09,1.03-.29.81-1.47,1.67-2.91,2.58-4.31.22-.34.08-.86-.27-1.04Z"/><path class="cls-1" d="M104.73,44.2c.04-.41-.37-.76-.75-.75-.44,0-.71.36-.76.77-.04.42-.26.82-.56,1.12-.39.38-1.1.44-1.32.96-.26.61.22,1.3.62,1.72.15.15.32.28.48.41-1.15.67-2.48.97-3.8.87-.74-.06-1.03,1.1-.38,1.42.5.25,1.01.34,1.56.39.4.04.88.03,1.24.24.36.21.56.65.8.97.33.45.72.81,1.28.94.94.21,1.34-1.26.39-1.47-.34-.08-.52-.46-.71-.73-.2-.29-.42-.57-.69-.8.78-.32,1.52-.75,2.18-1.3.39-.32.24-.97-.14-1.2-.36-.21-.87-.48-1.19-.85.97-.58,1.62-1.5,1.74-2.72Z"/><path class="cls-1" d="M95.39,56.58c.49-.85-.81-1.6-1.3-.75-.49.85.81,1.6,1.3.75Z"/><path class="cls-1" d="M99.56,54.42c-.1-.08-.2-.13-.31-.16.23-.61.37-1.28.02-1.78-.56-.83-1.7-.52-2.45-.14-.33.16-.67.42-1.03.64,1.1-1.79,1.78-3.78,2.01-5.91.1-.97-1.4-.95-1.51.02-.25,2.32-1.18,4.56-2.65,6.38-.38.47-.24,1.07.33,1.27,1.28.46,2.34-.4,3.41-.99.11-.06.23-.13.35-.17.05-.02.11-.03.16-.05-.04.11-.08.23-.08.25-.07.19-.14.38-.23.57-.32.71-.73,1.38-1.14,2.05-.4.66-.8,1.32-1.2,1.98-.37.62-.71,1.44-1.2,1.97-.23.25-.43.14-.69,0-.02,0-.09-.06-.16-.11.04-.08.08-.16.13-.24.38-.72.81-1.41,1.27-2.07.56-.81-.74-1.55-1.3-.75-.35.5-.68,1.01-.98,1.54-.25.43-.59.92-.7,1.41-.04.17-.02.32,0,.46-.05.05-.09.09-.13.15-.42.74-.99,1.28-1.74,1.69-.48.26-.96.52-1.3.93.75-1.29,1.51-2.58,2.28-3.86.51-.84-.79-1.59-1.3-.75-2.17,3.55-4.24,7.16-6.21,10.81-.21.38-.06.73.19.94-.02.04-.05.07-.05.11-.24,1.54-.43,3.15-.34,4.71.03.61.25,1.15.88,1.33.66.18,1.4-.14,2.03-.34,1.31-.43,2.65-1.03,3.56-2.13.34-.41.71-.93.71-1.49,0-.3-.11-.6-.31-.83-.26-.3-.65-.32-.92-.58,0,0-.01-.02-.02-.03.01,0,.03,0,.04,0,1.47-.18,3.06-1.04,4.17-2.02,1.13-.99,1.66-2.47,1.08-3.89-.37-.9-1.68-.13-1.31.76.68,1.67-2.09,3.01-3.25,3.43-.15.05-.39.12-.65.18.21-.54.49-1.05.59-1.63.09-.51.11-1.13-.19-1.56-.38-.57-1.18-.55-1.73-.22-.94.55-1.53,1.97-1.52,3.03,0,.87.48,1.41,1.12,1.7.03.28.08.55.2.79.16.33.4.6.71.8.11.07.26.16.4.21-.04.07-.08.15-.13.22-.52.74-1.35,1.2-2.16,1.53-.47.19-.96.35-1.45.49-.09.03-.2.05-.29.09-.02,0-.03.01-.04.02.02-.21-.01-.46,0-.65.01-.84.08-1.68.17-2.51.56.34,1.08.74,1.55,1.2.69.67,1.78-.4,1.08-1.08-.81-.79-1.73-1.44-2.75-1.93,1.15-2.12,2.33-4.22,3.54-6.3-.13.35-.09.8.28.98,1.54.74,3.22.54,4.78-.08,1.57-.63,3.21-1.4,4.6-2.36,1.39-.96,2.66-2.32,2.99-4.03.28-1.44-.11-3.02-1.24-3.97ZM88.1,68.04c-.04.13-.08.26-.13.38-.07.17-.14.34-.21.51.05-.25.14-.5.25-.72.03-.06.07-.11.1-.17ZM99.25,58.41c-.41,1.36-1.57,2.35-2.74,3.06-1.13.69-2.36,1.28-3.57,1.8-.84.36-1.78.63-2.68.55.33-.19.7-.35.97-.55.58-.43,1.04-.97,1.42-1.58.16.08.31.15.47.21.89.32,1.69-.02,2.23-.79.65-.93,1.19-1.95,1.78-2.92.51-.84,1.04-1.67,1.49-2.55.73.72.95,1.76.64,2.77Z"/><path class="cls-1" d="M86,76.89c-.94,1.14-1.95,2.22-3,3.26-.38-.34-.8-.63-1.25-.9-.61-.37-1.23-.71-1.53-1.39-.22-.52-1.06-.48-1.31,0-.57,1.14-1.03,2.33-1.36,3.56-.25.95,1.2,1.32,1.46.37.19-.72.45-1.41.73-2.1.27.24.56.45.86.64.38.24.82.47,1.19.76-.29.57-.7,1.08-1.12,1.56-.29.33-.6.65-.89.97-.31.34-.66.7-.89,1.1-.27.47-.2,1.04.21,1.39.36.31.77.58,1.15.85.76.54,1.54,1.04,2.34,1.5.83.49,1.6-.84.76-1.32-.72-.42-1.43-.87-2.11-1.34-.29-.2-.57-.4-.85-.61.06-.07.12-.15.18-.22.85-.99,1.78-1.89,2.42-3.01.18,0,.35-.05.51-.2.89-.85,1.73-1.75,2.55-2.68.13-.03.25-.08.34-.19.3-.34.57-.71.78-1.12.18-.33.11-.75-.19-.97-.27-.2-.74-.23-.99.06ZM80.15,85.01s0,0,0,0c0,0-.01-.01,0,0Z"/><path class="cls-1" d="M77.06,86.05c-.17-.5-.66-.6-1.04-.45l.39-.67c.5-.85-.8-1.6-1.3-.75-1.72,2.94-3.44,5.88-5.16,8.81-.4.68.37,1.37,1.02,1.03,2.15-1.1,4.57-2.3,6.97-1.41.69.26,1.28-.8.74-1.27-1.45-1.27-1.05-3.6-1.62-5.29ZM72.47,91.65c1.04-1.77,2.08-3.55,3.12-5.32,0,.04,0,.08.01.12.47,1.39.42,2.98.92,4.34-1.37-.06-2.74.32-4.05.86Z"/><path class="cls-1" d="M74.41,93.28c-.34-.2-.84-.08-1.03.29-.19.37-.09.82.27,1.04.21.12.41.25.6.39.1.07.2.14.29.21.04.03.07.05.11.08l.06.05c.37.3.73.63,1.06.98.27.28.79.3,1.07,0,.28-.31.31-.77.02-1.07-.72-.76-1.55-1.41-2.44-1.95Z"/><path class="cls-1" d="M74.38,98.47c-1.9-1.31-3.74-2.7-5.52-4.17-.31-.26-.75-.31-1.07,0-.27.27-.33.82-.02,1.07,1.88,1.56,3.83,3.03,5.84,4.42.33.23.84.05,1.03-.29.22-.38.07-.81-.27-1.04Z"/><path class="cls-1" d="M72.28,99.96c-.5-.06-.81.1-1.23.36-.27.17-.55.34-.82.51-.32-.26-.85-.3-1.13.17-.76,1.28-1.6,2.54-2.3,3.86-.18.33-.25.68-.1,1.03.14.33.43.55.7.77.59.47,1.21.88,1.88,1.21.4.2,1.02.04,1.11-.48.38-2.24,1.16-4.38,2.33-6.33.23-.38.04-1.05-.45-1.11ZM69.16,106.05c-.21-.13-.43-.27-.62-.43-.08-.06-.16-.13-.24-.2-.02-.01-.03-.03-.05-.04,0-.01.01-.03.02-.04.08-.14.16-.27.24-.41.5-.84,1-1.69,1.51-2.53.1.04.21.07.33.05-.51,1.16-.91,2.36-1.19,3.59Z"/><path class="cls-1" d="M65.77,104.88c1-1.69,2.01-3.39,3.37-4.82.34-.36.29-.95-.14-1.2-.56-.32-1.11-.65-1.67-.97-.83-.49-1.6.84-.76,1.32.3.17.59.34.89.52-1.14,1.36-2.08,2.87-2.98,4.4-.5.85.8,1.6,1.3.75Z"/><path class="cls-1" d="M132.55,194.87c-1.46.03-2.93,0-4.39-.08-.35-.02-.68.36-.67.75.02.42.29.73.67.75,1.46.09,2.93.12,4.39.08.35,0,.68-.34.67-.75-.02-.4-.29-.76-.67-.75Z"/><path class="cls-1" d="M138.94,195.43c.28.67,1.28.34,1.24-.38-.03-.56-.19-1.04-.39-1.55-.15-.37-.36-.77-.36-1.19,0-.42.24-.81.39-1.18.2-.51.3-1.03.15-1.58-.25-.92-1.54-.53-1.29.4.09.34-.12.69-.25.98-.13.32-.25.65-.3,1-.58-.52-1.23-.94-1.93-1.24-.42-.18-.84.27-.84.72,0,.42.02,1-.12,1.45-.86-.55-1.84-.65-2.81-.15-.33.17-.41.7-.24,1.03.2.38.58.44.91.27.34-.18.74-.18,1.09-.07.46.14.82.73,1.31.66.58-.08.89-.84,1.03-1.4.05-.21.08-.42.1-.64,1.01.66,1.81,1.67,2.31,2.87Z"/><path class="cls-1" d="M145.87,194.62c-.86,0-.86,1.5,0,1.5s.86-1.5,0-1.5Z"/><path class="cls-1" d="M164.93,192.94c-.9-.92-1.94-1.78-3.16-2.02-.46-.09-1.02-.15-1.44.13-.23.15-.41.4-.5.68-.12.37.04.73-.04,1.08,0,.01-.01.02-.02.03,0-.01-.01-.02-.02-.03-.78-1.18-2.12-2.13-3.35-2.6-1.25-.48-2.6-.2-3.41,1.01-.52.77.64,1.52,1.15.76.96-1.42,3.19.3,4.01,1.1.11.1.26.27.42.47-.5.09-1.01.11-1.49.3-.42.17-.9.47-1.1.95-.26.62.1,1.3.59,1.61.83.54,2.16.34,2.96-.2.65-.44.86-1.12.79-1.82.2-.16.38-.34.51-.56.18-.3.28-.65.29-1.01,0-.13,0-.31-.02-.45.07,0,.15,0,.22,0,.78.08,1.5.57,2.11,1.11.35.31.68.66,1.01,1.01.06.07.12.15.19.21.01.01.01.01.03.02-.16.09-.34.25-.48.34-.64.41-1.3.77-1.98,1.11.02-.65.09-1.3.23-1.95.21-.94-1.08-1.34-1.29-.4-.24,1.1-.33,2.22-.26,3.35-2.1.07-4.21.09-6.32.08.32-.06.64-.32.62-.74-.11-1.7-1-3.06-2.15-4.1-1.16-1.04-2.46-2.08-3.8-2.81-1.33-.72-2.92-1.14-4.36-.57-1.21.48-2.24,1.61-2.46,3.06-.02.13,0,.24.02.35-.56.1-1.13.32-1.36.87-.38.9.35,1.73.97,2.19.27.2.61.37.93.57-1.84-.05-3.64.35-5.35,1.22-.78.4-.1,1.69.67,1.3,1.86-.94,3.96-1.26,5.98-.9.53.09.91-.33.82-.92-.21-1.34-1.33-1.83-2.24-2.46-.1-.07-.19-.13-.28-.21-.04-.03-.07-.08-.1-.11.1-.02.2-.05.23-.05.17-.04.35-.07.53-.09.68-.08,1.37-.06,2.05-.04.67.01,1.35.03,2.02.04.63.01,1.4-.11,2.01.05.29.07.29.3.29.6,0,.02,0,.11-.01.2-.08,0-.16,0-.24.01-.71.03-1.42,0-2.13-.07-.86-.08-.85,1.42,0,1.5.53.05,1.06.08,1.59.08.43,0,.95.05,1.37-.1.14-.05.25-.14.35-.23.06.02.11.04.17.04.75,0,1.4.22,2.04.66.41.28.81.57,1.27.66-1.31,0-2.61-.01-3.92-.05-.86-.02-.86,1.48,0,1.5,3.63.1,7.27.09,10.9-.03.37-.01.57-.3.62-.62.04,0,.07-.01.11-.03,1.27-.57,2.57-1.21,3.72-2.06.45-.33.76-.79.62-1.43-.15-.66-.72-1.15-1.15-1.59ZM157.74,195.21c.11-.03.23-.07.34-.09.16-.03.32-.05.48-.07-.21.08-.44.13-.65.15-.05,0-.11,0-.17,0ZM150.95,194.42c0-.17-.02-.34-.05-.49-.15-.92-.76-1.45-1.57-1.54-.99-.1-2-.05-2.99-.08-.86-.02-1.72-.07-2.58-.02.22-.99.92-1.7,1.81-1.94,1.21-.32,2.46.18,3.51.84,1.01.64,2,1.4,2.92,2.19.63.55,1.26,1.22,1.59,2.05-.29-.19-.57-.43-.84-.57-.58-.29-1.19-.43-1.81-.45Z"/><path class="cls-1" d="M175.35,193.96c.08-.47.11-.95.14-1.43.07-.93.11-1.85.11-2.78,0-.97-1.33-.97-1.33,0,0,.83-.03,1.67-.09,2.5-.02.35-.06.7-.09,1.04-.08-.02-.16-.03-.24-.05-1.12-.24-2.21-.6-3.33-.59-.08-.15-.2-.28-.37-.34-1.03-.34-2.08-.62-3.14-.87-.08-.1-.17-.17-.29-.2-.39-.09-.79-.14-1.19-.12-.33.01-.62.28-.66.65-.04.34.15.76.48.82,1.27.25,2.53.58,3.78.97-.1.5-.13,1.01-.14,1.53-.01.71,0,1.42-.39,2.02-.29.45.1,1.16.58,1.13,1.11-.07,2.22-.27,3.29-.6.83-.25.48-1.7-.35-1.45-.63.19-1.26.32-1.91.42.06-.35.09-.71.1-1.06.01-.45,0-.94.05-1.41.56-.04,1.12.06,1.67.2.38.09.75.19,1.13.28.39.09.82.22,1.22.22.48,0,.87-.34.96-.88ZM174.06,193.6h0s0,.01,0,0Z"/><path class="cls-1" d="M180.77,191.71c-.11-.73-1.17-.71-1.29,0-.32,1.89-2.26,2.71-3.3,4.05-.3.39-.16.87.11,1.13-.23,0-.45,0-.68,0-.86,0-.86,1.49,0,1.5,2.98.02,5.95.04,8.93.06.69,0,.87-1,.34-1.4-1.77-1.31-3.74-2.81-4.11-5.34ZM177.13,196.81c.85-1.1,2.07-1.86,2.88-2.97.55,1.22,1.44,2.22,2.42,3.08-1.8-.01-3.59-.03-5.39-.04.03-.03.06-.04.08-.07Z"/><path class="cls-1" d="M183.49,195.18c.37-.02.66-.33.67-.75,0-.24.01-.48.03-.72,0-.12.02-.24.03-.36,0-.05,0-.09.02-.14,0-.02,0-.05,0-.07.06-.47.16-.94.28-1.4.1-.38-.12-.83-.47-.92-.36-.09-.72.12-.82.52-.26,1-.39,2.05-.41,3.09,0,.39.31.77.67.75Z"/><path class="cls-1" d="M187.43,191.12c-.38,0-.64.34-.67.75-.16,2.3-.41,4.59-.74,6.87-.06.4.09.81.47.92.32.1.76-.12.82-.52.36-2.41.62-4.83.79-7.27.03-.4-.33-.75-.67-.75Z"/><path class="cls-1" d="M190.36,194.27c-.06.41.14.88.62.89,1.3.02,2.62.11,3.93.06.33-.01.62-.12.82-.43.19-.28.23-.65.27-.99.1-.74.14-1.48.1-2.23-.02-.44-.41-.91-.84-.72-1.86.79-3.82,1.18-5.81,1.14-.39,0-.81.49-.64.95.17.46.43.65.81.88l.74.45ZM191.65,193.67c-.01-.11-.04-.22-.1-.31,1.1-.13,2.18-.39,3.23-.77,0,.25-.02.51-.05.76-.01.1-.03.2-.04.31,0,.02,0,.04-.01.06-.01,0-.03,0-.04,0-.14,0-.27,0-.41,0-.86-.01-1.72-.03-2.57-.04Z"/><path class="cls-1" d="M195.37,196.12c-1.72-.02-3.44-.05-5.12-.51-.42-.12-.84.23-.84.72,0,.64,0,1.29,0,1.93,0,.97,1.33.97,1.33,0,0-.34,0-.68,0-1.02,1.52.31,3.08.36,4.63.38.86.01.86-1.49,0-1.5Z"/><path class="cls-1" d="M106.91,192.16c-1.46-.09-2.93-.12-4.39-.08-.35,0-.68.34-.67.75.02.4.29.76.67.75,1.46-.03,2.93,0,4.39.08.35.02.68-.36.67-.75-.02-.42-.29-.73-.67-.75Z"/><path class="cls-1" d="M101.97,194.44c-.34.18-.74.18-1.09.07-.46-.14-.82-.73-1.31-.66-.58.08-.89.84-1.03,1.4-.05.21-.08.42-.1.64-1.01-.66-1.81-1.67-2.31-2.87-.28-.67-1.28-.34-1.24.38.03.56.19,1.04.39,1.55.15.37.36.77.36,1.19,0,.42-.24.81-.39,1.18-.2.51-.3,1.03-.15,1.58.25.92,1.54.53,1.29-.4-.09-.34.12-.69.25-.98.13-.32.25-.65.3-1,.58.52,1.23.94,1.93,1.24.42.18.84-.27.84-.72,0-.42-.02-1,.13-1.45.86.55,1.84.65,2.81.15.33-.17.41-.7.24-1.03-.2-.38-.58-.44-.91-.27Z"/><path class="cls-1" d="M93.02,192.95c-.27-.2-.61-.37-.93-.57,1.84.05,3.64-.35,5.35-1.22.78-.4.1-1.69-.67-1.3-1.86.94-3.96,1.26-5.98.9-.53-.09-.91.33-.82.92.21,1.34,1.32,1.83,2.24,2.46.1.07.2.13.28.21.04.03.07.08.1.11-.1.02-.2.05-.23.05-.17.04-.35.07-.53.09-.68.08-1.37.06-2.05.04-.67-.01-1.35-.03-2.02-.04-.63-.01-1.4.11-2.01-.05-.29-.07-.29-.3-.3-.6,0-.02,0-.11.01-.2.08,0,.16,0,.24-.01.71-.03,1.42,0,2.13.07.86.08.85-1.42,0-1.5-.53-.05-1.06-.08-1.59-.08-.43,0-.95-.05-1.37.1-.14.05-.25.14-.35.23-.06-.02-.11-.04-.17-.04-.75,0-1.4-.22-2.04-.66-.41-.28-.81-.57-1.27-.66,1.31,0,2.61.01,3.92.05.86.02.86-1.48,0-1.5-3.63-.1-7.27-.09-10.9.03-.37.01-.57.3-.62.62-.04,0-.07.01-.11.03-1.27.57-2.57,1.21-3.72,2.06-.45.33-.76.79-.62,1.43.15.66.71,1.15,1.15,1.59.9.92,1.94,1.78,3.16,2.02.46.09,1.02.15,1.44-.12.23-.15.41-.4.49-.68.12-.37-.04-.73.04-1.08,0-.01.01-.02.02-.03,0,.01.01.02.02.03.78,1.18,2.12,2.12,3.35,2.6,1.25.48,2.6.2,3.41-1.01.52-.77-.64-1.52-1.15-.76-.96,1.42-3.19-.3-4.01-1.1-.11-.1-.26-.28-.42-.47.5-.09,1.01-.11,1.49-.3.42-.17.9-.47,1.1-.95.26-.62-.1-1.3-.59-1.61-.83-.54-2.16-.34-2.96.2-.65.44-.86,1.12-.79,1.82-.2.16-.38.34-.51.56-.18.3-.28.65-.29,1.01,0,.13,0,.31.02.45-.07,0-.15,0-.22,0-.78-.08-1.5-.57-2.11-1.11-.35-.31-.68-.66-1.01-1.01-.06-.07-.12-.15-.19-.21-.01-.01-.01-.01-.02-.02.16-.09.34-.25.48-.34.64-.41,1.3-.77,1.98-1.11-.02.65-.09,1.3-.23,1.95-.21.94,1.08,1.34,1.29.4.24-1.1.33-2.22.26-3.35,2.1-.07,4.21-.09,6.32-.08-.32.06-.64.32-.62.74.11,1.7,1,3.06,2.15,4.1,1.16,1.04,2.46,2.08,3.8,2.81,1.33.72,2.92,1.14,4.36.57,1.21-.48,2.24-1.61,2.46-3.06.02-.13,0-.24-.02-.35.56-.1,1.13-.32,1.36-.87.38-.9-.35-1.73-.97-2.19ZM77.33,193.24c-.11.03-.23.07-.34.09-.16.03-.32.05-.48.07.21-.08.44-.13.65-.15.05,0,.11,0,.17,0ZM89.49,198.09c-1.21.32-2.46-.18-3.51-.84-1.01-.64-2-1.4-2.92-2.19-.63-.55-1.26-1.23-1.59-2.05.29.19.57.43.84.57.58.29,1.19.43,1.81.45,0,.17.02.34.05.49.15.92.76,1.45,1.57,1.54.99.1,2,.05,2.99.08.86.02,1.72.07,2.58.02-.22.99-.92,1.7-1.81,1.94Z"/><path class="cls-1" d="M89.2,193.83c.86,0,.86-1.5,0-1.5s-.86,1.5,0,1.5Z"/><path class="cls-1" d="M69.72,195.85c-1.27-.25-2.53-.58-3.78-.97.1-.5.13-1.01.14-1.53.01-.71,0-1.42.39-2.02.29-.45-.1-1.16-.58-1.13-1.11.07-2.22.27-3.29.6-.83.25-.48,1.7.35,1.45.63-.19,1.26-.32,1.91-.42-.06.35-.09.71-.1,1.06-.01.45,0,.94-.05,1.41-.56.04-1.12-.06-1.67-.2-.38-.09-.75-.19-1.13-.28-.39-.09-.82-.22-1.23-.22-.48,0-.87.34-.96.88-.08.47-.11.95-.14,1.43-.07.93-.11,1.85-.11,2.78,0,.97,1.33.97,1.33,0,0-.83.03-1.67.09-2.5.02-.35.06-.7.09-1.04.08.02.16.03.24.05,1.12.24,2.21.6,3.33.59.08.15.19.28.37.34,1.03.34,2.08.62,3.14.87.08.1.17.18.29.2.39.09.79.14,1.19.12.33-.01.62-.28.66-.65.04-.34-.15-.76-.48-.82ZM61.01,194.85s0-.02,0,0h0Z"/><path class="cls-1" d="M59.45,190.07c-2.98-.02-5.95-.04-8.93-.06-.69,0-.87,1-.34,1.4,1.77,1.31,3.74,2.81,4.11,5.34.11.73,1.17.71,1.29,0,.32-1.89,2.26-2.71,3.3-4.05.3-.39.16-.87-.11-1.13.23,0,.45,0,.68,0,.86,0,.86-1.49,0-1.5ZM57.94,191.63c-.85,1.1-2.07,1.86-2.88,2.97-.55-1.22-1.44-2.22-2.42-3.08,1.8.01,3.59.03,5.39.04-.03.03-.06.04-.08.07Z"/><path class="cls-1" d="M51.58,193.27c-.37.02-.66.33-.67.75,0,.24-.01.48-.03.72,0,.12-.02.24-.03.36,0,.04,0,.09-.01.13,0,.03,0,.05-.01.08-.06.47-.16.94-.28,1.4-.1.38.12.83.47.92.36.09.72-.12.82-.52.26-1,.39-2.05.41-3.09,0-.39-.31-.77-.67-.75Z"/><path class="cls-1" d="M48.59,188.78c-.32-.1-.76.12-.82.52-.36,2.41-.62,4.83-.79,7.27-.03.4.33.75.67.75.38,0,.64-.34.67-.75.16-2.3.41-4.59.74-6.87.06-.4-.09-.81-.47-.92Z"/><path class="cls-1" d="M45.45,194.63c-.25-.15-.5-.3-.74-.45.06-.41-.14-.88-.62-.89-1.3-.02-2.62-.11-3.93-.06-.33.01-.62.12-.82.43-.19.28-.23.65-.27.99-.1.74-.14,1.49-.1,2.23.02.44.41.91.84.72,1.86-.79,3.82-1.18,5.81-1.14.39,0,.81-.49.64-.95-.17-.46-.43-.65-.81-.88ZM43.42,194.77c.01.11.04.22.1.31-1.1.13-2.18.39-3.23.77,0-.25.02-.51.05-.76.01-.1.03-.2.04-.31,0-.02,0-.04,0-.06.01,0,.03,0,.04,0,.14,0,.27,0,.41,0,.86.01,1.72.03,2.57.04Z"/><path class="cls-1" d="M39.7,192.33c1.71.02,3.44.05,5.12.51.42.12.84-.23.84-.72,0-.64,0-1.29,0-1.93,0-.97-1.33-.97-1.33,0,0,.34,0,.68,0,1.02-1.52-.31-3.08-.36-4.63-.38-.86-.01-.86,1.49,0,1.5Z"/><path class="cls-1" d="M165.87,101.23c.87,1.43,1.68,2.9,2.44,4.39.18.36.7.5,1.03.29.36-.23.46-.65.27-1.04-.76-1.49-1.57-2.96-2.44-4.39-.21-.34-.68-.51-1.03-.29-.34.22-.49.67-.27,1.04Z"/><path class="cls-1" d="M164.81,101.12c-.35-.25-.58-.64-.69-1.04-.14-.53.17-1.18-.17-1.62-.4-.53-1.23-.46-1.8-.32-.21.05-.41.12-.61.21,0-1.33.41-2.62,1.16-3.71.42-.62-.44-1.44-1.04-1.04-.47.31-.8.71-1.12,1.16-.24.33-.46.74-.83.95-.36.21-.84.16-1.24.21-.56.06-1.07.22-1.46.64-.65.71.42,1.79,1.08,1.08.24-.26.66-.22.99-.25.36-.03.71-.08,1.04-.2-.12.83-.11,1.69.03,2.53.08.5.72.7,1.11.48.37-.21.85-.52,1.33-.6.02,1.13.49,2.15,1.48,2.86.33.24.84.05,1.03-.28.21-.38.05-.8-.29-1.04Z"/><path class="cls-1" d="M165.79,93.68c-1.88-1.37-3.36-3.3-4.2-5.48-.22-.57-.8-.74-1.27-.35-1.04.87-.83,2.23-.85,3.45,0,.13,0,.26-.02.39,0,.05-.03.11-.04.16-.07-.09-.16-.18-.17-.2-.13-.15-.26-.31-.38-.48-.46-.63-.83-1.33-1.21-2.01-.37-.68-.75-1.35-1.12-2.03-.35-.63-.89-1.33-1.11-2.02-.1-.32.1-.44.35-.59.02,0,.1-.05.18-.09.05.08.1.15.15.23.43.69.81,1.41,1.16,2.14.42.89,1.72.13,1.3-.75-.26-.55-.54-1.09-.84-1.62-.25-.43-.5-.97-.88-1.31-.12-.11-.26-.18-.4-.23-.02-.06-.03-.13-.07-.19-.43-.74-.62-1.5-.6-2.35.01-.55.03-1.09-.15-1.59.74,1.3,1.48,2.6,2.2,3.91.47.86,1.77.11,1.3-.75-1.99-3.65-4.08-7.25-6.26-10.79-.22-.36-.58-.42-.89-.31-.03-.03-.05-.07-.09-.1-1.22-.98-2.52-1.95-3.91-2.65-.54-.28-1.12-.36-1.59.1-.49.48-.58,1.28-.72,1.93-.28,1.35-.44,2.81.06,4.14.19.5.45,1.08.93,1.36.26.15.58.2.87.15.39-.07.61-.4.96-.5.01,0,.03,0,.04,0,0,.01-.02.03-.02.04-.58,1.37-.63,3.17-.34,4.62.29,1.48,1.31,2.67,2.83,2.88.96.13.95-1.39,0-1.52-1.78-.24-1.56-3.32-1.34-4.53.03-.16.09-.4.17-.65.36.45.67.95,1.12,1.33.39.33.92.66,1.45.62.68-.05,1.06-.75,1.06-1.39,0-1.09-.95-2.31-1.87-2.83-.75-.43-1.46-.29-2.03.13-.25-.12-.51-.21-.78-.23-.36-.03-.72.04-1.04.21-.12.06-.27.15-.38.24-.04-.07-.09-.14-.12-.22-.38-.82-.37-1.77-.25-2.64.07-.51.18-1.01.3-1.51.02-.09.06-.2.07-.29,0-.02,0-.02,0-.04.17.12.41.21.57.31.72.43,1.41.91,2.09,1.41-.57.31-1.17.56-1.82.75-.93.26-.54,1.74.39,1.47,1.09-.31,2.11-.78,3.04-1.42,1.26,2.05,2.48,4.13,3.68,6.22-.24-.29-.64-.48-.99-.24-1.41.96-2.08,2.52-2.32,4.18-.24,1.67-.39,3.48-.26,5.17.14,1.68.68,3.46,2,4.61,1.11.96,2.67,1.41,4.06.91.12-.04.22-.11.29-.19.41.51.92.96,1.53.91,1-.08,1.3-1.21,1.35-2.05.02-.37-.03-.79-.04-1.21,1,1.85,2.39,3.43,4.11,4.69.79.58,1.52-.74.74-1.31ZM151.65,75.94c.04.06.09.13.13.2-.11-.11-.21-.22-.3-.34-.13-.16-.25-.33-.38-.5.21.18.4.42.55.64ZM154.51,90.58c-.97-1.04-1.25-2.53-1.28-3.9-.03-1.32.07-2.69.23-4,.11-.9.34-1.86.86-2.6,0,.38-.05.78,0,1.12.08.72.31,1.39.65,2.02-.14.09-.28.19-.4.29-.72.61-.83,1.48-.43,2.32.48,1.03,1.1,2.01,1.64,3,.48.86.94,1.74,1.48,2.58-.99.28-2.02-.07-2.74-.84Z"/><path class="cls-1" d="M158.03,88.16c.49.85,1.79.1,1.3-.75-.49-.85-1.79-.1-1.3.75Z"/><path class="cls-1" d="M147.18,64.39c.56.07.95-.68.65-1.14-.7-1.07-1.5-2.06-2.4-2.96-.69-.69-1.74.38-1.05,1.07.53.53,1,1.09,1.45,1.68-.34.11-.67.26-.98.43-.4.21-.81.47-1.25.65-.35-.54-.59-1.15-.79-1.75-.14-.42-.26-.84-.4-1.26-.14-.44-.28-.93-.51-1.32-.27-.47-.8-.69-1.31-.51-.45.16-.89.37-1.32.57-.84.39-1.67.82-2.47,1.28-.84.48-.08,1.8.76,1.32.72-.41,1.46-.8,2.22-1.16.32-.15.63-.29.95-.43.03.09.07.17.1.26.43,1.23.74,2.49,1.39,3.6-.09.15-.13.33-.08.54.29,1.2.65,2.37,1.04,3.54-.04.13-.05.26,0,.39.15.43.33.85.57,1.24.2.32.59.47.94.32.31-.13.57-.52.44-.88-.52-1.39-.95-2.8-1.32-4.23.49-.15.95-.38,1.41-.63.62-.34,1.23-.71,1.97-.62ZM141.01,60.73s.02,0,0,0c0,0,0,0,0,0Z"/><path class="cls-1" d="M141.67,57.55c.51.1.85-.27.91-.68.13.23.26.45.39.68.49.85,1.79.1,1.3-.75-1.68-2.96-3.37-5.92-5.05-8.88-.39-.68-1.37-.36-1.4.37-.12,2.41-.29,5.11-2.27,6.74-.57.47.06,1.51.74,1.27,1.82-.63,3.64.89,5.39,1.24ZM142.05,56.08c-1.44-.29-2.79-1.13-4.22-1.37.74-1.16,1.1-2.53,1.28-3.94,1.02,1.79,2.03,3.57,3.05,5.36-.04-.01-.07-.04-.11-.05Z"/><path class="cls-1" d="M136.99,50.6c-.23-.35-.66-.49-1.03-.29-.21.12-.42.23-.64.33-.11.05-.22.1-.33.15-.04.02-.09.04-.13.06-.02,0-.04.02-.07.03-.45.17-.91.32-1.37.43-.38.09-.65.53-.53.92.12.4.51.65.92.55,1.02-.25,2-.63,2.91-1.14.34-.19.49-.69.27-1.04Z"/><path class="cls-1" d="M139.16,45.39c-.1-.37-.54-.69-.92-.55-2.29.85-4.54,1.8-6.75,2.85-.37.17-.46.7-.27,1.04.22.38.66.46,1.03.29,2.08-.99,4.21-1.89,6.37-2.7.38-.14.65-.5.53-.92Z"/><path class="cls-1" d="M132.01,46.45c.3-.4.31-.75.3-1.24-.01-.32-.02-.64-.03-.96.39-.15.68-.58.41-1.06-.73-1.3-1.41-2.65-2.2-3.92-.2-.32-.46-.55-.84-.6-.35-.05-.69.1-1.01.23-.7.27-1.37.61-1.99,1.02-.37.25-.55.86-.14,1.2,1.75,1.45,3.21,3.2,4.32,5.19.22.39.89.56,1.19.16ZM128.29,40.7c.22-.12.45-.23.68-.33.1-.04.19-.07.29-.11.02,0,.04-.01.06-.02,0,.01.02.03.02.04.08.14.15.27.23.41.48.86.96,1.71,1.44,2.57-.09.07-.16.15-.21.26-.74-1.02-1.59-1.96-2.51-2.82Z"/><path class="cls-1" d="M133.49,43.68c.14.47.68.72,1.11.48.56-.32,1.12-.64,1.68-.96.84-.48.08-1.8-.76-1.32-.3.17-.59.34-.89.51-.6-1.67-1.45-3.23-2.32-4.78-.48-.86-1.78-.11-1.3.75.96,1.71,1.93,3.43,2.49,5.33Z"/><path class="cls-1" d="M208.87,172.88c-.76-1.49-1.57-2.96-2.44-4.39-.21-.34-.69-.51-1.03-.29-.34.22-.49.67-.27,1.04.87,1.43,1.68,2.9,2.44,4.39.18.36.7.5,1.03.29.36-.23.46-.65.27-1.04Z"/><path class="cls-1" d="M204.07,169.12c-.35-.25-.58-.64-.69-1.04-.14-.53.17-1.18-.17-1.62-.4-.53-1.23-.46-1.8-.32-.21.05-.41.12-.61.21,0-1.33.41-2.62,1.16-3.71.42-.62-.44-1.44-1.04-1.04-.47.31-.8.71-1.12,1.16-.24.33-.46.74-.83.95-.36.21-.84.16-1.24.21-.56.06-1.07.22-1.46.64-.65.71.42,1.79,1.08,1.08.24-.26.66-.22.99-.25.36-.03.71-.08,1.04-.2-.12.83-.11,1.69.03,2.53.08.5.72.7,1.11.48.37-.21.85-.52,1.33-.6.02,1.13.49,2.15,1.48,2.86.33.24.84.05,1.03-.28.21-.38.05-.8-.29-1.04Z"/><path class="cls-1" d="M205.05,161.69c-1.88-1.37-3.36-3.3-4.2-5.48-.22-.57-.8-.74-1.27-.35-1.04.87-.83,2.23-.85,3.45,0,.13,0,.26-.02.39,0,.06-.03.11-.04.16-.07-.09-.16-.18-.17-.2-.13-.15-.26-.31-.38-.48-.46-.63-.83-1.33-1.21-2.01-.37-.68-.75-1.35-1.12-2.03-.35-.63-.89-1.33-1.11-2.02-.1-.32.1-.44.35-.59.02,0,.1-.05.18-.09.05.08.1.15.15.23.43.69.81,1.41,1.16,2.14.42.89,1.72.13,1.3-.75-.26-.55-.54-1.09-.84-1.62-.25-.43-.5-.97-.88-1.31-.12-.11-.26-.18-.4-.23-.02-.06-.03-.13-.07-.19-.43-.74-.62-1.5-.6-2.35.01-.55.03-1.09-.15-1.59.74,1.3,1.48,2.6,2.2,3.91.47.86,1.77.11,1.3-.75-1.99-3.65-4.08-7.25-6.26-10.79-.22-.36-.59-.42-.89-.31-.03-.03-.05-.07-.09-.1-1.22-.98-2.52-1.95-3.91-2.65-.54-.28-1.12-.36-1.59.1-.49.48-.58,1.28-.72,1.93-.28,1.35-.44,2.81.06,4.14.19.5.45,1.08.93,1.36.26.15.58.2.87.15.39-.07.61-.4.96-.5.01,0,.03,0,.04,0,0,.01-.02.03-.02.04-.58,1.37-.63,3.17-.34,4.62.29,1.48,1.31,2.67,2.83,2.88.96.13.95-1.39,0-1.52-1.78-.24-1.56-3.32-1.34-4.53.03-.16.09-.4.17-.65.36.45.67.95,1.12,1.33.39.33.92.66,1.45.62.68-.05,1.06-.75,1.06-1.39,0-1.09-.95-2.31-1.87-2.83-.75-.43-1.46-.29-2.03.13-.25-.12-.51-.21-.78-.23-.36-.03-.72.04-1.04.21-.12.06-.27.15-.38.24-.04-.07-.09-.14-.12-.22-.38-.82-.37-1.77-.25-2.64.07-.51.18-1.01.3-1.51.02-.09.06-.2.07-.29,0-.02,0-.02,0-.04.17.12.41.21.57.31.72.43,1.41.91,2.09,1.41-.57.31-1.17.56-1.82.75-.93.26-.54,1.74.39,1.47,1.09-.31,2.11-.78,3.05-1.42,1.26,2.05,2.48,4.13,3.68,6.22-.24-.29-.64-.48-.99-.24-1.41.96-2.08,2.52-2.32,4.18-.24,1.67-.39,3.48-.26,5.17.14,1.68.68,3.46,2,4.61,1.11.96,2.67,1.41,4.06.91.12-.04.22-.11.29-.19.41.51.92.96,1.53.91,1-.08,1.3-1.21,1.34-2.05.02-.37-.03-.79-.04-1.21,1,1.85,2.39,3.43,4.11,4.69.79.58,1.52-.74.74-1.31ZM190.91,143.95c.04.07.09.13.13.2-.11-.11-.21-.22-.3-.34-.13-.16-.25-.33-.38-.5.21.18.4.42.55.64ZM193.77,158.59c-.97-1.04-1.25-2.53-1.28-3.9-.03-1.32.07-2.69.23-4,.11-.9.34-1.86.86-2.6,0,.38-.05.78,0,1.12.08.72.31,1.39.65,2.02-.14.09-.28.19-.4.29-.72.61-.83,1.48-.43,2.32.48,1.03,1.1,2.01,1.64,3,.48.86.94,1.74,1.48,2.58-.99.28-2.02-.07-2.74-.84Z"/><path class="cls-1" d="M197.29,156.16c.49.85,1.79.1,1.3-.75-.49-.85-1.79-.1-1.3.75Z"/><path class="cls-1" d="M186.45,132.39c.56.07.95-.68.65-1.14-.7-1.07-1.5-2.06-2.4-2.96-.69-.69-1.75.38-1.05,1.07.53.53,1,1.09,1.45,1.68-.34.11-.67.26-.98.43-.4.21-.81.47-1.25.65-.35-.54-.59-1.15-.79-1.75-.14-.42-.26-.84-.4-1.26-.14-.44-.28-.93-.51-1.32-.27-.47-.8-.69-1.31-.51-.45.16-.89.37-1.32.57-.84.39-1.67.82-2.47,1.28-.84.48-.08,1.8.76,1.32.72-.41,1.46-.8,2.22-1.16.32-.15.63-.29.95-.43.03.09.07.17.1.26.43,1.23.74,2.49,1.39,3.6-.09.15-.13.33-.08.54.29,1.2.65,2.38,1.04,3.54-.04.13-.05.26,0,.39.15.43.33.85.57,1.24.2.32.59.47.94.32.31-.13.57-.52.44-.88-.52-1.39-.95-2.8-1.32-4.23.49-.15.95-.38,1.41-.63.62-.34,1.23-.71,1.97-.62ZM180.28,128.74s.02,0,0,0c0,0,0,0,0,0Z"/><path class="cls-1" d="M180.93,125.55c.51.1.85-.27.91-.67.13.23.26.45.39.68.49.85,1.79.1,1.3-.75-1.68-2.96-3.37-5.92-5.05-8.88-.39-.68-1.37-.36-1.4.37-.12,2.41-.29,5.11-2.27,6.74-.57.47.06,1.51.74,1.27,1.82-.63,3.64.89,5.39,1.24ZM181.31,124.09c-1.44-.29-2.79-1.13-4.22-1.37.74-1.16,1.1-2.53,1.28-3.94,1.02,1.79,2.03,3.57,3.05,5.36-.04-.01-.07-.04-.11-.05Z"/><path class="cls-1" d="M176.26,118.61c-.23-.35-.66-.49-1.03-.29-.21.12-.42.23-.64.33-.11.05-.22.1-.33.15-.04.02-.08.04-.12.05-.02,0-.05.02-.07.03-.45.17-.91.32-1.37.43-.38.09-.65.53-.53.92.12.4.51.65.92.55,1.02-.25,2-.63,2.91-1.14.34-.19.49-.69.27-1.04Z"/><path class="cls-1" d="M178.43,113.4c-.1-.37-.54-.69-.92-.55-2.29.85-4.54,1.8-6.75,2.85-.37.17-.46.7-.27,1.04.22.38.66.46,1.03.29,2.08-.99,4.21-1.89,6.37-2.7.38-.14.65-.5.53-.92Z"/><path class="cls-1" d="M171.27,114.46c.3-.4.31-.75.3-1.24-.01-.32-.02-.64-.03-.96.39-.15.68-.58.41-1.06-.73-1.3-1.41-2.65-2.2-3.92-.2-.32-.46-.55-.84-.6-.35-.05-.69.1-1.01.23-.7.27-1.36.61-1.99,1.02-.37.25-.55.86-.14,1.2,1.75,1.45,3.21,3.2,4.32,5.19.22.39.89.56,1.19.16ZM167.56,108.71c.22-.12.45-.23.68-.33.1-.04.19-.07.29-.11.02,0,.04-.01.06-.02,0,.01.02.03.02.04.08.14.15.27.23.41.48.86.96,1.71,1.44,2.57-.09.07-.16.15-.21.26-.74-1.02-1.59-1.96-2.51-2.82Z"/><path class="cls-1" d="M172.75,111.68c.14.47.68.72,1.11.48.56-.32,1.12-.64,1.68-.96.84-.48.08-1.8-.76-1.32-.3.17-.59.34-.89.51-.6-1.67-1.45-3.23-2.32-4.78-.48-.86-1.78-.11-1.3.75.96,1.71,1.93,3.43,2.48,5.33Z"/><path class="cls-1" d="M209.36,188.77H25.82L117.59,29.82l91.77,158.95ZM32.75,184.77h169.69L117.59,37.82,32.75,184.77Z"/><path class="cls-1" d="M148.25,114.43s-1,7.98-5.58,8.83h-22.63v-15.31c.49-4.55,7.46-5.53,7.46-5.53v-1h-19.92v1s6.98.99,7.46,5.54v15.3h-22.52c-4.58-.85-5.58-8.83-5.58-8.83h-3.06v23.66h3.06s1-7.98,5.58-8.83h22.52v24.21h-22.52c-4.59-.85-5.58-8.83-5.58-8.83h-3.06v23.66h3.06s1-7.98,5.58-8.83h22.52v66.26c-14.21,1.27-25.36,13.2-25.36,27.74,0,6.83,2.46,13.08,6.54,17.92-2.53-3.94-4.01-8.63-4.01-13.67,0-13.99,11.34-25.33,25.33-25.33s25.33,11.34,25.33,25.33c0,5.04-1.48,9.72-4.01,13.67,4.08-4.84,6.54-11.09,6.54-17.92,0-14.54-11.15-26.48-25.36-27.74v-66.26h22.64c4.58.85,5.58,8.83,5.58,8.83h3.06v-23.66h-3.06s-1,7.98-5.58,8.83h-22.63v-24.21h22.63c4.59.85,5.58,8.83,5.58,8.83h3.06v-23.66h-3.06Z"/></g></svg>