<?xml version="1.0" encoding="UTF-8"?><svg id="Layer_1" xmlns="http://www.w3.org/2000/svg" viewBox="0 0 241.6 274.34"><defs><style>.cls-1{fill:#fff;}</style></defs><g id="Arrow_5"><path class="cls-1" d="M157.33,76.39s-1,8.89-5.59,9.83h-13.01c-.93-8.36-7.58-15.01-15.94-15.94v-13.01c.93-4.59,9.83-5.59,9.83-5.59v-3.06h-23.66v3.06s8.89,1,9.83,5.58v13.01c-8.36.93-15.01,7.58-15.94,15.94h-13.01c-4.59-.94-5.59-9.83-5.59-9.83h-3.06v23.66h3.06s1-8.89,5.59-9.83h13.01c.93,8.36,7.58,15.01,15.94,15.94v13.01c-.94,4.59-9.83,5.58-9.83,5.58v3.06h23.66v-3.06s-8.9-1-9.83-5.59v-13.01c8.36-.93,15.01-7.58,15.94-15.94h13.01c4.59.94,5.59,9.83,5.59,9.83h3.06v-23.66h-3.06ZM134.69,86.22h-11.89v-11.89c6.15.88,11.01,5.75,11.89,11.89ZM118.8,74.33v11.89h-11.89c.88-6.15,5.75-11.01,11.89-11.89ZM106.91,90.22h11.89v11.89c-6.15-.88-11.01-5.75-11.89-11.89ZM122.8,102.11v-11.89h11.89c-.88,6.15-5.75,11.01-11.89,11.89Z"/><path class="cls-1" d="M142.12,274.34c2.53-3.94,4.01-8.63,4.01-13.67,0-13.99-11.34-25.33-25.33-25.33s-25.33,11.34-25.33,25.33c0,5.03,1.47,9.72,4.01,13.67-4.08-4.84-6.54-11.09-6.54-17.92,0-15.39,12.47-27.86,27.86-27.86,15.39,0,27.86,12.47,27.86,27.86,0,6.83-2.46,13.08-6.54,17.92Z"/><path class="cls-1" d="M133.72,217.23c0-6.46-4.74-11.79-10.92-12.75v-31.83h-4v31.83c-6.19.96-10.92,6.3-10.92,12.75,0,1.47.25,2.88.7,4.2-.04-.4-.06-.81-.06-1.22,0-6.78,5.5-12.28,12.28-12.28s12.28,5.5,12.28,12.28c0,.41-.02.82-.06,1.22.45-1.32.7-2.73.7-4.2Z"/><path class="cls-1" d="M220.67,133.18s-.98,6.98-5.53,7.46H26.46c-4.55-.48-5.53-7.46-5.53-7.46h-1v19.91h1s.98-6.97,5.53-7.46h188.68c4.55.48,5.53,7.46,5.53,7.46h1v-19.91h-1Z"/><path class="cls-1" d="M220.67,162.69s-.98,6.98-5.53,7.46H26.46c-4.55-.48-5.53-7.46-5.53-7.46h-1v19.92h1s.98-6.98,5.53-7.46h188.68c4.55.48,5.53,7.46,5.53,7.46h1v-19.92h-1Z"/><path class="cls-1" d="M240.89,109.54s-5.63,4.24-9.19,1.36L120.8,0,9.9,110.9c-3.56,2.88-9.19-1.36-9.19-1.36l-.71.71,14.08,14.08.71-.71s-4.24-5.63-1.36-9.19L120.8,7.07l107.36,107.36c2.88,3.56-1.36,9.19-1.36,9.19l.71.71,14.08-14.08-.71-.71Z"/><path class="cls-1" d="M104.22,154.57c-1.27.47-2.58.85-3.92,1.17,0-.33-.02-.65-.01-.97,0-1.41,0-2.81,0-4.22,0-.68-1.44-.68-1.44,0,0,1.35,0,2.71,0,4.06,0,.47.02.95.03,1.44-5.44,1.11-11.25,1.31-16.73,2.28-.59.1-.72.75-.17.96,2.88,1.09,5.87,2.01,8.94,2.77.09.84.13,1.68.1,2.52-.02.68,1.42.68,1.44,0,.02-.73,0-1.45-.07-2.18,4.07.92,8.26,1.55,12.52,1.85.4.28,1.31,0,1.2-.54-.56-2.88-.82-5.79-.81-8.69,0-.42-.61-.63-1.08-.45ZM92.11,160.42c-.05-.28-.54-.43-.88-.37-.41.08-.56.36-.5.65.01.08.02.15.04.23-2.13-.54-4.21-1.18-6.25-1.89,4.76-.7,9.67-1.01,14.35-1.91-.04.46-.12.91-.29,1.34-.26.65,1.13.93,1.39.28.24-.62.33-1.27.35-1.92,1.21-.27,2.41-.59,3.58-.98.03,2.45.27,4.9.7,7.33-4.19-.32-8.33-.96-12.33-1.9-.04-.29-.09-.58-.14-.86Z"/><path class="cls-1" d="M82.35,154.12c.06.4,0,.98.41,1.29.4.3,1.03.25,1.55.24.72,0,1.43,0,2.15-.01,3.15-.02,6.29-.03,9.44-.05.4,0,.62-.2.67-.43.16-.08.28-.21.29-.4.05-.96-.02-1.91-.2-2.86-.07-.37-.08-.86-.35-1.2-.28-.35-.79-.39-1.3-.39-2.79-.02-5.57,0-8.36,0-.64,0-1.27,0-1.91,0-.64,0-1.38-.07-2.01.03-.52.08-.83.39-.83.78,0,.53.16,1.09.24,1.62.07.46.14.92.21,1.38ZM83.81,154.6c-.08,0-.04,0,0,0h0ZM84.02,151.36c.36,0,.72,0,1.08,0,.72,0,1.43,0,2.15,0,1.51,0,3.03,0,4.54,0,.72,0,1.43,0,2.15,0,.33,0,.75.05,1.07,0,.03,0,.04,0,.07,0,.03.09.06.18.08.24.23.97.31,1.95.27,2.94-2.75.02-5.5.03-8.25.05h-2.15c-.36.01-.72,0-1.08.02-.04,0-.07,0-.09,0-.02-.13-.04-.27-.06-.4-.08-.52-.16-1.03-.23-1.55-.04-.26-.08-.52-.12-.78-.02-.15-.09-.35-.11-.53.25,0,.55.02.68.02Z"/><path class="cls-1" d="M207.03,156.6c-.9-.5-1.86-.94-2.86-1.33-.11-.97-.22-1.94-.33-2.92h7.11c.92,0,.93-1.05,0-1.05h-7.23c-.03-.29-.07-.58-.1-.88-.08-.67-1.51-.67-1.44,0,.03.29.07.58.1.88-1.17,0-2.35,0-3.52,0-.08-.54-.16-1.07-.25-1.61-.05-.28-.3-.52-.72-.52-.35,0-.77.24-.72.52.09.54.17,1.07.25,1.61-2.19,0-4.39,0-6.58,0-.92,0-.93,1.05,0,1.05h6.72c.06.43.11.87.16,1.3-.06,0-.13-.02-.19-.03-3.44-.37-6.98-.13-10.19.88-1.66.52-3.22,1.28-4.35,2.33-1.13,1.05-1.85,2.35-2.12,3.67-.27,1.35-.02,2.91,1.46,3.87,1.26.81,3.21,1.14,4.67.4.76-.38.04-1.29-.73-.91-1.04.52-2.42.21-3.21-.44-.99-.81-.99-2.06-.7-3.06.32-1.13.96-2.25,2.02-3.11,1.05-.85,2.43-1.47,3.88-1.89,3.05-.89,6.37-1.05,9.56-.63.09.97.16,1.94.21,2.92.03.67,1.47.68,1.44,0-.04-.89-.11-1.79-.19-2.68,1.25.24,2.47.57,3.63.98.23,1.97.45,3.94.68,5.91.08.67,1.51.67,1.44,0-.2-1.78-.41-3.55-.61-5.33.28.12.56.24.83.37,2.83,1.36,5.93,3.62,4.95,6.33-.24.65,1.15.93,1.39.28,1.02-2.83-1.53-5.3-4.45-6.92ZM199.07,153.88c-.05-.51-.12-1.01-.18-1.52h3.5c.09.8.18,1.59.27,2.39-1.16-.37-2.37-.66-3.6-.87Z"/><path class="cls-1" d="M196.99,164.12c.25-.16.29-.42.15-.65-1.24-2.02-2.71-3.96-4.38-5.81-.45-.49-1.51-.19-1.31.4.64,1.95.08,4.04-1.49,5.69-.38.4-1.06.86-.53,1.37.5.47,1.42.21,2.09.14,1.69-.18,3.41-.23,5.12-.18.78.02.89-.71.36-.96ZM193.32,164.07c-.52.03-1.04.07-1.55.12-.18.02-.36.04-.54.06.03-.03.06-.06.09-.09.24-.26.45-.53.64-.81.38-.57.69-1.16.88-1.78.16-.49.23-.99.26-1.49,1.02,1.27,1.96,2.58,2.79,3.93,0,0,.02.01.02.02-.87-.01-1.73,0-2.59.04Z"/><path class="cls-1" d="M49.15,150.1c-.83-.28-1.56.62-.73.91,2.34.8,5.07,1.75,6.29,3.52,1.24,1.79.02,3.88-2.03,5.04-.12-.29-.26-.57-.44-.84-.98-1.51-2.66-2.77-4.41-3.83-1.74-1.05-3.74-2.03-5.9-2.55-1.1-.26-2.3-.38-3.44-.18-1.1.2-1.99.72-2.71,1.33-.98.82-1.91,1.69-2.8,2.57-1.02-1.42-1.45-3.05-.95-4.63.21-.66-1.18-.94-1.39-.28-.64,2.02-.02,4.09,1.41,5.84-1.11,1.18-2.1,2.53-2.16,3.99-.08,1.7,1.31,3.03,3.08,4.01,3.82,2.03,9.38,1.93,13.66.81,2.07-.54,4.36-1.32,5.6-2.71.66-.74.86-1.58.76-2.42,2.49-1.21,4.2-3.41,3.51-5.61-.8-2.56-4.36-3.95-7.35-4.97ZM35.87,155.09c.56-.51,1.09-1.06,1.8-1.47.8-.46,1.8-.57,2.79-.45,1.96.23,3.8,1.1,5.38,1.93,1.6.84,3.16,1.87,4.29,3.07.55.58,1.05,1.26,1.3,1.97-2.3.85-5.07.96-7.61.74v-4.89c0-.68-1.44-.68-1.44,0v4.73c-.87-.12-1.73-.29-2.56-.5v-3.69c0-.68-1.44-.68-1.44,0v3.25c-1.28-.45-2.47-1.02-3.48-1.76-.41-.3-.77-.63-1.11-.97.66-.66,1.37-1.3,2.08-1.94ZM47.15,164.55c-4.12,1.28-9.67,1.56-13.45-.45-1.32-.73-2.38-1.74-2.37-3,.01-1.12.75-2.18,1.55-3.1.02-.02.03-.04.05-.05.01.01.03.03.04.04,1.41,1.31,3.32,2.27,5.41,2.93v1.91c0,.68,1.44.68,1.44,0v-1.52c.69.16,1.38.3,2.08.41.16.02.32.04.48.06v1.32c0,.68,1.44.68,1.44,0v-1.17c2.62.22,5.37.08,7.77-.69-.02.25-.07.5-.18.74-.62,1.32-2.61,2.07-4.25,2.58Z"/><path class="cls-1" d="M80.62,164.37h-21.53c-.93,0-.93,1.05,0,1.05h21.53c.92,0,.93-1.05,0-1.05Z"/><path class="cls-1" d="M80.78,161.15h-22.19c-.92,0-.93,1.05,0,1.05h22.19c.93,0,.93-1.05,0-1.05Z"/><path class="cls-1" d="M76.72,150.6s.01,0,.02,0c0,0,0,0-.02,0Z"/><path class="cls-1" d="M58.83,152.35s.02,0,.01,0c.04,0,.04,0,.04-.01-.04.01-.06.02-.05.02Z"/><path class="cls-1" d="M59.02,154.64c.27.24.55.48.82.72v4.47c0,.68,1.44.68,1.44,0v-3.2c1.47,1.28,2.96,2.54,4.44,3.81.07.11.18.17.31.21.31.13.65.01.85-.19.02-.01.03-.03.04-.04.02-.02.03-.04.04-.07.06-.09.1-.2.07-.32-.04-.16.01-.42.11-.64.12-.28.31-.53.52-.78.21-.25.46-.49.71-.72.25.23.52.45.82.65,1.67,1.11,3.87,1.55,6.08,1.27.38-.05.6-.39.5-.65-.11-.3-.5-.42-.88-.37-1.54.19-3.02-.09-4.28-.76-.48-.26-.91-.59-1.26-.95.14-.11.28-.21.42-.31,1.56-1.15,3.26-2.19,4.92-3.25.83.17,1.69.4,2.32.82.74.49.86,1.11.58,1.82-.26.65,1.13.93,1.39.28.32-.81.28-1.7-.42-2.4-.65-.65-1.62-1.04-2.63-1.32.6-.4,1.18-.82,1.68-1.28.22-.21.29-.46.06-.69-.19-.18-.62-.29-.91-.14,0,0-.03.02-.14.03.02,0-.26.01-.36.02-.46.02-.91,0-1.37,0-.75-.01-1.51-.07-2.25-.03-3.13.15-6.21.92-9.36.88-1.59-.02-3.63-.71-5.14-.05-1.75.76.1,2.47.89,3.2ZM68.66,156.07c-.06-.12-.12-.25-.16-.37-.01-.05-.02-.1-.04-.14,0-.02,0-.06-.01-.08-.01-.12-.02-.24-.01-.36,0-.05,0-.11.02-.16,0-.02,0-.02,0-.03,0,0,0-.01.01-.04.03-.11.07-.22.12-.33,0-.02.04-.08.05-.11.01-.02.05-.07.06-.08.07-.1.15-.19.24-.28.02-.02.07-.06.09-.08.05-.04.11-.08.16-.12.17-.12.16-.11.31-.19.63-.3,1.33-.45,2.12-.51.47-.03.93-.01,1.38.04-.48.3-.97.59-1.43.89-.97.62-1.98,1.26-2.91,1.95ZM58.88,152.33s.06-.02.09-.03c.58-.14,1.36-.06,1.99,0,.45.04.89.09,1.33.15.68.09,1.31.08,2,.04,1.47-.08,2.94-.25,4.39-.42,1.34-.16,2.7-.38,4.06-.42.82-.03,1.65.03,2.47.04.03,0,.08,0,.11,0-.31.23-.63.45-.96.66-.54-.1-1.09-.17-1.63-.23-1.07-.12-2.35.09-3.33.41-1.52.5-2.46,1.57-2.4,2.79.03.56.24,1.1.56,1.61-.43.37-.83.77-1.18,1.18-.22.27-.4.55-.54.84-1.54-1.3-3.1-2.58-4.57-3.92v-1.46c0-.68-1.44-.68-1.44,0v.17c-.33-.32-.64-.65-.85-1.01-.06-.09-.1-.19-.13-.29.01.04-.08-.12-.02-.05-.01-.02-.01-.02-.01-.03,0,0,0,0,.02,0-.01,0,0,0-.01,0,0,0,0,0-.01,0,0-.03.05-.03.06-.02Z"/><path class="cls-1" d="M129.49,161.62c-.34.73-.51,1.48-.53,2.24-3.23-.28-6.48-.36-9.73-.41-.08-.74-.16-1.48-.2-2.22,3.47-.08,6.92-.81,9.73-2.33.12-.07.19-.15.24-.23.17-.23.13-.53-.21-.67-.12-.07-.26-.11-.42-.1-1.56-.24-3.04-.67-4.57-.98-1.79-.36-3.71-.6-5.57-.65-.71-.02-1.41.02-2.11.08-.48-2.28-1.58-4.45-3.57-6.3-.35-.33-1.06-.11-1.2.23-.98,2.27-1.97,4.78-2.12,7.23-.59.11-1.18.2-1.78.28-.45.06-.66.51-.43.77.58.66,1.43,1.07,2.37,1.37.33,1.58,1.13,3.09,2.67,4.44.03.03.06.04.1.06.02.02.04.03.07.04.04.02.08.04.12.05.05.02.11.02.17.03.02,0,.03,0,.05,0,.07,0,.14-.02.22-.04,0,0,.01,0,.02,0,.04-.01.08-.02.12-.04,1.59-.86,2.51-2.04,3.01-3.34.55.05,1.1.08,1.65.09.05.91.13,1.83.25,2.74.04.29.3.52.72.52,3.72.06,7.44.13,11.13.48.37.04.74-.27.72-.53-.07-.88.09-1.71.48-2.55.3-.64-1.09-.92-1.39-.28ZM114.83,159.95c-.77-.1-1.54-.21-2.31-.36-.57-.11-1.22-.22-1.85-.38-.04-.29-.06-.58-.06-.87,1.42-.28,2.84-.58,4.28-.79.09.78.09,1.6-.06,2.4ZM112.3,151.59c1.3,1.48,2.06,3.18,2.42,4.92-1.37.19-2.72.47-4.07.74.19-1.92.91-3.87,1.65-5.66ZM109.04,158.63c.06,0,.12-.02.18-.03,0,.04,0,.08,0,.12-.06-.03-.13-.06-.19-.09ZM112.67,163.25c-.9-.9-1.46-1.88-1.77-2.9.16.04.32.07.47.1,1.03.22,2.08.4,3.15.53-.34.86-.93,1.64-1.85,2.26ZM116.23,160.09c.16-.79.19-1.6.11-2.4-.01-.1-.03-.2-.04-.3.64-.05,1.28-.09,1.93-.07,1.79.05,3.65.29,5.38.65,1.01.21,2,.47,3.01.68-2.31.97-4.94,1.45-7.62,1.51-.02-.59-.04-1.18-.04-1.77,0-.68-1.43-.68-1.44,0,0,.59.02,1.18.04,1.76-.45-.01-.89-.04-1.33-.07Z"/><path class="cls-1" d="M131.1,152.42c-2.03-.98-4.56-1.06-6.87-.72-1.48.22-3.31.52-4.43,1.31-.55.39-.79.93-.48,1.46.38.65,1.34,1.09,2.18,1.39,2.37.85,5.05,1.04,7.6,1.44.78.1,1.36-.05,1.71-.58.34-.53.61-1.09.86-1.64.22-.46.54-.98.55-1.48.01-.56-.53-.9-1.12-1.19ZM129.48,156.29c-1.82-.28-3.66-.46-5.45-.85-.88-.19-1.76-.42-2.54-.78-.27-.12-.55-.27-.75-.46-.03-.03-.13-.15-.11-.12-.03-.04-.03-.07-.03-.09.03-.1.07-.14.21-.23.19-.13.42-.23.68-.33.55-.21,1.15-.35,1.74-.47,1.43-.3,2.92-.5,4.4-.36.6.06,1.2.17,1.75.34.35.11,1.3.38,1.39.67.07.24-1.15,2.7-1.3,2.68Z"/><path class="cls-1" d="M115.35,151.49h1.64v3.25c0,.68,1.44.68,1.44,0v-3.25h5.35c.92,0,.93-1.05,0-1.05h-5.35v-.66c0-.68-1.44-.68-1.44,0v.66h-1.64c-.93,0-.93,1.05,0,1.05Z"/><path class="cls-1" d="M179.61,157.92c-.25,1.17-1.29,2.09-2.7,2.65-1.02.4-2.16.54-3.3.52v-10.65c0-.68-1.44-.68-1.44,0v10.54c-.2-.03-.41-.06-.61-.1-.54-.1-1.05-.23-1.56-.38v-9.8c0-.68-1.44-.68-1.44,0v9.32c-.81-.31-1.6-.66-2.37-1.03-1.61-.78-3.29-1.56-4.75-2.48-1.37-.87-2.59-1.97-2.95-3.29.4.08.78.25,1.12.4.55.25,1.07.51,1.66.7,1.24.41,2.56.61,3.92.59.92-.01.93-1.06,0-1.05-1.46.02-2.86-.25-4.11-.8-1.15-.51-2.19-1.05-3.6-.89-.29.03-.54.3-.53.51.26,3.36,4.53,5.27,7.96,6.96.47.23.96.46,1.46.68-.08-.02-.16-.04-.26-.04-.94.03-1.87.05-2.81.09-.55.02-1.15.04-1.68.18-.5.14-.9.4-1.02.79-.13.4-.01.82.09,1.22.18.68.4,1.36.58,2.04.06.22.35.36.64.38.06,0,.12,0,.18,0,.02,0,.04,0,.06,0,0,0,0,0,.01,0,.05-.01.1-.03.15-.05.04-.02.09-.03.12-.06.01,0,.02,0,.03-.02.02-.02.22-.13.09-.07.07-.03.14-.06.21-.09.02,0,.02-.01.03-.01,0,0,0,0,.03,0,.08-.02.16-.04.24-.05.32-.06.47-.06.89-.07.71,0,1.42.03,2.13-.05.03,0,.3-.04.12-.02.15-.02.27-.03.41-.08.28-.12.44-.35.44-.58,0-.16-.09-.33-.14-.49-.05-.15-.09-.31-.13-.47-.13-.6-.13-1.29,0-1.89.04-.21-.06-.43-.27-.56.65.29,1.33.56,2.03.8v3.47c0,.68,1.44.68,1.44,0v-3.03c.71.19,1.44.34,2.17.43v2.68c0,.68,1.44.68,1.44,0v-2.57c1.22.03,2.44-.12,3.64-.52,1.88-.63,3.42-1.9,3.75-3.41.14-.66-1.24-.95-1.39-.28ZM161.98,161.59s0,0,0,0c0,0,0,0,0,0,0,0,0,0,0,0ZM161.96,161.57s0,0,.03-.01c0,0,0,0,0,.01-.02,0-.02,0-.02,0ZM161.96,161.57s0,0,0,0c0,0,0,0,0,0ZM163.87,163.45c-.47.01-.95.06-1.39.17-.11-.37-.22-.75-.32-1.12-.06-.19-.07-.41-.15-.6,0,.01,0,.01,0,.02,0,0,0-.02,0-.03,0-.04,0-.07-.01-.11,0-.07,0-.13,0-.2,0,0,0-.02,0-.02,0,0,0,0,0,0,0,0,0,0,0,0,0,0,0,0,0,0,0,0,0,0,0,0,0,0,0,0,0-.01,0,0,0,0,.02-.01t0,0s0,0,0,0c0,0,.01-.02.02-.02,0-.01,0,0,0-.01.01-.02.02,0,.01.01,0,0,.01,0,.01-.01,0,0-.01.01-.02.02,0,0,.02,0,.03-.01,0,0,0,0,.01,0,0,0,0,0,0,0,.01,0,.03,0,.04-.02-.02.01-.02,0-.03.01.04,0,.08-.02.12-.03.1-.02.2-.03.3-.05.02,0,.04,0,.05,0,.05,0,.1,0,.15-.01.16-.01.31-.02.47-.03.71-.03,1.42-.05,2.14-.07-.04.32-.05.65-.02.98.03.28.07.57.14.85.02.1.05.19.08.29-.14,0-.27.01-.41.01-.41,0-.83-.01-1.24,0ZM166.07,163.39s0,0,.01,0h.08s-.06,0-.09,0Z"/><path class="cls-1" d="M147.83,151.37c6.19-.15,12.38-.16,18.57-.03.93.02.92-1.03,0-1.05-6.19-.13-12.38-.12-18.57.03-.92.02-.93,1.07,0,1.05Z"/><path class="cls-1" d="M158.58,161.26c-7.17-.13-14.34-.12-21.51.03-.92.02-.93,1.07,0,1.05,7.17-.15,14.34-.16,21.51-.03.93.02.93-1.03,0-1.05Z"/><path class="cls-1" d="M158.58,163.55c-7.17-.13-14.34-.12-21.51.03-.92.02-.93,1.07,0,1.05,7.17-.15,14.34-.16,21.51-.03.93.02.93-1.03,0-1.05Z"/><path class="cls-1" d="M158.93,158.68c-.96.97-2.83.99-4.24.66-1.59-.37-3.2-1.11-4.47-1.89-.44-.27-1.14-.76-1.61-1.3,0,0,.01,0,.02,0,.94-.19,1.94-.19,2.89-.33.92-.13,1.87-.4,2.5-.92.74-.61.14-1.39-.7-1.75-.77-.33-1.72-.36-2.58-.3-.92.07-1.89.2-2.68.56-1.17.53-1.44,1.34-1.23,2.15-.3.13-.58.29-.83.49-.47.37-.76.83-.78,1.34-.01.26.13.56.06.81-.08.28-.59.21-.92.2-1.65-.06-3.16-.69-4.45-1.4-.78-.43-1.51-.93-2.22-1.42-.2-.14-.91-.52-.88-.75.03-.22.93-.47,1.16-.57,1.65-.7,3.37-1.3,5.13-1.84.04,1.1-.11,2.2-.48,3.28-.23.66,1.16.93,1.39.28.49-1.42.66-2.88.48-4.34-.04-.3-.44-.64-.91-.51-2.35.68-4.64,1.48-6.81,2.43-.89.39-1.73.9-1.24,1.73.4.68,1.41,1.22,2.15,1.7,1.59,1.04,3.42,2.04,5.56,2.35.9.13,2.21.27,2.95-.24.35-.24.5-.55.52-.9.02-.33-.14-.68-.02-1.01.1-.26.34-.46.64-.62.18.25.39.48.62.69.72.66,1.63,1.19,2.59,1.66,1.06.52,2.17.99,3.36,1.32,2.18.6,4.81.42,6.25-1.04.54-.55-.7-1.07-1.24-.53ZM148.46,154.52c.45-.36,1.22-.48,1.85-.57.63-.08,1.37-.14,1.99,0,.13.03.26.07.37.13.04.02.16.12.23.15-.02.02-.04.05-.07.06-.06.03-.13.08-.19.11-.15.08-.33.15-.5.2-.69.21-1.47.27-2.21.33-.59.05-1.2.13-1.79.25,0-.24.08-.46.33-.66Z"/><path class="cls-1" d="M162.01,161.92c.01.06.04.11,0,0h0Z"/><path class="cls-1" d="M162.02,161.55s.01,0,.01-.01c.01,0,.03-.01.06-.03,0,0,0,0,0,0,0,0-.01,0-.02,0-.02,0-.02,0-.03.01,0,0,0,0,0,0h0s0,0,0-.01c0,0-.02.01-.03.02h0s0,0,0,0c0,0,0,0,0,0s0,0,0,0c0,0,0,.01-.01.02h0s0,0,0,0h0s0,0,0,0c0,0,.01,0,.02-.02Z"/><path class="cls-1" d="M181.08,154.74c1.79-.16,3.31-1.18,3.43-2.53.1-1.13-.96-2.36-2.55-2.55-1.53-.18-3.17.47-4.23,1.24-1.03.75-1.68,1.92-.69,2.85.89.83,2.66,1.1,4.04,1ZM178.05,152.37s.05-.08.05-.09c.02-.02.03-.05.05-.07.07-.1.16-.2.25-.29.27-.27.75-.57,1.19-.77.51-.23,1-.4,1.61-.47-.09,0,.2,0,.25,0,.05,0,.09,0,.14,0,.03,0,.04,0,.05,0,.01,0,0,0,.03,0,.25.04.46.1.62.19.42.24.64.55.75.93.11.38-.03.84-.43,1.21-.37.35-.96.62-1.53.67-.23.02-.46.02-.69.02-.13,0-.26-.01-.39-.02,0,0-.02,0-.04,0-.08,0-.15-.02-.23-.03-.25-.04-.49-.08-.73-.15-.03,0-.06-.02-.09-.03-.01,0-.12-.04-.12-.04-.12-.04-.24-.09-.35-.15-.02,0-.02,0-.03-.01-.04-.03-.09-.05-.13-.08-.03-.02-.06-.04-.09-.07-.02-.02-.02-.01-.03-.02,0,0,0,0-.01-.02-.02-.03-.16-.21-.1-.11-.02-.04-.04-.07-.05-.11,0-.03-.04-.18-.03-.07-.02-.2,0-.25.07-.42Z"/></g></svg>