<?xml version="1.0" encoding="UTF-8"?><svg id="Layer_1" xmlns="http://www.w3.org/2000/svg" viewBox="0 0 211.48 278.29"><defs><style>.cls-1{fill:#fff;}</style></defs><g id="Arrow_7"><path class="cls-1" d="M38.05,90.03c0-7.7,1.3-15.1,3.67-22-.21,2.11-.32,4.24-.32,6.4,0,35.56,28.83,64.39,64.39,64.39,35.56,0,64.39-28.83,64.39-64.39,0-2.16-.11-4.3-.32-6.4,2.37,6.9,3.67,14.3,3.67,22,0,37.41-30.33,67.74-67.74,67.74-37.41,0-67.74-30.33-67.74-67.74Z"/><path class="cls-1" d="M211.48,183.15H0L105.74,0l105.74,183.15ZM6.93,179.15h197.63L105.74,8,6.93,179.15Z"/><path class="cls-1" d="M126.4,222.35s-1,7.98-5.58,8.83h-12.59V96.11c2.09,1.57,4.67,2.51,7.48,2.51,6.88,0,12.48-5.6,12.48-12.48s-5.6-12.48-12.48-12.48c-2.81,0-5.39.94-7.48,2.51v-11.41c.01-.15.03-.3.03-.46,0-4.98,7.5-6.02,7.5-6.02v-1h-19.91v1s6.45.9,7.38,5.01v12.89c-2.09-1.57-4.68-2.52-7.49-2.52-6.88,0-12.48,5.6-12.48,12.48s5.6,12.48,12.48,12.48c2.81,0,5.4-.94,7.49-2.52v135.08h-12.56c-4.59-.85-5.58-8.83-5.58-8.83h-3.06v23.66h3.06s1-7.98,5.58-8.83h12.56v19.94c-7.72,1.2-13.63,7.86-13.63,15.92,0,1.84.31,3.6.88,5.24-.05-.5-.08-1.01-.08-1.53,0-8.47,6.87-15.33,15.33-15.33s15.33,6.87,15.33,15.33c0,.51-.03,1.02-.08,1.53.56-1.64.88-3.41.88-5.24,0-8.06-5.91-14.72-13.63-15.92v-19.95h12.6c4.58.85,5.58,8.83,5.58,8.83h3.06v-23.66h-3.06ZM115.7,78.65c4.13,0,7.48,3.36,7.48,7.48s-3.36,7.48-7.48,7.48-7.46-3.34-7.48-7.45v-.08c.02-4.11,3.37-7.44,7.48-7.44ZM95.73,93.62c-4.13,0-7.48-3.36-7.48-7.48s3.36-7.48,7.48-7.48,7.48,3.36,7.48,7.48-3.36,7.48-7.48,7.48Z"/></g></svg>