<?xml version="1.0" encoding="UTF-8"?><svg id="Layer_1" xmlns="http://www.w3.org/2000/svg" viewBox="0 0 768 874.55"><defs><style>.cls-1{fill:#fff;}</style></defs><g id="BigCircle_3"><path class="cls-1" d="M356.3,817.93c-96.64-6.89-186.43-49.79-252.83-120.8C36.75,625.78,0,532.66,0,434.92S36.8,243.93,103.61,172.55c66.49-71.03,156.39-113.89,253.12-120.68l.42,5.98C160.24,71.68,6,237.3,6,434.92s154.06,363,350.72,377.03l-.43,5.98Z"/><path class="cls-1" d="M411.7,817.93l-.43-5.98c196.67-14.03,350.72-179.64,350.72-377.03S607.76,71.68,410.85,57.86l.42-5.98c96.73,6.79,186.63,49.65,253.12,120.68,66.81,71.37,103.61,164.55,103.61,262.37s-36.75,190.86-103.47,262.21c-66.4,71.01-156.19,113.91-252.83,120.8Z"/><path class="cls-1" d="M127.66,200.16c-1.9-.84-3.78-1.72-5.65-2.62.58-1.34,1.14-2.68,1.63-4.03.74-2.03,1.34-4.1,1.88-6.12.11-.37.2-.74.29-1.11.06-.06.12-.13.18-.19,2.09-2.16,4.13-4.37,6.1-6.64.47-.55.59-1.46-.14-1.46-1.16,0-2.55.92-2.96,2.24-.05.17-.05.32-.03.45-.86.95-1.7,1.91-2.57,2.84l-.2.21c.01-.64-.05-1.25-.23-1.81-.48-1.5-1.91-2.18-3.75-1.8-1.85.39-3.86,1.53-5.57,2.67-3.98,2.55-7.79,5.82-11.1,9.49-1.6,1.88-3.03,3.91-4.33,5.98-1.17,1.87-2.23,3.93-2.18,5.8.04,1.76,1.07,2.99,2.84,2.83,1.73-.16,3.55-1.36,5.16-2.55,2.23-1.63,4.24-3.62,6.27-5.56.79-.71,1.56-1.44,2.33-2.16,1.37.72,2.75,1.42,4.14,2.1-.29.61-.57,1.23-.88,1.84-.48.95-1,1.88-1.51,2.83-.49.96-1.01,1.92-1.55,2.86-1.13,1.96-2.39,4.05-4.22,5.44-3.31,2.51-7.07,1.24-7.06-2.34,0-1.15-1.79-.65-1.79.5-.01,3.64,2.73,5.76,6.4,4.8,4.14-1.09,6.79-5.38,8.86-9.18.52-1,1.08-1.97,1.61-2.95.53-.98,1.03-1.97,1.51-2.97.02-.05.04-.1.07-.15,1.8.86,3.6,1.69,5.44,2.49.91.39,1.96-1.34,1.05-1.74ZM111.69,198.21c-1.5,1.46-3.03,2.9-4.66,4.18-1.34,1.05-3.06,2.4-4.56,2.58-1.66.21-1.89-1.58-1.37-3.16.58-1.73,1.82-3.52,2.92-5.11,2.36-3.53,5.47-6.55,8.71-9.21,1.65-1.33,3.35-2.55,5.09-3.63.71-.43,1.49-.95,2.3-1.34.82-.38,1.65-.66,2.38-.69,1.98-.05,2.09,1.84,1.7,3.91l-.23.24-2.36,2.54c-1.88,2-3.82,3.93-5.79,5.82-1.78-.96-3.54-1.95-5.27-2.99-.35-.21-.86-.17-1.3.31-.36.39-.53,1.09-.17,1.3,1.68,1,3.39,1.95,5.12,2.88-.84.78-1.66,1.58-2.51,2.34ZM117.22,195.11c.86-.83,1.72-1.66,2.56-2.5,1.06-1.07,2.1-2.15,3.13-3.25.18-.2.36-.39.55-.59-.13.43-.24.83-.33,1.16-.69,2.32-1.54,4.63-2.52,6.92-1.14-.56-2.26-1.14-3.38-1.74Z"/><path class="cls-1" d="M142.35,178.56c.35.38.69.75,1.03,1.13.64.72,2.18-.68,1.54-1.41-.33-.38-.68-.75-1.02-1.13.08-.07.16-.15.24-.22l.2-.18c.05-.03.1-.04.15-.07.75-.45,1.43-1.23,2.07-1.83l2.54-2.38c.98-.92.01-2.03-1-1.12l-4.21,3.78c-.15-.09-.29-.22-.42-.31l-1.54-1.02c-.33-.22-.72-.07-1.02.21-3.83-3.78-8.08-7.17-12.76-10.08-.84-.52-2.15,1.21-1.3,1.74,5.39,3.3,10.2,7.29,14.46,11.77-1.06.95-2.12,1.91-3.12,2.94l-9.54,9.42c-.96.96.12,1.99,1.08,1.04l9.5-9.38c.99-1.02,2.04-1.97,3.09-2.92Z"/><path class="cls-1" d="M151.04,175.31c-2.6,2.19-5.21,4.35-7.85,6.5-2.55,2.23-5.11,4.47-7.67,6.71-1.01.87.06,1.92,1.06,1.06,2.55-2.23,5.1-4.46,7.64-6.68,2.63-2.14,5.24-4.29,7.82-6.47,1.02-.86.02-1.98-1-1.12Z"/><path class="cls-1" d="M125.62,173.48c.06,0,.12.02.17.02.09.03.18.07.26.11.06.05.12.1.17.16.07.08.16.12.27.14.1.04.21.04.33.01.12-.02.24-.06.36-.14.12-.06.24-.14.34-.25.19-.21.36-.46.39-.7v-.23c0-.15-.05-.28-.14-.38-.15-.19-.36-.34-.58-.45-.14-.07-.3-.1-.45-.14-.1-.02-.2-.04-.31-.04-.22-.01-.47.06-.7.22-.12.08-.23.18-.32.3-.1.11-.18.22-.23.35-.09.24-.13.49-.04.67.09.18.25.32.48.33Z"/><path class="cls-1" d="M171.17,147.56l-1.85-2.76-.96-1.43c-.13-.19-.32-.4-.41-.61-.03-.06-.05-.14-.06-.21,0,0,.02-.01.03-.02.72-.62.67-1.82-.39-1.45-.5.17-.86.45-1.12.77-.19.16-.38.31-.56.47.99-2.37,2.1-4.76,3.34-7.14.36-.64-.11-1.48-1.01-.96-4.99,3.04-9.99,6.18-14.86,9.52-4.73,3.52-9.45,7.1-14,10.91-1.06.95-.07,2.07.99,1.13,4.45-3.73,9.07-7.24,13.7-10.69,4.06-2.81,8.23-5.45,12.41-8.02-1.24,2.54-2.37,5.06-3.33,7.57-.53.44-1.06.9-1.59,1.33-1.87,1.52-3.76,3-5.57,4.6-.66.57-1.34,1.11-2.01,1.67-.64-.8-1.27-1.62-1.87-2.45-.56-.79-2.25.62-1.68,1.4.61.83,1.24,1.65,1.89,2.45-2.48,2.05-4.99,4.08-7.53,6.06-1.06.9-.07,2.03.98,1.13,2.54-1.98,5.03-4,7.51-6.04,1.24,1.46,2.55,2.87,3.93,4.21.69.67,2.33-.68,1.64-1.36-1.37-1.35-2.67-2.77-3.9-4.24.66-.56,1.34-1.1,1.99-1.66,1.69-1.5,3.46-2.9,5.22-4.32-1.55,4.5-2.62,8.99-3.13,13.49-.18,1.4-.37,2.91-.14,4.19-2.52-.65-4.98-1.42-7.36-2.32-.96-.36-2.3,1.25-1.32,1.61,3.24,1.21,6.6,2.21,10.07,2.99.77.17,1.79-1,1.25-1.53-.84-.81-.93-2.02-.85-3.31.07-1.23.26-2.51.45-3.77.4-2.58.92-5.24,1.7-7.78.56-1.9,1.21-3.82,1.93-5.75.51-.42,1.01-.84,1.51-1.27.6,1.19,1.51,2.25,2.26,3.34l4.07,5.96c-2.28.59-4.51,1.84-6.4,3.61-.98.92.37,1.71,1.34.8,1.81-1.69,4.21-2.81,6.41-3.02.8-.07,1.48-.94,1.1-1.5l-3.78-5.61Z"/><path class="cls-1" d="M190.7,135.6c.52-.35.67-.8.5-1.19-.66-1.52-1.5-2.94-2.51-4.25-.24-.31-.82-.4-1.32-.06-.47.3-.76.88-.5,1.21,1.02,1.3,1.87,2.72,2.54,4.24.16.37.85.33,1.3.05Z"/><path class="cls-1" d="M208.04,127.34c-1,.55-2.02,1.07-3,1.66l-2.67,1.63c.23-1.84-.11-3.6-1.17-4.89-1.37-1.68-3.78-2.34-6.48-2.31-2.95.03-6.14.69-9.27,1.49-1.66.39-3.27.95-4.88,1.53-.82.3-1.64.61-2.45.91-.81.31-1.68.58-2.38,1.17-1.39,1.17-1.23,2.8-1.05,3.93.21,1.34.79,2.62,1.83,3.45,1,.81,2.47.86,4.07.52,1.42-.3,3.25-1.02,4.24-.26.78.6,2.26-.89,1.48-1.5-1.58-1.23-4.08-.07-6.3.21-2.64.33-3.45-2.36-3.41-4.28.01-.53-.03-.95.68-1.26.68-.3,1.39-.54,2.08-.8,1.44-.54,2.88-1.05,4.32-1.51,2.79-.84,5.67-1.46,8.41-1.77,2.29-.25,4.69-.21,6.3.78,1.68,1.03,2.31,2.93,2.05,4.97-.04.31-.1.62-.18.93l-3.97,2.45c-1.93,1.22-3.9,2.38-5.78,3.68l-5.6,3.94c-1.11.78-.26,2.02.84,1.24l5.58-3.93c1.87-1.29,3.83-2.44,5.75-3.66l2.27-1.4c-.58,1.1-1.35,2.15-2.24,3.15-.88.98-1.88,1.91-2.94,2.77-1.07.84-2.12,1.74-3.22,2.49-1.42,1-2.89,1.93-4.39,2.79-1.16.67-2.81,1.64-4.07,1.68-.73.02-1.04-.64-1.35-1.07-.38-.52-.76-1.05-1.12-1.58-.73-1.07-1.42-2.16-2.07-3.27-.49-.83-2.26.38-1.76,1.2.68,1.14,1.4,2.27,2.16,3.36.37.53.75,1.05,1.13,1.57.37.49.73,1.01,1.35,1.28,1.1.48,2.61,0,3.91-.56,1.53-.65,3.01-1.54,4.43-2.44,5.2-3.42,10.89-7.55,12.7-12.94l1.01-.62,2.91-1.78c.97-.59,1.99-1.1,2.99-1.65,1.19-.64.45-1.95-.75-1.3Z"/><path class="cls-1" d="M136.77,162.84c2.08,1.07,4.03,2.29,5.85,3.66.33.25,1.02-.09,1.33-.5.38-.51.27-.95-.06-1.19-1.81-1.38-3.75-2.61-5.82-3.69-.88-.46-2.19,1.26-1.29,1.72Z"/><path class="cls-1" d="M215.51,121.2c-.31-.59-.68-1.18-1.02-1.79,1.04-.87,2.11-1.73,3.21-2.56,1.13-.82,2.3-1.57,3.47-2.34,4.74-3.02,9.46-6.03,14.21-9.07.74-.48.55-1.41-.33-1.35-1.44.1-2.91.21-4.36.38-1.44.21-2.88.46-4.33.73-1.72.33-3.46.71-5.19,1.11-.66-1.01-1.24-2.06-1.74-3.15-.4-.88-2.39.1-1.98.98.44.94.94,1.85,1.5,2.73-.44.11-.89.21-1.33.33-1.46.4-2.94.79-4.38,1.27-1.43.51-2.86,1.04-4.29,1.6-2.71,1.07-5.41,2.24-8.08,3.49-.74-.05-1.76.97-1.23,1.56,2.8,3.15,5.21,6.56,7.25,10.18.29.52,1.23.35,1.72-.21,1.31-1.49,2.74-2.91,4.25-4.26.23.4.47.8.68,1.2l2.89,5.29c.47.84,2.28-.16,1.82-1.01l-2.75-5.11ZM208.16,123.26c-1.77-3.03-3.8-5.9-6.09-8.6,2.43-1.13,4.87-2.19,7.34-3.15,1.38-.54,2.76-1.05,4.14-1.54,1.38-.49,2.82-.85,4.23-1.24.7-.19,1.4-.34,2.09-.51.24.34.49.68.75,1.01.25.32,1.02.19,1.43-.12.51-.38.52-.84.27-1.16-.07-.09-.13-.18-.2-.27,1.37-.31,2.74-.59,4.11-.85,1.87-.34,3.71-.65,5.56-.87-1.57,1.02-3.14,2.06-4.73,3.07l-7.25,4.63c-2.11,1.32-4.09,2.84-5.99,4.4-.26-.61-.46-1.23-.52-1.9-.1-1.01-2.11-.35-2.01.65.1.95.44,1.83.85,2.67-1.39,1.22-2.73,2.47-3.97,3.79Z"/><path class="cls-1" d="M238.69,112.73l-1.09-1.67c-.31-.48-.58-1.27-1.32-1.43-.73-.16-1.54.28-2.25.6-.96.44-1.9.94-2.85,1.41l-12.5,6.24c-.52.29-.67.7-.59,1.02-.16.22-.23.47-.11.72.57,1.25,1.3,2.4,2.16,3.48.34.42.68,1.03,1.24,1.27.59.24,1.28-.03,1.94-.36l10.86-5.35,2.48-1.23c.84-.4,1.87-.71,2.65-1.21.64-.41.87-.99.64-1.49-.31-.69-.85-1.33-1.27-1.97ZM235.33,111.28c.11-.05.06-.01,0,0h0ZM235.57,116.28l-2.8,1.39-5.92,2.93-2.81,1.38c-.43.21-1.01.42-1.4.69-.04.01-.05.02-.08.03-.09-.09-.21-.18-.27-.25-.94-1.08-1.69-2.28-2.29-3.55l10.88-5.44,2.84-1.42c.47-.24.97-.44,1.44-.67.05-.03.09-.04.13-.06l.32.48,1.24,1.88.62.94c.12.19.33.4.46.63-.32.15-.75.3-.92.37-.48.2-.95.42-1.42.66Z"/><path class="cls-1" d="M280.03,80.46c-2.21-.66-5.17-.12-6.99,1.56-.94.88.49,1.78,1.44.89,1.3-1.18,3.41-1.47,4.86-.86,1.78.71,2.27,2.43,2.26,3.92,0,1.69-.5,3.42-1.64,5.1-1.13,1.65-2.81,3.12-4.66,4.36-1.77,1.19-3.69,2.2-5.69,3.02-2,.82-4.09,1.45-6.17,2.06-.1.03-.2.05-.3.07-1.04-2.04-2.01-4.11-2.9-6.22-.37-.89-2.4-.12-2.02.77.86,2.01,1.8,3.99,2.8,5.95-2.15.44-4.32.7-6.45.78-1.33-2.5-2.65-5.01-3.99-7.5-.46-.85-2.5-.08-2.04.77,1.23,2.24,2.43,4.5,3.64,6.74-.44-.01-.88-.03-1.32-.06-2.34-.2-4.84-.47-6.82-1.29-1.98-.81-3.42-2.12-3.49-4.21-.03-1-2.13-.53-2.09.48.18,4.32,5.13,6.02,9.95,6.44,1.5.17,3.05.24,4.63.23.59,1.09,1.18,2.17,1.76,3.26-.96.28-1.91.58-2.87.84-2.35.67-4.65,1.46-6.99,2.13-1.28.38-1.23,1.93.06,1.55,2.38-.69,4.72-1.46,7.09-2.18,1.15-.32,2.29-.67,3.44-1,.27.51.56,1.03.83,1.54.45.85,2.39.12,1.94-.74-.25-.47-.5-.93-.74-1.4.55-.17,1.11-.32,1.67-.49,1.45-.45,2.88-.93,4.32-1.41.24.18.59.24,1.01.09.31-.11.6-.38.71-.65.34-.11.68-.22,1.02-.33,2.34-.8,4.74-1.45,7.09-2.23,1.28-.41.81-1.84-.47-1.42-2.32.77-4.68,1.42-6.99,2.2-.39.13-.79.25-1.18.39-.31-.56-.62-1.11-.91-1.67,1-.28,1.99-.6,2.98-.92,1.21-.37,2.4-.8,3.57-1.29,2.33-.97,4.53-2.16,6.56-3.58,2.1-1.45,3.96-3.27,5.16-5.12,1.19-1.88,1.72-3.95,1.59-5.87-.14-1.96-1.1-4.01-3.67-4.72ZM258.99,105.51c-.7.22-1.42.41-2.12.62-.48-.92-.97-1.83-1.46-2.74,2.11-.13,4.25-.44,6.36-.91.32.6.65,1.2.99,1.8-1.26.41-2.51.84-3.77,1.23Z"/><path class="cls-1" d="M258.7,87.83c-.28.36-.2.72.1.95,1.38,1.02,2.81,1.99,4.3,2.91,1.51.97,3.07,1.88,4.68,2.74.86.46,2.22-.44,1.68-1.15-1.79-2.34-1.96-5.44-.42-8.41.37-.72,1.16-1.68.16-2.11-.94-.41-2.17.39-3.11.8-2.37,1.08-4.89,1.86-7.34,2.77-1.13.39-.93,1.43-.06,1.49ZM264.01,86.04c.74-.28,1.47-.58,2.2-.89l.76-.33c-.03.05-.06.11-.09.16-.23.46-.41.93-.56,1.4-.3.95-.46,1.9-.46,2.82,0,.74.12,1.45.31,2.14-2.06-1.25-4.03-2.59-5.86-3.95,0,0-.02,0-.03-.01l1.35-.49c.8-.27,1.59-.55,2.37-.85Z"/><path class="cls-1" d="M329.88,70.41c-5.01-.97-10.87.36-16.12,1.2-1.52.21-3.01.59-4.51.89l-4.5.98-8.99,1.99c-3.36.84-6.69,1.82-10.03,2.73-.45.12-.69.37-.79.62-.86.2-1.44,1.15-.51,1.44,2.96.96,5.98,1.76,9.07,2.46-1.12.85-2.08,1.79-2.7,2.85-1.23,2.08-.71,4.31.57,5.96,1.47,1.89,3.89,3.13,6.2,4.34.98.52,2.14-.91,1.16-1.42-3.15-1.66-7.33-3.87-6.42-7.53.36-1.45,1.74-2.69,3.27-3.74,2.56.55,5.17,1.06,7.83,1.56,1.5.26,2.89.51,4.18-.57,1.18-.98,2.26-2.02,3.5-2.99,1.13-.92,2.33-1.75,3.58-2.53.31.02.61.03.92.06,2.18.19,4.32.52,6.33,1.02,1.74.43,3.62,1.07,4.55,2.22,1.08,1.33.22,2.99-1.45,4.09-2.14,1.41-5.07,1.67-7.67,1.73-1.34.03-1.62,1.54-.28,1.51,2.72-.06,5.61-.32,8.05-1.5,1.95-.95,3.62-2.49,3.9-4.18.67-3.88-5.37-5.34-9.6-5.99-.81-.13-1.64-.23-2.48-.31.76-.42,1.53-.83,2.32-1.23,3.3-1.67,6.87-3.09,10.56-4.27.89-.28.89-1.24.06-1.4ZM308.37,81.29c-.52.44-1.03.88-1.53,1.32-.24.22-.48.5-.76.69-.36.24-.61.16-1.02.1-2.48-.38-4.95-.9-7.37-1.44,1.38-.69,2.85-1.25,4.36-1.71,2.21-.67,4.49-1.12,6.77-1.38,1-.1,1.99-.18,2.98-.23-1.19.85-2.33,1.74-3.42,2.65ZM315.8,76.12c-.57.31-1.13.64-1.68.97-.19,0-.38-.03-.57-.03-.66,0-1.33.02-2,.06-2.67.14-5.38.52-8.02,1.17-2.59.64-5.12,1.53-7.38,2.72-.25.14-.5.29-.74.44-2.77-.59-5.48-1.3-8.14-2.1l4.33-1.2c1.83-.49,3.64-1.05,5.49-1.42l11.08-2.44c1.83-.38,3.65-.83,5.5-1.13l5.55-.88c2.17-.34,4.39-.65,6.55-.66-1.98.73-3.92,1.52-5.78,2.39-1.44.67-2.84,1.38-4.19,2.13Z"/><path class="cls-1" d="M300.75,88.58l1.35,6.85c.19.95,2.21.5,2.03-.45l-1.31-6.86c-.18-.95-2.26-.49-2.07.46Z"/><path class="cls-1" d="M306.5,86.92c-.56.24-.71.69-.52,1.06.83,1.65,1.52,3.35,2.06,5.09.12.39.6.63,1.18.51.52-.12.98-.57.86-.96-.57-1.87-1.31-3.69-2.19-5.47-.18-.37-.9-.44-1.39-.23Z"/><path class="cls-1" d="M16.35,412.72c4.16-.61,8.32-.73,12.47-.45.59.04.95-.83.74-1.55-.55-1.92-.95-3.89-1.23-5.9.47.03.93.05,1.39.09l6.01.5c.96.08,1.14-1.99.17-2.08l-5.78-.52c-.67-.06-1.36-.09-2.05-.13-.85-8.17-.09-16.85-.15-25.13-.01-.89-.89-1.24-1.31-.47-2.23,4.02-4.17,8.32-5.8,12.81-1.21,0-2.42-.1-3.61-.28-.97-.15-1.23,2.05-.26,2.19,1.03.15,2.07.23,3.12.25-2.02,5.99-3.5,12.3-4.35,18.77-.45.58-.14,2.01.65,1.89ZM22.76,389.84c-.11,0-.22,0-.32.01,1.16-3.1,2.5-6.08,3.96-8.95-.07,7.2-.49,14.56.16,21.6-.65-.12-1.28-.3-1.88-.61-.89-.47-1.46,1.57-.57,2.03.85.44,1.76.64,2.69.76.24,1.83.56,3.64.99,5.41-3.5-.19-7.01-.08-10.52.35.87-6.35,2.37-12.54,4.41-18.41.41-.02.82-.04,1.23-.07.41-.03.7-.74.68-1.26-.04-.63-.41-.89-.82-.86Z"/><path class="cls-1" d="M38.66,383.08c.14-.92.4-1.96.4-2.88,0-.77-.37-1.27-.91-1.36-.75-.12-1.57-.02-2.33-.02h-1.99c-.57-.01-1.38-.23-1.91.3-.52.52-.58,1.45-.7,2.21-.15,1.05-.33,2.1-.46,3.15l-.87,6.93c-.27,2.31-.48,4.63-.73,6.95-.06.59.19.94.5,1.05.09.25.26.45.52.49,1.36.21,2.72.24,4.1.11.54-.05,1.24,0,1.76-.34.55-.36.68-1.09.76-1.82.42-4.02.95-8.02,1.47-12.02.11-.92.26-1.83.39-2.74ZM32.81,380.83c.02-.12.02-.06,0,0h0ZM37.1,383.37c-.17,1.03-.3,2.06-.43,3.1l-.85,6.55-.34,3.11c-.05.48-.19,1.08-.17,1.55,0,.04-.01.06-.02.09-.12.02-.27.08-.35.09-1.41.19-2.82.16-4.21-.04l.59-5.71.8-6.38c.13-1.05.26-2.1.43-3.14.08-.52.18-1.05.24-1.57,0-.06.01-.1.02-.14h.58s2.24,0,2.24,0h1.12c.22,0,.51-.05.77-.04-.05.35-.15.79-.18.98l-.23,1.55Z"/><path class="cls-1" d="M53.95,553.39c.38-.19.75-.38,1.13-.57.86-.43.17-2.39-.7-1.96-.38.18-.75.37-1.13.56-.57-1.61-1.12-3.23-1.66-4.85.69-.35,1.38-.7,2.06-1.07.36-.19.57-.64.39-1.22-.16-.48-.68-.94-1.04-.75-.68.36-1.37.71-2.07,1.06-1-3.03-1.96-6.07-2.88-9.13-.39-1.29-1.83-.87-1.44.43.94,3.14,1.93,6.26,2.95,9.37-.56.27-1.13.55-1.7.81-.02-.09-.03-.19-.05-.28-.27-1.24-.6-2.47-.97-3.69-.35-1.22-.76-2.42-1.22-3.6-.94-2.35-2.09-4.59-3.4-6.67-1.37-2.15-3.08-4.08-4.91-5.33-1.86-1.25-3.94-1.84-5.86-1.76-1.97.08-4.04.98-4.8,3.53-.67,2.18-.29,5.18,1.32,7.06.84.97,1.79-.44.95-1.42-1.14-1.34-1.3-3.48-.68-4.9.75-1.76,2.48-2.2,3.97-2.15,1.69.06,3.45.59,5.06,1.8,1.6,1.19,2.99,2.92,4.15,4.81,2.47,3.97,4.13,8.56,5.03,13.23-1.27.56-2.56,1.1-3.85,1.6-.9.35-.23,2.39.67,2.04,1.19-.47,2.37-.97,3.54-1.49.27,1.87.41,3.73.43,5.56-2.53,1.25-5.07,2.49-7.59,3.76-.86.43-.13,2.5.73,2.05,2.27-1.16,4.55-2.29,6.83-3.43-.02.44-.04.88-.07,1.31-.38,4.6-1.67,10.14-5.82,10.17-1,0-.61,2.13.39,2.12,4.31-.04,6.2-4.97,6.82-9.81.21-1.49.3-3.04.32-4.61,1.25-.63,2.5-1.26,3.76-1.89,1.17,3.25,2.37,6.5,3.65,9.71.48,1.26,1.88.71,1.4-.55-1.29-3.26-2.51-6.54-3.69-9.84ZM48.81,553.62c-.08-1.8-.27-3.61-.56-5.43.66-.31,1.32-.62,1.98-.95.54,1.62,1.1,3.24,1.67,4.85-1.03.51-2.06,1.02-3.08,1.53Z"/><path class="cls-1" d="M39.11,539.23c-2.39,1.72-5.49,1.8-8.44.17-.72-.39-1.65-1.21-2.11-.22-.43.93.35,2.17.75,3.12,1.02,2.41,1.82,4.92,2.6,7.43.34,1.14,1.39.98,1.48.1.35.29.71.23.95-.07,1.07-1.35,2.1-2.76,3.07-4.23.99-1.47,1.94-3.01,2.84-4.59.48-.84-.4-2.23-1.13-1.71ZM33.01,548.19s0,.03-.01.04c-.4-1.26-.81-2.52-1.25-3.76-.27-.75-.56-1.49-.85-2.22l-.32-.77c.05.03.11.06.16.09.46.24.93.44,1.39.6.94.32,1.9.51,2.82.54.73.02,1.44-.06,2.13-.22-1.29,2-2.66,3.92-4.07,5.71Z"/><path class="cls-1" d="M34.17,334.08c.64,4.1,3,7.37,6.31,7.21,3.87-.19,7.11-4.66,9.81-8.36.74-1.03-.19-2.43-.93-1.39-1.04,1.46-2.18,3.04-3.42,4.39-1.22,1.36-2.53,2.49-3.99,3.02-2.95,1.08-5.35-1.45-6.12-4.88.44-.06.88-.16,1.32-.3,2.5-.8,4.96-2.67,7.14-4.7,2.15-2.03,4.47-4.35,6.14-7.11.84-1.41,1.62-2.99,1.9-4.65.28-1.61,0-3.08-.46-4.39-.61-1.75-1.27-3.48-1.98-5.17,2.43-.69,4.84-.42,6.68,1.09.77.62,1.86-1.11,1.09-1.74-2.35-1.93-5.42-2.18-8.52-1.09-.99-2.14-2.25-4.24-4.15-5.11-2.21-1.01-4.74.28-7.02,2.31-4.86,4.43-7.53,12.7-8.03,19.45-.19,3.28-.15,6.98,1.21,9.34.75,1.27,1.82,1.88,3.01,2.07ZM49.71,312.26c.4,1.03.89,2.04,1.08,3.22.22,1.33-.12,2.76-.76,4.07-1.25,2.6-3.24,4.79-5.11,6.64-1.88,1.88-3.93,3.67-6.06,4.79-1.04.55-2.18.98-3.26,1.06-.16-3.67.91-7.73,2.43-11.28l4.45,1.47,2.19.72c.92.3,1.58-1.71.67-2.02l-6.4-2.16c.31-.65.64-1.29.99-1.92.3-.51.62-1.01.94-1.5l4.98,1.73c.91.32,1.63-1.69.72-2.01l-4.37-1.55c1.25-1.6,2.61-3.01,4.14-4.05.61-.42,1.24-.78,1.88-1.07.54,1.26,1.01,2.56,1.52,3.87ZM31.44,323.97c.08-3.28.72-7,1.93-10.45,1.27-3.43,3.01-6.63,5.42-8.81,1.7-1.52,3.62-2.51,5.29-1.84,1.49.6,2.49,2.19,3.3,3.77.02.03.03.07.05.1-.03.01-.05.02-.08.04-2.52,1.3-4.8,3.52-6.73,6.19l-2.57-.91c-.91-.32-1.65,1.75-.73,2.06l2.06.72c-.56.9-1.1,1.83-1.58,2.79-.1.21-.2.44-.31.66l-.66-.22-1.13-.38c-.91-.31-1.61,1.78-.69,2.08l1.59.52c-.66,1.58-1.26,3.21-1.7,4.89-.56,2.23-.89,4.48-.88,6.65-.33-.13-.65-.3-.94-.57-1.54-1.43-1.67-4.65-1.64-7.28Z"/><path class="cls-1" d="M19.77,373.88c1.56-9.25,3.46-18.45,5.69-27.56l1.19-4.7c.35-1.37-1.1-1.76-1.45-.38-2.38,9-4.34,18.11-6,27.27l-.91,5.12c-.22,1.41,1.26,1.65,1.48.25Z"/><path class="cls-1" d="M22.79,374.64c-.22,1.39,1.26,1.63,1.48.25,1.6-9.54,3.57-19.03,5.9-28.42l1.12-4.4c.34-1.36-1.1-1.75-1.45-.38-2.46,9.25-4.47,18.62-6.18,28.03-.29,1.64-.61,3.27-.87,4.92Z"/><path class="cls-1" d="M42.96,352.15c.6-2.24,2.28-4.87,1.91-7.23-.4-2.74-3.46-.78-4.74.11-.44.3-.87.61-1.31.91l-6.17-1.59c-.93-.24-1.47,1.86-.53,2.1l4.42,1.11c-2.3,1.67-4.59,3.42-6.83,5.19-.16.07-.29.19-.38.36-.31.43-.26,1.02-.02,1.38,0,0,0,0,0,0,.05.07.1.13.17.18.1.08.22.14.37.14.24,0,.58.15.85.36.35.26.64.63.91,1.01.28.39.53.82.76,1.26-.41.29-.8.63-1.17,1-2.03,2.11-3.36,5.24-3.59,8.58-.03.58.39.99.77.91.44-.09.72-.63.75-1.21.17-2.31,1.03-4.42,2.34-6.06.5-.63,1.09-1.17,1.71-1.57.11.23.21.47.32.71,1.15,2.61,2.07,5.36,3.11,8.04-.47,1.15-1.01,2.34-1.77,3.15-.88.95-1.78.97-2.71.38-.85-.54-1.6,1.42-.76,1.96,1.06.67,2.32.82,3.49-.02,1.08-.78,1.88-2.08,2.54-3.46.41.97.84,1.91,1.37,2.74.24.37.58.54.95.25.31-.23.56-.81.43-1.26,0,0-.02-.05,0-.21,0-.03.05-.37.07-.51.09-.66.22-1.31.35-1.96.22-1.06.53-2.12.69-3.19.65-4.49.61-9.1,1.7-13.55ZM34.8,358.38c.2-.04.39-.08.59-.09h.22s.08,0,.11,0c.17.02.34.05.5.09l.22.07s.03.01.04.01c0,0,.02.01.05.03.15.08.29.16.43.27.02.02.1.09.13.11.02.03.08.09.1.1.11.13.22.27.31.42.02.03.06.12.08.15l.12.27c.11.27.11.26.17.51.24,1,.24,2.04.09,3.19-.09.69-.26,1.34-.46,1.98-.28-.78-.55-1.56-.83-2.32-.56-1.51-1.13-3.09-1.77-4.59-.03-.07-.06-.14-.09-.22ZM40.37,359.66c-.19,1.95-.27,3.97-.61,5.92-.19,1.18-.55,2.34-.76,3.51-.01.05-.02.12-.04.17-.24-.51-.46-1.03-.67-1.56.29-.75.55-1.51.8-2.27.48-1.5.56-3.38.4-4.88-.23-2.31-1.39-4-3.12-4.3-.79-.13-1.62,0-2.43.31-.38-.74-.79-1.45-1.25-2.08-.29-.41-.62-.77-.97-1.07,2.31-1.83,4.61-3.66,7.02-5.29l2.03.51c.94.23,1.46-1.8.52-2.04l-.24-.06c.57-.36,1.14-.67,1.71-.85.15-.05.3-.08.45-.08-.06,0,.19-.07.07,0,.03-.01.04,0,.05,0,0,.01,0,.01,0,.03,0-.02,0-.01,0-.02,0,0,0-.01,0-.02.04.01.02.08,0,.09,0,.05,0,.1,0,.13-.01.88-.41,1.95-.71,2.82-.21.62-.45,1.23-.68,1.83-.37.93-.58,1.83-.74,2.82-.37,2.13-.61,4.26-.85,6.38ZM43.35,345.53s0-.02,0,0h0Z"/><path class="cls-1" d="M40.16,371.55s0,.02,0,.03c0,0,0-.01,0-.03Z"/><path class="cls-1" d="M43.36,345.67c0-.06,0-.09,0-.08,0,.02,0,.03,0,.02,0,.05,0,.06,0,.06Z"/><path class="cls-1" d="M18.61,450.43c.93.41,1.25-1.7.32-2.12-1.05-.47-2.14-.7-3.23-.7.11-2.46.17-4.92.24-7.38.06-2.5.07-5,.14-7.5,1.06-.12,2.11-.21,3.17-.27,0,.8.03,1.59.08,2.39.13,1.47.34,2.94.62,4.36.29,1.42.66,2.8,1.11,4.12.47,1.32,1.05,2.57,1.7,3.74.1.18.22.28.35.35.34.24.76.17.94-.35.1-.18.14-.4.12-.63.25-2.34.84-4.55,1.25-6.84.47-2.67.78-5.53.91-8.27.04-1.05,0-2.09-.07-3.13,3.27-.65,6.38-2.22,9.14-5,.49-.5.21-1.52-.27-1.75-3.19-1.52-6.72-3.16-10.21-3.56-.11-.89-.21-1.78-.26-2.67-.04-.67-.66-1.03-1.06-.7-.83.69-1.44,1.68-1.91,2.81-.08.2-.14.43-.21.63-2.28.39-4.49,1.52-6.51,3.82-.13.14-.2.31-.24.47,0,.02-.01.05-.02.07-.01.08-.02.16-.02.23,0,.1.02.2.04.31,0,.02.01.04.02.06.02.06.02.12.05.18,1.13,2.47,2.79,3.94,4.64,4.71-.07.82-.13,1.65-.16,2.47-1.31.06-2.61.17-3.92.33-.41.05-.75.45-.76,1.09-.1,2.85-.1,5.7-.16,8.54-.09,2.85-.14,5.69-.29,8.53-.03.57.43,1.12.79,1.07,1.25-.15,2.45.04,3.66.58ZM33.22,422.76c-2.18,1.82-4.65,2.88-7.14,3.34-.11-.96-.23-1.92-.36-2.87-.15-1.07-.32-2.15-.49-3.22,2.73.39,5.48,1.57,7.99,2.75ZM22.43,419.93c.41-.04.83-.05,1.24-.04.31,2.15.67,4.28.92,6.43,0,0,0,0,0,0-1.12.11-2.29.09-3.43-.16.16-1.16.36-2.32.62-3.46.19-.86.39-1.83.65-2.78ZM23.37,417.51c.01.09.02.19.03.28-.06,0-.12,0-.18,0,.05-.1.1-.19.15-.28ZM16.53,422.77c1.35-1.35,2.79-2.15,4.28-2.55-.06.24-.13.48-.19.72-.37,1.53-.68,3.09-.93,4.67,0,.02,0,.04,0,.07-1.22-.54-2.32-1.45-3.17-2.91ZM20.92,428.29c1.13.26,2.29.3,3.43.2.14-.01.28-.04.42-.06.06.95.1,1.91.07,2.88-.05,1.34-.18,2.7-.34,4.05-.14,1.35-.34,2.69-.58,3.98-.28,1.52-.63,3.01-.91,4.52-.66-1.55-1.16-3.19-1.54-4.91-.27-1.26-.47-2.55-.61-3.87-.07-.88-.1-1.78-.11-2.67.84-.02,1.69-.03,2.53-.01.97.02.99-2.12.03-2.15-.84-.02-1.68-.02-2.52,0,.03-.65.07-1.31.12-1.96Z"/><path class="cls-1" d="M28.38,451.2c.67.29,1.43.73,2.14.71.79-.02,1.26-.83,1.63-1.71,1.31-3.02,1.23-6.69.75-10.06-.32-2.16-.83-4.82-1.93-6.47-.54-.81-1.32-1.16-2.08-.71-.93.55-1.59,1.98-1.99,3.22-1.16,3.53-1.44,7.52-1.83,11.34-.11,1.16.14,2.02.92,2.51.77.47,1.58.84,2.38,1.18ZM26.95,443.96c.15-1.36.35-2.71.6-4.03.25-1.31.57-2.61,1.08-3.76.17-.39.38-.82.64-1.1.04-.05.21-.19.17-.16.06-.04.11-.05.13-.05.14.05.19.1.33.3.19.27.34.62.48.99.31.81.52,1.68.71,2.55.46,2.08.72,4.26.63,6.44-.05.87-.18,1.76-.39,2.58-.13.51-.47,1.93-.88,2.08-.34.13-3.92-1.55-3.9-1.76.14-1.36.27-2.72.41-4.07Z"/><path class="cls-1" d="M35.65,429.63h-.94s.01-.88.01-.88l.02-1.52c.02-1.34-1.48-1.38-1.5-.03,0,.8-.01,1.59-.03,2.39l-3.8-.06h-.84c-.96-.03-.99,2.1-.02,2.11l4.64.04c-.03,2.09-.05,4.18,0,6.27l.02,1.52c.02,1.35,1.52,1.32,1.5-.02-.01-1.79-.06-3.57-.04-5.36l.03-2.41h.94c.97.02.99-2.05.02-2.07Z"/><path class="cls-1" d="M28.64,519.92c1.52,2.57,3.89,4.38,6.1,4.31.97-.03.85-2.13-.13-2.11-1.7.04-3.41-1.15-4.63-3.05-.89-1.37-1.49-3.01-1.84-4.7l11.89-2.64,2.97-.66c.94-.21.47-2.23-.46-2.03l-14.71,3.18c-.02-.31-.04-.62-.05-.93-.02-.82,0-1.63.06-2.42l10.39-2.15,3.32-.69c.95-.2.53-2.23-.42-2.04l-13.05,2.62c.19-1.29.45-2.55.76-3.78.66-2.59,1.31-5.24,2.23-7.6.89-2.22,2.18-4.24,3.95-5.05-.02.6-.17,1.18-.31,1.71-.22.85-.48,1.68-.61,2.58-.25,1.89-.19,3.87.19,5.84.26,1.34,1.73,1.06,1.48-.27-.41-2.11-.4-4.21.06-6.14.46-1.78.99-3.4.45-5.4-.11-.42-.54-.72-.83-.65-4.68,1.07-6.45,7.77-7.85,13.28-.2.74-.38,1.51-.55,2.3,0-.11,0-.23-.03-.36l-.88-4.14c-.18-.82-.36-1.7-.71-2.45-.34-.71-.79-1.24-1.37-1.34-.59-.1-1.16.18-1.7.43-.92.43-1.82.92-2.73,1.36-.22.1-.33.4-.36.74,0,.08-.01.16,0,.24,0,.02,0,.04,0,.05.02.26.11.52.28.74.01.01.02.03.03.04.02.02.03.04.05.07.03.03.24.3.12.12.06.1.13.2.19.3.02.03.02.03.03.04,0,.01,0,.01.02.04l.14.35c.17.47.21.7.34,1.32.21,1.07.35,2.15.65,3.19.01.05.13.44.05.17.07.23.11.41.23.6.24.39.62.57.95.5.23-.05.44-.23.64-.35.2-.12.41-.22.62-.32.81-.36,1.77-.54,2.66-.51.29,0,.57-.17.7-.48-.21,1.02-.39,2.07-.51,3.15l-2.52.5-2.35.47c-.95.19-.5,2.36.44,2.16l4.24-.88c-.05,1.11-.02,2.23.08,3.35l-1.28.28-2.48.54c-.96.21-.46,2.36.48,2.15l3.59-.8c.37,1.81.98,3.57,1.96,5.22ZM24.05,497.22s0,0,0,0c0,0,0,0,0,0ZM24.04,497.22s0,.01.03.04c0,0-.01,0-.02,0-.01-.02-.01-.03,0-.03ZM24.04,497.26h0s0,0,0,0c0,0,0,0,0,0ZM22.59,503.83v.02s.04.11.04.11l-.04-.13ZM22.76,502.82c-.13.06-.26.13-.38.2-.04-.2-.09-.4-.13-.61l-.33-1.86c-.14-.71-.34-1.41-.61-2.05l1.49-.76c.26-.13.55-.21.8-.37-.02.01-.02.01-.03.02.01,0,.02-.01.04-.02l.15-.04c.09-.02.18-.03.28-.05.01,0,.02,0,.04,0,0,0,0,0-.01,0,0,0,0,0,0,0,0,0,0,0,0,0,0,0,0,0,0,0,.01,0,.01,0,.02,0,0,0,.01.01.02.02h0s0,0,0,0c0,0,0,0,0,0,.01,0,.03.01.03.02.02,0,.01,0,.01,0,.03.02.02.03-.02.02,0,0,.02.02.02.02-.01,0-.02-.01-.03-.02,0,.01.02.02.03.05v.02s.03.03.04.04c-.01-.01-.01-.02-.02-.03l.06.16c.05.14.1.29.14.43l.02.08.06.22.16.69.67,3.16c-.47.03-.93.1-1.38.23-.39.11-.78.26-1.16.43Z"/><path class="cls-1" d="M41.07,500.81c-1.5-8.84-2.82-17.7-4.05-26.58-.17-1.32-1.67-1.17-1.49.17,1.23,8.92,2.56,17.82,4.07,26.7.22,1.33,1.69,1.04,1.47-.28Z"/><path class="cls-1" d="M18.48,459.86c.95,10.86,2.18,21.68,3.7,32.48.19,1.39,1.67,1.15,1.48-.23-1.51-10.75-2.73-21.53-3.68-32.34-.11-1.39-1.61-1.3-1.5.1Z"/><path class="cls-1" d="M20.43,492.61c-1.52-10.85-2.76-21.73-3.71-32.63-.11-1.4-1.61-1.32-1.5.1.96,10.95,2.2,21.88,3.73,32.77.2,1.41,1.68,1.17,1.48-.23Z"/><path class="cls-1" d="M28.6,467.44c-.96-.25-1.19,1.84-.22,2.08,2.09.53,4.2.57,6.24.1.43-.1.83-.72.59-1.39-1.23-3.32-2.72-6.54-4.24-9.64-.63-1.27-1.43-2.47-2.58-1.67-.94.65-1.62,2.19-2.24,3.34-1.32,2.47-2.48,5.31-2.67,8.56-.09,1.37-.05,3.35.79,4.38.4.48.87.66,1.36.64.48-.02.95-.31,1.43-.18.38.1.71.43.98.85-.32.3-.62.65-.89,1.03-.82,1.17-1.44,2.62-1.9,4.12-.52,1.66-.98,3.41-1.21,5.25-.45,3.38.5,7.27,2.87,9.08.9.68,1.35-1.29.46-1.96-1.57-1.2-2.07-3.98-1.88-6.15.21-2.44.95-4.97,1.8-6.98.29-.7.88-1.82,1.56-2.59,0,0,0,.02,0,.02.41,1.36.61,2.82.99,4.2.36,1.32.92,2.67,1.79,3.5,1.01.96,2-.07,2.34-1.35.32-1.18.19-2.56-.07-3.8-.29-1.31-.62-2.71-1.25-3.8-.94-1.62-2.13-1.9-3.24-1.46-.23-.42-.5-.81-.82-1.15-.6-.64-1.3-.99-2.02-.96-.37.02-.77.27-1.15.2-.41-.08-.4-.85-.44-1.33-.15-2.47.57-4.8,1.43-6.79.53-1.21,1.12-2.33,1.77-3.43.18-.31.66-1.4.99-1.36.31.03.75,1.32.91,1.65,1.19,2.35,2.28,4.79,3.26,7.28-1.57.21-3.15.14-4.74-.28ZM31.16,475.82c.59.6.87,1.7,1.12,2.6.24.91.46,1.97.37,2.9-.02.19-.05.39-.11.56-.02.07-.14.26-.17.36-.03-.02-.07-.05-.1-.09-.05-.09-.13-.17-.19-.26-.14-.21-.27-.45-.38-.69-.44-.98-.66-2.11-.89-3.18-.17-.86-.37-1.74-.63-2.58.33-.05.67.05.98.38Z"/><path class="cls-1" d="M24.09,497.31s0,0,0,0c0,.02.03.06.07.1h0s-.03-.07-.05-.09c0,0,0,0,0,0,0,0,0,0,0,0,0,0,0,0,0,0,0,0,0,0,0,0,0,0,0,0-.01-.01,0-.01-.01-.02-.02-.02,0,0,0,0,0,0,0,0,0,0,0,0,0,0,0,0,0,0,0,0,0,0-.01,0,0,0-.01,0-.02-.01h0s0,0,0,.01h0s0,0,0,0c0,0,.02.01.03.02Z"/><path class="cls-1" d="M23.56,497.38c-.07.04-.14.09,0,0h0Z"/><path class="cls-1" d="M39.51,517.02c-.89,1.56-.59,4.17.05,6.11.87,2.5,2.85,4.29,4.77,3.94,1.58-.29,2.87-2.22,2.58-4.51-.29-2.21-1.79-4.27-3.21-5.51-1.37-1.21-3.21-1.77-4.18-.03ZM41.89,518.05l.11.05c.16.07.33.15.49.25.47.3,1.06.87,1.49,1.42.5.63.92,1.27,1.22,2.1-.05-.12.08.28.1.35l.05.2s.01.05.02.07c0,.01,0,.02,0,.05.04.36.02.68-.04.93-.18.68-.54,1.1-1.02,1.39-.48.29-1.17.26-1.83-.16-.61-.4-1.21-1.15-1.49-1.94-.11-.32-.2-.64-.27-.97l-.11-.56s0-.04-.01-.07l-.04-.33c-.04-.36-.06-.73-.06-1.09v-.14s.02-.18.02-.19c.02-.19.05-.37.08-.55,0-.02,0-.03,0-.04.02-.07.04-.14.07-.21l.06-.15s.01-.04.02-.05c0,0,0,0,.02-.02.03-.04.24-.29.12-.18.04-.04.09-.07.14-.11.03-.02.24-.12.09-.06.27-.1.34-.09.61-.04,0,0,.13.04.15.04Z"/><path class="cls-1" d="M745.16,402.22c-2.31-8.02-3.66-16.59-6.33-24.47-.28-.84-1.23-.89-1.39-.04-.86,4.48-1.55,9.03-2.07,13.63-1.17.28-2.35.47-3.54.58-.95.09-.71,2.16.25,2.08,1.03-.09,2.05-.25,3.06-.46-.62,6.08-.95,12.25-.98,18.46-.36.61.11,1.9.88,1.7,4.06-1.06,8.18-1.71,12.33-1.95.59-.03.84-.97.55-1.67-.8-1.87-1.49-3.8-2.12-5.77.46-.05.92-.1,1.37-.14l6.01-.5c.96-.08.78-2.29-.18-2.2l-5.78.52c-.67.06-1.35.16-2.04.23ZM746.04,409.7c-3.49.29-6.96.89-10.39,1.74.05-6.14.41-12.25,1.05-18.27.41-.11.82-.23,1.22-.36.39-.13.53-.88.36-1.36-.2-.59-.62-.75-1.01-.62-.11.04-.22.06-.33.1.39-3.22.87-6.4,1.43-9.55,2.04,6.86,3.34,14.06,5.25,20.95-.66,0-1.31-.07-1.94-.26-.96-.29-1.18,1.79-.23,2.09.91.29,1.85.34,2.78.3.54,1.78,1.13,3.54,1.8,5.26Z"/><path class="cls-1" d="M744.83,377.1c-.55.18-1.38.22-1.72.9-.34.67-.11,1.58.01,2.36.16,1.07.36,2.13.5,3.2l.96,7.05c.3,2.35.54,4.71.81,7.07.07.6.39.9.72.95.15.23.35.4.61.38,1.37-.06,2.72-.29,4.04-.7.52-.16,1.21-.25,1.64-.71.46-.48.42-1.27.35-2.05-.4-4.27-.98-8.52-1.56-12.77-.12-.97-.28-1.94-.44-2.91-.16-.97-.23-2.11-.52-3.05-.24-.77-.75-1.17-1.29-1.08-.75.12-1.5.49-2.23.72l-1.9.62ZM744.49,379.41c-.02-.12,0-.06,0,0h0ZM748.25,378.26c.21-.07.47-.21.72-.28.06.37.1.84.13,1.04l.26,1.63c.18,1.08.33,2.17.47,3.26l.91,6.89.35,3.28c.05.5.05,1.15.17,1.64,0,.04,0,.06,0,.09-.12.05-.25.13-.33.17-1.34.5-2.73.76-4.13.85l-.66-5.85-.89-6.54c-.14-1.08-.29-2.15-.47-3.22-.09-.53-.15-1.08-.26-1.61-.01-.06-.02-.1-.03-.14l.55-.18,2.14-.69,1.07-.34Z"/><path class="cls-1" d="M736.54,540.41c-.98,3.28-2.02,6.54-3.09,9.79-.61-.11-1.23-.22-1.84-.35.04-.09.09-.18.13-.27.54-1.2,1.03-2.42,1.45-3.67.4-1.25.75-2.52,1.04-3.8.58-2.55.89-5.13.83-7.67-.06-2.63-.42-5.17-1.47-7.2-1.03-2.02-2.57-3.53-4.3-4.37-1.77-.86-4.03-1.05-5.88.7-1.55,1.5-2.77,4.07-2.34,6.4.22,1.21,1.76.56,1.53-.67-.31-1.66.68-3.46,1.85-4.36,1.48-1.11,3.21-.66,4.49.11,1.43.86,2.77,2.2,3.54,4.05.75,1.83,1.04,4.06,1.03,6.33-.05,4.78-1.33,9.67-3.41,14.07-1.36-.31-2.71-.64-4.06-1.01-.93-.26-1.61,1.77-.68,2.04,1.23.35,2.47.67,3.72.96-.92,1.67-1.96,3.25-3.09,4.7-2.77-.62-5.55-1.23-8.32-1.87-.94-.21-1.65,1.77-.71,1.99,2.49.59,4.99,1.15,7.49,1.73-.31.34-.63.68-.95,1-3.28,3.33-7.98,6.42-11.06,3.66-.75-.66-1.84,1.08-1.1,1.75,3.21,2.89,7.84.69,11.58-2.59,1.14-1.02,2.23-2.17,3.27-3.41,1.36.31,2.72.63,4.08.94-1.23,3.41-2.48,6.81-3.82,10.17-.51,1.32.89,1.88,1.4.55,1.36-3.44,2.65-6.9,3.89-10.38.41.09.82.19,1.23.28.94.21,1.69-1.88.74-2.08-.41-.09-.82-.19-1.23-.28.6-1.7,1.18-3.4,1.75-5.1.77.13,1.53.26,2.3.37.41.06.85-.2,1.06-.82.17-.52.04-1.23-.36-1.29-.77-.11-1.54-.23-2.3-.36,1.05-3.2,2.07-6.4,3.03-9.62.41-1.36-1.02-1.78-1.44-.43ZM731.02,557.33c-1.11-.25-2.22-.5-3.34-.75,1.08-1.47,2.07-3.06,2.94-4.72.71.15,1.42.29,2.13.43-.57,1.69-1.14,3.37-1.73,5.04Z"/><path class="cls-1" d="M719.63,533.37c-.86.5-.89,1.88-1.08,2.84-.47,2.42-1.1,4.84-1.98,7.15-.39,1.06.55,1.54,1.14.93.11.42.44.58.81.49,1.66-.41,3.32-.92,4.98-1.52,1.64-.61,3.27-1.32,4.9-2.13.87-.43.92-2.08.02-2.05-2.94.1-5.56-1.58-7.14-4.43-.37-.69-.75-1.82-1.65-1.29ZM720.99,537.63c.61.77,1.3,1.45,2.05,1.98.6.43,1.25.74,1.91,1-2.18.91-4.36,1.67-6.58,2.22-.01,0-.02.02-.04.02.41-1.19.79-2.4,1.08-3.62.18-.73.35-1.47.5-2.21l.15-.77c.03.05.06.11.09.16.25.44.53.85.83,1.23Z"/><path class="cls-1" d="M722.55,336.17c1.28.64,2.51.58,3.62.11,2.64,3.06,6.37,4.71,9.13,2.89,3.2-2.12,3.7-7.92,3.71-12.74.01-1.35-1.55-2.04-1.56-.69-.02,1.89-.06,3.92-.32,5.79-.29,1.88-.83,3.59-1.79,4.83-1.96,2.49-5.34,1.51-7.74-.96.34-.29.67-.6.97-.96,1.66-2,2.65-4.93,3.31-7.91.69-2.97,1.01-6.27.7-9.65-.15-1.72-.64-3.5-1.48-5.04-.83-1.49-1.98-2.51-3.18-3.25-1.62-.99-3.29-1.9-4.94-2.7,1.34-2.15,3.29-3.59,5.67-3.68.99-.04.6-2.17-.39-2.13-3.04.13-5.46,2.11-7.02,5.01-2.17-.94-4.48-1.6-6.45-.93-2.29.79-3.33,3.39-3.73,6.29-.69,6.19,2.01,13.64,5.44,19.06,1.6,2.63,3.65,5.48,6.08,6.66ZM725.82,309.49c.96.55,1.98,1.04,2.89,1.86,1.03.93,1.69,2.31,2.04,3.78.65,2.93.34,5.98-.04,8.61-.4,2.67-1.15,5.36-2.28,7.45-.56,1.03-1.27,2.01-2.14,2.65-2.15-2.92-3.47-6.77-4.36-10.43l4.44-1.46,2.19-.72c.92-.3.24-2.36-.68-2.05l-6.4,2.16c-.13-.69-.25-1.39-.33-2.09-.09-.57-.16-1.15-.21-1.72l4.98-1.73c.91-.32.19-2.36-.72-2.03l-4.37,1.55c-.04-2,.16-3.96.61-5.74.18-.71.41-1.39.69-2.04,1.25.59,2.49,1.27,3.72,1.96ZM712.62,310.98c.3-2.16,1.08-4.14,2.76-4.78,1.5-.57,3.29-.09,4.96.56.03.01.06.03.1.04-.01.03-.02.05-.03.08-.97,2.63-1.29,5.76-1.15,8.98l-2.58.92c-.91.32-.21,2.3.71,1.98l2.04-.71c.11,1.03.26,2.06.46,3.08.04.23.09.46.14.69l-.66.22-1.13.38c-.91.31-.26,2.3.66,2l1.59-.52c.4,1.61.88,3.22,1.45,4.79.75,2.09,1.72,4.07,2.91,5.83-.35.07-.71.1-1.09.04-2.08-.33-3.94-2.81-5.34-4.87-1.79-2.58-3.41-5.72-4.49-8.99-1.14-3.24-1.63-6.65-1.3-9.72Z"/><path class="cls-1" d="M723.45,346.29c-.33-1.31-1.78-.92-1.45.38,2.24,8.48,4.08,17.06,5.65,25.68l.86,4.82c.21,1.32,1.69,1.09,1.48-.25-1.48-8.79-3.29-17.52-5.4-26.17l-1.13-4.46Z"/><path class="cls-1" d="M733.08,376.65c.21,1.34,1.69,1.11,1.48-.25-1.56-9.3-3.47-18.54-5.75-27.69l-1.09-4.28c-.34-1.32-1.79-.94-1.45.38,2.38,8.94,4.32,17.99,5.97,27.08.28,1.58.59,3.16.84,4.75Z"/><path class="cls-1" d="M748.33,367.79s0,.02.01.03c0,0,0-.01-.01-.03Z"/><path class="cls-1" d="M740.01,341.65c-.03-.05-.05-.08-.04-.07,0,.01.02.02.01.02.02.05.03.06.03.05Z"/><path class="cls-1" d="M736.87,342.68c-.24.49-.48.98-.71,1.47l-6.16,1.58c-.93.24-.41,2.3.52,2.06l4.41-1.11c-1.22,2.58-2.43,5.16-3.73,7.7-.12.14-.18.31-.19.52-.07.49.2.94.54,1.16.02.02.05.03.07.05.04.02.07.03.11.04.15.06.31.08.47,0,.21-.1.59-.11.92-.05.43.09.85.29,1.26.52.42.23.83.51,1.24.81-.24.44-.46.9-.64,1.39-1.06,2.77-1,6.07,0,9.21.17.55.71.77,1.04.56.39-.24.45-.84.28-1.39-.71-2.19-.77-4.43-.2-6.46.22-.78.54-1.51.95-2.14.19.17.38.35.57.52,2.07,1.95,4.06,4.18,6.04,6.37,0,1.28-.11,2.62-.52,3.67-.49,1.23-1.33,1.56-2.4,1.32-.98-.22-1.01,1.9-.02,2.12,1.23.28,2.47,0,3.27-1.21.74-1.13,1.03-2.69,1.15-4.27.72.79,1.47,1.56,2.26,2.19.35.28.73.33.98-.09.2-.34.23-1.01-.05-1.41,0,0-.04-.04-.08-.21,0-.03-.09-.39-.12-.53-.15-.69-.26-1.38-.38-2.07-.19-1.13-.36-2.29-.64-3.4-1.13-4.68-3.27-9.05-4.3-13.76-.57-2.36-.39-5.64-1.87-7.65-1.74-2.3-3.36,1.06-4.09,2.48ZM738.44,357.44c-.06-.05-.12-.1-.18-.16.16-.12.32-.24.49-.33l.19-.1s.08-.03.1-.04c.16-.05.32-.1.49-.13l.23-.03s.04,0,.04,0c0,0,.02,0,.06,0,.17.01.33.03.5.07.03,0,.13.04.17.05.03.01.11.05.13.06.16.08.32.16.47.27.03.02.11.09.13.11l.22.2c.21.21.21.2.36.41.62.85,1.04,1.84,1.36,3.01.19.69.3,1.38.36,2.07-.56-.64-1.12-1.27-1.68-1.87-1.12-1.21-2.26-2.46-3.46-3.59ZM739.85,341.64c-.05.03.13-.17.06-.04.02-.03.03-.03.04-.03,0,.01,0,.01.02.03,0-.01,0-.01,0-.02,0,0,0,0,0-.02.04,0,.06.06.05.08.02.04.05.09.07.12.42.81.59,2,.75,2.95.11.67.21,1.35.29,2.02.14,1.03.38,1.96.66,2.98.62,2.16,1.34,4.29,2.08,6.41.65,1.95,1.36,3.94,1.84,5.95.28,1.22.48,2.48.68,3.72,0,.06.02.12.03.18-.4-.41-.8-.83-1.2-1.26-.03-.84-.09-1.68-.17-2.52-.16-1.64-.84-3.49-1.59-4.86-1.18-2.11-3.02-3.17-4.69-2.69-.77.22-1.46.69-2.06,1.33-.67-.51-1.34-.97-2.04-1.35-.44-.24-.89-.43-1.34-.54,1.29-2.64,2.54-5.34,3.83-7.95l2.03-.51c.94-.23.4-2.36-.54-2.12l-.23.06c.32-.6.66-1.17,1.08-1.62.11-.12.23-.22.36-.3ZM739.93,341.53s-.01-.03,0,0h0Z"/><path class="cls-1" d="M744.15,417.84c-.19-.88-.38-1.76-.56-2.64-.12-.67-.78-.95-1.14-.58-.74.77-1.23,1.81-1.57,2.96-.07.21-.11.44-.17.66-2.24.58-4.36,1.85-6.22,4.19-.04.04-.05.1-.07.14-.02.03-.04.07-.05.1-.03.06-.05.12-.06.18-.02.08-.03.17-.03.26,0,.02,0,.04,0,.06,0,.1.03.21.07.32,0,0,0,.02,0,.02.02.06.03.12.07.18,1.33,2.27,3.03,3.61,4.88,4.3-.05.8-.09,1.61-.1,2.42-1.3.09-2.61.23-3.91.41-.41.06-.73.45-.74,1.05.02,2.7-.08,5.41-.21,8.11-.11,2.7-.35,5.39-.71,8.06-.07.54.35,1.09.71,1.07,1.25-.05,2.44.23,3.61.84.9.48,1.37-1.55.47-2.02-1.02-.53-2.09-.83-3.18-.89.29-2.33.5-4.68.59-7.04.12-2.39.19-4.78.2-7.17,1.06-.13,2.12-.23,3.17-.3.03.78.07,1.55.14,2.33.1,1.44.27,2.86.52,4.26.25,1.4.59,2.76,1.01,4.08.41,1.32.88,2.58,1.45,3.78.09.19.2.29.32.37.32.26.75.21.96-.28.11-.17.17-.38.16-.62.45-2.32,1.09-4.51,1.55-6.81.55-2.67.92-5.57.94-8.35.01-1.07-.05-2.12-.15-3.16,3.26-.78,6.34-2.52,8.85-5.66.45-.56.09-1.63-.4-1.84-3.3-1.41-6.93-2.71-10.43-2.78ZM741.8,420.09c.41-.07.82-.12,1.24-.14.49,2.1.99,4.21,1.34,6.35-1.11.16-2.28.19-3.43,0,.11-1.15.25-2.3.4-3.43.12-.85.25-1.82.45-2.77ZM742.53,417.66c.02.08.03.16.05.24-.05,0-.1.01-.16.02.04-.09.07-.18.11-.26ZM736.12,423.28c1.25-1.38,2.62-2.27,4.08-2.78-.04.24-.09.47-.13.71-.26,1.52-.46,3.06-.59,4.62,0,.02,0,.04,0,.07-1.24-.47-2.4-1.29-3.35-2.61ZM744.77,431.29c-.02,1.34-.1,2.71-.26,4.06-.18,1.35-.41,2.69-.68,3.98-.32,1.51-.7,2.98-1.04,4.47-.59-1.57-1.07-3.21-1.4-4.91-.24-1.25-.41-2.52-.51-3.81-.08-.87-.13-1.74-.16-2.62.84-.03,1.69-.05,2.53-.05.97,0,.94-2.14-.03-2.14-.84,0-1.68.02-2.52.06.01-.64.04-1.28.08-1.92,1.12.21,2.28.22,3.43.07.14-.02.28-.05.42-.07.09.95.15,1.91.13,2.89ZM745.32,423.14c-.24-1.07-.48-2.13-.72-3.19,2.75.17,5.58,1.13,8.17,2.19-2.05,2.07-4.44,3.28-6.91,3.87-.15-.96-.33-1.92-.54-2.88Z"/><path class="cls-1" d="M750.96,433.62c-.56-.83-1.34-1.19-2.09-.72-.93.58-1.52,2.04-1.98,3.29-1.26,3.57-1.54,7.57-2.28,11.38-.19,1.16,0,2.03.74,2.59.73.54,1.52.98,2.29,1.4.65.35,1.38.88,2.08.92.79.05,1.31-.74,1.75-1.62,1.5-3.03,1.8-6.92,1.32-10.47-.3-2.27-.65-5.07-1.83-6.77ZM751.41,445.57c-.11.91-.31,1.82-.58,2.65-.17.52-.61,1.96-1.03,2.08-.35.09-3.8-1.9-3.76-2.11.23-1.37.47-2.73.7-4.1.22-1.37.42-2.73.71-4.08.28-1.33.63-2.65,1.17-3.82.18-.4.4-.84.67-1.13.05-.05.22-.19.17-.16.06-.04.11-.05.13-.05.14.05.19.1.33.31.18.28.32.64.46,1.03.29.84.48,1.75.65,2.65.38,2.17.7,4.46.39,6.72Z"/><path class="cls-1" d="M755.54,429.28h-.94s-.01-.9-.01-.9l-.02-1.61c-.02-1.42-1.52-1.38-1.5.03,0,.84.02,1.68.03,2.51l-3.8.06h-.84c-.97.03-.94,2.19.03,2.19l4.64-.04c.03,2.2.05,4.4,0,6.59l-.02,1.6c-.02,1.42,1.48,1.44,1.5.02.01-1.89.06-3.78.05-5.68l-.03-2.55h.94c.97-.02.94-2.24-.03-2.22Z"/><path class="cls-1" d="M750.99,476.47c-.86,9.44-2.23,18.85-4.19,28.13-.29,1.39,1.18,1.68,1.47.28,1.97-9.32,3.35-18.77,4.21-28.25.12-1.42-1.37-1.58-1.49-.17Z"/><path class="cls-1" d="M734.83,490.61c1.83-10.41,2.99-20.94,3.49-31.5.05-1.36-1.44-1.46-1.5-.1-.5,10.51-1.66,21-3.48,31.37-.23,1.34,1.25,1.58,1.48.23Z"/><path class="cls-1" d="M731.6,490.1c1.81-10.31,2.97-20.75,3.46-31.21.05-1.35-1.44-1.45-1.5-.1-.49,10.42-1.64,20.81-3.45,31.08-.23,1.32,1.25,1.56,1.48.23Z"/><path class="cls-1" d="M745.06,470.04c1.94.93,3.99,1.4,6.09,1.32.43-.02,1-.58.86-1.32-.68-3.69-1.47-7.25-2.64-10.64-.47-1.39-1.12-2.71-2.36-2.03-1.01.55-1.87,2.01-2.62,3.07-1.65,2.28-3.32,4.87-4.02,8-.28,1.32-.73,3.23-.11,4.4.29.55.71.82,1.2.91.47.08.99-.1,1.44.13.35.18.6.58.78,1.05-.38.23-.75.51-1.09.82-1.06.96-1.93,2.24-2.79,3.56-.94,1.47-1.83,3.01-2.53,4.69-1.24,3.09-1.65,6.93.09,9.39.65.93,1.67-.79,1.03-1.7-1.15-1.63-.72-4.36.02-6.38.83-2.26,2.2-4.5,3.55-6.25.47-.6,1.28-1.56,2.12-2.18,0,0,0,.02,0,.02.14,1.44-.07,2.92-.06,4.38,0,1.39.19,2.87.81,3.92.72,1.23,1.94.49,2.61-.71.62-1.1.86-2.52.94-3.84.1-1.39.06-2.89-.32-4.14-.56-1.85-1.67-2.38-2.85-2.19-.14-.47-.32-.91-.56-1.31-.45-.76-1.06-1.25-1.77-1.36-.37-.06-.81.11-1.17-.03-.39-.16-.21-.91-.14-1.39.32-2.44,1.38-4.61,2.56-6.45.71-1.12,1.53-2.15,2.29-3.17.22-.28.82-1.32,1.14-1.25.3.07.58,1.45.7,1.81.8,2.56,1.45,5.24,2,7.98-1.58-.08-3.13-.45-4.62-1.16-.9-.42-1.47,1.61-.57,2.04ZM746.42,476.92c.44.73.5,1.91.48,2.87,0,.97-.07,2.08-.41,2.99-.07.19-.15.37-.25.53-.04.06-.2.22-.26.31-.02-.03-.06-.07-.07-.12-.02-.1-.08-.21-.11-.3-.08-.25-.14-.52-.18-.79-.16-1.08-.08-2.26-.03-3.38.03-.9.03-1.82-.04-2.72.33.03.63.2.88.6Z"/><path class="cls-1" d="M747.06,508.04l-13.05-2.61c.68-1.09,1.41-2.14,2.13-3.17,1.52-2.16,3.06-4.42,4.75-6.36,1.56-1.82,3.39-3.4,5.33-3.64-.21.58-.53,1.12-.83,1.59-.48.76-.96,1.5-1.38,2.33-.91,1.75-1.55,3.67-1.89,5.69-.23,1.38,1.24,1.66,1.48.27.37-2.19,1.12-4.21,2.24-5.95.99-1.6,2-3.05,2.11-5.22.02-.45-.29-.88-.59-.9-4.81-.3-8.45,5.61-11.78,10.16-.44.62-.89,1.26-1.33,1.92.05-.1.1-.21.12-.34l.61-4.11c.11-.81.25-1.69.19-2.49-.06-.76-.34-1.4-.87-1.68-.53-.28-1.16-.21-1.74-.15l-3.01.36c-.32.03-.59.41-.7.82-.02.09-.03.17-.04.27,0,.03-.01.06-.01.09,0,0,0,.01,0,.02,0,.08.02.15.04.23.01.06.03.13.05.18,0,.02,0,.04.01.05.02.04.12.35.07.15.03.11.05.22.08.33,0,.03,0,.03.01.04,0,.01,0,.01,0,.04v.36c.01.48-.02.69-.12,1.28-.17,1.02-.4,2.02-.48,3.06,0,.04-.03.43,0,.17-.01.22-.04.4.01.62.1.44.36.73.7.79.23.04.49-.04.73-.07.23-.03.46-.05.69-.05.88-.03,1.84.16,2.65.51.27.12.58.03.82-.21-.57.86-1.14,1.75-1.67,2.68l-2.53-.51-2.35-.47c-.95-.19-1.37,1.85-.42,2.05l4.25.88c-.48.97-.91,1.97-1.27,2.99l-1.25-.27-2.48-.54c-.93-.2-1.4,1.83-.46,2.04l3.58.8c-.42,1.74-.62,3.54-.47,5.38.25,2.9,1.4,5.55,3.39,6.56.86.44,1.77-1.47.9-1.91-1.53-.77-2.41-2.58-2.72-4.79-.23-1.59-.03-3.28.38-4.92l11.88,2.64,2.97.66c.94.21,1.44-1.95.48-2.16l-14.71-3.18c.1-.29.21-.57.32-.85.29-.75.63-1.46.99-2.15l10.4,2.15,3.32.69c.94.2,1.39-1.98.44-2.16ZM733.61,495.44s0,0,0,0c0,0,0,0,0,0ZM733.6,495.44s0,.01.01.04c0,0-.01,0-.02,0,0-.02,0-.04,0-.03ZM733.58,495.47s0,0,0,0c0,0,0,0,0,0,0,0,0,0,0,0ZM729.96,501.03v-.13s.02.02.02.02l-.02.11ZM730.47,500.06c-.14,0-.28.02-.43.04.03-.2.05-.39.09-.59l.32-1.78c.11-.68.17-1.38.13-2.04.55-.06,1.11-.13,1.66-.19.29-.03.59,0,.88-.07-.02,0-.02,0-.03,0,.01,0,.03,0,.04,0h.16c.09.02.19.04.28.06.01,0,.02.01.03.02,0,0,0,0,0-.01,0,0,0,0,0,0h0s0,0,0,0c.01,0,.01,0,.02,0,0,0,0,.02,0,.02,0,0,0,0,0,0,0,0,0,0,0,0,0,0,0,0,0,0,0,0,.02.02.03.02.01.01.01,0,.01,0,.02.02,0,.03-.02.02,0,0,0,.02.01.02,0,0-.01-.02-.02-.02,0,.02,0,.03,0,.05v.03s0,.04.01.05c0-.01,0-.02-.01-.03v.17c0,.15,0,.29,0,.44v.07s-.03.22-.03.22l-.08.68-.46,3.11c-.45-.14-.9-.24-1.37-.29-.41-.04-.82-.04-1.23-.02Z"/><path class="cls-1" d="M733.62,495.53s0,0,0,0c0,.02,0,.06.03.12h0s-.01-.07-.02-.1c0,0,0,0,0,0,0,0,0,0,0,0,0,0,0,0,0,0,0,0,0,0,0,0,0,0,0,0,0-.02,0-.01,0-.02,0-.02h0s0,0,0,0h0s0-.01-.01-.01c0,0-.01-.01-.02-.02h0s0,0,0,.01h0s0,0,0,0c0,.01.01.02.02.03Z"/><path class="cls-1" d="M733.09,495.43c-.08,0-.17.04,0,0h0Z"/><path class="cls-1" d="M740.03,519.76c-1.44,1.05-2.49,3.54-2.86,5.59-.43,2.67.39,5.29,2.19,5.96,1.52.57,3.65-.54,4.51-2.85.83-2.23.57-4.9-.12-6.74-.68-1.79-2.08-3.14-3.72-1.97ZM742.74,526.97c.02-.14-.07.31-.08.38l-.06.21s-.02.05-.02.07c0,.01-.01.02-.02.05-.15.36-.32.65-.5.85-.49.54-1.01.75-1.57.77-.56.03-1.15-.35-1.52-1.07-.34-.67-.49-1.64-.35-2.5.06-.34.14-.68.24-1.02l.17-.56s.01-.04.02-.06l.13-.33c.14-.35.3-.69.48-1.02l.07-.13s.1-.16.1-.16c.11-.16.22-.32.34-.46.02-.02.02-.03.03-.04.05-.06.11-.11.16-.16l.13-.11s.03-.03.04-.04c.01,0,0,0,.03-.01.04-.03.35-.16.19-.11.06-.02.11-.03.17-.04.04,0,.27,0,.11-.01.29.04.34.07.56.25,0,0,.1.1.11.11l.08.1c.11.14.21.3.3.46.27.49.5,1.31.62,2.03.13.83.18,1.63.03,2.56Z"/><path class="cls-1" d="M541.7,753.96c-.26-.53-1.2-.41-1.71.12-1.38,1.43-2.87,2.78-4.45,4.06-.21-.42-.42-.83-.61-1.24l-2.56-5.46c-.42-.88-2.27.05-1.87.9l2.44,5.27c.28.61.6,1.22.91,1.85-2.23,1.54-4.58,2.99-6.98,4.39-2.45,1.4-4.89,2.79-7.33,4.18-2.5,1.28-4.97,2.58-7.36,3.98-.77.45-.62,1.39.25,1.37,2.88-.04,5.8-.21,8.75-.48,1.73-.22,3.47-.51,5.22-.83.59,1.05,1.11,2.13,1.54,3.25.35.9,2.37.02,2.02-.88-.38-.96-.83-1.9-1.32-2.8.44-.09.89-.18,1.33-.27,2.94-.63,5.9-1.37,8.85-2.23,2.75-.93,5.48-1.96,8.2-3.08.73.09,1.8-.88,1.31-1.5-2.6-3.3-4.79-6.86-6.61-10.59ZM538.45,767.66c-2.84.85-5.7,1.54-8.55,2.16-.7.15-1.4.27-2.11.41-.22-.35-.45-.7-.68-1.05-.23-.34-.99-.24-1.42.05-.52.36-.56.81-.33,1.15.06.09.12.19.18.28-1.38.24-2.75.46-4.12.64-1.88.21-3.76.32-5.62.4,1.63-.89,3.28-1.75,4.92-2.64l7.45-4.27c2.14-1.27,4.26-2.54,6.27-3.94.22.62.38,1.26.41,1.93.02.5.54.63,1.06.51.51-.13,1-.53.98-1.03-.05-.96-.33-1.86-.69-2.72,1.45-1.15,2.84-2.34,4.15-3.6,1.58,3.13,3.43,6.11,5.55,8.94-2.47,1-4.95,1.94-7.45,2.78Z"/><path class="cls-1" d="M509.31,764.53l.98,1.73c.28.5.5,1.3,1.22,1.5.71.19,1.54-.21,2.26-.49l2.96-1.14,1.62-.63,1.59-.7,3.18-1.41,6.37-2.81c.54-.24.72-.63.66-.95.17-.2.26-.44.16-.69-.5-1.28-1.15-2.48-1.95-3.61-.31-.44-.62-1.07-1.17-1.36-.59-.3-1.28-.05-1.95.24l-5.54,2.4-2.76,1.21-1.38.6-1.41.54-2.58.99c-.86.33-1.9.62-2.7,1.07-.66.38-.92.95-.72,1.46.27.71.77,1.37,1.14,2.04ZM512.56,766.15c-.11.04-.06.01,0,0h0ZM512.62,761.17l2.91-1.12c2.03-.82,4.03-1.74,6.04-2.6l2.86-1.24c.44-.19,1.02-.37,1.43-.62.04,0,.05-.02.08-.02.08.1.2.2.25.26.87,1.13,1.55,2.37,2.07,3.67-3.7,1.62-7.38,3.3-11.11,4.86l-2.95,1.14c-.49.19-1,.36-1.47.57-.05.02-.09.04-.13.05l-.29-.5-1.12-1.95-.56-.97c-.11-.19-.3-.42-.42-.65.33-.13.76-.26.94-.33l1.45-.56Z"/><path class="cls-1" d="M671.88,664.18c-2.17-3.7-7.41-2.93-11.94-1.1-1.39.56-2.78,1.25-4.14,2.02-1.17-.77-2.34-1.54-3.5-2.32l6.62-7.94c.86-1.04-.31-1.97-1.17-.94l-6.71,8.05c-.35-.23-.7-.46-1.05-.69-.8-.53-2.13,1.05-1.33,1.6.35.23.7.46,1.04.7l-1.34,1.61c-.67.75-1.36,1.49-2.04,2.24-.65-.42-1.29-.84-1.95-1.25-.35-.22-.85-.18-1.26.26-.34.37-.49,1.05-.14,1.26.66.41,1.3.84,1.95,1.27-2.15,2.35-4.3,4.69-6.44,7.05-.9.99.18,2.03,1.09,1.03,2.2-2.41,4.41-4.82,6.61-7.23.52.36,1.04.71,1.55,1.07-.07.06-.15.12-.22.18-1.9,1.68-3.66,3.53-5.2,5.52-.77,1-1.5,2.03-2.16,3.09-.66,1.07-1.34,2.09-1.9,3.18-1.19,2.24-2.06,4.63-2.19,6.87-.14,2.25.4,4.35,1.43,5.98,1.05,1.67,2.87,3.01,5.43,2.39,2.18-.53,4.63-2.32,5.47-4.63.43-1.2-1.27-1.33-1.71-.12-.6,1.64-2.4,2.81-3.92,3.01-1.88.24-3.13-1.04-3.83-2.36-.79-1.49-1.23-3.3-.99-5.29.24-1.96,1.06-4.01,2.14-5.94.26-.46.53-.92.81-1.37.27-.46.55-.93.84-1.38.58-.91,1.21-1.79,1.87-2.64,1.33-1.71,2.83-3.29,4.44-4.74.3-.28.62-.54.94-.81,1.12.83,2.23,1.67,3.32,2.55.75.61,2.2-.97,1.44-1.58-1-.8-2.02-1.57-3.06-2.33.82-.61,1.64-1.2,2.46-1.78.69-.49,1.4-.94,2.11-1.38,2.35,1.57,4.69,3.16,7.04,4.72.8.53,2.21-1.14,1.39-1.67-2.13-1.4-4.25-2.81-6.38-4.22.39-.2.78-.4,1.17-.59,4.16-1.96,9.67-3.52,11.74.04.5.86,2.16-.51,1.66-1.37ZM653.54,666.47c-1.04.67-2.02,1.44-3.05,2.18-.37.27-.73.55-1.09.84-.6-.42-1.2-.84-1.81-1.25.63-.7,1.27-1.39,1.91-2.1l1.46-1.75c.95.64,1.9,1.27,2.85,1.91-.09.06-.18.11-.27.17Z"/><path class="cls-1" d="M658.22,681.53c.08-.44-.15-.73-.54-.78-3.42-.53-6.96-.78-10.58-.74-.96,0-1.71,1.47-.9,1.84,2.67,1.21,4.3,3.86,4.38,7.24.02.81-.2,2.04.87,1.94,1.01-.1,1.69-1.4,2.3-2.22,1.56-2.09,3.28-4.08,5.1-5.95.83-.85.17-1.68-.64-1.33ZM652.9,687.46l-.5.66c0-.06,0-.13,0-.19-.03-.52-.09-1.02-.19-1.51-.2-.98-.51-1.91-.95-2.72-.35-.65-.8-1.22-1.29-1.74,2.37.11,4.71.33,6.99.69.01,0,.03,0,.04,0-.9.96-1.79,1.94-2.63,2.96-.5.61-1,1.23-1.48,1.86Z"/><path class="cls-1" d="M469.47,776.04c-2.2-.62-4.72-.98-6.99-1.21-1.26-.14-2.01,1.35-.74,1.49,3.55.36,7.77.9,10.11,2.79,1.27,1.06,1.59,2.5,1.23,3.99-.32,1.3-1.17,2.69-2.39,3.75-.28-.36-.58-.7-.93-1.02-1.94-1.78-4.78-3-7.63-3.91-2.83-.9-5.97-1.64-9.18-1.69-1.64-.05-3.4.04-4.97.62-1.53.55-2.67,1.5-3.57,2.54-1.21,1.4-2.39,2.85-3.49,4.32-1.8-1.74-2.75-3.95-2.37-6.3.15-.98-1.88-1.04-2.04-.05-.49,3.01.81,5.8,3.29,7.91-1.35,1.95-2.53,4.1-2.33,6.17.23,2.42,2.59,3.94,5.48,4.87,3.11.94,6.79,1.01,10.46.5.92-.13,1.83-.29,2.74-.48.9-.21,1.79-.49,2.66-.78,1.74-.58,3.4-1.27,4.92-2.01,2.94-1.44,6.12-3.3,7.48-5.64.73-1.25.73-2.48.3-3.6.6-.47,1.15-1,1.62-1.56.7-.81,1.25-1.67,1.63-2.54.75-1.74.78-3.52-.18-5.03-1.04-1.62-2.93-2.56-5.12-3.14ZM444.91,785.61c.69-.85,1.32-1.77,2.24-2.52,1.04-.84,2.45-1.25,3.91-1.33,1.45-.05,2.87.02,4.26.22,1.39.2,2.74.52,4,.85,2.55.67,5.14,1.6,7.16,2.89.99.63,1.94,1.42,2.55,2.32-3.09,1.94-7.15,2.99-10.95,3.51l-.95-4.58-.47-2.26c-.2-.95-2.26-.49-2.07.46l1.33,6.63c-1.31.1-2.63.1-3.92,0l-.98-5.18c-.18-.95-2.27-.59-2.1.36l.84,4.56c-2.01-.3-3.91-.81-5.57-1.6-.67-.31-1.29-.68-1.86-1.07.82-1.11,1.7-2.19,2.58-3.27ZM469.61,790.61c-.47,2.04-3.19,3.74-5.48,5-1.44.79-3.03,1.52-4.72,2.15-1.68.63-3.45,1.18-5.25,1.44-3.6.59-7.24.59-10.31-.35-2.15-.7-3.96-1.84-4.22-3.62-.22-1.58.64-3.26,1.61-4.77.02-.03.04-.06.06-.09.02.02.05.03.07.05,2.37,1.48,5.43,2.36,8.7,2.75l.49,2.69c.17.95,2.33.58,2.15-.37l-.4-2.14c1.06.05,2.14.06,3.21.02.24-.02.48-.05.72-.07l.14.68.23,1.17c.19.95,2.33.47,2.13-.47l-.34-1.64c3.94-.56,7.96-1.65,11.24-3.51.05.35.06.71-.02,1.09Z"/><path class="cls-1" d="M513.05,780.88c-2.19.82-4.37,1.68-6.56,2.47l-6.67,2.18-6.67,2.17c-1.11.35-2.22.74-3.34,1.07l-3.38.93-4.66,1.28c-1.36.37-.98,1.82.4,1.45l6.71-1.84,1.68-.46,1.66-.54,3.31-1.08,6.62-2.16,3.31-1.08c1.1-.35,2.21-.71,3.29-1.15l4.85-1.84c1.33-.5.8-1.91-.52-1.41Z"/><path class="cls-1" d="M500.77,781.96l3.4-1.11,1.7-.56,1.67-.63,4.65-1.77c1.31-.5.78-1.9-.53-1.41-2.26.85-4.5,1.73-6.77,2.55l-6.88,2.24c-4.59,1.47-9.14,3.09-13.83,4.26l-4.36,1.19c-1.34.37-.96,1.82.39,1.45,4.6-1.28,9.23-2.43,13.74-4l6.8-2.22Z"/><path class="cls-1" d="M500.91,764.46s.02-.01.02-.02c0,0-.01,0-.02.02Z"/><path class="cls-1" d="M476.93,774.48s-.08.05-.06.04c.01,0,.02-.02.02-.01.05-.02.06-.03.05-.03Z"/><path class="cls-1" d="M481.13,784.43c.26.93,2.35.36,2.08-.57l-1.24-4.38c.66.3,1.31.6,1.98.89,1.96.85,3.96,1.75,5.93,2.5.15.11.33.16.53.14.49.03.94-.29,1.13-.65.02-.03.03-.05.04-.08.01-.04.02-.07.03-.11.05-.16.06-.32-.04-.48-.12-.2-.16-.58-.12-.92.05-.43.22-.87.41-1.31.2-.44.44-.88.7-1.31.45.2.94.37,1.44.5,2.84.73,6.2.31,9.22-1.09.52-.24.67-.81.41-1.1-.3-.35-.91-.33-1.43-.08-2.09.97-4.34,1.28-6.41.95-.8-.13-1.55-.37-2.21-.71.15-.21.3-.42.45-.62,1.69-2.28,3.61-4.46,5.42-6.66,1.23-.14,2.55-.2,3.61,0,1.25.27,1.72,1.04,1.67,2.15-.05,1.01,2.01.65,2.05-.35.05-1.26-.45-2.43-1.75-3.01-1.21-.55-2.71-.53-4.24-.44.63-.82,1.22-1.68,1.67-2.57.2-.4.17-.78-.26-.96-.35-.15-.98-.07-1.29.28,0,0-.03.05-.18.11-.02.01-.34.15-.47.21-.62.23-1.25.42-1.88.61-1.03.32-2.1.58-3.11.96-2.11.8-4.15,1.81-6.2,2.79-2.06.96-4.12,1.98-6.34,2.51-2.23.58-5.35.41-7.21,1.9-2.17,1.73,1.05,3.37,2.46,4.07.47.24.96.46,1.44.69l1.7,6.14ZM492.17,775.57c-.14-.15-.26-.3-.37-.46l-.11-.18s-.04-.07-.05-.1c-.07-.16-.13-.31-.17-.48l-.05-.23s0-.03,0-.04c0,0,0-.02,0-.06,0-.17,0-.33.02-.51,0-.03.02-.14.03-.17.01-.04.03-.12.04-.14.06-.16.13-.33.21-.49.02-.03.07-.12.09-.14l.17-.24c.18-.23.17-.23.36-.4.74-.7,1.65-1.22,2.72-1.65.64-.26,1.28-.44,1.94-.57-.54.62-1.07,1.24-1.59,1.86-1.08,1.29-2.22,2.63-3.23,4ZM477.22,774.98c-.12-.11-.22-.23-.3-.35.03.05-.16-.13-.04-.06-.03-.02-.03-.03-.03-.04.01,0,.01,0,.03-.02-.01,0-.01,0-.01,0,0,0,0,0-.01,0,0-.04.06-.06.08-.05.04-.02.08-.05.11-.07.77-.42,1.89-.6,2.8-.77.64-.12,1.28-.21,1.93-.31.99-.14,1.87-.39,2.82-.71,2.03-.71,3.97-1.65,5.91-2.52,1.78-.81,3.57-1.73,5.42-2.4,1.12-.4,2.29-.7,3.43-1.05.05-.02.11-.03.17-.05-.32.45-.66.89-1.02,1.32-.8.11-1.59.26-2.38.42-1.54.32-3.21,1.18-4.43,2.06-1.88,1.36-2.75,3.25-2.14,4.89.28.75.8,1.4,1.48,1.94-.45.71-.85,1.43-1.17,2.15-.2.46-.36.93-.44,1.39-2.73-1.07-5.48-2.24-8.08-3.5l-.57-2.01c-.26-.93-2.29-.38-2.03.56l.06.23c-.59-.31-1.15-.65-1.59-1.06ZM476.82,774.55s-.02.01,0,0h0Z"/><path class="cls-1" d="M579.76,743.81c-.11-1.01-2.1-.24-2,.76.12,1.15.46,2.2,1.01,3.14-2.19,1.11-4.35,2.28-6.49,3.49-1.24.69-2.44,1.43-3.69,2.1l-2.86,1.52c-.63-.85-1.24-1.72-1.81-2.6,4.53-2.62,8.4-6.34,10.83-10.36.1-.17.13-.33.13-.47.04-.41-.24-.74-.77-.64-.2,0-.42.07-.61.21-2.16.92-4.35,1.55-6.51,2.36-2.49,1-5.18,2.05-7.61,3.31-.93.48-1.81,1.03-2.67,1.6-2.2-2.51-5.11-4.44-8.86-5.38-.67-.17-1.4.6-1.36,1.13.29,3.58.61,7.36,2.01,10.58,0,0,0,0,0,0-.72.52-1.45,1.04-2.19,1.53-.56.37-.56,1.08-.08,1.27,1.01.38,2.17.42,3.39.28.23-.03.46-.06.69-.1.37.44.75.87,1.2,1.26,1.36,1.19,3.09,2.06,5.32,2.47.06.01.11,0,.17,0,.04,0,.08,0,.12,0,.07,0,.13-.01.2-.03.09-.02.17-.06.25-.1.02-.01.04-.02.06-.03.09-.05.18-.13.26-.21,0,0,.02-.02.02-.02.05-.05.1-.08.14-.14,1.54-2.26,1.98-4.42,1.73-6.4.75-.34,1.49-.7,2.23-1.08.71,1.1,1.45,2.18,2.24,3.23.25.33.76.42,1.33.12l3.76-2c1.25-.67,2.46-1.42,3.7-2.11,2.47-1.4,4.96-2.76,7.5-4.02.51-.26.76-.92.54-1.21-.76-1-1.19-2.14-1.33-3.45ZM550.89,754.69c.93-.77,1.86-1.54,2.79-2.31.74-.61,1.49-1.19,2.26-1.76.65.91,1.22,1.94,1.57,3.05-1.08.44-2.18.85-3.27,1.22-.83.27-1.75.61-2.69.86-.24-.34-.46-.69-.66-1.05ZM555.01,749.44c-.77.58-1.53,1.17-2.28,1.78-.84.68-1.67,1.39-2.52,2.07-1.02-2.56-1.38-5.54-1.63-8.32,2.64.95,4.78,2.55,6.43,4.48ZM548.99,756.1c.07-.05.15-.1.22-.16.03.05.06.1.09.15-.1,0-.21,0-.31,0ZM556.93,759.39c-1.81-.47-3.22-1.3-4.31-2.38.23-.07.46-.14.69-.21,1.51-.47,3.02-1.01,4.52-1.62.14,1.33-.09,2.74-.9,4.21ZM559.47,752.82c-.34-1.1-.88-2.13-1.54-3.07-.08-.12-.18-.22-.26-.34.79-.52,1.6-1.03,2.46-1.47,2.36-1.23,4.98-2.22,7.4-3.18,1.44-.53,2.89-.99,4.33-1.52-2.22,3-5.23,5.7-8.73,7.7-.44-.72-.87-1.45-1.28-2.2-.47-.85-2.34.19-1.88,1.04.4.74.82,1.46,1.26,2.18-.58.3-1.17.58-1.76.86Z"/><path class="cls-1" d="M559.11,741.46c-.43.87-.35,1.71.42,2.15.95.54,2.5.4,3.8.17,3.62-.76,7.13-2.63,10.66-4.13,1.06-.48,1.69-1.11,1.71-2.03.02-.9-.07-1.78-.17-2.64-.08-.72-.09-1.6-.46-2.2-.42-.68-1.35-.68-2.3-.57-3.27.36-6.44,2.18-9.05,4.36-.84.7-1.77,1.49-2.59,2.34-.84.81-1.59,1.66-2.03,2.55ZM563.41,738.87c1.56-1.46,3.26-2.84,5.21-3.8.78-.39,1.61-.71,2.43-.93.51-.14,1.91-.54,2.24-.26.28.23.62,4.15.42,4.24-2.5,1.07-4.97,2.27-7.49,3.19-1.25.45-2.5.86-3.76.98-.43.03-.91.06-1.29-.04-.06-.02-.27-.1-.22-.07-.07-.04-.1-.07-.11-.09-.02-.14-.01-.21.1-.43.15-.29.38-.58.63-.88.55-.65,1.18-1.3,1.83-1.9Z"/><path class="cls-1" d="M552.38,742.69l2.09-1.15,1.85,3.32.41.73c.47.84,2.33-.18,1.85-1.02l-2.28-4.04.78-.43c1.55-.89,3.16-1.67,4.66-2.65l1.29-.79c1.14-.7.37-1.99-.77-1.29l-2.27,1.4c-.77.45-1.55.86-2.33,1.3l-2.1,1.16-.46-.82c-.48-.84-2.28.16-1.81,1l.46.82-.76.42-1.32.73c-1.17.65-.46,1.97.72,1.32Z"/><path class="cls-1" d="M633.67,694.24c.88,1.45.74,3.56-.31,5.54-.74,1.44-1.88,2.75-3.18,3.89l-8.23-8.97-2.06-2.24c-.65-.71-2.19.68-1.54,1.4l10.11,11.15c-.25.18-.51.35-.77.51-.7.43-1.4.82-2.11,1.17l-7.06-7.93-2.25-2.53c-.64-.72-2.18.67-1.54,1.4l8.79,10c-1.2.49-2.41.9-3.63,1.24-2.59.7-5.22,1.43-7.73,1.79-2.36.34-4.73.26-6.31-.87.52-.28,1.1-.45,1.62-.6.84-.24,1.67-.44,2.51-.78,1.77-.71,3.46-1.73,4.99-3.03,1.04-.88.06-2.02-.98-1.14-1.63,1.38-3.46,2.4-5.38,2.95-1.76.51-3.41.87-4.85,2.35-.3.31-.35.84-.14,1.05,3.27,3.52,9.86,1.62,15.4.17.75-.18,1.5-.39,2.26-.64-.09.05-.18.11-.27.19l-3.17,2.78c-.62.56-1.3,1.15-1.78,1.81-.46.63-.68,1.3-.47,1.86.21.56.74.92,1.21,1.25.83.58,1.7,1.11,2.54,1.68.27.18.73.06,1.09-.21.08-.05.15-.12.21-.19.02-.02.05-.04.07-.06,0,0,0-.01.01-.02.05-.06.09-.13.12-.21.03-.06.07-.12.09-.18,0-.02.02-.03.03-.05.01-.04.14-.36.05-.16.06-.11.11-.21.17-.31.02-.03.02-.03.02-.04,0,0,0,0,.03-.03l.24-.3c.32-.38.5-.53.98-.94.83-.7,1.7-1.35,2.46-2.13.03-.03.31-.33.12-.13.16-.17.3-.29.41-.5.22-.4.18-.83-.04-1.07-.16-.18-.41-.26-.62-.38-.2-.12-.39-.24-.58-.38-.72-.52-1.35-1.27-1.77-2.04-.14-.27-.47-.42-.83-.35,1-.33,2-.73,3-1.18l1.71,1.95,1.58,1.8c.64.73,2.27-.75,1.63-1.48l-2.9-3.25c.37-.2.75-.38,1.11-.59.6-.35,1.18-.73,1.75-1.13l.87.96,1.7,1.88c.65.72,2.28-.77,1.63-1.48l-2.48-2.71c1.39-1.21,2.62-2.61,3.57-4.25,1.47-2.58,1.8-5.58.65-7.45-.51-.83-2.25.33-1.74,1.17ZM617.4,715.74s0,0,0,0c0,0,0,0,0,0ZM617.41,715.74s0-.02.01-.04c0,0,0,.01,0,.02,0,.02-.02.02-.02.02ZM617.44,715.73s0,0,0,0c0,0,0,0,0,0,0,0,0,0,0-.01ZM623.98,713.66l-.1.1v-.02s.1-.08.1-.08ZM622.92,714.11c.12.08.24.16.36.23-.15.14-.31.28-.47.41l-1.45,1.2c-.55.47-1.07.98-1.49,1.53l-1.4-.91c-.24-.16-.46-.38-.72-.51.02,0,.02.01.03.02-.01,0-.02-.02-.03-.02l-.12-.11c-.07-.07-.12-.14-.18-.22,0-.01,0-.02-.01-.03,0,0,0,0,0,.01,0,0,0,0,0,0h0s0-.01-.01-.01c0,0,0-.02,0-.02,0,0,0,0,0,0,0,0,0,0,0,0,0,0,0,0,0,0,0-.01,0-.03,0-.04,0-.02,0-.02,0-.03,0-.01.02,0,.03.02,0,0,0-.02,0-.03,0,.01,0,.02,0,.03,0-.01.01-.03.03-.05h0s.03-.05.03-.07c0,.01,0,.02-.01.03l.11-.13c.1-.12.2-.23.3-.34l.05-.06.16-.16.52-.48,2.42-2.13c.26.39.55.75.88,1.08.29.28.61.55.95.79Z"/><path class="cls-1" d="M591.97,717.2l5.31-4.14c1.77-1.38,3.59-2.69,5.29-4.16,3.45-2.87,6.94-5.69,10.46-8.48,1.04-.85.05-1.98-.98-1.14-3.51,2.78-6.98,5.59-10.41,8.44-1.69,1.46-3.5,2.77-5.26,4.15l-5.28,4.13c-1.04.83-.17,2.04.89,1.21Z"/><path class="cls-1" d="M607.7,724.8c1.09-.82,2.2-1.59,3.27-2.43l3.18-2.55c1.1-.88.15-2.04-.94-1.17l-3.16,2.54c-1.06.84-2.17,1.61-3.25,2.42l-6.5,4.85c-4.25,3.35-8.78,6.32-13.17,9.48-1.13.81-.31,2.06.84,1.25,4.41-3.17,8.95-6.16,13.22-9.52l6.53-4.88Z"/><path class="cls-1" d="M615.26,721.19l-3.19,2.56c-1.07.84-2.19,1.63-3.28,2.45l-6.56,4.9c-4.29,3.38-8.85,6.38-13.29,9.56-1.15.81-.32,2.07.84,1.25,4.45-3.2,9.03-6.22,13.34-9.6l6.59-4.92c1.09-.82,2.22-1.61,3.29-2.46l3.21-2.57c1.11-.88.16-2.04-.94-1.17Z"/><path class="cls-1" d="M596.59,727.55c.21-.59.13-1.09-.14-1.51-.25-.4-.74-.67-.87-1.15-.1-.39.01-.83.23-1.28.42.12.87.2,1.33.24,1.41.12,2.96-.1,4.5-.43,1.71-.36,3.45-.82,5.17-1.53.79-.32,1.57-.72,2.29-1.2.71-.5,1.37-1.07,1.94-1.69,1.15-1.23,1.96-2.67,2.14-4.16.13-1.12-1.78-.52-1.91.6-.25,1.96-2.35,3.85-4.34,4.73-2.22,1.01-4.79,1.62-6.97,1.87-.76.09-2,.15-3.01-.05,0,0,.01-.01.02-.02.95-1.06,2.12-1.94,3.13-2.94.97-.96,1.86-2.11,2.15-3.26.33-1.34-1.06-1.69-2.35-1.36-1.18.3-2.32,1.09-3.27,1.93-1.01.88-2.03,1.88-2.65,3-.92,1.64-.56,2.81.38,3.56-.24.42-.44.85-.57,1.3-.24.84-.2,1.63.19,2.24.2.31.62.53.75.89.14.4-.52.78-.92,1.06-2.08,1.33-4.46,1.86-6.62,2.09-1.31.14-2.6.17-3.86.17-.35,0-1.52.14-1.66-.16-.13-.28.75-1.32.96-1.63,1.44-2.19,3.01-4.33,4.69-6.4.97,1.26,1.7,2.66,2.13,4.24.26.96,2.19.12,1.92-.83-.57-2.05-1.61-3.92-3.03-5.44-.29-.31-1.05-.38-1.5.17-2.26,2.71-4.35,5.52-6.23,8.44-.77,1.19-1.39,2.5-.14,3.08,1.03.48,2.69.28,3.98.23,2.78-.1,5.85-.47,8.76-1.91,1.25-.58,2.92-1.62,3.38-2.87ZM595.38,720.25c.22-.81,1.01-1.63,1.68-2.28.67-.65,1.48-1.36,2.34-1.74.18-.08.36-.15.54-.18.07-.01.3-.01.4-.03,0,.04,0,.09-.03.13-.05.09-.08.2-.13.29-.11.22-.25.45-.41.67-.63.85-1.5,1.6-2.32,2.33-.65.58-1.31,1.2-1.9,1.86-.21-.26-.29-.6-.17-1.04Z"/><path class="cls-1" d="M617.79,716.08c.07.05.14.08,0,0h0Z"/><path class="cls-1" d="M617.46,715.66s0,0,0-.01c.01-.02.03-.05.06-.11l-.02.02s-.02.04-.04.07h0s0,0,0,0c0,0,0,0,0,0,0,0,0,0,0,0,0,0,0,.01,0,.02,0,.01,0,.02,0,.02,0,0,0,0,0,0h0s0,0,0,.01c0,0,0,0,0,.01,0,.01,0,.02,0,.03h0s0,0,0-.01c0,0,0,0,0,0,0,0,0,0,0,0,0-.01,0-.02,0-.03Z"/><path class="cls-1" d="M626.82,692.55c1.82.02,3.89-1.58,5.23-3.1,1.7-2.02,2.26-4.63,1-6.11-1.04-1.23-3.37-1.39-5.18.02-1.76,1.36-2.75,3.72-3.11,5.57-.37,1.77.06,3.64,2.05,3.62ZM626.94,687.29c.29-.76.63-1.44,1.19-2.12-.08.1.2-.22.25-.27l.15-.14s.04-.04.05-.05c.01,0,.02-.01.04-.03.29-.22.57-.36.82-.43.67-.19,1.21-.09,1.7.18.49.27.81.88.78,1.67-.03.73-.38,1.63-.92,2.27-.22.25-.45.5-.7.73l-.42.38s-.03.02-.05.04l-.27.21c-.29.22-.59.42-.9.6l-.12.07s-.16.08-.17.08c-.17.08-.34.15-.51.21-.02,0-.03,0-.04.01-.07.02-.15.04-.22.05l-.16.02s-.04,0-.05,0c0,0-.01,0-.03,0-.05,0-.37-.06-.22-.01-.06-.02-.11-.04-.16-.06-.04-.02-.22-.15-.1-.05-.22-.19-.25-.25-.34-.51,0,0-.03-.14-.04-.15l-.02-.12c-.02-.18-.03-.36-.03-.55.02-.56.21-1.36.47-2.01Z"/><path class="cls-1" d="M123.02,685.9c.38.11.76.22,1.14.31.06.06.12.12.18.18,2.17,2.1,4.39,4.13,6.67,6.1.55.47,1.45.57,1.44-.16-.02-1.17-.92-2.54-2.23-2.95-.19-.06-.34-.05-.48-.02-.94-.84-1.87-1.7-2.79-2.57l-.21-.2c.64.02,1.26-.04,1.83-.22,1.51-.47,2.21-1.88,1.88-3.66-.34-1.79-1.43-3.67-2.31-5.48-2.06-4.07-4.78-7.94-7.95-11.37-1.53-1.76-3.13-3.46-4.86-5-1.55-1.4-3.31-2.73-5.14-3-1.72-.25-3.15.49-3.35,2.21-.2,1.69.64,3.67,1.51,5.46,1.21,2.46,2.74,4.85,4.36,7.14.63.84,1.29,1.68,1.94,2.51-.87,1.27-1.71,2.56-2.52,3.87-.6-.36-1.21-.71-1.8-1.1-.92-.6-1.86-1.21-2.75-1.87-.87-.68-1.74-1.39-2.59-2.12-1.77-1.52-3.66-3.22-4.75-5.34-1.97-3.84.07-7.17,3.63-6.46,1.14.22,1-1.6-.14-1.83-3.62-.72-6.36,1.4-6.05,5.21.35,4.32,4.3,7.95,7.75,10.79.89.75,1.84,1.44,2.81,2.08.96.65,1.94,1.28,2.91,1.87.05.03.1.06.15.09-1.02,1.7-2.02,3.43-2.96,5.21-.46.88,1.27,2.19,1.73,1.3.97-1.86,2-3.67,3.07-5.45,1.31.73,2.62,1.43,3.93,2.06,1.99.93,3.95,1.75,5.96,2.39ZM113.46,671.19c-1.16-1.73-2.29-3.49-3.23-5.31-.78-1.5-1.76-3.41-1.64-4.88.13-1.63,1.93-1.54,3.34-.78,1.56.83,3.03,2.3,4.32,3.6,2.78,2.92,5.54,5.94,7.73,9.31,1.11,1.69,2.12,3.44,3,5.23.36.72.76,1.55,1.11,2.35.35.79.61,1.59.61,2.3.02,1.94-1.93,2.04-4.02,1.6l-.22-.21c-.81-.82-1.56-1.69-2.33-2.54-1.81-2.04-3.56-4.12-5.25-6.24,1.15-1.66,2.32-3.3,3.55-4.89.25-.32.27-.81-.15-1.27-.34-.38-1.02-.59-1.27-.27-1.21,1.54-2.36,3.12-3.49,4.72-.7-.9-1.38-1.81-2.06-2.72ZM116,676.92c.75.93,1.49,1.86,2.26,2.77.97,1.15,1.96,2.29,2.96,3.42.19.22.39.43.58.65-.44-.17-.84-.33-1.16-.47-2.23-.88-4.48-1.95-6.7-3.17.67-1.08,1.35-2.14,2.05-3.19Z"/><path class="cls-1" d="M135.99,704.21c.08-.16.2-.31.27-.45l.88-1.62c.19-.34,0-.72-.31-1,3.49-4.09,6.56-8.55,9.23-13.28.48-.85-1.27-1.88-1.74-1.05-3.1,5.43-6.74,10.46-10.96,14.99-1.08-.99-2.16-1.99-3.18-3.06l-9.72-9.8c-.98-.99-2.07.04-1.08,1.04l9.76,9.84c1.02,1.07,2.09,2.07,3.18,3.06-.36.37-.71.74-1.07,1.1-.69.68.94,2.15,1.62,1.47.36-.36.7-.73,1.06-1.1.08.08.17.15.25.23l.2.19c.03.05.05.1.09.15.54.73,1.42,1.36,2.1,1.96l2.71,2.39c1.05.93,2.03-.17,1-1.12l-4.29-3.94Z"/><path class="cls-1" d="M129.03,703.89c-2.44-2.63-4.79-5.33-7.15-8.02-.92-1.06-1.98,0-1.06,1.06,2.37,2.7,4.74,5.41,7.18,8.05,2.53,2.56,5.09,5.09,7.67,7.61,1.02.99,2.01-.13,1-1.12-2.57-2.51-5.12-5.04-7.64-7.59Z"/><path class="cls-1" d="M136.81,687.81c.2.19.44.34.68.37h.22c.15-.01.27-.07.37-.16.19-.16.33-.37.44-.59.07-.14.1-.3.14-.45.02-.1.04-.2.05-.31.01-.22-.05-.46-.2-.69-.08-.12-.17-.22-.28-.3-.1-.09-.21-.16-.34-.21-.23-.08-.48-.11-.65-.02-.18.09-.32.26-.33.49,0,.06-.02.11-.03.17-.03.09-.07.18-.12.26-.05.06-.1.13-.16.18-.08.07-.12.16-.14.27-.04.1-.04.2-.02.33.02.12.06.24.13.35.06.12.14.23.24.33Z"/><path class="cls-1" d="M171.92,722.4c.15-.18.29-.42.47-.57.05-.05.12-.09.18-.12,0,0,.02.01.03.02.78.51,1.88.1,1.25-.81-.29-.42-.64-.68-1.01-.84-.19-.13-.38-.26-.58-.39,2.48.25,4.97.57,7.46.99.71.09,1.33-.61.6-1.26-4.03-3.79-8.17-7.42-12.34-11.02-4.02-3.78-8.18-7.39-12.34-11.01-.97-.9-1.96.22-.98,1.13,4.1,3.58,8.22,7.14,12.19,10.87,3.5,3.05,7,6.1,10.43,9.26-2.64-.39-5.28-.69-7.91-.89-.56-.38-1.13-.75-1.69-1.13-1.92-1.32-3.84-2.66-5.64-4.15-.66-.53-1.3-1.07-1.96-1.61.66-.79,1.32-1.58,2.02-2.34.65-.71-.95-2.04-1.61-1.33-.7.76-1.38,1.54-2.04,2.33-2.41-2-4.79-4.02-7.12-6.1-.97-.95-1.96.19-.98,1.13,2.34,2.09,4.74,4.12,7.16,6.13-1.19,1.5-2.33,3.05-3.38,4.67-.53.81,1.13,2.19,1.66,1.37,1.04-1.62,2.17-3.18,3.35-4.69.65.53,1.3,1.08,1.96,1.61,1.69,1.41,3.5,2.68,5.31,3.93-4.71-.25-9.35-.25-13.81-.07-1.42.08-2.97.14-4.22.58.13-2.63.44-5.18.92-7.65.2-.99-1.65-2.02-1.85-1.02-.67,3.34-1.04,6.81-1.09,10.43-.01.8,1.41,1.65,1.82,1.01.63-.98,1.84-1.27,3.13-1.42,1.25-.14,2.54-.19,3.82-.24,2.62-.1,5.23-.05,7.98-.04,2.02.03,4.05.14,6.08.28.52.35,1.04.71,1.57,1.05-.97.92-1.73,2.08-2.57,3.11l-4.59,5.56c-1.27-2.08-3.14-3.91-5.43-5.29-1.19-.71-1.62.77-.43,1.49,2.22,1.33,4.02,3.38,4.9,5.5.32.77,1.38,1.22,1.81.7l4.28-5.24,2.1-2.58,1.09-1.34Z"/><path class="cls-1" d="M188.26,740.6c1.11-1.24,2.05-2.6,2.82-4.06.18-.35.02-.89-.5-1.19-.48-.26-1.1-.31-1.3.06-.78,1.46-1.73,2.81-2.84,4.04-.26.29.02.96.49,1.22.55.32,1.04.25,1.32-.07Z"/><path class="cls-1" d="M202.63,752.42c-1.02-.59-2.05-1.13-3.05-1.74l-2.73-1.69c1.74-.63,3.1-1.75,3.74-3.31.82-2.02.29-4.49-.91-6.86-1.31-2.59-3.21-5.06-5.18-7.4-1.06-1.26-2.1-2.5-3.14-3.73-.55-.63-1.09-1.25-1.63-1.87-.54-.61-1.07-1.3-1.83-1.71-1.5-.8-2.93-.04-3.91.55-1.16.69-2.16,1.69-2.59,2.94-.42,1.21.05,2.58.94,3.93.79,1.2,2.12,2.64,1.79,3.85-.26.96,1.67,1.79,1.92.83.52-1.96-1.45-3.84-2.49-5.79-1.23-2.31,1-4.03,2.75-4.73.48-.19.85-.39,1.37.14.5.5.95,1.06,1.42,1.59.97,1.1,1.92,2.22,2.84,3.37,1.79,2.14,3.58,4.28,5.01,6.57,1.2,1.9,2.22,4.05,2.09,5.94-.13,1.98-1.49,3.43-3.44,4.12-.3.1-.6.19-.91.26l-4.08-2.5c-1.99-1.24-4.03-2.39-5.99-3.68l-5.87-3.88c-1.16-.76-2.02.47-.84,1.24l5.89,3.89c1.97,1.29,4.02,2.46,6.02,3.7l2.36,1.45c-1.27-.04-2.6-.28-3.96-.66-1.32-.38-2.66-.89-3.97-1.49-1.32-.58-2.52-1.37-3.69-2.12-1.52-1-3-2.08-4.42-3.21-1.1-.87-2.68-2.11-3.2-3.29-.3-.68.22-1.19.52-1.63.36-.54.73-1.07,1.11-1.59.76-1.05,1.55-2.07,2.38-3.06.62-.75-1.15-1.94-1.77-1.2-.86,1.02-1.69,2.07-2.47,3.15-.38.52-.75,1.05-1.11,1.58-.34.51-.72,1.02-.75,1.69-.05,1.19,1.01,2.46,2.06,3.51,1.24,1.24,2.69,2.34,4.12,3.4,5.21,4.04,12.11,7.23,17.77,6.53l1.05.64,3,1.86c1,.62,2.05,1.16,3.07,1.75,1.22.69,1.96-.62.75-1.3Z"/><path class="cls-1" d="M147.61,695.98c-.89,2.15-1.92,4.21-3.1,6.16-.21.35.18,1.01.62,1.27.53.32.95.16,1.16-.19,1.17-1.96,2.19-4.03,3.07-6.19.38-.92-1.37-1.97-1.76-1.06Z"/><path class="cls-1" d="M234.3,757.8c-1.03-1-2.07-1.98-3.14-2.95-1.27-1.15-2.56-2.26-3.88-3.36.41-1.13.9-2.23,1.47-3.29.45-.85-1.4-1.76-1.86-.91-.49.91-.93,1.86-1.31,2.82-.34-.27-.67-.56-1.01-.82-1.13-.9-2.29-1.74-3.44-2.63-1.13-.91-2.28-1.8-3.45-2.68-2.21-1.66-4.49-3.24-6.82-4.75-.31-.63-1.65-.92-1.91-.17-1.35,3.95-3.07,7.75-5.15,11.34-.3.51.35,1.22,1.1,1.35,2,.33,3.98.81,5.94,1.37-.21.41-.42.83-.64,1.23l-2.89,5.3c-.46.85,1.46,1.91,1.92,1.06l2.75-5.11c.32-.59.61-1.22.93-1.83,1.29.42,2.58.87,3.87,1.35,1.33.46,2.65.91,3.97,1.36,2.64.96,5.28,1.92,7.91,2.88,1.31.48,2.63.94,3.94,1.39,1.32.43,2.67.76,4,1.1.86.21,1.41-.56.8-1.15-1.02-.98-2.06-1.93-3.1-2.89ZM228.65,757.76l-8-2.89c-2.36-.78-4.65-1.66-6.97-2.44.36-.55.77-1.06,1.29-1.48.77-.64-.83-1.97-1.6-1.34-.74.6-1.29,1.36-1.77,2.16-1.77-.53-3.54-.99-5.34-1.36,1.68-3.08,3.09-6.29,4.26-9.61,2.12,1.39,4.21,2.83,6.23,4.35,1.13.85,2.25,1.72,3.36,2.6,1.1.9,2.24,1.69,3.34,2.57.54.43,1.07.87,1.61,1.31-.13.4-.25.79-.37,1.19-.11.39.44.91.93,1.04.6.16.96-.11,1.07-.5.03-.11.07-.21.1-.32,1.04.88,2.07,1.78,3.07,2.69,1.38,1.24,2.71,2.52,4.03,3.79-1.75-.53-3.49-1.15-5.23-1.78Z"/><path class="cls-1" d="M232.07,764.05c-.98-.44-1.93-.93-2.89-1.39l-12.67-6.16c-.53-.29-.95-.19-1.17.06-.27-.01-.51.07-.65.29-.71,1.18-1.25,2.43-1.64,3.76-.15.52-.46,1.15-.33,1.77.14.67.81,1.05,1.51,1.4l11.43,5.63,2.62,1.28c.89.41,1.88.94,2.82,1.19.78.21,1.39,0,1.61-.51.31-.69.42-1.51.62-2.25l.53-1.92c.15-.55.57-1.27.19-1.92-.37-.64-1.26-.93-1.98-1.24ZM231.31,768.39l-.3,1.08c-.06.21-.08.51-.16.75-.34-.14-.76-.36-.94-.44-.5-.21-1-.44-1.48-.68l-2.93-1.43-6.18-3.04-2.93-1.45c-.45-.22-.99-.56-1.46-.73-.03-.02-.05-.03-.08-.05.02-.12.02-.28.04-.36.32-1.39.87-2.68,1.56-3.91l11.13,5.41,2.9,1.41c.48.24.97.48,1.47.67.06.02.1.04.13.05l-.16.56-.6,2.15ZM232.12,765.7c.11.05.05.04,0,0h0Z"/><path class="cls-1" d="M278.84,768.85c-1.2.18-.61,1.74.61,1.56,1.66-.26,3.39.84,4.25,2.01,1.05,1.49.56,3.21-.25,4.47-.9,1.4-2.28,2.75-4.14,3.43-1.84.68-4.05.88-6.3.79-2.16-.09-4.34-.42-6.49-.94-2.15-.52-4.27-1.22-6.25-2.24-.09-.05-.19-.1-.28-.14.5-2.24,1.09-4.46,1.77-6.65.29-.92-1.69-1.67-1.98-.75-.66,2.09-1.24,4.21-1.74,6.35-1.93-1.1-3.75-2.35-5.39-3.7.7-2.74,1.4-5.49,2.11-8.23.24-.93-1.71-1.68-1.96-.74-.66,2.46-1.3,4.94-1.95,7.41-.33-.31-.66-.63-.97-.95-1.62-1.6-3.13-3.72-3.9-5.72-.77-2.01-.77-3.95.64-5.45.68-.72-1-1.89-1.69-1.17-2.97,3.11-.95,7.84,2.17,11.72.98,1.16,2.09,2.26,3.29,3.32-.31,1.19-.63,2.37-.94,3.56-.94-.44-1.89-.87-2.82-1.32-2.26-1.12-4.43-2.43-6.61-3.68-1.19-.69-2.3.4-1.1,1.1,2.22,1.29,4.46,2.6,6.75,3.78,1.12.55,2.26,1.06,3.39,1.59-.15.56-.3,1.12-.44,1.69-.24.93,1.82,1.72,2.05.78.13-.51.26-1.02.39-1.53.55.25,1.08.52,1.63.76,1.44.65,2.91,1.27,4.37,1.89.07.3.31.59.75.76.32.12.73.12,1,0,.35.15.69.3,1.03.45,2.4,1,4.89,1.76,7.36,2.6,1.34.44,1.81-.99.47-1.42-2.41-.82-4.84-1.57-7.19-2.53-.4-.17-.79-.35-1.19-.51.11-.63.23-1.26.36-1.88.96.47,1.94.92,2.95,1.28,1.23.42,2.49.79,3.75,1.1,2.52.61,5.08.97,7.59,1.03,2.6.04,5.12-.2,7.18-1.21,2.05-.99,3.6-2.5,4.49-4.21.92-1.75,1.17-3.99-.51-5.86-1.45-1.54-3.95-2.9-6.27-2.55ZM253.5,778.65c-.69-.31-1.36-.64-2.05-.96.25-1,.51-1.99.77-2.99,1.69,1.3,3.53,2.49,5.47,3.56-.15.67-.28,1.35-.4,2.03-1.26-.54-2.53-1.07-3.79-1.64Z"/><path class="cls-1" d="M265.55,770.95c.56,1.64,1.22,3.28,1.97,4.91.4.87,2.04.95,2.04.06-.01-2.93,1.75-5.51,4.64-7.03.7-.37,1.84-.7,1.33-1.62-.47-.87-1.85-.92-2.79-1.12-2.39-.53-4.8-1.14-7.05-2.14-1.03-.43-1.54.49-.96,1.1-.42.09-.59.42-.51.79.35,1.68.8,3.36,1.34,5.04ZM269.69,766.95c.73.19,1.46.37,2.19.54l.77.17c-.05.03-.11.05-.16.08-.44.25-.86.52-1.25.81-.79.59-1.48,1.27-2.04,2.01-.44.59-.78,1.23-1.05,1.89-.84-2.18-1.53-4.36-2-6.61,0,0,0-.01-.01-.02.42.17.84.33,1.27.47.76.24,1.52.46,2.29.67Z"/><path class="cls-1" d="M331.93,782.61c-4.23-2.55-9.8-3.18-14.73-4.08-1.43-.23-2.82-.6-4.23-.91l-4.22-.96-8.46-1.88c-3.16-.78-6.3-1.68-9.45-2.51-.42-.11-.73-.03-.93.14-.8-.26-1.76.28-1.16,1,1.92,2.26,4.02,4.52,6.3,6.66-1.35.18-2.62.5-3.67,1.1-2.07,1.18-2.78,3.36-2.49,5.43.33,2.38,1.89,4.7,3.42,6.97.66.96,2.4.33,1.75-.62-2.11-3.1-4.66-7.15-2.06-9.85,1.04-1.08,2.82-1.45,4.63-1.6,1.94,1.71,3.99,3.33,6.19,4.8,1.24.86,2.41,1.68,4.03,1.25,1.48-.39,2.88-.88,4.37-1.25,1.36-.31,2.76-.62,4.17-.91.28.12.56.25.84.37,1.93.89,3.79,1.91,5.5,3.04,1.48.98,3.04,2.21,3.57,3.61.61,1.62-.73,2.9-2.72,3.37-2.56.61-5.52-.14-8.06-.96-1.3-.42-2.16.9-.84,1.32,2.67.86,5.62,1.61,8.42,1.32,2.24-.23,4.36-1.12,5.14-2.63,1.8-3.46-3.47-6.85-7.09-8.85-.7-.39-1.42-.75-2.15-1.11.84-.15,1.69-.29,2.54-.4,3.58-.49,7.25-.67,10.94-.59.89.02,1.15-.89.45-1.31ZM308.74,785.26c-.64.18-1.28.36-1.91.56-.31.1-.64.25-.98.31-.43.07-.61-.11-.96-.34-2.06-1.41-4.03-2.86-5.89-4.39,1.51-.03,3.06.05,4.57.27,2.23.31,4.41.86,6.53,1.57.93.3,1.83.66,2.73,1.04-1.38.28-2.75.61-4.09.98ZM317.39,783.42c-.62.12-1.26.24-1.89.36-.17-.07-.33-.14-.5-.21-.59-.26-1.19-.53-1.79-.77-2.41-.99-4.92-1.77-7.5-2.28-2.52-.5-5.11-.73-7.62-.62-.28,0-.55,0-.83.01-2.07-1.91-3.98-3.88-5.74-5.9l4.12,1.11c1.73.46,3.45.98,5.22,1.32l10.51,2.35c1.74.37,3.45.84,5.2,1.15l5.24.97c2.05.39,4.13.81,6.08,1.5-2,.05-4,.17-5.97.38-1.52.16-3.03.38-4.53.63Z"/><path class="cls-1" d="M298.7,788.64l-1.92,6.72c-.27.93,1.88,1.41,2.14.48l1.88-6.73c.26-.93-1.84-1.4-2.1-.47Z"/><path class="cls-1" d="M304.71,789.59c-.61-.02-.95.32-.94.74.06,1.85-.03,3.68-.26,5.49-.05.4.3.84.91.97.55.12,1.18-.09,1.23-.5.24-1.94.31-3.92.24-5.9-.02-.41-.65-.78-1.18-.8Z"/><path class="cls-1" d="M544.25,107.29c-2.03-.24-4.04-.64-6.04-1.11.19-.43.37-.85.57-1.26l2.56-5.46c.41-.87-1.58-1.87-1.99-.96l-2.44,5.27c-.28.61-.54,1.25-.82,1.89-2.72-.61-5.42-1.37-8.12-2.19-2.71-.85-5.41-1.69-8.12-2.54-2.75-.71-5.49-1.39-8.21-1.93-.87-.17-1.38.62-.73,1.19,2.17,1.87,4.4,3.67,6.71,5.39,1.35,1.08,2.72,2.14,4.11,3.19-.34,1.16-.77,2.28-1.27,3.38-.4.88,1.51,1.71,1.92.84.44-.94.81-1.91,1.13-2.9.36.26.71.53,1.07.78,2.38,1.69,4.83,3.29,7.33,4.82,2.32,1.57,4.7,3.06,7.13,4.47.35.62,1.71.85,1.92.09,1.11-4.04,2.6-7.94,4.46-11.65.27-.53-.42-1.21-1.18-1.31ZM539.32,118.57c-2.21-1.3-4.39-2.66-6.52-4.1-2.42-1.52-4.81-3.06-7.13-4.71-.57-.4-1.13-.83-1.69-1.24.1-.4.21-.81.29-1.22.09-.4-.5-.89-1-1.01-.61-.14-.96.15-1.04.55-.02.11-.05.22-.08.33-1.1-.84-2.18-1.69-3.25-2.56-1.46-1.13-2.89-2.26-4.31-3.42,1.8.4,3.6.83,5.38,1.34l8.21,2.54c2.4.73,4.81,1.36,7.22,1.96-.33.57-.71,1.1-1.2,1.56-.37.35-.12.81.31,1.11.42.31,1.03.47,1.4.13.7-.64,1.21-1.42,1.64-2.25,1.8.46,3.61.84,5.44,1.12-1.49,3.17-2.71,6.47-3.68,9.87Z"/><path class="cls-1" d="M516.07,96.56l3.04,1.14,1.67.62,1.64.7,3.27,1.4,6.55,2.81c.55.24.97.11,1.18-.15.28,0,.52-.11.65-.35.64-1.22,1.1-2.5,1.41-3.85.12-.53.39-1.18.21-1.78-.19-.64-.89-1-1.61-1.31l-5.9-2.58-2.96-1.28-1.48-.64-1.51-.57-2.76-1.04c-.93-.35-1.95-.85-2.91-1.06-.8-.17-1.39.07-1.59.59-.27.71-.33,1.54-.48,2.29l-.41,1.95c-.12.56-.49,1.31-.07,1.94.41.62,1.32.88,2.06,1.16ZM516.09,94.36l.47-2.19.23-1.1c.05-.22.05-.52.12-.77.35.13.78.33.97.4l1.55.58,3.09,1.16c2.16.86,4.27,1.83,6.41,2.74l3.02,1.32c.46.2,1.03.52,1.51.66.03.02.05.03.08.05-.01.13,0,.28-.02.37-.23,1.41-.7,2.74-1.32,4-3.84-1.64-7.66-3.32-11.52-4.9l-3.05-1.14c-.51-.19-1.01-.4-1.53-.57-.06-.02-.1-.03-.14-.05l.12-.57ZM515.91,94.91c-.11-.04-.06-.03,0,0h0Z"/><path class="cls-1" d="M673.02,204.91l-7.1-8.55c.29-.31.58-.61.86-.92.65-.71-.76-2.42-1.42-1.7-.28.31-.57.62-.85.93l-1.41-1.69c-.71-.8-1.43-1.58-2.15-2.37.5-.6.99-1.2,1.47-1.81.25-.32.25-.83-.19-1.32-.36-.41-1.06-.65-1.31-.32-.48.62-.97,1.22-1.46,1.82-2.27-2.49-4.54-4.98-6.81-7.47-.96-1.05-2.05-.02-1.09,1.03,2.3,2.54,4.62,5.07,6.92,7.6-.4.47-.81.95-1.22,1.42-.06-.08-.11-.16-.17-.24-1.56-2.11-3.32-4.11-5.23-5.9-.95-.9-1.94-1.74-2.97-2.52-1.02-.79-2.15-1.44-3.26-2.05-2.32-1.26-4.76-2.17-7.01-2.31-2.26-.14-4.32.43-5.92,1.5-1.63,1.09-2.92,2.96-2.35,5.46.49,2.13,2.15,4.44,4.4,5.22,1.17.4,1.36-1.24.18-1.65-1.61-.56-2.7-2.28-2.87-3.77-.21-1.84,1.04-3.12,2.35-3.84,1.47-.81,3.27-1.27,5.27-1.02,1.98.25,4.07,1.11,6.06,2.24.48.27.95.56,1.41.85.45.31.89.64,1.32.98.87.68,1.71,1.4,2.52,2.17,1.62,1.53,3.12,3.22,4.46,5,.25.34.5.69.74,1.03-.94,1.02-1.91,2.03-2.9,3-.69.67.76,2.26,1.45,1.59.92-.89,1.81-1.81,2.69-2.74.56.88,1.07,1.78,1.51,2.72.37.78.69,1.56,1,2.34-1.92,2.09-3.84,4.19-5.77,6.27-.66.71.69,2.34,1.35,1.63,1.75-1.86,3.49-3.75,5.24-5.62.14.44.27.88.39,1.32,1.24,4.52,1.65,10.08-2.31,11.38-.95.32.03,2.12.99,1.81,4.13-1.34,4.49-6.43,3.47-11.28-.31-1.5-.76-3.03-1.31-4.55.95-1.02,1.91-2.04,2.86-3.07l6.95,8.38c.9,1.09,2.08.16,1.17-.93ZM661.17,198.3c-.04-.09-.07-.17-.11-.26-.52-1.17-1.06-2.37-1.75-3.48-.24-.4-.5-.8-.76-1.19.48-.53.96-1.08,1.43-1.62.66.74,1.33,1.47,1.99,2.2l1.51,1.82c-.77.84-1.55,1.68-2.32,2.52Z"/><path class="cls-1" d="M646.37,188.89c-1.39,2.61-4.15,4.02-7.39,3.95-.78-.02-1.94-.29-1.93.78,0,1,1.17,1.73,1.9,2.38,1.85,1.64,3.58,3.44,5.2,5.32.73.86,1.63.29,1.38-.52.42.12.73-.09.83-.46.93-3.27,1.52-6.74,1.77-10.39.07-.97-1.33-1.85-1.75-1.06ZM644.56,199.5s0,.03,0,.04c-.84-.95-1.7-1.87-2.6-2.76-.54-.53-1.09-1.05-1.65-1.56l-.59-.53c.06,0,.12,0,.18,0,.5,0,.99-.03,1.47-.1.97-.14,1.9-.39,2.74-.77.67-.3,1.26-.7,1.82-1.15-.31,2.36-.77,4.64-1.38,6.83Z"/><path class="cls-1" d="M473.26,77.42c-1.75-1.61-4.02-2.95-6.11-4.18-1.17-.68-2.55.34-1.38,1.02,3.26,1.91,7.04,4.06,8.19,7.07.63,1.58.2,3-.83,4.1-.91.99-2.29,1.66-3.87,2.1-.08-.43-.19-.86-.35-1.28-.91-2.42-2.97-4.72-5.23-6.76-2.25-2.03-4.93-4.06-8.02-5.5-1.57-.7-3.36-1.14-5.13-1.16-1.71,0-3.18.5-4.42,1.17-1.66.91-3.29,1.88-4.81,2.9-1.19-2.25-1.47-4.67-.37-6.77.46-.87-1.58-1.63-2.04-.75-1.4,2.69-.9,5.78.84,8.61-1.89,1.39-3.62,3.05-4.02,5.09-.46,2.38,1.28,4.61,3.59,6.43,2.51,1.9,5.72,3.15,9.12,3.86.85.18,1.71.32,2.57.43.86.13,1.72.27,2.57.35,1.71.18,3.39.24,4.99.19,3.09-.1,6.6-.48,8.84-2.02,1.2-.83,1.77-1.93,1.91-3.12.74-.15,1.46-.33,2.12-.56.98-.35,1.87-.82,2.62-1.38,1.49-1.13,2.42-2.65,2.3-4.45-.12-1.93-1.37-3.73-3.11-5.38ZM445.86,76.25c.96-.57,1.89-1.22,3.06-1.61,1.32-.44,2.85-.34,4.31.08,1.44.39,2.78,1.1,4.02,1.89,1.24.79,2.38,1.66,3.43,2.5,2.11,1.7,4.09,3.65,5.34,5.67.62.99,1.11,2.09,1.24,3.16-3.62.45-7.63-.29-11.24-1.41l.94-4.58.47-2.26c.2-.95-1.93-1.42-2.12-.47l-1.32,6.62c-1.22-.44-2.43-.89-3.59-1.4l.98-5.18c.18-.95-1.96-1.32-2.13-.36l-.83,4.56c-1.76-.95-3.37-2.06-4.69-3.36-.53-.52-1-1.07-1.42-1.63,1.14-.77,2.34-1.49,3.56-2.22ZM459.7,92.73c-1.56.12-3.23.13-4.92.01-1.69-.12-3.41-.39-5.11-.66-3.39-.61-6.61-1.79-9.1-3.67-1.73-1.36-3.06-3.05-2.77-4.82.25-1.58,1.57-2.88,2.95-3.99.03-.02.06-.04.08-.06.02.02.03.05.05.07,1.79,2.21,4.35,4.03,7.23,5.47l-.49,2.69c-.17.95,1.9,1.3,2.08.35l.4-2.13c.96.4,1.93.78,2.92,1.1.22.08.45.16.67.24l-.14.68-.23,1.17c-.19.95,1.86,1.4,2.06.46l.34-1.64c3.71,1.14,7.68,1.82,11.4,1.51-.11.34-.27.67-.51.97-1.33,1.64-4.41,2.05-6.9,2.25Z"/><path class="cls-1" d="M506.51,106.26c-2.09-.78-4.17-1.6-6.27-2.36l-6.37-2.07-6.37-2.07c-1.06-.34-2.12-.71-3.19-1.02l-3.23-.88-4.45-1.21c-1.3-.36-1.69,1.09-.4,1.45l6.36,1.73,1.59.43,1.57.51,3.13,1.02,6.26,2.04,3.13,1.02c1.05.33,2.09.67,3.11,1.08l4.58,1.74c1.25.48,1.79-.93.52-1.41Z"/><path class="cls-1" d="M508.34,102.03c-2.21-.83-4.41-1.7-6.63-2.5l-6.74-2.19c-4.5-1.44-8.95-3.02-13.54-4.17l-4.27-1.17c-1.32-.36-1.71,1.09-.39,1.45,4.46,1.24,8.97,2.35,13.34,3.88l6.61,2.15,3.3,1.07,1.65.54,1.62.62,4.52,1.72c1.27.48,1.81-.92.53-1.41Z"/><path class="cls-1" d="M480.87,79.98c-.06,0-.09,0-.08,0,.02,0,.03,0,.02,0,.06.01.07,0,.06,0Z"/><path class="cls-1" d="M507.8,85.71s-.05.01-.22-.04c-.03,0-.38-.12-.52-.17-.68-.2-1.34-.42-2.01-.65-1.09-.37-2.18-.81-3.28-1.12-2.32-.64-4.7-1.07-7.06-1.53-2.37-.45-4.7-1-7.03-1.62-2.34-.67-5.11-2.44-7.59-2.14-2.87.35-.76,3.45.12,4.77.3.45.62.89.92,1.33l-1.7,6.14c-.26.93,1.79,1.49,2.06.56l1.24-4.39c.41.59.82,1.19,1.23,1.78,1.22,1.75,2.46,3.42,3.62,5.25.06.18.18.32.35.43.38.31.91.32,1.27.13.03-.01.05-.02.08-.04.03-.02.06-.05.09-.07.13-.1.22-.23.23-.41.01-.23.19-.57.42-.82.29-.32.67-.58,1.07-.82.41-.24.86-.45,1.32-.65.26.43.55.85.88,1.26,1.89,2.27,4.77,3.89,8.03,4.53.56.11,1.03-.25,1.01-.64-.02-.45-.51-.79-1.08-.9-2.27-.45-4.24-1.52-5.73-3.01-.57-.57-1.04-1.22-1.39-1.88.25-.08.49-.16.74-.24,2.73-.84,5.65-1.44,8.55-2.1,1.12.62,2.26,1.32,2.95,2.25.81,1.06.68,1.95-.06,2.76-.68.74,1.14,1.85,1.82,1.12.85-.92,1.24-2.13.58-3.45-.61-1.21-1.8-2.3-3.13-3.17,1.06-.25,2.09-.49,3.03-.84.42-.16.65-.46.41-.9-.19-.35-.76-.73-1.24-.69ZM489.5,91.01c-.43.26-.81.55-1.13.88-1.65-2.46-3.39-4.81-5.01-7.23l.57-2.01c.26-.93-1.85-1.51-2.11-.58l-.07.24c-.37-.58-.69-1.16-.87-1.74-.05-.15-.08-.31-.08-.46,0,.06-.08-.2,0-.07-.02-.03,0-.04,0-.05.01,0,.01,0,.03,0-.02,0-.01,0-.02,0h-.02s.08-.02.1,0c.05,0,.1,0,.14,0,.92.04,2.03.47,2.94.8.64.23,1.27.49,1.9.74.97.39,1.9.64,2.93.86,2.2.51,4.38,1.03,6.58,1.48,2.01.42,4.11.77,6.1,1.35,1.21.35,2.39.83,3.58,1.23.05.02.12.04.17.06-.56.16-1.13.3-1.71.43-.74-.39-1.5-.75-2.27-1.09-1.5-.67-3.46-1-5.02-1.02-2.42-.04-4.24.98-4.66,2.67-.19.78-.12,1.62.13,2.46-.77.31-1.51.66-2.18,1.06ZM493.58,89.28c-.03-.2-.04-.4-.04-.59v-.22s.02-.08.03-.11c.04-.17.08-.33.14-.49l.09-.22s.01-.03.01-.04c0,0,.01-.02.03-.05.09-.14.19-.27.31-.4.02-.02.1-.1.13-.12.03-.02.1-.07.11-.08.14-.1.3-.19.46-.27.04-.01.13-.05.16-.06l.29-.09c.29-.08.28-.08.54-.11,1.04-.12,2.12.01,3.29.31.7.18,1.35.42,1.99.71-.84.18-1.67.35-2.48.53-1.69.39-3.43.79-5.07,1.29Z"/><path class="cls-1" d="M507.77,85.71s.02,0,.03,0c0,0,0,0-.03,0Z"/><path class="cls-1" d="M573.74,129.06c-1.8-1.52-3.37-3.21-5.11-4.79-2-1.89-4.39-3.56-6.79-4.98-.92-.54-1.87-1.01-2.83-1.44.95-3.2.98-6.73-.47-10.54-.26-.68-1.35-.92-1.78-.6-2.83,2.11-5.83,4.67-7.64,7.67,0,0,0,0,0,0-.86-.26-1.73-.52-2.58-.82-.64-.23-1.22.21-1.07.7.3,1.03.96,1.96,1.79,2.83.16.16.32.32.49.48-.15.55-.27,1.11-.33,1.69-.17,1.74.07,3.66.86,5.77.02.05.06.09.09.14.02.03.04.06.06.09.04.06.08.11.13.15.06.06.13.11.2.15.02.01.04.03.06.04.09.05.19.08.3.1.01,0,.02,0,.03,0,.06.01.12.03.18.03,2.61.03,4.62-.77,6.15-2.04.67.45,1.36.88,2.05,1.29-.57,1.17-1.11,2.37-1.6,3.58-.16.38.02.86.55,1.16l3.52,2.03c1.17.68,2.28,1.46,3.41,2.2,2.25,1.5,4.47,3.05,6.62,4.67.43.33,1.12.24,1.29-.09.59-1.11,1.42-2,2.54-2.7.87-.54-.67-1.95-1.53-1.41-.98.62-1.76,1.4-2.37,2.3-1.89-1.4-3.82-2.75-5.79-4.06-1.14-.74-2.25-1.53-3.43-2.21l-2.69-1.55c.42-.98.86-1.95,1.33-2.91,4.54,2.38,9.36,4.23,14.08,4.57.2.02.35-.03.48-.1.39-.15.56-.54.23-.97-.09-.18-.25-.34-.46-.45ZM557.18,109.06c.75,2.83.6,5.53-.12,7.97-.91-.35-1.83-.69-2.75-1-1.04-.34-2.07-.69-3.11-1.01,1.52-2.3,3.76-4.25,5.98-5.96ZM552.1,119.31c-.67-.54-1.43-1.18-2.16-1.82.14-.39.31-.77.49-1.14,1.14.37,2.29.75,3.43,1.12.91.3,1.81.63,2.7.98-.42,1.04-.97,2.08-1.71,2.97-.94-.68-1.86-1.38-2.76-2.11ZM548.15,115.67c.09.03.17.05.26.08-.02.05-.04.11-.07.16-.06-.08-.13-.16-.19-.24ZM549.84,124.06c-.56-1.79-.64-3.44-.35-4.96.18.16.37.31.54.47,1.19,1.02,2.44,2.01,3.72,2.94-1.03.84-2.31,1.42-3.92,1.55ZM559.44,121.43c-.42.73-.82,1.47-1.21,2.21-.55-.33-1.1-.67-1.64-1.02.75-.87,1.34-1.88,1.78-2.94.06-.13.1-.27.15-.4.87.4,1.74.82,2.58,1.32,2.31,1.37,4.61,2.97,6.52,4.81,1.14,1.05,2.21,2.14,3.33,3.2-3.67-.64-7.32-2.11-10.86-3.94.39-.74.79-1.48,1.22-2.2.49-.83-1.4-1.88-1.88-1.04Z"/><path class="cls-1" d="M581.98,126.92c.44-.66.01-1.5-.53-2.32-1.88-2.81-5.15-4.95-8.42-6.4-1.05-.46-2.22-.97-3.39-1.35-1.19-.34-2.37-.54-3.4-.47-1.01.08-1.71.57-1.67,1.46.04,1.09,1.01,2.34,1.89,3.31,2.46,2.89,5.72,5.26,8.69,7.74.91.74,1.77,1.01,2.63.64.84-.37,1.61-.83,2.37-1.28.63-.38,1.45-.76,1.85-1.34ZM576.4,127.99c-2.12-1.78-4.35-3.46-6.37-5.35-1-.92-1.95-1.93-2.71-2.96-.26-.35-.54-.74-.66-1.12-.02-.06-.06-.28-.06-.23,0-.08.01-.12.02-.14.11-.09.19-.12.44-.13.34-.02.73.03,1.13.09.88.15,1.75.47,2.61.79,2.07.78,4.16,1.73,5.99,3.09.73.55,1.43,1.16,2.02,1.81.37.41,1.41,1.5,1.3,1.92-.09.35-3.56,2.34-3.72,2.21Z"/><path class="cls-1" d="M561.34,111.2l2.21,1.22-1.85,3.32-.41.73c-.47.84,1.43,1.9,1.91,1.05l2.28-4.04.82.46c1.64.94,3.34,1.78,4.92,2.8l1.37.84c1.21.74,1.98-.54.77-1.29l-2.42-1.49c-.82-.48-1.66-.92-2.48-1.39l-2.24-1.24.46-.82c.48-.84-1.47-1.92-1.94-1.08l-.46.82-.81-.45-1.41-.78c-1.25-.69-1.97.63-.72,1.31Z"/><path class="cls-1" d="M635.3,177.87c.81-.52-.37-2.28-1.19-1.75-1.44.95-3.4.75-5.51-.06-1.5-.6-2.89-1.59-4.12-2.75l8.24-8.96,2.06-2.24c.65-.71-.99-2.21-1.64-1.49l-10.12,11.14c-.2-.23-.39-.47-.57-.71-.49-.63-.94-1.29-1.35-1.96l7.07-7.92,2.26-2.53c.64-.72-1-2.22-1.64-1.49l-8.8,9.98c-.6-1.15-1.14-2.31-1.66-3.45-1.13-2.38-2.33-4.82-3.18-7.25-.79-2.27-1.22-4.67-.46-6.48.4.48.69,1.03.95,1.53.42.8.8,1.6,1.31,2.38,1.08,1.65,2.43,3.15,4.03,4.44,1.09.88,2.07-.25.98-1.14-1.73-1.4-3.12-3.05-4.08-4.88-.88-1.68-1.62-3.3-3.42-4.5-.38-.25-.91-.2-1.07.05-2.67,4.01.55,10.23,2.9,15.31.32.66.65,1.35.99,2.05-.06-.07-.13-.15-.22-.21l-3.28-2.56c-.65-.5-1.35-1.05-2.08-1.39-.7-.32-1.39-.41-1.89-.09-.51.32-.76.9-1,1.43l-1.2,2.79c-.13.29.06.71.37,1.01.06.06.14.11.21.16.03.02.05.04.07.06,0,0,.01,0,.02,0,.07.04.14.06.22.08.06.02.13.04.19.05.02,0,.03.01.05.01.04,0,.37.06.16.01.11.03.21.06.32.1.03,0,.03,0,.04.01,0,0,0,0,.04.02l.32.17c.42.23.59.37,1.06.75.81.65,1.57,1.35,2.43,1.92.04.02.37.24.15.09.19.12.33.23.54.29.43.13.81.05,1.03-.2.15-.18.21-.45.31-.67.09-.22.19-.43.3-.63.42-.78,1.06-1.51,1.78-2.04.22-.16.32-.45.26-.75.45.91.93,1.82,1.44,2.74l-1.71,1.94-1.58,1.79c-.64.72.9,2.13,1.55,1.41l2.9-3.25c.22.35.44.7.68,1.03.4.55.82,1.08,1.26,1.6l-.87.95-1.7,1.88c-.65.71.89,2.12,1.55,1.41l2.48-2.7c1.3,1.23,2.77,2.29,4.47,3.06,2.65,1.23,5.48,1.61,7.36.39ZM611.1,162.55s0,0,.01,0c0,0,0,0,0,0,0,0,0,0,0,0ZM611.1,162.52s.02,0,.04,0c0,0,0,0-.02.01-.02,0-.02-.01-.02-.02ZM611.1,162.51s0,0,0,0c0,0,0,0,0,0ZM614.06,168.35h.02s.09.07.09.07l-.11-.07ZM614.2,166.44c-.24.33-.45.69-.63,1.05-.06.13-.12.26-.18.39-.16-.12-.32-.24-.47-.37l-1.4-1.16c-.54-.43-1.12-.83-1.72-1.13.22-.51.44-1.02.66-1.52.12-.27.29-.52.38-.8,0,.02,0,.02-.01.04,0-.01.01-.03.02-.04l.09-.13c.06-.08.12-.15.18-.22,0,0,.02-.01.03-.02h-.01s0,0,0,0h0,0s0-.01.01-.02c0,0,.02,0,.03,0,0,0,0,0,0,0,0,0,0,0,0,0,0,0,0,0,0,0,.01,0,.03,0,.03-.01.02,0,.02,0,.02-.01.01,0,0,.02-.01.03,0,0,.02,0,.03,0-.01,0-.02,0-.03,0,.02,0,.03,0,.05.02h.01s.04.02.06.03c-.02,0-.02,0-.03,0l.15.08c.13.07.25.15.38.23l.07.05.17.12.56.41,2.49,1.94c-.34.32-.66.66-.93,1.04Z"/><path class="cls-1" d="M603.39,137.91l5.77,4.19c1.91,1.42,3.85,2.79,5.65,4.34,3.67,3.03,7.3,6.09,10.89,9.2,1.06.94,2.05-.19.98-1.13-3.61-3.12-7.26-6.2-10.94-9.24-1.81-1.56-3.76-2.93-5.68-4.36l-5.79-4.21c-1.16-.83-2.05.38-.89,1.21Z"/><path class="cls-1" d="M607.54,159l-3.02-2.58c-1.02-.85-2.09-1.63-3.13-2.44l-6.33-4.8c-4.17-3.27-8.67-6.09-13.08-9.01-1.14-.75-1.98.5-.84,1.24,4.39,2.91,8.87,5.71,13.02,8.97l6.3,4.78c1.04.81,2.11,1.59,3.12,2.43l3.01,2.57c1.03.89,1.98-.27.94-1.17Z"/><path class="cls-1" d="M602.49,158.97c-1.01-.84-2.07-1.61-3.1-2.42l-6.27-4.76c-4.13-3.24-8.59-6.03-12.96-8.93-1.13-.74-1.97.51-.84,1.24,4.35,2.88,8.79,5.66,12.9,8.89l6.25,4.74c1.03.8,2.09,1.57,3.09,2.41l2.98,2.55c1.02.88,1.97-.28.94-1.17l-2.99-2.56Z"/><path class="cls-1" d="M591.13,143.03c1.02.88,2.44,2.24,3.75,2.31.62.03,1.06-.19,1.38-.57.31-.36.41-.91.84-1.18.33-.21.8-.23,1.29-.14,0,.45.06.91.16,1.36.3,1.41.94,2.84,1.68,4.22.81,1.53,1.71,3.07,2.84,4.5.51.66,1.1,1.28,1.74,1.85.62.59,1.29,1.13,1.99,1.57,1.4.88,2.93,1.39,4.42,1.27,1.12-.09.16-1.85-.94-1.77-1.99.18-4.09-1.64-5.49-3.25-1.56-1.83-2.83-4.12-3.69-6.16-.29-.7-.71-1.9-.82-2.94,0,0,.02,0,.02.01,1.3.63,2.49,1.54,3.77,2.25,1.22.68,2.6,1.25,3.83,1.24,1.43-.01,1.4-1.43.69-2.61-.65-1.07-1.77-1.99-2.89-2.71-1.18-.76-2.47-1.5-3.74-1.82-1.87-.46-2.88.22-3.31,1.35-.47-.12-.94-.19-1.41-.19-.88,0-1.6.27-2.06.84-.23.29-.31.76-.61.99-.33.25-.88-.28-1.26-.59-1.98-1.47-3.33-3.47-4.35-5.4-.62-1.17-1.12-2.37-1.61-3.56-.14-.33-.72-1.39-.5-1.63.21-.23,1.53.24,1.91.32,2.63.59,5.29,1.34,7.96,2.23-.86,1.33-1.96,2.48-3.32,3.42-.82.57.67,2.07,1.5,1.5,1.8-1.23,3.21-2.75,4.21-4.61.21-.39,0-1.14-.72-1.39-3.55-1.25-7.09-2.28-10.58-3.02-1.43-.31-2.89-.42-2.93.99-.04,1.15.79,2.65,1.32,3.85,1.14,2.58,2.58,5.29,4.95,7.44ZM601.48,142.1c.85,0,1.89.56,2.72,1.04.84.48,1.78,1.09,2.41,1.83.13.15.25.31.34.48.03.06.1.28.14.38-.04,0-.09.02-.14,0-.1-.03-.22-.03-.32-.05-.26-.05-.52-.13-.78-.23-1.03-.39-2.01-1.04-2.96-1.65-.76-.48-1.56-.96-2.36-1.35.19-.27.49-.45.96-.45Z"/><path class="cls-1" d="M610.83,162.95c-.03.07-.05.15,0,0h0Z"/><path class="cls-1" d="M611.19,162.55s0,0,.01,0c.02.01.06.02.12.03h-.03s-.04-.03-.07-.04h0s0,0,0,0c0,0,0,0,0,0,0,0,0,0,0,0,0,0-.01,0-.02,0-.01,0-.02,0-.02,0,0,0,0,0,0,0,0,0,0,0,0,0,0,0,0,0,0,0,0,0,0,0-.01,0,0,0-.02,0-.02,0h0s0,0,.01,0c0,0,0,0,0,0h0s.02,0,.03,0Z"/><path class="cls-1" d="M638.84,174.43c2.07,1.74,4.74,2.35,6.24,1.12,1.25-1.03,1.34-3.42-.2-5.35-1.5-1.86-3.92-3-5.85-3.32-1.91-.3-3.78.25-3.57,2.24.22,1.75,1.81,3.95,3.39,5.31ZM637.77,170.81s-.09-.17-.09-.17c-.09-.18-.16-.35-.23-.53,0-.03-.01-.03-.02-.05-.02-.07-.04-.15-.06-.22l-.03-.16s0-.04-.01-.06c0,0,0-.01,0-.03,0-.05.04-.39,0-.23.01-.06.03-.11.05-.16.01-.04.14-.23.04-.1.17-.23.23-.26.5-.36,0,0,.14-.04.15-.04l.12-.02c.18-.02.36-.03.55-.03.56.02,1.38.23,2.06.5.78.31,1.49.68,2.22,1.27-.11-.09.23.21.28.27l.15.16s.04.04.05.05c0,.01.02.02.03.04.23.31.4.6.48.86.22.7.14,1.25-.12,1.76-.26.5-.88.82-1.68.77-.75-.05-1.66-.41-2.33-.97-.26-.23-.51-.47-.75-.72l-.39-.44s-.02-.03-.04-.05l-.22-.28c-.23-.3-.45-.61-.64-.94l-.07-.13Z"/><path class="cls-1" d="M384,776.92c-91.35,0-177.23-35.57-241.83-100.17-64.6-64.6-100.17-150.48-100.17-241.83s35.57-177.24,100.17-241.83c64.59-64.6,150.48-100.17,241.83-100.17s177.24,35.57,241.83,100.17c64.6,64.6,100.17,150.48,100.17,241.83s-35.57,177.24-100.17,241.83c-64.59,64.6-150.48,100.17-241.83,100.17ZM384,104.92c-88.15,0-171.02,34.33-233.34,96.66-62.33,62.33-96.66,145.2-96.66,233.34s34.33,171.02,96.66,233.34c62.33,62.33,145.2,96.66,233.34,96.66s171.02-34.33,233.34-96.66c62.33-62.33,96.66-145.2,96.66-233.34s-34.33-171.02-96.66-233.35c-62.33-62.33-145.2-96.65-233.34-96.65Z"/><polygon class="cls-1" points="760.96 652.91 643.08 652.91 643.08 644.91 747.1 644.91 695.25 555.11 702.17 551.11 760.96 652.91"/><polygon class="cls-1" points="124.92 652.91 7.03 652.91 65.82 551.09 72.74 555.09 20.89 644.91 124.92 644.91 124.92 652.91"/><polygon class="cls-1" points="435.61 105.39 384 16 332.39 105.38 328.94 103.38 324.93 103.39 324.93 102.32 325.47 101.38 384 0 442.53 101.39 435.61 105.39"/><polygon class="cls-1" points="63.92 320.17 3.58 215.64 124.33 215.64 124.33 227.64 24.36 227.64 74.32 314.17 63.92 320.17"/><polygon class="cls-1" points="704.08 320.17 693.68 314.17 743.64 227.64 643.67 227.64 643.67 215.64 764.42 215.64 704.08 320.17"/><polygon class="cls-1" points="384 874.55 323.28 769.38 333.68 763.38 384 850.55 434.33 763.38 444.73 769.38 384 874.55"/><path class="cls-1" d="M395.82,78.26v-1.06h-23.66v1.06s7.98,1,8.83,5.58v30.15c-.85,4.59-8.83,5.58-8.83,5.58v1.06h23.66v-1.06s-7.98-1-8.83-5.58v-30.16c.85-4.58,8.83-5.58,8.83-5.58Z"/><path class="cls-1" d="M395.82,750.26v-1.06h-23.66v1.06s7.98,1,8.83,5.58v30.15c-.85,4.59-8.83,5.58-8.83,5.58v1.06h23.66v-1.06s-7.98-1-8.83-5.58v-30.16c.85-4.58,8.83-5.58,8.83-5.58Z"/></g></svg>