<?xml version="1.0" encoding="UTF-8"?><svg id="Layer_1" xmlns="http://www.w3.org/2000/svg" viewBox="0 0 768 808.48"><defs><style>.cls-1{fill:#fff;}</style></defs><g id="BigCircle_2"><path class="cls-1" d="M336.13,808.48c-5.69-8.85-9-19.38-9-30.68,0-31.41,25.46-56.87,56.87-56.87,31.41,0,56.87,25.46,56.87,56.87,0,11.3-3.31,21.83-9,30.68,9.15-10.88,14.67-24.91,14.67-40.24,0-34.54-28-62.55-62.55-62.55-34.54,0-62.55,28-62.55,62.55,0,15.33,5.52,29.36,14.67,40.24Z"/><path class="cls-1" d="M336.13,0c-5.69,8.85-9,19.38-9,30.68,0,31.41,25.46,56.87,56.87,56.87,31.41,0,56.87-25.46,56.87-56.87,0-11.3-3.31-21.83-9-30.68,9.15,10.88,14.67,24.91,14.67,40.24,0,34.54-28,62.55-62.55,62.55-34.54,0-62.55-28-62.55-62.55,0-15.33,5.52-29.36,14.67-40.24Z"/><path class="cls-1" d="M323.66,783.52c-1.72-.27-3.44-.55-5.14-.85-88.15-15.14-168.8-61.21-227.09-129.71-28.92-33.99-51.5-72.31-67.1-113.91C8.19,496,0,450.64,0,404.24s8.19-91.76,24.33-134.81c15.6-41.6,38.17-79.92,67.1-113.91C149.72,87.01,230.37,40.95,318.52,25.8c1.7-.29,3.42-.57,5.14-.85l.93,5.93c-1.7.27-3.38.54-5.06.83C137.86,62.93,6,219.6,6,404.24s131.86,341.31,313.54,372.52c1.68.29,3.36.57,5.06.83l-.93,5.93Z"/><path class="cls-1" d="M444.35,783.52l-.94-5.93c1.68-.27,3.37-.54,5.05-.84l.27-.05c181.53-31.32,313.27-187.93,313.27-372.47S630.15,62.94,448.48,31.73c-1.7-.3-3.38-.58-5.07-.84l.93-5.93c1.73.27,3.45.56,5.16.86,88.13,15.14,168.78,61.21,227.07,129.71,28.92,33.99,51.49,72.31,67.09,113.91,16.14,43.05,24.33,88.41,24.33,134.81s-8.19,91.76-24.33,134.81c-15.6,41.6-38.17,79.92-67.09,113.91-58.29,68.5-138.93,114.56-227.08,129.71l-.26.04c-1.63.29-3.26.55-4.89.81Z"/><path class="cls-1" d="M566.1,94.4c2.69,1.53,5.32,3.17,7.87,4.92.59.44,1.59.18,1.98-.5.42-.74.25-1.57-.39-2.04-2.58-1.76-5.23-3.41-7.94-4.96-.65-.37-1.59-.16-1.98.56-.37.71-.23,1.63.45,2.02Z"/><path class="cls-1" d="M557.18,93.13c-.3.31-.57.64-.82.99-1.2-2.16-1.7-4.74-1.49-7.35.12-1.47-2.06-1.91-2.67-.6-.47,1.02-.64,2.03-.74,3.13-.08.8-.07,1.73-.47,2.46-.4.73-1.21,1.18-1.81,1.69-.84.71-1.51,1.53-1.76,2.64-.41,1.87,2.26,2.45,2.69.57.15-.68.87-1.08,1.38-1.48.55-.43,1.08-.9,1.51-1.45.56,1.49,1.34,2.88,2.31,4.09.58.72,1.79.36,2.24-.42.42-.73.95-1.76,1.66-2.4,1.03,1.84,2.67,3.06,4.92,3.24.76.06,1.45-.77,1.48-1.51.03-.86-.61-1.39-1.37-1.45-.79-.06-1.51-.48-2.04-1.05-.68-.76-.77-2.12-1.74-2.5-1.15-.44-2.46.56-3.27,1.39Z"/><path class="cls-1" d="M541.08,81.51c1.62.81,2.96-1.88,1.31-2.7-1.64-.82-2.94,1.89-1.31,2.7Z"/><path class="cls-1" d="M545.29,89.27c.15-.21.24-.42.29-.63,1.15.34,2.39.48,3.34-.28,1.55-1.24.95-3.39.2-4.8-.32-.61-.83-1.24-1.25-1.9,1.21.65,2.45,1.19,3.74,1.63,2.36.88,4.86,1.42,7.49,1.57,1.85.11,1.83-2.85-.03-2.97-2.22-.13-4.37-.63-6.43-1.36-2.08-.7-4.04-1.71-5.82-3.01-.93-.68-2.04-.29-2.39.87-.79,2.6.9,4.54,2.05,6.52.12.21.25.42.34.64.04.1.06.2.09.3-.2-.06-.43-.11-.47-.12-.36-.1-.72-.21-1.07-.34-1.35-.5-2.62-1.19-3.88-1.85l-3.77-1.98c-1.2-.58-2.77-1.02-3.81-1.85-.49-.39-.3-.8-.06-1.35.01-.03.1-.19.19-.34l.47.19c1.39.57,2.73,1.23,4.03,1.98,1.54.95,2.85-1.75,1.29-2.71-.98-.57-1.99-1.08-3.02-1.55-.84-.38-1.81-.93-2.75-1.02-.3-.03-.58.02-.84.11-.1-.08-.2-.15-.33-.21-1.45-.65-2.54-1.63-3.42-3-.6-.94-1.2-1.87-2.12-2.41,2.62,1.14,5.2,2.39,7.78,3.63,1.65.8,2.92-1.92,1.25-2.73-3.54-1.7-7.07-3.43-10.73-4.85l-5.47-2.18c-1.83-.71-3.65-1.44-5.53-2.03-.76-.25-1.39.13-1.72.69-.07-.01-.14-.03-.23-.02-2.97.12-6.03.37-8.88,1.15-1.11.3-2.04.94-2.18,2.24-.14,1.36.66,2.68,1.22,3.82,1.16,2.37,2.58,4.74,4.8,6.05.83.49,1.87,1,2.88.79.56-.12,1.08-.45,1.45-.9.49-.6.45-1.39.86-1.99.02-.02.04-.04.06-.06,0,.03,0,.06.02.09.66,2.82,2.53,5.62,4.5,7.46,2,1.89,4.8,2.33,7.29.86,1.59-.95.01-3.37-1.59-2.34-2.96,1.87-5.9-3.07-6.91-5.21-.13-.28-.31-.72-.47-1.21,1.04.24,2.04.61,3.14.63.95.02,2.11-.15,2.87-.87.99-.93.79-2.48.07-3.45-1.23-1.67-4.03-2.38-5.99-2.02-1.43.25-2.32,1.19-2.76,2.34-.05.13-.08.27-.12.41-.51.16-1,.39-1.42.71-.57.44-1.02,1-1.3,1.68-.1.24-.23.57-.3.85-.14-.05-.28-.1-.42-.16-1.48-.71-2.54-2.14-3.37-3.59-.48-.84-.9-1.74-1.31-2.63-.08-.17-.14-.38-.24-.53-.02-.02-.02-.04-.04-.06.39-.05.84-.23,1.18-.29,1.55-.31,3.13-.53,4.72-.67-.49,1.22-1.08,2.39-1.82,3.51-1.06,1.61,1.19,3.28,2.26,1.68,1.26-1.88,2.24-3.9,2.89-6.06,1.78.57,3.51,1.26,5.25,1.93l5.43,2.16c.68.26,1.35.54,2.01.83-.7-.18-1.59.03-1.87.85-1.11,3.25-.4,6.39.96,9.3,1.37,2.92,2.96,5.91,4.86,8.37.94,1.23,2.06,2.34,3.33,3.22,1.25.9,2.66,1.53,4.23,1.68,2.64.26,5.54-.82,7.29-3.19ZM518.3,70.13c.14.04.28.09.43.15-.28-.03-.56-.08-.83-.14-.38-.08-.75-.19-1.13-.29.52,0,1.07.14,1.53.29ZM537.9,89.43c-1.26-.27-2.35-.92-3.31-1.77-.97-.81-1.81-1.83-2.52-2.87-1.38-2.02-2.62-4.27-3.74-6.52-.77-1.54-1.42-3.33-1.42-5.13.41.6.76,1.28,1.18,1.77.88,1.03,1.94,1.82,3.12,2.41-.13.32-.24.64-.31.94-.47,1.81.24,3.3,1.72,4.15,1.78,1.04,3.77,1.79,5.58,2.78,1.59.84,3.17,1.73,4.82,2.45-1.31,1.57-3.26,2.18-5.11,1.78Z"/><path class="cls-1" d="M492.8,63.23c-1.14-.29-2.21-.85-3.23-1.45-.7-.41-1.39-.87-2.11-1.24-.74-.4-1.55-.89-2.37-1.13-.97-.28-1.97.16-2.44,1.14-.41.86-.74,1.77-1.07,2.66-.65,1.74-1.23,3.5-1.75,5.29-.53,1.86,2.09,2.59,2.64.74.47-1.6,1-3.18,1.59-4.75.25-.65.51-1.3.77-1.95.15.08.31.15.46.23.67.35,1.33.72,1.98,1.08.65.39,1.3.77,1.96,1.12.76.4,1.53.74,2.35.99.06.35.24.67.56.9,1.84,1.34,3.74,2.53,5.66,3.69.1.22.24.41.45.53.72.4,1.45.8,2.24,1.05.65.21,1.38-.08,1.71-.76.3-.61.22-1.54-.39-1.89l-4.09-2.48c-.94-.59-1.88-1.21-2.8-1.84,0,0,0-.01,0-.02.5-.89.89-1.84,1.23-2.83.47-1.34.89-2.7,2.05-3.58.89-.67.52-2.27-.48-2.52-2.33-.6-4.71-.95-7.1-1.03-1.84-.04-1.95,2.94-.12,3,1.39.04,2.77.19,4.13.43-.34.63-.63,1.31-.87,1.99-.3.86-.57,1.8-.96,2.65ZM485.06,61.97s.02-.03.01,0c0,0,0,0-.01,0Z"/><path class="cls-1" d="M470.55,61.95c-.14,1.46,2,1.93,2.6.62,1.6-3.53,5.94-3.97,8.78-5.96.83-.57.82-1.58.4-2.23l1.38.4c1.76.51,2.6-2.37.82-2.89l-4.62-1.33c-1.54-.45-3.08-.9-4.64-1.26l-9.34-2.32c-1.44-.36-2.26,1.51-1.32,2.56,3.12,3.45,6.45,7.32,5.96,12.41ZM479.12,53.46l1.62.47c-.06.03-.12.06-.18.1-1.68,1.18-3.65,1.88-5.45,2.83-.69.38-1.35.79-1.95,1.27-.54-2.62-1.88-4.97-3.51-7.13l4.87,1.21c1.55.36,3.08.81,4.6,1.25Z"/><path class="cls-1" d="M463.53,62.1c.67.35,1.49.11,1.89-.62.98-1.83,1.74-3.8,2.25-5.82.19-.76-.28-1.65-1.03-1.79-.76-.15-1.51.31-1.71,1.13-.11.47-.24.93-.38,1.39l-.22.68-.09.26-.05.14c-.34.89-.74,1.76-1.18,2.6-.36.69-.13,1.68.53,2.02Z"/><path class="cls-1" d="M456.84,60.01c.78.16,1.44-.41,1.67-1.2,1.29-4.44,2.76-8.81,4.44-13.12.29-.75.15-1.62-.6-2-.64-.33-1.67-.09-1.96.67-1.75,4.56-3.28,9.2-4.6,13.9-.22.78.36,1.6,1.05,1.74Z"/><path class="cls-1" d="M440.83,57.57c2.02-.46,4.07-.71,6.12-.76,2.05-.04,4.1.24,6.12.67.79.17,1.85-.63,1.69-1.6-.17-.97-.64-1.45-1.32-2.06l-1.35-1.18c.28-.79.02-1.81-.98-2.03-.67-.15-1.35-.3-2.03-.46l-2.04-.41c-1.37-.27-2.73-.52-4.1-.7-.69-.09-1.34.03-1.85.55-.48.5-.67,1.2-.87,1.86-.43,1.43-.73,2.89-.88,4.38-.08.88.56,1.93,1.5,1.72ZM449.18,53.26c-.02.21.01.42.1.63-.72-.05-1.45-.09-2.17-.07-1.58.03-3.16.17-4.73.42.1-.48.2-.96.34-1.44l.19-.59.04-.11s.06,0,.08,0l.85.16c1.77.33,3.54.63,5.3.99Z"/><path class="cls-1" d="M442.24,47.11c3.6.66,7.24,1.26,10.54,2.93.83.41,1.84-.09,2.04-1.07l.76-3.79c.38-1.89-2.46-2.46-2.82-.57l-.38,1.98c-3.09-1.25-6.4-1.86-9.67-2.45-1.82-.33-2.27,2.64-.47,2.96Z"/><path class="cls-1" d="M678.41,198.6c.39.63,1.42.77,2.04.3.68-.51.83-1.34.41-2.02-1.65-2.65-3.41-5.24-5.26-7.75-.44-.6-1.43-.75-2.06-.23-.63.51-.82,1.39-.35,2.02,1.84,2.49,3.58,5.05,5.21,7.68Z"/><path class="cls-1" d="M664.07,190.42c.68-.51,1.56-1.24,2.46-1.56.24,2.09,1.34,3.8,3.36,4.84.67.36,1.62-.13,1.94-.81.37-.78,0-1.54-.7-1.87-.72-.35-1.25-1-1.53-1.72-.37-.93.11-2.25-.64-2.97-.88-.86-2.48-.45-3.55,0-.39.16-.77.37-1.14.59-.25-2.46.3-5.04,1.51-7.36.69-1.31-1.14-2.57-2.21-1.6-.83.75-1.38,1.63-1.91,2.6-.39.71-.74,1.57-1.39,2.09-.65.52-1.57.61-2.33.85-1.05.32-1.99.81-2.65,1.75-1.11,1.56,1.12,3.15,2.25,1.58.41-.57,1.23-.66,1.85-.82.67-.18,1.34-.4,1.95-.74-.07,1.59.1,3.18.52,4.69.25.89,1.5,1.03,2.22.49Z"/><path class="cls-1" d="M655.1,169.35c1.18,1.37,3.46-.58,2.26-1.97-1.2-1.39-3.45.6-2.26,1.97Z"/><path class="cls-1" d="M624.87,142.88c.16,2.61.48,5.4,2,7.48.56.78,1.31,1.67,2.32,1.88.55.12,1.17.01,1.69-.26.69-.37.96-1.1,1.57-1.49.02-.02.05-.02.07-.03,0,.03-.01.06-.02.09-.24,1.41-.19,2.93.06,4.4.24,1.48.63,2.96,1.17,4.2,1.08,2.54,3.39,4.14,6.32,3.71,1.86-.27,1.29-3.05-.55-2.78-3.43.53-4.12-5.23-4.21-7.6-.01-.3-.02-.78.03-1.28.89.61,1.66,1.35,2.64,1.81.86.4,1.98.71,2.95.36,1.27-.46,1.7-1.97,1.44-3.16-.23-1.02-.9-1.98-1.77-2.73-.9-.72-1.98-1.25-2.96-1.46-1.61-.34-2.88.33-3.77,1.42-.52-.06-1.05-.04-1.56.09-.69.17-1.32.52-1.85,1.03-.19.18-.44.43-.61.67-.11-.1-.22-.2-.31-.31-1.07-1.25-1.47-3-1.65-4.66-.1-.97-.13-1.96-.15-2.95,0-.19.02-.4-.01-.58,0-.03,0-.04-.01-.07.38.1.86.12,1.2.2,1.54.34,3.06.77,4.56,1.28-.93.93-1.94,1.77-3.05,2.5-1.6,1.06-.22,3.5,1.4,2.45,1.89-1.23,3.59-2.7,5.04-4.43l4.11,3.78c1.4,1.35,2.73,2.77,4.08,4.17.49.51.98,1.04,1.46,1.55-.57-.43-1.43-.58-2,.05-2.29,2.54-2.94,5.78-2.79,8.95.14,3.2.5,6.52,1.28,9.52.72,3.04,2.19,6.04,4.98,7.53,2.34,1.26,5.45,1.4,7.99-.11.22-.13.39-.29.52-.47.93.76,2.03,1.37,3.19,1.04,1.9-.53,2.21-2.76,2.05-4.33-.06-.69-.28-1.46-.42-2.23.86,1.06,1.8,2.05,2.82,2.95,1.81,1.75,3.9,3.22,6.25,4.4,1.66.83,2.79-1.91,1.14-2.75-1.98-.99-3.77-2.29-5.36-3.79-1.65-1.45-3.07-3.13-4.21-5.01-.59-.98-1.77-1.06-2.55-.13-1.74,2.08-.93,4.51-.64,6.78.03.24.07.48.06.72,0,.1-.02.21-.03.31-.17-.13-.35-.27-.39-.29-.3-.23-.58-.47-.86-.73-1.05-.98-1.96-2.1-2.88-3.21l-2.71-3.28c-.85-1.02-2.08-2.08-2.69-3.28-.28-.56.04-.86.48-1.27.03-.02.17-.13.3-.24.12.12.24.23.36.36,1.02,1.1,1.96,2.27,2.84,3.49,1.06,1.47,3.31-.51,2.25-1.99-.66-.92-1.36-1.82-2.1-2.67-.3-.35-.62-.75-.96-1.12-.35-.36-.74-.68-1.16-.9-.27-.14-.55-.2-.82-.22-.06-.11-.13-.22-.23-.32-1.11-1.15-1.74-2.46-2.03-4.04-.2-1.07-.4-2.14-1-3.01,1.95,2.07,3.89,4.16,5.8,6.27,1.23,1.36,3.46-.64,2.22-2.02-2.63-2.91-5.3-5.78-8.01-8.62-1.36-1.41-2.7-2.84-4.12-4.2l-4.33-3.98c-.59-.54-1.32-.44-1.84-.05-.06-.04-.12-.08-.2-.11-1.38-.54-2.79-1.06-4.22-1.5-.72-.22-1.43-.42-2.16-.59-.74-.15-1.48-.28-2.22-.37-1.16-.14-2.28.09-2.91,1.23-.66,1.19-.42,2.69-.35,3.94ZM638.69,149.88c.11.1.22.2.33.31-.24-.14-.48-.3-.7-.46-.32-.22-.63-.46-.94-.69.48.2.95.52,1.31.84ZM650.99,171.62c1.14,1.38,2.26,2.82,3.5,4.12-1.82.94-3.86.74-5.42-.34-2.12-1.47-3.04-4.08-3.49-6.61-.44-2.43-.78-4.92-.94-7.41-.12-1.71-.04-3.59.66-5.24.14.71.21,1.47.41,2.07.43,1.28,1.11,2.4,1.98,3.39-.24.24-.47.5-.66.74-1.15,1.49-1.03,3.1-.02,4.47,1.19,1.69,2.64,3.23,3.96,4.82Z"/><path class="cls-1" d="M612.37,126.98c-.78-.65-1.86-.65-2.68.06-.72.62-1.38,1.34-2.04,2.02-1.29,1.34-2.52,2.73-3.7,4.16-1.22,1.49.87,3.23,2.11,1.75,1.07-1.28,2.18-2.53,3.33-3.73.48-.5.98-.99,1.48-1.48.11.13.22.26.33.39,1.48,1.86,2.79,3.83,4.55,5.36-.08.34-.04.71.16,1.05,1.15,1.95,2.4,3.81,3.7,5.62-.01.26.05.52.2.73.49.67,1.03,1.29,1.67,1.82.52.44,1.33.44,1.9-.05.52-.45.8-1.32.37-1.87-1.65-2.14-3.17-4.39-4.61-6.71.81-.62,1.54-1.34,2.25-2.11.96-1.05,1.88-2.13,3.29-2.48,1.07-.26,1.38-1.88.57-2.52-.94-.74-1.92-1.43-2.94-2.07-1.02-.63-2.11-1.16-3.21-1.65-1.69-.75-2.97,1.95-1.29,2.69,1.29.54,2.49,1.22,3.64,1.99-.56.44-1.09.96-1.58,1.48-.62.66-1.22,1.44-1.92,2.06-.36-.28-.7-.58-1-.91-.51-.53-.98-1.1-1.43-1.68l-1.47-1.95c-.52-.67-1.06-1.45-1.71-1.99ZM611.32,129.32s.03-.02.01,0c0,0,0,0-.01,0Z"/><path class="cls-1" d="M597.47,109.78c.79,2.13,1.52,4.5,1.77,6.83.25,2.34,0,4.69-1.23,6.93-.71,1.29,1.05,2.59,2.12,1.62,2.85-2.58,7.12-1.41,10.46-2.04.98-.2,1.37-1.13,1.25-1.89.37.31.73.62,1.1.92,1.4,1.18,3.32-1.13,1.9-2.33-1.24-1.02-2.44-2.08-3.7-3.07l-3.8-2.95c-2.55-1.95-5.04-3.97-7.63-5.87-1.21-.87-2.71.54-2.24,1.84ZM609.27,119.11c.44.35.87.71,1.3,1.06-.06,0-.12,0-.19.02-2.77.57-5.77.17-8.47.89.55-2.63.27-5.34-.36-7.98,1.32,1.03,2.63,2.06,3.96,3.08l3.77,2.93Z"/><path class="cls-1" d="M597.66,114.53c-.63-.45-1.51-.31-2.02.36-.29.38-.59.76-.9,1.12l-.48.54-.18.2-.11.11c-.67.69-1.38,1.33-2.13,1.93-.61.49-.78,1.49-.3,2.05.48.58,1.32.71,1.97.19,1.62-1.28,3.1-2.79,4.37-4.44.48-.62.4-1.63-.22-2.06Z"/><path class="cls-1" d="M586.19,116.31c.65.46,1.48.2,2-.42,2.94-3.56,6.02-6.99,9.27-10.27.57-.57.78-1.43.25-2.08-.45-.56-1.49-.76-2.06-.17-3.41,3.49-6.65,7.14-9.73,10.92-.51.63-.31,1.62.27,2.03Z"/><path class="cls-1" d="M574.31,101.88c-.97,1.14-1.83,2.35-2.56,3.67-.43.78-.25,2,.69,2.18,2.04.39,4.02.98,5.92,1.76,1.9.79,3.75,1.73,5.4,2.98.65.48,1.94.17,2.17-.79.23-.96,0-1.59-.39-2.43-.25-.54-.5-1.09-.76-1.63.57-.62.74-1.65-.11-2.23-2.29-1.54-4.54-3.22-6.9-4.64-.59-.36-1.24-.51-1.92-.23-.64.26-1.09.83-1.54,1.36ZM576.48,103.65l.08-.09s.05.03.07.04l.72.48,4.48,3.01c-.1.19-.16.39-.16.61-.65-.32-1.31-.63-1.98-.91-1.46-.61-2.97-1.11-4.5-1.5.28-.4.57-.8.88-1.18l.41-.46Z"/><path class="cls-1" d="M577.91,98.7c3.03,2.04,6.1,4.07,8.55,6.81.6.71,1.72.66,2.28-.16l2.2-3.17c1.1-1.59-1.26-3.26-2.36-1.64l-1.14,1.68c-2.37-2.33-5.16-4.19-7.91-6.05-1.54-1.03-3.13,1.51-1.61,2.53Z"/><path class="cls-1" d="M734.88,319.99c-.77.22-1.34.96-1.15,1.72.74,3,1.37,6.04,1.87,9.09.12.73,1.02,1.26,1.78,1.08.82-.2,1.29-.9,1.16-1.69-.5-3.08-1.13-6.14-1.88-9.17-.18-.72-.98-1.27-1.77-1.04Z"/><path class="cls-1" d="M725.7,317.6c.82-.2,1.92-.52,2.88-.46-.05.16-.1.32-.14.47-.16.62-.23,1.24-.21,1.86.05,1.22.49,2.4,1.36,3.48.48.59,1.55.52,2.11.02.65-.57.59-1.4.1-2-.5-.61-.7-1.43-.65-2.21.06-1.01,1.08-2.04.64-2.99-.49-1.13-2.12-1.39-3.29-1.4-.43,0-.86.04-1.29.09.72-2.35,2.22-4.5,4.24-6.15,1.14-.93-.06-2.8-1.43-2.34-1.06.36-1.91.95-2.77,1.62-.63.5-1.29,1.14-2.09,1.36-.8.22-1.69-.06-2.48-.14-1.09-.12-2.15-.04-3.13.55-1.63.99-.18,3.32,1.47,2.33.6-.36,1.39-.12,2.03-.03.69.1,1.4.16,2.1.09-.68,1.43-1.13,2.95-1.33,4.49-.12.91,1,1.54,1.87,1.33Z"/><path class="cls-1" d="M725.76,294.72c.57,1.72,3.43.83,2.86-.91-.57-1.74-3.43-.81-2.86.91Z"/><path class="cls-1" d="M713.33,255.04c-.99-.59-2.1-.83-3.13-.02-1.08.84-1.47,2.33-1.91,3.52-.91,2.48-1.63,5.14-1.03,7.64.23.93.58,2.03,1.44,2.62.47.32,1.09.46,1.67.42.77-.06,1.32-.64,2.03-.76.03,0,.05,0,.08,0-.02.02-.04.05-.05.07-1.59,2.43-2.35,5.72-2.33,8.43.02,2.75,1.55,5.11,4.42,5.86,1.83.48,2.37-2.29.56-2.76-3.38-.86-1.82-6.4-.95-8.62.11-.29.31-.72.56-1.17.54.92.96,1.9,1.7,2.71.64.7,1.56,1.42,2.6,1.48,1.35.08,2.34-1.14,2.55-2.34.37-2.05-1.04-4.56-2.64-5.74-1.33-.95-2.77-.84-4.01-.18-.46-.26-.96-.44-1.48-.52-.71-.11-1.43-.04-2.11.22-.24.09-.57.22-.82.38-.06-.14-.13-.27-.17-.41-.52-1.55-.22-3.31.25-4.9.27-.93.63-1.85.99-2.76.07-.17.17-.36.22-.54,0-.03,0-.04.02-.06.31.24.75.45,1.04.65,1.3.91,2.53,1.91,3.73,2.95-1.21.48-2.46.86-3.77,1.1-1.89.35-1.54,3.12.36,2.79,2.23-.39,4.37-1.08,6.39-2.1.83,1.67,1.54,3.4,2.23,5.13l2.15,5.43.76,2c-.36-.61-1.1-1.09-1.87-.73-3.1,1.43-4.96,4.15-6.04,7.11-.56,1.5-1.02,3.02-1.54,4.6-.49,1.57-.9,3.15-1.16,4.69-.51,3.06-.3,6.38,1.71,8.84.84,1.04,1.98,1.88,3.25,2.44,1.24.56,2.65.81,4.11.63.25-.03.47-.11.66-.23.51,1.07,1.24,2.08,2.42,2.25,1.94.27,3.12-1.66,3.67-3.19.24-.66.36-1.46.56-2.22.34,1.32.76,2.61,1.3,3.85,1,2.31,2.37,4.48,4.09,6.49,1.21,1.41,3.33-.65,2.12-2.07-1.45-1.69-2.62-3.58-3.49-5.58-.89-2-1.38-4.16-1.76-6.31-.17-1.13-1.23-1.67-2.31-1.12-2.44,1.23-2.56,3.75-3.26,5.97-.07.23-.14.47-.25.69-.04.1-.11.19-.16.28-.09-.19-.2-.39-.22-.43-.17-.33-.32-.67-.46-1.02-.57-1.32-1-2.7-1.41-4.07l-1.25-4.07c-.39-1.27-1.12-2.72-1.23-4.05-.05-.62.38-.78.94-.98.03-.01.21-.06.38-.1l.18.47c.52,1.41.94,2.85,1.28,4.31.41,1.76,3.27.84,2.85-.94-.26-1.1-.56-2.2-.92-3.27-.29-.88-.54-1.96-1.11-2.71-.18-.24-.41-.4-.65-.53,0-.13-.02-.25-.07-.39-.26-.75-.37-1.5-.42-2.25-.05-.74.01-1.5.18-2.28.23-1.06.46-2.12.23-3.15l.96,2.54c.33.92.69,1.82.99,2.75l.85,2.79c.53,1.76,3.37.79,2.83-.98l-.86-2.82c-.3-.93-.66-1.85-1-2.77l-2.09-5.51-2.17-5.47c-.73-1.82-1.47-3.64-2.35-5.4-.35-.72-1.06-.91-1.69-.76-.04-.06-.08-.12-.14-.18-2.15-2.06-4.46-4.09-7-5.61ZM718.26,270.38c.06.13.13.27.18.41-.17-.23-.33-.46-.47-.7-.2-.33-.38-.68-.56-1.02.35.38.63.87.84,1.31ZM722.73,300.33c-2.05.14-3.86-.84-4.89-2.44-1.39-2.17-1.24-4.93-.68-7.42.53-2.4,1.38-4.88,2.2-7.23.55-1.61,1.35-3.3,2.64-4.54-.14.71-.37,1.43-.42,2.06-.05.75-.02,1.49.1,2.21.08.57.21,1.14.37,1.69-.32.13-.63.27-.9.42-1.65.91-2.25,2.47-1.87,4.13.45,2.02,1.2,3.99,1.81,5.96.52,1.72,1.01,3.46,1.66,5.14Z"/><path class="cls-1" d="M707.66,242.05c.94,1.02,1.81,2.11,2.6,3.25-.7.19-1.38.46-2.03.75-.83.37-1.69.84-2.57,1.15-.6-1.02-.96-2.18-1.24-3.33l-.56-2.38c-.21-.83-.39-1.75-.77-2.51-.45-.9-1.44-1.33-2.47-1-.9.29-1.79.69-2.66,1.06-1.71.73-3.38,1.53-5.02,2.39-1.71.9-.49,3.33,1.23,2.45,1.48-.76,2.99-1.48,4.52-2.13.64-.27,1.29-.53,1.94-.79.05.17.1.33.14.49.62,2.3,1,4.65,2.06,6.74-.2.28-.31.63-.25,1.02.24,1.57.56,3.11.86,4.67.11.66.24,1.32.37,1.97-.1.22-.14.46-.09.7.17.82.41,1.6.77,2.35.3.61,1.02.94,1.74.71.65-.21,1.26-.9,1.1-1.59-.63-2.63-1.09-5.33-1.56-8,0,0,0,0,.01,0,.99-.25,1.95-.63,2.9-1.07,1.29-.59,2.57-1.23,4.02-1,1.1.17,2-1.19,1.48-2.08-1.21-2.08-2.64-4.03-4.26-5.8-1.25-1.36-3.49.63-2.24,1.98ZM701.18,240.73s.03,0,0,0c0,0,0,0,0,0Z"/><path class="cls-1" d="M696.08,217.31c-.34,4.64-.9,9.76-4.92,12.92-1.15.91-.04,2.79,1.32,2.32,3.62-1.26,7.1,1.48,10.5,2.16.96.2,1.69-.49,1.88-1.23.22.42.45.83.65,1.26.81,1.64,3.48.26,2.65-1.4-.68-1.45-1.49-2.84-2.27-4.24l-2.35-4.2-4.69-8.41c-.76-1.28-2.71-.56-2.77.82ZM703.26,230.54l.82,1.47c-.06-.02-.12-.04-.2-.06-2.81-.53-5.41-2.07-8.17-2.47,1.53-2.2,2.32-4.81,2.78-7.49l2.44,4.38,2.33,4.17Z"/><path class="cls-1" d="M694.36,221.79c-.42-.66-1.26-.88-1.99-.46-.42.24-.84.47-1.27.68l-.65.31-.25.11-.14.06c-.88.37-1.78.68-2.69.94-.75.21-1.31,1.07-1.11,1.79.21.73.94,1.17,1.74.94,1.99-.55,3.94-1.36,5.76-2.38.68-.39,1-1.35.6-1.99Z"/><path class="cls-1" d="M683.11,218.97c.43.67,1.29.75,2.02.38,4.1-2.13,8.28-4.1,12.55-5.85.75-.31,1.27-1.01,1.03-1.82-.2-.69-1.09-1.27-1.84-.95-4.5,1.89-8.92,3.99-13.23,6.28-.72.38-.91,1.37-.53,1.96Z"/><path class="cls-1" d="M679.71,200.41c-.7,0-1.34.35-1.96.66-1.34.68-2.6,1.46-3.79,2.39-.7.55-1,1.73-.18,2.25.88.56,1.73,1.17,2.54,1.81.82.64,1.6,1.32,2.28,2.08,1.4,1.49,2.65,3.13,3.73,4.9.42.69,1.74.9,2.32.11.59-.8.61-1.46.57-2.38l-.08-1.79c.76-.34,1.32-1.24.79-2.11-.71-1.19-1.42-2.38-2.13-3.57-.76-1.17-1.55-2.31-2.39-3.41-.42-.55-.96-.94-1.71-.94ZM682.69,208.77c-.16.13-.3.3-.39.51-.46-.56-.92-1.11-1.42-1.64-1.08-1.15-2.32-2.17-3.61-3.1.42-.26.84-.52,1.28-.75l.56-.27.11-.05s.04.04.05.06l.49.72c1.05,1.46,1.99,3,2.93,4.53Z"/><path class="cls-1" d="M685.32,204.12c.86,1.61,1.63,3.27,2.19,5.03.28.88,1.34,1.27,2.18.74l3.26-2.07c1.63-1.03.08-3.48-1.54-2.43l-1.7,1.1c-.5-1.26-1.08-2.49-1.72-3.69-.94-1.74-2.1-3.34-3.19-4.97-1.05-1.52-3.5.2-2.47,1.7,1.02,1.51,2.09,3,2.99,4.59Z"/><path class="cls-1" d="M737.38,476.59c.84.13,1.56-.32,1.78-1.09.71-3.03,1.3-6.1,1.76-9.19.11-.74-.42-1.55-1.24-1.65-.79-.1-1.6.36-1.72,1.14-.46,3.06-1.04,6.11-1.75,9.12-.2.71.39,1.55,1.16,1.67Z"/><path class="cls-1" d="M740.7,449.88c-1.12-.08-2.12.13-3.18.42-.77.21-1.63.55-2.45.44-.82-.11-1.54-.71-2.24-1.1-.97-.53-1.97-.88-3.1-.71-1.89.28-1.43,2.99.47,2.73.69-.1,1.33.43,1.88.77.61.36,1.23.69,1.9.9-1.17,1.06-2.18,2.28-2.97,3.62-.5.79.25,1.79,1.13,1.94.83.14,1.98.27,2.82.7-1.4,1.61-1.95,3.58-1.3,5.75.22.73,1.23,1.08,1.94.84.81-.28,1.08-1.06.86-1.8-.22-.76-.1-1.59.25-2.29.45-.9,1.74-1.47,1.78-2.51.04-1.23-1.34-2.09-2.39-2.56-.4-.17-.81-.3-1.23-.42.6-.71,1.25-1.35,2.01-1.91,1.25-.93,2.7-1.64,4.26-2.1,1.41-.41,1.01-2.61-.43-2.71Z"/><path class="cls-1" d="M741.2,437.84c-.13,1.81,2.85,2.1,2.99.28.13-1.83-2.85-2.08-2.99-.28Z"/><path class="cls-1" d="M749.62,404.59c-.01-.07-.02-.15-.05-.22-1.19-2.73-2.55-5.51-4.31-7.91-.69-.93-1.62-1.58-2.88-1.25-1.32.35-2.25,1.56-3.11,2.48-1.79,1.92-3.47,4.08-3.88,6.62-.2.95-.35,2.1.18,2.98.29.48.78.85,1.34,1.04.74.25,1.46-.07,2.16.1.03,0,.05.02.07.03-.03.02-.05.03-.08.05-2.4,1.61-4.36,4.34-5.37,6.84-1.05,2.54-.49,5.32,1.81,7.13.73.58,1.51.29,1.93-.3.42-.58.41-1.46-.33-2.02-2.8-2.11.77-6.6,2.41-8.31.21-.22.56-.55.96-.86.15,1.06.16,2.13.53,3.16.32.9.89,1.92,1.83,2.38,1.22.6,2.6-.13,3.25-1.15,1.12-1.74.79-4.6-.25-6.31-.84-1.4-2.19-1.86-3.59-1.74-.31-.42-.68-.78-1.12-1.06-.6-.38-1.28-.6-2.01-.63-.26,0-.61-.02-.9.02,0-.15,0-.3.02-.45.21-1.63,1.09-3.13,2.15-4.41.61-.75,1.29-1.45,1.97-2.15.13-.13.3-.26.41-.41.02-.02.03-.03.04-.05.19.34.52.7.71,1,.84,1.35,1.65,2.75,2.34,4.18-1.31-.03-2.62-.18-3.93-.47-.94-.21-1.6.36-1.78,1.03-.19.67.04,1.46.98,1.68,2.19.52,4.42.72,6.68.58.02,3.81,0,7.62-.09,11.42-.02.73-.04,1.45-.05,2.18-.08-.72-.59-1.48-1.46-1.46-3.42.1-6.13,1.88-8.33,4.18-2.26,2.31-4.53,4.86-6.18,7.5-1.64,2.62-2.71,5.77-1.8,8.82.64,2.55,2.63,4.89,5.47,5.68.25.07.48.08.7.05.06,1.19.35,2.4,1.38,3.02,1.69,1.01,3.52-.32,4.6-1.51.47-.52.89-1.21,1.37-1.83-.58,3.87-.24,7.77,1.02,11.64.58,1.78,3.32.7,2.74-1.08-1.38-4.25-1.46-8.77-.21-13,.34-1.1-.43-2.01-1.64-1.93-2.68.19-3.97,2.44-5.44,4.21-.16.19-.31.38-.49.54-.08.07-.17.13-.25.19-.01-.21-.04-.44-.04-.48-.03-.37-.04-.75-.04-1.12,0-1.44.28-2.86.41-4.28l.4-4.24c.12-1.32,0-2.95.42-4.21.19-.59.65-.57,1.25-.53.04,0,.22.03.39.05v.51c-.07,1.5-.23,2.99-.47,4.47-.29,1.79,2.7,2.05,2.99.25.18-1.12.32-2.24.4-3.37.06-.92.25-2.02,0-2.93-.08-.29-.22-.53-.39-.74.04-.12.07-.24.08-.39.11-1.59.65-2.95,1.63-4.26.71-.92,1.35-1.84,1.49-2.94-.03.95-.06,1.9-.15,2.84l-.53,5.81c-.18,1.83,2.81,2.05,2.99.2l.54-5.86c.17-1.95.16-3.92.22-5.88.09-3.92.12-7.85.1-11.76,0-.8-.57-1.25-1.21-1.36ZM743.76,412.96c-.07-.27-.12-.55-.16-.83-.06-.38-.09-.77-.13-1.16.18.48.25,1.05.28,1.53,0,.15.01.3.01.45ZM740.61,427.16c-1.87.2-3.02,1.39-3.31,3.07-.35,2.03-.41,4.15-.61,6.2-.11,1.04-.21,2.08-.32,3.12-.1.75-.18,1.5-.23,2.25-.9-.31-1.66-.82-2.22-1.48-.32-.37-.58-.79-.78-1.24-.22-.45-.38-.93-.47-1.43-.46-2.55.73-5.03,2.2-7.1,1.42-2,3.1-3.96,4.83-5.8.83-.89,1.79-1.77,2.88-2.43.45-.28.93-.52,1.43-.71-.41.59-.91,1.16-1.23,1.73-.66,1.19-1.03,2.46-1.18,3.77-.34,0-.68,0-.99.04Z"/><path class="cls-1" d="M737.75,386.86c-.64,2.19-1.17,4.39-1.61,6.6-.18.17-.31.37-.35.61-.16.82-.23,1.64-.18,2.46.04.68.58,1.26,1.33,1.33.68.06,1.51-.33,1.62-1.03.43-2.67,1.01-5.32,1.72-7.97,0,0,.01,0,.02,0,1,.16,2.03.19,3.08.16,1.42-.03,2.84-.12,4.05.66.92.6,2.31-.3,2.22-1.33-.16-2.39-.79-4.74-1.6-7.01-.63-1.74-3.47-.8-2.83.93.48,1.31.87,2.65,1.13,4-.7-.1-1.43-.12-2.15-.11-.91.01-1.89.11-2.83.04-.14-1.18-.05-2.38.14-3.54l.39-2.41c.13-.84.31-1.76.25-2.61-.07-1.01-.82-1.79-1.9-1.89-.94-.09-1.92-.07-2.87-.08-1.86,0-3.71.07-5.56.21-1.92.15-1.73,2.86.2,2.73,1.66-.11,3.33-.17,5-.17.7,0,1.4.02,2.09.04-.02.17-.03.34-.06.51-.2,1.5-.49,2.98-.64,4.46-.09.85-.1,1.69-.04,2.54-.29.18-.53.46-.63.84ZM739.74,378.54s0,0,0-.01c.03,0,.03,0,0,.01Z"/><path class="cls-1" d="M734.74,364.91c-1.41.38-1.11,2.55.33,2.65,3.91.27,5.82,4.18,8.64,6.15.82.57,1.76.21,2.23-.41.03.48.07.95.09,1.43.12,1.83,3.11,1.61,2.99-.24-.29-6.41-1.18-12.77-1.89-19.15-.17-1.48-2.21-1.59-2.86-.35-2.14,4.12-4.6,8.59-9.54,9.9ZM744.68,360.25c.45,3.8.87,7.6,1.15,11.41-.05-.05-.09-.09-.15-.13-1.7-1.16-2.96-2.78-4.57-4.12-.6-.51-1.22-.99-1.88-1.39,2.27-1.41,4-3.49,5.45-5.77Z"/><path class="cls-1" d="M739.28,357.23c-.48.06-.95.1-1.43.12l-.72.03h-.27s-.16,0-.16,0c-.96-.01-1.91-.08-2.85-.2-.77-.1-1.62.46-1.71,1.2-.09.75.42,1.44,1.25,1.55,2.05.28,4.17.31,6.24.09.78-.08,1.44-.84,1.32-1.58-.13-.77-.82-1.31-1.66-1.21Z"/><path class="cls-1" d="M731.86,351.37c.15.78.87,1.21,1.69,1.15,4.59-.33,9.19-.47,13.79-.39.81.02,1.57-.43,1.7-1.26.12-.72-.45-1.6-1.28-1.61-4.9-.05-9.79.13-14.66.52-.81.07-1.37.9-1.25,1.59Z"/><path class="cls-1" d="M736.1,332.98c-.65-.28-1.38-.21-2.07-.17-1.5.09-2.97.31-4.43.69-.86.23-1.57,1.19-1.05,1.99,2.2,3.49,3.67,7.38,4.3,11.47.12.8,1.26,1.51,2.1,1.02.85-.5,1.13-1.1,1.45-1.95l.62-1.67c.84-.01,1.7-.61,1.54-1.62-.43-2.73-.73-5.52-1.3-8.22-.14-.68-.47-1.25-1.17-1.55ZM732.19,335.8c.49-.08.98-.15,1.47-.18l.61-.03h.12s.02.06.02.07l.14.86.84,5.33c-.2.06-.39.16-.55.31-.65-2.21-1.53-4.35-2.65-6.37Z"/><path class="cls-1" d="M739.71,344.11c-.08.92.75,1.69,1.73,1.54l3.81-.6c1.91-.3,1.42-3.15-.49-2.83l-1.99.33c.05-3.32-.45-6.64-.97-9.92-.37-1.81-3.31-1.21-2.94.58.58,3.61,1.16,7.25.85,10.9Z"/><path class="cls-1" d="M687.37,599.59c-.69-.4-1.61-.3-2.02.38-.81,1.32-1.61,2.65-2.5,3.91-.91,1.25-1.85,2.48-2.82,3.69-.46.58-.24,1.59.42,2.01.72.46,1.55.32,2.05-.31.97-1.22,1.92-2.46,2.84-3.72.9-1.28,1.7-2.62,2.52-3.95.38-.64.21-1.6-.5-2.02Z"/><path class="cls-1" d="M694.2,586.44c-.99-.52-1.99-.72-3.07-.87-.79-.11-1.7-.14-2.42-.56-.71-.43-1.14-1.27-1.63-1.9-.68-.88-1.47-1.59-2.57-1.88-1.83-.48-2.47,2.19-.64,2.7.68.19,1.04.92,1.41,1.44.4.57.84,1.11,1.37,1.57-1.53.48-2.97,1.18-4.26,2.09-.76.54-.47,1.76.29,2.24.71.46,1.71,1.03,2.32,1.76-1.9.94-3.16,2.54-3.4,4.81-.08.76.71,1.49,1.45,1.55.85.07,1.39-.56,1.48-1.33.09-.79.52-1.51,1.1-2.02.76-.66,2.16-.67,2.59-1.62.51-1.12-.42-2.47-1.21-3.31-.29-.31-.61-.59-.95-.86,2.25-1.08,4.88-1.45,7.48-1.12,1.45.17,1.93-2.01.65-2.68Z"/><path class="cls-1" d="M699.37,575.55c-.89,1.57,1.73,3.03,2.63,1.44.9-1.59-1.74-3.01-2.63-1.44Z"/><path class="cls-1" d="M720.18,548.29c.02-.07.04-.14.04-.22.03-1.47.04-2.97-.04-4.46-.13-1.51-.36-3.01-.71-4.46-.27-1.13-.89-2.1-2.18-2.29-1.35-.2-2.67.56-3.81,1.07-1.2.53-2.35,1.15-3.46,1.87-1.11.72-2.09,1.58-2.82,2.64-.54.8-1.12,1.8-.98,2.82.08.56.39,1.09.83,1.49.58.52,1.37.51,1.95.95.02.02.04.04.06.06-.03,0-.06,0-.09.01-2.82.54-5.67,2.3-7.55,4.2-.48.48-.88,1.02-1.18,1.59-.33.56-.57,1.15-.7,1.77-.26,1.23-.09,2.56.61,3.84.89,1.64,3.32.15,2.44-1.47-1.6-2.98,3.35-5.74,5.52-6.67.28-.12.72-.28,1.21-.42-.27,1.04-.67,2.03-.72,3.13-.04.96.09,2.13.77,2.92.89,1.03,2.44.9,3.43.22,1.7-1.16,2.49-3.95,2.19-5.93-.24-1.62-1.3-2.58-2.63-3.02-.12-.5-.32-.99-.62-1.42-.4-.59-.95-1.06-1.61-1.37-.23-.11-.56-.26-.84-.33.06-.14.11-.27.19-.4.8-1.43,2.32-2.42,3.82-3.16.9-.43,1.76-.83,2.66-1.2.17-.07.37-.13.53-.22.02-.01.04-.02.06-.03.04.39.21.85.27,1.21.27,1.58.38,3.15.41,4.72-1.2-.54-2.33-1.19-3.41-1.97-1.55-1.12-3.38,1.02-1.83,2.16,1.81,1.34,3.78,2.41,5.92,3.16-1.44,3.53-2.93,7.04-4.47,10.52-.31.63-.63,1.25-.95,1.87.2-.67.04-1.5-.74-1.81-3.18-1.25-6.47-.74-9.42.49-2.96,1.24-6.02,2.7-8.55,4.49-1.26.89-2.42,1.96-3.34,3.19-.97,1.2-1.67,2.58-1.9,4.14-.39,2.62.54,5.56,2.83,7.42.2.16.41.26.62.32-.4,1.13-.6,2.36.11,3.34,1.16,1.6,3.35,1.1,4.8.42.63-.29,1.28-.76,1.97-1.15-.71,1.17-1.32,2.39-1.82,3.65-.93,2.35-1.48,4.88-1.83,7.45-.22,1.83,2.76,1.95,2.99.12.15-1.08.32-2.19.57-3.27.25-1.08.58-2.13.99-3.15.81-2.04,1.92-3.95,3.3-5.66.72-.89.4-2.02-.75-2.42-2.56-.91-4.59.68-6.63,1.73-.21.11-.43.23-.66.31-.1.04-.2.05-.31.08.07-.2.13-.42.15-.46.11-.36.25-.71.39-1.05.57-1.32,1.32-2.55,2.05-3.78.72-1.22,1.46-2.43,2.17-3.67.62-1.17,1.13-2.72,2-3.73.4-.47.81-.27,1.35,0,.03.02.19.11.34.2l-.21.46c-.63,1.36-1.35,2.68-2.14,3.95-1.02,1.5,1.62,2.92,2.65,1.41.6-.96,1.16-1.94,1.66-2.96.41-.83,1-1.77,1.13-2.71.04-.3,0-.58-.08-.84.08-.09.16-.2.22-.32.71-1.43,1.73-2.47,3.13-3.29.93-.55,1.87-1.09,2.48-1.94-1.28,2.53-2.59,5.04-3.93,7.54-.87,1.62,1.79,3.01,2.67,1.37,1.85-3.46,3.67-6.94,5.41-10.46,1.59-3.59,3.12-7.21,4.6-10.84.3-.74-.04-1.38-.59-1.74ZM711.75,553.3c-.05.14-.1.28-.16.42.04-.28.1-.56.17-.83.1-.38.21-.75.33-1.12-.02.52-.17,1.07-.33,1.53ZM706.5,562.85c-1.06.84-1.89,1.86-2.53,3.02-.31-.14-.63-.27-.92-.36-1.79-.56-3.3.1-4.21,1.53-1.13,1.73-1.91,3.7-3.01,5.45-.92,1.54-1.9,3.07-2.7,4.68-1.51-1.38-2.02-3.35-1.53-5.17.32-1.24,1.06-2.29,1.92-3.22.85-.94,1.9-1.73,2.97-2.4,2.07-1.29,4.36-2.43,6.65-3.45,1.58-.7,3.38-1.27,5.18-1.19-.63.38-1.32.7-1.82,1.1Z"/><path class="cls-1" d="M725.01,526.1c-.1,1.39-.33,2.75-.64,4.1-.62-.37-1.27-.69-1.94-.96-.84-.34-1.77-.65-2.6-1.08.35-1.12.98-2.16,1.63-3.15l1.28-2.07c.44-.72.96-1.51,1.23-2.31.32-.96-.07-1.97-1.03-2.49-.84-.45-1.74-.82-2.61-1.19-1.71-.73-3.44-1.39-5.2-1.98-1.83-.61-2.68,1.97-.86,2.6,1.58.55,3.13,1.14,4.67,1.8.64.27,1.28.56,1.91.86-.08.15-.16.3-.25.45-.77,1.29-1.55,2.58-2.31,3.86-.44.73-.82,1.49-1.13,2.29-.35.05-.68.21-.93.52-1.42,1.77-2.76,3.6-4,5.46-.23.08-.43.22-.56.42-.46.69-.84,1.42-1.11,2.2-.22.65.05,1.4.72,1.75.6.32,1.52.29,1.88-.31,1.41-2.3,2.96-4.52,4.63-6.68,0,0,.01,0,.02,0,.86.54,1.8.97,2.77,1.36,1.32.53,2.66,1.01,3.48,2.2.62.91,2.25.63,2.56-.36.7-2.3,1.26-4.63,1.37-7.04.08-1.86-2.89-2.09-2.96-.25ZM721.4,520.48s0,0,0-.01c.02.01.03.02,0,.01Z"/><path class="cls-1" d="M734.7,500.57c-3.54,2.97-7.52,6.14-12.57,5.42-.73-.1-1.21.38-1.39.96-.19.58-.03,1.26.6,1.59,3.41,1.74,3.69,6.11,5.54,9.04.54.85,1.54.89,2.21.5l-.46,1.36c-.59,1.74,2.25,2.71,2.85.95l3.08-9.12,2.64-9.26c.41-1.43-1.43-2.33-2.5-1.44ZM729.63,516.51c-.03-.06-.05-.12-.09-.18-1.53-2.39-2.11-5.3-3.7-7.56,2.65-.41,5.03-1.65,7.23-3.19l-1.37,4.81-2.06,6.12Z"/><path class="cls-1" d="M722.23,498.95c-.37.66-.16,1.49.56,1.92,1.79,1.06,3.72,1.91,5.72,2.52.75.23,1.65-.21,1.82-.95.17-.76-.26-1.53-1.07-1.76-.46-.14-.92-.28-1.37-.44l-.67-.25-.25-.1-.14-.06c-.88-.38-1.73-.82-2.55-1.3-.67-.39-1.67-.21-2.04.44Z"/><path class="cls-1" d="M740.14,496.62c-4.46-1.94-9.01-3.68-13.64-5.21-.77-.25-1.63.29-1.82.96-.21.77.31,1.45,1.08,1.71,4.36,1.48,8.66,3.15,12.87,5.02.74.33,1.61.22,2.05-.5.38-.62.2-1.66-.54-1.98Z"/><path class="cls-1" d="M733.93,476.13c-1.41-.5-2.85-.87-4.34-1.09-.88-.13-1.96.47-1.8,1.42.7,4.08.57,8.24-.4,12.27-.19.79.59,1.89,1.55,1.76.97-.13,1.46-.57,2.08-1.24l1.21-1.3c.78.31,1.8.1,2.04-.9.64-2.69,1.43-5.38,1.93-8.09.13-.68.04-1.34-.45-1.88-.47-.51-1.17-.73-1.82-.96ZM732.93,479.75l-1.26,5.25c-.21-.03-.42,0-.63.07.24-2.3.24-4.62,0-6.91.48.12.95.24,1.42.4l.58.21.11.05s0,.06-.01.08l-.2.84Z"/><path class="cls-1" d="M740.18,488.98l-1.96-.47c1.32-3.05,2.12-6.3,2.89-9.53.43-1.8-2.52-2.39-2.94-.61-.84,3.55-1.69,7.14-3.38,10.4-.42.81.05,1.85,1.01,2.09l3.75.93c1.87.47,2.51-2.36.63-2.81Z"/><path class="cls-1" d="M584.21,702.69c-2.55,1.75-5.18,3.4-7.87,4.93-.64.37-.82,1.4-.38,2.04.48.7,1.3.89,1.99.49,2.71-1.55,5.35-3.21,7.93-4.98.61-.42.84-1.36.35-2.02-.48-.64-1.37-.92-2.02-.47Z"/><path class="cls-1" d="M588.63,693.98c2.48-.14,5.03.53,7.3,1.85.64.37,1.3.12,1.68-.37.37-.5.46-1.24,0-1.79-.71-.86-1.56-1.44-2.49-2-.68-.4-1.53-.8-2.02-1.48-.49-.67-.54-1.59-.75-2.37-.29-1.07-.74-2.04-1.63-2.73-1.48-1.14-3.19.98-1.67,2.19.55.43.6,1.25.74,1.88.15.68.34,1.36.66,1.98-1.59-.14-3.19-.05-4.71.3-.9.21-1.1,1.45-.6,2.19.48.7,1.17,1.61,1.45,2.53-.81.05-1.58.22-2.27.54-1.1.52-2.03,1.38-2.74,2.56-.38.65.06,1.63.72,1.98.77.4,1.52.06,1.91-.6.39-.69,1.06-1.2,1.8-1.44.95-.32,2.24.21,3-.5.9-.84.56-2.45.16-3.54-.15-.4-.34-.79-.54-1.17Z"/><path class="cls-1" d="M606.62,685.66c-1.44,1.1.41,3.46,1.87,2.35,1.43-1.15-.45-3.48-1.87-2.35Z"/><path class="cls-1" d="M638.27,657.07c-1.15-.7-2.66-.53-3.95-.54-2.65,0-5.41.25-7.56,1.68-.8.53-1.72,1.24-1.97,2.25-.14.55-.06,1.17.19,1.71.34.71,1.06,1.01,1.42,1.63.01.02.02.05.03.07-.03,0-.06-.02-.09-.02-2.76-.55-6.16-.15-8.67.84-2.56.99-4.24,3.26-3.93,6.21.2,1.88,2.98,1.41,2.78-.45-.39-3.47,5.35-3.96,7.72-3.94.31,0,.79.03,1.29.11-.67.83-1.44,1.57-1.93,2.54-.43.85-.78,1.96-.47,2.95.41,1.29,1.89,1.79,3.09,1.57,2.03-.39,3.93-2.55,4.41-4.52.4-1.6-.21-2.9-1.26-3.83.08-.52.08-1.05-.02-1.56-.14-.7-.46-1.35-.95-1.9-.17-.19-.41-.46-.64-.64.11-.1.21-.21.33-.3,1.28-1.02,3.04-1.35,4.71-1.46.97-.07,1.96-.05,2.95-.03.19,0,.4.04.58.02.03,0,.04,0,.07,0-.12.37-.16.85-.25,1.19-.4,1.53-.89,3.04-1.46,4.52-.89-.97-1.68-2.01-2.37-3.16-.99-1.65-3.48-.36-2.5,1.3,1.15,1.95,2.54,3.71,4.21,5.24-2.63,2.76-5.47,5.3-8.3,7.85l-1.6,1.41c.45-.55.63-1.41.02-2.01-2.44-2.39-5.63-3.17-8.79-3.14-3.18.02-6.62.11-9.66.75-1.51.31-3.02.83-4.35,1.6-.67.39-1.28.85-1.84,1.37-.57.51-1.07,1.09-1.48,1.76-1.38,2.26-1.68,5.33-.29,7.93.12.23.27.4.45.54-.81.88-1.48,1.94-1.2,3.11.45,1.93,2.66,2.32,4.26,2.26.69-.02,1.47-.2,2.25-.29-3.16,2.3-5.69,5.31-7.71,8.77-.91,1.61,1.78,2.88,2.7,1.26.54-.97,1.16-1.87,1.83-2.75.65-.89,1.37-1.73,2.14-2.51,1.54-1.56,3.31-2.88,5.25-3.92,1.01-.54,1.15-1.7.26-2.52-2.01-1.83-4.49-1.17-6.78-.99-.24.02-.49.04-.73.02-.11,0-.21-.03-.31-.05.14-.16.28-.33.31-.37.24-.29.5-.55.77-.81,1.04-.99,2.21-1.83,3.37-2.68,1.16-.82,2.26-1.71,3.37-2.59,1.04-.83,2.13-2.04,3.33-2.62.56-.27.86.08,1.25.53.02.03.13.18.23.32l-.38.34c-1.12,1-2.31,1.91-3.54,2.76-1.49,1.02.39,3.37,1.88,2.33.93-.64,1.84-1.32,2.71-2.04.71-.59,1.63-1.22,2.12-2.03.16-.26.23-.53.26-.8.11-.05.23-.12.34-.21,1.21-1.03,2.59-1.56,4.19-1.78,1.07-.16,2.15-.32,3.02-.9l-2.03,1.8c-1.49,1.26-3.03,2.45-4.55,3.66-1.45,1.13.46,3.45,1.92,2.3,1.54-1.22,3.09-2.42,4.59-3.69l4.41-3.9c2.92-2.62,5.84-5.24,8.54-8.09.56-.57.49-1.3.12-1.84.04-.06.09-.12.12-.19,1.19-2.72,2.3-5.57,2.85-8.46.2-1.14,0-2.29-1.1-2.96ZM626.39,670.33c.15-.24.32-.47.49-.68.24-.3.5-.59.76-.88-.23.46-.59.9-.93,1.25-.1.1-.21.21-.32.32ZM614.64,678.55c-.23-.25-.47-.49-.71-.69-1.43-1.21-3.09-1.22-4.5-.26-1.71,1.15-3.28,2.57-4.9,3.86-1.43,1.09-2.93,2.1-4.3,3.27-.85-1.85-.55-3.87.61-5.36,1.57-2.03,4.15-2.94,6.67-3.29,2.43-.36,5-.5,7.52-.53,1.74,0,3.6.13,5.21.9-.71.12-1.47.15-2.08.33-1.3.37-2.48.97-3.53,1.77Z"/><path class="cls-1" d="M649.5,650.13c-.64,1.23-1.37,2.4-2.17,3.53-.42-.58-.91-1.13-1.41-1.64-.64-.64-1.38-1.28-1.98-2.01.76-.91,1.73-1.64,2.72-2.29l2.06-1.34c.7-.48,1.55-.94,2.09-1.6.66-.76.7-1.86.02-2.71-.59-.75-1.28-1.44-1.93-2.13-1.28-1.35-2.62-2.64-4-3.88-1.44-1.29-3.22.77-1.79,2.08,1.23,1.12,2.43,2.29,3.58,3.5.48.5.95,1.02,1.41,1.54-.14.1-.27.21-.41.31-1.96,1.37-4.05,2.52-5.66,4.22-.34-.09-.7-.07-1.05.12-1.99,1.09-3.91,2.26-5.78,3.5-.24,0-.48.04-.67.17-.69.46-1.31.99-1.87,1.61-.48.49-.53,1.28-.06,1.86.42.53,1.29.87,1.88.48,2.21-1.55,4.48-3.02,6.84-4.37,0,0,0,0,.01.01.58.84,1.27,1.6,2.02,2.34,1,1,2.05,1.97,2.34,3.4.22,1.09,1.82,1.46,2.48.67,1.55-1.84,2.9-3.83,4.01-5.95.85-1.63-1.8-3.04-2.65-1.42ZM648.51,643.64s0,0,0-.01c.02.02.02.03,0,.01Z"/><path class="cls-1" d="M668.56,630.59c-2.2.67-4.49,1.37-6.83,1.53-2.37.13-4.71-.23-6.9-1.57-1.26-.76-2.66.92-1.75,2.02,2.45,2.96,1.02,7.11,1.58,10.55.16,1,1.07,1.43,1.83,1.33l-.95,1.08c-1.21,1.38,1.02,3.39,2.24,2l6.34-7.24,3.17-3.62c1.03-1.23,2-2.51,3-3.76.92-1.16-.41-2.73-1.74-2.32ZM661.83,638.34l-4.25,4.86c0-.07,0-.13-.01-.2-.47-2.81.1-5.75-.47-8.47,1.49.39,3.03.52,4.58.45,1.15-.05,2.33-.21,3.47-.43-.06.07-.11.14-.16.2l-3.14,3.59Z"/><path class="cls-1" d="M661.63,626.77c-.66-.7-1.27-1.44-1.84-2.21-.46-.63-1.45-.85-2.03-.4-.6.47-.73,1.32-.23,2,1.23,1.69,2.67,3.24,4.26,4.58.6.51,1.59.45,2.03-.16.45-.63.35-1.52-.3-2.05-.37-.31-.73-.62-1.08-.95l-.52-.5-.2-.2-.1-.1Z"/><path class="cls-1" d="M664.59,618.86c-.61-.54-1.61-.38-2.04.17-.49.63-.27,1.47.33,2.01,3.42,3.09,6.71,6.33,9.84,9.72.55.59,1.39.84,2.07.34.58-.42.83-1.45.27-2.05-3.33-3.56-6.83-6.96-10.47-10.2Z"/><path class="cls-1" d="M667.2,618.99c.95.28,1.59.07,2.45-.28l1.67-.68c.59.59,1.62.81,2.25,0,1.62-2.23,3.38-4.41,4.89-6.73.38-.58.56-1.22.31-1.92-.23-.65-.79-1.13-1.29-1.6-1.1-1.02-2.27-1.93-3.55-2.72-.76-.46-1.98-.34-2.19.6-.46,2.03-1.13,3.99-1.98,5.87-.43.94-.9,1.85-1.42,2.74-.55.87-1.17,1.7-1.82,2.5-.51.63-.26,1.93.69,2.2ZM672.37,612.99c.66-1.44,1.22-2.93,1.67-4.45.39.3.78.6,1.14.93l.45.43.08.09s-.03.05-.04.07l-.51.7-3.17,4.37c-.18-.11-.38-.17-.6-.18.35-.64.68-1.28.99-1.94Z"/><path class="cls-1" d="M680.49,611.54c-1.07,1.48-2.15,2.96-3.3,4.37-.58.7-1.18,1.39-1.81,2.05-.31.33-.64.65-.97.96-.35.3-.71.59-1.07.87-.74.56-.74,1.68.05,2.29l3.07,2.34c1.53,1.17,3.32-1.11,1.77-2.27l-1.62-1.22c1-.92,1.9-1.92,2.76-2.97,1.25-1.52,2.42-3.11,3.58-4.71,1.08-1.5-1.38-3.2-2.46-1.72Z"/><path class="cls-1" d="M450.84,757.33c-1.51.36-3.04.62-4.57.84-1.53.23-3.07.43-4.61.6-.73.08-1.31.95-1.16,1.72.16.83.84,1.33,1.63,1.25,1.55-.17,3.1-.37,4.65-.6,1.55-.23,3.09-.49,4.61-.85.73-.16,1.3-.95,1.11-1.75-.18-.78-.89-1.37-1.66-1.19Z"/><path class="cls-1" d="M464.32,755.69c.88,1.18,2.8.03,2.39-1.35-.31-1.08-.86-1.94-1.5-2.83-.47-.65-1.08-1.33-1.26-2.15-.18-.81.13-1.69.25-2.48.16-1.09.13-2.16-.41-3.15-.92-1.67-3.3-.29-2.39,1.4.33.61.06,1.4-.06,2.03-.13.69-.22,1.39-.18,2.08-1.4-.75-2.9-1.29-4.45-1.61-.91-.18-1.59.88-1.42,1.76.16.83.44,1.95.33,2.89-1.99-.73-4.02-.52-5.83.87-.61.47-.58,1.55-.12,2.12.54.66,1.37.62,1.98.15.63-.48,1.45-.67,2.22-.6,1,.09,1.98,1.1,2.96.75,1.16-.41,1.49-2.01,1.56-3.16.03-.42,0-.85-.03-1.28,2.33.88,4.41,2.51,5.96,4.56Z"/><path class="cls-1" d="M478.16,750.56c-1.74.49-.98,3.39.78,2.9,1.76-.5.96-3.39-.78-2.9Z"/><path class="cls-1" d="M515.11,734.76c-1.21-.5-2.47-.94-3.74-1.21-1.28-.3-2.58-.41-3.85-.19-.95.16-2.07.44-2.71,1.25-.35.45-.52,1.04-.5,1.63.03.78.57,1.34.66,2.06,0,.03,0,.05,0,.08-.02-.02-.05-.04-.07-.05-1.17-.83-2.56-1.45-4-1.87-1.43-.41-2.91-.63-4.27-.71-2.75-.13-5.2,1.26-6.08,4.08-.57,1.8,2.18,2.48,2.74.71,1.01-3.34,6.51-1.41,8.65-.55.28.12.7.33,1.14.58-.93.52-1.92.93-2.76,1.65-.73.6-1.5,1.47-1.6,2.5-.14,1.34,1.03,2.39,2.22,2.67,2.04.51,4.57-.92,5.81-2.49,1-1.3.96-2.73.36-4,.28-.44.49-.92.6-1.44.15-.7.11-1.42-.12-2.11-.08-.25-.2-.58-.34-.84.14-.05.28-.11.42-.14,1.59-.42,3.34,0,4.92.56.92.32,1.81.7,2.7,1.09.17.07.35.18.53.23.03,0,.04.01.06.02-.25.3-.48.73-.69,1.02-.95,1.3-2.01,2.46-3.12,3.58-.43-1.24-.75-2.51-.93-3.83-.26-1.9-3.07-1.73-2.82.18.29,2.24.88,4.4,1.81,6.47-4.21,1.74-8.49,3.26-12.82,4.65.66-.3,1.22-1.04.89-1.86-1.29-3.16-3.92-5.16-6.85-6.4-2.93-1.24-6.08-2.38-9.15-3.08-3.04-.65-6.36-.58-8.91,1.31-2.15,1.57-3.66,4.2-3.41,7.15.02.26.09.48.2.67-1.09.48-2.13,1.17-2.34,2.35-.35,1.94,1.52,3.19,3.02,3.78.65.26,1.44.41,2.19.64-3.82.82-7.35,2.51-10.55,5.01-1.48,1.1.5,3.37,1.97,2.22,3.5-2.78,7.71-4.45,12.1-4.76,1.14-.1,1.72-1.15,1.23-2.25-1.1-2.44-3.65-2.81-5.83-3.59-.23-.08-.46-.16-.68-.27-.09-.05-.18-.11-.27-.17.19-.09.4-.19.44-.21.34-.16.68-.3,1.03-.43,1.35-.48,2.77-.77,4.15-1.15l4.12-1.07c1.29-.33,2.77-1,4.1-1.04.62-.02.76.42.94.99.01.03.05.21.09.38l-.48.16c-1.43.46-2.88.81-4.36,1.09-1.78.33-.98,3.23.81,2.89,1.11-.21,2.22-.46,3.31-.77.89-.25,1.98-.46,2.76-.99.25-.17.42-.39.56-.62.13,0,.25-.01.39-.05,1.52-.48,2.97-.5,4.53-.07,1.11.3,2.23.61,3.33.36-2.78.88-5.57,1.7-8.38,2.49-1.78.45-.95,3.33.85,2.88,7.55-2.12,15.05-4.51,22.31-7.52.75-.3.97-.99.85-1.63.06-.04.13-.07.19-.13,1.09-1,2.17-2.03,3.18-3.14,1-1.14,1.93-2.33,2.75-3.58.63-.98.91-2.08.16-3.15-.79-1.11-2.25-1.56-3.41-2.03ZM502.82,744.18c-.13.06-.27.12-.42.18.23-.17.47-.32.71-.46.34-.19.69-.37,1.03-.54-.39.35-.89.62-1.33.82ZM492.28,746.97c-1.34-.17-2.64-.04-3.92.31-.11-.32-.24-.63-.38-.91-.83-1.67-2.36-2.35-4.04-2.05-2.03.36-4.04,1.02-6.04,1.54-1.74.45-3.5.86-5.23,1.38-.04-2.03,1.03-3.75,2.67-4.73,2.23-1.3,4.98-1.02,7.44-.35,2.38.66,4.8,1.57,7.1,2.46,1.59.64,3.25,1.53,4.43,2.87-.7-.18-1.41-.45-2.04-.53Z"/><path class="cls-1" d="M535.03,725.27c-.65-1.74-1.37-3.45-2.16-5.13-.82-1.75-3.3-.63-2.5,1.13.69,1.52,1.34,3.05,1.92,4.61.25.65.47,1.31.7,1.97-.17.04-.33.09-.5.12-2.33.52-4.68.82-6.81,1.78-.27-.21-.61-.33-1-.29-2.26.21-4.51.48-6.73.85-.22-.11-.45-.16-.69-.12-.82.14-1.61.37-2.37.71-.62.28-.98,1-.78,1.72.18.66.84,1.3,1.53,1.15,2.64-.55,5.33-.95,8.05-1.22,0,0,0,0,0,.01.21,1,.54,1.97.93,2.94.53,1.32,1.11,2.62.81,4.03-.23,1.08,1.1,2.06,2.03,1.61,2.17-1.02,4.15-2.44,6-3.97,1.41-1.2-.47-3.52-1.87-2.33-1.07.89-2.18,1.73-3.35,2.46-.16-.71-.4-1.4-.66-2.07-.33-.84-.77-1.72-1.03-2.62,1.05-.56,2.22-.87,3.38-1.1l2.4-.47c.83-.17,1.77-.32,2.54-.67.92-.42,1.39-1.39,1.1-2.43-.25-.91-.61-1.82-.94-2.71ZM533.2,728.44s0,0,0,0c0,.02,0,.03,0,0Z"/><path class="cls-1" d="M556.79,724.33c-2.29-.25-4.68-.5-6.9-1.29-2.23-.79-4.24-2.04-5.73-4.12-.86-1.19-2.8-.18-2.39,1.2,1.1,3.68-1.82,6.98-2.65,10.37-.24.96.41,1.71,1.14,1.93-.43.2-.85.4-1.28.6-1.67.75-.41,3.47,1.28,2.71,2.93-1.32,5.77-2.8,8.66-4.2l4.32-2.13c1.44-.71,2.83-1.51,4.25-2.26,1.31-.71.69-2.66-.69-2.81ZM547.57,728.85c-1.94.94-3.86,1.91-5.79,2.85.02-.06.05-.12.06-.19.66-2.78,2.33-5.28,2.85-8.02,1.22.94,2.58,1.65,4.03,2.19,1.08.4,2.21.7,3.35.95-.08.04-.15.08-.22.12l-4.28,2.11Z"/><path class="cls-1" d="M552.06,718.51l-.1-.26-.05-.14c-.33-.9-.6-1.82-.83-2.75-.18-.76-1-1.35-1.72-1.16-.73.19-1.19.93-1,1.74.47,2.03,1.19,4.02,2.14,5.88.35.7,1.29,1.04,1.94.65.66-.41.92-1.25.53-2-.22-.43-.43-.86-.62-1.3l-.28-.66Z"/><path class="cls-1" d="M557.72,712.02c-.35-.73-1.33-.98-1.95-.64-.7.38-.82,1.24-.48,1.98,1.94,4.18,3.71,8.44,5.27,12.78.27.76.95,1.32,1.78,1.13.7-.16,1.33-1.01,1.05-1.77-1.68-4.57-3.57-9.07-5.66-13.47Z"/><path class="cls-1" d="M569.45,702.68c-2.47,3.32-5.57,6.09-9.16,8.16-.7.42-.98,1.7-.21,2.32.78.63,1.44.68,2.35.67l1.78-.02c.31.78,1.17,1.37,2.06.86,2.39-1.39,4.88-2.67,7.2-4.18.58-.38,1-.89,1.03-1.64.03-.7-.29-1.36-.57-1.99-.62-1.37-1.34-2.67-2.21-3.89-.52-.73-1.67-1.06-2.24-.28ZM570.62,708.66l-4.67,2.71c-.13-.17-.29-.31-.48-.4,1.83-1.41,3.51-3,4.99-4.77.25.43.48.86.69,1.31l.24.57.04.11s-.05.04-.06.04l-.75.43Z"/><path class="cls-1" d="M575.24,711.5c-3.16,1.84-6.34,3.7-9.86,4.72-.88.26-1.31,1.31-.82,2.17l1.92,3.35c.96,1.68,3.44.19,2.47-1.48l-1.02-1.74c3.12-1.15,6.03-2.81,8.9-4.48,1.56-.98-.04-3.52-1.59-2.54Z"/><path class="cls-1" d="M201.9,714.07c-2.69-1.53-5.32-3.17-7.87-4.92-.59-.44-1.59-.18-1.98.5-.42.74-.25,1.57.39,2.04,2.58,1.76,5.23,3.41,7.94,4.96.65.37,1.59.16,1.98-.56.37-.71.23-1.63-.45-2.02Z"/><path class="cls-1" d="M210.82,715.35c.3-.3.57-.64.82-.99,1.2,2.16,1.7,4.74,1.49,7.35-.12,1.47,2.06,1.91,2.67.6.47-1.02.64-2.03.74-3.13.08-.8.07-1.73.47-2.46.4-.73,1.21-1.18,1.81-1.69.84-.71,1.51-1.53,1.76-2.64.41-1.87-2.26-2.45-2.69-.57-.15.68-.87,1.08-1.38,1.48-.55.43-1.08.9-1.51,1.45-.56-1.49-1.34-2.88-2.31-4.09-.58-.72-1.79-.36-2.24.42-.42.73-.95,1.76-1.66,2.4-1.03-1.84-2.67-3.06-4.92-3.24-.76-.06-1.45.77-1.48,1.51-.03.86.61,1.39,1.37,1.45.79.06,1.51.48,2.04,1.05.68.76.77,2.12,1.74,2.5,1.15.44,2.46-.56,3.27-1.39Z"/><path class="cls-1" d="M226.92,726.97c-1.62-.81-2.96,1.88-1.32,2.7,1.64.82,2.94-1.88,1.32-2.7Z"/><path class="cls-1" d="M260.35,733.31c-.83-.49-1.87-1-2.88-.79-.56.12-1.08.45-1.45.9-.49.6-.45,1.39-.86,1.99-.02.02-.04.04-.06.06,0-.03,0-.06-.02-.09-.66-2.82-2.52-5.62-4.5-7.46-2-1.89-4.8-2.33-7.29-.86-1.59.95-.01,3.37,1.59,2.34,2.96-1.87,5.9,3.07,6.91,5.21.13.28.31.72.47,1.21-1.04-.24-2.04-.61-3.14-.63-.95-.02-2.11.15-2.87.87-.99.93-.79,2.48-.07,3.45,1.23,1.67,4.03,2.38,5.99,2.02,1.43-.25,2.32-1.19,2.76-2.34.05-.13.08-.27.12-.41.51-.16,1-.39,1.42-.71.57-.44,1.02-1,1.3-1.68.1-.24.22-.57.28-.86.14.05.29.1.43.17,1.48.71,2.54,2.14,3.37,3.59.48.84.9,1.74,1.31,2.63.08.17.14.38.24.53.02.02.02.04.04.06-.39.05-.84.23-1.18.29-1.55.31-3.13.53-4.72.67.49-1.22,1.08-2.39,1.82-3.51,1.05-1.61-1.19-3.28-2.26-1.68-1.26,1.88-2.24,3.9-2.89,6.06-1.78-.57-3.51-1.26-5.25-1.93l-5.43-2.16c-.68-.26-1.35-.54-2.01-.83.7.18,1.59-.03,1.87-.85,1.11-3.25.4-6.39-.96-9.3-1.37-2.92-2.96-5.91-4.85-8.37-.94-1.23-2.06-2.33-3.33-3.22-1.25-.91-2.66-1.53-4.23-1.68-2.64-.26-5.55.82-7.29,3.19-.15.21-.24.42-.29.63-1.15-.34-2.39-.48-3.34.28-1.55,1.24-.95,3.39-.2,4.8.32.61.83,1.24,1.25,1.9-1.21-.65-2.45-1.19-3.74-1.63-2.36-.88-4.86-1.42-7.49-1.57-1.85-.11-1.83,2.85.03,2.97,2.22.13,4.37.63,6.43,1.36,2.08.7,4.04,1.71,5.82,3.01.93.68,2.04.29,2.39-.87.79-2.6-.9-4.54-2.05-6.52-.12-.21-.25-.42-.34-.64-.04-.1-.06-.2-.09-.3.2.06.43.11.47.12.36.09.72.21,1.07.34,1.35.5,2.62,1.19,3.89,1.85l3.77,1.98c1.2.58,2.77,1.02,3.81,1.85.49.39.3.8.06,1.35-.01.03-.1.19-.19.34l-.47-.19c-1.39-.57-2.73-1.23-4.03-1.98-1.54-.95-2.85,1.75-1.29,2.71.98.57,1.99,1.08,3.02,1.55.84.38,1.81.93,2.75,1.02.3.03.58-.02.84-.11.1.08.2.15.33.21,1.45.65,2.54,1.63,3.42,3,.6.94,1.2,1.87,2.12,2.41-2.62-1.14-5.2-2.39-7.77-3.63-1.65-.8-2.92,1.92-1.25,2.73,3.54,1.7,7.07,3.43,10.73,4.85l5.47,2.18c1.83.71,3.65,1.44,5.53,2.03.76.25,1.39-.13,1.72-.69.07.01.14.03.23.02,2.97-.12,6.03-.37,8.88-1.14,1.11-.3,2.04-.94,2.18-2.24.14-1.36-.66-2.68-1.22-3.82-1.16-2.37-2.58-4.74-4.8-6.05ZM249.71,738.35c-.14-.04-.28-.09-.43-.15.28.03.56.08.83.14.38.08.75.19,1.13.29-.52,0-1.07-.14-1.53-.29ZM236.79,731.15c.13-.32.24-.64.32-.94.48-1.81-.24-3.3-1.72-4.16-1.78-1.04-3.77-1.79-5.58-2.78-1.59-.84-3.17-1.73-4.82-2.45,1.31-1.57,3.26-2.18,5.11-1.78,1.26.27,2.35.92,3.31,1.77.97.81,1.81,1.83,2.52,2.87,1.38,2.02,2.62,4.27,3.74,6.52.77,1.54,1.42,3.33,1.42,5.13-.41-.6-.76-1.28-1.18-1.77-.88-1.03-1.94-1.82-3.12-2.41Z"/><path class="cls-1" d="M275.2,745.24c1.14.29,2.22.85,3.23,1.45.7.41,1.39.87,2.11,1.24.74.4,1.55.89,2.37,1.13.97.28,1.97-.16,2.44-1.14.41-.86.74-1.77,1.07-2.66.65-1.74,1.23-3.5,1.75-5.29.53-1.86-2.09-2.59-2.64-.74-.47,1.6-1,3.18-1.59,4.74-.25.65-.51,1.3-.77,1.95-.15-.08-.31-.15-.46-.23-.67-.35-1.33-.72-1.98-1.08-.65-.39-1.29-.77-1.96-1.12-.76-.4-1.53-.74-2.35-1-.06-.34-.24-.66-.56-.9-1.84-1.34-3.74-2.53-5.66-3.69-.1-.22-.24-.41-.45-.53-.72-.4-1.45-.8-2.24-1.05-.65-.21-1.38.08-1.71.76-.3.61-.22,1.54.39,1.89l4.09,2.48c.94.59,1.88,1.21,2.8,1.84,0,0,0,.01,0,.02-.5.89-.89,1.84-1.23,2.83-.47,1.34-.89,2.7-2.05,3.58-.89.67-.52,2.27.48,2.53,2.33.6,4.71.95,7.1,1.03,1.84.04,1.95-2.94.12-3-1.39-.04-2.77-.19-4.13-.43.34-.63.63-1.31.87-1.99.3-.86.57-1.8.96-2.65ZM282.94,746.5s-.02.03-.01,0c0,0,0,0,.01,0Z"/><path class="cls-1" d="M297.45,746.53c.14-1.46-2-1.93-2.6-.63-1.6,3.53-5.94,3.97-8.78,5.96-.83.57-.82,1.58-.4,2.23l-1.38-.4c-1.76-.51-2.6,2.37-.82,2.89l4.62,1.33c1.54.45,3.08.9,4.64,1.26l9.34,2.32c1.44.36,2.26-1.51,1.32-2.56-3.12-3.45-6.45-7.32-5.96-12.41ZM288.88,755.02l-1.62-.47c.06-.03.12-.06.18-.1,1.68-1.18,3.65-1.88,5.45-2.83.69-.38,1.35-.79,1.95-1.27.54,2.62,1.88,4.97,3.51,7.13l-4.87-1.21c-1.55-.36-3.08-.81-4.6-1.25Z"/><path class="cls-1" d="M304.47,746.38c-.67-.35-1.49-.11-1.89.62-.98,1.83-1.74,3.8-2.25,5.82-.19.76.28,1.65,1.03,1.79.76.15,1.51-.31,1.71-1.13.11-.47.24-.93.38-1.39l.22-.68.09-.26.05-.14c.34-.89.74-1.76,1.18-2.6.36-.69.13-1.68-.53-2.02Z"/><path class="cls-1" d="M311.16,748.48c-.78-.16-1.44.41-1.67,1.19-1.29,4.44-2.76,8.81-4.44,13.12-.29.75-.15,1.62.6,2,.64.33,1.67.09,1.96-.67,1.75-4.56,3.28-9.2,4.6-13.9.22-.78-.36-1.6-1.05-1.74Z"/><path class="cls-1" d="M327.17,750.92c-2.02.46-4.07.71-6.12.76-2.05.03-4.1-.24-6.12-.67-.79-.17-1.85.63-1.69,1.6.17.97.64,1.45,1.32,2.06l1.35,1.18c-.28.79-.02,1.81.98,2.03.67.15,1.35.3,2.03.46l2.04.41c1.36.27,2.73.52,4.1.7.69.09,1.34-.03,1.85-.55.48-.5.67-1.2.87-1.86.43-1.43.73-2.89.88-4.38.08-.89-.56-1.93-1.5-1.72ZM318.82,755.22c.02-.21-.01-.42-.1-.63.72.06,1.45.09,2.17.08,1.58-.02,3.16-.17,4.73-.42-.1.48-.2.96-.34,1.44l-.19.59-.04.11s-.06,0-.08,0l-.85-.16c-1.77-.33-3.54-.63-5.3-1Z"/><path class="cls-1" d="M325.76,761.37c-3.6-.66-7.24-1.27-10.54-2.93-.83-.4-1.84.09-2.04,1.07l-.76,3.79c-.38,1.89,2.46,2.47,2.82.57l.38-1.98c3.09,1.24,6.39,1.86,9.67,2.45,1.82.33,2.27-2.64.47-2.96Z"/><path class="cls-1" d="M89.6,609.87c-.39-.63-1.42-.77-2.04-.3-.68.51-.83,1.34-.41,2.02,1.65,2.65,3.41,5.24,5.26,7.74.44.6,1.43.75,2.06.23.63-.51.82-1.39.35-2.02-1.84-2.49-3.58-5.05-5.22-7.68Z"/><path class="cls-1" d="M102.24,628.92c-.69,1.31,1.14,2.57,2.21,1.6.83-.75,1.38-1.63,1.91-2.6.39-.71.74-1.57,1.39-2.09.65-.52,1.57-.61,2.32-.85,1.05-.32,1.99-.81,2.65-1.75,1.11-1.56-1.12-3.15-2.25-1.58-.41.57-1.23.66-1.85.83-.67.18-1.34.4-1.95.74.07-1.59-.1-3.18-.52-4.69-.25-.89-1.5-1.03-2.22-.49-.67.51-1.56,1.24-2.46,1.56-.24-2.09-1.34-3.8-3.36-4.83-.67-.36-1.62.13-1.94.81-.37.78,0,1.54.7,1.87.72.35,1.25,1,1.53,1.72.37.93-.11,2.25.64,2.97.88.86,2.48.45,3.55,0,.4-.16.77-.37,1.14-.59.25,2.46-.3,5.04-1.51,7.36Z"/><path class="cls-1" d="M112.9,639.12c-1.18-1.37-3.46.58-2.26,1.97,1.2,1.39,3.45-.6,2.26-1.97Z"/><path class="cls-1" d="M143.13,665.59c-.16-2.61-.48-5.4-2-7.48-.56-.78-1.31-1.67-2.32-1.88-.55-.12-1.17-.01-1.69.26-.69.37-.96,1.1-1.57,1.49-.02.02-.05.02-.07.03,0-.03.01-.06.02-.09.24-1.41.19-2.93-.06-4.4-.24-1.48-.63-2.96-1.17-4.2-1.08-2.54-3.39-4.14-6.32-3.71-1.86.27-1.29,3.05.55,2.78,3.43-.53,4.12,5.23,4.21,7.6.01.3.02.78-.03,1.28-.88-.61-1.66-1.35-2.64-1.81-.86-.4-1.97-.71-2.95-.36-1.27.46-1.7,1.97-1.44,3.16.23,1.02.9,1.98,1.77,2.73.9.72,1.98,1.25,2.96,1.46,1.61.34,2.88-.33,3.77-1.42.52.06,1.04.04,1.56-.09.69-.17,1.32-.52,1.85-1.03.19-.18.44-.43.61-.67.11.1.22.2.31.31,1.07,1.25,1.47,3,1.65,4.66.1.97.13,1.96.15,2.95,0,.19-.02.4.01.58,0,.03,0,.04.01.07-.38-.1-.86-.12-1.2-.2-1.54-.34-3.06-.77-4.56-1.28.93-.93,1.94-1.77,3.05-2.5,1.6-1.06.22-3.5-1.4-2.45-1.89,1.23-3.59,2.7-5.04,4.43l-4.11-3.78c-1.4-1.35-2.73-2.77-4.08-4.17-.49-.51-.98-1.04-1.46-1.55.56.43,1.43.58,2-.05,2.29-2.54,2.94-5.78,2.79-8.95-.14-3.2-.5-6.52-1.28-9.52-.72-3.04-2.19-6.04-4.98-7.53-2.34-1.26-5.45-1.4-7.99.11-.22.13-.39.29-.52.47-.93-.76-2.03-1.37-3.19-1.04-1.9.53-2.21,2.76-2.05,4.33.06.69.28,1.46.42,2.23-.87-1.06-1.8-2.05-2.82-2.95-1.81-1.75-3.9-3.22-6.25-4.39-1.66-.83-2.79,1.91-1.14,2.75,1.98.99,3.77,2.29,5.36,3.79,1.65,1.45,3.07,3.13,4.21,5.01.59.98,1.77,1.06,2.55.13,1.74-2.08.93-4.51.64-6.78-.03-.24-.07-.48-.06-.72,0-.1.02-.21.03-.31.17.13.35.27.39.29.3.23.58.47.86.73,1.05.98,1.96,2.1,2.87,3.21l2.71,3.28c.85,1.02,2.08,2.08,2.69,3.28.28.56-.04.86-.48,1.27-.03.02-.17.13-.3.24-.12-.12-.24-.23-.36-.36-1.02-1.1-1.96-2.27-2.84-3.49-1.06-1.47-3.31.51-2.25,1.99.66.92,1.36,1.82,2.1,2.67.3.35.62.75.96,1.12.35.36.74.68,1.16.9.27.14.55.2.82.22.06.11.13.22.23.32,1.1,1.15,1.74,2.46,2.03,4.04.2,1.07.4,2.14,1,3-1.95-2.07-3.89-4.16-5.8-6.27-1.23-1.36-3.46.64-2.22,2.02,2.63,2.91,5.3,5.78,8.01,8.61,1.36,1.41,2.71,2.84,4.12,4.2l4.33,3.98c.59.54,1.32.44,1.84.05.06.04.12.08.2.11,1.38.54,2.79,1.06,4.22,1.5.72.22,1.43.42,2.16.59.74.15,1.48.28,2.22.37,1.16.14,2.28-.09,2.91-1.23.66-1.19.42-2.69.35-3.94ZM129.32,658.59c-.11-.1-.22-.2-.33-.31.24.14.48.3.7.46.32.22.63.46.94.69-.48-.2-.95-.52-1.31-.84ZM117.01,636.85c-1.14-1.38-2.26-2.82-3.5-4.12,1.82-.94,3.86-.74,5.42.34,2.12,1.47,3.04,4.08,3.49,6.61.44,2.43.78,4.92.94,7.41.12,1.71.04,3.59-.66,5.24-.14-.71-.21-1.47-.41-2.07-.43-1.28-1.11-2.4-1.98-3.39.24-.24.47-.49.66-.74,1.15-1.49,1.03-3.1.02-4.47-1.19-1.69-2.64-3.23-3.96-4.82Z"/><path class="cls-1" d="M155.64,681.49c.78.65,1.86.65,2.68-.06.72-.62,1.38-1.34,2.04-2.02,1.29-1.34,2.52-2.73,3.7-4.16,1.22-1.49-.87-3.23-2.11-1.75-1.07,1.28-2.18,2.53-3.33,3.73-.48.5-.98.99-1.48,1.48-.11-.13-.22-.26-.33-.39-1.49-1.86-2.79-3.83-4.55-5.36.08-.34.04-.71-.16-1.05-1.15-1.95-2.4-3.81-3.7-5.62.01-.26-.05-.52-.2-.73-.49-.67-1.03-1.29-1.67-1.82-.52-.44-1.33-.44-1.9.05-.52.45-.8,1.32-.37,1.87,1.65,2.14,3.17,4.39,4.61,6.71-.81.62-1.54,1.34-2.24,2.11-.96,1.05-1.88,2.13-3.29,2.48-1.07.26-1.38,1.88-.57,2.52.94.74,1.92,1.44,2.94,2.07,1.02.63,2.11,1.16,3.21,1.65,1.69.75,2.97-1.95,1.29-2.69-1.29-.54-2.49-1.22-3.64-1.99.56-.44,1.09-.96,1.58-1.48.62-.66,1.22-1.44,1.92-2.06.36.28.7.58,1,.91.51.53.98,1.1,1.43,1.68l1.46,1.95c.52.67,1.06,1.45,1.71,1.99ZM156.69,679.15s-.03.02-.01,0c0,0,0,0,.01,0Z"/><path class="cls-1" d="M170.54,698.69c-.79-2.13-1.52-4.5-1.77-6.83-.25-2.34,0-4.69,1.23-6.93.7-1.29-1.05-2.59-2.12-1.62-2.85,2.58-7.12,1.41-10.46,2.04-.98.2-1.37,1.13-1.25,1.89-.37-.31-.73-.62-1.1-.92-1.4-1.18-3.32,1.13-1.9,2.33,1.24,1.02,2.44,2.08,3.7,3.07l3.8,2.95c2.55,1.95,5.04,3.97,7.63,5.87,1.21.87,2.71-.54,2.24-1.84ZM158.73,689.36c-.44-.35-.87-.71-1.3-1.06.06,0,.12,0,.19-.02,2.77-.57,5.77-.17,8.47-.89-.55,2.63-.27,5.34.36,7.98-1.32-1.03-2.63-2.06-3.96-3.08l-3.77-2.93Z"/><path class="cls-1" d="M174.49,687.44c-1.62,1.28-3.1,2.79-4.37,4.44-.48.62-.4,1.63.22,2.06.63.45,1.51.31,2.02-.36.29-.38.59-.76.9-1.12l.48-.54.19-.2.1-.11c.67-.69,1.38-1.33,2.13-1.93.61-.49.78-1.49.3-2.05-.48-.59-1.32-.71-1.97-.19Z"/><path class="cls-1" d="M181.81,692.16c-.65-.46-1.48-.2-2,.42-2.94,3.56-6.02,6.99-9.27,10.27-.57.57-.78,1.43-.25,2.08.45.56,1.49.76,2.06.17,3.41-3.49,6.65-7.14,9.73-10.92.51-.63.31-1.62-.27-2.03Z"/><path class="cls-1" d="M193.7,706.59c.97-1.14,1.83-2.35,2.56-3.67.43-.78.25-2-.69-2.18-2.04-.39-4.02-.98-5.92-1.76-1.9-.79-3.75-1.73-5.4-2.98-.65-.48-1.94-.17-2.17.79-.23.96,0,1.59.39,2.43.25.54.5,1.09.76,1.63-.57.62-.74,1.65.11,2.23,2.29,1.54,4.54,3.22,6.9,4.64.59.36,1.24.51,1.92.23.64-.26,1.09-.83,1.54-1.36ZM191.53,704.83l-.08.09s-.05-.03-.07-.04l-.72-.48-4.48-3.01c.1-.19.16-.39.16-.61.65.32,1.31.63,1.98.91,1.46.61,2.97,1.11,4.5,1.5-.28.4-.57.8-.88,1.18l-.41.46Z"/><path class="cls-1" d="M190.09,709.77c-3.03-2.04-6.1-4.07-8.54-6.81-.6-.71-1.72-.66-2.28.16l-2.2,3.17c-1.1,1.59,1.26,3.26,2.36,1.64l1.14-1.68c2.37,2.33,5.16,4.19,7.91,6.05,1.53,1.03,3.13-1.51,1.61-2.53Z"/><path class="cls-1" d="M33.12,488.49c.77-.22,1.34-.96,1.15-1.72-.74-3.01-1.37-6.04-1.87-9.09-.12-.73-1.02-1.26-1.78-1.08-.82.2-1.29.9-1.16,1.69.5,3.08,1.13,6.14,1.88,9.17.18.72.98,1.27,1.77,1.04Z"/><path class="cls-1" d="M36.53,500.15c-1.14.93.06,2.8,1.43,2.34,1.06-.36,1.91-.95,2.77-1.62.63-.5,1.29-1.14,2.09-1.36.8-.22,1.69.06,2.48.14,1.09.12,2.15.04,3.13-.55,1.63-.99.18-3.32-1.47-2.33-.6.36-1.39.12-2.03.03-.7-.1-1.4-.16-2.1-.09.68-1.43,1.13-2.95,1.33-4.49.12-.91-1-1.54-1.87-1.33-.82.2-1.92.52-2.88.46.05-.16.1-.32.14-.47.16-.62.23-1.25.21-1.86-.05-1.22-.49-2.4-1.36-3.48-.48-.59-1.55-.52-2.11-.02-.65.57-.59,1.4-.1,2,.5.61.7,1.43.65,2.21-.06,1.01-1.08,2.04-.64,2.99.49,1.13,2.12,1.39,3.29,1.4.43,0,.86-.04,1.29-.09-.72,2.35-2.22,4.5-4.24,6.15Z"/><path class="cls-1" d="M42.25,513.75c-.57-1.72-3.43-.83-2.86.91.57,1.74,3.43.81,2.86-.91Z"/><path class="cls-1" d="M54.67,553.43c.99.59,2.1.83,3.13.02,1.08-.84,1.47-2.33,1.91-3.52.91-2.48,1.63-5.14,1.03-7.64-.23-.93-.58-2.03-1.44-2.62-.47-.32-1.09-.46-1.67-.42-.77.06-1.32.63-2.03.75-.03,0-.05,0-.08,0,.02-.02.04-.05.05-.07,1.59-2.43,2.35-5.72,2.33-8.43-.02-2.75-1.55-5.11-4.42-5.86-1.83-.48-2.37,2.29-.56,2.76,3.38.86,1.82,6.4.96,8.62-.11.29-.31.72-.56,1.17-.54-.92-.96-1.9-1.7-2.71-.64-.7-1.56-1.42-2.6-1.48-1.35-.08-2.34,1.14-2.55,2.34-.37,2.05,1.04,4.56,2.64,5.74,1.33.95,2.77.84,4.01.18.46.26.96.44,1.48.52.71.11,1.43.04,2.11-.22.24-.09.57-.22.82-.38.06.14.13.27.17.41.52,1.55.22,3.31-.25,4.9-.27.93-.63,1.85-.99,2.76-.07.17-.17.36-.22.54,0,.03-.01.04-.02.06-.31-.24-.74-.45-1.03-.65-1.3-.91-2.53-1.91-3.73-2.95,1.21-.48,2.46-.86,3.77-1.1,1.89-.35,1.54-3.12-.36-2.79-2.23.39-4.37,1.08-6.39,2.1-.83-1.67-1.54-3.4-2.23-5.13l-2.15-5.43-.76-2c.36.61,1.1,1.09,1.87.73,3.1-1.43,4.95-4.15,6.04-7.11.56-1.5,1.02-3.02,1.54-4.6.49-1.57.9-3.15,1.16-4.69.51-3.06.3-6.38-1.71-8.84-.84-1.04-1.98-1.88-3.25-2.44-1.24-.56-2.65-.81-4.11-.63-.25.03-.47.11-.66.23-.51-1.07-1.24-2.08-2.42-2.25-1.94-.27-3.12,1.66-3.67,3.19-.24.66-.36,1.46-.56,2.22-.34-1.32-.76-2.61-1.3-3.85-1-2.31-2.37-4.48-4.09-6.49-1.21-1.41-3.33.65-2.12,2.07,1.45,1.69,2.62,3.57,3.49,5.58.89,2,1.38,4.16,1.76,6.31.17,1.13,1.24,1.67,2.31,1.12,2.44-1.23,2.56-3.75,3.26-5.97.07-.23.14-.47.25-.69.04-.1.11-.19.16-.28.09.19.2.39.22.43.17.33.32.67.46,1.02.57,1.32,1,2.7,1.41,4.07l1.25,4.07c.39,1.27,1.12,2.72,1.23,4.05.05.62-.38.78-.94.98-.03.01-.21.06-.38.1l-.18-.47c-.52-1.41-.94-2.85-1.28-4.31-.41-1.76-3.27-.84-2.85.94.26,1.1.56,2.2.92,3.27.29.88.55,1.96,1.11,2.71.18.24.41.4.65.53,0,.12.02.25.07.39.26.75.37,1.5.42,2.25.05.74-.01,1.5-.18,2.28-.23,1.06-.46,2.12-.23,3.15l-.96-2.54c-.33-.92-.69-1.82-.99-2.75l-.85-2.79c-.53-1.76-3.37-.79-2.83.98l.86,2.82c.3.93.66,1.85,1,2.77l2.09,5.5,2.17,5.47c.73,1.82,1.47,3.64,2.35,5.4.35.72,1.06.91,1.69.76.04.06.08.12.14.18,2.15,2.06,4.46,4.09,7,5.61ZM49.74,538.09c-.06-.13-.13-.27-.18-.41.17.23.33.46.47.7.2.33.38.68.56,1.02-.35-.38-.63-.87-.84-1.31ZM45.28,508.14c2.05-.14,3.86.84,4.89,2.44,1.39,2.17,1.24,4.93.68,7.42-.53,2.4-1.38,4.88-2.2,7.23-.55,1.61-1.35,3.3-2.64,4.54.14-.71.37-1.43.42-2.06.05-.75.02-1.49-.1-2.21-.08-.57-.21-1.14-.37-1.69.32-.13.63-.27.9-.42,1.65-.91,2.25-2.47,1.87-4.13-.45-2.02-1.2-3.99-1.81-5.96-.52-1.72-1.01-3.46-1.66-5.14Z"/><path class="cls-1" d="M60.35,566.42c-.94-1.02-1.81-2.11-2.6-3.25.7-.19,1.38-.46,2.04-.75.83-.37,1.69-.84,2.57-1.15.6,1.02.96,2.18,1.24,3.33l.56,2.38c.2.83.39,1.75.77,2.51.45.9,1.44,1.33,2.47,1,.9-.29,1.79-.69,2.66-1.06,1.71-.73,3.38-1.53,5.02-2.39,1.71-.9.49-3.33-1.23-2.45-1.48.76-2.99,1.48-4.52,2.13-.64.27-1.29.53-1.94.79-.05-.17-.1-.33-.14-.49-.62-2.3-1-4.65-2.06-6.74.2-.28.31-.63.25-1.02-.24-1.57-.56-3.11-.86-4.67-.11-.66-.24-1.32-.37-1.97.1-.22.14-.46.09-.7-.17-.82-.41-1.6-.78-2.35-.3-.61-1.02-.94-1.74-.71-.65.21-1.26.9-1.1,1.59.63,2.63,1.09,5.33,1.56,8,0,0,0,0-.01,0-.99.25-1.95.63-2.9,1.07-1.29.59-2.57,1.23-4.02,1-1.1-.17-2,1.19-1.48,2.08,1.21,2.08,2.64,4.03,4.26,5.8,1.25,1.36,3.49-.63,2.24-1.98ZM66.83,567.74s-.03,0,0,0c0,0,0,0,0,0Z"/><path class="cls-1" d="M71.92,591.16c.34-4.64.9-9.76,4.92-12.92,1.15-.91.04-2.79-1.32-2.32-3.62,1.26-7.1-1.48-10.5-2.16-.96-.2-1.69.49-1.88,1.23-.22-.42-.45-.83-.65-1.26-.81-1.64-3.48-.26-2.65,1.4.68,1.45,1.49,2.84,2.27,4.24l2.34,4.2,4.7,8.41c.76,1.28,2.71.56,2.77-.82ZM64.75,577.93c-.27-.49-.55-.98-.82-1.47.06.02.12.04.19.06,2.81.53,5.41,2.07,8.17,2.47-1.53,2.2-2.32,4.81-2.78,7.49l-2.44-4.38-2.33-4.17Z"/><path class="cls-1" d="M80,582.31c-1.99.55-3.94,1.36-5.76,2.39-.68.39-1,1.35-.6,1.99.42.66,1.26.88,1.99.46.42-.24.84-.47,1.27-.68l.65-.31.25-.11.14-.06c.88-.37,1.78-.68,2.69-.94.75-.21,1.31-1.07,1.11-1.79-.21-.73-.94-1.17-1.74-.94Z"/><path class="cls-1" d="M84.9,589.51c-.43-.67-1.29-.75-2.02-.38-4.1,2.13-8.28,4.1-12.55,5.86-.75.31-1.27,1.01-1.03,1.82.2.69,1.09,1.27,1.84.95,4.5-1.89,8.92-3.99,13.23-6.28.72-.38.91-1.37.53-1.96Z"/><path class="cls-1" d="M88.3,608.06c.7,0,1.34-.35,1.96-.66,1.34-.68,2.6-1.46,3.79-2.39.7-.55,1-1.73.18-2.25-.88-.56-1.73-1.17-2.54-1.81-.82-.64-1.6-1.32-2.28-2.08-1.4-1.49-2.65-3.13-3.73-4.9-.42-.69-1.74-.9-2.32-.11-.59.8-.61,1.46-.57,2.38l.08,1.79c-.76.34-1.32,1.24-.79,2.11.71,1.19,1.42,2.38,2.13,3.57.76,1.17,1.55,2.31,2.39,3.41.42.55.96.94,1.71.94ZM85.32,599.7c.16-.13.3-.3.39-.51.46.56.92,1.11,1.42,1.64,1.08,1.15,2.32,2.17,3.61,3.1-.42.26-.84.52-1.28.75l-.56.27-.11.05s-.04-.04-.05-.06l-.49-.71c-1.05-1.46-1.99-3-2.93-4.53Z"/><path class="cls-1" d="M82.69,604.35c-.86-1.61-1.63-3.27-2.19-5.03-.28-.88-1.34-1.27-2.18-.74l-3.26,2.07c-1.63,1.03-.08,3.48,1.54,2.43l1.7-1.09c.5,1.26,1.08,2.49,1.72,3.69.94,1.74,2.1,3.34,3.19,4.97,1.04,1.52,3.5-.2,2.47-1.7-1.02-1.51-2.09-3-2.99-4.59Z"/><path class="cls-1" d="M30.62,331.89c-.84-.13-1.56.32-1.78,1.09-.71,3.03-1.3,6.1-1.76,9.19-.11.74.42,1.55,1.24,1.65.79.1,1.6-.36,1.72-1.14.46-3.06,1.04-6.11,1.75-9.12.2-.71-.39-1.55-1.16-1.67Z"/><path class="cls-1" d="M27.3,358.6c1.12.08,2.12-.13,3.18-.42.77-.21,1.63-.55,2.45-.44.82.11,1.54.71,2.24,1.1.97.53,1.97.88,3.1.71,1.89-.28,1.43-2.99-.47-2.73-.69.1-1.33-.43-1.88-.77-.61-.36-1.23-.69-1.9-.9,1.17-1.06,2.18-2.27,2.97-3.62.5-.79-.25-1.79-1.13-1.94-.83-.14-1.98-.27-2.82-.7,1.4-1.61,1.95-3.58,1.3-5.75-.22-.73-1.23-1.08-1.94-.84-.81.28-1.08,1.06-.86,1.8.22.76.1,1.59-.25,2.29-.45.9-1.74,1.47-1.78,2.5-.04,1.23,1.34,2.09,2.39,2.56.4.17.81.3,1.23.42-.6.71-1.25,1.35-2.01,1.91-1.25.93-2.7,1.64-4.26,2.1-1.41.41-1.01,2.61.43,2.71Z"/><path class="cls-1" d="M26.8,370.64c.13-1.8-2.85-2.1-2.99-.28-.13,1.83,2.85,2.08,2.99.28Z"/><path class="cls-1" d="M18.43,404.1c1.19,2.73,2.54,5.51,4.31,7.91.69.93,1.62,1.58,2.89,1.25,1.32-.35,2.25-1.56,3.11-2.48,1.79-1.92,3.47-4.08,3.88-6.62.2-.95.35-2.1-.18-2.98-.29-.48-.78-.85-1.34-1.04-.74-.25-1.46.07-2.16-.1-.03,0-.05-.02-.07-.03.03-.02.05-.03.08-.05,2.4-1.61,4.36-4.34,5.37-6.84,1.05-2.54.49-5.32-1.81-7.13-.73-.58-1.51-.29-1.93.3-.42.58-.41,1.46.33,2.02,2.8,2.11-.77,6.6-2.41,8.31-.21.22-.56.55-.96.86-.15-1.06-.16-2.13-.53-3.16-.32-.9-.89-1.92-1.83-2.38-1.22-.6-2.6.13-3.25,1.15-1.12,1.74-.79,4.6.25,6.31.84,1.4,2.19,1.86,3.59,1.74.31.42.68.78,1.12,1.06.6.38,1.28.6,2.01.63.26,0,.61.02.9-.02,0,.15,0,.3-.02.45-.21,1.63-1.09,3.13-2.15,4.41-.61.75-1.29,1.45-1.97,2.15-.13.13-.3.26-.41.41-.02.02-.03.03-.04.05-.19-.34-.52-.7-.71-1-.84-1.35-1.65-2.74-2.34-4.18,1.32.03,2.62.18,3.93.47.94.21,1.6-.36,1.78-1.03.19-.67-.04-1.46-.98-1.68-2.19-.52-4.42-.72-6.68-.58-.02-3.81,0-7.61.09-11.42.02-.73.04-1.45.05-2.18.08.72.59,1.48,1.46,1.45,3.42-.1,6.13-1.88,8.33-4.18,2.26-2.31,4.53-4.86,6.18-7.5,1.64-2.62,2.71-5.77,1.8-8.82-.64-2.55-2.63-4.89-5.47-5.68-.25-.07-.48-.08-.7-.05-.06-1.19-.35-2.4-1.38-3.02-1.69-1.01-3.52.31-4.6,1.51-.47.52-.89,1.21-1.37,1.83.58-3.87.24-7.77-1.02-11.64-.58-1.78-3.32-.7-2.74,1.08,1.38,4.25,1.46,8.77.21,13-.34,1.1.43,2.01,1.64,1.93,2.68-.18,3.97-2.44,5.44-4.21.16-.19.31-.38.49-.54.08-.07.17-.13.25-.19.01.21.04.44.04.48.03.37.04.75.04,1.12,0,1.44-.28,2.86-.41,4.28l-.4,4.24c-.12,1.32,0,2.95-.42,4.21-.19.59-.65.57-1.25.53-.04,0-.22-.03-.39-.05v-.51c.07-1.5.23-2.99.47-4.47.29-1.79-2.7-2.05-2.99-.25-.18,1.12-.32,2.24-.4,3.37-.06.92-.25,2.02,0,2.93.08.29.22.53.39.74-.04.12-.07.24-.08.39-.11,1.59-.65,2.95-1.63,4.26-.71.92-1.35,1.84-1.49,2.94.03-.95.06-1.9.15-2.84l.53-5.81c.18-1.83-2.81-2.05-2.99-.2l-.54,5.86c-.17,1.95-.16,3.92-.22,5.88-.09,3.92-.12,7.85-.1,11.76,0,.8.57,1.25,1.21,1.36.01.07.02.15.05.22ZM24.24,395.52c.07.27.12.55.16.83.06.38.09.77.13,1.16-.18-.48-.25-1.05-.28-1.53,0-.15-.01-.3-.01-.45ZM27.39,381.31c1.87-.2,3.02-1.39,3.31-3.07.35-2.03.41-4.15.61-6.2.11-1.04.21-2.08.32-3.12.1-.75.18-1.5.23-2.25.9.31,1.66.82,2.22,1.48.32.37.58.79.78,1.24.22.45.38.93.47,1.43.46,2.55-.73,5.03-2.2,7.1-1.42,2-3.1,3.96-4.83,5.8-.83.89-1.79,1.77-2.88,2.43-.45.28-.93.52-1.43.71.41-.6.91-1.16,1.23-1.73.66-1.19,1.03-2.46,1.18-3.77.34,0,.68,0,.99-.04Z"/><path class="cls-1" d="M22.78,426.18c-.48-1.31-.87-2.65-1.13-4,.7.1,1.43.12,2.15.11.91-.01,1.89-.11,2.83-.04.14,1.18.05,2.38-.14,3.54l-.39,2.4c-.13.84-.31,1.76-.25,2.61.07,1.01.82,1.79,1.9,1.89.94.09,1.92.07,2.87.08,1.86,0,3.71-.07,5.56-.21,1.92-.15,1.73-2.86-.2-2.73-1.66.11-3.33.17-5,.17-.7,0-1.4-.02-2.09-.04.02-.17.03-.34.06-.51.2-1.5.49-2.98.64-4.45.09-.85.1-1.69.04-2.54.29-.18.53-.46.63-.84.64-2.19,1.17-4.39,1.61-6.6.18-.17.31-.37.35-.61.16-.82.23-1.64.18-2.46-.04-.68-.58-1.26-1.33-1.33-.68-.06-1.51.33-1.62,1.03-.43,2.67-1.01,5.32-1.72,7.97,0,0-.01,0-.02,0-1-.16-2.03-.19-3.08-.16-1.42.03-2.84.12-4.05-.67-.92-.6-2.31.3-2.22,1.33.16,2.39.79,4.74,1.6,7.01.63,1.74,3.47.8,2.83-.93ZM28.26,429.94s0,0,0,.01c-.03,0-.03,0,0-.01Z"/><path class="cls-1" d="M33.26,443.56c1.41-.38,1.11-2.55-.33-2.65-3.91-.27-5.82-4.18-8.64-6.15-.82-.57-1.76-.21-2.23.41-.03-.48-.07-.95-.09-1.43-.12-1.83-3.11-1.61-2.99.24.29,6.41,1.18,12.77,1.89,19.15.17,1.48,2.21,1.59,2.86.35,2.14-4.12,4.6-8.59,9.54-9.9ZM23.32,448.22c-.45-3.8-.87-7.6-1.15-11.41.05.04.1.09.16.13,1.7,1.16,2.96,2.78,4.57,4.12.6.51,1.21.99,1.88,1.39-2.27,1.41-4,3.49-5.45,5.77Z"/><path class="cls-1" d="M28.72,451.25c.48-.05.95-.1,1.43-.12l.72-.03h.28s.15,0,.15,0c.96.01,1.91.08,2.85.2.77.1,1.62-.46,1.71-1.2.09-.75-.42-1.44-1.25-1.55-2.05-.28-4.17-.31-6.24-.09-.78.08-1.44.84-1.32,1.58.13.77.82,1.31,1.66,1.21Z"/><path class="cls-1" d="M36.14,457.11c-.15-.78-.87-1.21-1.69-1.15-4.59.33-9.19.47-13.79.39-.81-.02-1.57.43-1.7,1.26-.12.72.45,1.6,1.28,1.61,4.9.05,9.79-.13,14.66-.52.81-.07,1.37-.9,1.25-1.59Z"/><path class="cls-1" d="M31.9,475.5c.65.28,1.38.21,2.07.17,1.5-.09,2.97-.31,4.42-.69.86-.23,1.57-1.19,1.05-1.99-2.2-3.49-3.67-7.38-4.31-11.47-.12-.8-1.26-1.51-2.1-1.02-.85.5-1.13,1.1-1.45,1.95l-.62,1.67c-.84.01-1.7.61-1.54,1.62.43,2.73.73,5.52,1.3,8.22.14.68.47,1.25,1.17,1.55ZM35.81,472.68c-.49.08-.98.15-1.47.18l-.61.03h-.12s-.02-.06-.02-.07l-.14-.86-.84-5.33c.2-.06.39-.16.55-.31.65,2.21,1.53,4.35,2.65,6.37Z"/><path class="cls-1" d="M28.29,464.36c.08-.92-.75-1.69-1.73-1.54l-3.81.6c-1.91.3-1.42,3.15.49,2.83l1.99-.33c-.05,3.32.45,6.64.97,9.92.37,1.81,3.31,1.21,2.94-.58-.58-3.61-1.16-7.25-.85-10.9Z"/><path class="cls-1" d="M80.63,208.89c.69.4,1.61.3,2.01-.38.81-1.32,1.61-2.65,2.5-3.91.91-1.25,1.85-2.48,2.82-3.69.46-.58.24-1.59-.42-2.01-.72-.46-1.55-.32-2.05.31-.97,1.22-1.92,2.46-2.84,3.72-.9,1.28-1.7,2.62-2.52,3.95-.38.64-.21,1.6.5,2.02Z"/><path class="cls-1" d="M73.81,222.04c.99.52,1.99.72,3.07.87.79.11,1.7.14,2.42.56.71.43,1.14,1.27,1.63,1.9.68.88,1.47,1.59,2.57,1.88,1.83.48,2.47-2.19.64-2.7-.68-.19-1.04-.92-1.41-1.44-.4-.57-.84-1.11-1.37-1.57,1.53-.48,2.97-1.18,4.26-2.09.76-.54.47-1.76-.29-2.24-.71-.46-1.71-1.03-2.32-1.76,1.9-.94,3.16-2.54,3.4-4.81.08-.76-.71-1.49-1.45-1.55-.85-.07-1.39.56-1.48,1.33-.09.79-.52,1.51-1.1,2.02-.76.66-2.16.67-2.59,1.62-.51,1.12.42,2.47,1.21,3.31.29.31.61.59.95.86-2.25,1.08-4.88,1.45-7.48,1.12-1.45-.17-1.93,2.02-.65,2.68Z"/><path class="cls-1" d="M68.63,232.93c.89-1.57-1.73-3.03-2.63-1.44-.9,1.59,1.74,3.01,2.63,1.44Z"/><path class="cls-1" d="M47.82,260.19c-.02.07-.04.14-.04.22-.03,1.47-.04,2.97.04,4.46.13,1.51.36,3.01.71,4.46.27,1.13.89,2.1,2.18,2.29,1.35.2,2.67-.56,3.81-1.07,1.2-.53,2.35-1.15,3.46-1.87,1.11-.72,2.09-1.58,2.82-2.64.54-.8,1.12-1.8.98-2.82-.08-.56-.39-1.09-.83-1.49-.58-.52-1.37-.51-1.95-.95-.02-.02-.04-.04-.06-.06.03,0,.06,0,.09-.01,2.82-.54,5.67-2.3,7.56-4.2.48-.48.88-1.02,1.18-1.59.33-.56.57-1.15.7-1.77.26-1.23.09-2.55-.61-3.84-.89-1.65-3.32-.15-2.44,1.47,1.6,2.98-3.35,5.74-5.52,6.67-.28.12-.72.28-1.21.42.27-1.04.67-2.03.72-3.13.04-.96-.09-2.13-.77-2.92-.89-1.03-2.44-.9-3.43-.22-1.7,1.16-2.49,3.95-2.19,5.93.24,1.62,1.3,2.58,2.63,3.02.12.51.32.99.62,1.42.4.59.95,1.06,1.61,1.37.23.11.56.26.84.33-.06.14-.12.27-.19.4-.8,1.43-2.32,2.42-3.82,3.16-.9.43-1.75.83-2.66,1.2-.17.07-.37.13-.53.22-.02.01-.04.02-.06.03-.04-.39-.21-.85-.27-1.21-.27-1.58-.38-3.15-.41-4.72,1.2.54,2.33,1.19,3.41,1.97,1.55,1.12,3.38-1.02,1.83-2.16-1.81-1.34-3.78-2.41-5.92-3.16,1.44-3.53,2.93-7.04,4.47-10.52.31-.63.63-1.25.95-1.87-.2.67-.04,1.5.74,1.81,3.18,1.25,6.47.74,9.42-.49,2.96-1.24,6.02-2.7,8.55-4.49,1.26-.89,2.42-1.96,3.34-3.19.97-1.2,1.67-2.58,1.9-4.14.39-2.62-.54-5.56-2.83-7.42-.2-.16-.41-.26-.62-.32.4-1.13.6-2.36-.11-3.34-1.16-1.6-3.35-1.1-4.8-.42-.63.29-1.28.76-1.97,1.15.71-1.17,1.32-2.39,1.82-3.65.93-2.35,1.48-4.88,1.83-7.45.22-1.83-2.76-1.95-2.99-.12-.15,1.08-.32,2.19-.57,3.27-.25,1.08-.58,2.13-.99,3.15-.81,2.04-1.92,3.95-3.3,5.66-.72.89-.4,2.02.75,2.42,2.56.91,4.59-.68,6.63-1.73.21-.11.43-.23.66-.31.1-.04.2-.05.31-.08-.07.2-.13.42-.15.46-.11.36-.25.71-.39,1.05-.57,1.32-1.32,2.55-2.05,3.78-.72,1.22-1.46,2.43-2.17,3.67-.62,1.17-1.13,2.72-2,3.73-.4.47-.81.27-1.35,0-.03-.02-.19-.11-.34-.2l.21-.46c.63-1.36,1.35-2.68,2.14-3.95,1.02-1.5-1.62-2.92-2.65-1.41-.6.96-1.16,1.94-1.66,2.96-.41.83-1,1.77-1.13,2.71-.04.3,0,.58.08.84-.08.09-.16.2-.22.32-.71,1.43-1.73,2.47-3.13,3.29-.93.55-1.87,1.09-2.48,1.93,1.28-2.53,2.59-5.04,3.93-7.54.87-1.62-1.79-3.01-2.67-1.37-1.85,3.46-3.67,6.94-5.41,10.46-1.59,3.59-3.12,7.21-4.6,10.84-.3.74.04,1.38.59,1.74ZM56.25,255.18c.05-.14.1-.28.16-.42-.04.28-.1.56-.17.83-.1.38-.21.75-.33,1.12.02-.52.17-1.07.33-1.53ZM61.5,245.63c1.06-.84,1.89-1.86,2.53-3.02.31.14.63.27.92.36,1.79.56,3.3-.1,4.21-1.53,1.13-1.73,1.91-3.7,3.01-5.45.92-1.54,1.9-3.07,2.7-4.68,1.51,1.38,2.02,3.35,1.53,5.17-.32,1.24-1.06,2.29-1.92,3.22-.85.94-1.9,1.73-2.97,2.4-2.07,1.29-4.36,2.43-6.65,3.45-1.58.7-3.38,1.27-5.19,1.19.63-.38,1.32-.7,1.82-1.1Z"/><path class="cls-1" d="M43,282.38c.1-1.39.33-2.75.64-4.1.62.37,1.27.69,1.94.96.84.34,1.77.65,2.6,1.08-.35,1.12-.98,2.16-1.63,3.15l-1.28,2.07c-.44.72-.96,1.51-1.23,2.31-.32.96.07,1.97,1.03,2.49.84.45,1.74.82,2.61,1.19,1.71.73,3.44,1.39,5.2,1.98,1.83.61,2.68-1.97.86-2.6-1.58-.55-3.13-1.14-4.67-1.8-.64-.27-1.28-.56-1.91-.86.08-.15.16-.3.25-.45.77-1.29,1.55-2.58,2.31-3.86.44-.73.82-1.49,1.13-2.29.35-.05.68-.21.93-.52,1.42-1.78,2.76-3.6,4-5.46.23-.08.43-.22.56-.42.46-.69.84-1.42,1.11-2.2.22-.65-.05-1.4-.72-1.75-.6-.32-1.52-.29-1.88.31-1.41,2.3-2.96,4.52-4.63,6.68,0,0-.01,0-.02,0-.86-.54-1.8-.97-2.77-1.36-1.32-.53-2.66-1.01-3.48-2.2-.62-.91-2.25-.63-2.56.36-.7,2.3-1.26,4.63-1.37,7.04-.08,1.86,2.89,2.09,2.96.25ZM46.61,288s0,0,0,.01c-.02-.01-.03-.02,0-.01Z"/><path class="cls-1" d="M33.3,307.91c3.54-2.97,7.52-6.14,12.57-5.42.73.1,1.21-.38,1.39-.96.19-.58.03-1.26-.6-1.59-3.41-1.74-3.69-6.11-5.54-9.04-.54-.85-1.54-.89-2.21-.5l.46-1.36c.59-1.74-2.25-2.71-2.85-.95l-3.08,9.12-2.64,9.26c-.41,1.43,1.43,2.33,2.5,1.44ZM38.37,291.97c.03.06.05.12.09.18,1.53,2.39,2.11,5.3,3.7,7.56-2.65.41-5.03,1.65-7.23,3.19l1.37-4.81,2.06-6.12Z"/><path class="cls-1" d="M45.77,309.53c.37-.66.16-1.49-.56-1.92-1.79-1.06-3.72-1.91-5.72-2.52-.75-.23-1.65.21-1.82.95-.17.76.26,1.53,1.07,1.76.46.14.92.28,1.37.44l.67.25.26.11.13.06c.88.38,1.73.82,2.55,1.3.67.39,1.67.21,2.04-.44Z"/><path class="cls-1" d="M27.86,311.86c4.46,1.94,9.01,3.68,13.64,5.21.77.25,1.63-.29,1.82-.96.21-.77-.31-1.45-1.08-1.71-4.36-1.48-8.66-3.15-12.87-5.02-.74-.33-1.61-.22-2.05.5-.38.62-.2,1.66.54,1.98Z"/><path class="cls-1" d="M34.07,332.35c1.41.5,2.85.87,4.34,1.09.88.13,1.96-.47,1.8-1.42-.7-4.08-.57-8.24.4-12.27.19-.79-.59-1.89-1.55-1.76-.97.13-1.46.57-2.08,1.24l-1.21,1.3c-.78-.31-1.8-.1-2.04.9-.64,2.69-1.43,5.38-1.93,8.09-.13.68-.04,1.34.45,1.88.47.51,1.17.73,1.82.96ZM35.07,328.73l1.26-5.25c.21.03.42,0,.63-.07-.24,2.3-.24,4.62,0,6.91-.48-.12-.95-.24-1.42-.4l-.58-.22-.11-.04s0-.06.01-.08l.2-.84Z"/><path class="cls-1" d="M27.82,319.49l1.96.47c-1.32,3.05-2.12,6.3-2.89,9.53-.43,1.8,2.52,2.39,2.94.61.84-3.55,1.69-7.14,3.38-10.4.42-.81-.05-1.85-1.01-2.09l-3.75-.93c-1.87-.47-2.51,2.36-.63,2.81Z"/><path class="cls-1" d="M183.8,105.79c2.55-1.75,5.18-3.4,7.87-4.93.64-.37.82-1.4.38-2.04-.48-.7-1.3-.89-1.99-.49-2.71,1.55-5.35,3.21-7.93,4.97-.61.42-.84,1.36-.35,2.02.48.64,1.37.92,2.02.47Z"/><path class="cls-1" d="M179.37,114.5c-2.48.14-5.03-.53-7.3-1.85-.64-.37-1.3-.12-1.68.37-.37.51-.46,1.24,0,1.79.71.86,1.55,1.44,2.49,2,.68.4,1.53.8,2.02,1.47.49.67.54,1.59.75,2.37.29,1.07.74,2.04,1.63,2.73,1.48,1.14,3.19-.98,1.67-2.19-.55-.43-.6-1.25-.74-1.88-.15-.68-.34-1.36-.66-1.98,1.59.14,3.19.05,4.71-.3.9-.2,1.1-1.45.6-2.19-.48-.7-1.17-1.61-1.45-2.53.81-.05,1.58-.22,2.27-.54,1.1-.52,2.03-1.38,2.74-2.56.38-.65-.06-1.63-.72-1.98-.77-.4-1.52-.06-1.91.6-.39.69-1.06,1.2-1.8,1.44-.95.32-2.24-.21-3,.5-.9.84-.56,2.45-.16,3.54.15.4.34.79.54,1.17Z"/><path class="cls-1" d="M161.38,122.82c1.44-1.1-.41-3.46-1.87-2.35-1.43,1.15.45,3.48,1.87,2.35Z"/><path class="cls-1" d="M129.73,151.41c1.15.7,2.66.53,3.95.54,2.65,0,5.41-.25,7.56-1.68.8-.53,1.72-1.24,1.97-2.25.14-.55.06-1.17-.19-1.71-.34-.71-1.06-1.01-1.42-1.63-.01-.02-.02-.05-.03-.07.03,0,.06.02.09.02,2.76.55,6.16.15,8.67-.84,2.56-.99,4.24-3.26,3.93-6.21-.2-1.88-2.98-1.41-2.78.45.39,3.47-5.35,3.96-7.72,3.94-.31,0-.79-.03-1.29-.11.67-.83,1.44-1.57,1.93-2.54.43-.85.78-1.96.47-2.95-.41-1.29-1.89-1.79-3.09-1.57-2.03.39-3.93,2.55-4.41,4.52-.4,1.6.21,2.9,1.26,3.83-.08.52-.08,1.05.02,1.56.14.7.46,1.35.95,1.9.17.19.41.46.64.64-.11.1-.21.21-.33.3-1.28,1.02-3.04,1.35-4.71,1.46-.97.07-1.96.05-2.95.03-.19,0-.4-.04-.58-.02-.03,0-.04,0-.07,0,.12-.37.16-.85.25-1.19.4-1.53.89-3.04,1.46-4.52.89.97,1.68,2.01,2.37,3.16.99,1.65,3.48.36,2.5-1.3-1.15-1.95-2.55-3.71-4.21-5.24,2.63-2.76,5.47-5.3,8.3-7.85l1.6-1.41c-.45.55-.63,1.41-.02,2.01,2.44,2.39,5.63,3.17,8.79,3.14,3.18-.02,6.62-.11,9.66-.75,1.51-.31,3.02-.83,4.35-1.6.67-.39,1.28-.85,1.84-1.37.57-.51,1.07-1.09,1.48-1.76,1.38-2.26,1.68-5.33.29-7.93-.12-.23-.27-.4-.45-.54.81-.88,1.48-1.94,1.2-3.11-.45-1.93-2.66-2.32-4.26-2.26-.69.02-1.47.2-2.25.29,3.16-2.3,5.69-5.31,7.71-8.77.91-1.61-1.78-2.88-2.7-1.26-.54.97-1.16,1.87-1.83,2.75-.65.89-1.37,1.73-2.14,2.51-1.54,1.56-3.31,2.88-5.25,3.91-1.01.54-1.15,1.7-.26,2.52,2.01,1.83,4.49,1.17,6.78.99.24-.02.49-.04.73-.02.11,0,.21.03.31.05-.14.16-.28.33-.31.37-.24.29-.5.55-.77.81-1.04.99-2.21,1.83-3.37,2.68-1.16.82-2.26,1.71-3.37,2.59-1.04.83-2.13,2.04-3.33,2.62-.56.27-.86-.08-1.25-.53-.02-.03-.13-.18-.23-.32l.38-.34c1.12-1,2.31-1.91,3.54-2.76,1.49-1.02-.39-3.37-1.88-2.33-.93.64-1.84,1.32-2.71,2.04-.71.59-1.63,1.22-2.12,2.03-.16.26-.23.53-.26.8-.11.05-.23.12-.34.21-1.21,1.03-2.59,1.56-4.19,1.78-1.07.16-2.15.32-3.02.9l2.03-1.8c1.48-1.26,3.03-2.45,4.55-3.66,1.44-1.13-.46-3.45-1.92-2.3-1.54,1.22-3.09,2.42-4.59,3.69l-4.41,3.9c-2.92,2.62-5.84,5.24-8.54,8.09-.56.57-.49,1.3-.12,1.84-.04.06-.09.12-.12.19-1.19,2.72-2.3,5.57-2.85,8.46-.2,1.14,0,2.29,1.1,2.96ZM141.61,138.15c-.15.24-.32.47-.49.68-.24.3-.5.59-.76.88.23-.46.59-.9.93-1.25.1-.1.21-.21.32-.32ZM153.36,129.94c.23.25.47.49.71.69,1.43,1.21,3.09,1.22,4.5.26,1.71-1.15,3.28-2.57,4.9-3.86,1.43-1.09,2.93-2.1,4.3-3.27.85,1.85.55,3.87-.61,5.36-1.57,2.03-4.15,2.94-6.67,3.29-2.43.36-5,.5-7.52.52-1.74,0-3.6-.13-5.21-.89.71-.12,1.47-.15,2.08-.33,1.3-.37,2.48-.97,3.53-1.77Z"/><path class="cls-1" d="M118.5,158.35c.64-1.23,1.37-2.4,2.17-3.53.42.58.91,1.13,1.41,1.64.64.64,1.38,1.28,1.98,2.01-.76.91-1.73,1.63-2.72,2.29l-2.06,1.34c-.7.48-1.55.94-2.09,1.6-.66.76-.7,1.86-.02,2.71.59.75,1.28,1.44,1.93,2.13,1.28,1.35,2.62,2.64,4,3.88,1.44,1.29,3.22-.77,1.79-2.08-1.23-1.12-2.43-2.29-3.58-3.5-.48-.5-.95-1.02-1.41-1.54.14-.1.27-.22.41-.31,1.96-1.37,4.05-2.52,5.66-4.22.34.09.7.07,1.05-.12,1.99-1.09,3.91-2.26,5.78-3.5.24,0,.48-.04.67-.17.69-.46,1.31-.99,1.87-1.61.48-.49.53-1.28.06-1.86-.42-.53-1.29-.87-1.88-.48-2.21,1.55-4.47,3.02-6.84,4.37,0,0-.01,0-.02-.01-.58-.84-1.27-1.6-2.02-2.34-1-1-2.05-1.97-2.34-3.4-.22-1.09-1.82-1.46-2.48-.67-1.55,1.84-2.9,3.83-4.01,5.95-.85,1.63,1.8,3.04,2.65,1.42ZM119.49,164.84s0,0,0,.01c-.02-.02-.02-.03,0-.01Z"/><path class="cls-1" d="M99.44,177.9c2.2-.67,4.49-1.37,6.83-1.53,2.37-.13,4.71.23,6.9,1.57,1.26.76,2.66-.92,1.75-2.02-2.45-2.96-1.02-7.11-1.58-10.55-.16-1-1.07-1.43-1.83-1.33l.95-1.08c1.21-1.38-1.02-3.39-2.24-2l-6.34,7.24-3.17,3.62c-1.03,1.23-2,2.51-3,3.76-.92,1.16.41,2.73,1.74,2.32ZM106.17,170.14l4.25-4.86c0,.07,0,.13.01.2.47,2.81-.1,5.75.47,8.47-1.49-.39-3.03-.52-4.58-.45-1.15.05-2.33.21-3.47.43.06-.07.11-.14.16-.2l3.14-3.59Z"/><path class="cls-1" d="M106.37,181.71c.66.7,1.27,1.44,1.84,2.21.46.63,1.45.85,2.03.4.6-.47.73-1.32.23-2-1.23-1.69-2.67-3.24-4.26-4.58-.6-.51-1.59-.45-2.03.16-.45.63-.35,1.52.3,2.05.37.31.73.62,1.08.95l.52.5.19.19.11.12Z"/><path class="cls-1" d="M103.41,189.62c.61.54,1.61.38,2.04-.17.49-.63.27-1.47-.33-2.01-3.42-3.09-6.71-6.33-9.84-9.72-.55-.59-1.39-.84-2.07-.34-.58.42-.83,1.45-.27,2.05,3.33,3.56,6.83,6.96,10.47,10.2Z"/><path class="cls-1" d="M98.26,196.94c.43-.94.9-1.85,1.42-2.74.55-.87,1.16-1.7,1.81-2.5.51-.63.26-1.93-.69-2.21-.95-.28-1.59-.07-2.45.28l-1.67.68c-.59-.59-1.62-.81-2.25,0-1.62,2.23-3.38,4.41-4.89,6.73-.38.58-.56,1.22-.31,1.92.23.65.79,1.13,1.29,1.6,1.1,1.02,2.27,1.93,3.55,2.72.76.46,1.98.34,2.19-.6.46-2.03,1.13-3.99,1.98-5.87ZM95.63,195.49c-.66,1.44-1.22,2.93-1.67,4.45-.39-.3-.78-.6-1.14-.93l-.45-.43-.08-.09s.03-.05.04-.07l.51-.7,3.17-4.37c.18.11.38.17.6.18-.35.64-.68,1.28-.98,1.94Z"/><path class="cls-1" d="M87.51,196.94c1.07-1.48,2.15-2.96,3.3-4.37.58-.71,1.18-1.39,1.81-2.05.31-.33.64-.65.97-.96.35-.3.71-.59,1.07-.87.74-.56.74-1.68-.05-2.29l-3.07-2.34c-1.53-1.17-3.32,1.11-1.77,2.27l1.62,1.22c-1,.92-1.9,1.92-2.76,2.97-1.25,1.52-2.42,3.11-3.58,4.71-1.08,1.5,1.38,3.2,2.46,1.72Z"/><path class="cls-1" d="M317.16,51.15c3.02-.7,6.1-1.08,9.17-1.44.73-.08,1.31-.95,1.16-1.72-.16-.83-.84-1.33-1.63-1.25-3.1.37-6.22.75-9.26,1.46-.73.16-1.3.95-1.11,1.75.18.78.89,1.37,1.67,1.2Z"/><path class="cls-1" d="M303.68,52.79c-.88-1.18-2.8-.03-2.39,1.35.31,1.08.86,1.94,1.5,2.83.47.65,1.08,1.33,1.26,2.15.18.81-.13,1.69-.25,2.48-.16,1.09-.13,2.16.41,3.15.92,1.67,3.3.29,2.39-1.4-.33-.61-.06-1.4.06-2.03.13-.69.22-1.39.18-2.08,1.4.75,2.9,1.29,4.45,1.61.91.18,1.59-.88,1.42-1.76-.16-.83-.44-1.95-.33-2.89,1.99.73,4.02.52,5.83-.87.61-.47.58-1.55.12-2.12-.54-.66-1.37-.62-1.98-.15-.63.48-1.45.67-2.22.6-1-.09-1.98-1.1-2.96-.76-1.16.41-1.49,2.01-1.56,3.16-.03.42,0,.85.03,1.28-2.33-.88-4.41-2.51-5.96-4.56Z"/><path class="cls-1" d="M289.84,57.92c1.74-.49.98-3.39-.78-2.9-1.76.5-.96,3.39.78,2.9Z"/><path class="cls-1" d="M252.89,73.72c1.21.5,2.47.94,3.74,1.21,1.28.3,2.58.41,3.85.19.95-.16,2.07-.44,2.71-1.25.35-.44.52-1.04.5-1.63-.03-.78-.57-1.34-.66-2.06,0-.03,0-.05,0-.08.02.02.05.04.07.05,1.17.83,2.56,1.45,4,1.87,1.43.41,2.91.63,4.27.71,2.75.13,5.2-1.26,6.08-4.08.57-1.8-2.18-2.48-2.74-.71-1.01,3.34-6.51,1.41-8.65.55-.28-.12-.71-.33-1.14-.59.94-.52,1.92-.93,2.76-1.65.73-.6,1.5-1.47,1.6-2.5.14-1.34-1.03-2.39-2.22-2.67-2.04-.51-4.57.92-5.81,2.49-1,1.3-.96,2.73-.36,4-.28.44-.49.92-.6,1.44-.15.7-.11,1.42.12,2.11.08.25.2.58.34.84-.14.05-.28.11-.42.14-1.59.42-3.34,0-4.92-.56-.92-.32-1.81-.7-2.7-1.09-.17-.07-.35-.19-.53-.23-.03,0-.04-.01-.06-.02.25-.3.48-.73.69-1.02.95-1.3,2.01-2.46,3.12-3.58.43,1.24.75,2.51.93,3.83.26,1.9,3.07,1.73,2.82-.18-.29-2.24-.88-4.4-1.8-6.47,4.2-1.74,8.49-3.26,12.82-4.65-.66.31-1.22,1.04-.89,1.86,1.29,3.16,3.92,5.16,6.85,6.4,2.93,1.24,6.08,2.38,9.15,3.08,3.04.65,6.36.58,8.91-1.31,2.15-1.57,3.66-4.2,3.41-7.15-.02-.26-.09-.48-.2-.67,1.09-.48,2.13-1.17,2.34-2.35.35-1.94-1.52-3.19-3.01-3.78-.65-.26-1.44-.41-2.19-.64,3.82-.82,7.35-2.51,10.55-5.01,1.48-1.1-.5-3.37-1.97-2.22-3.5,2.78-7.71,4.45-12.1,4.76-1.14.1-1.72,1.15-1.23,2.25.56,1.24,1.46,1.91,2.51,2.41,1.05.5,2.23.79,3.32,1.18.23.08.46.16.68.27.09.05.18.11.27.17-.19.09-.39.19-.44.21-.34.16-.68.3-1.03.43-1.35.48-2.77.77-4.15,1.15l-4.12,1.07c-1.29.33-2.77,1-4.1,1.04-.62.02-.76-.42-.94-.99-.01-.03-.05-.21-.09-.38l.48-.16c1.43-.46,2.88-.81,4.36-1.09,1.78-.33.98-3.23-.81-2.89-1.11.21-2.22.46-3.31.77-.89.25-1.98.46-2.76.99-.25.17-.42.39-.56.62-.12,0-.25.01-.39.05-1.52.48-2.97.5-4.53.07-1.11-.3-2.23-.61-3.33-.36,2.78-.88,5.57-1.7,8.37-2.49,1.78-.45.95-3.33-.85-2.88-7.55,2.12-15.05,4.51-22.31,7.52-.75.3-.97.99-.85,1.63-.06.04-.13.07-.19.13-1.09,1-2.17,2.03-3.18,3.14-1,1.14-1.94,2.33-2.75,3.58-.63.98-.91,2.08-.16,3.15.79,1.11,2.25,1.56,3.41,2.03ZM265.18,64.3c.13-.06.27-.12.42-.18-.23.17-.47.32-.71.46-.34.19-.69.37-1.03.54.39-.35.89-.62,1.33-.82ZM275.72,61.52c1.34.17,2.64.04,3.92-.31.11.32.24.63.38.91.83,1.67,2.36,2.35,4.04,2.05,2.03-.36,4.04-1.02,6.04-1.54,1.74-.45,3.5-.86,5.23-1.38.04,2.03-1.03,3.75-2.67,4.73-2.23,1.3-4.98,1.02-7.44.35-1.19-.33-2.39-.72-3.58-1.15-1.19-.43-2.36-.84-3.52-1.31-1.59-.64-3.25-1.53-4.43-2.87.7.18,1.41.45,2.04.53Z"/><path class="cls-1" d="M232.97,83.22c.65,1.74,1.37,3.45,2.16,5.13.82,1.75,3.3.63,2.5-1.13-.69-1.52-1.34-3.05-1.92-4.61-.24-.65-.47-1.31-.7-1.97.17-.04.33-.09.5-.12,2.33-.52,4.68-.82,6.81-1.78.27.21.61.33,1,.29,2.26-.21,4.51-.48,6.73-.85.22.11.45.16.69.12.82-.14,1.61-.37,2.37-.71.62-.28.98-1,.78-1.72-.18-.66-.84-1.3-1.53-1.15-2.64.55-5.33.95-8.05,1.22,0,0,0,0,0-.02-.21-1-.54-1.97-.93-2.94-.53-1.32-1.11-2.62-.81-4.03.23-1.08-1.1-2.06-2.03-1.61-2.17,1.02-4.15,2.44-6,3.97-1.41,1.2.47,3.52,1.87,2.33,1.07-.89,2.18-1.73,3.35-2.46.16.71.4,1.4.66,2.07.33.84.77,1.72,1.03,2.62-1.05.56-2.22.87-3.37,1.1l-2.4.47c-.83.17-1.77.32-2.54.67-.92.42-1.39,1.39-1.1,2.43.25.91.61,1.82.94,2.71ZM234.8,80.04s0,0,0,0c0-.02,0-.03,0,0Z"/><path class="cls-1" d="M211.21,84.15c2.29.25,4.68.5,6.9,1.29,2.23.79,4.24,2.04,5.74,4.12.86,1.19,2.8.18,2.39-1.2-1.1-3.68,1.82-6.98,2.65-10.37.24-.96-.41-1.71-1.14-1.93.43-.2.85-.4,1.28-.6,1.67-.75.42-3.47-1.28-2.71-2.92,1.32-5.77,2.8-8.66,4.2l-4.32,2.13c-1.44.71-2.83,1.51-4.25,2.26-1.31.71-.69,2.66.69,2.81ZM220.43,79.63c1.94-.94,3.86-1.91,5.79-2.85-.02.06-.05.12-.07.19-.66,2.78-2.33,5.28-2.85,8.02-1.22-.94-2.58-1.65-4.03-2.19-1.08-.4-2.21-.7-3.35-.95.08-.04.15-.08.22-.12l4.28-2.11Z"/><path class="cls-1" d="M215.57,86.01c-.66.41-.92,1.25-.53,2,.22.43.43.86.62,1.3l.28.66.1.26.05.14c.33.9.6,1.82.83,2.75.18.76,1,1.35,1.72,1.16.73-.19,1.19-.93,1-1.74-.47-2.03-1.19-4.02-2.14-5.88-.35-.7-1.29-1.04-1.94-.65Z"/><path class="cls-1" d="M210.28,96.46c.35.73,1.33.98,1.95.64.7-.38.82-1.24.48-1.98-1.94-4.18-3.71-8.44-5.27-12.78-.27-.76-.95-1.32-1.78-1.13-.7.16-1.33,1.01-1.05,1.77,1.68,4.57,3.57,9.07,5.66,13.47Z"/><path class="cls-1" d="M203.8,94.67c-.31-.78-1.17-1.37-2.06-.86-2.39,1.39-4.88,2.67-7.2,4.18-.58.38-1,.89-1.03,1.64-.03.7.29,1.36.57,1.99.62,1.37,1.34,2.67,2.21,3.89.52.73,1.67,1.06,2.24.28,2.47-3.32,5.57-6.09,9.16-8.16.7-.42.98-1.7.21-2.32-.78-.63-1.44-.68-2.34-.67l-1.78.02ZM197.54,102.28c-.25-.43-.48-.86-.69-1.31l-.24-.57-.04-.11s.05-.04.06-.04l.75-.43,4.67-2.71c.13.17.29.31.48.4-1.83,1.41-3.51,3-4.99,4.77Z"/><path class="cls-1" d="M192.76,96.98c3.16-1.84,6.34-3.7,9.86-4.72.88-.26,1.31-1.31.82-2.17l-1.92-3.35c-.96-1.68-3.44-.19-2.47,1.48l1.02,1.74c-3.12,1.15-6.03,2.81-8.9,4.48-1.56.98.04,3.52,1.59,2.54Z"/><path class="cls-1" d="M427.63,740.47l-.75-5.95c4.5-.56,9.01-1.23,13.42-1.99,68-11.5,129.95-43.6,179.17-92.82,62.89-62.89,97.53-146.52,97.53-235.46s-34.64-172.57-97.53-235.47c-49.21-49.22-111.17-81.31-179.16-92.81-4.42-.76-8.94-1.43-13.42-1.99l.75-5.95c4.58.57,9.18,1.26,13.69,2.03,69.22,11.71,132.29,44.38,182.39,94.49,64.03,64.03,99.29,149.16,99.29,239.71s-35.26,175.67-99.29,239.7c-50.1,50.11-113.17,82.78-182.4,94.5-4.49.77-9.09,1.45-13.68,2.03Z"/><path class="cls-1" d="M340.37,740.47c-4.58-.58-9.19-1.26-13.68-2.03-69.22-11.71-132.29-44.39-182.38-94.5-64.03-64.02-99.3-149.15-99.3-239.7s35.26-175.69,99.3-239.71c50.1-50.1,113.17-82.77,182.39-94.49,4.5-.77,9.1-1.45,13.68-2.03l.75,5.95c-4.49.56-9,1.23-13.42,1.99-67.99,11.5-129.94,43.6-179.16,92.81-62.9,62.89-97.54,146.52-97.54,235.47s34.64,172.57,97.54,235.46c49.21,49.22,111.16,81.32,179.15,92.82,4.41.76,8.93,1.43,13.42,1.99l-.75,5.95Z"/><path class="cls-1" d="M410.73,54.19V16.53c0-7.83-6-11.66-6-10v46.54h-18.72v-20.24c.94-4.59,9.83-5.59,9.83-5.59v-3.06h-23.66v3.06s8.9,1,9.83,5.59v20.24h-18.72V6.53c0-1.66-6,2.17-6,10v37.66c0,4.34-1.84,6.73-1.84,6.73,0,0,2.39-1.85,6.73-1.85h43.68c4.34,0,6.73,1.85,6.73,1.85,0,0-1.85-2.39-1.85-6.73Z"/><path class="cls-1" d="M405.84,749.41h-43.68c-4.34,0-6.73-1.84-6.73-1.84,0,0,1.84,2.39,1.84,6.73v37.66c0,7.83,6,11.66,6,10v-46.54h18.72v20.24c-.94,4.59-9.83,5.59-9.83,5.59v3.06h23.66v-3.06s-8.89-1-9.83-5.59v-20.24h18.72v46.54c0,1.66,6-2.17,6-10v-37.66c0-4.34,1.85-6.73,1.85-6.73,0,0-2.39,1.85-6.73,1.84Z"/></g></svg>