<?xml version="1.0" encoding="UTF-8"?><svg id="Layer_1" xmlns="http://www.w3.org/2000/svg" viewBox="0 0 828.7 828.7"><defs><style>.cls-1{fill:#fff;}</style></defs><g id="BigCircle_6"><path class="cls-1" d="M828.7,414.35c-18.58-6.42-29.12-12.64-31.07-23.29-2.29-38.38-10.22-75.89-23.72-111.79-15.66-41.67-38.32-80.05-67.36-114.07l-4.56,3.89c58.26,68.27,90.35,155.37,90.35,245.25s-32.09,176.99-90.35,245.25l4.56,3.89c29.03-34.02,51.69-72.4,67.36-114.07,13.49-35.9,21.43-73.41,23.72-111.79,1.95-10.64,12.49-16.86,31.07-23.29Z"/><path class="cls-1" d="M122.14,165.19c-29.04,34.02-51.7,72.4-67.37,114.07-13.5,35.93-21.44,73.46-23.72,111.87-1.98,10.6-12.51,16.8-31.05,23.21,18.54,6.41,29.07,12.62,31.05,23.21,2.28,38.41,10.22,75.95,23.72,111.87,15.66,41.68,38.33,80.06,67.37,114.07l4.56-3.89c-58.27-68.26-90.36-155.37-90.36-245.26s32.09-177,90.36-245.26l-4.56-3.89Z"/><path class="cls-1" d="M437.61,31.06c-10.62-1.96-16.84-12.5-23.25-31.06-6.42,18.56-12.63,29.1-23.25,31.06-38.39,2.29-75.91,10.22-111.83,23.72-41.67,15.66-80.05,38.33-114.07,67.36l3.89,4.56c68.27-58.26,155.37-90.35,245.25-90.35s177,32.09,245.26,90.36l3.89-4.56c-34.02-29.04-72.4-51.7-114.07-67.37-35.91-13.5-73.43-21.43-111.83-23.72Z"/><path class="cls-1" d="M414.35,792.35c-89.89,0-176.99-32.09-245.25-90.35l-3.89,4.56c34.02,29.03,72.4,51.69,114.07,67.36,35.92,13.5,73.44,21.44,111.84,23.72,10.62,1.97,16.83,12.5,23.24,31.06,6.42-18.56,12.63-29.09,23.25-31.06,38.4-2.29,75.92-10.22,111.84-23.72,41.67-15.66,80.05-38.33,114.07-67.37l-3.89-4.56c-68.26,58.27-155.37,90.36-245.26,90.36Z"/><path class="cls-1" d="M694.87,653.22l-9.13-7.79c54.86-64.33,85.07-146.4,85.07-231.09s-30.21-166.75-85.06-231.1l9.13-7.79c27.81,32.63,49.52,69.43,64.52,109.39,15.53,41.35,23.4,84.92,23.4,129.5s-7.87,88.14-23.4,129.5c-15,39.96-36.72,76.76-64.53,109.38Z"/><path class="cls-1" d="M133.82,653.22c-27.81-32.62-49.52-69.42-64.52-109.38-15.53-41.35-23.4-84.92-23.4-129.5s7.87-88.14,23.4-129.5c15-39.95,36.71-76.76,64.52-109.39l9.13,7.79c-54.85,64.35-85.06,146.42-85.06,231.1s30.21,166.75,85.06,231.09l-9.13,7.79Z"/><path class="cls-1" d="M183.26,142.96l-7.79-9.13c66.5-56.71,151.34-87.93,238.88-87.93,44.57,0,88.14,7.87,129.5,23.4,39.95,15,76.75,36.71,109.38,64.52l-7.79,9.13c-64.34-54.85-146.41-85.06-231.09-85.06s-166.76,30.21-231.1,85.07Z"/><path class="cls-1" d="M414.36,782.8c-87.54,0-172.38-31.23-238.88-87.92l7.79-9.13c64.34,54.85,146.41,85.06,231.1,85.06s166.75-30.21,231.09-85.06l7.79,9.13c-32.62,27.81-69.42,49.52-109.38,64.52-41.35,15.53-84.92,23.4-129.5,23.4Z"/><path class="cls-1" d="M78.93,386.21s-.79,5.84-4.46,6.11H7.57c-3.67-.27-4.46-6.11-4.46-6.11H.85v16.28h2.26s.79-5.85,4.47-6.11h66.88c3.68.26,4.47,6.11,4.47,6.11h2.26v-16.28h-2.26Z"/><path class="cls-1" d="M74.47,432.32H7.57c-3.67-.27-4.46-6.11-4.46-6.11H.85v16.28h2.26s.79-5.85,4.47-6.11h66.88c3.68.26,4.47,6.11,4.47,6.11h2.26v-16.28h-2.26s-.79,5.84-4.46,6.11Z"/><path class="cls-1" d="M825.59,386.21s-.79,5.84-4.46,6.11h-66.89c-3.67-.27-4.46-6.11-4.46-6.11h-2.26v16.28h2.26s.79-5.85,4.47-6.11h66.88c3.68.26,4.47,6.11,4.47,6.11h2.26v-16.28h-2.26Z"/><path class="cls-1" d="M821.13,432.32h-66.89c-3.67-.27-4.46-6.11-4.46-6.11h-2.26v16.28h2.26s.79-5.85,4.47-6.11h66.88c3.68.26,4.47,6.11,4.47,6.11h2.26v-16.28h-2.26s-.79,5.84-4.46,6.11Z"/><path class="cls-1" d="M442.49,3.11V.85h-16.28v2.26s5.84.79,6.11,4.46v66.89c-.27,3.67-6.11,4.46-6.11,4.46v2.26h16.28v-2.26s-5.85-.79-6.11-4.47V7.58c.26-3.68,6.11-4.47,6.11-4.47Z"/><path class="cls-1" d="M386.21.85v2.26s5.84.79,6.11,4.46v66.89c-.27,3.67-6.11,4.46-6.11,4.46v2.26h16.28v-2.26s-5.85-.79-6.11-4.47V7.58c.26-3.68,6.11-4.47,6.11-4.47V.85h-16.28Z"/><path class="cls-1" d="M442.49,749.77v-2.26h-16.28v2.26s5.84.79,6.11,4.46v66.89c-.27,3.67-6.11,4.46-6.11,4.46v2.26h16.28v-2.26s-5.85-.79-6.11-4.47v-66.88c.26-3.68,6.11-4.47,6.11-4.47Z"/><path class="cls-1" d="M386.21,747.51v2.26s5.84.79,6.11,4.46v66.89c-.27,3.67-6.11,4.46-6.11,4.46v2.26h16.28v-2.26s-5.85-.79-6.11-4.47v-66.88c.26-3.68,6.11-4.47,6.11-4.47v-2.26h-16.28Z"/><path class="cls-1" d="M175.03,126.84c-13.28-13.29-34.9-13.29-48.19,0-13.29,13.29-13.29,34.91,0,48.19,6.44,6.44,14.99,9.98,24.1,9.98s17.66-3.54,24.1-9.98c6.44-6.44,9.98-14.99,9.98-24.1s-3.54-17.66-9.98-24.1ZM170.79,170.79c-5.3,5.3-12.35,8.22-19.85,8.22s-14.55-2.92-19.85-8.22c-10.95-10.95-10.95-28.76,0-39.71,5.47-5.47,12.66-8.21,19.85-8.21s14.38,2.74,19.85,8.21c5.3,5.3,8.22,12.35,8.22,19.85s-2.92,14.55-8.22,19.85Z"/><path class="cls-1" d="M166.38,150.13c-.9.02-1.8,0-2.7.02-.05-2.23-.06-4.47.01-6.7.06-1.93-2.94-1.93-3,0-.07,2.24-.06,4.48-.01,6.72-.85,0-1.71-.01-2.56-.02-.1-3.23-.07-6.47.08-9.71.09-1.93-2.91-1.92-3,0-.15,3.22-.18,6.44-.08,9.65-.71-.02-1.41-.02-2.12-.04-.55-.02-1.59.13-1.97-.37-.39-.51-.3-1.82-.34-2.42-.15-2.18-.06-4.38.3-6.54.13-.8-.21-1.61-1.05-1.85-.72-.2-1.71.24-1.85,1.05-.42,2.54-.58,5.09-.38,7.66,0,.03,0,.07,0,.1-.57-.42-1.2-.77-1.9-1.04-2.73-1.07-5.86-.52-8.32.98-1.27.77-2.69,1.83-3.25,3.25-.67,1.67.15,3.37,1.82,3.96,1.67.59,3.59.81,5.34,1.07,1.91.29,3.84.49,5.77.61.12,0,.25-.01.36-.04-.44,1.51-1.21,2.95-1.92,4.3-.9,1.71,1.69,3.23,2.59,1.51,1.46-2.79,2.96-5.8,2.64-9.05-.01-.14-.05-.27-.07-.41.05.01.09.03.14.04,1.17.22,2.4.17,3.58.2.25,0,.51,0,.76.01.13,2.44.31,4.87.58,7.29.09.81.62,1.5,1.5,1.5.74,0,1.59-.69,1.5-1.5-.27-2.41-.44-4.82-.57-7.24.03,0,.06,0,.09,0,.81,0,1.62,0,2.43,0,.1,2.3.26,4.6.49,6.89.08.81.63,1.5,1.5,1.5.75,0,1.58-.69,1.5-1.5-.23-2.3-.38-4.6-.49-6.9.87,0,1.73-.01,2.6-.03,1.93-.04,1.93-3.04,0-3ZM139.53,152.56c-.62-.12-1.24-.25-1.85-.39-.21-.05-.44-.09-.65-.16.42-.73,1.16-1.28,1.88-1.73,1.69-1.05,3.7-1.53,5.63-.91,1.78.57,3.06,2.02,3.31,3.88.02.16.02.32.03.47-.21-.11-.45-.19-.7-.2-2.56-.15-5.11-.47-7.63-.96Z"/><path class="cls-1" d="M175.03,653.67c-6.44-6.44-14.99-9.98-24.1-9.98s-17.66,3.54-24.1,9.98c-13.29,13.29-13.29,34.9,0,48.19,6.44,6.44,14.99,9.98,24.1,9.98s17.66-3.54,24.1-9.98c6.44-6.44,9.98-14.99,9.98-24.1s-3.54-17.66-9.98-24.09ZM170.79,697.62c-5.3,5.3-12.35,8.22-19.85,8.22s-14.55-2.92-19.85-8.22c-10.95-10.95-10.95-28.76,0-39.71,5.3-5.3,12.35-8.22,19.85-8.22s14.55,2.92,19.85,8.22,8.22,12.35,8.22,19.85-2.92,14.55-8.22,19.85Z"/><path class="cls-1" d="M162.36,668.82c-.22-.98-.35-2.06-.79-2.96-1.03-2.14-3.45-2.06-5.51-2.08-2.5-.03-5,.18-7.48.45-4.24.46-9.47.82-12.85,3.74-3,2.6-2.51,7.23.67,9.43,1.59,1.1,3.09-1.5,1.51-2.59-.95-.65-1.4-1.91-1.17-3.02.29-1.41,1.71-2.22,2.94-2.73,3.23-1.35,6.9-1.65,10.34-1.98,1.77-.17,3.54-.29,5.31-.3.88,0,1.78-.02,2.66.07.97.1.95.49,1.16,1.38.61,2.61,1.21,5.3,1.23,8-2.16-1.45-4.95-2.05-7.52-2.18-3.98-.21-8.05.8-11.5,2.8-1.7.99-3.38,2.24-4.61,3.78-1.13,1.41-2.2,3.64-1.29,5.43.43.86,1.36,1.3,2.28,1.04,1.03-.29,1.74-1.37,2.47-2.08.78-.76,1.61-1.46,2.57-1.97.64-.35,2.1-1.12,2.85-.89.36.11.85.99,1.1,1.31.4.52.78,1.05,1.14,1.6.66,1.01,1.18,2.09,1.8,3.12,1.29,2.13,3.45,2.64,5.77,2.95.59.08,1.34-.52,1.45-1.1.53-3.05,1-6.11,1.42-9.17.11-.81-.2-1.6-1.05-1.85-.7-.2-1.74.25-1.85,1.05-.36,2.63-.76,5.25-1.2,7.87-.54-.12-1.06-.3-1.45-.63-.79-.68-1.19-1.97-1.73-2.85-.98-1.61-2.24-3.81-3.81-4.89-1.55-1.06-4.08-.03-5.59.71-.03.01-.05.03-.08.04.17-.12.33-.25.51-.37,1.9-1.24,3.99-2.09,6.21-2.56,3.68-.78,9.84-.76,12.04,2.94.61,1.03,2.51.96,2.74-.36.43-2.47.38-4.9.03-7.38-.18-1.26-.43-2.51-.71-3.76ZM138.13,684.53s0,0,0,0h0Z"/><path class="cls-1" d="M165.06,674.94c.21,5.11.17,10.22-.11,15.32-.11,1.93,2.89,1.92,3,0,.28-5.1.32-10.21.11-15.32-.08-1.92-3.08-1.93-3,0Z"/><path class="cls-1" d="M701.86,126.84c-13.29-13.29-34.91-13.29-48.19,0-6.44,6.44-9.98,14.99-9.98,24.1s3.54,17.66,9.98,24.1c6.44,6.44,14.99,9.98,24.1,9.98s17.66-3.54,24.09-9.98c6.44-6.44,9.98-14.99,9.98-24.1s-3.54-17.66-9.98-24.1ZM697.62,170.79c-5.3,5.3-12.35,8.22-19.85,8.22s-14.55-2.92-19.85-8.22-8.22-12.35-8.22-19.85,2.92-14.55,8.22-19.85c5.47-5.47,12.66-8.21,19.85-8.21s14.38,2.74,19.85,8.21c5.3,5.3,8.22,12.35,8.22,19.85s-2.92,14.55-8.22,19.85Z"/><path class="cls-1" d="M693.16,162.08c-4.39.03-8.78.06-13.17.09-.07-.99-.11-1.98-.14-2.98,1.65-.26,3.45-1.17,4.69-2.06,1.66-1.19,2.61-2.96,3.06-4.92.48-2.12.66-4.58-.6-6.49-.99-1.5-2.65-2.25-4.35-2.63.1-1.15.02-2.31-.28-3.42-.47-1.72-1.69-3.58-3.71-3.39-2.21.21-2.83,2.49-2.87,4.34-.03,1.22-.04,2.44-.06,3.67-1.31,1.39-1.72,3.32-2.72,4.91-.49.78-.15,1.53.45,1.93-2.09.99-4.4,1.16-6.4-.26-2.04-1.44-2.97-4.32-2.14-6.68.92-2.6,3.62-4.24,6.31-4.23,1.93,0,1.93-3,0-3-3.65,0-7.27,2.11-8.81,5.48-1.49,3.27-.75,7.19,1.69,9.81,2.71,2.9,6.94,3.11,10.43,1.62.37-.16.73-.34,1.08-.53,0,.74-.02,1.48-.02,2.22,0,1.23.43,2.31,1.24,2.98.03,1.22.08,2.43.17,3.65-1.96.01-3.93.03-5.89.04-1.93.01-1.93,3.01,0,3,6.7-.04,13.41-.09,20.11-.13.28.15.62.23,1.01.16l1.34-.23c1.69-.29,1.26-2.96-.4-2.95ZM678.71,145.9s.05-.02.08-.02c-.02.05-.05.09-.08.14v-.12ZM678.8,139.9c.02-.15.05-.45.17-.59.01.03.02.06.06.11.31.52.49,1.11.58,1.71.09.54.09,1.09.04,1.64-.33,0-.66.02-.98.07-.02-1-.02-2,.13-2.94ZM681.97,145.98c.37.09.73.19,1.06.32,1.29.51,1.89,1.47,1.93,2.84.03,1.23-.21,2.63-.71,3.77-.61,1.37-1.76,2.09-3.09,2.66-.4.18-.86.4-1.32.54,0-.56,0-1.13.02-1.69.03-.7-.57-1.37-1.26-1.48.01-.61.02-1.23.04-1.84,1.47-1.43,2.63-3.18,3.34-5.11Z"/><path class="cls-1" d="M701.86,653.67c-6.44-6.44-14.99-9.98-24.09-9.98s-17.66,3.54-24.1,9.98c-6.44,6.44-9.98,14.99-9.98,24.09s3.54,17.66,9.98,24.1c6.44,6.44,14.99,9.98,24.1,9.98s17.66-3.54,24.09-9.98c6.44-6.44,9.98-14.99,9.98-24.1s-3.54-17.66-9.98-24.09ZM697.62,697.62c-5.3,5.3-12.35,8.22-19.85,8.22s-14.55-2.92-19.85-8.22-8.22-12.35-8.22-19.85,2.92-14.55,8.22-19.85,12.35-8.22,19.85-8.22,14.55,2.92,19.85,8.22,8.22,12.35,8.22,19.85-2.92,14.55-8.22,19.85Z"/><path class="cls-1" d="M688.54,671.6c1.25,2.02,1.83,4.7,1.33,7.05-.26,1.23-.83,2.27-1.84,3.05-.4.31-1.1.86-1.6.99-.05.02-.06.03-.08.04-.18-.12-.36-.25-.54-.39-.29-.2-.59-.38-.9-.54-1.89-.92-3.69-.97-5.42-.53.86-.76,1.73-1.51,2.62-2.24.43.01.87-.14,1.17-.43.24-.24.37-.53.41-.82.86-.67,1.74-1.34,2.62-1.98,1.55-1.12.06-3.72-1.51-2.59-.63.46-1.26.93-1.88,1.4-.05-.46-.11-.92-.23-1.36-.36-1.37-1.31-2.58-2.72-2.95-1.58-.42-3.02.42-4.21,1.37-1.25,1-2.4,2.11-3.71,3.03-1.21.85-2.6,1.67-4.12,1.72-1.08.03-2.31-.27-2.4-1.51-.11-1.34.71-2.85,1.51-3.88.78-1,1.78-1.78,2.9-2.36,3.19-1.68,6.85-1.5,10.12-.19.75.3,1.65-.33,1.85-1.05.23-.85-.29-1.54-1.05-1.85-6.34-2.54-14.71-.69-17.59,6.02-.72,1.67-1.1,3.61-.25,5.32.72,1.44,2.23,2.19,3.76,2.42,3.88.57,7.14-2.16,9.88-4.51.73-.63,2.54-2.65,3.1-.89.3.93.33,1.86.52,2.75-4.19,3.42-8.08,7.19-11.69,11.23-1.09,1.23.3,3.28,1.82,2.36,2.92-1.78,5.44-4.45,8.65-5.71,1.37-.54,2.94-.78,4.33-.17.76.34,1.33,1,2.13,1.26.8.26,1.56.08,2.29-.3,2.71-1.38,4.63-3.58,5.08-6.64.42-2.93-.2-6.11-1.76-8.64-1.01-1.64-3.61-.14-2.59,1.51Z"/></g></svg>