<?xml version="1.0" encoding="UTF-8"?><svg id="Layer_1" xmlns="http://www.w3.org/2000/svg" viewBox="0 0 631.23 158.46"><defs><style>.cls-1{fill:#fff;}</style></defs><g id="Button_7"><path class="cls-1" d="M34.81,79.23c-2.58,0-8.94-3.8-10.02-8.06-.3,4.26-24.79,8.06-24.79,8.06,0,0,24.49,3.8,24.79,8.06,1.08-4.26,7.44-8.06,10.02-8.06Z"/><path class="cls-1" d="M8.98,16.91c-1.31,0-2.57.22-3.74.63.36-.04.72-.05,1.09-.05,6.05,0,10.96,4.91,10.96,10.96,0,6.05-4.91,10.96-10.96,10.96-.37,0-.73-.02-1.09-.05,1.17.4,2.43.63,3.74.63,6.37,0,11.53-5.16,11.53-11.53,0-6.37-5.16-11.53-11.53-11.53Z"/><path class="cls-1" d="M18.81,26.43h135.84s1.85,4-20.92,4H18.81v-4Z"/><path class="cls-1" d="M8.98,141.56c-1.31,0-2.57-.22-3.74-.63.36.04.72.05,1.09.05,6.05,0,10.96-4.91,10.96-10.96,0-6.05-4.91-10.96-10.96-10.96-.37,0-.73.02-1.09.05,1.17-.4,2.43-.63,3.74-.63,6.37,0,11.53,5.16,11.53,11.53,0,6.37-5.16,11.53-11.53,11.53Z"/><path class="cls-1" d="M18.81,132.03h135.84s1.85-4-20.92-4H18.81v4Z"/><path class="cls-1" d="M596.42,79.23c2.58,0,8.94-3.8,10.02-8.06.3,4.26,24.79,8.06,24.79,8.06,0,0-24.49,3.8-24.79,8.06-1.08-4.26-7.44-8.06-10.02-8.06Z"/><path class="cls-1" d="M622.25,16.91c1.31,0,2.57.22,3.74.63-.36-.04-.72-.05-1.09-.05-6.05,0-10.96,4.91-10.96,10.96,0,6.05,4.91,10.96,10.96,10.96.37,0,.73-.02,1.09-.05-1.17.4-2.43.63-3.74.63-6.37,0-11.53-5.16-11.53-11.53,0-6.37,5.16-11.53,11.53-11.53Z"/><path class="cls-1" d="M612.42,26.43h-135.84s-1.85,4,20.92,4c22.77,0,114.92,0,114.92,0v-4Z"/><path class="cls-1" d="M622.25,141.56c1.31,0,2.57-.22,3.74-.63-.36.04-.72.05-1.09.05-6.05,0-10.96-4.91-10.96-10.96,0-6.05,4.91-10.96,10.96-10.96.37,0,.73.02,1.09.05-1.17-.4-2.43-.63-3.74-.63-6.37,0-11.53,5.16-11.53,11.53s5.16,11.53,11.53,11.53Z"/><path class="cls-1" d="M612.42,132.03h-135.84s-1.85-4,20.92-4c22.77,0,114.92,0,114.92,0v4Z"/><path class="cls-1" d="M619.56,79.23c0-12.51-7.27-21.98-11.24-26.21V8.83h-260.99V0h-1.06s-1,7.98-5.58,8.83h-50.15c-4.58-.85-5.58-8.83-5.58-8.83h-1.06v8.83H22.9v44.19c-3.96,4.23-11.24,13.71-11.24,26.21s7.27,21.98,11.24,26.21v44.19h260.99v8.83h1.06s1-8,5.6-8.83h50.12c4.6.83,5.6,8.83,5.6,8.83h1.06v-8.83h260.99v-44.19c3.96-4.23,11.24-13.71,11.24-26.21ZM605.32,99.8c-3.46-4.11-8.24-11.43-8.24-20.56s4.77-16.45,8.24-20.56c3.46,4.11,8.24,11.43,8.24,20.56s-4.77,16.45-8.24,20.56ZM25.9,58.67c3.46,4.11,8.24,11.43,8.24,20.56s-4.77,16.45-8.24,20.56c-3.46-4.11-8.24-11.43-8.24-20.56s4.77-16.45,8.24-20.56ZM347.34,143.63v-8.83h-1.06s-.99,7.96-5.56,8.83h-50.19c-4.57-.87-5.56-8.83-5.56-8.83h-1.06v8.83H28.9v-38.18c3.96-4.23,11.24-13.71,11.24-26.22s-7.28-21.98-11.24-26.22V14.83h254.99v8.83h1.06s1-7.98,5.58-8.83h50.15c4.58.85,5.58,8.83,5.58,8.83h1.06v-8.83h254.99v38.19c-3.96,4.23-11.24,13.71-11.24,26.22s7.28,21.98,11.24,26.22v38.18h-254.99Z"/></g></svg>