<?xml version="1.0" encoding="UTF-8"?><svg id="Layer_1" xmlns="http://www.w3.org/2000/svg" viewBox="0 0 631.16 166.75"><defs><style>.cls-1{fill:#fff;}</style></defs><g id="Button_1"><path class="cls-1" d="M75.93,83.38c-4.52,0-8.46-2.66-10.51-6.59-3.23-24.34-24.05-43.13-49.27-43.13-5.66,0-11.08.96-16.15,2.7,1.55-.15,3.11-.23,4.7-.23,26.1,0,47.26,21.16,47.26,47.26s-21.16,47.26-47.26,47.26c-1.59,0-3.15-.08-4.7-.23,5.07,1.74,10.49,2.7,16.15,2.7,25.22,0,46.05-18.79,49.27-43.13,2.05-3.93,5.98-6.59,10.51-6.59Z"/><path class="cls-1" d="M51.96,83.38s-4.96,3.98-11.09,3.98-11.09-3.98-11.09-3.98c0,0,4.96-3.98,11.09-3.98s11.09,3.98,11.09,3.98Z"/><path class="cls-1" d="M579.2,83.38c0-26.1,21.16-47.26,47.26-47.26,1.59,0,3.15.08,4.7.23-5.07-1.74-10.49-2.7-16.15-2.7-25.22,0-46.05,18.79-49.27,43.13-2.05,3.93-5.98,6.59-10.51,6.59,4.52,0,8.46,2.66,10.51,6.59,3.23,24.34,24.05,43.13,49.27,43.13,5.66,0,11.08-.96,16.15-2.7-1.55.15-3.11.23-4.7.23-26.1,0-47.26-21.16-47.26-47.26Z"/><path class="cls-1" d="M537.88,11.97h-210.3c-6.69-.37-12.01-5.58-12.01-11.97,0,6.39-5.31,11.6-12.01,11.97H93.28c-39.37,0-71.4,32.03-71.4,71.4s32.03,71.4,71.4,71.4h210.3c6.7.37,12.01,5.58,12.01,11.97,0-6.39,5.31-11.6,12.01-11.97h210.3c39.37,0,71.4-32.03,71.4-71.4s-32.03-71.4-71.4-71.4ZM537.88,146.78H93.28c-34.96,0-63.4-28.44-63.4-63.4s28.44-63.4,63.4-63.4h444.6c34.96,0,63.4,28.44,63.4,63.4s-28.44,63.4-63.4,63.4Z"/><path class="cls-1" d="M579.2,83.38s4.96,3.98,11.09,3.98c6.12,0,11.09-3.98,11.09-3.98,0,0-4.96-3.98-11.09-3.98-6.12,0-11.09,3.98-11.09,3.98Z"/></g></svg>