<?xml version="1.0" encoding="UTF-8"?><svg id="Layer_1" xmlns="http://www.w3.org/2000/svg" viewBox="0 0 585.41 176.14"><defs><style>.cls-1{fill:#fff;}</style></defs><g id="Button_2"><path class="cls-1" d="M48.94,63.92c4.14-3.82,10.87-5.49,16.07-5.07,7.92.64,13.83,5.7,13.83,5.7V15.31c1.96-2.66,6.71-3.3,6.71-3.3v-2.79h-20.04v2.79s4.73.64,6.7,3.29v39.38c-.25-.07-6.19-1.18-8.94-1.18-18.25,0-33.19,14.15-34.48,32.08h-6.3c-4.52-.33-5.49-7.52-5.49-7.52h-2.79v20.04h2.79s.97-7.19,5.49-7.52h6.31c1.28,17.93,16.22,32.08,34.48,32.08,2.76,0,8.7-1.12,8.94-1.18v39.38c-1.97,2.65-6.7,3.29-6.7,3.29v2.79h20.04v-2.79s-4.75-.64-6.71-3.3v-49.24s-5.91,5.05-13.83,5.7c-5.19.42-11.92-1.25-16.07-5.07-5.93-5.48-9.84-13.11-10.48-21.65h8.79c4.52.33,5.49,7.52,5.49,7.52h2.79v-20.04h-2.79s-.97,7.19-5.49,7.52h-8.79c.64-8.54,4.55-16.18,10.48-21.65Z"/><path class="cls-1" d="M285.45,2.79V0h-20.04v2.79s7.19.97,7.52,5.49v24.77c-.33,4.52-7.52,5.49-7.52,5.49v2.79h20.04v-2.79s-7.2-.97-7.52-5.5V8.28c.33-4.52,7.52-5.5,7.52-5.5Z"/><path class="cls-1" d="M285.45,137.59v-2.79h-20.04v2.79s7.19.97,7.52,5.49v24.77c-.33,4.52-7.52,5.49-7.52,5.49v2.79h20.04v-2.79s-7.2-.97-7.52-5.5v-24.77c.33-4.52,7.52-5.5,7.52-5.5Z"/><path class="cls-1" d="M515.01,17.67H70.4C31.58,17.67,0,49.25,0,88.07s31.58,70.4,70.4,70.4h444.6c38.82,0,70.4-31.58,70.4-70.4s-31.58-70.4-70.4-70.4ZM515.01,152.47H70.4c-35.51,0-64.4-28.89-64.4-64.4S34.89,23.67,70.4,23.67h444.6c35.51,0,64.4,28.89,64.4,64.4s-28.89,64.4-64.4,64.4Z"/><path class="cls-1" d="M568.43,78.05s-.97,7.19-5.49,7.52h-6.3c-1.28-17.93-16.22-32.08-34.48-32.08-2.76,0-8.7,1.12-8.94,1.18V15.3c1.97-2.65,6.7-3.29,6.7-3.29v-2.79h-20.04v2.79s4.75.64,6.71,3.3v49.24s5.91-5.05,13.83-5.7c5.2-.42,11.92,1.25,16.07,5.07,5.93,5.48,9.84,13.11,10.48,21.65h-8.79c-4.52-.33-5.49-7.52-5.49-7.52h-2.79v20.04h2.79s.97-7.19,5.49-7.52h8.79c-.64,8.54-4.55,16.18-10.48,21.65-4.14,3.82-10.87,5.49-16.07,5.07-7.92-.64-13.83-5.7-13.83-5.7v49.24c-1.96,2.66-6.71,3.3-6.71,3.3v2.79h20.04v-2.79s-4.73-.64-6.7-3.29v-39.38c.25.07,6.19,1.18,8.94,1.18,18.25,0,33.19-14.15,34.48-32.08h6.31c4.52.33,5.49,7.52,5.49,7.52h2.79v-20.04h-2.79Z"/><path class="cls-1" d="M320.01,2.79V0h-20.04v2.79s7.19.97,7.52,5.49v24.77c-.33,4.52-7.52,5.49-7.52,5.49v2.79h20.04v-2.79s-7.2-.97-7.52-5.5V8.28c.33-4.52,7.52-5.5,7.52-5.5Z"/><path class="cls-1" d="M320.01,137.59v-2.79h-20.04v2.79s7.19.97,7.52,5.49v24.77c-.33,4.52-7.52,5.49-7.52,5.49v2.79h20.04v-2.79s-7.2-.97-7.52-5.5v-24.77c.33-4.52,7.52-5.5,7.52-5.5Z"/></g></svg>