<?xml version="1.0" encoding="UTF-8"?><svg id="Layer_1" xmlns="http://www.w3.org/2000/svg" viewBox="0 0 622.99 182.58"><defs><style>.cls-1{fill:#fff;}</style></defs><g id="Button_3"><path class="cls-1" d="M21.79,113.08c-12.01,0-21.79-9.77-21.79-21.79s9.77-21.79,21.79-21.79,21.79,9.77,21.79,21.79-9.77,21.79-21.79,21.79ZM21.79,73.5c-9.81,0-17.79,7.98-17.79,17.79s7.98,17.79,17.79,17.79,17.79-7.98,17.79-17.79-7.98-17.79-17.79-17.79Z"/><rect class="cls-1" x="2" y="89.29" width="39.57" height="4"/><path class="cls-1" d="M307.3,23.61c0,4.11,1.88,7.45,4.19,7.45s4.19-3.33,4.19-7.45-1.88-7.45-4.19-7.45-4.19,3.33-4.19,7.45Z"/><path class="cls-1" d="M340.11,23.61c-1.89,0-7.11-4.45-7.11-4.45-3.37-2.75-8.56-6.13-15.07-7.58-5.74-3.19-6.43-11.58-6.43-11.58,0,0-.69,8.39-6.43,11.58-6.51,1.45-11.7,4.82-15.07,7.58,0,0-5.23,4.45-7.11,4.45,1.89,0,7.11,4.45,7.11,4.45,3.37,2.75,8.56,6.13,15.07,7.58,5.74,3.19,6.43,11.58,6.43,11.58,0,0,.69-8.39,6.43-11.58,6.51-1.45,11.7-4.83,15.07-7.58,0,0,5.23-4.45,7.11-4.45ZM311.49,31.17c-8.36,0-15.05-4.41-18.76-7.56,3.71-3.15,10.39-7.56,18.76-7.56s15.05,4.41,18.76,7.56c-3.71,3.15-10.39,7.56-18.76,7.56Z"/><path class="cls-1" d="M307.3,158.97c0-4.11,1.88-7.45,4.19-7.45s4.19,3.33,4.19,7.45-1.88,7.45-4.19,7.45-4.19-3.33-4.19-7.45Z"/><path class="cls-1" d="M332.99,154.52c-3.37-2.75-8.56-6.13-15.07-7.58-5.74-3.19-6.43-11.58-6.43-11.58,0,0-.69,8.39-6.43,11.58-6.51,1.45-11.7,4.82-15.07,7.58,0,0-5.23,4.45-7.11,4.45,1.89,0,7.11,4.45,7.11,4.45,3.37,2.75,8.56,6.13,15.07,7.58,5.74,3.19,6.43,11.58,6.43,11.58,0,0,.69-8.39,6.43-11.58,6.51-1.45,11.7-4.82,15.07-7.58,0,0,5.23-4.45,7.11-4.45-1.89,0-7.11-4.45-7.11-4.45ZM330.25,158.97c-3.71,3.15-10.39,7.56-18.76,7.56s-15.05-4.41-18.76-7.56c3.71-3.15,10.39-7.56,18.76-7.56s15.05,4.41,18.76,7.56Z"/><path class="cls-1" d="M291.31,26.89v-6l-285.62.02s12.76,3.24,13.09,10.6v119.56c-.33,7.37-13.09,10.6-13.09,10.6l285.62.02v-6H24.79V26.89h266.53Z"/><path class="cls-1" d="M54.68,91.29c0-11.32-5.89-21.9-15.45-27.89v-21.55c1.18-1.75,4.29-2.17,4.29-2.17v-1.75h-12.57s0,1.75,0,1.75c0,0,3.1.41,4.28,2.17v23.84l1,.58c8.91,5.15,14.45,14.74,14.45,25.03s-5.54,19.88-14.45,25.03l-1,.58v23.84c-1.18,1.75-4.28,2.17-4.28,2.17v1.75h12.57v-1.75s-3.1-.41-4.29-2.17v-21.56c9.56-5.99,15.45-16.57,15.45-27.89Z"/><path class="cls-1" d="M568.31,91.29c0-11.32,5.89-21.9,15.45-27.89v-21.55c-1.18-1.75-4.29-2.17-4.29-2.17v-1.75s12.57,0,12.57,0v1.75s-3.1.41-4.28,2.17v23.84s-1,.58-1,.58c-8.91,5.15-14.45,14.74-14.45,25.03s5.54,19.88,14.45,25.03l1,.58v23.84c1.18,1.75,4.28,2.17,4.28,2.17v1.75s-12.57,0-12.57,0v-1.75s3.1-.41,4.29-2.17v-21.56c-9.56-5.99-15.45-16.57-15.45-27.89Z"/><path class="cls-1" d="M601.2,113.08c-12.01,0-21.79-9.77-21.79-21.79s9.77-21.79,21.79-21.79,21.79,9.77,21.79,21.79-9.77,21.79-21.79,21.79ZM601.2,73.5c-9.81,0-17.79,7.98-17.79,17.79s7.98,17.79,17.79,17.79,17.79-7.98,17.79-17.79-7.98-17.79-17.79-17.79Z"/><rect class="cls-1" x="581.41" y="89.29" width="39.57" height="4"/><path class="cls-1" d="M604.2,151.07V31.51c.33-7.37,13.09-10.61,13.09-10.61l-285.62-.02v6h266.53v128.81h-266.53v6l285.62-.02s-12.76-3.24-13.09-10.61Z"/></g></svg>