<?xml version="1.0" encoding="UTF-8"?><svg id="Layer_1" xmlns="http://www.w3.org/2000/svg" viewBox="0 0 622.99 165.07"><defs><style>.cls-1{fill:#fff;}</style></defs><g id="Button_11"><path class="cls-1" d="M13.54,37.86c-1.07,1.59-1.7,3.5-1.7,5.56,0,5.49,4.45,9.94,9.94,9.94,5.49,0,9.94-4.45,9.94-9.94,0-2.06-.63-3.97-1.7-5.56,3.23,2.48,5.32,6.38,5.32,10.76,0,7.49-6.07,13.56-13.56,13.56s-13.56-6.07-13.56-13.56c0-4.39,2.09-8.29,5.32-10.76Z"/><path class="cls-1" d="M13.54,127.21c-1.07-1.59-1.7-3.5-1.7-5.56,0-5.49,4.45-9.94,9.94-9.94,5.49,0,9.94,4.45,9.94,9.94,0,2.06-.63,3.97-1.7,5.56,3.23-2.48,5.32-6.38,5.32-10.76,0-7.49-6.07-13.56-13.56-13.56s-13.56,6.07-13.56,13.56c0,4.39,2.09,8.29,5.32,10.76Z"/><path class="cls-1" d="M21.79,104.32c-12.01,0-21.79-9.77-21.79-21.79s9.77-21.79,21.79-21.79,21.79,9.77,21.79,21.79-9.77,21.79-21.79,21.79ZM21.79,64.75c-9.81,0-17.79,7.98-17.79,17.79s7.98,17.79,17.79,17.79,17.79-7.98,17.79-17.79-7.98-17.79-17.79-17.79Z"/><rect class="cls-1" x="2" y="80.54" width="39.57" height="4"/><path class="cls-1" d="M311.49,12.13H18.79v140.81h585.41V12.13h-292.71ZM598.2,146.94H24.79V18.13h573.41v128.81Z"/><path class="cls-1" d="M609.44,37.86c1.07,1.59,1.7,3.5,1.7,5.56,0,5.49-4.45,9.94-9.94,9.94s-9.94-4.45-9.94-9.94c0-2.06.63-3.97,1.7-5.56-3.23,2.48-5.32,6.38-5.32,10.76,0,7.49,6.07,13.56,13.56,13.56,7.49,0,13.56-6.07,13.56-13.56,0-4.39-2.09-8.29-5.32-10.76Z"/><path class="cls-1" d="M609.44,127.21c1.07-1.59,1.7-3.5,1.7-5.56,0-5.49-4.45-9.94-9.94-9.94-5.49,0-9.94,4.45-9.94,9.94,0,2.06.63,3.97,1.7,5.56-3.23-2.48-5.32-6.38-5.32-10.76,0-7.49,6.07-13.56,13.56-13.56,7.49,0,13.56,6.07,13.56,13.56,0,4.39-2.09,8.29-5.32,10.76Z"/><path class="cls-1" d="M568.48,19.98s-.87,6.24-5.01,6.24c-.23,0-231.83.04-231.83.04.03-.13.15-.59.15-.59.37-1.54.57-3.15.57-4.81,0-11.52-9.34-20.86-20.86-20.86s-20.86,9.34-20.86,20.86c0,1.66.21,3.26.57,4.81,0,0,.11.46.15.59,0,0-231.6-.04-231.83-.04-4.14,0-5.01-6.24-5.01-6.24h-.84v16.57h.84s.87-6.24,5.01-6.24c.23,0,237.78-.04,237.78-.04,0,0-3.05-3.57-3.44-8.34-.25-3.05.71-6.95,2.88-9.46,3.63-4.05,8.89-6.62,14.76-6.62s11.13,2.56,14.76,6.62c2.17,2.51,3.12,6.42,2.87,9.46-.39,4.78-3.44,8.34-3.44,8.34,0,0,237.54.04,237.78.04,4.14,0,5.01,6.24,5.01,6.24h.84v-16.57h-.84Z"/><path class="cls-1" d="M568.48,145.09s-.87-6.24-5.01-6.24c-.23,0-231.83-.04-231.83-.04.03.13.15.59.15.59.37,1.54.57,3.15.57,4.81,0,11.52-9.34,20.86-20.86,20.86s-20.86-9.34-20.86-20.86c0-1.66.21-3.26.57-4.81,0,0,.11-.46.15-.59,0,0-231.6.04-231.83.04-4.14,0-5.01,6.24-5.01,6.24h-.84v-16.57h.84s.87,6.24,5.01,6.24c.23,0,237.78.04,237.78.04,0,0-3.05,3.57-3.44,8.34-.25,3.05.71,6.95,2.88,9.46,3.63,4.05,8.89,6.62,14.76,6.62s11.13-2.56,14.76-6.62c2.17-2.51,3.12-6.42,2.87-9.46-.39-4.78-3.44-8.34-3.44-8.34,0,0,237.54-.04,237.78-.04,4.14,0,5.01-6.24,5.01-6.24h.84v16.57h-.84Z"/><path class="cls-1" d="M601.2,104.32c-12.01,0-21.79-9.77-21.79-21.79s9.77-21.79,21.79-21.79,21.79,9.77,21.79,21.79-9.77,21.79-21.79,21.79ZM601.2,64.75c-9.81,0-17.79,7.98-17.79,17.79s7.98,17.79,17.79,17.79,17.79-7.98,17.79-17.79-7.98-17.79-17.79-17.79Z"/><rect class="cls-1" x="581.41" y="80.54" width="39.57" height="4"/></g></svg>