<?xml version="1.0" encoding="UTF-8"?><svg id="Layer_1" xmlns="http://www.w3.org/2000/svg" viewBox="0 0 603.25 140.81"><defs><style>.cls-1{fill:#fff;}</style></defs><g id="Button_10"><path class="cls-1" d="M89.58,45.35c-4.63-2.98-10.14-4.71-16.06-4.71-16.44,0-29.76,13.32-29.76,29.76,0,16.44,13.32,29.76,29.76,29.76,5.92,0,11.42-1.73,16.06-4.71-5.69,4.79-13.04,7.68-21.06,7.68-18.08,0-32.73-14.65-32.73-32.73,0-18.08,14.65-32.73,32.73-32.73,8.02,0,15.36,2.89,21.06,7.68Z"/><path class="cls-1" d="M513.67,45.35c4.63-2.98,10.14-4.71,16.06-4.71,16.44,0,29.76,13.32,29.76,29.76,0,16.44-13.32,29.76-29.76,29.76-5.92,0-11.42-1.73-16.06-4.71,5.69,4.79,13.04,7.68,21.06,7.68,18.08,0,32.73-14.65,32.73-32.73,0-18.08-14.65-32.73-32.73-32.73-8.02,0-15.36,2.89-21.06,7.68Z"/><path class="cls-1" d="M38.82,1.47V.47h-19.91v1s6.98.98,7.46,5.54v126.79c-.48,4.55-7.46,5.54-7.46,5.54v1h19.91v-1s-6.97-.98-7.46-5.53V7c.48-4.55,7.46-5.53,7.46-5.53Z"/><path class="cls-1" d="M62.69,1.47V.47h-19.92v1s6.97.98,7.46,5.53v126.8c-.48,4.55-7.46,5.53-7.46,5.53v1h19.92v-1s-6.98-.98-7.46-5.54V7.01c.48-4.55,7.46-5.54,7.46-5.54Z"/><path class="cls-1" d="M0,70.41c0-3.17,2.88-5.74,2.88-5.74,0,0,2.88,2.57,2.88,5.74s-2.88,5.74-2.88,5.74C2.88,76.15,0,73.58,0,70.41Z"/><path class="cls-1" d="M525.17,0H78.08L7.68,70.4l70.4,70.4h447.09l70.4-70.4L525.17,0ZM522.69,134.81H80.57L16.16,70.4,80.57,6h442.12l64.4,64.4-64.4,64.4Z"/><path class="cls-1" d="M584.35,1.47V.47h-19.91v1s6.98.98,7.46,5.53v126.8c-.48,4.55-7.46,5.53-7.46,5.53v1h19.91v-1s-6.97-.98-7.46-5.53V7.01c.48-4.55,7.46-5.53,7.46-5.53Z"/><path class="cls-1" d="M560.48,1.47V.47h-19.91v1s6.98.98,7.46,5.53v126.8c-.48,4.55-7.46,5.53-7.46,5.53v1h19.91v-1s-6.97-.98-7.46-5.53V7.01c.48-4.55,7.46-5.53,7.46-5.53Z"/><path class="cls-1" d="M603.25,70.41c0-3.17-2.88-5.74-2.88-5.74,0,0-2.88,2.57-2.88,5.74,0,3.17,2.88,5.74,2.88,5.74,0,0,2.88-2.57,2.88-5.74Z"/></g></svg>