<?xml version="1.0" encoding="UTF-8"?><svg id="Layer_1" xmlns="http://www.w3.org/2000/svg" viewBox="0 0 644.68 173.96"><defs><style>.cls-1{fill:#fff;}</style></defs><g id="Button_4"><path class="cls-1" d="M40.63,62.35c-2.8,0-5.49.47-8,1.34.77-.08,1.54-.12,2.33-.12,12.93,0,23.41,10.48,23.41,23.41,0,12.93-10.48,23.41-23.41,23.41-.79,0-1.56-.04-2.33-.12,2.51.86,5.2,1.34,8,1.34,13.6,0,24.63-11.03,24.63-24.63,0-13.6-11.03-24.63-24.63-24.63Z"/><path class="cls-1" d="M24.63,62.35c2.8,0,5.49.47,8,1.34-.77-.08-1.54-.12-2.33-.12-12.93,0-23.41,10.48-23.41,23.41,0,12.93,10.48,23.41,23.41,23.41.79,0,1.56-.04,2.33-.12-2.51.86-5.2,1.34-8,1.34-13.6,0-24.63-11.03-24.63-24.63,0-13.6,11.03-24.63,24.63-24.63Z"/><path class="cls-1" d="M322.34,37.23c39.71,0,71.89-9.48,71.89-21.18,0-2.85-1.92-5.56-5.38-8.04.51.95.78,1.91.78,2.9,0,10.5-30.13,19-67.3,19-37.17,0-67.3-8.51-67.3-19,0-.99.27-1.96.78-2.9-3.46,2.48-5.38,5.19-5.38,8.04,0,11.7,32.19,21.18,71.89,21.18Z"/><path class="cls-1" d="M322.34,136.73c39.71,0,71.89,9.48,71.89,21.18,0,2.85-1.92,5.56-5.38,8.04.51-.95.78-1.91.78-2.9,0-10.5-30.13-19-67.3-19-37.17,0-67.3,8.51-67.3,19,0,.99.27,1.96.78,2.9-3.46-2.48-5.38-5.19-5.38-8.04,0-11.7,32.19-21.18,71.89-21.18Z"/><path class="cls-1" d="M32.63,98.78c-10.81,0-18.78-6.77-21.7-9.67l-2.14-2.13,2.14-2.13c2.92-2.91,10.89-9.67,21.7-9.67s18.78,6.77,21.7,9.67l2.14,2.13-2.14,2.13c-2.92,2.91-10.89,9.67-21.7,9.67ZM17.55,86.98c3.23,2.59,8.55,5.8,15.08,5.8s11.85-3.21,15.08-5.8c-3.23-2.59-8.55-5.8-15.08-5.8s-11.85,3.22-15.08,5.8Z"/><path class="cls-1" d="M616.05,15.58h-281.74c-5.51-.82-8.69-6.1-11.96-15.58-3.27,9.47-6.45,14.75-11.96,15.57H28.63v142.81h281.74c5.51.82,8.69,6.1,11.96,15.57,3.27-9.47,6.45-14.75,11.96-15.57h281.75V15.58ZM608.05,150.38H36.63V23.57h571.41v126.81Z"/><path class="cls-1" d="M50.51,28.41s-.97,7.19-5.49,7.52h-24.77c-4.52-.33-5.49-7.52-5.49-7.52h-2.79v20.04h2.79s.97-7.19,5.49-7.52h24.77c4.52.33,5.49,7.52,5.49,7.52h2.79v-20.04h-2.79Z"/><path class="cls-1" d="M50.51,125.51s-.97,7.19-5.49,7.52h-24.78c-4.52-.33-5.49-7.52-5.49-7.52h-2.79v20.04h2.79s.97-7.2,5.5-7.52h24.77c4.53.32,5.5,7.52,5.5,7.52h2.79v-20.04h-2.79Z"/><path class="cls-1" d="M604.05,62.35c2.8,0,5.49.47,8,1.34-.77-.08-1.54-.12-2.33-.12-12.93,0-23.41,10.48-23.41,23.41,0,12.93,10.48,23.41,23.41,23.41.79,0,1.56-.04,2.33-.12-2.51.86-5.2,1.34-8,1.34-13.6,0-24.63-11.03-24.63-24.63s11.03-24.63,24.63-24.63Z"/><path class="cls-1" d="M620.05,62.35c-2.8,0-5.49.47-8,1.34.77-.08,1.54-.12,2.33-.12,12.93,0,23.41,10.48,23.41,23.41,0,12.93-10.48,23.41-23.41,23.41-.79,0-1.56-.04-2.33-.12,2.51.86,5.2,1.34,8,1.34,13.6,0,24.63-11.03,24.63-24.63,0-13.6-11.03-24.63-24.63-24.63Z"/><path class="cls-1" d="M612.05,98.78c-10.81,0-18.78-6.77-21.7-9.67l-2.14-2.13,2.14-2.13c2.92-2.91,10.89-9.67,21.7-9.67s18.78,6.77,21.7,9.67l2.14,2.13-2.14,2.13c-2.92,2.91-10.89,9.67-21.7,9.67ZM596.96,86.98c3.23,2.59,8.55,5.8,15.08,5.8s11.85-3.21,15.08-5.8c-3.23-2.59-8.55-5.8-15.08-5.8s-11.85,3.22-15.08,5.8Z"/><path class="cls-1" d="M629.93,28.41s-.97,7.19-5.49,7.52h-24.77c-4.52-.33-5.49-7.52-5.49-7.52h-2.79v20.04h2.79s.97-7.19,5.49-7.52h24.77c4.52.33,5.49,7.52,5.49,7.52h2.79v-20.04h-2.79Z"/><path class="cls-1" d="M629.93,125.51s-.97,7.19-5.49,7.52h-24.78c-4.52-.33-5.49-7.52-5.49-7.52h-2.79v20.04h2.79s.97-7.2,5.5-7.52h24.77c4.53.32,5.5,7.52,5.5,7.52h2.79v-20.04h-2.79Z"/></g></svg>