<?xml version="1.0" encoding="UTF-8"?><svg id="Layer_1" xmlns="http://www.w3.org/2000/svg" viewBox="0 0 625.41 168.85"><defs><style>.cls-1{fill:#fff;}</style></defs><g id="Button_12"><path class="cls-1" d="M61.92,136.44c-.86-.79-1.98-1.23-3.2-1.46-1.19-.34-2.49-.52-3.7-.63-1.28-.07-2.48-.36-3.74-.46-.03,0-.06,0-.09,0,.05-1,.09-2,.12-3,.01-.49-1.07-.7-1.1-.22-.05,1.04-.12,2.08-.18,3.12-.21-.02-.41-.04-.62-.05-.63-.04-1.22-.16-1.83-.21-1.21-.13-2.42-.21-3.64-.24-.21-.02-.43-.03-.65-.05-.04-.03-.09-.05-.14-.08-.77-.44-1.54-.88-2.31-1.32-.78-.42-1.57-.84-2.3-1.35-.36-.23-.87-.25-.77.14.18.61.84,1.38,1.66,1.47.14.02.24,0,.31-.05.71.41,1.41.83,2.13,1.23-.36.05-.7.12-.98.26-.74.37-.87,1.16-.3,2.1.28.47.69.95,1.14,1.42.47.44,1,.84,1.49,1.24.57.45,1.17.89,1.79,1.32.62.43,1.26.86,1.95,1.18,1.37.69,2.81,1.32,4.27,1.85,1.5.42,3.02.76,4.53,1,.67.13,1.38.16,2.04.12.66-.04,1.27-.15,1.76-.37.92-.42,1.23-1.16.61-1.92-.61-.75-1.79-1.25-2.87-1.74-1.47-.76-3.04-1.35-4.59-1.94-.56-.27-1.13-.53-1.7-.79.05-.78.1-1.56.14-2.34.38.04.77.08,1.15.13.61.06,1.19.2,1.81.24.62.05,1.23.11,1.84.18,1.28.14,2.61.4,3.82.83,2.15.87,2.69,2.86.87,3.68-.59.26.21.95.8.69,1.86-.84,2.01-2.57.48-3.97ZM52.83,138.66c1.17.44,2.34.91,3.47,1.45.92.49,2.14.92,2.69,1.55.62.7-.25,1.21-1.26,1.33-1.12.18-2.43-.18-3.61-.4-2.61-.44-5.1-1.57-7.39-2.77-1.13-.67-2.17-1.46-3.14-2.24-.39-.32-.84-.67-1.23-1.04-.39-.38-.69-.81-.84-1.19-.35-.9.38-1.17,1.35-1.22.19,0,.4,0,.62,0,2.07,1.1,4.16,2.16,6.29,3.14-.09,1.01-.2,2.03-.33,3.04-.03.21.13.45.5.59.31.12.74.09.76-.11.11-.99.19-1.98.27-2.97.62.28,1.24.57,1.87.85ZM49.83,136.48c-.64-.29-1.29-.57-1.93-.87-.79-.42-1.58-.83-2.37-1.22-.14-.08-.29-.15-.44-.22.26.01.51.03.7.04,1.07.06,2.13.19,3.21.3.33.02.65.04.97.07-.04.64-.1,1.27-.15,1.9Z"/><path class="cls-1" d="M44.68,131.43c.69.37,1.04-.3.36-.66-2.91-1.64-5.65-3.56-8.21-5.7.16-.19.32-.38.48-.56.32-.36-.55-1.13-.88-.77-.17.18-.34.37-.51.56-.09-.08-.18-.15-.26-.23-.02-.02-.03-.05-.04-.07-.31-.39-.79-.72-1.17-1.05-.07-.05-.12-.11-.19-.17-.42-.4-.83-.79-1.24-1.2-.54-.54-1.07-.04-.53.53l1.04,1.05.3.26c.33.31.67.61,1,.92-.03.09-.09.17-.12.25l-.4.84c-.08.18.03.39.22.54-1.66,2.12-3.05,4.46-4.06,7.1-.09.24.16.54.45.73.3.17.65.21.73-.02,1.06-3.02,2.72-5.73,4.69-8.13,2.59,2.17,5.37,4.12,8.33,5.79Z"/><path class="cls-1" d="M42.16,126.62l-1.08-.9-2.17-1.77-2.02-1.94c-.68-.64-1.37-1.26-1.96-1.98-.49-.54-1.02-.02-.53.53.6.73,1.3,1.36,1.99,2.01l2.05,1.96c.73.6,1.47,1.19,2.2,1.79l1.1.91c.37.3.77.55,1.16.82.62.43,1-.22.4-.63-.38-.27-.78-.51-1.14-.81Z"/><path class="cls-1" d="M36.19,133.39c-.05-.07-.12-.13-.19-.18-.14-.1-.31-.18-.45-.19h-.13c-.08.01-.15.04-.19.1-.08.09-.14.21-.16.33-.02.08-.01.17,0,.25,0,.06,0,.11.02.17.03.12.11.26.23.38.07.07.14.12.22.17.08.05.15.09.23.11.15.04.3.06.38,0,.09-.06.14-.15.11-.28,0-.03,0-.06-.01-.1,0-.05,0-.1.02-.15.02-.04.04-.07.06-.1.03-.04.04-.09.03-.15,0-.05-.01-.11-.04-.18-.03-.07-.07-.13-.13-.19Z"/><path class="cls-1" d="M23.39,118.5c.75-.57,1.47-1.18,2.16-1.82.35-.33-.33-1.36-.69-1.04-.71.64-1.45,1.23-2.22,1.79-1.08-1.55-2.12-3.13-3.09-4.75.08.05.16.1.23.15.56.35,1.11.68,1.66.99.55.31,1.16.55,1.73.8,1.16.48,2.29.89,3.39,1.21.71.22,1.52.4,2.2.34-.3,1.31-.63,2.61-1.02,3.88-.16.51.76,1.34.91.81.52-1.75.96-3.53,1.32-5.32.08-.4-.55-.98-.83-.72-.43.41-1.05.38-1.71.23-.63-.14-1.29-.34-1.95-.56-1.32-.46-2.78-.97-4.06-1.74-.93-.53-1.9-1.12-2.85-1.77-.21-.38-.43-.76-.63-1.14.62-.17,1.2-.5,1.79-.75l3.32-1.42c0,.06,0,.12.01.17.07.41.18.83.32,1.25.28.84.7,1.67,1.22,2.45.43.63.89-.03.47-.65-.78-1.16-1.26-2.58-1.23-3.76.04-.44-.32-.93-.64-.8l-3.14,1.26-1.54.61-.8.31c-.11.04-.23.11-.34.13-.04,0-.07,0-.11,0,0,0,0-.01-.01-.02-.26-.52-.88-.7-.77-.02.02.13.07.22.11.33h-.02s.03.05.05.08c.06.16.14.29.22.4.08.15.17.3.25.45-1.17-.99-2.34-2.08-3.52-3.28-.32-.33-.78-.22-.57.4,2.15,7.09,5.93,13.82,10.97,19.46.62.66,1.17.15.56-.5-4.55-5.09-8.04-11.09-10.21-17.42.7.68,1.4,1.34,2.09,1.95.56.47,1.15.9,1.75,1.31,1.2,2.09,2.49,4.12,3.86,6.09-.44.3-.88.58-1.33.85-.42.24.35,1.39.76,1.13.46-.28.9-.58,1.34-.9,1.15,1.6,2.34,3.18,3.61,4.7.58.64,1.12.12.56-.5-1.25-1.5-2.42-3.06-3.56-4.64Z"/><path class="cls-1" d="M14.7,102.52c.52-.4.71-1.21.72-2.16.03-.85.02-2.03.53-2.4.41-.29-.06-1.43-.47-1.15-.84.58-.69,2.23-.9,3.55-.13,1.53-1.57,1.44-2.54.99-.27-.12-.49-.19-.53-.68-.04-.47-.05-.94-.07-1.39-.04-.96-.06-1.9-.06-2.83-.03-.88.1-1.78.22-2.64.12-.86.27-1.7.46-2.49.27-1.32.9-2.6,1.71-3.17.85-.6,1.84-.39,2.67.3.14.12.27.27.41.41.29,3.49.9,6.94,1.88,10.3.26.74.98.52.72-.21-.85-2.95-1.43-5.98-1.75-9.03.37.55.7,1.18.98,1.84.28.68.52,1.41.71,2.15.24.73.48,1.46.65,2.19.25.94.39,1.91.61,2.85.19.72.47,1.76.34,2.43-.08.39-.44.44-.69.53l-.91.32c-.61.2-1.23.38-1.86.53-.47.11-.06,1.33.4,1.2.64-.17,1.28-.37,1.91-.59l.91-.34c.28-.11.58-.22.79-.51.37-.51.31-1.38.2-2.16-.11-.92-.45-1.81-.58-2.74-.17-.87-.37-1.75-.63-2.62-.12-.44-.29-.87-.4-1.3-.11-.44-.23-.87-.37-1.29-.51-1.6-1.31-3.05-2.19-4.2-.11-1.53-.16-3.07-.14-4.61.04-.77-.71-.8-.75-.01-.02,1.26,0,2.52.08,3.77-.75-.62-1.61-.94-2.43-.77-1.07.23-1.93,1.31-2.56,2.79-.65,1.61-.87,3.56-1.09,5.54-.03.26-.05.53-.08.79,0,.26,0,.53,0,.78,0,.54.02,1.07.03,1.59.02.55.04,1.1.06,1.64.03.54.02,1.12.21,1.67.45,1.07,1.29,1.33,1.88,1.46.7.16,1.41.09,1.94-.32Z"/><path class="cls-1" d="M16.15,94.12c-.83,0-1.65.09-2.44.32-.19.05-.34.35-.28.71.09.33.32.63.52.56.79-.25,1.61-.37,2.44-.38.2,0,.3-.38.23-.68-.08-.36-.25-.54-.46-.54Z"/><path class="cls-1" d="M29.91,124.3c-.3-.23-.53-.18-.64,0-.62.97-1.15,2.02-1.56,3.17-.18.49.88,1.31,1.06.8.38-1.15.9-2.23,1.51-3.21.11-.18-.12-.57-.36-.76Z"/><path class="cls-1" d="M15.86,82.61c-.32-1.1-.52-2.26-.64-3.43.22.01.44.03.65.05l3,.28c.48.04.65-1.1.17-1.16l-2.88-.34c-.33-.04-.68-.06-1.03-.1-.07-1.6,0-3.24.15-4.88.12-.83.23-1.66.35-2.48.13-.83.21-1.68.44-2.48.18-.81.37-1.63.56-2.46.19-.81.31-1.66.56-2.44.14-.51-.24-.8-.57-.4-1.71,2.13-3.2,4.59-4.41,7.26-.6-.06-1.19-.15-1.76-.32-.46-.14-.79,1.24-.32,1.36.5.13,1,.22,1.52.27-1.48,3.62-2.44,7.6-2.74,11.72-.21.39-.05,1.25.34,1.15,2.08-.53,4.17-.72,6.24-.67.3,0,.47-.51.37-.92ZM9.69,82.76c.32-4,1.3-7.85,2.77-11.36.21,0,.43.01.64,0,.21,0,.42-.42.44-.73.03-.38-.13-.56-.34-.56-.06,0-.13-.01-.19-.01.86-1.85,1.87-3.56,2.98-5.14-.25,1.12-.5,2.23-.74,3.33-.32,1.7-.52,3.42-.76,5.11-.14,1.48-.13,2.97-.11,4.41-.32-.07-.63-.17-.92-.36-.43-.29-.8.94-.37,1.22.41.26.86.38,1.32.44.05.6.17,1.19.26,1.78.09.48.2.94.3,1.41-1.76-.04-3.52.11-5.29.47Z"/><path class="cls-1" d="M22.06,64.9c-.35-.14-.77-.17-1.15-.25l-.99-.2c-.28-.06-.65-.26-1-.01-.35.24-.46.78-.6,1.21l-.58,1.78c-.21.65-.44,1.3-.63,1.95l-.46,2c-.28,1.34-.69,2.65-.81,4.02-.05.35.07.56.22.62.04.15.12.27.25.29.67.14,1.35.19,2.05.14.27-.02.62.02.88-.16.28-.19.36-.59.42-1,.19-1.11.51-2.2.75-3.3l.38-1.65.53-1.61.48-1.47c.17-.49.38-1.05.51-1.55.11-.41,0-.72-.24-.82ZM19.15,65.49s.01-.03,0,0h0ZM21.27,66.46l-.27.84-.55,1.68c-.45,1.16-.65,2.4-.95,3.6l-.41,1.72c-.07.26-.17.59-.17.87,0,.02,0,.04-.01.05-.06,0-.13.03-.18.03-.71.07-1.41.01-2.1-.14.14-1.1.44-2.17.68-3.26.29-1.21.51-2.44.95-3.61l.58-1.75c.1-.29.2-.58.29-.88.01-.04.02-.05.02-.08l.28.05,1.1.2.55.1c.11.02.26.02.38.05-.06.19-.15.43-.19.53Z"/><path class="cls-1" d="M18.48,58.86c1.13-.33,2.37-1.06,3.48-1.89.54-.39,1.03-.84,1.59-1.27.16-.12.31-.26.47-.38.58.26,1.15.53,1.73.8-1.17,1.57-2.3,3.17-3.37,4.83-.38.66.15,1.26.52.61,1.11-1.76,2.31-3.45,3.54-5.11.25.12.51.23.76.35.44.21,1.08-.74.65-.96-.23-.12-.47-.23-.7-.34.73-.95,1.48-1.87,2.25-2.78.14-.01.3-.09.43-.26.11-.13.17-.32.17-.47,1.05-1.21,2.12-2.4,3.23-3.55.52-.54,0-1.07-.54-.52-1.13,1.16-2.21,2.36-3.26,3.58-.29-.15-.57-.32-.85-.48.91-.96,1.71-2.01,2.59-2.98.46-.55.9-1.13,1.31-1.72.2-.3.4-.6.59-.9.19-.28.4-.56.61-.86.81-1.2,1.47-2.5,1.75-3.74.32-1.18.29-2.3-.07-3.2-.38-.92-1.22-1.69-2.79-1.38-1.33.27-2.88,1.4-3.61,2.71-.37.68.59.7.96.02.5-.94,1.65-1.64,2.52-1.77,1.1-.13,1.65.6,1.88,1.31.25.79.31,1.8,0,2.89-.31,1.08-.91,2.19-1.65,3.23-1.36,2.13-2.99,4.15-4.76,6.01-1-.58-1.97-1.19-2.92-1.84-.4-.28-1.22.75-.82,1.02.92.61,1.88,1.18,2.85,1.72-.91.9-1.84,1.74-2.79,2.54-1.27-.61-2.56-1.2-3.85-1.78-.44-.2-1.2.93-.75,1.12,1.18.5,2.35,1.01,3.51,1.53-.2.16-.4.32-.6.47-2.01,1.64-4.83,3.43-6.13,1.77-.32-.42-1.12.67-.76,1.09.72.88,1.72.94,2.8.59ZM25.19,54.35c.53-.48,1.05-.97,1.55-1.5.31-.33.64-.64.98-.95.32.17.63.35.96.51-.75.9-1.49,1.81-2.21,2.74-.47-.23-.94-.46-1.41-.69.04-.04.09-.07.14-.11Z"/><path class="cls-1" d="M22.69,46.36c-.06.26.06.4.27.4.94-.01,1.88-.06,2.83-.13.48-.05.96-.09,1.43-.13.5-.04,1-.08,1.5-.12.53-.05,1.02-.87.6-1.04-1.4-.55-2.17-1.92-1.96-3.83.05-.46.27-1.17-.33-1.06-.58.11-1.07.89-1.48,1.39-.52.64-1.07,1.26-1.61,1.88-.51.66-1.03,1.3-1.56,1.93-.49.58-.14.98.31.7ZM24.97,43.69c.32-.37.64-.75.97-1.13.11-.13.22-.27.33-.4,0,.03,0,.07-.01.11-.02.29-.02.57,0,.84.04.54.16,1.03.36,1.46.16.34.37.62.61.88-.33.02-.66.05-.99.06-.95.06-1.89.1-2.82.1,0,0-.02,0-.03,0,.52-.64,1.03-1.31,1.58-1.92Z"/><path class="cls-1" d="M35.05,35.04c.93-.12,1.82-.31,2.77-.42.91-.1,1.82-.21,2.73-.33-.54.63-.98,1.27-1.2,1.91-.43,1.24.19,2.23,1.11,2.77,1.07.64,2.55.82,3.93,1.03.58.09,1.02-.8.44-.89-1.86-.3-4.49-.6-4.46-2.54.02-.78.66-1.65,1.41-2.46.56-.09,1.13-.18,1.71-.23.97-.09,1.94-.19,2.9-.31.88-.08,1.65-.25,2.34-.88.62-.61,1.19-1.25,1.86-1.86.62-.55,1.26-1.16,1.98-1.65.19-.02.38-.03.56-.05,1.31-.08,2.59-.08,3.78.02,1.02.06,2.17.42,2.71.95.64.65.13,1.49-.81,2.07-1.21.77-2.81,1.18-4.3,1.37-.76.11-.84.88-.09.77,1.53-.2,3.11-.58,4.47-1.27,1.1-.51,2.04-1.31,2.22-2.16.2-.98-.56-1.62-1.73-2.04-.58-.21-1.27-.36-1.96-.48-.69-.06-1.39-.07-2.02-.08-.48-.01-.98,0-1.47.03.44-.27.89-.54,1.35-.8.49-.28.99-.55,1.5-.81.52-.25,1.06-.44,1.6-.65,1.09-.41,2.22-.78,3.37-1.13.55-.17.58-.65.06-.71-1.55-.18-3.26-.05-4.99.19-1.71.34-3.42.89-5.04,1.32-1.86.56-3.65,1.32-5.47,1.98-1.77.78-3.5,1.67-5.24,2.52l-2.81,1.69c-.93.58-1.89,1.1-2.75,1.78-.24.17-.34.36-.36.5-.46.31-.65.92-.08.84ZM49,31.18c-.27.27-.54.54-.81.82-.13.14-.25.29-.4.43-.18.18-.33.18-.57.21-.92.12-1.84.23-2.76.32-.54.06-1.08.1-1.62.16.22-.17.44-.34.68-.5.54-.38,1.12-.74,1.7-1.07.61-.35,1.24-.67,1.88-.97.66-.24,1.33-.46,2.01-.65.59-.17,1.17-.31,1.75-.44-.66.56-1.29,1.12-1.87,1.69ZM38.9,32.4c1.03-.59,2-1.28,3.07-1.79,2.14-1.03,4.23-2.16,6.48-2.92,1.1-.4,2.19-.86,3.31-1.19l3.4-.92c.5-.13,1.01-.26,1.51-.38.52-.08,1.03-.15,1.55-.2.34-.03.67-.05,1-.06-.28.1-.57.18-.85.28-.45.17-.92.35-1.39.52-.46.18-.89.44-1.32.66-.86.46-1.7.93-2.49,1.42-.34.22-.69.44-1.05.67-2.09.3-4.21.91-6.2,1.83-1.45.76-2.9,1.58-4.06,2.61-.13.12-.25.24-.38.36-.96.14-1.92.26-2.89.37-.51.05-1.03.11-1.56.16-.18.02-.36.05-.54.08.78-.54,1.61-.99,2.41-1.5Z"/><path class="cls-1" d="M45.27,35.89l1.47,3.16c.21.44,1.23-.06,1.04-.5l-1.4-3.2c-.19-.44-1.31.1-1.11.54Z"/><path class="cls-1" d="M48.32,34.19c-.29.21-.33.45-.2.61.6.7,1.12,1.45,1.56,2.25.1.17.38.23.68.12.28-.1.49-.37.4-.55-.46-.87-1-1.7-1.64-2.48-.13-.16-.56-.14-.8.06Z"/><path class="cls-1" d="M98.39,2.26V0h-16.28v2.26s5.84.79,6.11,4.46v26.89c-.27,3.67-6.11,4.46-6.11,4.46v2.26h16.28v-2.26s-5.85-.79-6.11-4.47V6.73c.26-3.68,6.11-4.47,6.11-4.47Z"/><path class="cls-1" d="M70.33,40.28h2V6.77c.15-3.73,6.06-4.53,6.06-4.53V0h-16.12v2.24s5.91.79,6.06,4.53v29.55c-25.62,1.05-46.14,22.23-46.14,48.1s20.52,47.05,46.14,48.1v29.55c-.15,3.74-6.06,4.53-6.06,4.53v2.24h16.12v-2.24s-5.91-.79-6.06-4.53v-33.51h-2c-24.34,0-44.14-19.8-44.14-44.14s19.8-44.14,44.14-44.14Z"/><path class="cls-1" d="M98.39,130.77v-2.26h-16.28v2.26s5.84.79,6.11,4.46v26.89c-.27,3.67-6.11,4.46-6.11,4.46v2.26h16.28v-2.26s-5.85-.79-6.11-4.47v-26.88c.26-3.68,6.11-4.47,6.11-4.47Z"/><path class="cls-1" d="M69.29,82.87c-.3-.34-7.08-7.8-16.02-8.83v-3.05c.26-3.68,6.11-4.47,6.11-4.47v-2.26h-16.28v2.26s5.84.79,6.11,4.46v3.06c-8.94,1.03-15.72,8.49-16.02,8.83l-1.19,1.33,1.19,1.33c.3.34,7.08,7.8,16.02,8.83v3.5c-.27,3.67-6.11,4.46-6.11,4.46v2.26h16.28v-2.26s-5.85-.79-6.11-4.47v-3.5c8.94-1.03,15.72-8.49,16.02-8.83l1.19-1.33-1.19-1.33ZM37.53,84.2c2.12-1.94,6.52-5.37,11.68-6.13v12.27c-5.14-.76-9.55-4.2-11.68-6.14ZM53.27,90.34v-12.26c5.14.76,9.55,4.2,11.68,6.13-2.13,1.94-6.54,5.37-11.68,6.13Z"/><path class="cls-1" d="M555.01,14.02H70.4C31.58,14.02,0,45.6,0,84.43s31.58,70.4,70.4,70.4h484.6c38.82,0,70.4-31.58,70.4-70.4s-31.58-70.4-70.4-70.4ZM555.01,148.83H70.4c-35.51,0-64.4-28.89-64.4-64.4S34.89,20.02,70.4,20.02h484.6c35.51,0,64.4,28.89,64.4,64.4s-28.89,64.4-64.4,64.4Z"/><path class="cls-1" d="M566.69,33.88c1.19.34,2.49.52,3.7.63,1.28.07,2.48.36,3.74.46.03,0,.06,0,.09,0-.05,1-.09,2-.12,3-.01.49,1.07.7,1.1.22.05-1.04.12-2.08.18-3.12.21.02.41.04.62.05.63.04,1.22.16,1.83.21,1.21.13,2.42.21,3.64.24.21.02.43.03.65.05.04.03.09.05.14.08.77.44,1.54.88,2.32,1.32.78.42,1.57.84,2.3,1.35.36.23.87.25.77-.14-.18-.61-.84-1.38-1.66-1.47-.14-.02-.24,0-.31.05-.71-.41-1.41-.83-2.13-1.23.36-.05.7-.12.98-.26.74-.37.87-1.16.3-2.1-.28-.47-.69-.95-1.14-1.42-.47-.44-1-.84-1.49-1.24-.57-.45-1.17-.89-1.8-1.32-.62-.43-1.26-.86-1.95-1.18-1.37-.69-2.81-1.32-4.27-1.85-1.5-.42-3.03-.76-4.53-1-.67-.13-1.38-.16-2.04-.12-.66.04-1.27.15-1.76.37-.92.42-1.23,1.16-.6,1.92.61.75,1.79,1.25,2.87,1.74,1.47.76,3.04,1.35,4.59,1.94.56.27,1.13.53,1.7.79-.05.78-.1,1.56-.14,2.34-.38-.04-.77-.08-1.15-.13-.61-.06-1.19-.2-1.81-.24-.62-.05-1.23-.11-1.84-.18-1.28-.14-2.61-.4-3.82-.83-2.15-.87-2.69-2.86-.87-3.68.59-.26-.21-.95-.8-.69-1.86.84-2,2.57-.48,3.97.86.79,1.98,1.22,3.2,1.46ZM572.58,30.2c-1.17-.44-2.34-.91-3.47-1.45-.92-.49-2.14-.92-2.69-1.55-.62-.7.25-1.21,1.26-1.33,1.12-.18,2.43.18,3.61.4,2.61.44,5.1,1.57,7.39,2.77,1.13.67,2.17,1.46,3.15,2.24.39.32.84.67,1.23,1.04.39.38.69.81.84,1.19.35.9-.38,1.17-1.35,1.22-.19,0-.41,0-.62,0-2.07-1.1-4.16-2.16-6.29-3.14.09-1.01.2-2.03.33-3.04.03-.21-.13-.45-.5-.59-.31-.12-.74-.09-.76.11-.11.99-.19,1.98-.27,2.97-.62-.28-1.24-.57-1.87-.85ZM575.58,32.38c.64.29,1.29.57,1.93.87.79.42,1.58.83,2.37,1.22.14.08.29.15.44.22-.26-.01-.51-.03-.7-.04-1.07-.06-2.13-.19-3.21-.3-.33-.02-.65-.04-.97-.07.04-.64.09-1.27.15-1.9Z"/><path class="cls-1" d="M580.73,37.42c-.69-.37-1.03.3-.36.66,2.91,1.64,5.65,3.56,8.21,5.7-.16.19-.32.38-.48.56-.32.36.55,1.13.88.77.17-.18.34-.37.51-.56.09.08.18.15.26.23.02.02.03.05.04.07.31.39.79.72,1.17,1.05.07.05.12.11.18.17.42.4.83.8,1.24,1.21.54.54,1.07.04.53-.53l-1.04-1.05-.3-.26c-.33-.31-.67-.61-1-.91.03-.09.09-.17.12-.25l.4-.84c.08-.18-.03-.39-.22-.54,1.66-2.12,3.05-4.46,4.06-7.1.09-.24-.16-.54-.45-.73-.3-.17-.65-.21-.73.02-1.06,3.02-2.72,5.73-4.69,8.13-2.59-2.17-5.37-4.12-8.33-5.78Z"/><path class="cls-1" d="M589.02,46.28l-2.05-1.96c-.73-.6-1.47-1.19-2.2-1.79l-1.1-.91c-.37-.3-.77-.55-1.16-.82-.62-.43-1,.22-.4.63.38.27.78.51,1.14.81l1.08.9,2.17,1.77,2.02,1.94c.68.64,1.37,1.26,1.96,1.98.49.54,1.02.02.53-.53-.6-.73-1.3-1.36-1.99-2.01Z"/><path class="cls-1" d="M589.22,35.46c.05.07.12.13.19.18.14.1.31.18.45.19h.13c.08-.01.15-.04.19-.1.08-.09.14-.21.16-.33.02-.08.01-.17,0-.25,0-.05,0-.11-.02-.17-.03-.12-.11-.26-.23-.38-.06-.07-.14-.12-.22-.17-.08-.05-.15-.09-.23-.11-.15-.04-.3-.06-.38,0-.09.06-.14.15-.11.28,0,.03,0,.06.01.1,0,.05,0,.1-.02.15-.02.04-.04.07-.06.1-.03.04-.04.09-.03.15,0,.05.01.11.04.18.03.07.07.13.13.19Z"/><path class="cls-1" d="M602.03,50.35c-.75.57-1.47,1.18-2.16,1.82-.35.33.33,1.36.69,1.04.71-.64,1.45-1.23,2.22-1.79,1.08,1.55,2.12,3.13,3.09,4.75-.08-.05-.16-.1-.23-.15-.56-.35-1.11-.68-1.66-.99-.55-.31-1.16-.55-1.73-.8-1.16-.48-2.29-.89-3.39-1.21-.71-.22-1.52-.4-2.2-.34.3-1.31.63-2.61,1.02-3.88.16-.51-.76-1.34-.91-.81-.52,1.75-.96,3.53-1.32,5.32-.08.4.55.98.83.72.43-.41,1.05-.38,1.71-.23.63.14,1.29.34,1.95.56,1.32.46,2.78.97,4.06,1.74.93.53,1.9,1.12,2.85,1.77.21.38.43.76.63,1.14-.62.17-1.2.5-1.79.75l-3.32,1.42c0-.06,0-.12-.01-.17-.07-.41-.18-.83-.32-1.25-.28-.84-.7-1.67-1.22-2.45-.43-.63-.89.03-.47.65.78,1.16,1.26,2.58,1.23,3.76-.04.44.32.93.64.8l3.14-1.26,1.54-.61.8-.31c.11-.04.23-.11.34-.13.04,0,.07,0,.11,0,0,0,0,.01.01.02.26.52.88.7.77.02-.02-.13-.07-.22-.11-.33h.02s-.03-.05-.05-.08c-.06-.16-.14-.29-.22-.4-.08-.15-.17-.3-.25-.45,1.17.99,2.34,2.08,3.52,3.28.32.33.78.22.57-.4-2.15-7.09-5.92-13.82-10.97-19.46-.62-.66-1.17-.15-.56.5,4.55,5.09,8.04,11.09,10.21,17.43-.7-.68-1.4-1.34-2.09-1.95-.56-.47-1.15-.9-1.75-1.31-1.2-2.09-2.49-4.12-3.86-6.09.44-.3.88-.58,1.33-.85.42-.24-.35-1.39-.76-1.13-.46.28-.9.58-1.34.9-1.15-1.6-2.34-3.18-3.61-4.7-.58-.64-1.12-.12-.56.5,1.25,1.5,2.42,3.06,3.56,4.64Z"/><path class="cls-1" d="M610.71,66.34c-.52.4-.71,1.21-.72,2.16-.03.85-.02,2.03-.53,2.4-.41.29.06,1.43.47,1.15.84-.58.69-2.23.9-3.55.13-1.53,1.57-1.44,2.54-.99.27.12.49.19.53.68.04.47.05.94.07,1.39.04.96.06,1.9.06,2.83.03.88-.1,1.78-.22,2.64-.12.86-.27,1.7-.46,2.49-.27,1.32-.9,2.6-1.71,3.17-.85.6-1.84.39-2.67-.3-.14-.12-.27-.27-.41-.41-.29-3.49-.9-6.94-1.88-10.3-.26-.74-.98-.52-.72.21.85,2.95,1.43,5.98,1.75,9.04-.37-.55-.7-1.18-.98-1.84-.28-.68-.52-1.41-.71-2.15-.24-.73-.48-1.46-.65-2.19-.25-.94-.39-1.91-.61-2.85-.19-.72-.47-1.76-.34-2.43.08-.39.44-.44.69-.53l.91-.32c.61-.2,1.23-.38,1.86-.53.47-.11.06-1.33-.4-1.2-.64.17-1.28.37-1.91.59l-.91.34c-.28.11-.58.22-.79.51-.37.51-.31,1.38-.2,2.16.11.92.45,1.81.58,2.74.17.87.37,1.75.63,2.62.12.44.29.87.4,1.3.11.44.23.87.37,1.29.51,1.6,1.31,3.05,2.19,4.2.11,1.53.16,3.07.14,4.61-.04.77.71.8.75.01.02-1.26,0-2.52-.08-3.77.75.62,1.61.94,2.43.77,1.07-.23,1.93-1.31,2.56-2.8.65-1.61.87-3.56,1.09-5.54.03-.26.05-.53.08-.79,0-.26,0-.53,0-.78,0-.54-.02-1.07-.03-1.59-.02-.55-.04-1.1-.06-1.64-.03-.54-.02-1.12-.2-1.67-.45-1.07-1.29-1.33-1.88-1.46-.7-.16-1.41-.09-1.94.32Z"/><path class="cls-1" d="M609.26,74.73c.83,0,1.65-.09,2.44-.32.19-.05.34-.35.28-.71-.09-.33-.32-.63-.52-.56-.79.25-1.61.37-2.44.38-.2,0-.3.38-.23.68.08.36.25.54.46.54Z"/><path class="cls-1" d="M595.51,44.56c.3.23.53.18.64,0,.62-.97,1.15-2.02,1.56-3.17.18-.49-.88-1.31-1.06-.8-.39,1.15-.9,2.23-1.51,3.21-.11.18.12.57.36.76Z"/><path class="cls-1" d="M604.64,98.51l-.53,1.61-.48,1.47c-.17.49-.38,1.05-.51,1.55-.11.41-.01.72.24.82.35.14.77.17,1.15.25l.99.2c.28.06.65.26,1,.01.35-.24.46-.78.61-1.21l.58-1.78c.21-.65.44-1.3.63-1.95l.46-2c.28-1.34.69-2.65.81-4.02.05-.35-.07-.56-.22-.62-.04-.15-.12-.27-.25-.29-.67-.14-1.35-.19-2.05-.14-.27.02-.62-.02-.88.16-.28.19-.36.59-.42,1-.19,1.11-.51,2.2-.75,3.3l-.38,1.65ZM606.26,103.37s-.01.03,0,0h0ZM605.93,96.28l.41-1.72c.07-.26.17-.59.17-.87,0-.02,0-.04.01-.05.06-.01.13-.03.18-.03.71-.07,1.41-.01,2.1.14-.14,1.1-.44,2.17-.68,3.26-.29,1.21-.51,2.44-.95,3.61l-.58,1.75c-.1.29-.2.58-.29.88-.01.04-.02.05-.02.08l-.28-.05-1.1-.2-.55-.1c-.11-.02-.26-.02-.38-.05.06-.19.15-.43.19-.53l.27-.84.55-1.68c.45-1.16.65-2.4.95-3.6Z"/><path class="cls-1" d="M615.29,97.78c-.5-.13-1-.22-1.52-.27,1.48-3.62,2.44-7.6,2.74-11.72.21-.39.05-1.25-.34-1.15-2.08.53-4.17.72-6.24.67-.3,0-.47.51-.37.92.32,1.1.52,2.26.64,3.43-.22-.01-.44-.03-.65-.05l-3-.28c-.48-.04-.65,1.1-.17,1.16l2.88.34c.33.04.68.06,1.03.1.07,1.6,0,3.24-.15,4.88-.12.83-.23,1.66-.35,2.48-.13.83-.21,1.68-.44,2.48-.18.81-.37,1.63-.56,2.46-.19.82-.31,1.66-.56,2.44-.14.51.24.8.57.4,1.71-2.13,3.2-4.59,4.41-7.26.6.06,1.19.15,1.76.32.46.14.79-1.24.32-1.36ZM609.42,103.91c.25-1.12.5-2.23.74-3.33.32-1.7.52-3.42.76-5.11.14-1.48.13-2.97.11-4.41.32.07.63.17.92.36.43.29.8-.94.37-1.22-.41-.26-.86-.38-1.32-.44-.05-.6-.17-1.19-.26-1.78-.09-.48-.2-.94-.3-1.41,1.76.04,3.52-.11,5.29-.47-.32,4-1.3,7.86-2.77,11.36-.21,0-.43-.01-.64,0-.21,0-.42.42-.44.73-.03.38.13.56.34.56.06,0,.13.01.19.01-.86,1.85-1.87,3.56-2.98,5.14Z"/><path class="cls-1" d="M606.93,110c-1.13.33-2.37,1.06-3.48,1.89-.54.39-1.03.84-1.59,1.27-.16.12-.31.26-.47.38-.58-.26-1.15-.53-1.73-.8,1.17-1.57,2.3-3.17,3.37-4.83.38-.66-.15-1.26-.52-.61-1.11,1.76-2.31,3.45-3.55,5.11-.25-.12-.51-.23-.76-.35-.44-.21-1.08.74-.65.96.23.12.47.23.7.34-.73.95-1.48,1.87-2.25,2.78-.14.01-.3.09-.43.26-.11.13-.17.32-.17.47-1.05,1.21-2.12,2.4-3.23,3.55-.52.54,0,1.07.54.52,1.13-1.16,2.21-2.36,3.26-3.58.29.15.57.32.85.48-.91.96-1.71,2.01-2.59,2.98-.46.55-.9,1.13-1.31,1.72-.2.3-.4.6-.59.9-.19.28-.4.56-.61.86-.81,1.2-1.47,2.5-1.75,3.74-.32,1.18-.29,2.3.07,3.2.38.92,1.22,1.69,2.79,1.38,1.33-.27,2.88-1.4,3.61-2.71.37-.68-.59-.7-.96-.02-.5.94-1.65,1.64-2.52,1.77-1.1.13-1.65-.6-1.88-1.31-.25-.79-.31-1.8,0-2.89.31-1.08.91-2.19,1.65-3.23,1.36-2.13,2.99-4.15,4.76-6.01,1,.58,1.97,1.19,2.92,1.84.4.28,1.22-.75.82-1.02-.92-.61-1.88-1.18-2.85-1.72.91-.9,1.84-1.74,2.79-2.54,1.27.61,2.56,1.2,3.85,1.78.44.2,1.2-.93.75-1.12-1.18-.5-2.35-1.01-3.51-1.53.2-.16.4-.32.6-.47,2.01-1.64,4.83-3.43,6.13-1.77.32.42,1.12-.67.76-1.09-.72-.88-1.72-.94-2.8-.59ZM600.22,114.5c-.53.48-1.05.97-1.55,1.5-.31.33-.64.64-.98.95-.32-.17-.63-.35-.96-.51.75-.9,1.49-1.81,2.21-2.74.47.23.94.46,1.41.69-.04.04-.09.07-.14.11Z"/><path class="cls-1" d="M602.72,122.49c.06-.26-.06-.4-.27-.4-.94.01-1.88.06-2.83.13-.48.05-.96.09-1.43.13-.5.04-1,.08-1.5.12-.53.05-1.02.87-.6,1.04,1.4.55,2.17,1.92,1.96,3.83-.05.46-.27,1.17.33,1.06.58-.11,1.06-.89,1.48-1.39.52-.64,1.07-1.26,1.61-1.88.51-.66,1.03-1.3,1.56-1.93.49-.58.14-.98-.31-.7ZM600.44,125.17c-.32.37-.64.75-.97,1.13-.11.13-.22.27-.33.4,0-.03,0-.07.01-.11.02-.29.02-.57,0-.84-.04-.54-.16-1.03-.36-1.46-.16-.34-.37-.62-.61-.88.33-.02.66-.05.99-.06.95-.06,1.89-.1,2.82-.1,0,0,.02,0,.03,0-.52.64-1.03,1.31-1.58,1.92Z"/><path class="cls-1" d="M590.36,133.81c-.93.12-1.82.31-2.77.42-.91.1-1.82.21-2.73.33.54-.63.98-1.27,1.2-1.91.43-1.24-.19-2.23-1.11-2.77-1.07-.64-2.55-.82-3.93-1.03-.58-.09-1.02.8-.44.89,1.86.3,4.49.6,4.46,2.54-.02.78-.66,1.65-1.41,2.46-.56.09-1.13.18-1.71.23-.97.09-1.94.19-2.9.31-.88.08-1.65.25-2.34.88-.62.61-1.19,1.25-1.86,1.86-.62.55-1.26,1.16-1.98,1.65-.19.02-.38.03-.56.05-1.31.08-2.59.08-3.78-.02-1.02-.06-2.17-.42-2.71-.95-.64-.64-.13-1.49.81-2.07,1.21-.77,2.81-1.18,4.29-1.37.76-.11.84-.88.09-.77-1.53.2-3.11.58-4.47,1.28-1.1.51-2.04,1.31-2.22,2.16-.2.98.56,1.62,1.73,2.04.58.21,1.27.36,1.97.48.69.06,1.39.07,2.02.07.48.01.98,0,1.47-.03-.44.27-.89.54-1.35.8-.49.28-.99.55-1.5.81-.51.25-1.06.44-1.6.65-1.09.41-2.22.78-3.37,1.13-.55.17-.58.65-.06.71,1.55.18,3.26.05,4.99-.19,1.71-.34,3.42-.89,5.04-1.32,1.86-.56,3.65-1.32,5.47-1.99,1.77-.78,3.5-1.67,5.24-2.52l2.81-1.69c.93-.58,1.89-1.1,2.75-1.78.24-.17.34-.36.36-.5.46-.31.65-.93.08-.84ZM576.41,137.68c.27-.27.54-.54.81-.82.12-.14.25-.29.4-.43.18-.18.33-.18.57-.21.92-.12,1.84-.23,2.76-.32.54-.06,1.08-.1,1.62-.16-.22.17-.44.34-.68.5-.54.38-1.12.74-1.7,1.07-.61.35-1.24.67-1.88.97-.66.24-1.33.46-2.01.65-.59.17-1.17.31-1.75.44.66-.56,1.28-1.12,1.87-1.69ZM586.51,136.46c-1.03.59-2,1.28-3.07,1.79-2.14,1.03-4.23,2.16-6.48,2.92-1.1.4-2.19.86-3.31,1.19l-3.4.92c-.5.13-1.01.26-1.51.39-.52.08-1.03.15-1.55.2-.34.03-.67.05-1,.06.28-.1.57-.18.85-.28.45-.17.92-.35,1.39-.52.46-.19.89-.44,1.32-.66.86-.46,1.7-.93,2.49-1.42.34-.22.69-.44,1.05-.67,2.09-.3,4.21-.91,6.2-1.83,1.45-.76,2.89-1.58,4.06-2.61.13-.12.25-.24.37-.36.96-.14,1.92-.26,2.89-.37.51-.05,1.03-.11,1.56-.16.18-.02.36-.05.54-.08-.78.54-1.61.99-2.4,1.5Z"/><path class="cls-1" d="M577.63,130.31l1.4,3.2c.19.44,1.31-.1,1.11-.54l-1.47-3.16c-.21-.44-1.23.06-1.04.5Z"/><path class="cls-1" d="M575.04,131.69c-.28.1-.49.37-.4.55.46.87,1,1.7,1.64,2.48.13.16.56.13.8-.06.29-.21.33-.45.2-.61-.6-.7-1.12-1.45-1.56-2.25-.1-.17-.38-.23-.68-.12Z"/><path class="cls-1" d="M543.3,2.26V0h-16.28v2.26s5.85.79,6.11,4.46v26.89c-.26,3.68-6.11,4.46-6.11,4.46v2.26h16.28v-2.26s-5.85-.79-6.11-4.47V6.73c.26-3.68,6.11-4.47,6.11-4.47Z"/><path class="cls-1" d="M603.22,84.43c0-25.88-20.52-47.05-46.14-48.1V6.77c.15-3.73,6.06-4.53,6.06-4.53V0h-16.12v2.24s5.91.79,6.06,4.53v33.51h2c24.34,0,44.14,19.8,44.14,44.14s-19.8,44.14-44.14,44.14h-2v33.51c-.15,3.73-6.06,4.53-6.06,4.53v2.24h16.12v-2.24s-5.91-.79-6.06-4.53v-29.55c25.62-1.05,46.14-22.23,46.14-48.1Z"/><path class="cls-1" d="M543.3,130.77v-2.26h-16.28v2.26s5.85.79,6.11,4.46v26.89c-.26,3.68-6.11,4.46-6.11,4.46v2.26h16.28v-2.26s-5.85-.79-6.11-4.47v-26.88c.26-3.68,6.11-4.47,6.11-4.47Z"/><path class="cls-1" d="M592.22,82.87c-.3-.34-7.08-7.8-16.02-8.83v-3.06c.26-3.68,6.11-4.46,6.11-4.46v-2.26h-16.28v2.26s5.85.79,6.11,4.46v3.06c-8.94,1.03-15.72,8.49-16.02,8.83l-1.19,1.33,1.19,1.33c.3.34,7.08,7.8,16.02,8.83v3.5c-.26,3.68-6.11,4.46-6.11,4.46v2.26h16.28v-2.26s-5.85-.79-6.11-4.46v-3.5c8.94-1.03,15.72-8.49,16.02-8.83l1.19-1.33-1.19-1.33ZM560.47,84.21c2.13-1.94,6.54-5.37,11.68-6.13v12.26c-5.14-.76-9.55-4.2-11.68-6.13ZM576.2,90.34v-12.26c5.14.76,9.55,4.2,11.68,6.13-2.13,1.94-6.54,5.37-11.68,6.13Z"/></g></svg>