<?xml version="1.0" encoding="UTF-8"?><svg id="Layer_1" xmlns="http://www.w3.org/2000/svg" viewBox="0 0 638.6 140.81"><defs><style>.cls-1{fill:#fff;}</style></defs><g id="Button_8"><path class="cls-1" d="M56.13,58.58s-1,8.89-5.59,9.83h-3.01c-.93-8.36-7.58-15.01-15.94-15.94v-13.01c.94-4.59,9.83-5.59,9.83-5.59v-3.06h-23.66v3.06s8.89,1,9.83,5.59v13.01c-8.36.93-15.01,7.58-15.94,15.94h-3.01c-4.59-.94-5.59-9.83-5.59-9.83H0v23.66h3.06s1-8.89,5.59-9.83h3.01c.93,8.36,7.58,15.01,15.94,15.94v13.01c-.94,4.59-9.83,5.59-9.83,5.59v3.06h23.66v-3.06s-8.89-1-9.83-5.59v-13.01c8.36-.93,15.01-7.58,15.94-15.94h3.01c4.59.94,5.59,9.83,5.59,9.83h3.06v-23.66h-3.06ZM43.49,68.41h-11.89v-11.89c6.15.88,11.01,5.75,11.89,11.89ZM27.6,56.51v11.89h-11.89c.88-6.15,5.75-11.01,11.89-11.89ZM15.7,72.41h11.89v11.89c-6.15-.88-11.01-5.75-11.89-11.89ZM31.6,84.3v-11.89h11.89c-.88,6.15-5.75,11.01-11.89,11.89Z"/><path class="cls-1" d="M35.43,117.05c.84-.84,1.8-1.51,2.81-2.01-.25.21-.5.43-.74.67-3.9,3.9-3.9,10.21,0,14.11,3.9,3.9,10.21,3.9,14.11,0,.24-.24.46-.48.67-.74-.5,1.02-1.16,1.97-2.01,2.81-4.1,4.1-10.74,4.1-14.84,0-4.1-4.1-4.1-10.74,0-14.84Z"/><path class="cls-1" d="M35.43,23.76c.84.84,1.8,1.51,2.81,2.01-.25-.21-.5-.43-.74-.67-3.9-3.9-3.9-10.21,0-14.11,3.9-3.9,10.21-3.9,14.11,0,.24.24.46.48.67.74-.5-1.02-1.16-1.97-2.01-2.81-4.1-4.1-10.74-4.1-14.84,0-4.1,4.1-4.1,10.74,0,14.84Z"/><polygon class="cls-1" points="32.6 6 606.01 6 606.01 30.81 612.01 30.81 612.01 0 26.6 0 26.6 30.81 32.6 30.81 32.6 6"/><polygon class="cls-1" points="606.01 109.68 606.01 134.81 32.6 134.81 32.6 109.68 26.6 109.68 26.6 140.81 612.01 140.81 612.01 109.68 606.01 109.68"/><path class="cls-1" d="M635.54,58.58s-1,8.89-5.59,9.83h-3.01c-.93-8.36-7.58-15.01-15.94-15.94v-13.01c.94-4.59,9.83-5.59,9.83-5.59v-3.06h-23.66v3.06s8.89,1,9.83,5.59v13.01c-8.36.93-15.01,7.58-15.94,15.94h-3.01c-4.59-.94-5.59-9.83-5.59-9.83h-3.06v23.66h3.06s1-8.89,5.59-9.83h3.01c.93,8.36,7.58,15.01,15.94,15.94v13.01c-.94,4.59-9.83,5.59-9.83,5.59v3.06h23.66v-3.06s-8.89-1-9.83-5.59v-13.01c8.36-.93,15.01-7.58,15.94-15.94h3.01c4.59.94,5.59,9.83,5.59,9.83h3.06v-23.66h-3.06ZM622.9,68.41h-11.89v-11.89c6.15.88,11.01,5.75,11.89,11.89ZM607.01,56.51v11.89h-11.89c.88-6.15,5.75-11.01,11.89-11.89ZM595.11,72.41h11.89v11.89c-6.15-.88-11.01-5.75-11.89-11.89ZM611.01,84.3v-11.89h11.89c-.88,6.15-5.75,11.01-11.89,11.89Z"/><path class="cls-1" d="M603.18,117.05c-.84-.84-1.8-1.51-2.81-2.01.25.21.5.43.74.67,3.9,3.9,3.9,10.21,0,14.11-3.9,3.9-10.21,3.9-14.11,0-.24-.24-.46-.48-.67-.74.5,1.02,1.16,1.97,2.01,2.81,4.1,4.1,10.74,4.1,14.84,0,4.1-4.1,4.1-10.74,0-14.84Z"/><path class="cls-1" d="M603.18,23.76c-.84.84-1.8,1.51-2.81,2.01.25-.21.5-.43.74-.67,3.9-3.9,3.9-10.21,0-14.11s-10.21-3.9-14.11,0c-.24.24-.46.48-.67.74.5-1.02,1.16-1.97,2.01-2.81,4.1-4.1,10.74-4.1,14.84,0,4.1,4.1,4.1,10.74,0,14.84Z"/></g></svg>