<?xml version="1.0" encoding="UTF-8"?><svg id="Layer_1" xmlns="http://www.w3.org/2000/svg" viewBox="0 0 661.23 209.23"><defs><style>.cls-1{fill:#fff;}</style></defs><g id="Button_6"><path class="cls-1" d="M166.15,209.23s-6.15-9.05-7.24-15.61v-42.43c2.21-2.02,6.02-2.54,6.02-2.54v-2.79h-20.04v2.79s3.82.52,6.02,2.54v34.86L24.68,104.62,150.91,23.18v34.86c-2.21,2.02-6.02,2.54-6.02,2.54v2.79h20.04v-2.79s-3.82-.52-6.02-2.54V15.61c1.09-6.56,7.24-15.61,7.24-15.61,0,0-10.09,9.55-14.7,13.31L17.53,99.71c-7.05,3.34-17.53,4.91-17.53,4.91,0,0,10.49,1.57,17.54,4.91l133.91,86.39c4.6,3.76,14.7,13.31,14.7,13.31Z"/><path class="cls-1" d="M83.62,82.83c-12.01,0-21.79,9.77-21.79,21.79s9.77,21.79,21.79,21.79,21.79-9.77,21.79-21.79-9.77-21.79-21.79-21.79ZM83.62,122.4c-9.81,0-17.79-7.98-17.79-17.79s7.98-17.79,17.79-17.79,17.79,7.98,17.79,17.79-7.98,17.79-17.79,17.79Z"/><path class="cls-1" d="M95.07,101.71c-.81.04-1.5.66-1.5,1.5v6.13c0,.78.69,1.54,1.5,1.5.81-.04,1.5-.66,1.5-1.5v-6.13c0-.78-.69-1.54-1.5-1.5Z"/><path class="cls-1" d="M86.88,97.34c-.96-.5-1.95-.78-3.01-.42-1.13.38-1.72,1.37-2.61,2.08-1.67,1.35-4.07,1.26-6.06.91-.61-.11-1.22-.24-1.83-.38.04,0,0,0-.08-.02.01-.06.03-.12.04-.17.24-.87.62-1.66,1.11-2.42,1.08-1.67,2.8-2.96,4.77-3.36,2.58-.52,5.2.74,7.47,1.8,1.74.81,3.26-1.77,1.51-2.59-3.72-1.73-7.7-3.25-11.69-1.46-3.09,1.39-5.51,4.45-6.19,7.76-.22,1.07-.16,2.1.8,2.79.8.57,1.99.69,2.93.87,2.06.4,4.21.61,6.26.03.91-.26,1.78-.66,2.54-1.21.35-.25.67-.53.97-.84.26-.26.61-.82.97-.93.58-.17,1.7.79,2.18,1.11.81.53,1.64,1.1,2.33,1.79.64.64.91,1.26.27,2-.6.69-1.67,1.25-2.58,1.34-.38.04-1.7-.26-1.39-.84.27-.51,1.54-.24,1.97-.16,1.88.38,2.69-2.51.8-2.89-1.88-.38-4.19-.36-5.31,1.48-1.17,1.9.08,4.33,2,5.11,3.91,1.57,9.95-2.97,7.2-7.15-1.2-1.82-3.48-3.24-5.37-4.23Z"/><path class="cls-1" d="M83.9,108.51c-1.77-.3-3.56-.08-5.29.34-.82.2-1.62.48-2.44.69-.3.08-.63.15-.95.1-.17-.14-.33-.27-.5-.41-.57-.48-1.35-.61-1.97-.12-.55.44-.82,1.31-.39,1.93.08.11.16.2.24.3,0,0,0,0,0,0,.01,0,.02.02.03.03.31.37.66.65,1.03.84,2.24,1.86,4.51,3.68,6.82,5.45.64.49,1.68.1,2.05-.54.45-.77.11-1.56-.54-2.05-1.27-.98-2.53-1.97-3.77-2.98,1.07-.3,2.14-.63,3.1-.71.67-.06,1.43-.07,1.97.04.55.11.99.22,1.28.61.23.31.21,1.08.2,1.55-.03.81-.16,1.59-.37,2.37-.5,1.87,2.39,2.66,2.89.8.44-1.63.78-3.68.26-5.34-.52-1.63-2.01-2.63-3.64-2.91Z"/><path class="cls-1" d="M552.92,34.21H108.31c-38.82,0-70.4,31.58-70.4,70.4s31.58,70.4,70.4,70.4h444.6c38.82,0,70.4-31.58,70.4-70.4s-31.58-70.4-70.4-70.4ZM552.92,169.02H108.31c-35.51,0-64.4-28.89-64.4-64.4s28.89-64.4,64.4-64.4h444.6c35.51,0,64.4,28.89,64.4,64.4s-28.89,64.4-64.4,64.4Z"/><path class="cls-1" d="M495.08,209.23s10.1-9.55,14.7-13.31l133.91-86.39c7.05-3.34,17.54-4.91,17.54-4.91,0,0-10.48-1.57-17.53-4.91L509.78,13.31c-4.61-3.76-14.69-13.31-14.69-13.31,0,0,6.15,9.05,7.24,15.61v42.43c-2.21,2.02-6.02,2.54-6.02,2.54v2.79h20.04v-2.79s-3.82-.52-6.02-2.54V23.18l126.23,81.44-126.23,81.44v-34.86c2.21-2.02,6.02-2.54,6.02-2.54v-2.79h-20.04v2.79s3.82.52,6.02,2.54v42.43c-1.09,6.56-7.24,15.61-7.24,15.61Z"/><path class="cls-1" d="M577.61,82.83c-12.01,0-21.79,9.77-21.79,21.79s9.77,21.79,21.79,21.79,21.79-9.77,21.79-21.79-9.77-21.79-21.79-21.79ZM577.61,122.4c-9.81,0-17.79-7.98-17.79-17.79s7.98-17.79,17.79-17.79,17.79,7.98,17.79,17.79-7.98,17.79-17.79,17.79Z"/><path class="cls-1" d="M566.16,101.71c-.81.04-1.5.66-1.5,1.5v6.13c0,.78.69,1.54,1.5,1.5.81-.04,1.5-.66,1.5-1.5v-6.13c0-.78-.69-1.54-1.5-1.5Z"/><path class="cls-1" d="M589.52,95.64c-.91-1.47-2.14-2.75-3.6-3.68-4.21-2.68-8.75-1.12-12.9.81-1.75.81-.23,3.4,1.51,2.59,2.14-1,4.49-2.11,6.92-1.88,1.77.17,3.35,1.14,4.53,2.43.57.62,1.04,1.34,1.4,2.1.17.34.3.7.41,1.06.01.04.05.25.1.45-.02,0-.04.01-.06.01-2.15.5-4.58,1.01-6.71.15-1.94-.78-2.83-3.21-5.22-2.9-1.05.14-2.01.78-2.89,1.34-1.04.66-2.09,1.4-3,2.23-1.62,1.49-2.4,3.73-1.09,5.7,1.17,1.76,3.51,3,5.63,2.99,2.36-.01,4.7-2.24,3.93-4.72-.76-2.43-3.54-2.6-5.63-2.18-1.89.38-1.09,3.28.8,2.89.46-.09,1.49-.33,1.87.05.24.23-.06.67-.4.84-1.08.56-4.09-.81-3.88-2.22.11-.77,1.08-1.42,1.64-1.85.8-.62,1.65-1.18,2.53-1.68.25-.14.65-.46.95-.42.29.04.64.54.84.75.65.67,1.36,1.27,2.21,1.68,1.83.9,3.89,1.07,5.9.84,1.12-.13,2.23-.35,3.33-.6.98-.23,1.98-.61,2.31-1.67.48-1.56-.63-3.81-1.43-5.11Z"/><path class="cls-1" d="M588.48,109.12c-.63-.47-1.38-.38-1.97.12-.17.14-.33.27-.5.41-.28.05-.57-.01-.84-.08-.82-.2-1.62-.49-2.44-.69-1.77-.44-3.6-.68-5.4-.37-1.6.27-3.06,1.23-3.61,2.81-.58,1.67-.23,3.78.22,5.44.5,1.86,3.39,1.07,2.89-.8-.2-.74-.33-1.48-.36-2.25-.02-.5-.06-1.33.19-1.66.28-.37.68-.48,1.2-.59.59-.13,1.35-.12,2.06-.06.96.08,2.02.42,3.1.71-1.25,1.01-2.5,2-3.77,2.97-.64.49-.98,1.29-.54,2.05.37.63,1.41,1.04,2.05.54,2.31-1.77,4.58-3.59,6.82-5.45.37-.19.71-.47,1.03-.84.01,0,.02-.02.03-.03,0,0,0,0,0,0,.08-.1.16-.19.24-.3.42-.61.17-1.52-.39-1.93Z"/></g></svg>