<?xml version="1.0" encoding="UTF-8"?><svg id="Layer_1" xmlns="http://www.w3.org/2000/svg" viewBox="0 0 591.23 175.81"><defs><style>.cls-1{fill:#fff;}</style></defs><g id="Button_9"><path class="cls-1" d="M260.46,23.5v-6l-260.46.02s12.76,3.24,13.09,10.61v49.22c-.98,6-5.89,10.56-11.82,10.56,5.92,0,10.83,4.56,11.82,10.56v49.22c-.33,7.37-13.09,10.61-13.09,10.61l260.04.02v-6H19.09V23.5h241.37Z"/><path class="cls-1" d="M36.32,35.77c.05,0-20.23,0-20.23,0v4.23h33.35s.08.06.12.09v95.62s-.08.06-.12.09H16.09v4.23s20.28,0,20.23,0c9.52,0,17.23,5.38,17.23,12.02V23.75c0,6.64-7.72,12.02-17.23,12.02Z"/><path class="cls-1" d="M37.62,123.86c-.8.02-1.52.37-1.5.84.07,1.84.01,3.68-.17,5.52-.04.44.72.86,1.5.84.85-.02,1.45-.37,1.5-.84.18-1.84.23-3.68.17-5.52-.02-.44-.68-.86-1.5-.84Z"/><path class="cls-1" d="M32.78,119.69c-.41-.07-.84-.11-1.26-.14,1.32-1.26,3.34-2.27,5.72-2.9,1.35-.35.68-1.61-.76-1.56-1.12.04-2.09.23-3.1.49-.74.18-1.55.45-2.38.45-.83,0-1.61-.31-2.35-.49-1.02-.25-2.07-.38-3.16-.19-1.84.32-1.06,1.94.8,1.62.67-.12,1.37.15,1.96.31.64.17,1.31.31,2,.38-1.03.73-1.88,1.55-2.48,2.43-.35.52.55,1.06,1.45,1.06.85,0,1.99-.02,2.9.16-1.1,1.09-1.31,2.32-.3,3.54.34.41,1.4.51,2.05.3.76-.25.88-.73.54-1.15-.35-.43-.37-.93-.15-1.37.29-.58,1.47-1.03,1.32-1.64-.17-.72-1.68-1.11-2.79-1.3Z"/><path class="cls-1" d="M35.61,107.94c0,1.08,3,1.08,3,0s-3-1.08-3,0Z"/><path class="cls-1" d="M42.45,88.11s-.02-.08-.05-.13c-1.13-1.6-2.42-3.24-4.12-4.67-.66-.56-1.58-.96-2.85-.78-1.33.19-2.29.9-3.17,1.44-1.83,1.13-3.57,2.44-4.03,3.98-.17.58-.29,1.28.25,1.81.3.29.8.51,1.36.62.75.14,1.46-.05,2.17.05.03,0,.04.02.07.02-.02,0-.05.02-.07.02-2.36.98-4.25,2.67-5.2,4.21-.97,1.57-.4,3.27,2.02,4.29,1.54.65,3.03-.8,1.51-1.45-2.85-1.21.61-4.02,2.21-5.05.21-.13.55-.33.94-.52.17.63.21,1.27.61,1.88.35.53.94,1.13,1.89,1.39,1.23.33,2.59-.13,3.22-.74,1.08-1.04.67-2.72-.4-3.72-.88-.82-2.24-1.08-3.65-1-.32-.25-.68-.48-1.13-.64-.6-.23-1.29-.36-2.02-.37-.26,0-.61,0-.9.02,0-.09,0-.18.01-.27.15-.99,1.14-1.89,2.21-2.65.63-.44,1.32-.86,2.03-1.27.13-.08.3-.15.42-.24.02-.01.03-.02.04-.03.18.21.5.42.68.6.82.81,1.57,1.64,2.24,2.49-1.31-.02-2.62-.11-3.92-.29-1.87-.26-2.67,1.36-.8,1.62,2.2.31,4.43.42,6.69.33.13,2.66.19,5.32.17,7.97-.11-.41-.63-.84-1.48-.81-3.41.14-6.11,1.25-8.2,2.71-2.09,1.46-4.16,3.09-5.61,4.78-1.44,1.67-2.28,3.67-1.15,5.48.95,1.53,3.21,2.81,6.12,3.09.25.02.49.01.7-.02.21.71.64,1.42,1.74,1.71,1.8.48,3.46-.44,4.38-1.21.4-.34.74-.77,1.14-1.17-.11,2.31.7,4.58,2.43,6.73.79.98,3.38.13,2.59-.85-1.89-2.34-2.52-4.98-1.79-7.52.19-.66-.65-1.15-1.85-1.03-2.68.26-3.66,1.67-4.91,2.81-.13.12-.26.25-.42.35-.07.05-.15.09-.23.13-.04-.12-.09-.26-.1-.28-.08-.22-.13-.44-.17-.66-.16-.85-.11-1.72-.08-2.57.03-.85.06-1.7.09-2.55.03-.79-.21-1.76.11-2.53.15-.36.61-.37,1.2-.37.04,0,.22,0,.39.02,0,.1.02.2.02.3.06.89,0,1.78-.13,2.67-.16,1.08,2.84,1.07,3,0,.1-.67.16-1.33.15-2,0-.55.1-1.2-.21-1.73-.1-.17-.26-.3-.45-.42.03-.07.06-.15.05-.23-.01-.94.43-1.77,1.31-2.56.6-.54,1.19-1.08,1.35-1.69-.02,1.67-.05,3.35-.12,5.02-.05,1.08,2.95,1.08,3,0,.2-4.57.18-9.14-.05-13.71-.02-.47-.6-.73-1.24-.79ZM36.8,93.08c-.08-.16-.14-.33-.18-.49-.07-.23-.11-.46-.15-.69.19.29.28.62.31.91.01.09.02.18.02.27ZM34.24,101.62c-1.85.19-2.91.95-3.07,1.97-.2,1.24-.11,2.51-.15,3.76-.04,1.08-.13,2.18-.04,3.26-1.99-.28-3.41-1.17-3.88-2.3-.64-1.52.36-3.1,1.68-4.42,1.27-1.28,2.8-2.52,4.39-3.68,1.09-.8,2.45-1.58,4.09-2-.39.36-.86.72-1.13,1.06-.57.73-.85,1.49-.9,2.28-.34,0-.68.03-.99.06Z"/><path class="cls-1" d="M25.88,72.23c1.67,0,3.33.04,5,.11.7.03,1.39.07,2.08.12-.03.1-.06.2-.09.3-.48,1.4-1.2,2.77-1.19,4.17-.31.1-.56.26-.68.49-.69,1.3-1.28,2.62-1.77,3.95-.18.1-.32.22-.37.36-.18.49-.27.99-.24,1.49.02.41.55.77,1.3.82.68.05,1.52-.18,1.65-.6.49-1.6,1.14-3.19,1.91-4.75,0,0,.01,0,.02,0,1,.12,2.02.16,3.07.17,1.42.02,2.85,0,4.04.49.91.37,2.32-.12,2.26-.72-.15-1.4-.54-2.79-1.2-4.14-.51-1.04-3.4-.6-2.89.45.38.79.67,1.59.86,2.4-.71-.08-1.44-.12-2.16-.13-.91-.02-1.89,0-2.82-.07-.07-.7.13-1.41.39-2.1.18-.47.39-.94.57-1.42.19-.49.44-1.03.44-1.54,0-.6-.69-1.1-1.76-1.21-.93-.1-1.91-.13-2.85-.18-1.85-.09-3.71-.14-5.56-.14-1.93,0-1.93,1.67,0,1.68ZM33.58,72.5s0,0,0,0c.03,0,.03,0,0,0Z"/><path class="cls-1" d="M43.13,70.54c.04-3.74.09-7.48.13-11.22.01-.86-2-1.1-2.8-.42-2.62,2.23-5.61,4.7-10.67,5.17-1.45.13-1.41,1.47,0,1.62,3.78.41,5.42,2.85,8.09,4.15.78.38,1.74.21,2.25-.13,0,.28,0,.56,0,.84-.01,1.08,2.99,1.08,3,0ZM40.01,68.64c-2.19-1.06-3.69-2.62-5.91-3.63,2.43-.7,4.41-1.8,6.13-3.04-.03,2.25-.05,4.5-.08,6.75-.05-.03-.09-.06-.14-.09Z"/><path class="cls-1" d="M29.05,60.97c2,.32,4.1.49,6.18.51.78,0,1.54-.39,1.5-.84-.04-.46-.66-.83-1.5-.84-.48,0-.96-.02-1.44-.04-.24-.01-.48-.02-.72-.04-.09,0-.18-.01-.27-.02-.05,0-.1,0-.15-.01-.95-.08-1.89-.2-2.81-.35-.75-.12-1.67.15-1.84.59-.18.45.24.9,1.05,1.03Z"/><path class="cls-1" d="M44.66,55.84c-4.82-.45-9.67-.78-14.54-.99-.81-.04-1.5.41-1.5.84,0,.48.69.8,1.5.84,4.6.2,9.18.51,13.74.93.8.07,1.61-.12,1.85-.59.2-.4-.24-.96-1.05-1.03Z"/><path class="cls-1" d="M30.36,53.15c-.01.49.99,1.02,1.9.81.92-.22,1.3-.55,1.76-1.02.3-.31.6-.62.9-.92.83.07,1.78-.19,1.79-.8.04-1.64.22-3.3.12-4.94-.03-.41-.25-.78-.85-1.04-.57-.24-1.3-.28-1.98-.34-1.48-.13-2.97-.17-4.47-.12-.89.03-1.81.52-1.45,1.06,1.58,2.34,2.36,4.8,2.29,7.31ZM33.08,46.51c.2.02.41.03.61.05.04,0,.08,0,.12.01,0,.02,0,.04,0,.05,0,.17,0,.35-.01.52-.03,1.08-.05,2.15-.08,3.23-.21.01-.41.05-.6.13-.27-1.37-.77-2.73-1.52-4.05.49.01.98.03,1.47.06Z"/><path class="cls-1" d="M39.04,53.19c1.29,0,2.57,0,3.86,0,1.93,0,1.93-1.67,0-1.68-.67,0-1.35,0-2.02,0,.62-1.92.69-3.88.73-5.82.02-1.08-2.98-1.08-3,0-.05,2.16-.09,4.33-1.02,6.43-.23.53.45,1.06,1.45,1.06Z"/><path class="cls-1" d="M578.14,147.69v-49.22c.99-6,5.89-10.56,11.82-10.56-5.92,0-10.83-4.56-11.82-10.56V28.13c.33-7.37,13.09-10.6,13.09-10.6l-260.46-.02v6h241.37v128.81h-240.95v6l260.04-.02s-12.76-3.24-13.09-10.6Z"/><path class="cls-1" d="M537.68,23.75c0,4.11,0,124.2,0,128.31,0-6.64,7.72-12.02,17.23-12.02-.05,0,20.23,0,20.23,0v-4.23s-33.35,0-33.35,0c-.04-.03-.08-.06-.12-.09V40.1s.08-.06.12-.09h33.35s0-4.23,0-4.23c0,0-20.28,0-20.23,0-9.52,0-17.23-5.38-17.23-12.02Z"/><path class="cls-1" d="M559.2,123.86c-.8.02-1.52.37-1.5.84.07,1.84.01,3.68-.17,5.52-.04.44.72.86,1.5.84.85-.02,1.45-.37,1.5-.84.18-1.84.23-3.68.17-5.52-.02-.44-.68-.86-1.5-.84Z"/><path class="cls-1" d="M554.36,119.69c-.41-.07-.84-.11-1.26-.14,1.32-1.26,3.34-2.27,5.72-2.9,1.35-.35.68-1.61-.76-1.56-1.12.04-2.09.23-3.1.49-.74.18-1.55.45-2.38.45-.83,0-1.61-.31-2.35-.49-1.02-.25-2.07-.38-3.16-.19-1.84.32-1.06,1.94.8,1.62.67-.12,1.37.15,1.96.31.64.17,1.31.31,2,.38-1.03.73-1.88,1.55-2.48,2.43-.35.52.55,1.06,1.45,1.06.85,0,1.99-.02,2.9.16-1.1,1.09-1.31,2.32-.3,3.54.34.41,1.4.51,2.05.3.75-.25.88-.73.54-1.15-.35-.43-.37-.93-.15-1.37.29-.58,1.47-1.03,1.32-1.64-.17-.72-1.68-1.11-2.79-1.3Z"/><path class="cls-1" d="M557.2,107.94c0,1.08,3,1.08,3,0s-3-1.08-3,0Z"/><path class="cls-1" d="M564.04,88.11s-.02-.08-.05-.13c-1.13-1.6-2.42-3.24-4.12-4.67-.66-.56-1.58-.96-2.85-.78-1.33.19-2.29.9-3.17,1.44-1.83,1.13-3.57,2.44-4.03,3.98-.17.58-.29,1.28.25,1.81.3.29.8.51,1.36.62.75.14,1.46-.05,2.16.05.03,0,.04.02.07.02-.02,0-.05.02-.07.02-2.36.98-4.25,2.67-5.2,4.21-.97,1.57-.4,3.27,2.02,4.29,1.54.65,3.03-.8,1.51-1.45-2.85-1.21.61-4.02,2.21-5.05.21-.13.55-.33.94-.52.17.63.21,1.27.61,1.88.35.53.94,1.13,1.89,1.39,1.23.33,2.59-.13,3.22-.74,1.08-1.04.67-2.72-.4-3.72-.88-.82-2.24-1.08-3.65-1-.32-.25-.68-.48-1.13-.64-.6-.23-1.29-.36-2.02-.37-.26,0-.61,0-.9.02,0-.09,0-.18.01-.27.15-.99,1.14-1.89,2.21-2.65.63-.44,1.32-.86,2.03-1.27.13-.08.3-.15.42-.24.02-.01.03-.02.04-.03.18.21.5.42.68.6.82.81,1.57,1.64,2.24,2.49-1.32-.02-2.62-.11-3.92-.29-1.87-.26-2.67,1.36-.8,1.62,2.2.31,4.43.42,6.69.33.13,2.66.19,5.32.17,7.97-.11-.41-.63-.84-1.48-.81-3.41.14-6.11,1.25-8.2,2.71-2.09,1.46-4.16,3.09-5.61,4.78-1.44,1.67-2.28,3.67-1.15,5.48.95,1.53,3.21,2.81,6.12,3.09.25.02.49.01.7-.02.21.71.64,1.42,1.74,1.71,1.8.48,3.46-.44,4.38-1.21.4-.34.74-.77,1.14-1.17-.11,2.31.7,4.58,2.43,6.73.79.98,3.38.13,2.59-.85-1.89-2.34-2.52-4.98-1.79-7.52.19-.66-.65-1.15-1.85-1.03-2.68.26-3.66,1.67-4.91,2.81-.13.12-.26.25-.42.35-.07.05-.15.09-.23.13-.04-.12-.09-.26-.1-.28-.08-.22-.13-.44-.17-.66-.16-.85-.11-1.72-.08-2.57.03-.85.06-1.7.09-2.55.03-.79-.21-1.76.11-2.53.15-.36.61-.37,1.2-.37.04,0,.22,0,.39.02,0,.1.02.2.02.3.06.89,0,1.78-.13,2.67-.16,1.08,2.84,1.07,3,0,.1-.67.16-1.33.15-2,0-.55.1-1.2-.21-1.73-.1-.17-.26-.3-.45-.42.03-.07.06-.15.05-.23-.01-.94.43-1.77,1.31-2.56.6-.54,1.19-1.08,1.35-1.69-.02,1.67-.05,3.35-.12,5.02-.05,1.08,2.95,1.08,3,0,.2-4.57.18-9.14-.05-13.71-.02-.47-.6-.73-1.24-.79ZM558.38,93.08c-.08-.16-.14-.33-.18-.49-.07-.23-.11-.46-.15-.69.19.29.28.62.31.91.01.09.02.18.02.27ZM555.83,101.62c-1.85.19-2.91.95-3.07,1.97-.2,1.24-.11,2.51-.15,3.76-.04,1.08-.13,2.18-.04,3.26-1.99-.28-3.41-1.17-3.88-2.3-.64-1.52.36-3.1,1.68-4.42,1.27-1.28,2.8-2.52,4.39-3.68,1.09-.8,2.45-1.58,4.09-2-.39.36-.86.72-1.13,1.06-.57.73-.85,1.49-.9,2.28-.34,0-.68.03-.99.06Z"/><path class="cls-1" d="M547.46,72.23c1.67,0,3.33.04,5,.11.7.03,1.39.07,2.08.12-.03.1-.06.2-.09.3-.48,1.4-1.2,2.77-1.19,4.17-.31.1-.56.26-.68.49-.69,1.3-1.28,2.62-1.77,3.95-.18.1-.32.22-.37.36-.18.49-.27.99-.24,1.49.02.41.55.77,1.3.82.68.05,1.52-.18,1.65-.6.49-1.6,1.14-3.19,1.91-4.75,0,0,.01,0,.02,0,1,.12,2.02.16,3.07.17,1.42.02,2.84,0,4.04.49.91.37,2.32-.12,2.26-.72-.15-1.4-.54-2.79-1.2-4.14-.51-1.04-3.4-.6-2.89.45.38.79.67,1.59.86,2.4-.71-.08-1.44-.12-2.16-.13-.91-.02-1.89,0-2.82-.07-.07-.7.13-1.41.39-2.1.18-.47.39-.94.57-1.42.19-.49.44-1.03.44-1.54,0-.6-.69-1.1-1.76-1.21-.93-.1-1.91-.13-2.85-.18-1.85-.09-3.71-.14-5.56-.14-1.93,0-1.93,1.67,0,1.68ZM555.16,72.5s0,0,0,0c.03,0,.03,0,0,0Z"/><path class="cls-1" d="M564.72,70.54c.04-3.74.09-7.48.13-11.22.01-.86-2-1.1-2.8-.42-2.62,2.23-5.61,4.7-10.67,5.17-1.45.13-1.41,1.47,0,1.62,3.78.41,5.42,2.85,8.09,4.15.78.38,1.74.21,2.25-.13,0,.28,0,.56,0,.84-.01,1.08,2.99,1.08,3,0ZM561.59,68.64c-2.19-1.06-3.69-2.62-5.91-3.63,2.43-.7,4.41-1.8,6.13-3.04-.03,2.25-.05,4.5-.08,6.75-.05-.03-.09-.06-.14-.09Z"/><path class="cls-1" d="M550.64,60.97c2,.32,4.1.49,6.18.51.78,0,1.54-.39,1.5-.84-.04-.46-.66-.83-1.5-.84-.48,0-.96-.02-1.44-.04-.24-.01-.48-.02-.72-.04-.09,0-.18-.01-.27-.02-.05,0-.1,0-.15-.01-.95-.08-1.89-.2-2.81-.35-.75-.12-1.67.15-1.85.59-.18.45.24.9,1.05,1.03Z"/><path class="cls-1" d="M566.24,55.84c-4.82-.45-9.67-.78-14.54-.99-.81-.04-1.5.41-1.5.84,0,.48.69.8,1.5.84,4.6.2,9.18.51,13.74.93.8.07,1.61-.12,1.85-.59.2-.4-.24-.96-1.05-1.03Z"/><path class="cls-1" d="M551.94,53.15c-.01.49.99,1.02,1.9.81.92-.22,1.3-.55,1.76-1.02.3-.31.6-.62.9-.92.83.07,1.78-.19,1.79-.8.04-1.64.22-3.3.12-4.94-.03-.41-.25-.78-.85-1.04-.57-.24-1.3-.28-1.98-.34-1.48-.13-2.97-.17-4.47-.12-.89.03-1.81.52-1.45,1.06,1.58,2.34,2.36,4.8,2.29,7.31ZM554.66,46.51c.2.02.41.03.61.05.04,0,.08,0,.12.01,0,.02,0,.04,0,.05v.52c-.04,1.08-.06,2.15-.09,3.23-.21.01-.41.05-.6.13-.27-1.37-.77-2.73-1.52-4.05.49.01.98.03,1.47.06Z"/><path class="cls-1" d="M560.62,53.19c1.29,0,2.57,0,3.86,0,1.93,0,1.93-1.67,0-1.68-.67,0-1.35,0-2.02,0,.62-1.92.69-3.88.73-5.82.02-1.08-2.98-1.08-3,0-.05,2.16-.09,4.33-1.02,6.43-.23.53.45,1.06,1.45,1.06Z"/><path class="cls-1" d="M336.82,161.19s-.22-.57-.31-.8c-6.56-16.72-22.88-27.9-40.89-27.9s-34.33,11.18-40.89,27.9c-.1.23-.31.8-.31.8-1.21,3.42,2.7,14.62,2.7,14.62,0,0,1.49-11.66,2.65-15.46,6.28-13.99,20.37-23.22,35.85-23.22s29.57,9.23,35.85,23.22c1.16,3.8,2.66,15.46,2.66,15.46,0,0,3.91-11.2,2.7-14.62Z"/><path class="cls-1" d="M336.82,14.62s-.22.57-.31.8c-6.56,16.72-22.88,27.9-40.89,27.9s-34.33-11.18-40.89-27.9c-.1-.23-.31-.8-.31-.8-1.21-3.42,2.7-14.62,2.7-14.62,0,0,1.49,11.66,2.65,15.46,6.28,13.99,20.37,23.22,35.85,23.22s29.57-9.23,35.85-23.22c1.16-3.8,2.66-15.46,2.66-15.46,0,0,3.91,11.2,2.7,14.62Z"/><path class="cls-1" d="M294.93,165.88c-9.45,0-16.41-5.91-18.97-8.45l-2.14-2.13,2.14-2.13c2.55-2.54,9.51-8.45,18.97-8.45s16.41,5.91,18.97,8.45l2.14,2.13-2.14,2.13c-2.55,2.54-9.51,8.45-18.97,8.45ZM282.63,155.31c2.76,2.12,7.07,4.57,12.3,4.57s9.54-2.45,12.3-4.57c-2.76-2.12-7.07-4.57-12.3-4.57s-9.54,2.45-12.3,4.57Z"/><path class="cls-1" d="M294.93,31.07c-9.45,0-16.41-5.91-18.97-8.45l-2.14-2.13,2.14-2.13c2.55-2.54,9.51-8.45,18.97-8.45s16.41,5.91,18.97,8.45l2.14,2.13-2.14,2.13c-2.55,2.54-9.51,8.45-18.97,8.45ZM282.63,20.5c2.76,2.12,7.07,4.57,12.3,4.57s9.54-2.45,12.3-4.57c-2.76-2.12-7.07-4.57-12.3-4.57s-9.54,2.45-12.3,4.57Z"/></g></svg>