<?xml version="1.0" encoding="UTF-8"?><svg id="Layer_1" xmlns="http://www.w3.org/2000/svg" viewBox="0 0 619.7 146.81"><defs><style>.cls-1{fill:#fff;}</style></defs><g id="Button_5"><path class="cls-1" d="M38.55,63.38s-.97,7.19-5.49,7.52H8.28c-4.52-.33-5.49-7.52-5.49-7.52H0v20.04h2.79s.97-7.19,5.49-7.52h24.77c4.52.33,5.49,7.52,5.49,7.52h2.79v-20.04h-2.79Z"/><path class="cls-1" d="M54.74,55.94v-1.65h-11.84v1.65s4,.54,4.42,3.01v28.91c-.41,2.47-4.42,3.01-4.42,3.01v1.65h11.84v-1.65s-4-.54-4.42-3.01v-28.92c.42-2.47,4.42-3.01,4.42-3.01Z"/><path class="cls-1" d="M536.11.11c-.06,5.1-4.2,9.21-9.31,9.21s-9.32-4.17-9.32-9.32h-136.19c-17.53,6.21-43,10.12-71.35,10.12-.03,0-.06,0-.09,0s-.06,0-.09,0c-28.35,0-53.82-3.91-71.35-10.12H102.22c0,5.15-4.17,9.32-9.32,9.32S83.65,5.21,83.59.11C44.95,2.17,14.14,34.26,14.14,73.4s30.8,71.23,69.45,73.29c.06-5.1,4.2-9.21,9.31-9.21s9.32,4.17,9.32,9.32h136.19c17.53-6.21,43-10.12,71.35-10.12.03,0,.06,0,.09,0s.06,0,.09,0c28.35,0,53.82,3.91,71.35,10.12h136.19c0-5.15,4.17-9.32,9.32-9.32s9.25,4.11,9.31,9.21c38.64-2.06,69.45-34.15,69.45-73.29S574.75,2.17,536.11.11ZM532.15,134.81H87.55c-33.86,0-61.4-27.55-61.4-61.4S53.69,12,87.55,12h444.6c33.86,0,61.4,27.55,61.4,61.4s-27.55,61.4-61.4,61.4Z"/><path class="cls-1" d="M616.91,63.38s-.97,7.19-5.49,7.52h-24.77c-4.52-.33-5.49-7.52-5.49-7.52h-2.79v20.04h2.79s.97-7.19,5.49-7.52h24.77c4.52.33,5.49,7.52,5.49,7.52h2.79v-20.04h-2.79Z"/><path class="cls-1" d="M576.8,55.94v-1.65h-11.84v1.65s4,.54,4.42,3.01v28.92c-.42,2.47-4.42,3.01-4.42,3.01v1.65h11.84v-1.65s-4.01-.54-4.42-3.01v-28.91c.41-2.47,4.42-3.01,4.42-3.01Z"/></g></svg>