<?xml version="1.0" encoding="UTF-8"?><svg id="Layer_1" xmlns="http://www.w3.org/2000/svg" viewBox="0 0 304.34 303.66"><defs><style>.cls-1{fill:#fff;}</style></defs><g id="Circle_8"><path class="cls-1" d="M177.22,0c2.98,4.63,4.71,10.14,4.71,16.06,0,16.44-13.32,29.76-29.76,29.76-16.44,0-29.76-13.32-29.76-29.76,0-5.92,1.73-11.42,4.71-16.06-4.79,5.69-7.68,13.04-7.68,21.06,0,18.08,14.65,32.73,32.73,32.73,18.08,0,32.73-14.65,32.73-32.73,0-8.02-2.89-15.36-7.68-21.06Z"/><path class="cls-1" d="M177.22,303.66c2.98-4.63,4.71-10.14,4.71-16.06,0-16.44-13.32-29.76-29.76-29.76-16.44,0-29.76,13.32-29.76,29.76,0,5.92,1.73,11.42,4.71,16.06-4.79-5.69-7.68-13.04-7.68-21.06,0-18.08,14.65-32.73,32.73-32.73,18.08,0,32.73,14.65,32.73,32.73,0,8.02-2.89,15.36-7.68,21.06Z"/><path class="cls-1" d="M152.17,286.83c-74.44,0-135-60.56-135-135S77.73,16.83,152.17,16.83s135,60.56,135,135-60.56,135-135,135ZM152.17,22.83c-71.13,0-129,57.87-129,129s57.87,129,129,129,129-57.87,129-129S223.3,22.83,152.17,22.83Z"/><path class="cls-1" d="M272.26,114.01s-5.63,4.24-9.19,1.36L152.17,4.46,41.27,115.37c-3.56,2.88-9.19-1.36-9.19-1.36l-.71.71,14.08,14.08.71-.71s-4.24-5.63-1.36-9.19L152.17,11.54l107.36,107.36c2.88,3.56-1.36,9.19-1.36,9.19l.71.71,14.08-14.08-.71-.71Z"/><path class="cls-1" d="M258.89,174.86l-.71.71s4.24,5.63,1.36,9.19l-107.37,107.36-107.37-107.36c-2.88-3.56,1.36-9.19,1.36-9.19l-.71-.71-14.08,14.08.71.71s5.63-4.24,9.19-1.36l110.9,110.9,110.9-110.9c3.56-2.88,9.19,1.36,9.19,1.36l.71-.71-14.08-14.08Z"/><path class="cls-1" d="M302.08,143.69s-.79,5.85-4.47,6.11h-26.88c-3.68-.26-4.47-6.11-4.47-6.11h-2.26v16.28h2.26s.79-5.84,4.46-6.11h26.89c3.67.27,4.46,6.11,4.46,6.11h2.26v-16.28h-2.26Z"/><path class="cls-1" d="M38.08,143.69s-.79,5.85-4.47,6.11H6.73c-3.68-.26-4.47-6.11-4.47-6.11H0v16.28h2.26s.79-5.84,4.46-6.11h26.89c3.67.27,4.46,6.11,4.46,6.11h2.26v-16.28h-2.26Z"/></g></svg>