<?xml version="1.0" encoding="UTF-8"?><svg id="Layer_1" xmlns="http://www.w3.org/2000/svg" viewBox="0 0 324.39 326"><defs><style>.cls-1{fill:#fff;}</style></defs><g id="Circle_5"><path class="cls-1" d="M248.85,20.17s-1.01,5.75-5.7,6.02h-78.93V6.73c.26-3.68,6.11-4.47,6.11-4.47V0h-16.28v2.26s5.84.79,6.11,4.46v19.46h-78.92c-4.69-.26-5.7-6.02-5.7-6.02h-1v16.03h1s1.01-5.75,5.69-6.01h78.93v3.43c-.26,3.67-6.11,4.46-6.11,4.46v2.26h16.28v-2.26s-5.85-.79-6.11-4.47v-3.43h78.94c4.68.27,5.69,6.01,5.69,6.01h1v-16.03h-1Z"/><path class="cls-1" d="M309.66,80.15c4.26-5.19,14.73-16.25,14.73-16.25,0,0-9.85,6.7-17.15,8.02h-31.99c-24.12-36.89-65.79-61.31-113.06-61.31s-88.93,24.42-113.06,61.31h-31.99c-7.29-1.33-17.15-8.02-17.15-8.02,0,0,10.49,11.09,14.74,16.27l17.84,27.65c-3.5,12-5.39,24.68-5.39,37.79,0,67.99,50.52,124.39,115.99,133.65l7.13,11.04c.16.46.65,1.35,1.6,2.85,7.01,10.98,10.28,32.83,10.28,32.83,0,0,3.28-21.85,10.29-32.83.97-1.52,1.46-2.42,1.61-2.87l7.11-11.02c65.47-9.27,115.99-65.67,115.99-133.66,0-13.11-1.89-25.79-5.39-37.79l17.86-27.67ZM300.29,79.92l-11.73,18.18c-2.38-6.3-5.21-12.37-8.46-18.18h20.19ZM24.1,79.92h20.19c-3.25,5.81-6.08,11.88-8.46,18.18l-11.73-18.18ZM162.19,293.98l-8.81-13.66c2.92.19,5.85.3,8.81.3s5.9-.11,8.81-.29l-8.81,13.66ZM162.19,274.61c-71.13,0-129-57.87-129-129,0-23.97,6.58-46.44,18.02-65.69h18.58c.25.02.49.05.76.05,7.86,0,9.51,12.37,9.51,12.37h4.56v-32.83h-4.56s-1.65,12.37-9.51,12.37c-.22,0-.41.03-.62.04h-13.56c23.34-33.41,62.06-55.31,105.82-55.31s82.48,21.9,105.82,55.31h-13.56c-.21-.01-.4-.04-.62-.04-7.86,0-9.51-12.37-9.51-12.37h-4.56v32.83h4.56s1.65-12.37,9.51-12.37c.27,0,.51-.03.76-.05h18.58c11.44,19.25,18.02,41.72,18.02,65.69,0,71.13-57.87,129-129,129Z"/></g></svg>