<?xml version="1.0" encoding="UTF-8"?><svg id="Layer_1" xmlns="http://www.w3.org/2000/svg" viewBox="0 0 268 323.56"><defs><style>.cls-1{fill:#fff;}</style></defs><g id="Circle_2"><path class="cls-1" d="M134,66.61l-1.42-1.43c-3.69-3.71-12.27-13.8-12.27-27.41s8.58-23.7,12.27-27.41l1.42-1.43,1.42,1.43c3.69,3.71,12.27,13.8,12.27,27.41s-8.58,23.7-12.27,27.41l-1.42,1.43ZM134,14.69c-3.72,4.15-9.68,12.47-9.68,23.09s5.96,18.93,9.68,23.09c3.72-4.15,9.68-12.47,9.68-23.09s-5.96-18.93-9.68-23.09Z"/><path class="cls-1" d="M89.2,71.15s2.92-1.98,5.53-2.81h78.54c2.61.83,5.53,2.81,5.53,2.81,0,0-2.49-2.63-4.35-4.72L135.5,6.04c-1.02-2.82-1.5-6.04-1.5-6.04,0,0-.48,3.22-1.5,6.04l-38.96,60.39c-1.86,2.09-4.34,4.72-4.34,4.72ZM134,11.1l34.35,53.25h-68.7l34.35-53.25Z"/><path class="cls-1" d="M134,323.56l-19.49-30.21h38.97l-19.49,30.21ZM121.85,297.35l12.15,18.83,12.15-18.83h-24.29Z"/><path class="cls-1" d="M134,307.57C60.11,307.57,0,247.45,0,173.57S60.11,39.57,134,39.57s134,60.11,134,134-60.11,134-134,134ZM134,43.57C62.32,43.57,4,101.88,4,173.57s58.32,130,130,130,130-58.32,130-130S205.68,43.57,134,43.57Z"/></g></svg>