<?xml version="1.0" encoding="UTF-8"?><svg id="Layer_1" xmlns="http://www.w3.org/2000/svg" viewBox="0 0 289.3 325.64"><defs><style>.cls-1{fill:#fff;}</style></defs><g id="Circle_4"><path class="cls-1" d="M283.01,182.18c2.2,0,4.32-.37,6.29-1.05-.6.06-1.21.09-1.83.09-10.16,0-18.4-8.24-18.4-18.4,0-10.16,8.24-18.4,18.4-18.4.62,0,1.23.03,1.83.09-1.97-.68-4.09-1.05-6.29-1.05-10.69,0-19.36,8.67-19.36,19.36,0,10.69,8.67,19.36,19.36,19.36Z"/><path class="cls-1" d="M6.29,182.18c-2.2,0-4.32-.37-6.29-1.05.6.06,1.21.09,1.83.09,10.16,0,18.4-8.24,18.4-18.4,0-10.16-8.24-18.4-18.4-18.4-.62,0-1.23.03-1.83.09,1.97-.68,4.09-1.05,6.29-1.05,10.69,0,19.36,8.67,19.36,19.36,0,10.69-8.67,19.36-19.36,19.36Z"/><path class="cls-1" d="M278.47,162.82c0-70.34-54.48-128.2-123.47-133.59-6.44-5.04-10.36-17.67-10.36-29.24,0,11.54-3.9,24.15-10.32,29.2C65.16,34.41,10.47,92.35,10.47,162.82s54.69,128.42,123.86,133.62c6.42,5.06,10.32,17.66,10.32,29.2,0-11.56,3.92-24.2,10.35-29.23,68.98-5.39,123.47-63.24,123.47-133.59ZM154.8,292.41c-6.32-3.65-10.15-12.3-10.15-18.69,0,6.41-3.86,15.08-10.2,18.71-67.02-5.14-119.97-61.31-119.97-129.62S67.43,38.34,134.45,33.21c6.34,3.63,10.2,12.31,10.2,18.71,0-6.39,3.84-15.04,10.15-18.69,66.87,5.28,119.67,61.38,119.67,129.59s-52.8,124.31-119.67,129.59Z"/><path class="cls-1" d="M40.47,144.92v-2.26h-16.28v2.26s5.85.79,6.11,4.47v26.88c-.26,3.68-6.11,4.47-6.11,4.47v2.26h16.28v-2.26s-5.84-.79-6.11-4.46v-26.89c.27-3.67,6.11-4.46,6.11-4.46Z"/><path class="cls-1" d="M265.11,144.92v-2.26h-16.28v2.26s5.85.79,6.11,4.47v26.88c-.26,3.68-6.11,4.47-6.11,4.47v2.26h16.28v-2.26s-5.84-.79-6.11-4.46v-26.89c.27-3.67,6.11-4.46,6.11-4.46Z"/></g></svg>