<?xml version="1.0" encoding="UTF-8"?><svg id="Layer_1" xmlns="http://www.w3.org/2000/svg" viewBox="0 0 270 305.84"><defs><style>.cls-1{fill:#fff;}</style></defs><g id="Circle_7"><path class="cls-1" d="M135,290C60.56,290,0,229.44,0,155S60.56,20,135,20s135,60.56,135,135-60.56,135-135,135ZM135,26C63.87,26,6,83.87,6,155s57.87,129,129,129,129-57.87,129-129S206.13,26,135,26Z"/><path class="cls-1" d="M243.6,248.51s-.97,7.17-5.47,7.52h-90.38v2.5c0,7.04-5.72,12.76-12.76,12.76s-12.75-5.72-12.75-12.76v-2.5H31.86c-4.5-.35-5.47-7.52-5.47-7.52h-2.79v20.04h2.79s.97-7.22,5.52-7.52h85.51c1.13,7.96,7.55,14.23,15.58,15.14v21.02c-.94,4.59-9.83,5.59-9.83,5.59v3.06h23.66v-3.06s-8.89-1-9.83-5.59v-21.03c8.03-.91,14.45-7.18,15.58-15.14h85.51c4.54.3,5.52,7.52,5.52,7.52h2.79v-20.04h-2.79Z"/><path class="cls-1" d="M214.02,11.17s-1,8.9-5.59,9.83h-50.53c-1.02-11.75-10.9-21-22.91-21s-21.89,9.25-22.91,21h-50.53c-4.59-.93-5.59-9.83-5.59-9.83h-3.06v23.66h3.06s1-8.89,5.59-9.83h50.53c1.02,11.75,10.9,21,22.91,21s21.89-9.25,22.91-21h50.53c4.59.94,5.59,9.83,5.59,9.83h3.06V11.17h-3.06ZM151.87,21h-13.87V6.28c7.3,1.31,12.99,7.28,13.87,14.72ZM132,6.28v14.72h-13.87c.88-7.44,6.57-13.41,13.87-14.72ZM118.13,25h13.87v14.72c-7.3-1.31-12.99-7.28-13.87-14.72ZM138,39.72v-14.72h13.87c-.88,7.44-6.57,13.41-13.87,14.72Z"/></g></svg>