<?xml version="1.0" encoding="UTF-8"?><svg id="Layer_1" xmlns="http://www.w3.org/2000/svg" viewBox="0 0 289.96 305.33"><defs><style>.cls-1{fill:#fff;}</style></defs><g id="Circle_3"><path class="cls-1" d="M283.23,169.39c4.34,0,6.73,1.84,6.73,1.84,0,0-1.84-2.39-1.84-6.73v-23.68c0-4.34,1.84-6.73,1.84-6.73,0,0-2.39,1.84-6.73,1.84h-16.95v-64.23c.26-4.69,6.02-5.7,6.02-5.7v-1h-16.03v1s5.74,1.01,6.01,5.69v64.63c-5.57,1.32-8.12,5.61-6.71,5.61h6.71v21.45h-6.71c-1.4,0,1.14,4.3,6.71,5.61v64.63c-.27,4.68-6.01,5.69-6.01,5.69v1h16.03v-1s-5.75-1.01-6.02-5.7v-64.23h16.95ZM266.28,141.94h15.83v21.45h-15.83v-21.45Z"/><path class="cls-1" d="M23.68,169.39v64.23c-.26,4.69-6.02,5.7-6.02,5.7v1s16.03,0,16.03,0v-1s-5.74-1.01-6.01-5.69v-64.63c5.57-1.32,8.12-5.61,6.71-5.61h-6.71v-21.45h6.71c1.4,0-1.14-4.3-6.71-5.61v-64.63c.27-4.68,6.01-5.69,6.01-5.69v-1s-16.03,0-16.03,0v1s5.75,1.01,6.02,5.7v64.23H6.73C2.39,135.94,0,134.1,0,134.1,0,134.1,1.84,136.49,1.84,140.83v23.68c0,4.34-1.84,6.73-1.84,6.73,0,0,2.39-1.84,6.73-1.84h16.95ZM23.68,163.39H7.84v-21.45h15.83v21.45Z"/><path class="cls-1" d="M144.98,286.67c-73.89,0-134-60.11-134-134S71.09,18.67,144.98,18.67s134,60.11,134,134-60.11,134-134,134ZM144.98,22.67C73.3,22.67,14.98,80.98,14.98,152.67s58.32,130,130,130,130-58.32,130-130S216.66,22.67,144.98,22.67Z"/><path class="cls-1" d="M122.29,264v2.79s7.2.97,7.52,5.5v24.77c-.32,4.53-7.52,5.5-7.52,5.5v2.79h20.04v-2.79s-7.19-.97-7.52-5.49v-24.78c.33-4.52,7.52-5.49,7.52-5.49v-2.79h-20.04Z"/><path class="cls-1" d="M167.67,266.79v-2.79h-20.04v2.79s7.19.97,7.52,5.49v24.77c-.33,4.52-7.52,5.49-7.52,5.49v2.79h20.04v-2.79s-7.2-.97-7.52-5.5v-24.77c.33-4.52,7.52-5.5,7.52-5.5Z"/><path class="cls-1" d="M122.29,41.33v-2.79s7.2-.97,7.52-5.5V8.28c-.32-4.53-7.52-5.5-7.52-5.5V0h20.04v2.79s-7.19.97-7.52,5.49v24.78c.33,4.52,7.52,5.49,7.52,5.49v2.79h-20.04Z"/><path class="cls-1" d="M167.67,38.55v2.79h-20.04v-2.79s7.19-.97,7.52-5.49V8.28c-.33-4.52-7.52-5.49-7.52-5.49V0h20.04v2.79s-7.2.97-7.52,5.5v24.77c.33,4.52,7.52,5.5,7.52,5.5Z"/></g></svg>