<?xml version="1.0" encoding="UTF-8"?><svg id="Layer_1" xmlns="http://www.w3.org/2000/svg" viewBox="0 0 270 306.81"><defs><style>.cls-1{fill:#fff;}</style></defs><g id="Circle_1"><path class="cls-1" d="M221.65,26.09s-1.01,5.75-5.69,6.01h-78.96V8.65c.94-4.59,9.83-5.59,9.83-5.59V0h-23.66v3.06s8.89,1,9.83,5.59v23.45H54.04c-4.69-.27-5.69-6.01-5.69-6.01h-1v16.03h1s1.01-5.75,5.7-6.02h161.91c4.69.26,5.7,6.02,5.7,6.02h1v-16.03h-1Z"/><path class="cls-1" d="M221.65,264.69s-1.01,5.75-5.69,6.01H54.04c-4.69-.27-5.69-6.01-5.69-6.01h-1v16.03h1s1.01-5.75,5.7-6.02h78.96v23.45c-.94,4.59-9.83,5.59-9.83,5.59v3.06h23.66v-3.06s-8.89-1-9.83-5.59v-23.45h78.96c4.69.26,5.7,6.02,5.7,6.02h1v-16.03h-1Z"/><path class="cls-1" d="M135,288.4C60.56,288.4,0,227.84,0,153.4S60.56,18.4,135,18.4s135,60.56,135,135-60.56,135-135,135ZM135,24.4C63.87,24.4,6,82.27,6,153.4s57.87,129,129,129,129-57.87,129-129S206.13,24.4,135,24.4Z"/></g></svg>