<?xml version="1.0" encoding="UTF-8"?><svg id="Layer_1" xmlns="http://www.w3.org/2000/svg" viewBox="0 0 321.67 270"><defs><style>.cls-1{fill:#fff;}</style></defs><g id="Circle_6"><path class="cls-1" d="M160.84,270c-74.44,0-135-60.56-135-135S86.4,0,160.84,0s135,60.56,135,135-60.56,135-135,135ZM160.84,6C89.71,6,31.84,63.87,31.84,135s57.87,129,129,129,129-57.87,129-129S231.97,6,160.84,6Z"/><path class="cls-1" d="M28.84,148.68c-13.61,0-23.7-8.58-27.41-12.27l-1.43-1.42,1.43-1.42c3.71-3.69,13.8-12.27,27.41-12.27s23.7,8.58,27.41,12.27l1.43,1.42-1.43,1.42c-3.71,3.69-13.8,12.27-27.41,12.27ZM5.75,135c4.15,3.72,12.47,9.68,23.09,9.68s18.93-5.96,23.09-9.68c-4.15-3.72-12.47-9.68-23.09-9.68s-18.93,5.96-23.09,9.68Z"/><path class="cls-1" d="M46.72,103.66s-.97,7.2-5.5,7.52h-24.77c-4.52-.33-5.5-7.52-5.5-7.52h-2.79v20.04h2.79s.97-7.19,5.49-7.52h24.77c4.52.33,5.49,7.52,5.49,7.52h2.79v-20.04h-2.79Z"/><path class="cls-1" d="M46.72,146.3s-.97,7.2-5.5,7.52h-24.76c-4.53-.32-5.5-7.52-5.5-7.52h-2.79v20.04h2.79s.97-7.19,5.49-7.52h24.78c4.52.33,5.49,7.52,5.49,7.52h2.79v-20.04h-2.79Z"/><path class="cls-1" d="M265.43,136.42l-1.43-1.42,1.43-1.42c3.71-3.69,13.8-12.27,27.41-12.27,13.61,0,23.7,8.58,27.41,12.27l1.43,1.42-1.43,1.42c-3.71,3.69-13.8,12.27-27.41,12.27-13.61,0-23.7-8.58-27.41-12.27ZM292.84,125.32c-10.62,0-18.93,5.96-23.09,9.68,4.15,3.72,12.47,9.68,23.09,9.68,10.62,0,18.93-5.96,23.09-9.68-4.15-3.72-12.47-9.68-23.09-9.68Z"/><path class="cls-1" d="M274.96,103.66s.97,7.2,5.5,7.52h24.77c4.52-.33,5.5-7.52,5.5-7.52h2.79v20.04h-2.79s-.97-7.19-5.49-7.52h-24.77c-4.52.33-5.49,7.52-5.49,7.52h-2.79v-20.04h2.79Z"/><path class="cls-1" d="M274.96,146.3s.97,7.2,5.5,7.52h24.76c4.53-.32,5.5-7.52,5.5-7.52h2.79v20.04h-2.79s-.97-7.19-5.49-7.52h-24.78c-4.52.33-5.49,7.52-5.49,7.52h-2.79v-20.04h2.79Z"/></g></svg>