<?xml version="1.0" encoding="UTF-8"?><svg id="Layer_1" xmlns="http://www.w3.org/2000/svg" viewBox="0 0 298.82 298.82"><defs><style>.cls-1{fill:#fff;}</style></defs><g id="Corner_6"><path class="cls-1" d="M214.29,276.48s-.99,6.98-5.54,7.46h-93.17c-4.55-.48-5.54-7.46-5.54-7.46h-1v19.92h1s.98-6.97,5.53-7.46h93.19c4.55.49,5.53,7.46,5.53,7.46h1v-19.92h-1Z"/><path class="cls-1" d="M22.34,84.53v-1H2.43v1s6.98.98,7.46,5.53v93.18c-.48,4.55-7.46,5.53-7.46,5.53v1h19.91v-1s-6.97-.98-7.46-5.53v-93.19c.48-4.55,7.46-5.53,7.46-5.53Z"/><path class="cls-1" d="M162.89,298.82c-12.21,0-22.15-9.94-22.15-22.15,0-1.72.19-3.4.57-5.03H27.18v-114.13c-1.63.38-3.31.57-5.02.57-12.22,0-22.16-9.94-22.16-22.15s9.94-22.16,22.16-22.16c1.71,0,3.39.19,5.02.57V0h6v123.24l-4.27-1.99c-2.12-.98-4.39-1.48-6.75-1.48-8.91,0-16.16,7.25-16.16,16.16s7.25,16.15,16.16,16.15c2.36,0,4.64-.5,6.76-1.48l4.26-1.97v117h117.03l-1.99,4.27c-.98,2.11-1.48,4.39-1.48,6.76,0,8.91,7.25,16.15,16.15,16.15s16.16-7.25,16.16-16.15c0-2.37-.5-4.65-1.48-6.77l-1.97-4.26h123.21v6h-114.34c.38,1.63.57,3.31.57,5.03,0,12.21-9.94,22.15-22.16,22.15Z"/><path class="cls-1" d="M2.18,296.63s8.53-6.3,15.87-8.93l155.78-33.6c5.91-.6,19.81-.98,19.81-.98,0,0-10.74-2.05-16.16-5.92l-20-20c.13-2.99,2.46-6.05,2.46-6.05l-1.97-1.97-14.17,14.17,1.97,1.97s3.06-2.33,6.06-2.46l14.65,14.65-146.84,31.67,31.67-146.84,14.65,14.65c-.13,2.99-2.46,6.05-2.46,6.05l1.97,1.97,14.17-14.17-1.97-1.97s-3.06,2.33-6.05,2.46l-20-20c-3.87-5.41-5.92-16.16-5.92-16.16,0,0-.38,13.88-.98,19.8L11.1,280.76c-2.63,7.34-8.92,15.87-8.92,15.87Z"/><path class="cls-1" d="M50.29,243.19c-2.61,2.61-3.54,5.93-2.07,7.4s4.78.55,7.4-2.07,3.54-5.93,2.07-7.4-4.78-.55-7.4,2.07Z"/><path class="cls-1" d="M71.14,264.05c-1.2-1.2-1.69-7.35-1.69-7.35-.39-3.89-1.55-9.34-4.76-14.39-1.62-5.67,3.28-11.45,3.28-11.45,0,0-5.77,4.9-11.45,3.28-5.06-3.22-10.5-4.37-14.39-4.76,0,0-6.15-.49-7.35-1.69,1.2,1.2,1.69,7.35,1.69,7.35.39,3.89,1.55,9.34,4.76,14.39,1.62,5.67-3.28,11.45-3.28,11.45,0,0,5.77-4.89,11.45-3.28,5.06,3.21,10.5,4.37,14.39,4.76,0,0,6.15.49,7.35,1.69ZM48.15,250.66c-5.32-5.32-6.76-12.37-7.12-16.73,4.36.35,11.41,1.8,16.73,7.12,5.32,5.32,6.76,12.37,7.12,16.73-4.36-.35-11.41-1.8-16.73-7.12Z"/></g></svg>