<?xml version="1.0" encoding="UTF-8"?><svg id="Layer_1" xmlns="http://www.w3.org/2000/svg" viewBox="0 0 307.64 307.64"><defs><style>.cls-1{fill:#fff;}</style></defs><g id="Corner_3"><path class="cls-1" d="M74.14,233.51c-2.7,2.7-7.13,11.58-5.76,15.21-2.81-2.18-30.66,21.21-30.66,21.21,0,0,23.39-27.85,21.21-30.66,3.63,1.37,12.51-3.06,15.21-5.76Z"/><path class="cls-1" d="M88,247.37c-.92,4.21-3.01,8.22-6.28,11.49-9.1,9.1-23.84,9.1-32.94,0-9.1-9.1-9.1-23.84,0-32.94,3.27-3.27,7.28-5.36,11.49-6.28-5.8.5-11.46,2.96-15.9,7.4-10,10-10,26.22,0,36.23,10,10,26.22,10,36.23,0,4.44-4.44,6.9-10.1,7.4-15.9Z"/><path class="cls-1" d="M293.35,269.98s-13.62,7.66-27.91,7.66h-21.91c-7.33-1.06-12.97-7.35-12.97-14.98,0,7.63-5.64,13.92-12.97,14.98-38.29,0-88.52,0-110.08,0h0c-4.15,0-12.51-5.01-15-9.67,2.52,4.79,2.67,11.52-1.82,14.98-7.92,5.59-17.34,8.61-27.23,8.61-12.65,0-24.55-4.93-33.5-13.87-8.95-8.95-13.87-20.84-13.87-33.5,0-9.89,3.03-19.32,8.62-27.24,3.46-4.48,10.18-4.33,14.97-1.81-4.66-2.49-9.67-10.85-9.67-15,0-21.56,0-71.79,0-110.08,1.06-7.33,7.36-12.97,14.98-12.97-7.63,0-13.92-5.64-14.98-12.97v-21.91c0-14.3,7.66-27.92,7.66-27.92,0,0-16.68,2.04-29.96-14.3H0s20.68,10.85,20.68,34.85v28.41c-.67,7.75-7.16,13.84-15.09,13.84,7.93,0,14.42,6.09,15.09,13.84,0,47.29,0,107.35,0,118.1-17.89,21.73-16.69,54.01,3.62,74.31,10.46,10.46,24.36,16.22,39.15,16.22,12.98,0,25.28-4.44,35.17-12.6h118.09c7.75.67,13.84,7.17,13.84,15.09,0-7.93,6.09-14.42,13.84-15.09h28.41c24,0,34.85,20.68,34.85,20.68v-7.7c-16.34-13.28-14.3-29.96-14.3-29.96Z"/><path class="cls-1" d="M114.6,266.96c.85-4.59,8.83-5.58,8.83-5.58v-3.06h-23.66v3.06s7.98,1,8.83,5.58v30.16c-.85,4.58-8.83,5.58-8.83,5.58v3.06h23.66v-3.06s-7.98-1-8.83-5.58v-30.15Z"/><path class="cls-1" d="M46.26,184.21s-1,7.98-5.59,8.83H10.53c-4.59-.85-5.59-8.83-5.59-8.83H1.88v23.66h3.06s1-7.98,5.58-8.83h30.16c4.58.85,5.58,8.83,5.58,8.83h3.06v-23.66h-3.06Z"/></g></svg>