<?xml version="1.0" encoding="UTF-8"?><svg id="Layer_1" xmlns="http://www.w3.org/2000/svg" viewBox="0 0 335.15 335.15"><defs><style>.cls-1{fill:#fff;}</style></defs><g id="Corner_8"><path class="cls-1" d="M321.46,285.63c-.69-.73-1.7-.61-2.62-.59-1.74.04-3.48.07-5.22.11-.18,0-.36,0-.54,0-.43-.55-.85-1.11-1.21-1.68-.55-.88-1.04-1.81-1.42-2.77-.27-.67-.72-1.38.05-1.82.79-.45,1.83-.09,2.63.17,1.11.35,2.21.75,3.31,1.13,1.83.63,2.62-2.27.8-2.89-2.3-.79-5.11-2.24-7.56-1.31-1.09.41-2.03,1.23-2.44,2.34-.45,1.24,0,2.46.49,3.61.48,1.16,1.06,2.24,1.73,3.27-1.84.13-3.61.56-4.88,1.94-.94,1.02-1.52,2.29-1.93,3.6-.41,1.29-1.18,3.37.29,4.27.8.49,1.91.31,2.8.31.85,0,1.74-.01,2.5-.45,1.54-.88,1.73-3.19.15-4.13-1.22-.72-2.35.48-2.22,1.56-.12.01-.23.02-.27.02-.2,0-.4,0-.61,0,.06-.19.12-.38.17-.55.18-.62.4-1.22.72-1.78.68-1.19,1.66-1.67,3.01-1.74.83-.05,1.66-.06,2.49-.08.03.04.06.08.1.12,1.18,1.37,2.47,2.82,2.93,4.55.02.69.1,1.39.22,2.08.13.72.97,1.18,1.65,1.07.77-.12,1.24-.71,1.3-1.47.06-.79-.02-1.53-.18-2.23.04-.83.26-1.63.79-2.28.91-1.11,2.55-.76,3.26-2.13.38-.73.28-1.65-.29-2.26ZM315.48,288.11h.73c-.13.14-.26.3-.37.47-.12-.16-.24-.31-.36-.47Z"/><path class="cls-1" d="M300.79,284.02c.38.09.83.08,1.16-.15,1.1-.76,2.13-1.63,3.03-2.62.27-.29.44-.66.44-1.06,0-.37-.16-.81-.44-1.06-.29-.26-.66-.46-1.06-.44-.39.02-.79.14-1.06.44-.59.65-1.24,1.25-1.94,1.8-.16.12-.32.24-.48.35-.33.23-.58.5-.69.9-.1.36-.05.84.15,1.16.21.32.51.6.9.69Z"/><path class="cls-1" d="M290.74,281.02c.65-.33,1.29-.66,1.94-1,.18-.09.35-.19.53-.28.03.53.03,1.05-.03,1.58-.02.11-.04.23-.06.34-.08.4-.06.8.15,1.16.18.31.54.61.9.69.75.17,1.68-.23,1.85-1.05.19-.92.28-1.86.21-2.8-.08-1.08-.2-2.56-1.23-3.19-.42-.26-.94-.34-1.43-.21-.28.07-.54.21-.79.34-.39.2-.78.4-1.17.6-.8.41-1.59.82-2.39,1.22-.7.36-.96,1.4-.54,2.05.46.71,1.3.92,2.05.54Z"/><path class="cls-1" d="M296.77,285.56c-.64.2-1.21.47-1.62,1.01-.46.61-.55,1.42-.13,2.08.6.94,1.87,1,2.98.85-.5.41-1,.82-1.5,1.24-.61.5-1.21,1-1.82,1.5-.21.17-.42.35-.63.52-1.01-.96-1.97-2-2.81-3.11-.49-.65-1.29-.98-2.05-.54-.64.37-1.03,1.4-.54,2.05.64.84,1.3,1.66,2.01,2.43.67.73,1.41,1.62,2.26,2.15.63.4,1.41.43,2.07.06.49-.27.91-.71,1.34-1.06.82-.68,1.64-1.35,2.45-2.03,1.5-1.24,3.77-2.59,3.14-4.89-.62-2.25-3.13-2.91-5.15-2.27ZM298.92,288.44s0,0,0,0h0Z"/><path class="cls-1" d="M282.19,283.84c.38.09.82.07,1.16-.15.3-.2.63-.52.69-.9.02-.11.04-.21.07-.31.17.62.34,1.23.51,1.85.21.76,1.07,1.3,1.85,1.05.77-.25,1.27-1.03,1.05-1.85-.25-.91-.5-1.81-.75-2.72-.28-1-.43-2.31-1.42-2.88-.82-.48-1.75-.21-2.38.44-.34.35-.64.75-.9,1.16-.46.74-.79,1.6-.92,2.46-.06.42-.07.78.15,1.16.18.31.54.61.9.69Z"/><path class="cls-1" d="M288.01,284.65c-1.38,2.21-2.96,4.27-4.76,6.16-.42.44-.84.87-1.28,1.29-.15.14-.3.29-.46.43.3-.56.64-1.08,1.04-1.57.65-.78.54-1.77-.3-2.36-1.1-.77-2.37-1.27-3.7-1.47-.48-.07-1.17-.19-1.73-.12-.03-.35-.07-.7-.12-1.05-.31-1.91-1.1-3.69-2.04-5.38,1.47.04,2.94.07,4.4.11,1.93.05,1.93-2.95,0-3-2.36-.06-4.71-.11-7.07-.17-1.13-.03-1.88,1.3-1.3,2.26.79,1.28,1.58,2.58,2.2,3.95.59,1.33.84,2.62.97,4.05.17,1.85,1.53,2.29,3.18,2.25.78-.02,1.5.12,2.2.38-.79,1.2-1.38,2.61-.87,3.88.76,1.89,3.15,1.94,4.6.89,1.52-1.09,2.82-2.64,4.02-4.06,1.32-1.57,2.53-3.23,3.61-4.96,1.03-1.64-1.57-3.15-2.59-1.51ZM281.17,293.3s0-.04.04-.1c.02.05.02.08-.04.1Z"/><path class="cls-1" d="M272.14,288.75c-.5-.06-.98-.02-1.48.07-.26.04-.51.11-.76.17-.14.04-.28.07-.42.1-.02,0-.04,0-.06.01-.01,0,0,0-.03,0-.08,0-.17-.02-.18,0-.02-.03-.08-.08-.11-.12,0,0,0,0,0-.02,0-.02,0-.02,0-.03.01-.12.05-.31,0-.02,0,0,0,0,0-.01.13-.75-.25-1.6-1.06-1.78-.75-.17-1.68.23-1.85,1.05-.24,1.16.1,2.39,1.02,3.17.57.48,1.23.74,1.97.77.64.03,1.26-.16,1.87-.31.06-.01.14-.04.22-.06.02,0,.03,0,.06,0,.04,0,.07,0,.11,0,.18,0,.38.03.57.02.04,0,.07.01.11.02.11.02.21.05.31.09.06.02.13.04.19.07.04.02.07.03.11.05.18.09.34.2.51.31,0,0,0,0,0,0,0,0,.01.02.03.03.08.07.16.15.24.22,0,0,.12.13.18.2.02.03.04.06.06.09.05.08.1.15.14.23.04.08.2.46.06.08.29.73,1.01,1.32,1.85,1.05.7-.23,1.36-1.07,1.05-1.85-.81-2.01-2.54-3.34-4.69-3.6ZM269.08,288.93h0s0,0,0,0c0,0,0,0,0,0,0,0,0,0,0,.01ZM269.08,288.93s0,0,0,0c0,0,0,.01,0,.02,0,0,0-.02,0-.03ZM269.21,289.1s0,0,0,0c.01,0,.03.01.08.02-.03,0-.05-.01-.08-.02Z"/><path class="cls-1" d="M259.62,280.76c.49-.16.86-.53,1.02-.98.04.02.08.04.11.07.14.09.27.18.4.27.31.22.63.44.95.64,1.35.86,2.8,1.55,4.29,2.12.74.28,1.68-.31,1.85-1.05.19-.85-.26-1.55-1.05-1.84-.18-.07-.37-.14-.55-.22-.03-.02-.23-.1-.24-.1-.08-.04-.17-.08-.25-.11-.44-.2-.87-.42-1.29-.65-.81-.44-1.58-.96-2.34-1.48-.86-.58-1.93-1-2.97-.67-1.26.4-2.11,1.64-1.77,2.96.19.76,1.08,1.29,1.85,1.05Z"/><path class="cls-1" d="M260.95,283.12c-.81,0-1.5.69-1.5,1.5,0,.46,0,.92-.04,1.38-.02.26-.04.52-.06.77,0,.08-.02.16-.03.24,0-.03-.04.28-.04.29-.07.45-.17.91-.3,1.35-.07.24-.15.48-.23.72-.03.07-.05.14-.08.21-.01.02-.12.26-.12.26-.19.38-.4.75-.66,1.08-.03.03-.07.08-.08.09-.06.07-.13.14-.19.21-.15-.31-.31-.6-.56-.86-.41-.43-.94-.7-1.51-.85-.05-.01-.1-.02-.14-.03.28-.17.55-.33.83-.5,1-.62,2.28-1.26,2.57-2.51.33-1.38-.81-2.51-1.87-3.2-1.92-1.26-4.59-1.28-6.66-.43-.69.28-1.19.85-1.07,1.65.11.71.71,1.32,1.47,1.3.01,0,.48-.02.2,0,.05.01.1.03.14.04-.1-.05-.1-.06-.01,0,.03.01.13.08.17.1.1.09.18.19.26.29.5.64,1.6.52,2.12,0,.27-.27.39-.58.42-.89.07.01.14.02.13.02.23.05.45.12.68.19.02,0,.06.02.09.03.09.04.17.08.25.13.1.06.2.12.3.18.04.02.06.03.08.04,0,0,0,0,0,0-.01,0-.03.02-.04.03-.33.21-.66.42-.99.62-1.16.71-2.89,1.36-2.96,2.95-.07,1.42,1.16,2.47,2.46,2.74.22.05.43.08.65.13.05.01.09.02.14.04.08.03.12.04.13.04.02.07.1.18.12.23.09.18.15.37.24.55.62,1.31,2.1,1.81,3.37,1.06.97-.57,1.76-1.58,2.31-2.54,1.22-2.14,1.52-4.7,1.52-7.12,0-.81-.69-1.5-1.5-1.5ZM254.28,290.15s0,0,0,0c0,0,0,0,0,0-.09.05-.09.05,0,0ZM254.88,292.43h0,0ZM257.11,291.69s.01,0,.01,0c-.06.05-.07.06-.01,0Z"/><path class="cls-1" d="M250.68,290.53c-.14-.15-.3-.25-.48-.31-.18-.09-.37-.14-.58-.13-.13.02-.27.04-.4.05-.25.07-.47.2-.66.39l-.23.3c-.14.23-.2.49-.2.76v1.36c0,.21.04.4.13.58.06.19.16.35.31.48.14.15.3.25.48.31.18.09.37.14.58.13.13-.02.27-.04.4-.05.25-.07.47-.2.66-.39.08-.1.16-.2.23-.3.14-.23.2-.49.2-.76v-1.36c0-.21-.04-.4-.13-.58-.06-.19-.16-.35-.31-.48Z"/><path class="cls-1" d="M247.82,278.24c-.71-.2-1.72.24-1.85,1.05-.16,1.02-.54,1.91-1.29,2.64-.75.74-1.63,1.29-2.23,2.18-.66.97-.83,2.2-.47,3.32.12.36.28.71.46,1.05-.82-.09-1.64-.2-2.45-.28-.76-.07-1.57.75-1.5,1.5.11,1.25.14,2.51.09,3.76-.08,1.93,2.92,1.93,3,0,.03-.71.02-1.41,0-2.11.41.04.82.08,1.23.12.88.08,2,.39,2.8-.1,1.95-1.2-.19-3.31-.7-4.64-.41-1.07.75-1.66,1.55-2.36,1.26-1.1,2.15-2.62,2.41-4.28.13-.8-.2-1.61-1.05-1.85Z"/><path class="cls-1" d="M236.51,289.37c-1.12-.47-2.25-.74-3.43-.99-.92-.19-1.86-.4-2.67-.89-1.68-1.01-1.25-3-.89-4.63.42-1.9,1.43-3.23,3.16-4.13.38-.2.78-.35,1.18-.49,1.44,2.08,3.2,3.86,5.27,5.31.66.47,1.67.12,2.05-.54.44-.75.13-1.59-.54-2.05-1.27-.89-2.4-1.96-3.39-3.16.57-.12,1.15-.2,1.75-.21,1.93-.05,1.94-3.02,0-3-2.75.02-5.59.29-8.04,1.65-2.27,1.26-3.78,3.29-4.34,5.82-.56,2.52-.86,5.39,1.28,7.29.89.79,2,1.3,3.13,1.62,1.3.37,2.71.45,3.96.98.75.31,1.61.22,2.05-.54.37-.63.21-1.74-.54-2.05Z"/><path class="cls-1" d="M231.8,286.17c0,.2.07.39.18.56.09.17.22.31.39.42.14.13.31.22.51.27.38.09.82.07,1.16-.15.1-.08.2-.16.3-.23.19-.19.31-.41.39-.66.05-.29.1-.59.09-.88,0-.29-.05-.58-.09-.87-.03-.17-.07-.33-.13-.48-.1-.27-.21-.55-.35-.8-.09-.17-.22-.32-.39-.42-.14-.13-.31-.22-.51-.27-.2-.06-.4-.07-.6-.03-.2,0-.39.07-.56.18-.32.21-.6.51-.69.9-.09.4-.05.79.15,1.16,0,.02.02.03.02.05.05.13.08.27.11.4.01.16.02.32,0,.48-.02.13-.02.25.01.38Z"/><path class="cls-1" d="M224.23,278.8c-2.91-.18-5.79-.29-8.68.23-2.71.48-5.35,1.39-8.14,1.14-.81-.07-1.5.74-1.5,1.5,0,.87.69,1.43,1.5,1.5,2.84.25,5.58-.58,8.33-1.13,1.78-.35,3.56-.42,5.36-.38-.14.09-.27.18-.42.26-.6.31-.8.82-.74,1.33-.08-.04-.16-.07-.24-.09-.81-.19-1.6.25-1.85,1.05-.85,2.75-1.01,5.62-.58,8.45.12.78,1.14,1.28,1.85,1.05.85-.27,1.17-1.01,1.05-1.85,0-.07-.02-.1-.02-.12,0-.04,0-.08-.01-.12-.02-.17-.04-.33-.05-.5-.02-.29-.04-.57-.05-.86-.02-.62,0-1.24.04-1.86.02-.26.05-.52.08-.78.01-.07.04-.28.05-.32.03-.17.06-.33.09-.49.12-.61.28-1.21.46-1.81.05-.16.06-.33.05-.5.4.22.89.27,1.4,0,1.45-.75,2.64-1.97,3.34-3.45.5-1.05-.1-2.18-1.3-2.26Z"/><path class="cls-1" d="M209.87,284.58c-.38-.34-.87-.54-1.52-.52-1.75.07-2.75,2.01-3.67,3.24-.23.31-.46.62-.69.92-.11.15-.24.41-.39.54-.02,0-.13.03-.2.02-.17-.02-.34-.03-.51-.06-.4-.05-.8-.12-1.19-.2-1.25-.24-2.87-.46-3.8-1.42-.31-.31-.53-.72-.7-1.15.74-.16,1.4-.86,1.27-1.7.38,0,.78-.02,1.16-.05.93-.07,1.8-.36,2.47-1.03,1.14-1.15,1.31-2.99.39-4.32-2.14-3.12-6.5-1.58-7.94,1.36-1.33,2.71-.97,6.57,1.07,8.86,1.11,1.25,2.78,1.79,4.36,2.16.87.2,1.75.35,2.64.47.95.12,1.81.15,2.62-.43.84-.6,1.41-1.63,2.02-2.45.21-.28.42-.56.63-.84.01.29.03.59.04.88.04,1.11.06,2.23.05,3.35,0,1.69,2.49,2.04,2.95.4.59-2.16.88-4.4.84-6.63-.02-1.13-1.07-1.6-1.92-1.4ZM198.27,284.35s.03-.01.05-.02c-.01.02-.03.03-.05.02ZM199.89,280.37c1.02,1-1.47.87-1.96.96-.23.04-.45.1-.66.19.1-.18.2-.37.33-.53.49-.6,1.6-1.28,2.29-.61Z"/><path class="cls-1" d="M194.53,289.37c-.18-.09-.37-.14-.58-.13-.39.02-.79.15-1.06.44-.27.29-.44.65-.44,1.06v1.87c0,.38.17.79.44,1.06.14.15.3.25.48.31.18.09.37.14.58.13.39-.02.79-.15,1.06-.44.27-.29.44-.65.44-1.06v-1.87c0-.38-.17-.79-.44-1.06-.14-.15-.3-.25-.48-.31Z"/><path class="cls-1" d="M327.68,265.04h-163.72s17.36,2.3,17.36,8-16.34,26.89-46.98,26.89H35.22v-99.12c0-30.64,21.19-46.98,26.89-46.98s8,17.36,8,17.36V7.47c2.31-4.26,5.31-6.76,9.02-7.47H17.9c3.87.74,6.98,3.4,9.32,8v299.93h299.93c4.6,2.34,7.26,5.45,8,9.32v-61.23c-.71,3.71-3.21,6.72-7.47,9.02ZM62.11,8v134.21s.13,2.3-1.23,2.3c-14.94,0-25.66,22.4-25.66,22.4V8h26.89ZM168.23,299.93s22.4-10.71,22.4-25.66c0-1.36,2.3-1.23,2.3-1.23h134.21v26.89h-158.91Z"/><path class="cls-1" d="M40.23,20.21c.69.12,1.39.2,2.08.22,1.74.46,3.19,1.75,4.55,2.93.04.03.08.06.12.1-.01.83-.03,1.66-.08,2.49-.07,1.29-.51,2.28-1.64,2.95-.56.33-1.15.55-1.76.74-.21.06-.44.14-.67.21,0-.2,0-.41,0-.61,0-.05.01-.16.02-.27,1.08.13,2.28-1,1.55-2.22-.79-1.34-2.7-1.48-3.76-.35-1.07,1.15-.88,3.15-.81,4.6.04.85.39,1.6,1.22,1.93.78.31,1.64.03,2.41-.17,1.25-.32,2.53-.74,3.61-1.47,1.22-.82,2.14-1.94,2.54-3.37.2-.73.28-1.49.32-2.26,1.04.67,2.12,1.26,3.29,1.74,1.16.48,2.36.93,3.61.49,1.12-.4,1.93-1.35,2.34-2.44.93-2.44-.53-5.26-1.31-7.56-.62-1.82-3.52-1.04-2.89.8.38,1.1.77,2.2,1.13,3.31.24.76.59,1.74.23,2.52-.41.9-1.16.45-1.88.16-.96-.38-1.89-.87-2.77-1.42-.58-.36-1.14-.78-1.69-1.21.03-1.47.06-2.94.09-4.41.03-1.51.52-4.01-1.48-4.45-.94-.21-1.88.32-2.32,1.15-.34.64-.31,1.36-.79,1.94-.66.79-1.64,1.1-2.64,1.15-.7-.17-1.44-.25-2.23-.19-.74.06-1.38.53-1.47,1.3-.08.68.33,1.51,1.07,1.65ZM47.06,18.94c0,.24,0,.48-.01.72-.16-.12-.31-.24-.47-.36.17-.11.33-.24.48-.37Z"/><path class="cls-1" d="M54.96,29.73c-.41.02-.76.16-1.06.44-.99.9-1.86,1.93-2.62,3.03-.21.31-.25.81-.15,1.16.1.35.36.73.69.9.35.18.77.28,1.16.15l.36-.15c.23-.13.4-.31.54-.54.11-.16.23-.32.35-.48.55-.69,1.14-1.34,1.8-1.94.28-.25.44-.69.44-1.06s-.16-.81-.44-1.06c-.29-.26-.66-.46-1.06-.44Z"/><path class="cls-1" d="M58.89,41.58c.13-.48.04-1.01-.21-1.43-.62-1.01-2.08-1.13-3.15-1.22-.95-.08-1.91.01-2.84.21-.77.16-1.29,1.11-1.05,1.85.26.81,1.02,1.22,1.85,1.05.11-.02.23-.04.34-.06.53-.06,1.05-.06,1.58-.03-.09.18-.19.35-.28.53l-1,1.94c-.36.7-.2,1.66.54,2.05.69.36,1.67.21,2.05-.54l1.2-2.35c.21-.4.41-.81.62-1.21.13-.25.27-.51.34-.79Z"/><path class="cls-1" d="M45.92,39.54c.79,1.37,2.62.92,3.3-.27,1.08-1.87.79-4.6-1.17-5.74-.94-.55-2.1-.55-3.04,0-.85.51-1.45,1.44-2.07,2.19-.68.82-1.35,1.64-2.03,2.45-.69.84-1.8,1.79-1.85,2.94-.05,1.22,1.32,2.27,2.13,3.04.88.84,1.82,1.6,2.78,2.34.65.49,1.68.1,2.05-.54.45-.77.11-1.56-.54-2.05-1.11-.84-2.15-1.8-3.11-2.81.15-.18.31-.37.46-.55.52-.63,1.05-1.27,1.57-1.9.41-.5.83-1,1.24-1.5-.11.83-.11,1.72.27,2.4ZM48.62,38.26c.04.17.01.29,0,0h0Z"/><path class="cls-1" d="M51.46,51.8c-.19.32-.27.8-.15,1.16.12.36.34.71.69.9.38.2.73.21,1.16.15.86-.13,1.72-.46,2.46-.92.41-.26.81-.56,1.16-.9.65-.62.92-1.56.44-2.38-.58-.99-1.88-1.14-2.88-1.42-.91-.25-1.81-.5-2.72-.75-.76-.21-1.67.26-1.85,1.05-.18.79.24,1.62,1.05,1.85.62.17,1.23.34,1.85.51-.1.02-.21.05-.31.07-.35.05-.73.4-.9.69Z"/><path class="cls-1" d="M44.73,55.91c.26.69.4,1.42.38,2.2-.04,1.64.39,3.01,2.25,3.18,1.43.13,2.72.37,4.05.97,1.38.61,2.67,1.41,3.95,2.2.96.59,2.28-.17,2.26-1.3-.06-2.36-.11-4.71-.17-7.07-.05-1.93-3.05-1.93-3,0,.04,1.47.07,2.94.11,4.4-1.69-.94-3.47-1.73-5.38-2.04-.33-.05-.66-.1-.99-.12-.03,0-.05,0-.08,0,.05-.57-.03-1.18-.11-1.73-.19-1.33-.7-2.6-1.47-3.7-.59-.84-1.57-.96-2.36-.3-.49.41-1.01.75-1.57,1.04.11-.12.22-.23.33-.35.45-.48.92-.94,1.39-1.39,1.89-1.8,3.95-3.38,6.16-4.76,1.63-1.02.13-3.62-1.51-2.59-1.69,1.06-3.31,2.24-4.84,3.52-1.47,1.22-3.05,2.56-4.18,4.12-1.02,1.42-1,3.63.71,4.53,1.28.67,2.79.04,4.06-.8ZM41.94,53.94c-.05.02-.09.04-.09.03,0-.06.04-.06.09-.03Z"/><path class="cls-1" d="M46.06,65.67c.03-.14.06-.28.1-.42.06-.23.12-.47.17-.7.09-.51.14-1.02.07-1.53-.26-2.16-1.59-3.89-3.6-4.69-.73-.29-1.68.32-1.85,1.05-.2.87.27,1.53,1.05,1.85-.36-.14-.04-.01.04.03.1.05.19.11.28.17.05.03.09.06.13.09.09.06.06.04-.09-.07.08.03.18.16.24.22.08.08.15.16.22.24.01.01,0,0,.02.01.11.16.21.32.31.49.02.03.03.06.04.09.02.08.09.22.1.26.03.1.06.21.09.31,0,.03.02.06.03.09.04.16.02.37.02.53,0,.04-.03.23-.03.25-.02.08-.04.17-.04.19-.15.61-.33,1.24-.31,1.87.02.68.24,1.29.66,1.82.78,1.02,2.04,1.43,3.28,1.17.77-.16,1.29-1.11,1.05-1.85-.26-.79-.98-1.18-1.77-1.05,0,0-.02,0-.02,0,.28-.06.1-.02-.02,0-.01,0-.01,0-.03,0,0,0,0,0,0,0-.02,0-.04-.02-.06-.03,0,0,0,0,0,0-.02-.02-.03-.03-.05-.05,0,0,0-.01-.01-.02,0,0,0-.01,0-.02,0-.03,0-.06,0-.09,0-.05,0-.09,0-.11,0-.02,0-.03.01-.05ZM46.09,66h0s0,0,0,0c0,0,0,0,0,0ZM46.07,65.99s0,0,0,0c0,0,0,0,0,0,0,0,0,0,0,0,0,0,0,0,0,0ZM46.05,65.97s0,0,0,0c0,0,0,0,0,.01-.03-.02-.05-.03-.06-.05.02.02.03.02.04.03Z"/><path class="cls-1" d="M54.39,75.53c-.18.78.23,1.64,1.05,1.85,1.32.34,2.51-.49,2.95-1.72.37-1.04-.06-2.15-.66-3.02-.51-.75-1.01-1.49-1.44-2.28-.23-.42-.45-.85-.65-1.29-.05-.1-.1-.21-.14-.31,0-.02-.06-.14-.09-.21-.03-.07-.07-.18-.08-.2-.05-.13-.1-.26-.15-.39-.28-.73-1.02-1.31-1.85-1.05-.71.23-1.35,1.06-1.05,1.85.57,1.5,1.26,2.94,2.12,4.29.19.31.4.6.6.9.09.13.19.27.27.4.02.03.07.09.12.17-.48.15-.88.51-1,1.02ZM55.54,74.72c.11-.16.02-.03,0,0,0,0,0,0,0,0ZM55.55,74.97s-.01-.08-.02-.12c.02.05.03.11.02.12Z"/><path class="cls-1" d="M50.67,85.94c.8.09,1.35-.36,1.65-1.07.79-1.92.78-4.16-.09-6.05-.44-.96-1.3-2.06-2.33-2.41-1.49-.51-2.53.63-3.25,1.76-.31.49-.62.99-.92,1.49-.02.03-.03.05-.05.08-.08-.33-.18-.65-.35-.97-.26-.49-.69-.88-1.17-1.15-.07-.04-.15-.07-.23-.1.25-.25.34-.31.74-.56.23-.14.47-.27.71-.39.03-.02.14-.07.18-.08.12-.05.24-.09.36-.14.48-.17.97-.3,1.47-.4.15-.03.3-.06.46-.08.03,0,.22-.03.28-.04.24-.03.47-.05.71-.07.56-.04,1.13-.06,1.69-.06.81,0,1.5-.69,1.5-1.5s-.69-1.5-1.5-1.5c-2.21,0-4.43.26-6.46,1.18-1.83.83-5.1,3.49-2.82,5.56.34.3.72.46,1.12.65.09.04.18.09.27.13.03.01.03.02.05.03,0-.01-.02-.02-.02-.04,0,.01.01.03.02.04,0,0,.02.01.03.01,0,0,0,.02,0,.02,0,0,0,0,.01.01,0,0,0,0,0,0,0,0,0,0-.01,0,.02.06.03.11.05.17.14.54.2,1.06.44,1.57.28.58.73,1.08,1.31,1.37.83.41,1.77.28,2.47-.31.5-.42.79-1.03,1.12-1.58.33-.56.67-1.11,1.02-1.66.04-.07.08-.13.13-.2,0,0,0,0,.01.01.01.02.02.03.04.06.07.12.15.24.21.36,0-.01.07.15.1.21.03.08.1.3.11.34.05.18.09.36.12.55-.32.02-.62.15-.89.41-.52.52-.64,1.62,0,2.12.1.08.2.17.29.27.01.03.08.12.1.17.02.04.03.06.03.07,0-.1,0,.22,0,.26-.02.74.59,1.39,1.3,1.47ZM42.74,80.3s.01,0,0-.03c.03.02.03.03,0,.03h0ZM43.46,78.03s0,0,0,.01c-.01,0-.04.03,0-.01ZM49.57,79.19c.05-.06.1-.11.1-.09,0,.05-.04.08-.1.09Z"/><path class="cls-1" d="M49.38,84.27s0-.05,0-.07c0,0,0,0-.02-.04-.04-.08-.04-.05.02.11Z"/><path class="cls-1" d="M42.69,80.25s0,0,0,0c.01.02.02.04.04.05,0,0,0,0,0,0-.01-.01-.02-.02-.03-.04Z"/><path class="cls-1" d="M44.32,84.24c-.23-.14-.49-.2-.76-.2h-1.36c-.21,0-.4.04-.58.13-.19.06-.35.16-.48.31-.15.14-.25.3-.31.48-.09.18-.14.37-.13.58.02.13.04.27.05.4.07.25.2.48.39.66.1.08.2.16.3.23.23.14.49.2.76.21h1.36c.21,0,.4-.04.58-.13.19-.06.35-.16.48-.31.15-.14.25-.3.31-.48.09-.18.14-.37.13-.58-.02-.13-.04-.27-.05-.4-.07-.25-.2-.47-.39-.66-.1-.08-.2-.16-.3-.23Z"/><path class="cls-1" d="M45.45,96.67c.76.07,1.57-.74,1.5-1.5-.08-.81-.19-1.63-.28-2.45.31.16.63.31.96.42,1.15.39,2.41.25,3.41-.44.86-.58,1.42-1.42,2.12-2.17.74-.78,1.65-1.19,2.7-1.35.8-.13,1.24-1.13,1.05-1.85-.23-.85-1.04-1.17-1.85-1.05-1.62.26-3.13,1.11-4.22,2.34-.44.49-.82,1.07-1.34,1.49-.33.27-.62.3-1.08.13-1.33-.51-3.22-2.53-4.53-.85-.62.79-.32,1.9-.23,2.82.04.46.09.91.13,1.37-.7-.02-1.41-.03-2.11,0-1.92.08-1.93,3.08,0,3,1.26-.05,2.51-.02,3.76.09Z"/><path class="cls-1" d="M57.55,96.14c-.02.6-.09,1.18-.21,1.75-1.2-.98-2.27-2.12-3.16-3.39-.46-.66-1.31-.97-2.05-.54-.66.38-1.01,1.39-.54,2.05,1.46,2.08,3.24,3.83,5.31,5.27-.14.4-.29.8-.49,1.18-.91,1.73-2.23,2.74-4.13,3.16-1.62.36-3.62.8-4.63-.89-.49-.82-.69-1.75-.89-2.67-.25-1.19-.52-2.31-.99-3.43-.32-.75-1.42-.91-2.05-.54-.77.45-.85,1.3-.54,2.05.53,1.25.61,2.66.98,3.96.32,1.14.83,2.24,1.62,3.13,1.9,2.13,4.77,1.83,7.29,1.27,2.53-.56,4.56-2.07,5.82-4.34,1.36-2.45,1.63-5.29,1.65-8.04.02-1.93-2.95-1.93-3,0Z"/><path class="cls-1" d="M49.66,100.34c-.29,0-.59.05-.88.1-.2.05-.37.14-.51.27-.16.11-.29.25-.39.42-.11.17-.17.36-.18.56-.04.2-.04.4.03.6.12.36.34.71.69.9.12.05.24.1.36.15.17.05.34.05.51.04.18-.02.37-.01.55,0,.14.03.27.06.4.11.02,0,.03.02.05.02.34.19.77.26,1.16.15.2-.05.37-.14.51-.27.16-.11.29-.25.39-.42.18-.35.28-.77.15-1.16-.12-.37-.34-.7-.69-.9-.25-.14-.53-.26-.8-.35-.16-.06-.32-.1-.48-.13-.28-.05-.58-.09-.87-.09Z"/><path class="cls-1" d="M48.34,114.87c-.14.03-.28.05-.42.08-.09.02-.19.03-.28.05-.07,0-.1.01-.12.02-.02,0-.02,0-.05,0-.09.01-.19.02-.29.03-.14.01-.29.03-.43.04-.62.05-1.24.06-1.86.04-.29,0-.57-.03-.86-.05-.14-.01-.29-.03-.43-.04-.06,0-.13-.02-.19-.02-.02,0-.06,0-.12-.02-.77-.12-1.65.19-1.85,1.05-.16.71.22,1.72,1.05,1.85,2.84.43,5.71.27,8.45-.58.75-.23,1.3-1.06,1.05-1.84-.03-.08-.06-.17-.1-.24.51.06,1.03-.13,1.34-.74.08-.15.17-.29.26-.42.04,1.79-.03,3.58-.38,5.36-.55,2.75-1.38,5.49-1.13,8.33.07.81.64,1.5,1.5,1.5.76,0,1.57-.69,1.5-1.5-.25-2.79.66-5.43,1.14-8.14.51-2.89.41-5.77.23-8.68-.07-1.19-1.2-1.79-2.26-1.29-1.48.7-2.7,1.89-3.45,3.34-.26.51-.22,1,0,1.4-.16-.01-.33,0-.5.05-.59.18-1.2.34-1.81.46Z"/><path class="cls-1" d="M52.42,132.68c-.8.57-1.28,1.4-1.43,2.37-.07.5,0,1.02-.1,1.51,0,.05-.01.08-.02.11-.83-.12-1.53.52-1.69,1.26-.19-.08-.38-.15-.55-.25-1.09-.62-1.44-1.78-1.73-2.93-.19-.78-.35-1.57-.47-2.37-.03-.21-.17-.68-.09-.88-.08.19.51-.31.56-.35.62-.46,1.23-.92,1.85-1.38.67-.5,1.4-.96,1.87-1.67.51-.78.62-1.79.11-2.6-.05-.08-.12-.13-.18-.21.21-.85-.25-1.92-1.39-1.94-2.24-.04-4.48.25-6.63.84-1.63.45-1.31,2.95.4,2.95.97,0,1.94,0,2.91.04.38.01.84.05,1.28.09-.73.54-1.46,1.08-2.18,1.63-.76.58-1.39,1.17-1.54,2.15-.15.94.11,1.99.28,2.91.28,1.55.64,3.23,1.55,4.55,1.78,2.58,5.67,3.39,8.57,2.52,1.49-.45,2.88-1.41,3.63-2.8.83-1.54.84-3.4-.27-4.8-1.14-1.43-3.2-1.86-4.73-.77ZM54.66,137.02c-.27.37-.63.65-1.03.86.03-.07.07-.14.1-.22.23-.71.05-1.46.21-2.17.07-.29.22-.51.52-.46.87.14.58,1.46.21,1.98Z"/><path class="cls-1" d="M44.41,139.69h-1.87c-.38,0-.79.17-1.06.44-.15.14-.25.3-.31.48-.09.18-.14.37-.13.58.02.39.14.79.44,1.06.29.27.65.44,1.06.44h1.87c.38,0,.79-.17,1.06-.44.15-.14.25-.3.31-.48.09-.18.14-.37.13-.58-.02-.39-.14-.79-.44-1.06-.29-.27-.65-.44-1.06-.44Z"/><path class="cls-1" d="M149.16,236.62c-1.68,7.7-5.5,15.03-11.48,21.02-16.64,16.64-43.61,16.64-60.24,0-16.64-16.64-16.64-43.61,0-60.24,5.99-5.99,13.31-9.81,21.02-11.48-10.61.91-20.96,5.42-29.08,13.54-18.3,18.3-18.3,47.96,0,66.25,18.3,18.3,47.96,18.3,66.25,0,8.12-8.12,12.63-18.47,13.54-29.08Z"/><path class="cls-1" d="M121.32,271.62c0-31.87-25.93-57.79-57.79-57.79s-57.67,25.81-57.79,57.58c-1.77,2.2-5.73,2.74-5.73,2.74v2.43h17.46v-2.43s-3.95-.54-5.72-2.72c.11-28.47,23.3-51.59,51.79-51.59s51.79,23.23,51.79,51.79-23.13,51.68-51.59,51.79c-2.19-1.78-2.72-5.72-2.72-5.72h-2.43v17.46h2.43s.54-3.96,2.74-5.73c31.77-.12,57.58-25.99,57.58-57.79Z"/></g></svg>