<?xml version="1.0" encoding="UTF-8"?><svg id="Layer_1" xmlns="http://www.w3.org/2000/svg" viewBox="0 0 307.93 307.93"><defs><style>.cls-1{fill:#fff;}</style></defs><g id="Corner_1"><path class="cls-1" d="M216.33,213.28c-12.12,7.7-20.17,21.23-20.17,36.65,0,23.97,19.43,43.4,43.4,43.4,12.69,0,24.12-5.45,32.05-14.14-7.73,15.13-23.46,25.49-41.62,25.49-25.8,0-46.72-20.92-46.72-46.72,0-21.05,13.92-38.84,33.05-44.69Z"/><path class="cls-1" d="M186.87,294.04c-8.4-8.4-12.91-17.78-13.9-35.39-.99-17.6,4.59-36.84,4.59-36.84l-3.51,1.28s-5.33,23.74-12.1,35.75c-5.84,10.36-16.32,14.19-26.63,15.63l-110.14,8.27,8.27-110.15c1.44-10.3,5.27-20.78,15.63-26.62,12.01-6.77,35.75-12.1,35.75-12.1l1.28-3.51s-19.24,5.58-36.84,4.59c-17.6-.99-26.99-5.51-35.39-13.9s10.64,16.8,10.5,25.5l-9.98,132.89c-1.54,8.2-8.38,22.46-14.41,28.48,6.03-6.03,20.29-12.87,28.48-14.41l132.89-9.98c8.7-.15,33.82,18.81,25.5,10.5Z"/><path class="cls-1" d="M113.12,220.6l-10.26-10.26,10.26-10.26c5.9,3.55,13.66,2.79,18.75-2.29,3.51-3.51,4.96-8.3,4.36-12.87-.41,2.13-1.44,4.16-3.09,5.81-3.47,3.47-8.64,4.19-12.83,2.17l10.67-10.67s-.55-4.71,1.4-6.65c-1.95,1.95-6.65,1.4-6.65,1.4l-10.67,10.67c-2.01-4.19-1.3-9.36,2.17-12.83,1.65-1.65,3.68-2.68,5.81-3.09-4.57-.6-9.36.85-12.87,4.36-5.09,5.09-5.84,12.85-2.29,18.75l-10.26,10.26-10.26-10.26c3.55-5.9,2.79-13.66-2.29-18.75-3.51-3.51-8.3-4.96-12.87-4.36,2.13.41,4.16,1.44,5.81,3.09,3.47,3.47,4.19,8.64,2.17,12.83l-10.67-10.67s-4.71.55-6.65-1.4c1.95,1.95,1.4,6.65,1.4,6.65l10.67,10.67c-4.19,2.01-9.36,1.3-12.83-2.17-1.65-1.65-2.68-3.68-3.09-5.81-.6,4.57.85,9.36,4.36,12.87,5.09,5.09,12.85,5.84,18.75,2.29l10.26,10.26-10.26,10.26c-5.9-3.55-13.66-2.79-18.75,2.29-3.51,3.51-4.96,8.3-4.36,12.87.41-2.13,1.44-4.16,3.09-5.81,3.47-3.47,8.64-4.19,12.83-2.17l-10.67,10.67s.55,4.71-1.4,6.65c1.95-1.95,6.65-1.4,6.65-1.4l10.67-10.67c2.01,4.19,1.3,9.36-2.17,12.83-1.65,1.65-3.68,2.68-5.81,3.09,4.57.6,9.36-.85,12.87-4.36,5.09-5.09,5.84-12.85,2.29-18.75l10.26-10.26,10.26,10.26c-3.55,5.9-2.79,13.66,2.29,18.75,3.51,3.51,8.3,4.96,12.87,4.36-2.13-.41-4.16-1.44-5.81-3.09-3.47-3.47-4.19-8.65-2.17-12.83l10.67,10.67s4.71-.55,6.65,1.4c-1.95-1.95-1.4-6.65-1.4-6.65l-10.67-10.67c4.19-2.01,9.36-1.3,12.83,2.17,1.65,1.65,2.68,3.68,3.09,5.81.6-4.57-.85-9.36-4.36-12.87-5.09-5.09-12.85-5.84-18.75-2.29Z"/><path class="cls-1" d="M305.14,266.95s-.72,5.32-3.79,7.02h-131.55v6h131.55c3.07,1.7,3.79,7.02,3.79,7.02h2.79v-20.04s-2.79,0-2.79,0Z"/><path class="cls-1" d="M94.65,91.6c-7.7,12.12-21.23,20.17-36.65,20.17-23.97,0-43.4-19.43-43.4-43.4,0-12.69,5.45-24.12,14.14-32.05C13.61,44.05,3.24,59.77,3.24,77.93c0,25.8,20.92,46.72,46.72,46.72,21.05,0,38.84-13.92,44.69-33.05Z"/><path class="cls-1" d="M20.94,0v2.79s5.32.72,7.02,3.79v131.55h6V6.58c1.7-3.07,7.02-3.79,7.02-3.79V0h-20.04Z"/><path class="cls-1" d="M145.33,170.26c2.63-7.09,8.64-16.3,8.64-16.3,0,0-9.2,6.01-16.3,8.64-10.85-9.12-24.83-14.63-40.07-14.63-34.39,0-62.36,27.98-62.36,62.36,0,15.25,5.51,29.23,14.63,40.07-2.63,7.09-8.64,16.3-8.64,16.3,0,0,9.21-6.01,16.3-8.64,10.85,9.12,24.83,14.63,40.07,14.63,34.39,0,62.36-27.98,62.36-62.36,0-15.25-5.51-29.23-14.63-40.07ZM97.6,266.7c-12.68,0-24.4-4.21-33.82-11.31-1.75-4.48-.95-10.28.51-11.74-1.46,1.46-7.26,2.26-11.74.51-7.09-9.43-11.31-21.14-11.31-33.82,0-31.08,25.28-56.36,56.36-56.36,12.68,0,24.4,4.21,33.82,11.31,1.75,4.48.95,10.28-.51,11.74,1.46-1.46,7.26-2.26,11.74-.51,7.1,9.43,11.31,21.14,11.31,33.82,0,31.08-25.28,56.36-56.36,56.36Z"/></g></svg>