<?xml version="1.0" encoding="UTF-8"?><svg id="Layer_1" xmlns="http://www.w3.org/2000/svg" viewBox="0 0 305.75 305.8"><defs><style>.cls-1{fill:#fff;}</style></defs><g id="Corner_7"><path class="cls-1" d="M104.44,282.01c-.96-.1-2.15.38-3.25.8-1.57.5-3.1,1.19-4.62,1.88-.59.2-1.18.43-1.76.65-.51-.58-1.02-1.17-1.54-1.74.3-.24.58-.5.89-.74.47-.38.98-.7,1.45-1.11.47-.4.95-.79,1.43-1.17,1-.8,2.13-1.56,3.29-2.12,2.13-.9,3.92.12,3.21,1.99-.23.6.82.52,1.05-.08.72-1.91-.4-3.23-2.46-3.15-1.17.05-2.27.53-3.29,1.23-1.09.6-2.12,1.39-3.06,2.17-.95.86-2.01,1.5-2.97,2.32-.02.02-.04.04-.07.06-.67-.74-1.35-1.48-2.04-2.2-.34-.36-1.25.27-.93.62.7.78,1.39,1.55,2.07,2.33-.16.14-.32.27-.48.4-.47.42-.97.75-1.44,1.14-.95.76-1.86,1.57-2.74,2.4-.17.14-.33.28-.49.42-.05.01-.1.03-.15.04-.85.23-1.71.47-2.57.7-.85.25-1.7.51-2.58.67-.42.09-.79.44-.44.64.55.31,1.57.38,2.21-.13.11-.09.16-.17.18-.25.79-.21,1.59-.41,2.37-.64-.22.29-.41.58-.51.88-.26.79.21,1.44,1.27,1.7.54.13,1.16.19,1.81.2.64-.02,1.3-.11,1.93-.18.72-.09,1.46-.2,2.2-.34.74-.13,1.5-.28,2.22-.55,1.45-.48,2.92-1.05,4.33-1.71,1.35-.76,2.67-1.6,3.91-2.49.57-.38,1.09-.86,1.53-1.36.44-.49.79-1,.98-1.5.36-.95.05-1.69-.93-1.78ZM89.12,287.04c.8-.72,1.64-1.37,2.48-2.06.24-.22.5-.41.75-.63.41.48.82.96,1.23,1.44-.66.25-1.32.51-1.98.75-.85.26-1.7.53-2.54.81-.16.05-.31.1-.46.15.2-.18.38-.34.53-.46ZM103.76,284.8c-.66.92-1.84,1.59-2.83,2.27-2.16,1.53-4.72,2.49-7.18,3.27-1.27.32-2.57.5-3.8.64-.5.05-1.07.12-1.61.14-.54,0-1.06-.08-1.44-.24-.88-.38-.56-1.1.09-1.81.13-.14.28-.29.43-.44,2.24-.68,4.47-1.42,6.67-2.23.65.78,1.29,1.57,1.91,2.38.13.17.41.23.77.06.3-.13.59-.46.46-.62-.62-.77-1.27-1.54-1.91-2.29.64-.24,1.29-.47,1.92-.73,1.14-.52,2.3-1.02,3.47-1.43.99-.3,2.16-.86,3-.81.93.06.68,1.03.04,1.83Z"/><path class="cls-1" d="M76.39,287.66c3.37-.29,6.72-.88,9.98-1.8.75-.22.52-.94-.21-.72-3.22.9-6.51,1.48-9.83,1.77-.02-.25-.04-.49-.05-.74-.03-.48-1.19-.41-1.17.08,0,.25.03.5.04.75-.12,0-.23.02-.35.02-.03,0-.05-.01-.08-.02-.49-.05-1.07.05-1.57.09-.08.01-.17,0-.25.01-.57.02-1.15.02-1.72.02-.76,0-.78.73,0,.75h1.48s.39-.03.39-.03c.45-.01.9-.04,1.36-.06.04.09.06.18.09.26l.31.88c.07.19.3.25.54.23.33,2.67,1,5.32,2.15,7.89.1.23.49.27.83.2.34-.09.61-.31.51-.53-1.39-2.89-2.13-5.98-2.43-9.06Z"/><path class="cls-1" d="M71.43,285.44c.94.09,1.88.04,2.83.01.94-.02,1.89-.04,2.84-.06.94-.1,1.88-.19,2.82-.29l1.42-.13c.47-.05.93-.16,1.4-.24.74-.13.55-.86-.17-.73-.46.07-.92.19-1.38.23l-1.4.13c-.93.09-1.86.19-2.78.28-.93.02-1.87.04-2.8.06-.93.03-1.86.08-2.79-.02-.73-.04-.74.71,0,.75Z"/><path class="cls-1" d="M82.34,293.76s-.06-.08-.09-.12c-.01-.04-.03-.08-.03-.12,0-.05-.03-.1-.08-.13-.04-.04-.09-.07-.16-.1-.07-.03-.14-.04-.23-.04-.08-.01-.17,0-.26,0-.17.03-.34.09-.45.18l-.09.09c-.05.07-.07.13-.06.2,0,.12.05.24.12.35.04.07.11.13.17.19.04.04.09.07.14.1.11.07.26.11.43.11.09,0,.18-.01.27-.04.09-.02.17-.04.24-.08.14-.07.25-.17.27-.27.02-.1,0-.2-.12-.27-.03-.02-.05-.04-.08-.06Z"/><path class="cls-1" d="M68.24,296.23c-6.82-.38-13.53-2.16-19.54-5.1.98-.01,1.93-.04,2.85-.1.72-.07,1.43-.18,2.12-.31,2.33.63,4.69,1.16,7.07,1.59-.1.51-.21,1.02-.34,1.52-.12.47,1.23.73,1.34.26.12-.52.22-1.04.31-1.56,1.95.32,3.91.57,5.88.75.86.04.88-.71.04-.75-1.95-.18-3.88-.43-5.81-.75.13-.94.21-1.88.24-2.83.01-.48-1.19-.73-1.22-.24-.05.96-.16,1.91-.31,2.86-1.86-.33-3.71-.73-5.54-1.19.09-.02.18-.04.27-.06.64-.15,1.27-.31,1.87-.48.61-.18,1.21-.43,1.79-.66,1.16-.48,2.24-.99,3.25-1.54.66-.34,1.35-.79,1.8-1.32.71,1.13,1.4,2.29,2.02,3.47.25.47,1.48.41,1.22-.07-.87-1.6-1.82-3.17-2.83-4.7-.22-.34-1.09-.3-1.1.08-.02.59-.48,1.01-1.04,1.37-.54.35-1.15.67-1.77.98-1.26.61-2.65,1.28-4.1,1.64-1.05.29-2.16.56-3.32.77-.41-.11-.81-.23-1.21-.35.33-.56.5-1.21.74-1.81l1.35-3.35s.08.08.13.11c.34.24.71.46,1.11.65.79.39,1.68.69,2.6.87.75.15.61-.65-.12-.79-1.37-.27-2.72-.93-3.53-1.79-.29-.34-.89-.43-1.02-.12l-1.33,3.11-.66,1.52-.34.79c-.05.11-.08.24-.15.34-.02.03-.05.06-.08.08,0,0-.01,0-.02,0-.55-.18-1.11.13-.56.53.31.22.62.33.9.35.13.04.25.08.38.11-1.52.12-3.1.18-4.77.16-.45,0-.71.4-.12.69,6.53,3.49,13.96,5.58,21.52,6,.91.03.93-.72.04-.75Z"/><path class="cls-1" d="M39.82,279.65c-.59.58-1.1,1.23-1.5,1.96-.1.17,0,.49.31.7.29.17.67.22.76.03.38-.73.88-1.4,1.46-2,.14-.14-.05-.48-.32-.64-.31-.2-.56-.21-.71-.06Z"/><path class="cls-1" d="M45.55,280.73c-2.69-1.48-5.24-3.22-7.62-5.15.65.13,1.33.34,1.99.61.68.28,1.36.63,2.02,1.02.68.35,1.37.7,2,1.09.84.49,1.63,1.07,2.45,1.58.65.38,1.57.91,1.96,1.48.22.33,0,.62-.11.86l-.42.87c-.29.58-.61,1.14-.94,1.69-.25.41.89.98,1.13.57.33-.58.64-1.17.93-1.77l.4-.88c.12-.28.26-.57.2-.92-.1-.62-.76-1.2-1.38-1.67-.73-.57-1.6-.96-2.35-1.53-.73-.49-1.5-.97-2.3-1.41-.39-.23-.82-.41-1.2-.64-.39-.23-.78-.45-1.17-.65-1.49-.77-3.08-1.23-4.52-1.42-1.16-1.01-2.29-2.06-3.36-3.16-.51-.57-1.06-.06-.54.52.88.9,1.79,1.77,2.72,2.61-.97.09-1.8.47-2.26,1.17-.59.91-.44,2.29.17,3.78.68,1.6,1.9,3.13,3.14,4.69.17.21.34.41.5.61l.55.56c.39.37.77.74,1.15,1.11.41.38.81.75,1.2,1.11.4.36.81.78,1.33,1.04,1.07.44,1.85.02,2.36-.3.61-.38,1.06-.93,1.15-1.6.08-.65-.35-1.35-1.02-2.03-.58-.62-1.43-1.45-1.33-2.07.08-.5-1.05-.97-1.15-.48-.19,1,1.09,2.06,1.87,3.14.99,1.17-.09,2.13-1.1,2.5-.28.1-.48.21-.86-.11-.36-.3-.7-.63-1.03-.94-.7-.65-1.39-1.3-2.04-1.96-.64-.6-1.19-1.33-1.71-2.03-.52-.7-1.01-1.4-1.43-2.09-.74-1.12-1.2-2.47-1.03-3.45.18-1.03,1.03-1.57,2.1-1.68.18-.01.38,0,.58,0,2.67,2.26,5.55,4.27,8.61,5.96.71.34,1.06-.32.36-.66Z"/><path class="cls-1" d="M71.67,291.54c-.05-.2-.49-.32-.79-.28-.37.05-.5.25-.46.45.24,1.12.62,2.24,1.14,3.35.22.47,1.55.3,1.31-.19-.54-1.08-.94-2.21-1.2-3.33Z"/><path class="cls-1" d="M31.47,271.72c-1.01-.56-1.96-1.23-2.88-1.98.17-.15.33-.29.5-.43l2.32-1.92c.37-.31-.32-1.23-.7-.94l-2.28,1.8c-.26.21-.53.44-.79.66-1.18-1.08-2.29-2.29-3.35-3.56-.51-.67-1.01-1.34-1.51-2-.5-.68-1.04-1.33-1.45-2.06-.44-.71-.89-1.41-1.34-2.13-.44-.71-.95-1.39-1.33-2.13-.26-.46-.73-.4-.69.12.3,2.71.99,5.5,2.03,8.24-.47.38-.95.74-1.48,1.03-.42.23.32,1.43.74,1.19.45-.26.87-.57,1.28-.9,1.52,3.6,3.63,7.1,6.33,10.22.12.43.85.93,1.06.58,1.1-1.84,2.44-3.45,3.94-4.89.21-.21-.03-.7-.39-.91ZM27.21,276.18c-2.6-3.06-4.64-6.49-6.09-10.01.15-.15.32-.28.47-.43.14-.15,0-.59-.21-.83-.25-.29-.49-.3-.64-.16-.05.05-.1.08-.14.13-.7-1.91-1.2-3.84-1.53-5.74.62.97,1.23,1.93,1.83,2.88.97,1.43,2.05,2.79,3.08,4.15.95,1.15,2.01,2.19,3.05,3.2-.28.18-.57.33-.91.4-.51.1.1,1.23.6,1.12.48-.11.89-.35,1.27-.63.46.38.95.74,1.42,1.08.4.28.81.53,1.21.78-1.27,1.22-2.42,2.57-3.41,4.07Z"/><path class="cls-1" d="M26.27,259.57l-.76-1.51-.7-1.38c-.23-.47-.47-1.01-.74-1.45-.21-.37-.5-.51-.75-.41-.35.15-.67.42-.99.64l-.84.55c-.24.16-.64.28-.71.7-.07.42.23.87.43,1.28l.84,1.67c.31.61.61,1.23.93,1.83l1.09,1.74c.75,1.14,1.39,2.36,2.27,3.41.21.28.44.34.6.28.13.08.27.1.38.03.58-.37,1.09-.83,1.54-1.35.18-.2.45-.42.52-.74.07-.33-.16-.68-.41-1-.65-.92-1.19-1.91-1.81-2.86l-.9-1.43ZM21.69,257.28s-.01-.03,0,0h0ZM28.36,264.29s.02.03.03.05c-.04.05-.07.11-.1.15-.45.55-.99,1-1.58,1.38-.68-.88-1.23-1.85-1.83-2.78-.65-1.06-1.36-2.09-1.88-3.23l-.83-1.65c-.14-.27-.27-.56-.42-.82-.02-.04-.03-.05-.04-.07l.24-.17.92-.64.46-.32c.09-.06.19-.17.3-.23.09.18.19.41.24.51l.4.79.79,1.58c.51,1.14,1.23,2.15,1.87,3.22l.93,1.5c.13.24.3.54.5.73Z"/><path class="cls-1" d="M19.73,245.99c.28,1.94.61,3.87,1.03,5.79.2.74,1,.79.8.06-.46-2.03-.81-4.07-1.11-6.12.26-.1.52-.2.79-.29.45-.16.24-1.29-.22-1.14-.24.08-.49.17-.73.25-.15-1.18-.28-2.37-.38-3.55.09-.11.15-.27.12-.49-.02-.17-.1-.35-.21-.45-.12-1.6-.2-3.2-.22-4.8-.01-.75-.76-.75-.75.01.02,1.62.11,3.23.22,4.84-.31.09-.62.17-.94.26-.04-1.32-.21-2.63-.27-3.93-.06-.72-.16-1.43-.29-2.14-.06-.35-.14-.71-.22-1.06-.06-.33-.12-.68-.18-1.04-.28-1.43-.73-2.81-1.4-3.88-.61-1.06-1.42-1.84-2.32-2.21-.92-.38-2.05-.33-2.95,1-.74,1.13-1.05,3.03-.64,4.46.22.74.92.08.69-.66-.3-1.02,0-2.33.53-3.03.69-.87,1.6-.74,2.26-.4.74.38,1.49,1.05,2.05,2.04.54.98.9,2.2,1.12,3.45.54,2.46.82,5.05.88,7.62-1.12.29-2.24.56-3.36.76-.48.08-.33,1.4.14,1.3,1.08-.22,2.16-.5,3.23-.8,0,1.27-.07,2.53-.18,3.76-1.33.47-2.66.96-3.98,1.46-.45.17-.19,1.5.26,1.32,1.19-.48,2.38-.94,3.57-1.4-.03.25-.06.51-.09.76-.26,2.58-.99,5.84-3.08,5.58-.52-.07-.32,1.27.23,1.31,1.13.12,1.88-.55,2.39-1.56.57-1.03.93-2.42,1.13-3.8.11-.66.14-1.33.23-2.02.03-.2.04-.4.06-.6.59-.22,1.19-.44,1.79-.66ZM18.09,245.13c.04-.71.05-1.43.04-2.15-.01-.45,0-.91.02-1.37.35-.1.69-.2,1.04-.31.1,1.17.23,2.33.38,3.5-.5.17-.99.34-1.49.51,0-.06.01-.12.02-.18Z"/><path class="cls-1" d="M13.96,238.15c.33-.38.65-.77.98-1.14.34-.41.11-1.34-.31-1.16-1.38.61-2.89.18-4.09-1.32-.29-.36-.64-1.02-.99-.51-.33.48-.13,1.38-.06,2.03.09.82.13,1.65.19,2.47.11.82.19,1.65.26,2.47.06.75.59.8.72.28.14.23.33.24.47.09.65-.67,1.29-1.37,1.91-2.09.31-.37.61-.74.91-1.1ZM10.64,240.2s0,.02-.01.02c-.08-.83-.2-1.65-.24-2.47-.04-.49-.08-.98-.12-1.48-.02-.17-.03-.34-.05-.52.02.03.04.06.07.08.19.22.39.42.59.59.41.35.85.62,1.29.78.35.13.7.18,1.05.19-.22.24-.43.5-.66.74-.63.72-1.26,1.41-1.92,2.07Z"/><path class="cls-1" d="M11.4,224.51c.57-.75,1.07-1.51,1.66-2.26.58-.72,1.14-1.44,1.7-2.17.06.83.2,1.6.5,2.2.57,1.18,1.71,1.44,2.74,1.18,1.21-.3,2.39-1.22,3.51-2.05.48-.35.16-1.29-.31-.94-1.53,1.11-3.6,2.75-4.95,1.35-.54-.56-.7-1.63-.74-2.74.34-.46.67-.92,1.05-1.37.62-.75,1.24-1.5,1.83-2.26.57-.68.99-1.34,1.03-2.28,0-.87-.04-1.72,0-2.63.05-.83.07-1.71.23-2.56.12-.14.24-.29.36-.43.87-.98,1.78-1.89,2.69-2.66.76-.68,1.83-1.24,2.59-1.25.91,0,1.15.96.89,2.04-.31,1.4-1.16,2.82-2.07,4-.46.62.03,1.22.48.61.94-1.22,1.79-2.61,2.26-4.06.42-1.13.52-2.37.04-3.1-.55-.83-1.55-.75-2.67-.22-.56.26-1.15.64-1.73,1.05-.53.44-1.03.93-1.48,1.38-.35.33-.69.69-1.02,1.06.12-.5.25-1.01.39-1.52.15-.54.31-1.09.49-1.64.18-.54.44-1.06.67-1.59.48-1.06,1.01-2.12,1.58-3.18.27-.51-.05-.87-.46-.55-1.22.97-2.34,2.27-3.39,3.67-.97,1.45-1.79,3.04-2.63,4.5-.92,1.71-1.65,3.51-2.46,5.27-.7,1.81-1.29,3.66-1.93,5.49l-.79,3.19c-.25,1.07-.56,2.12-.69,3.21-.05.29,0,.49.1.61-.11.55.19,1.12.53.65ZM18.31,214.21c-.56.73-1.14,1.46-1.73,2.18-.34.42-.69.84-1.04,1.26.03-.28.07-.56.12-.84.12-.65.27-1.31.45-1.96.19-.68.41-1.35.65-2.02.3-.64.62-1.27.96-1.88.3-.53.61-1.05.93-1.55-.07.86-.12,1.71-.13,2.52,0,.38,0,.76,0,1.15,0,.19.03.38.03.59,0,.26-.11.36-.26.55ZM12.26,219.92c.31-1.14.51-2.32.91-3.44.78-2.24,1.46-4.52,2.52-6.65.5-1.06.94-2.15,1.5-3.18l1.75-3.05c.26-.44.53-.89.8-1.34.31-.42.63-.84.95-1.24.22-.26.44-.51.67-.75-.13.27-.28.53-.4.8-.2.44-.4.89-.61,1.35-.19.45-.32.94-.47,1.4-.29.94-.54,1.86-.76,2.77-.09.4-.18.8-.27,1.21-1.27,1.68-2.34,3.62-3.09,5.68-.49,1.57-.93,3.16-1.02,4.72,0,.17,0,.34,0,.51-.58.78-1.18,1.55-1.79,2.31-.33.4-.66.81-.99,1.22-.11.14-.22.29-.33.43.17-.93.43-1.83.64-2.75Z"/><path class="cls-1" d="M19.23,217.88l3.27,1.2c.45.16.83-.91.38-1.09l-3.25-1.28c-.45-.18-.86,1-.4,1.17Z"/><path class="cls-1" d="M23.17,215.58c.19.05.43-.1.57-.4.12-.27.09-.61-.11-.67-.94-.29-1.91-.49-2.92-.59-.21-.02-.49.3-.53.61-.06.35.08.56.29.57.92.07,1.82.24,2.69.48Z"/><path class="cls-1" d="M263.06,263.47v-2.26h-16.28v2.26s5.85.79,6.11,4.47v26.88c-.26,3.68-6.11,4.47-6.11,4.47v2.26h16.28v-2.26s-5.84-.79-6.11-4.46v-26.89c.27-3.67,6.11-4.46,6.11-4.46Z"/><path class="cls-1" d="M239.93,263.47v-2.26h-16.28v2.26s5.85.79,6.11,4.47v26.88c-.26,3.68-6.11,4.47-6.11,4.47v2.26h16.28v-2.26s-5.84-.79-6.11-4.46v-26.89c.26-3.67,6.11-4.46,6.11-4.46Z"/><path class="cls-1" d="M42.29,42.69s-.79,5.85-4.47,6.11H10.94c-3.68-.26-4.47-6.11-4.47-6.11h-2.26v16.28h2.26s.79-5.84,4.46-6.11h26.9c3.67.27,4.46,6.11,4.46,6.11h2.26v-16.28h-2.26Z"/><path class="cls-1" d="M42.29,65.83s-.79,5.84-4.46,6.11H10.93c-3.67-.27-4.46-6.11-4.46-6.11h-2.26v16.28h2.26s.79-5.85,4.47-6.11h26.88c3.68.26,4.47,6.11,4.47,6.11h2.26v-16.28h-2.26Z"/><path class="cls-1" d="M78.54,252.54s-4.69,3.58-7.48,1.16l-2.47-2.47c5.59-7.05,5.11-17.12,5.08-17.58l-.1-1.79-1.79-.1c-.45-.02-10.52-.51-17.58,5.08l-2.16-2.16c-2.42-2.78,1.16-7.48,1.16-7.48l-1.6-1.6-11.51,11.51,1.6,1.6s4.69-3.58,7.48-1.16l2.16,2.16c-5.59,7.05-5.11,17.12-5.08,17.58l.1,1.79,1.79.1c.08,0,.41.02.96.02,2.74,0,10.73-.44,16.61-5.11l2.48,2.48c2.41,2.79-1.16,7.48-1.16,7.48l1.6,1.6,11.51-11.51-1.6-1.6ZM69.66,235.78c-.14,2.88-.83,8.42-3.92,12.59l-8.67-8.67c4.17-3.09,9.72-3.78,12.59-3.92ZM50.27,255.17c.14-2.88.83-8.42,3.92-12.59l8.67,8.67c-4.17,3.09-9.72,3.78-12.59,3.92Z"/><path class="cls-1" d="M71.32,305.8c-18.29,0-36.57-6.96-50.49-20.88C7.4,271.49,0,253.56,0,234.43s6.97-36,19.66-49.29V0h8v188.43l-1.17,1.17c-11.92,11.92-18.49,27.84-18.49,44.83s6.57,32.91,18.49,44.83c24.72,24.72,64.95,24.72,89.67,0l1.17-1.17h188.43v8H120.61c-13.76,13.14-31.53,19.71-49.29,19.71Z"/><path class="cls-1" d="M135.09,286.9s-4.74,3.62-7.49,1.08l-17.94-17.94c-2.78-3.5-5.73-14.27-5.73-14.27,0,0-3.84,11.56-7.67,15.09-17.19,11.81-40.94,10.1-56.2-5.16-8.34-8.34-12.93-19.42-12.93-31.21,0-9.04,2.71-17.66,7.72-24.94,3.48-3.84,15.13-7.71,15.13-7.71,0,0-10.77-2.95-14.27-5.73l-17.94-17.94c-2.54-2.75,1.08-7.49,1.08-7.49l-1.58-1.58-11.4,11.4,1.58,1.58s4.74-3.62,7.49-1.08l20.9,20.9c-8.21,8.91-12.72,20.41-12.72,32.6,0,12.86,5.01,24.95,14.1,34.04,18.3,18.3,47.78,18.76,66.64,1.39l20.9,20.9c2.54,2.75-1.08,7.49-1.08,7.49l1.58,1.58,11.4-11.4-1.58-1.58Z"/></g></svg>