<?xml version="1.0" encoding="UTF-8"?><svg id="Layer_1" xmlns="http://www.w3.org/2000/svg" viewBox="0 0 315.91 315.91"><defs><style>.cls-1{fill:#fff;}</style></defs><g id="Corner_4"><path class="cls-1" d="M311.94,286.4H29.51V3.97h-8v213.16c-1.35,4.83-6.53,7.79-15.34,10.83,8.81,3.04,13.99,6,15.34,10.83v55.61h55.61c4.83,1.35,7.79,6.53,10.83,15.33,3.04-8.81,6-13.99,10.83-15.33h213.16v-8Z"/><path class="cls-1" d="M130.4,256.4c4.89,5.33,3.65,11.09,1.36,13.59-23.7,23.29-61.93,23.18-85.47-.37-11.47-11.47-17.78-26.71-17.78-42.93s6.19-31.12,17.41-42.54c2.49-2.29,8.26-3.54,13.59,1.36-4.74-11.06,14.36-24.02,14.36-24.02,0,0-5.88.1-14.64,3.53-8.46,3.31-14.23,11-18.89,16.28-11.52,12.38-17.85,28.4-17.85,45.39s6.94,34.57,19.54,47.17c13.01,13.01,30.09,19.51,47.17,19.51s32.59-5.93,45.34-17.77c5.28-4.66,13.01-10.45,16.33-18.93,3.43-8.76,3.53-14.64,3.53-14.64,0,0-12.96,19.1-24.02,14.36Z"/><path class="cls-1" d="M105.66,245.72l-15.61-15.61,15.61-15.61c3.84-2.64,10.19,2.29,10.19,2.29l2.17-2.17-16.73-16.73-2.17,2.17s4.94,6.35,2.29,10.19l-15.61,15.61-15.61-15.61c-2.65-3.84,2.29-10.19,2.29-10.19l-2.17-2.17-16.73,16.73,2.17,2.17s6.35-4.94,10.19-2.29l15.61,15.61-15.61,15.61c-3.84,2.64-10.19-2.3-10.19-2.3l-2.17,2.17,16.73,16.73,2.17-2.17s-4.94-6.35-2.29-10.2l15.61-15.61,15.61,15.61c2.64,3.84-2.3,10.19-2.3,10.19l2.17,2.17,16.73-16.73-2.17-2.17s-6.35,4.94-10.19,2.3Z"/><path class="cls-1" d="M51.01,144.14c0,2.9-.49,5.69-1.38,8.28.08-.79.12-1.6.12-2.41,0-13.39-10.85-24.24-24.24-24.24-13.39,0-24.24,10.85-24.24,24.24,0,.81.04,1.62.12,2.41C.49,149.83,0,147.04,0,144.14c0-14.09,11.42-25.51,25.51-25.51,14.09,0,25.51,11.42,25.51,25.51Z"/><path class="cls-1" d="M51.01,93.13c0-2.9-.49-5.69-1.38-8.28.08.79.12,1.6.12,2.41,0,13.39-10.85,24.24-24.24,24.24-13.39,0-24.24-10.85-24.24-24.24,0-.81.04-1.62.12-2.41C.49,87.45,0,90.23,0,93.13c0,14.09,11.42,25.51,25.51,25.51,14.09,0,25.51-11.42,25.51-25.51Z"/><path class="cls-1" d="M171.76,264.9c-2.9,0-5.69.49-8.28,1.38.79-.08,1.6-.12,2.41-.12,13.39,0,24.24,10.85,24.24,24.24,0,13.39-10.85,24.24-24.24,24.24-.81,0-1.62-.04-2.41-.12,2.6.89,5.38,1.38,8.28,1.38,14.09,0,25.51-11.42,25.51-25.51,0-14.09-11.42-25.51-25.51-25.51Z"/><path class="cls-1" d="M222.78,264.9c2.9,0,5.69.49,8.28,1.38-.79-.08-1.6-.12-2.41-.12-13.39,0-24.24,10.85-24.24,24.24,0,13.39,10.85,24.24,24.24,24.24.81,0,1.62-.04,2.41-.12-2.6.89-5.38,1.38-8.28,1.38-14.09,0-25.51-11.42-25.51-25.51,0-14.09,11.42-25.51,25.51-25.51Z"/><path class="cls-1" d="M315.91,308.42v-36.04c0,4.83-8.31,4.83-8.31,0v36.04c0-4.83,8.31-4.83,8.31,0Z"/><path class="cls-1" d="M7.48,0h36.04c-4.83,0-4.83,8.31,0,8.31H7.48c4.83,0,4.83-8.31,0-8.31Z"/></g></svg>