<?xml version="1.0" encoding="UTF-8"?><svg id="Layer_1" xmlns="http://www.w3.org/2000/svg" viewBox="0 0 301.77 301.77"><defs><style>.cls-1{fill:#fff;}</style></defs><g id="Corner_5"><path class="cls-1" d="M33.93,273.73l25.49-25.49c-3.41,3.41-9.29-2.47-5.88-5.88l-25.49,25.49c3.41-3.41,9.29,2.47,5.88,5.88Z"/><path class="cls-1" d="M49.99,10.91v-1h-19.91v1s6.97.98,7.46,5.53v188.68c-.48,4.55-7.46,5.53-7.46,5.53v1h19.91v-1s-6.98-.98-7.46-5.54V16.44c.48-4.55,7.46-5.54,7.46-5.54Z"/><path class="cls-1" d="M290.86,251.78s-.98,6.97-5.53,7.46H96.65c-4.55-.48-5.53-7.46-5.53-7.46h-1v19.92h1s.99-6.98,5.54-7.46h188.67c4.55.48,5.54,7.46,5.54,7.46h1v-19.92h-1Z"/><path class="cls-1" d="M93.93,226.06c-.6,2.77-1.98,5.4-4.13,7.55-5.98,5.98-15.67,5.98-21.65,0-5.98-5.98-5.98-15.67,0-21.65,2.15-2.15,4.78-3.52,7.55-4.13-3.81.33-7.53,1.95-10.45,4.87-6.57,6.57-6.57,17.23,0,23.81,6.57,6.57,17.23,6.57,23.81,0,2.92-2.92,4.54-6.64,4.87-10.45Z"/><path class="cls-1" d="M.34,258.39c1.42-6.54,4.67-12.76,9.75-17.84,14.12-14.12,37.02-14.12,51.14,0,14.12,14.12,14.12,37.02,0,51.14-5.08,5.08-11.3,8.32-17.84,9.75,9-.78,17.8-4.6,24.69-11.49,15.53-15.53,15.53-40.71,0-56.24-15.53-15.53-40.71-15.53-56.24,0-6.89,6.89-10.72,15.68-11.49,24.69Z"/><path class="cls-1" d="M301.77,282.43H19.34V0h-8v268.96c-1.92,13.93-11.34,32.81-11.34,32.81,0,0,18.88-9.42,32.8-11.34h268.97v-8Z"/><rect class="cls-1" x="39.55" y="222.59" width="8.36" height="70.91" transform="translate(-169.65 106.5) rotate(-45)"/></g></svg>