<?xml version="1.0" encoding="UTF-8"?><svg id="Layer_1" xmlns="http://www.w3.org/2000/svg" viewBox="0 0 306.26 306.26"><defs><style>.cls-1{fill:#fff;}</style></defs><g id="Corner_2"><path class="cls-1" d="M47.23,67.62c-12.01,0-21.79-9.77-21.79-21.79s9.77-21.79,21.79-21.79,21.79,9.77,21.79,21.79-9.77,21.79-21.79,21.79ZM47.23,28.04c-9.81,0-17.79,7.98-17.79,17.79s7.98,17.79,17.79,17.79,17.79-7.98,17.79-17.79-7.98-17.79-17.79-17.79Z"/><rect class="cls-1" x="27.44" y="43.83" width="39.57" height="4"/><path class="cls-1" d="M48.75,291.65c-8.75,0-17.49-3.33-24.15-9.99-6.45-6.45-10-15.03-10-24.15s3.55-17.7,10-24.15h0c13.31-13.31,34.98-13.31,48.29,0,13.31,13.32,13.31,34.98,0,48.29-6.66,6.66-15.4,9.99-24.15,9.99ZM27.43,236.2c-5.69,5.7-8.83,13.27-8.83,21.32s3.14,15.62,8.83,21.32c11.76,11.76,30.88,11.75,42.64,0,11.75-11.75,11.75-30.88,0-42.64-11.75-11.75-30.88-11.75-42.64,0h0Z"/><polygon class="cls-1" points="74.67 220.61 0 306.26 85.65 231.59 122.04 184.22 74.67 220.61"/><path class="cls-1" d="M133.46,243.69c4.89,5.33,3.65,11.09,1.36,13.59-11.42,11.23-26.51,17.42-42.55,17.42s-31.46-6.32-42.93-17.78l-2.12,2.12,2.12-2.12c-11.47-11.47-17.78-26.71-17.78-42.93s6.18-31.12,17.41-42.54c2.49-2.3,8.27-3.54,13.6,1.35-4.74-11.06,14.36-24.02,14.36-24.02,0,0-5.88.1-14.63,3.53-8.45,3.31-14.23,10.99-18.88,16.27-11.52,12.38-17.86,28.4-17.86,45.41s6.94,34.57,19.54,47.17h0c12.6,12.6,29.35,19.54,47.17,19.54s33.02-6.33,45.4-17.85c5.28-4.66,12.97-10.43,16.28-18.89,3.43-8.76,3.53-14.64,3.53-14.64,0,0-12.97,19.1-24.02,14.36Z"/><path class="cls-1" d="M57.18,1V0h-19.92v1s6.98.98,7.46,5.53v198.68c-.48,4.55-7.46,5.53-7.46,5.53v1h19.92v-1s-6.98-.98-7.46-5.53V6.54c.48-4.55,7.46-5.53,7.46-5.53Z"/><path class="cls-1" d="M72.1,76.29s-.98,6.98-5.53,7.46H27.89c-4.55-.48-5.53-7.46-5.53-7.46h-1v19.92h1s.98-6.98,5.53-7.46h38.68c4.55.48,5.53,7.46,5.53,7.46h1v-19.92h-1Z"/><path class="cls-1" d="M260.43,280.82c-12.01,0-21.79-9.77-21.79-21.79s9.77-21.79,21.79-21.79,21.79,9.77,21.79,21.79-9.77,21.79-21.79,21.79ZM260.43,241.25c-9.81,0-17.79,7.98-17.79,17.79s7.98,17.79,17.79,17.79,17.79-7.98,17.79-17.79-7.98-17.79-17.79-17.79Z"/><rect class="cls-1" x="258.43" y="239.25" width="4" height="39.58"/><path class="cls-1" d="M305.26,249.08s-.98,6.97-5.53,7.46H101.04c-4.55-.49-5.53-7.46-5.53-7.46h-1v19.92h1s.99-6.98,5.54-7.46h198.67c4.55.48,5.54,7.46,5.54,7.46h1v-19.92h-1Z"/><path class="cls-1" d="M229.97,234.16v-1h-19.91v1s6.98.98,7.46,5.54v38.68c-.48,4.55-7.46,5.54-7.46,5.54v1h19.91v-1s-6.97-.98-7.46-5.53v-38.69c.48-4.55,7.46-5.53,7.46-5.53Z"/><path class="cls-1" d="M61.1,202.07c1.42-6.54,4.67-12.76,9.75-17.84,14.12-14.12,37.02-14.12,51.14,0,14.12,14.12,14.12,37.02,0,51.14-5.08,5.08-11.3,8.32-17.84,9.75,9-.78,17.8-4.6,24.69-11.49,15.53-15.53,15.53-40.71,0-56.24-15.53-15.53-40.71-15.53-56.24,0-6.89,6.89-10.72,15.68-11.49,24.69Z"/></g></svg>