<?xml version="1.0" encoding="UTF-8"?><svg id="Layer_1" xmlns="http://www.w3.org/2000/svg" viewBox="0 0 1284.98 262.09"><defs><style>.cls-1{fill:#fff;}</style></defs><g id="Divider_6"><path class="cls-1" d="M172.85,181.66c5.04,0,9.87-.85,14.38-2.4-1.38.14-2.77.21-4.19.21-23.24,0-42.08-18.84-42.08-42.08,0-23.24,18.84-42.08,42.08-42.08,1.41,0,2.81.07,4.19.21-4.51-1.55-9.34-2.4-14.38-2.4-24.45,0-44.28,19.82-44.28,44.28,0,24.45,19.82,44.28,44.28,44.28Z"/><path class="cls-1" d="M671.42,206.44s-.98,6.98-5.54,7.46h-46.79c-4.55-.48-5.54-7.46-5.54-7.46h-1v19.91h1s.98-6.97,5.53-7.46h46.8c4.55.48,5.53,7.46,5.53,7.46h1v-19.91h-1Z"/><path class="cls-1" d="M223.69,169.16c-18.18,0-32.97-14.79-32.97-32.97s14.79-32.97,32.97-32.97,32.97,14.79,32.97,32.97-14.79,32.97-32.97,32.97ZM223.69,108.23c-15.42,0-27.97,12.55-27.97,27.97s12.55,27.97,27.97,27.97,27.97-12.55,27.97-27.97-12.55-27.97-27.97-27.97Z"/><rect class="cls-1" x="11.83" y="130.2" width="181.39" height="12"/><path class="cls-1" d="M536.54,70.43v14.02h-230.64c-1.92-12.19-12.47-21.51-25.19-21.51-2.9,0-5.69.49-8.28,1.38.79-.08,1.6-.12,2.41-.12,13.39,0,24.24,10.85,24.24,24.24s-10.85,24.24-24.24,24.24c-.81,0-1.62-.04-2.41-.12,2.6.89,5.38,1.38,8.28,1.38,12.73,0,23.27-9.32,25.19-21.51h230.64v14.02c0-4.83,8.31-4.83,8.31,0v-36.04c0,4.83-8.31,4.83-8.31,0Z"/><path class="cls-1" d="M14.83,111.12c.85-4.59,8.83-5.58,8.83-5.58v-3.06H0v3.06s7.98,1,8.83,5.58v50.16c-.85,4.58-8.83,5.58-8.83,5.58v3.06h23.66v-3.06s-7.98-1-8.83-5.58v-50.15Z"/><path class="cls-1" d="M693.4,153.84c5.99,9.32,9.48,20.41,9.48,32.31,0,33.08-26.82,59.9-59.9,59.9s-59.9-26.82-59.9-59.9c0-11.91,3.49-22.99,9.48-32.31-9.64,11.46-15.45,26.23-15.45,42.38,0,36.38,29.49,65.87,65.87,65.87s65.87-29.49,65.87-65.87c0-16.14-5.82-30.92-15.45-42.38Z"/><path class="cls-1" d="M1112.13,181.66c-5.04,0-9.87-.85-14.38-2.4,1.38.14,2.77.21,4.19.21,23.24,0,42.08-18.84,42.08-42.08,0-23.24-18.84-42.08-42.08-42.08-1.41,0-2.81.07-4.19.21,4.51-1.55,9.34-2.4,14.38-2.4,24.45,0,44.28,19.82,44.28,44.28,0,24.45-19.82,44.28-44.28,44.28Z"/><path class="cls-1" d="M1061.29,169.16c-18.18,0-32.97-14.79-32.97-32.97s14.79-32.97,32.97-32.97,32.97,14.79,32.97,32.97-14.79,32.97-32.97,32.97ZM1061.29,108.23c-15.42,0-27.97,12.55-27.97,27.97s12.55,27.97,27.97,27.97,27.97-12.55,27.97-27.97-12.55-27.97-27.97-27.97Z"/><rect class="cls-1" x="1091.76" y="130.2" width="181.39" height="12"/><path class="cls-1" d="M985.9,88.45c0-13.39,10.85-24.24,24.24-24.24.81,0,1.62.04,2.41.12-2.6-.89-5.38-1.38-8.28-1.38-12.73,0-23.27,9.32-25.19,21.51h-230.64v-14.02c0,4.83-8.31,4.83-8.31,0v36.04c0-4.83,8.31-4.83,8.31,0v-14.02h230.64c1.92,12.19,12.47,21.51,25.19,21.51,2.9,0,5.69-.49,8.28-1.38-.79.08-1.6.12-2.41.12-13.39,0-24.24-10.85-24.24-24.24Z"/><path class="cls-1" d="M1276.15,111.12c.85-4.58,8.83-5.58,8.83-5.58v-3.06h-23.66v3.06s7.98,1,8.83,5.58v50.15c-.85,4.59-8.83,5.58-8.83,5.58v3.06h23.66v-3.06s-7.98-1-8.83-5.58v-50.16Z"/><path class="cls-1" d="M1029.11,130.2h-290.75l-85.92-99.87c-4.7-6.89-9.95-21.81-9.95-30.33,0,8.52-5.25,23.44-9.95,30.33l-85.92,99.87H255.87v12h269.31c9.76.93,18.59,4.9,29.85,14.95,13.15,11.74,22.81,29.3,22.81,29.3l1.58-3.38s-13.02-20.55-16.72-33.83c-3.19-11.43,1.48-21.54,7.73-29.83l72.08-83.78,72.08,83.78c6.25,8.29,10.92,18.4,7.73,29.83-3.7,13.28-16.72,33.83-16.72,33.83l1.58,3.38s9.66-17.55,22.81-29.3c11.26-10.06,20.09-14.02,29.85-14.95h269.31v-12Z"/><path class="cls-1" d="M680.68,143.02h20.29s3.96-5,7.66-5c-3.7,0-7.66-5-7.66-5h-20.29c2.07-5.9,7.67-10.14,14.27-10.14,3.13,0,6.05.95,8.46,2.58-3.77-4.92-9.71-8.1-16.39-8.1-9.68,0-17.78,6.67-20.01,15.65h-19.53v-19.53c8.98-2.24,15.65-10.34,15.65-20.01,0-6.68-3.18-12.62-8.1-16.39,1.63,2.42,2.58,5.33,2.58,8.46,0,6.61-4.24,12.21-10.14,14.27v-20.29s-5-3.96-5-7.66c0,3.7-5,7.66-5,7.66v20.29c-5.9-2.07-10.14-7.67-10.14-14.27,0-3.13.95-6.05,2.58-8.46-4.92,3.77-8.1,9.71-8.1,16.39,0,9.68,6.67,17.78,15.65,20.01v19.53h-19.53c-2.24-8.98-10.34-15.65-20.01-15.65-6.68,0-12.62,3.18-16.39,8.1,2.42-1.63,5.33-2.58,8.46-2.58,6.61,0,12.21,4.24,14.27,10.14h-20.29s-3.96,5-7.66,5c3.7,0,7.66,5,7.66,5h20.29c-2.07,5.9-7.67,10.14-14.27,10.14-3.13,0-6.05-.95-8.46-2.58,3.77,4.92,9.71,8.1,16.39,8.1,9.68,0,17.78-6.67,20.01-15.65h19.53v19.53c-8.98,2.24-15.65,10.34-15.65,20.01,0,6.68,3.18,12.62,8.1,16.39-1.63-2.42-2.58-5.33-2.58-8.46,0-6.61,4.24-12.21,10.14-14.27v20.29s5,3.96,5,7.66c0-3.7,5-7.66,5-7.66v-20.29c5.9,2.07,10.14,7.67,10.14,14.27,0,3.13-.95,6.05-2.58,8.46,4.92-3.77,8.1-9.71,8.1-16.39,0-9.68-6.67-17.78-15.65-20.01v-19.53h19.53c2.24,8.98,10.34,15.65,20.01,15.65,6.68,0,12.62-3.18,16.39-8.1-2.42,1.63-5.33,2.58-8.46,2.58-6.61,0-12.21-4.24-14.27-10.14Z"/><path class="cls-1" d="M802.35,136.2c0,5.89,2.69,10.66,6,10.66s6-4.77,6-10.66-2.69-10.66-6-10.66-6,4.77-6,10.66Z"/><path class="cls-1" d="M849.33,136.2c-2.7,0-10.19-6.37-10.19-6.37-4.82-3.94-12.26-8.77-21.58-10.85-8.22-4.57-9.21-16.59-9.21-16.59,0,0-.99,12.02-9.21,16.59-9.32,2.08-16.76,6.91-21.58,10.85,0,0-7.48,6.37-10.19,6.37,2.7,0,10.19,6.37,10.19,6.37,4.82,3.94,12.26,8.77,21.58,10.85,8.22,4.57,9.21,16.59,9.21,16.59,0,0,.99-12.02,9.21-16.59,9.32-2.08,16.76-6.91,21.58-10.85,0,0,7.48-6.37,10.19-6.37ZM808.36,147.02c-11.98,0-21.55-6.32-26.86-10.82,5.31-4.51,14.88-10.82,26.86-10.82s21.55,6.32,26.86,10.82c-5.31,4.51-14.88,10.82-26.86,10.82Z"/><path class="cls-1" d="M482.63,136.2c0,5.89-2.69,10.66-6,10.66s-6-4.77-6-10.66,2.69-10.66,6-10.66,6,4.77,6,10.66Z"/><path class="cls-1" d="M445.83,142.57c4.82,3.94,12.26,8.77,21.58,10.85,8.22,4.57,9.21,16.59,9.21,16.59,0,0,.99-12.02,9.21-16.59,9.32-2.08,16.76-6.91,21.58-10.85,0,0,7.48-6.37,10.19-6.37-2.71,0-10.19-6.37-10.19-6.37-4.82-3.94-12.26-8.77-21.58-10.85-8.22-4.57-9.21-16.59-9.21-16.59,0,0-.99,12.02-9.21,16.59-9.32,2.08-16.76,6.91-21.58,10.85,0,0-7.49,6.37-10.19,6.37,2.71,0,10.19,6.37,10.19,6.37ZM449.76,136.19c5.31-4.51,14.88-10.82,26.86-10.82,11.98,0,21.55,6.32,26.86,10.82-5.31,4.51-14.88,10.82-26.86,10.82-11.98,0-21.55-6.32-26.86-10.82Z"/><path class="cls-1" d="M1057.3,136.2c0,3.92,1.79,7.09,3.99,7.09s3.99-3.17,3.99-7.09-1.79-7.09-3.99-7.09-3.99,3.18-3.99,7.09Z"/><path class="cls-1" d="M1088.54,136.2c-1.8,0-6.77-4.24-6.77-4.24-3.21-2.62-8.15-5.83-14.35-7.21-5.47-3.04-6.12-11.03-6.12-11.03,0,0-.66,7.99-6.12,11.03-6.2,1.38-11.14,4.6-14.35,7.21,0,0-4.97,4.24-6.77,4.24,1.8,0,6.77,4.24,6.77,4.24,3.21,2.62,8.15,5.83,14.35,7.21,5.46,3.04,6.12,11.03,6.12,11.03,0,0,.66-7.99,6.12-11.03,6.2-1.38,11.14-4.6,14.35-7.21,0,0,4.98-4.24,6.77-4.24ZM1061.29,143.39c-7.97,0-14.33-4.2-17.86-7.2,3.53-3,9.9-7.2,17.86-7.2s14.33,4.2,17.86,7.2c-3.53,3-9.9,7.2-17.86,7.2Z"/><path class="cls-1" d="M227.68,136.2c0,3.92-1.79,7.09-3.99,7.09s-3.99-3.17-3.99-7.09,1.79-7.09,3.99-7.09,3.99,3.18,3.99,7.09Z"/><path class="cls-1" d="M203.21,140.43c3.21,2.62,8.16,5.83,14.35,7.21,5.46,3.04,6.12,11.03,6.12,11.03,0,0,.66-7.99,6.12-11.03,6.2-1.38,11.14-4.6,14.35-7.21,0,0,4.98-4.24,6.77-4.24-1.8,0-6.77-4.24-6.77-4.24-3.21-2.62-8.15-5.83-14.35-7.21-5.47-3.04-6.12-11.03-6.12-11.03,0,0-.66,7.99-6.12,11.03-6.2,1.38-11.14,4.6-14.35,7.21,0,0-4.98,4.24-6.77,4.24,1.8,0,6.77,4.24,6.77,4.24ZM205.82,136.2c3.53-3,9.9-7.2,17.86-7.2,7.97,0,14.33,4.2,17.86,7.2-3.53,3-9.9,7.2-17.86,7.2s-14.33-4.2-17.86-7.2Z"/></g></svg>