<?xml version="1.0" encoding="UTF-8"?><svg id="Layer_1" xmlns="http://www.w3.org/2000/svg" viewBox="0 0 1221.74 255.74"><defs><style>.cls-1{fill:#fff;}</style></defs><g id="Divider_3"><path class="cls-1" d="M634.16,140.85c.27,1.43.42,2.91.42,4.42,0,13.09-10.61,23.7-23.7,23.7s-23.7-10.61-23.7-23.7c0-1.51.15-2.99.42-4.42-2.34,4-3.69,8.65-3.69,13.62,0,14.9,12.08,26.98,26.98,26.98s26.98-12.08,26.98-26.98c0-4.97-1.35-9.62-3.69-13.62Z"/><path class="cls-1" d="M439.17,189.84c4.72,0,9.24-.8,13.47-2.25-1.29.13-2.6.2-3.92.2-21.76,0-39.41-17.64-39.41-39.41,0-21.76,17.64-39.41,39.41-39.41,1.32,0,2.63.07,3.92.2-4.22-1.45-8.75-2.25-13.47-2.25-22.9,0-41.46,18.56-41.46,41.46s18.56,41.46,41.46,41.46Z"/><path class="cls-1" d="M378.96,123.41c.85-4.59,8.83-5.58,8.83-5.58v-3.06h-23.66v3.06s7.98,1,8.83,5.58v50.16c-.85,4.58-8.83,5.58-8.83,5.58v3.06h23.66v-3.06s-7.98-1-8.83-5.58v-50.15Z"/><path class="cls-1" d="M524.55,131.21s-2.56,7.8-7.97,10.28H72.7c-5.14-1.09-9.38-11.56-9.38-19.18,0,7.62-4.24,18.09-9.38,19.18l-53.94-.06c3.4,0,3.4,14,0,14l53.94.06c5.14,1.09,9.38,11.56,9.38,19.18,0-7.61,4.24-18.08,9.38-19.18h443.88c5.4,2.47,7.97,10.28,7.97,10.28h2.47v-34.55h-2.47Z"/><path class="cls-1" d="M610.87,103.09c-18.83,0-34.15-15.32-34.15-34.15s15.32-34.15,34.15-34.15,34.15,15.32,34.15,34.15-15.32,34.15-34.15,34.15ZM610.87,38.79c-16.62,0-30.15,13.52-30.15,30.15s13.52,30.15,30.15,30.15,30.15-13.52,30.15-30.15-13.52-30.15-30.15-30.15Z"/><path class="cls-1" d="M505.28,82.94c-12.01,0-21.79,9.77-21.79,21.79s9.77,21.79,21.79,21.79,21.79-9.77,21.79-21.79-9.77-21.79-21.79-21.79ZM505.28,122.51c-9.81,0-17.79-7.98-17.79-17.79s7.98-17.79,17.79-17.79,17.79,7.98,17.79,17.79-7.98,17.79-17.79,17.79Z"/><path class="cls-1" d="M493.83,101.82c-.81.04-1.5.66-1.5,1.5v6.13c0,.78.69,1.54,1.5,1.5.81-.04,1.5-.66,1.5-1.5v-6.13c0-.78-.69-1.54-1.5-1.5Z"/><path class="cls-1" d="M517.19,95.75c-.91-1.47-2.14-2.75-3.6-3.68-4.21-2.68-8.75-1.12-12.9.81-1.75.81-.23,3.4,1.51,2.59,2.14-1,4.49-2.11,6.92-1.88,1.77.17,3.35,1.14,4.53,2.43.57.62,1.04,1.34,1.4,2.1.17.34.3.7.41,1.06.01.04.05.25.1.45-.02,0-.04.01-.06.01-2.03.47-4.3.94-6.35.27.05-1.47.1-2.94.14-4.42.06-1.93-2.94-1.93-3,0-.02.78-.05,1.55-.08,2.33-.73-.61-1.52-1.08-2.65-.93-1.05.14-2.01.78-2.89,1.34-1.04.66-2.09,1.4-3,2.23-1.62,1.49-2.4,3.73-1.09,5.7,1.17,1.76,3.51,3,5.63,2.99,1.52,0,3.03-.94,3.71-2.26-.01.45-.03.91-.04,1.36,0,.1,0,.19.02.28-.31.02-.62.04-.92.09-1.6.27-3.06,1.23-3.61,2.81-.58,1.67-.23,3.78.22,5.44.5,1.86,3.39,1.07,2.89-.8-.2-.74-.33-1.48-.36-2.25-.02-.5-.06-1.33.19-1.66.28-.37.68-.48,1.2-.59.59-.13,1.35-.12,2.06-.06.96.08,2.02.42,3.1.71-1.25,1.01-2.5,2-3.77,2.98-.64.49-.98,1.29-.54,2.05.37.63,1.41,1.04,2.05.54,2.31-1.77,4.58-3.59,6.82-5.45.37-.19.71-.47,1.03-.84.01,0,.02-.02.03-.03,0,0,0,0,0,0,.08-.1.16-.19.24-.3.42-.61.17-1.52-.39-1.94-.63-.47-1.38-.38-1.97.12-.17.14-.33.27-.5.41-.28.05-.57-.01-.84-.08-.82-.2-1.62-.49-2.44-.69-.52-.13-1.05-.23-1.57-.32.04-.13.07-.26.07-.42.06-1.76.11-3.52.17-5.28,1.27.28,2.6.31,3.91.16,1.12-.13,2.23-.35,3.33-.6.98-.23,1.98-.61,2.31-1.67.48-1.56-.63-3.81-1.43-5.11ZM500.54,102.25c-1.89.38-1.09,3.28.8,2.89.46-.09,1.49-.33,1.87.05.24.23-.06.67-.4.84-1.08.56-4.09-.81-3.88-2.22.11-.77,1.08-1.42,1.64-1.85.8-.62,1.65-1.18,2.53-1.68.25-.14.65-.46.95-.42.29.04.64.54.84.75.38.4.79.76,1.24,1.08-.03.81-.05,1.63-.08,2.44-.89-2.12-3.5-2.28-5.5-1.88Z"/><path class="cls-1" d="M782.57,189.84c-4.72,0-9.24-.8-13.47-2.25,1.29.13,2.6.2,3.92.2,21.76,0,39.41-17.64,39.41-39.41,0-21.76-17.64-39.41-39.41-39.41-1.32,0-2.63.07-3.92.2,4.22-1.45,8.75-2.25,13.47-2.25,22.9,0,41.46,18.56,41.46,41.46,0,22.9-18.56,41.46-41.46,41.46Z"/><path class="cls-1" d="M848.79,123.41c.85-4.58,8.83-5.58,8.83-5.58v-3.06h-23.66v3.06s7.98,1,8.83,5.58v50.15c-.85,4.59-8.83,5.58-8.83,5.58v3.06h23.66v-3.06s-7.98-1-8.83-5.58v-50.16Z"/><path class="cls-1" d="M1221.74,141.43h-54.17c-5.03-1.35-9.15-11.62-9.15-19.12,0,7.5-4.12,17.78-9.16,19.13l-444.11.05c-5.4-2.47-7.97-10.28-7.97-10.28h-2.47v34.55h2.47s2.56-7.8,7.97-10.28l443.6-.05c5.26.77,9.66,11.48,9.66,19.23,0-7.76,4.4-18.48,9.67-19.23h53.65c-3.4,0-3.4-14.01,0-14.01Z"/><polygon class="cls-1" points="610.87 0 603.11 113.36 610.87 172.6 618.64 113.36 610.87 0"/><path class="cls-1" d="M773.85,79.28c-9.91,1.36-18.96-2.57-22.54-9.15-3.18-14.75-8.58-29.06-16.12-42.52.02-.02.04-.03.04-.03-3.57-7.74-9.53-24.6-9.53-24.6,0,0,.46,19.54-2.38,28.27-18.06,46.11-62.38,76.62-112.45,76.62s-94.38-30.51-112.45-76.62c-2.85-8.73-2.38-28.27-2.38-28.27,0,0-5.96,16.85-9.53,24.6,0,0,.02.01.04.03-7.54,13.46-12.94,27.77-16.12,42.52-3.58,6.58-12.63,10.52-22.54,9.15,10.06,1.38,17.79,7.78,19.31,15.22-.76,15.04.7,30.29,4.44,45.34,9.48,38.1,32.57,70.74,65.26,92.5,4.63,5.14,7.57,23.4,7.57,23.4,0,0,2.58-20.1,4.58-26.66,8.01-17.85,23.39-31.21,41.66-36.95,12.19-.78,20.16,8.39,20.16,13.18,0-4.79,7.97-13.96,20.16-13.18,18.27,5.74,33.65,19.1,41.66,36.95,2,6.56,4.58,26.66,4.58,26.66,0,0,2.94-18.27,7.57-23.4,32.69-21.75,55.78-54.4,65.26-92.5,3.75-15.05,5.21-30.3,4.44-45.34,1.51-7.45,9.25-13.84,19.31-15.22ZM680.06,225.93c-12.08-27.05-39.29-44.89-69.19-44.89s-57.1,17.85-69.19,44.89c-62.93-41.69-84.54-124.66-50.25-190.54,19.56,48.49,66.49,80.49,119.44,80.49s99.88-32,119.44-80.49c34.29,65.88,12.68,148.85-50.25,190.54Z"/><path class="cls-1" d="M677.52,127.99c-1.33-35.63-30.7-64.2-66.65-64.2s-65.32,28.58-66.65,64.2c-.44,7.03-1.81,16.58,1.84,24.92,3.77,8.62,7.85,12.85,7.85,12.85,0,0-4.34-22.68,6.83-27.14-7.22-.31-10.43-5.26-10.57-8.65.29-33.23,27.4-60.18,60.7-60.18s60.41,26.95,60.7,60.18c-.15,3.39-3.35,8.34-10.57,8.65,11.17,4.47,6.83,27.14,6.83,27.14,0,0,4.08-4.23,7.85-12.85,3.65-8.35,2.28-17.89,1.84-24.92Z"/><path class="cls-1" d="M716.47,82.94c-12.01,0-21.79,9.77-21.79,21.79s9.77,21.79,21.79,21.79,21.79-9.77,21.79-21.79-9.77-21.79-21.79-21.79ZM716.47,122.51c-9.81,0-17.79-7.98-17.79-17.79s7.98-17.79,17.79-17.79,17.79,7.98,17.79,17.79-7.98,17.79-17.79,17.79Z"/><path class="cls-1" d="M727.91,101.82c-.81.04-1.5.66-1.5,1.5v6.13c0,.78.69,1.54,1.5,1.5.81-.04,1.5-.66,1.5-1.5v-6.13c0-.78-.69-1.54-1.5-1.5Z"/><path class="cls-1" d="M719.73,97.45c-.96-.5-1.95-.78-3.01-.42-.48.16-.86.44-1.22.75-.02-.76-.05-1.53-.07-2.29-.06-1.93-3.06-1.93-3,0,.05,1.48.1,2.95.14,4.43-1.43.46-3.08.36-4.52.1-.61-.11-1.22-.24-1.83-.38.04,0,0,0-.08-.02.01-.06.03-.12.04-.17.24-.87.62-1.66,1.11-2.42,1.08-1.67,2.8-2.96,4.77-3.36,2.58-.52,5.2.74,7.47,1.8,1.74.81,3.26-1.77,1.51-2.59-3.72-1.73-7.7-3.25-11.69-1.46-3.09,1.39-5.51,4.45-6.19,7.76-.22,1.07-.16,2.1.8,2.79.8.57,1.99.69,2.93.87,1.9.37,3.88.57,5.78.14.06,1.76.11,3.51.17,5.27,0,.15.03.29.07.41-.49.08-.98.18-1.46.29-.82.2-1.62.48-2.44.69-.3.08-.63.15-.95.1-.17-.14-.33-.27-.5-.41-.57-.48-1.35-.61-1.97-.12-.55.44-.82,1.31-.39,1.94.08.11.16.2.24.3,0,0,0,0,0,0,.01,0,.02.02.03.03.31.37.66.65,1.03.84,2.24,1.86,4.51,3.68,6.82,5.45.64.49,1.68.1,2.05-.54.45-.77.11-1.56-.54-2.05-1.27-.98-2.53-1.97-3.77-2.98,1.07-.3,2.14-.63,3.1-.71.67-.06,1.43-.07,1.97.04.55.11.99.22,1.28.61.23.31.21,1.08.2,1.54-.03.81-.16,1.59-.37,2.37-.5,1.87,2.39,2.66,2.89.8.44-1.63.78-3.68.26-5.34-.52-1.63-2.01-2.63-3.64-2.91-.31-.05-.61-.07-.92-.09.01-.09.02-.18.02-.27-.02-.48-.03-.96-.05-1.44.42.89,1.18,1.65,2.1,2.02,3.91,1.57,9.95-2.97,7.2-7.15-1.2-1.82-3.48-3.24-5.37-4.23ZM722.41,104.8c-.6.69-1.67,1.25-2.58,1.34-.38.04-1.7-.26-1.39-.84.27-.51,1.54-.24,1.97-.16,1.88.38,2.69-2.51.8-2.89-1.88-.38-4.19-.36-5.31,1.48-.08.13-.12.27-.18.41-.03-.81-.05-1.62-.08-2.43.02-.01.04-.03.06-.04.35-.25.67-.53.97-.84.26-.26.61-.82.97-.93.58-.17,1.7.79,2.18,1.11.81.53,1.64,1.1,2.33,1.79.64.64.91,1.26.27,2Z"/></g></svg>