<?xml version="1.0" encoding="UTF-8"?><svg id="Layer_1" xmlns="http://www.w3.org/2000/svg" viewBox="0 0 1326.86 168.13"><defs><style>.cls-1{fill:#fff;}</style></defs><g id="Divider_7"><path class="cls-1" d="M205.87,58.52c-2.9,0-5.69.49-8.28,1.38.79-.08,1.6-.12,2.41-.12,13.39,0,24.24,10.85,24.24,24.24,0,13.39-10.85,24.24-24.24,24.24-.81,0-1.62-.04-2.41-.12,2.6.89,5.38,1.38,8.28,1.38,14.09,0,25.51-11.42,25.51-25.51,0-14.09-11.42-25.51-25.51-25.51Z"/><path class="cls-1" d="M256.88,58.52c2.9,0,5.69.49,8.28,1.38-.79-.08-1.6-.12-2.41-.12-13.39,0-24.24,10.85-24.24,24.24,0,13.39,10.85,24.24,24.24,24.24.81,0,1.62-.04,2.41-.12-2.6.89-5.38,1.38-8.28,1.38-14.09,0-25.51-11.42-25.51-25.51,0-14.09,11.42-25.51,25.51-25.51Z"/><rect class="cls-1" x="2" y="79.06" width="661.43" height="10"/><path class="cls-1" d="M21.79,105.85c-12.01,0-21.79-9.77-21.79-21.79s9.77-21.79,21.79-21.79,21.79,9.77,21.79,21.79-9.77,21.79-21.79,21.79ZM21.79,66.28c-9.81,0-17.79,7.98-17.79,17.79s7.98,17.79,17.79,17.79,17.79-7.98,17.79-17.79-7.98-17.79-17.79-17.79Z"/><rect class="cls-1" x="19.79" y="64.28" width="4" height="39.57"/><path class="cls-1" d="M651.6,84.06c0,11.6,5.3,21.01,11.83,21.01s11.83-9.41,11.83-21.01-5.3-21.01-11.83-21.01-11.83,9.41-11.83,21.01Z"/><path class="cls-1" d="M744.17,84.06c-5.32,0-20.07-12.56-20.07-12.56-9.51-7.76-24.16-17.29-42.52-21.38-16.19-9-18.14-32.68-18.14-32.68,0,0-1.95,23.68-18.14,32.68-18.36,4.09-33.02,13.61-42.52,21.38,0,0-14.75,12.56-20.07,12.56,5.33,0,20.07,12.56,20.07,12.56,9.51,7.76,24.16,17.29,42.53,21.38,16.19,9,18.14,32.68,18.14,32.68,0,0,1.95-23.68,18.14-32.68,18.36-4.09,33.02-13.62,42.53-21.38,0,0,14.75-12.56,20.07-12.56ZM663.43,105.39c-23.6,0-42.47-12.44-52.92-21.33,10.45-8.88,29.32-21.33,52.92-21.33s42.47,12.44,52.92,21.33c-10.46,8.88-29.32,21.33-52.92,21.33Z"/><path class="cls-1" d="M494.25,33.64c9.32-5.99,20.41-9.48,32.31-9.48,33.08,0,59.9,26.82,59.9,59.9s-26.82,59.9-59.9,59.9c-11.91,0-22.99-3.49-32.31-9.48,11.46,9.64,26.23,15.45,42.38,15.45,36.38,0,65.87-29.49,65.87-65.87s-29.49-65.87-65.87-65.87c-16.14,0-30.92,5.82-42.38,15.45Z"/><path class="cls-1" d="M471.31,58.95c.85-4.59,8.83-5.58,8.83-5.58v-3.06h-23.66v3.06s7.98,1,8.83,5.58v50.16c-.85,4.58-8.83,5.58-8.83,5.58v3.06h23.66v-3.06s-7.98-1-8.83-5.58v-50.15Z"/><path class="cls-1" d="M1120.98,58.52c2.9,0,5.69.49,8.28,1.38-.79-.08-1.6-.12-2.41-.12-13.39,0-24.24,10.85-24.24,24.24,0,13.39,10.85,24.24,24.24,24.24.81,0,1.62-.04,2.41-.12-2.6.89-5.38,1.38-8.28,1.38-14.09,0-25.51-11.42-25.51-25.51,0-14.09,11.42-25.51,25.51-25.51Z"/><path class="cls-1" d="M1069.97,58.52c-2.9,0-5.69.49-8.28,1.38.79-.08,1.6-.12,2.41-.12,13.39,0,24.24,10.85,24.24,24.24,0,13.39-10.85,24.24-24.24,24.24-.81,0-1.62-.04-2.41-.12,2.6.89,5.38,1.38,8.28,1.38,14.09,0,25.51-11.42,25.51-25.51,0-14.09-11.42-25.51-25.51-25.51Z"/><rect class="cls-1" x="663.43" y="79.06" width="661.43" height="10"/><path class="cls-1" d="M1305.07,105.85c-12.01,0-21.79-9.77-21.79-21.79s9.77-21.79,21.79-21.79,21.79,9.77,21.79,21.79-9.77,21.79-21.79,21.79ZM1305.07,66.28c-9.81,0-17.79,7.98-17.79,17.79s7.98,17.79,17.79,17.79,17.79-7.98,17.79-17.79-7.98-17.79-17.79-17.79Z"/><rect class="cls-1" x="1303.07" y="64.28" width="4" height="39.57"/><path class="cls-1" d="M832.61,33.64c-9.32-5.99-20.41-9.48-32.31-9.48-33.08,0-59.9,26.82-59.9,59.9,0,33.08,26.82,59.9,59.9,59.9,11.91,0,22.99-3.49,32.31-9.48-11.46,9.64-26.23,15.45-42.38,15.45-36.38,0-65.87-29.49-65.87-65.87,0-36.38,29.49-65.87,65.87-65.87,16.14,0,30.92,5.82,42.38,15.45Z"/><path class="cls-1" d="M688.48,0c2.98,4.63,4.71,10.14,4.71,16.06,0,16.44-13.32,29.76-29.76,29.76s-29.76-13.32-29.76-29.76c0-5.92,1.73-11.42,4.71-16.06-4.79,5.69-7.68,13.04-7.68,21.06,0,18.08,14.65,32.73,32.73,32.73s32.73-14.65,32.73-32.73c0-8.02-2.89-15.36-7.68-21.06Z"/><path class="cls-1" d="M688.48,168.13c2.98-4.63,4.71-10.14,4.71-16.06,0-16.44-13.32-29.76-29.76-29.76-16.44,0-29.76,13.32-29.76,29.76,0,5.92,1.73,11.42,4.71,16.06-4.79-5.69-7.68-13.04-7.68-21.06,0-18.08,14.65-32.73,32.73-32.73,18.08,0,32.73,14.65,32.73,32.73,0,8.02-2.89,15.36-7.68,21.06Z"/><path class="cls-1" d="M861.54,58.95c.85-4.58,8.83-5.58,8.83-5.58v-3.06h-23.66v3.06s7.98,1,8.83,5.58v50.15c-.85,4.59-8.83,5.58-8.83,5.58v3.06h23.66v-3.06s-7.98-1-8.83-5.58v-50.16Z"/></g></svg>