<?xml version="1.0" encoding="UTF-8"?><svg id="Layer_1" xmlns="http://www.w3.org/2000/svg" viewBox="0 0 1261.4 191.82"><defs><style>.cls-1{fill:#fff;}</style></defs><g id="Divider_4"><path class="cls-1" d="M550.77,136.34h-162.32c-2.23-1.08-3.29-4.3-3.29-4.3h-1.04v14.59h1.04s1.06-3.21,3.29-4.3h162.32v-6Z"/><path class="cls-1" d="M654.64,103.63c0-2.72-.46-5.34-1.3-7.78.07.74.11,1.5.11,2.26,0,12.57-10.19,22.76-22.76,22.76-12.57,0-22.76-10.19-22.76-22.76,0-.76.04-1.52.11-2.26-.84,2.44-1.3,5.05-1.3,7.78,0,13.22,10.72,23.94,23.94,23.94,13.22,0,23.94-10.72,23.94-23.94Z"/><path class="cls-1" d="M594.38,92.38s-.97,7.19-5.49,7.52h-44.77c-4.52-.33-5.49-7.52-5.49-7.52h-2.79v20.04h2.79s.97-7.2,5.5-7.52h44.77c4.52.33,5.5,7.52,5.5,7.52h2.79v-20.04h-2.79Z"/><path class="cls-1" d="M322.81,81.37v-1.65h-11.84v1.65s4,.54,4.42,3.01v28.92c-.42,2.47-4.42,3.01-4.42,3.01v1.65h11.84v-1.65s-4-.54-4.42-3.01v-28.91c.42-2.47,4.42-3.01,4.42-3.01Z"/><path class="cls-1" d="M295.91,79.72v1.65s4,.54,4.42,3.01v28.92c-.42,2.47-4.42,3.01-4.42,3.01v1.65h11.84v-1.65s-4.01-.54-4.42-3.01v-28.91c.41-2.47,4.42-3.01,4.42-3.01v-1.65h-11.84Z"/><path class="cls-1" d="M21.79,142.98c-12.01,0-21.79-9.77-21.79-21.79s9.77-21.79,21.79-21.79,21.79,9.77,21.79,21.79-9.77,21.79-21.79,21.79ZM21.79,103.4c-9.81,0-17.79,7.98-17.79,17.79s7.98,17.79,17.79,17.79,17.79-7.98,17.79-17.79-7.98-17.79-17.79-17.79Z"/><rect class="cls-1" x="19.79" y="101.4" width="4" height="39.57"/><path class="cls-1" d="M587.53,83.72v-4h-260.53c6.64,0,12.02,7.72,12.02,17.23,0-.05,0,20.23,0,20.23h4.23v-33.35s.06-.08.09-.12h244.19Z"/><path class="cls-1" d="M876.25,132.04s-1.06,3.21-3.29,4.3h-162.32v6h162.32c2.23,1.08,3.29,4.3,3.29,4.3h1.04v-14.59h-1.04Z"/><path class="cls-1" d="M604.07,72.7v1.04s9.1,1.5,9.3,4.68v48.7c-.19,3.18-9.3,4.68-9.3,4.68v1.04h22.59v-1.04s-9.11-1.5-9.3-4.68v-48.69c.19-3.18,9.3-4.68,9.3-4.68v-1.04h-22.59Z"/><path class="cls-1" d="M657.34,73.74v-1.04h-22.59v1.04s9.11,1.5,9.3,4.68v48.69c-.19,3.18-9.3,4.68-9.3,4.68v1.04h22.59v-1.04s-9.1-1.5-9.3-4.68v-48.7c.19-3.18,9.3-4.68,9.3-4.68Z"/><path class="cls-1" d="M722.79,92.38s-.97,7.19-5.49,7.52h-44.77c-4.52-.33-5.49-7.52-5.49-7.52h-2.79v20.04h2.79s.97-7.2,5.5-7.52h44.77c4.52.33,5.5,7.52,5.5,7.52h2.79v-20.04h-2.79Z"/><path class="cls-1" d="M938.59,79.72v1.65s4,.54,4.42,3.01v28.91c-.41,2.47-4.42,3.01-4.42,3.01v1.65h11.84v-1.65s-4-.54-4.42-3.01v-28.92c.42-2.47,4.42-3.01,4.42-3.01v-1.65h-11.84Z"/><path class="cls-1" d="M965.49,81.37v-1.65h-11.84v1.65s4,.54,4.42,3.01v28.92c-.42,2.47-4.42,3.01-4.42,3.01v1.65h11.84v-1.65s-4.01-.54-4.42-3.01v-28.91c.41-2.47,4.42-3.01,4.42-3.01Z"/><path class="cls-1" d="M1239.62,142.98c-12.01,0-21.79-9.77-21.79-21.79s9.77-21.79,21.79-21.79,21.79,9.77,21.79,21.79-9.77,21.79-21.79,21.79ZM1239.62,103.4c-9.81,0-17.79,7.98-17.79,17.79s7.98,17.79,17.79,17.79,17.79-7.98,17.79-17.79-7.98-17.79-17.79-17.79Z"/><rect class="cls-1" x="1237.62" y="101.4" width="4" height="39.57"/><path class="cls-1" d="M673.87,79.72v4h244.19s.06.08.09.12v33.35h4.23s0-20.28,0-20.23c0-9.52,5.38-17.23,12.02-17.23h-260.53Z"/><path class="cls-1" d="M1259.4,116.19h-593.23s7.62,8.91,8.59,20.85c.64,7.83-1.88,17.98-7.64,24.23-9.05,9.81-22.02,15.96-36.42,15.96s-27.37-6.15-36.42-15.96c-5.76-6.25-8.28-16.39-7.64-24.23.97-11.94,8.59-20.85,8.59-20.85H2v10h328.35c6.16.86,10.88,5.83,10.88,11.86,0-6.03,4.73-11.01,10.88-11.86h228.23c-.1.37-1.78,9.33-1.78,13.49,0,28.8,23.34,52.14,52.14,52.14,28.8,0,52.14-23.34,52.14-52.14,0-4.16-1.68-13.11-1.78-13.49h228.23c6.16.86,10.88,5.83,10.88,11.86,0-6.03,4.73-11.01,10.88-11.86h328.35v-10Z"/><path class="cls-1" d="M526.08,166.15s9.03-6.13,15.59-7.23h178.06c6.56,1.1,15.59,7.23,15.59,7.23,0,0-9.59-10.13-13.33-14.73l-86.38-133.9c-3.33-7.05-4.91-17.53-4.91-17.53,0,0-1.57,10.48-4.91,17.53l-86.38,133.9c-3.74,4.59-13.33,14.73-13.33,14.73ZM630.7,24.68l81.44,126.24h-162.88l81.44-126.24Z"/><path class="cls-1" d="M381.71,98.92c-.04-.83-.66-1.48-1.5-1.5-3.29-.07-6.58-.01-9.87.17-.78.04-1.54.66-1.5,1.5.03.78.66,1.55,1.5,1.5,3.29-.18,6.58-.23,9.87-.17.78.02,1.54-.7,1.5-1.5Z"/><path class="cls-1" d="M397.38,100.06c.08-1.44-2.16-2.11-2.8-.76-1.12,2.38-2.92,4.4-5.18,5.72-.05-.39-.12-.78-.22-1.15-.32-1.15-1.03-2.73-2.36-2.91-1.09-.14-1.83.99-2.83,1.29-.83.25-1.76.25-2.56-.12-.74-.34-1.62-.21-2.05.54-.38.65-.2,1.71.54,2.05,2.19,1.01,4.39.81,6.33-.3.32.91.27,2.05.28,2.9,0,.9.96,1.8,1.9,1.45,1.58-.6,3.04-1.45,4.35-2.48.12.65.35,1.28.63,1.9.28.62.82,1.36.6,2.07-.57,1.85,2.33,2.64,2.89.8.34-1.09.1-2.14-.34-3.16-.32-.74-.86-1.52-.87-2.35,0-.83.48-1.65.81-2.38.45-1.02.81-1.98.87-3.1Z"/><path class="cls-1" d="M454.79,98.67c-1.14-1-2.74-1.68-4.08-2.37-1.58-.8-3.2-1.51-4.85-2.16-.08-.03-.15-.04-.23-.05-.11-.64-.58-1.22-1.42-1.24-8.17-.23-16.34-.25-24.51-.05-1.93.05-1.93,3.05,0,3,2.99-.07,5.98-.11,8.98-.12-1.1.15-2.06.75-3.02,1.35-1.43.88-2.9,1.32-4.59,1.31-.15,0-.29.02-.42.06-.21-.19-.45-.35-.75-.45-.87-.29-1.94-.2-2.85-.21-1.28-.01-2.55.05-3.82.15-1.91.16-1.93,3.16,0,3,1.59-.13,3.18-.19,4.78-.13.16,0,.32.01.48.02.03,0,.05,0,.08.01,0,.13.01.25.01.38,0,.6-.01,1.05-.66,1.2-1.31.3-2.95.08-4.29.1-1.6.03-3.19.06-4.79.09-1.46.03-2.92.07-4.38-.06-.65-.06-1.27-.2-1.9-.33.02-.02.04-.05.07-.07.24-.21.5-.38.77-.55,2.05-1.26,4.57-2.23,5.03-4.91.21-1.19-.66-2.03-1.85-1.85-4.54.73-9.26.1-13.45-1.79-1.75-.79-3.27,1.8-1.51,2.59,3.84,1.73,7.9,2.54,12.03,2.43-.71.4-1.49.74-2.09,1.14-1.38.92-3.02,2.58-2.17,4.38.52,1.1,1.78,1.53,3.05,1.74-.06.21-.08.44-.03.7.5,2.91,2.8,5.17,5.53,6.12,3.24,1.13,6.81.3,9.81-1.15,3.02-1.46,5.93-3.53,8.54-5.61,2.6-2.08,4.6-4.79,4.84-8.2.06-.84-.69-1.37-1.42-1.48,4.75-.01,9.49.04,14.24.17-.16,2.26.04,4.49.58,6.69.46,1.87,3.36,1.08,2.89-.8-.32-1.3-.48-2.59-.52-3.9,1.18.52,2.34,1.07,3.47,1.68.46.25.91.5,1.37.77.14.08.44.31.67.42-.21.18-.49.52-.61.63-.34.33-.69.65-1.04.96-1.27,1.14-2.69,2.26-4.33,2.81-.67.22-1.31.32-1.99.33.05-.1.04-.43.04-.53.02-.46-.02-.93-.15-1.37-.26-.88-.85-1.58-1.58-2.11.09-.86-.06-1.72-.6-2.52-1.26-1.87-4.26-2.39-6.34-2.08-2.37.36-4.31,2.92-2.01,4.76.93.74,2.05,1.08,3.2,1.26.57.09,1.17.13,1.77.21-1.23,1.46-3.04,2.53-4.73,3.38-1.51.75-4.02,1.4-5.25-.22-1.15-1.52-3.76-.02-2.59,1.51,3.69,4.86,10.3,1.5,13.89-1.73.46-.41.91-.9,1.31-1.44.11.53-.06,1.15.09,1.83.27,1.26,1.32,1.95,2.55,2.05,2.74.23,5.36-1.21,7.44-2.84,1.8-1.41,6.07-4.5,3.3-6.93ZM424.17,103.23c-2.11,1.66-4.42,3.23-6.77,4.54-2.3,1.28-5.03,2.27-7.69,1.73-2.1-.43-3.8-1.86-4.32-3.93,1.94.09,3.89,0,5.83-.04,2.22-.04,4.51.06,6.72-.15,1.84-.18,3.19-1.22,3.53-3.07.06-.31.09-.64.11-.99,1.41-.05,2.78-.33,4.08-.9.62-.27,1.25-.74,1.89-1.13-.73,1.57-2.03,2.88-3.39,3.94ZM436.97,99.8c.33,0,.66,0,1.02.07.28.05.67.12,1.03.26-.68-.08-1.37-.16-2.04-.33Z"/><path class="cls-1" d="M474.3,100.49c-.87,0-1.8.24-2.65.42-.85.18-1.69.38-2.53.57-1.26.27-2.58.49-3.88.41-.13-.93-.07-1.91-.1-2.82-.03-.72-.09-1.45-.23-2.16,1.44.19,2.87.47,4.28.86,1.87.51,2.66-2.39.8-2.89-2.42-.66-4.9-1.05-7.41-1.2-1.07-.06-1.96,1.35-1.3,2.26.87,1.19.85,2.62.87,4.04.02,1.06.08,2.09.3,3.1-2.8.77-5.62,1.42-8.48,1.91-1.72.3-1.23,2.89.4,2.95.9.03,1.79-.07,2.67-.24.26-.05.47-.19.65-.37,2.38-.49,4.73-1.08,7.06-1.77.41-.12.69-.37.87-.68,2.52,0,4.96-.71,7.46-1.19.18-.03.36-.06.54-.09.08.69.15,1.39.21,2.08.13,1.66.2,3.33.21,5,0,1.93,3.01,1.93,3,0,0-1.82-.09-3.64-.24-5.45-.16-1.78-.01-4.73-2.49-4.72Z"/><path class="cls-1" d="M497.14,93.28c-6.69.04-13.38.09-20.07.13-1.93.01-1.93,3.01,0,3,.5,0,1.01,0,1.51,0-.61.51-.91,1.48-.23,2.25,2.32,2.68,6.69,4.31,7.41,8.09.27,1.41,2.65,1.45,2.89,0,.84-5.06,5.26-8.05,9.24-10.67,1.2-.79.79-2.81-.76-2.8ZM486.94,102.42c-1.82-2.21-4.58-3.71-6.48-5.89-.05-.06-.1-.1-.15-.14,4.02-.03,8.04-.05,12.06-.08-2.2,1.72-4.18,3.69-5.43,6.11Z"/><path class="cls-1" d="M496.45,103.88s0-.05-.01-.09c-.01-.09-.02-.19-.03-.28-.03-.26-.05-.51-.08-.77-.04-.48-.06-.96-.07-1.44-.01-.78-.68-1.54-1.5-1.5-.8.04-1.51.66-1.5,1.5.03,2.09.34,4.18.92,6.18.22.75,1.07,1.3,1.85,1.05.77-.25,1.28-1.04,1.05-1.85-.27-.92-.48-1.86-.62-2.81Z"/><path class="cls-1" d="M501.5,90.83c-.85.23-1.18,1.04-1.05,1.85.76,4.55,1.31,9.14,1.67,13.74.06.81.64,1.5,1.5,1.5.76,0,1.56-.69,1.5-1.5-.38-4.87-.98-9.72-1.78-14.54-.13-.8-1.12-1.25-1.85-1.05Z"/><path class="cls-1" d="M522.93,102.68c-.09-.65-.16-1.38-.51-1.96-.43-.7-1.18-.98-1.97-1.01-2.93-.1-5.9.08-8.83.12-1.08.01-1.56.96-1.43,1.79-.55.3-1.1.6-1.65.9-.85.46-1.44.84-1.82,1.76-.38.91.57,1.91,1.45,1.9,4.48-.07,8.88.71,13.07,2.29.97.37,1.84-.56,1.9-1.45.09-1.46,0-2.9-.2-4.34ZM518.9,102.74c.29,0,.67.04,1.02.04,0,.02,0,.05.01.07.04.2.07.41.1.61.07.49.09.98.11,1.47-2.36-.75-4.79-1.25-7.25-1.52.13-.18.2-.39.23-.6,1.93-.03,3.85-.05,5.78-.08Z"/><path class="cls-1" d="M509.98,98.95c3.77-.93,7.65-.98,11.51-1.02,1.93-.02,1.93-3.02,0-3-3.48.04-6.98.11-10.41.73,0-.67,0-1.35,0-2.02,0-1.93-3.01-1.93-3,0,0,1.29,0,2.57.01,3.86,0,.99.95,1.68,1.9,1.45Z"/><path class="cls-1" d="M891.06,97.59c-3.29-.18-6.58-.23-9.87-.17-.78.02-1.54.68-1.5,1.5.04.8.66,1.52,1.5,1.5,3.29-.07,6.58-.01,9.87.17.78.04,1.53-.72,1.5-1.5-.04-.85-.66-1.45-1.5-1.5Z"/><path class="cls-1" d="M879.96,102.14c-.76.35-1.66.37-2.45.15-1.03-.29-1.84-1.47-2.94-1.32-1.3.17-1.99,1.68-2.32,2.79-.12.41-.19.84-.25,1.26-2.26-1.32-4.06-3.34-5.18-5.72-.63-1.35-2.88-.68-2.8.76.06,1.12.42,2.09.87,3.1.33.74.81,1.55.81,2.38,0,.83-.55,1.61-.87,2.35-.44,1.02-.68,2.07-.34,3.16.57,1.84,3.46,1.06,2.89-.8-.21-.67.28-1.37.55-1.96.3-.64.56-1.31.68-2,1.31,1.03,2.77,1.88,4.35,2.48.93.35,1.89-.55,1.9-1.45,0-.85-.04-1.99.28-2.9,1.94,1.1,4.15,1.31,6.33.3.74-.34.92-1.4.54-2.05-.44-.76-1.31-.88-2.05-.54Z"/><path class="cls-1" d="M859.84,99.17c-.6-.4-1.38-.74-2.09-1.14,4.13.11,8.19-.7,12.03-2.43,1.76-.79.23-3.38-1.51-2.59-4.19,1.89-8.91,2.52-13.45,1.79-1.18-.19-2.05.65-1.85,1.85.46,2.68,2.98,3.66,5.03,4.91.21.13.44.26.63.42.09.07.16.15.24.23-.22.04-.46.09-.51.1-.39.08-.79.13-1.18.17-1.53.16-3.07.11-4.6.08-1.52-.03-3.03-.06-4.55-.09-1.42-.03-3.14.21-4.53-.11-.65-.15-.66-.61-.66-1.2,0-.04.02-.22.03-.39.18,0,.36-.02.54-.02,1.6-.06,3.19,0,4.78.13,1.92.16,1.91-2.84,0-3-1.19-.1-2.39-.16-3.58-.15-.98,0-2.14-.1-3.09.21-.3.1-.54.26-.76.45-.13-.03-.26-.06-.41-.05-1.68.01-3.16-.43-4.59-1.31-.97-.6-1.93-1.19-3.02-1.35,2.99.02,5.98.05,8.98.12,1.93.05,1.93-2.95,0-3-8.17-.2-16.34-.18-24.51.05-.83.02-1.31.6-1.42,1.24-.08.01-.15.02-.23.05-2.86,1.13-5.79,2.42-8.36,4.12-1,.66-1.72,1.58-1.4,2.85.33,1.33,1.61,2.29,2.58,3.17,2.03,1.83,4.36,3.57,7.12,4.03,1.03.17,2.28.3,3.23-.25.52-.3.92-.8,1.11-1.36.26-.74-.09-1.46.08-2.16,0-.03.02-.05.03-.07.02.02.03.05.05.08,1.76,2.36,4.77,4.25,7.53,5.2,2.8.97,5.84.4,7.67-2.02,1.17-1.54-1.44-3.03-2.59-1.51-2.16,2.85-7.18-.61-9.03-2.21-.24-.21-.6-.55-.94-.94,1.13-.17,2.28-.21,3.37-.61.95-.35,2.02-.94,2.48-1.89.59-1.23-.23-2.59-1.32-3.22-1.87-1.08-4.86-.67-6.66.4-1.46.88-1.94,2.23-1.81,3.63-.44.32-.83.7-1.13,1.14-.4.6-.64,1.29-.66,2.02,0,.26-.02.61.03.9-.16,0-.32,0-.48-.01-1.76-.15-3.38-1.14-4.74-2.21-.8-.63-1.54-1.32-2.27-2.03-.14-.13-.28-.3-.43-.42-.02-.02-.04-.03-.06-.04.37-.18.76-.5,1.08-.68,1.44-.82,2.93-1.57,4.45-2.24-.04,1.32-.19,2.62-.52,3.92-.46,1.87,2.43,2.67,2.89.8.55-2.2.75-4.43.58-6.69,4.74-.13,9.49-.19,14.24-.17-.74.11-1.48.63-1.42,1.48.24,3.41,2.24,6.11,4.84,8.2,2.61,2.09,5.53,4.16,8.54,5.61,2.99,1.44,6.57,2.28,9.81,1.15,2.73-.95,5.03-3.21,5.53-6.12.04-.25.03-.49-.03-.7,1.27-.21,2.53-.64,3.05-1.74.85-1.8-.79-3.46-2.17-4.38ZM824.66,99.74c-.29.08-.59.14-.87.18-.41.07-.82.11-1.23.15.51-.19,1.11-.28,1.62-.31.15-.01.32-.02.48-.02ZM851.9,109.44c-2.72.64-5.54-.36-7.9-1.68-2.28-1.27-4.5-2.8-6.58-4.39-1.43-1.09-2.82-2.45-3.58-4.09.65.39,1.28.86,1.9,1.13,1.3.57,2.67.85,4.08.9.02.34.05.68.11.99.33,1.85,1.7,2.91,3.53,3.07,2.22.2,4.5.11,6.72.15,1.94.04,3.89.13,5.83.04-.5,1.99-2.1,3.41-4.11,3.88Z"/><path class="cls-1" d="M807.44,104.98c-2.86-.49-5.69-1.14-8.48-1.91.22-1,.28-2.04.3-3.1.03-1.42,0-2.85.87-4.04.66-.91-.22-2.32-1.3-2.26-2.5.15-4.99.54-7.41,1.2-1.86.51-1.07,3.4.8,2.89,1.41-.38,2.84-.66,4.28-.86-.14.71-.2,1.44-.23,2.16-.03.91.02,1.89-.11,2.82-1.26.08-2.54-.13-3.77-.39-.85-.18-1.69-.39-2.53-.57-.88-.19-1.85-.44-2.75-.44-1.08,0-1.96.69-2.16,1.76-.17.93-.24,1.91-.32,2.85-.17,1.85-.25,3.71-.25,5.56,0,1.93,2.99,1.93,3,0,0-1.67.07-3.33.21-5,.06-.7.13-1.39.21-2.08.18.03.36.06.54.09,2.5.48,4.94,1.2,7.46,1.19.18.31.46.56.87.68,2.33.69,4.69,1.28,7.06,1.77.17.18.39.32.65.37.88.18,1.77.27,2.67.24.74-.02,1.38-.55,1.47-1.3.08-.68-.33-1.52-1.07-1.65ZM787.84,102.96s0-.03.01,0c0,0,0,0-.01,0Z"/><path class="cls-1" d="M784.34,93.41c-6.69-.04-13.38-.09-20.07-.13-1.55,0-1.96,2-.76,2.8,3.98,2.62,8.41,5.61,9.24,10.67.24,1.45,2.62,1.41,2.89,0,.73-3.79,5.09-5.42,7.41-8.09.67-.78.38-1.74-.23-2.25.5,0,1.01,0,1.51,0,1.93.01,1.93-2.99,0-3ZM780.94,96.53c-1.9,2.19-4.66,3.68-6.48,5.89-1.25-2.42-3.23-4.4-5.43-6.11,4.02.03,8.04.05,12.06.08-.05.05-.1.09-.15.14Z"/><path class="cls-1" d="M766.64,99.8c-.82.04-1.49.66-1.5,1.5,0,.48-.03.96-.07,1.44-.02.24-.04.48-.07.72-.01.09-.02.18-.03.27,0,.05-.01.1-.02.15-.14.95-.35,1.89-.62,2.81-.22.75.26,1.67,1.05,1.85.8.18,1.61-.24,1.85-1.05.58-2,.89-4.1.92-6.18.01-.78-.7-1.54-1.5-1.5Z"/><path class="cls-1" d="M759.91,90.83c-.72-.2-1.71.24-1.85,1.05-.8,4.82-1.4,9.67-1.78,14.54-.06.81.73,1.5,1.5,1.5.86,0,1.44-.69,1.5-1.5.36-4.6.91-9.18,1.67-13.74.13-.8-.21-1.61-1.05-1.85Z"/><path class="cls-1" d="M752.86,102.52c-.55-.3-1.1-.6-1.65-.9.13-.83-.34-1.78-1.43-1.79-2.93-.04-5.9-.22-8.83-.12-.74.03-1.4.25-1.85.85-.43.57-.51,1.3-.61,1.98-.22,1.48-.31,2.97-.22,4.47.05.89.93,1.81,1.9,1.45,4.19-1.58,8.59-2.36,13.07-2.29.88.01,1.83-.99,1.45-1.9-.39-.92-.97-1.3-1.82-1.76ZM748.28,102.81c.02.21.09.41.23.6-2.46.27-4.89.77-7.25,1.52.02-.49.05-.98.11-1.47.03-.2.06-.41.1-.61,0-.04.02-.08.02-.12.03,0,.06,0,.08,0,.31,0,.62,0,.93.01,1.93.03,3.85.05,5.78.08Z"/><path class="cls-1" d="M739.92,97.92c3.86.05,7.74.09,11.51,1.02.94.23,1.9-.45,1.9-1.45,0-1.29,0-2.57.01-3.86,0-1.93-2.99-1.93-3,0,0,.67,0,1.35,0,2.02-3.43-.62-6.93-.69-10.41-.73-1.93-.02-1.93,2.98,0,3Z"/></g></svg>