<?xml version="1.0" encoding="UTF-8"?><svg id="Layer_1" xmlns="http://www.w3.org/2000/svg" viewBox="0 0 1243.28 280.17"><defs><style>.cls-1{fill:#fff;}</style></defs><g id="Divider_1"><path class="cls-1" d="M394.27,188.76c12.12,7.7,20.17,21.23,20.17,36.65,0,23.97-19.43,43.4-43.4,43.4-12.69,0-24.12-5.45-32.05-14.14,7.73,15.13,23.46,25.49,41.62,25.49,25.8,0,46.72-20.92,46.72-46.72,0-21.05-13.92-38.84-33.05-44.69Z"/><path class="cls-1" d="M619.32,250.81h-230.55s-3.06-6.64,34.72-6.64h190.72l5.11,6.64Z"/><path class="cls-1" d="M674.89,129.7c.62,3.27.95,6.65.95,10.1,0,29.94-24.27,54.2-54.2,54.2s-54.2-24.27-54.2-54.2c0-3.45.34-6.83.95-10.1-5.36,9.14-8.44,19.78-8.44,31.14,0,34.07,27.62,61.69,61.69,61.69s61.69-27.62,61.69-61.69c0-11.36-3.08-22-8.44-31.14Z"/><path class="cls-1" d="M545.51,170.75c0,2.44-2.02,8.47-4.28,9.49,2.26.28,4.28,23.47,4.28,23.47,0,0,2.02-23.18,4.28-23.47-2.26-1.02-4.28-7.05-4.28-9.49Z"/><path class="cls-1" d="M560.7,181.43c1.97,2.92,3.13,6.45,3.13,10.24,0,10.12-8.2,18.32-18.32,18.32s-18.32-8.2-18.32-18.32c0-3.79,1.15-7.32,3.13-10.24-5.96,4.57-9.8,11.75-9.8,19.84,0,13.8,11.19,25,25,25s25-11.19,25-25c0-8.09-3.84-15.27-9.8-19.84Z"/><path class="cls-1" d="M849.01,188.76c-12.12,7.7-20.17,21.23-20.17,36.65,0,23.97,19.43,43.4,43.4,43.4,12.69,0,24.12-5.45,32.05-14.14-7.73,15.13-23.46,25.49-41.62,25.49-25.8,0-46.72-20.92-46.72-46.72,0-21.05,13.92-38.84,33.05-44.69Z"/><path class="cls-1" d="M623.96,250.81h230.55s3.06-6.64-34.72-6.64c-37.79,0-190.72,0-190.72,0l-5.11,6.64Z"/><path class="cls-1" d="M502.62,206.68c-1.82.13-3.63.26-5.44.38-.15-.47-.29-.94-.44-1.42-.51-1.62-1.13-3.57-1.97-5.4-.22-.5-.45-.99-.7-1.47.15-.71.3-1.43.42-2.15.28-1.4.43-2.84.73-4.24.23-1.23-.94-2.65-2.16-1.77-1.26.92-1.65,1.87-1.4,3.44.03.19.08.34.15.47-.06.36-.13.73-.19,1.09,0,0,0,0-.01,0-1.51-1.2-2.96-1.3-4.31-.64-1.34.66-2.67,2.06-3.7,3.82-1.03,1.76-1.91,3.85-2.58,5.82-.59,1.98-.99,3.82-1.19,5.06-.35,1.85-.49,4.18-.38,6.41.07,1.11.18,2.2.49,3.2.31,1,.73,1.9,1.3,2.63,1.77,2.27,4.56,2.25,6.37.11.69-.82,1.23-1.77,1.66-2.81.48-1.03.86-2.14,1.17-3.28.31-1.14.53-2.3.76-3.44.14-.65.29-1.28.42-1.9,1.12-.08,2.25-.16,3.37-.25.47,1.85.84,3.71,1.18,5.59.29,1.85.54,3.97-.62,5.57-1.28,1.7-3.55,1.94-5.17.51-1.48-1.32-3.67.92-2.18,2.25,2.19,1.93,5.06,2.51,7.67.99,1.5-.87,2.44-2.12,2.95-3.53.26-.71.38-1.47.48-2.24.1-.78.11-1.57.04-2.37-.16-1.91-.57-3.84-.96-5.75-.09-.42-.2-.83-.31-1.25,1.65-.14,3.29-.3,4.94-.46.96-.1,1.33-.86,1.22-1.59-.08-.72-.63-1.41-1.59-1.34ZM485.95,200.79c.58-.99,1.22-1.83,1.92-2.29.72-.45,1.46-.52,2.19.01.31.23.59.53.86.87-.51,2.7-1.05,5.4-1.65,8.09-1.77.07-3.54.13-5.32.16-.27,0-.51.08-.71.2.11-.46.23-.9.36-1.34.29-1.18,1.21-3.74,2.36-5.72ZM487.93,213.03c-.37,1.6-.79,3.23-1.45,4.76-.47,1.06-.68,1.75-1.77,1.98-1.38.3-1.75-.73-1.98-2.29-.29-1.76-.35-3.65-.23-5.53.04-.41.1-.81.16-1.21.2.19.48.31.86.29,1.66-.07,3.31-.15,4.96-.25-.18.75-.35,1.5-.54,2.25ZM492.32,207.34c.24-1.12.49-2.24.73-3.36.34,1.05.62,2.05.87,2.81.05.15.09.3.15.45-.58.03-1.17.06-1.75.09Z"/><path class="cls-1" d="M507.02,183.27c-.53,1.11-.94,2.27-1.43,3.4-.07.18-.15.36-.23.55-.16-.25-.4-.46-.76-.59-.2-.07-.41-.14-.61-.21.27-.46.49-.99.65-1.56.25-.91.44-1.86.72-2.56.68-1.83-2.05-2.93-2.81-1.06-.41,1.08-.79,2.17-1.18,3.26-.09,0-.19,0-.3,0l-1.5-.23c-.48-.07-.85.08-1.11.34-5.03-1.48-10.17-2.57-15.44-3.12-1.98-.22-2.18,3.38-.24,3.52,5.91.48,11.66,1.68,17.3,3.36-1.25,3.91-2.34,7.87-3.23,11.89-.38,1.98,2.57,2.53,2.94.6.86-3.92,1.93-7.78,3.15-11.6.23.08.47.15.7.22.28.09.53.1.76.05-.07.18-.15.36-.22.54l-1.3,3.46-.67,1.73-.59,1.76c-.63,1.85,2.31,2.48,2.92.7l.58-1.71.66-1.69,1.28-3.38c.42-1.12.93-2.22,1.38-3.33.48-1.1.87-2.23,1.39-3.31.79-1.7-2-2.81-2.81-1.05Z"/><path class="cls-1" d="M516.62,160.93l-5.21-3.49c-1.07-.73-3.91-2-4.92-3.28.14-1.2-1.04-2.1-2.04-1.59-.07-1.45-.11-2.91-.08-4.41.02-1.24-1.44-2.45-2.51-1.17-6.17,7.21-11.3,15.45-15.06,24.34-.88,2.14,1.92,3.21,2.78,1.13,3.04-7.17,6.99-13.92,11.7-20.01.05,1.36.22,2.75.38,4.08.03.21.06.42.09.63-1.21,2.42-2.41,4.84-3.59,7.27-.69-.36-1.38-.73-2.07-1.11-.84-.47-1.66.07-2.06.85-.4.77-.3,1.81.54,2.25.7.37,1.4.72,2.11,1.06-.96,2.02-1.92,4.04-2.87,6.08-.89,2,1.91,3.08,2.77,1.14.93-1.99,1.88-3.97,2.83-5.94,1.51.67,3.04,1.3,4.59,1.88.54.2,1.06.07,1.46-.22.11.23.2.48.32.71.42.82.88,1.59,1.4,2.29-1.81.06-3.62.1-5.46.07-.96-.01-1.61.77-1.73,1.57-.11.8.27,1.59,1.25,1.58,3.27-.05,6.62-.15,9.89-.39,1.5-.1,1.77-2.21.46-2.85-2.01-.95-2.85-3.57-3.67-5.53-.82-1.98-1.59-4.09-2.09-6.19-.34-1.37-.62-2.79-.86-4.23.04-.09.09-.18.13-.27.34.23.68.44.99.64l6.81,4.34c-1.15.9-2.06,2.07-2.73,3.55-.72,1.86,1.94,3.25,2.64,1.43.7-1.59,1.74-2.81,3.37-3.46,1.15-.48,1.58-1.98.43-2.75ZM503.36,164.39c.29.89.58,1.88.91,2.89-1.15-.49-2.29-.99-3.41-1.52.6-1.24,1.22-2.49,1.83-3.73.2.79.41,1.58.67,2.36Z"/><path class="cls-1" d="M522.2,145.15c.56-.74.41-1.58-.15-2.18-1.14-1.2-2.36-2.29-3.69-3.27-1.58-1.18-3.67,1.46-2.08,2.57,1.35.95,2.61,2.01,3.78,3.18.58.57,1.66.31,2.15-.3Z"/><path class="cls-1" d="M532.08,134.95c-.86.83-1.68,1.68-2.51,2.54-.63-1.56-1.73-2.93-3.5-3.91-1.39-.76-2.95-1-4.58-.91-.81.05-1.64.18-2.46.38-.8.21-1.6.49-2.38.79-.97.38-1.93.82-2.89,1.3-.96.47-1.9,1-2.8,1.58-1.53.96-3.51,1.97-4.79,3.36-2.24,2.62.18,5.77,2.03,7.11,1.01.75,2.2,1.25,3.53,1.11,1.66-.16,3.36-1.99,4.91-1.56,1.87.51,3.17-2.39,1.3-2.95-1.83-.52-2.96.15-4.79.75-1.85.64-2.84.34-3.94-1.14-1.32-1.8-.76-.93.12-1.97.81-.95,2.78-1.88,3.79-2.47.56-.33,1.12-.65,1.69-.96.59-.29,1.18-.56,1.77-.81,2.26-.94,4.73-1.88,6.99-1.16,2.25.73,3.24,2.23,3.55,4.03-2.97,3.27-5.77,6.71-8.32,10.31-1.13,1.68,1.31,3.41,2.41,1.78,1.67-2.37,3.46-4.65,5.32-6.87-.49,1.44-1.18,2.8-1.89,3.91-.49.73-1.31,1.97-2.21,3.08-.86,1.15-1.84,2.15-2.75,2.34-.88.18-2.31-1.26-2.95-1.73-.97-.7-1.92-1.43-2.87-2.17-1.52-1.21-3.42,1.48-1.83,2.66,2.06,1.57,5.54,5.1,8.38,4.15,1.45-.44,2.76-1.57,3.89-2.89,1.12-1.33,2.2-2.75,2.94-3.93.8-1.29,1.55-2.73,2.09-4.27.54-1.53.81-3.22.9-4.78,0-.18,0-.37,0-.55,1.28-1.37,2.58-2.72,3.93-4.02,1.44-1.34-.62-3.52-2.1-2.14Z"/><path class="cls-1" d="M496.11,180.34c1.88.38,2.27-2.8.41-3.24-2.21-.5-4.45-.85-6.74-1.03-.97-.08-1.61.74-1.69,1.6-.08.87.32,1.75,1.29,1.8,2.27.12,4.51.42,6.72.86Z"/><path class="cls-1" d="M551.98,118.48c-.81-.97-1.4-1.79-2.85-1.38-1.87.54-3.74,2.52-5.32,3.63-1.06.76-2.06,1.62-3.09,2.42-.87.71-1.77,1.39-2.62,2.13.55-.68,1.13-1.35,1.74-1.98,1.43-1.54,2.9-3.1,4.46-4.53,1.51-1.47,3.02-2.94,4.56-4.45.96-.96.23-2.71-1.16-2.51-9.11,1.3-18.08,5.24-25.77,11.42-1.17.3-2.04,2.25-.8,3.13,3.32,2.38,6.4,5.1,9.28,8,.85.85,2.21.36,2.63-.71.39-1,.83-1.98,1.34-2.93,1.44,1.57,2.99,3.05,4.35,4.54,1.29,1.39,3.55-.52,2.27-1.99-1.5-1.73-3.33-3.47-4.88-5.34.33-.47.67-.94,1.02-1.41-.06.27-.03.54.05.79-.04.35.05.71.32,1.04,1.69,2.08,4.11,5.54,6.85,3.49.93-.64,1.83-1.34,2.72-2.06.89-.72,1.75-1.47,2.69-2.1,1.59-1.1,3.7-2.25,4.96-3.69.3-.37.53-.97.31-1.45-.69-1.51-2-2.78-3.07-4.05ZM534.33,125.37c-.13-.23-.27-.45-.39-.69-.85-1.75-3.83-.23-2.93,1.49.38.73.84,1.42,1.34,2.09-.45.74-.85,1.51-1.23,2.28-2.03-2.02-4.16-3.93-6.4-5.73,5.56-4.3,11.87-7.35,18.34-9-.44.43-.87.87-1.32,1.29-1.61,1.54-3.12,3.21-4.63,4.82-1,1.09-1.92,2.26-2.79,3.44ZM549.23,124.37c-1.22.87-2.45,1.72-3.61,2.68-.64.5-2.12,2.13-2.9,2.15-.55.02-1.48-1.15-2.15-2.05,1.39-1.15,2.81-2.26,4.21-3.39,1.36-1.01,3.08-2.66,4.71-3.52.76.69,1.63,1.64,2.21,2.46-.78.61-1.74,1.17-2.47,1.67Z"/><path class="cls-1" d="M580.94,89.54c-1.97-1.01-4.45-.78-6.59,1.31-1.54,1.52.99,3.4,2.51,1.89,2.37-2.35,4.33,1.14,4.48,2.82.18,1.85-.21,3.86-1.24,5.54-.94,1.57-2.33,2.78-3.85,3.9-1.52,1.11-3.23,1.96-4.88,2.59-.48.21-1.04.4-1.63.58-.99-1.8-1.95-3.62-2.86-5.47-.85-1.73-3.93-.35-3.02,1.37.86,1.64,1.76,3.26,2.68,4.86-.08.01-.16.03-.24.05-.97.16-1.96.31-2.97.42-1.4-2.27-2.81-4.53-4.24-6.78-1.02-1.62-4.11-.06-3.02,1.55,1.18,1.77,2.35,3.55,3.51,5.32-1.81-.1-3.49-.34-4.91-.99-1.58-.72-2.81-1.88-3.34-3.67-.53-1.86-3.89-.89-3.28,1,.88,2.72,2.84,4.29,5.25,5.31,2.42,1.02,5.19,1.29,7.87,1.33.12,0,.23,0,.34,0,.43.66.86,1.33,1.28,1.99-2.04.79-4.08,1.59-6.12,2.41-.94.34-1.2,1.27-.99,2,.21.73.86,1.25,1.77.89,2.34-.93,4.67-1.84,7-2.74.19.3.39.6.58.9,1.04,1.62,3.65.29,2.67-1.37-.13-.21-.26-.42-.39-.64,1.07-.41,2.14-.82,3.22-1.23.72.18,1.52-.14,1.84-.7,1.78-.68,3.57-1.35,5.35-2.03,1.79-.7.78-3.52-1.08-2.8-1.74.66-3.49,1.32-5.23,1.98-.05-.09-.11-.19-.16-.29.74-.27,1.46-.56,2.19-.86,1.29-.54,2.52-1.19,3.69-1.98,1.16-.81,2.28-1.6,3.24-2.56.97-.95,1.8-2.01,2.48-3.15,1.36-2.22,2.09-4.79,1.74-7.62-.26-2.13-1.68-4.15-3.65-5.11ZM565.72,113.3c-.22-.36-.44-.72-.65-1.07,1.05-.13,2.09-.32,3.12-.55.11.18.22.36.33.55-.93.36-1.86.71-2.79,1.07Z"/><path class="cls-1" d="M563.09,97.25c.01.38.17.74.55,1.03,2.58,2.03,5.2,3.79,7.96,5.59,1.48.96,3.3-.74,2.34-2.17-1.11-1.63-1.69-3.49-1.54-5.51.09-1.31,1.23-3.06.67-4.24-.47-1-1.59-1.1-2.68-.67-2.37.93-4.54,2.28-6.9,3.31-1.45.61-1.3,2.08-.4,2.66ZM569.13,95.33s-.01.07-.02.11c-.12.94-.13,1.89-.01,2.81-.8-.59-1.59-1.2-2.37-1.81.59-.26,1.19-.52,1.78-.79.21-.1.42-.21.63-.32Z"/><path class="cls-1" d="M620.8,84.29c-5-2.07-11.15-1.27-16.55-.6-6.56.66-13.02,2.07-19.4,3.71-.53.15-.88.44-1.08.78-1.01.6-1.44,2.04-.12,2.61,2.1.89,4.22,1.8,6.35,2.66-.16.17-.31.35-.46.53-2.04,2.58-1.67,5.16-.4,7.35,1.28,2.22,3.48,4.24,5.38,5.8,1.47,1.22,3.08-1.35,1.63-2.55-1.37-1.12-3.1-2.62-4.06-4.29-.96-1.67-1.14-3.5.78-5.31.1-.1.23-.18.34-.28.11.04.21.08.32.12,1.07.36,2.64,1.19,4.19,1.75,1.56.57,3.12.87,4.31.34,1.19-.5,2.17-1.86,3.11-2.67.93-.79,1.92-1.57,2.96-2.26.18.04.36.07.54.12,1.67.44,3.26,1.04,4.69,1.78,1.69.83,3.77,2.7,2.24,4.54-1.37,1.69-3.97,1.59-5.91,1.37-1-.12-1.63.61-1.75,1.36-.13.75.24,1.51,1.21,1.58,2.1.25,4.79-.06,6.9-.99,2.1-.9,3.64-2.61,3.23-5.45-.36-2.46-2.46-4.33-5.12-5.6-.71-.32-1.46-.59-2.23-.84.9-.44,1.82-.84,2.77-1.21,1.84-.64,3.77-1.17,5.74-1.59,1.39-.3,1.71-2.21.39-2.75ZM593.96,88.33l4.22-.76,2.11-.37,2.13-.26c1.29-.16,2.67-.38,4.09-.6,1.42-.23,2.9-.32,4.37-.43.9-.04,1.79-.08,2.67-.06-1.06.4-2.1.84-3.1,1.31-1.04.47-2.03,1.03-2.99,1.62-.54-.08-1.07-.15-1.56-.18-1.39-.12-2.9-.15-4.43-.06-1.53.07-3.07.43-4.55.84-1.51.41-2.93,1.02-4.2,1.81-.75-.29-1.5-.58-2.25-.9-.58-.24-1.17-.5-1.75-.76.35-.08.71-.16,1.06-.25,1.39-.31,2.78-.68,4.18-.95ZM602.81,92.17c-.43.37-.86.75-1.26,1.14-.84.84-.59.62-1.63.54-1.03-.08-2.27-.65-3.37-1.13.42-.16.84-.31,1.27-.45.93-.29,1.9-.5,2.86-.65.96-.13,1.93-.15,2.86-.14.04,0,.08,0,.11,0-.28.23-.57.45-.84.68Z"/><path class="cls-1" d="M599.45,99.16c-.26-1.91-3.44-1.35-3.11.56l1.16,6.88c.34,1.9,3.22,1.39,2.94-.52l-1-6.91Z"/><path class="cls-1" d="M603.21,98.5c-.63-1.88-3.55-.55-2.88,1.26.6,1.65,1.08,3.32,1.48,5.03.22.95,1.05,1.25,1.79,1.17.74-.09,1.38-.65,1.19-1.6-.41-1.98-.93-3.93-1.58-5.86Z"/><path class="cls-1" d="M766.58,203.83c-.34-.83-1.13-1.43-2.01-1.02-1.64.78-3.32,1.51-5.01,2.2-.29-.46-.59-.91-.9-1.34-1.07-1.51-2.35-3.27-3.78-4.73-.41-.4-.83-.77-1.27-1.11-.19-.73-.4-1.46-.59-2.19-.42-1.42-.77-2.85-1.33-4.23-.46-1.22-2.21-1.81-2.79-.44-.61,1.42-.39,2.36.46,3.63.11.16.23.27.35.36.1.34.2.69.29,1.04,0,0-.01,0-.02,0-3.77-.76-5.31,2.28-6.02,5.88-.4,1.82-.54,3.79-.56,5.58-.11,1.8-.07,3.42.02,4.5.18,1.6.25,3.6.7,5.48.21.94.54,1.86.89,2.7.35.84.82,1.6,1.43,2.22,1.88,1.92,4.67,1.94,6.36-.27.65-.84,1.14-1.83,1.51-2.91.32-1.08.53-2.24.66-3.43.13-1.19.2-2.41.2-3.59-.02-.68-.05-1.34-.07-1.98,1.08-.34,2.15-.71,3.22-1.08.95,1.81,1.76,3.74,2.31,5.75.57,1.97,1.23,4.32.07,6.18-1.19,1.98-3.45,2.25-5.14.89-1.54-1.21-3.62,1.12-2.06,2.35,2.29,1.83,5.19,2.59,7.72.87,1.45-.99,2.33-2.45,2.76-4.13.21-.84.34-1.73.32-2.64-.03-.91-.15-1.83-.35-2.74-.47-2.17-1.13-4.3-2.1-6.31-.2-.44-.44-.85-.65-1.29,1.56-.6,3.12-1.25,4.66-1.93.89-.4,1.03-1.44.73-2.27ZM746.33,208.39c.1-1.11.06-3.55.5-5.65.21-1.05.54-2.02,1.03-2.68.46-.66,1.1-1.01,2-.83.36.07.71.22,1.07.41.58,2.68.96,5.4,1.13,8.12-1.69.55-3.39,1.07-5.1,1.54-.26.07-.47.2-.64.35,0-.42,0-.84.03-1.26ZM752.07,213.34c-.13,1.61-.3,3.24-.72,4.77-.28,1.06-.44,1.73-1.54,2.05-1.37.4-1.72-.52-2.23-1.89-.54-1.54-.87-3.21-1.02-4.89-.05-.36-.09-.73-.12-1.1.24.13.55.17.91.08,1.6-.4,3.2-.83,4.79-1.29,0,.76-.02,1.51-.06,2.26ZM754.97,206.75c-.08-1.18-.22-2.35-.38-3.52.68.9,1.29,1.8,1.78,2.51.09.13.17.27.26.41-.55.21-1.1.41-1.66.6Z"/><path class="cls-1" d="M756.8,198.12c.38,2.14,3.33,1.6,2.94-.6-.9-4.46-2.04-8.87-3.36-13.23.27-.08.54-.17.82-.24.27-.07.47-.21.62-.38.05.21.11.42.16.63.29,1.4.58,2.8.88,4.2l.42,2.1.31,2.12c.31,2.21,3.24,1.55,2.92-.7l-.32-2.16-.43-2.14c-.3-1.43-.6-2.86-.9-4.29-.32-1.43-.74-2.83-1.12-4.24-.41-1.4-.75-2.84-1.25-4.22-.75-2.19-3.53-1.08-2.81,1.05.48,1.35.81,2.76,1.21,4.13.06.22.12.45.18.67-.29-.14-.62-.18-.98-.06-.21.06-.41.14-.62.2-.08-.6-.27-1.23-.51-1.86-.37-1.01-.87-1.99-1.21-2.77-.86-2.07-3.59-.98-2.81,1.06.43,1.18.83,2.38,1.23,3.58-.06.05-.13.11-.2.17l-1.32.76c-.42.24-.62.6-.67.98-4.9,1.87-9.65,4.09-14.29,6.52-1.66.88-.13,3.32,1.59,2.48,5.26-2.6,10.66-4.88,16.23-6.69,1.29,4.27,2.4,8.58,3.29,12.95Z"/><path class="cls-1" d="M735.48,179.86c-2.43-6.28-5.06-12.48-7.88-18.67.02,0,.03.01.05.02,1.18.44,2.38.89,3.6,1.35.18.07.38.13.56.19,1.37,2.08,2.63,4.23,3.77,6.45-.7.34-1.39.67-2.1.99-.88.4-.97,1.27-.63,1.95.35.67,1.08,1.19,1.97.81.71-.3,1.42-.62,2.13-.94.87,1.87,1.67,3.78,2.37,5.72.65,1.89,3.45.81,2.77-1.14-.72-1.99-1.54-3.94-2.43-5.86,1.5-.74,2.98-1.53,4.43-2.37.53-.3.74-.79.75-1.3.25.07.5.15.75.22.89.24,1.79.43,2.67.53-1.1,1.5-2.26,2.92-3.5,4.27-.66.71-.46,1.7.01,2.35.47.66,1.29.98,1.97.27,2.36-2.42,4.41-5,6.28-7.89.85-1.32-.73-3.32-2.04-2.68-1.97.94-4.77-.2-6.87-.76-2.16-.57-4.22-1.24-6.37-1.87-1.38-.42-2.74-.87-4.07-1.33-.05-.08-.11-.16-.16-.24.36-.19.72-.39,1.06-.57l7.1-3.85c.28,1.57.86,3.07,1.9,4.51,1.16,1.81,3.84.46,2.64-1.43-1.15-1.64-1.77-3.31-1.64-5.27.12-1.43-1.24-2.7-2.45-2l-5.45,3.12c-1.11.65-3.52,2.61-5.11,2.99-1.02-.6-2.32.11-2.32,1.18-1.3-.47-2.59-.95-3.84-1.45-1.04-.42-2.67.52-2.09,1.82,3.43,7.31,6.53,14.62,9.39,22.03.66,1.76,3.46.7,2.78-1.13ZM738.66,165.05c.87.28,1.85.62,2.88.96-1.08.64-2.17,1.25-3.28,1.84-.63-1.21-1.28-2.4-1.97-3.58.79.26,1.59.52,2.37.78Z"/><path class="cls-1" d="M728.33,150.58c.39-1.57-.7-3.83.05-5.16.96-1.67-1.64-3.72-2.58-1.99-.93,1.67-.56,2.9-.48,4.73.05,1.9-.62,2.74-2.3,3.38-2.07.79-1.03.45-1.74-.54-.64-.9-.94-2.86-1.23-3.91-.16-.58-.31-1.17-.45-1.77-.16-.58-.31-1.16-.44-1.75-.51-2.21-.97-4.8-.11-6.94.58-1.43,1.47-2.33,2.57-2.79.51-.22,1.07-.33,1.65-.37,3.22,3.53,6.32,7.18,9.25,10.96,1.29,1.73,3.75.01,2.41-1.78-2.03-2.62-4.14-5.17-6.31-7.67,1.53.85,2.95,1.95,3.95,3.13.66.75,1.83,2,2.8,3.33.92,1.36,1.67,2.78,1.59,3.78-.08.95-1.96,1.76-2.61,2.21-.99.67-2.01,1.31-3.03,1.95-1.63,1.02.24,3.64,1.86,2.7,2.2-1.32,6.95-2.95,6.96-6.3-.04-1.65-.86-3.53-1.94-5.31-1.07-1.79-2.54-3.37-3.64-4.61-1.19-1.36-2.73-2.54-4.37-3.48-1.64-.93-3.32-1.67-5.06-1.93-.22-.04-.43-.05-.65-.07-1.42-1.54-2.87-3.06-4.34-4.55-1.6-1.56-3.65.63-2.1,2.14.9.91,1.77,1.83,2.65,2.76-1.59.54-2.98,1.6-4,3.33-.81,1.37-1.14,2.9-1.19,4.46-.02.78.03,1.56.12,2.34.07.8.19,1.58.34,2.35.18.95.41,1.88.66,2.8.26.91.53,1.82.78,2.75.44,1.56.77,3.46,1.61,4.8,1.41,2.51,5.11,1.16,7.03-.09,1.05-.69,1.94-1.61,2.27-2.88Z"/><path class="cls-1" d="M725.79,139.16c-1.39.9-2.68,1.93-3.88,3.06-1.36,1.3.57,3.78,2.02,2.49,1.23-1.11,2.54-2.1,3.95-2.96.69-.42.65-1.6.13-2.26-.6-.79-1.54-.78-2.22-.34Z"/><path class="cls-1" d="M743.65,178.33c-1.96,1.13-3.86,2.35-5.7,3.66-.79.56-.71,1.43-.29,2.05.42.62,1.24.98,2.05.44,1.89-1.27,3.82-2.45,5.82-3.54,1.7-.92-.23-3.58-1.88-2.61Z"/><path class="cls-1" d="M716.62,126.99c-1.07-.39-2.1-.84-3.12-1.3,1.44-1.57,2.78-3.26,4.14-4.76,1.33-1.45-1.37-3.77-2.63-2.3-1.49,1.73-2.96,3.78-4.6,5.57-.53-.27-1.04-.56-1.56-.84.27.02.52-.04.75-.16.35,0,.7-.14,1-.46,1.79-1.98,4.99-4.83,2.04-7.62-1-.88-2.05-1.71-3.12-2.53-1.07-.82-2.14-1.63-3.24-2.38-1.86-1.29-3.9-3.33-6.09-3.96-.53-.17-1.25-.17-1.6.22-1.12,1.24-1.67,2.99-2.4,4.48-.55,1.14-1.05,2.01-.05,3.17,1.27,1.5,3.72,2.73,5.36,3.86,1.1.77,2.14,1.63,3.21,2.44.9.72,1.83,1.41,2.72,2.15-.78-.44-1.56-.89-2.36-1.31-1.88-1.05-3.7-2.18-5.63-3.12-1.91-.97-3.78-1.95-5.78-2.65-1.27-.48-2.51.95-1.82,2.09,4.56,7.55,9.38,14.37,14.76,20.83.21,1.06,2.01,1.66,2.91.5,2.49-3.27,5.15-6.34,8.04-9.25.85-.85.23-2.25-.92-2.67ZM704.17,116.21c-1.48-1.07-3.73-2.24-5.2-3.56.36-.98.9-2.16,1.46-3.01.95.58,1.88,1.44,2.69,2,1.38.97,2.77,1.93,4.07,3,.71.56,2.87,1.8,3.13,2.59.18.56-.82,1.73-1.58,2.56-1.51-1.21-3.05-2.38-4.57-3.58ZM704.32,124.19c1.28.7,2.52,1.44,3.8,2.14-.21.16-.41.33-.62.48-1.58,1.12.19,3.71,1.81,2.62.68-.44,1.31-.96,1.94-1.51.78.38,1.56.75,2.36,1.11-1.9,2.13-3.7,4.34-5.41,6.61-3.98-4.84-7.65-9.93-11.09-15.36.51.26,1.03.51,1.55.77,1.94.97,3.76,2.12,5.68,3.14Z"/><path class="cls-1" d="M685.85,105.43c-.07-.1-.15-.2-.23-.3.3-.73.6-1.47.91-2.2,2.01,1.34,3.96,2.77,5.81,4.31.85.66,1.82.53,2.4.04.57-.49.74-1.35-.12-2.06-2.2-1.82-4.52-3.52-6.93-5.1.13-.32.27-.64.4-.96.73-1.77-2.46-3.42-3.13-1.6-.09.23-.18.46-.26.69-1.15-.68-2.32-1.33-3.5-1.95-.43-.69-1.32-1.13-2.03-1.04-2-.98-4.05-1.89-6.13-2.7-2.11-.84-3.13,1.98-1.08,2.8,1.95.76,3.86,1.6,5.74,2.51-.03.11-.06.21-.09.32-.77-.42-1.56-.81-2.38-1.11-1.45-.54-2.95-.96-4.47-1.24-1.51-.31-3.05-.3-4.48-.18-1.44.13-2.81.45-4.04.95-2.5,1.07-4.47,2.92-5.61,5.51-.86,1.96-.75,4.41.16,6.19.93,1.75,2.59,3.02,5.2,2.51,1.92-.35,1.34-3.28-.61-2.94-2.91.53-2.47-3.39-1.7-4.88.89-1.68,2.3-3.03,4.15-3.75,1.69-.63,3.67-.86,5.61-.59,1.94.26,3.91.83,5.63,1.57.51.24,1.05.55,1.62.89-.65,1.95-1.36,3.89-2.12,5.8-.71,1.79,2.15,3.09,2.92,1.32.73-1.7,1.41-3.41,2.05-5.14.07.05.13.1.2.15.79.64,1.55,1.37,2.25,2.15-.97,2.49-1.96,4.98-2.95,7.45-.71,1.78,2,3.19,2.77,1.42.84-1.95,1.66-3.9,2.49-5.86.96,1.52,1.58,3.18,1.72,4.7.15,1.71-.31,3.32-1.57,4.7-1.29,1.44.82,3.54,2.14,2.18,1.93-2.01,2.63-4.52,2.35-7.04-.28-2.52-1.44-5.22-3.05-7.5ZM680.56,100.03c.07-.2.13-.4.19-.6.96.52,1.91,1.07,2.85,1.63-.15.39-.3.79-.45,1.18-.8-.8-1.66-1.55-2.58-2.22Z"/><path class="cls-1" d="M672.17,102.68c-.41-1.7-2.97-1.74-3.2-.02-.27,1.96-1.12,3.72-2.49,5.14-.89.91-2.68,1.53-3.03,2.83-.28,1.03.35,1.8,1.26,2.18,1.96.82,4.18,1.03,6.11,2.05,1.18.58,2.15-.52,2.06-1.55.25-.27.42-.63.43-1.08-.04-3.16-.36-6.43-1.14-9.55ZM668.02,110.56s.06-.04.09-.07c.69-.61,1.33-1.31,1.88-2.06.12.95.2,1.9.25,2.85-.53-.21-1.06-.41-1.61-.56-.2-.06-.4-.11-.6-.17Z"/><path class="cls-1" d="M651.58,100.58c.21-.09.42-.18.63-.28,2.9-1.48,3.91-3.73,3.85-6.34-.06-2.59-1.26-5.35-2.57-7.66-1.04-1.8-3.9-.26-2.86,1.52.95,1.66,2,3.8,2.15,5.72.15,1.92-.58,3.63-3.01,4.44-.14.04-.28.07-.42.11-.08-.08-.15-.17-.23-.25-.79-.85-1.92-2.11-3.2-3.18-1.28-1.06-2.72-1.94-4.05-1.8-1.34.17-2.67,1.25-3.77,1.79-1.1.55-2.22,1.03-3.34,1.5-.16-.07-.32-.14-.48-.21-1.51-.68-2.97-1.51-4.3-2.47-1.54-1.16-3.6-3.01-1.81-4.79,1.63-1.57,4.5-.98,6.54-.48,1.05.25,1.87-.27,2.18-.96.31-.69.09-1.55-.99-1.85-2.3-.55-5.45-.81-7.91-.05-2.47.79-4.2,2.41-3.86,5.28.29,2.5,2.31,4.4,4.7,5.9.64.42,1.31.81,1.99,1.16-.9.3-1.8.57-2.71.81-1.77.55-3.56.98-5.36,1.31-1.28.23-1.54,2.13-.39,2.73,4.3,2.21,9.44,1.91,14.07,2.57,5.57.64,11.05,1.8,16.48,3.12.45.13.84.05,1.14-.15,1.02-.02,2.02-1.06,1.34-2.19-1.12-1.88-2.41-3.62-3.82-5.29ZM639.76,97.23c.5-.25,1.01-.51,1.5-.79,1.03-.58.74-.41,1.68.02.93.43,1.87,1.38,2.68,2.21-.43.01-.86.01-1.29,0-.93-.05-1.86-.17-2.76-.35-.91-.16-1.81-.34-2.66-.59-.03,0-.07-.02-.1-.03.32-.15.64-.3.95-.46ZM646.26,103.62l-3.75-.66-1.87-.34-1.89-.25c-1.14-.15-2.38-.26-3.65-.38-1.27-.13-2.59-.13-3.89-.28-.78-.07-1.55-.18-2.31-.32.96-.26,1.92-.53,2.87-.86,1.01-.36,2.01-.73,3.01-1.12.46.18.91.35,1.32.52,1.22.46,2.53.84,3.9,1.11,1.37.25,2.76.55,4.17.62,1.43.06,2.85.02,4.22-.19.51.58,1,1.17,1.48,1.75.37.47.72.94,1.07,1.41-.31-.07-.63-.13-.94-.21-1.24-.27-2.47-.59-3.72-.82Z"/><path class="cls-1" d="M648.44,92.2l1.6-6.8c.45-1.88-3.08-2.51-3.47-.62l-1.43,6.83c-.38,1.89,2.85,2.47,3.3.59Z"/><path class="cls-1" d="M644.46,90.74c-.05-1.76,0-3.52.15-5.27.08-.95-.74-1.62-1.62-1.73-.88-.11-1.78.25-1.84,1.22-.12,2.02-.11,4.04,0,6.06.11,1.88,3.36,1.64,3.32-.28Z"/><path class="cls-1" d="M732.43,226.09h-6c0-57.78-47.01-104.79-104.79-104.79s-104.79,47.01-104.79,104.79h-6c0-61.09,49.7-110.79,110.79-110.79s110.79,49.7,110.79,110.79Z"/><path class="cls-1" d="M1208.43,224.38h-391.59c-17.5,0-32.23-14.84-36.17-26.4-4.42-25.08-14.65-48.19-29.25-67.87-3.78-8.67-.28-19.81,7.85-35.6-16.23,7.44-27.55,10.42-36.05,6.15-23.22-18.84-51.75-31.37-82.96-34.98-9.51-6.18-18.63-65.69-18.63-65.69,0,0-9.12,59.51-18.63,65.69-31.21,3.6-59.74,16.13-82.96,34.98-8.5,4.27-19.82,1.29-36.05-6.15,8.13,15.79,11.63,26.93,7.85,35.6-14.59,19.68-24.83,42.79-29.25,67.87-3.94,11.57-18.67,26.4-36.17,26.4H34.85c-24,0-34.85-20.68-34.85-20.68v7.7c16.34,13.28,14.3,29.96,14.3,29.96,0,0,13.62-7.66,27.91-7.66h553.62c9.19,0,25.81,16.51,25.81,31.49,0-14.98,16.62-31.49,25.81-31.49h553.62c14.3,0,27.91,7.66,27.91,7.66,0,0-2.04-16.68,14.3-29.96v-7.7s-10.85,20.68-34.85,20.68ZM621.64,249.45c0-6.81-11.13-15.74-11.13-15.74h22.26s-11.13,8.94-11.13,15.74ZM469.18,224.38c.92-83.3,68.95-150.78,152.46-150.78s151.54,67.48,152.46,150.78h-304.92Z"/><path class="cls-1" d="M621.64,92.43c0,7.32-14.57,25.36-30.92,28.43,16.34.85,30.92,70.3,30.92,70.3,0,0,14.57-69.45,30.91-70.3-16.34-3.06-30.91-21.11-30.91-28.43Z"/><path class="cls-1" d="M697.77,170.75c0,2.44,2.02,8.47,4.28,9.49-2.26.28-4.28,23.47-4.28,23.47,0,0-2.02-23.18-4.28-23.47,2.26-1.02,4.28-7.05,4.28-9.49Z"/><path class="cls-1" d="M682.57,181.43c-1.97,2.92-3.13,6.45-3.13,10.24,0,10.12,8.2,18.32,18.32,18.32s18.32-8.2,18.32-18.32c0-3.79-1.15-7.32-3.13-10.24,5.96,4.57,9.8,11.75,9.8,19.84,0,13.8-11.19,25-25,25-13.8,0-25-11.19-25-25,0-8.09,3.84-15.27,9.8-19.84Z"/><path class="cls-1" d="M1204.37,200.64v-1h-19.91v1s6.98.98,7.46,5.53v46.8c-.48,4.55-7.46,5.53-7.46,5.53v1h19.91v-1s-6.97-.98-7.46-5.53v-46.8c.48-4.55,7.46-5.53,7.46-5.53Z"/><path class="cls-1" d="M58.82,200.64v-1h-19.92v1s6.98.98,7.46,5.53v46.8c-.48,4.55-7.46,5.53-7.46,5.53v1h19.92v-1s-6.98-.98-7.46-5.53v-46.8c.48-4.55,7.46-5.53,7.46-5.53Z"/></g></svg>