<?xml version="1.0" encoding="UTF-8"?><svg id="Layer_1" xmlns="http://www.w3.org/2000/svg" viewBox="0 0 1303.53 180.49"><defs><style>.cls-1{fill:#fff;}</style></defs><g id="Divider_8"><path class="cls-1" d="M651.77,123.34H42.21c-14.3,0-27.91,7.66-27.91,7.66,0,0,2.04-16.68-14.3-29.96v-7.7s10.85,20.68,34.85,20.68h616.91v9.32Z"/><path class="cls-1" d="M723.24,87.06h-36s7.62,8.91,8.59,20.85c.64,7.83-1.88,17.98-7.64,24.23-9.05,9.81-22.02,15.96-36.42,15.96s-27.37-6.15-36.42-15.96c-5.76-6.25-8.28-16.39-7.64-24.23.97-11.94,8.59-20.85,8.59-20.85h-36v10h21.12c-.1.37-1.78,9.33-1.78,13.49,0,26.31,19.49,48.05,44.81,51.62,3.97,2.31,7.33,18.33,7.33,18.33,0,0,3.36-16.02,7.33-18.33,25.32-3.56,44.81-25.31,44.81-51.62,0-4.16-1.68-13.11-1.78-13.49h21.12v-10Z"/><path class="cls-1" d="M617.19,141.79h-93.36c-.96-6.19-6.3-10.92-12.75-10.92-1.47,0-2.88.25-4.2.7.4-.04.81-.06,1.22-.06,6.78,0,12.28,5.5,12.28,12.28s-5.5,12.28-12.28,12.28c-.41,0-.82-.02-1.22-.06,1.32.45,2.73.7,4.2.7,6.46,0,11.79-4.74,12.75-10.92h93.36v-4Z"/><path class="cls-1" d="M783.16,143.79c0-6.78,5.5-12.28,12.28-12.28.41,0,.82.02,1.22.06-1.32-.45-2.73-.7-4.2-.7-6.46,0-11.79,4.74-12.75,10.92h-93.36v4h93.36c.96,6.19,6.3,10.92,12.75,10.92,1.47,0,2.88-.25,4.2-.7-.4.04-.81.06-1.22.06-6.78,0-12.28-5.5-12.28-12.28Z"/><path class="cls-1" d="M488.9,73.45c.85-4.58,8.83-5.58,8.83-5.58v-3.06h-23.66v3.06s7.98,1,8.83,5.58v90.15c-.85,4.59-8.83,5.58-8.83,5.58v3.06h23.66v-3.06s-7.98-1-8.83-5.58v-90.16Z"/><path class="cls-1" d="M452.87,83.46c.85-4.59,8.83-5.58,8.83-5.58v-3.06h-23.66v3.06s7.98,1,8.83,5.58v70.16c-.85,4.58-8.83,5.58-8.83,5.58v3.06h23.66v-3.06s-7.98-1-8.83-5.58v-70.15Z"/><path class="cls-1" d="M416.83,93.46c.85-4.59,8.83-5.58,8.83-5.58v-3.06h-23.66v3.06s7.98,1,8.83,5.58v50.16c-.85,4.58-8.83,5.58-8.83,5.58v3.06h23.66v-3.06s-7.98-1-8.83-5.58v-50.15Z"/><path class="cls-1" d="M50.17,103.45c.85-4.58,8.83-5.58,8.83-5.58v-3.06h-23.66v3.06s7.98,1,8.83,5.58v30.15c-.85,4.59-8.83,5.58-8.83,5.58v3.06h23.66v-3.06s-7.98-1-8.83-5.58v-30.16Z"/><path class="cls-1" d="M1259.36,103.46c.85-4.59,8.83-5.58,8.83-5.58v-3.06h-23.66v3.06s7.98,1,8.83,5.58v30.16c-.85,4.58-8.83,5.58-8.83,5.58v3.06h23.66v-3.06s-7.98-1-8.83-5.58v-30.15Z"/><path class="cls-1" d="M651.77,123.34s595.26,0,609.55,0c14.3,0,27.91,7.66,27.91,7.66,0,0-2.04-16.68,14.3-29.96v-7.7s-10.85,20.68-34.85,20.68c-24,0-616.91,0-616.91,0v9.32Z"/><path class="cls-1" d="M650.25,15.02c-3.32-.14-6.66.03-9.95.48-.79.12-1.46.87-1.31,1.68.14.79.84,1.42,1.65,1.3,3.2-.44,6.44-.6,9.66-.46.77.02,1.5-.76,1.47-1.54-.04-.85-.66-1.44-1.51-1.46Z"/><path class="cls-1" d="M639.66,20.33c-.68.44-1.53.56-2.32.45-1.02-.11-1.99-1.14-3.02-.81-1.22.39-1.58,1.98-1.65,3.15-.03.43,0,.86.03,1.29-.87-.31-1.72-.69-2.54-1.21-1.35-.85-2.59-1.95-3.64-3.18-.95-1.13-2.95.13-2.45,1.48.38,1.05.99,1.89,1.68,2.75.51.62,1.16,1.28,1.38,2.08.22.8-.05,1.69-.12,2.48-.1,1.09,0,2.15.6,3.12.99,1.63,3.15.2,2.22-1.46-.34-.59-.11-1.4-.02-2.03.1-.68.18-1.38.12-2.07,1.42.73,2.89,1.25,4.39,1.54.89.2,1.56-.84,1.42-1.72-.14-.83-.4-1.95-.26-2.9.77.3,1.54.47,2.3.47,1.23.06,2.44-.26,3.62-1.04.64-.42.71-1.5.28-2.1-.5-.7-1.36-.71-2.02-.29Z"/><path class="cls-1" d="M619.86,21.93c-.71-.21-1.56-.26-2.37-.38,3.94-1.34,7.58-3.23,11.03-5.84,1.6-1.18-.52-3.35-2.15-2.16-3.82,2.97-8.21,4.93-12.82,6.08-1.22.27-1.72,1.4-1.05,2.42,1.49,2.25,4.18,2.27,6.46,2.71.24.05.49.11.72.2.1.04.2.09.29.14-.19.1-.39.23-.43.25-.33.19-.66.4-1,.57-1.3.7-2.71,1.15-4.06,1.73-1.33.58-2.69,1.12-4,1.74-1.22.6-2.59,1.55-3.91,1.9-.61.18-.84-.22-1.14-.74-.02-.03-.09-.2-.17-.35l.45-.28c1.34-.79,2.77-1.43,4.21-2.02,1.76-.65.51-3.37-1.31-2.7-1.11.46-2.21.95-3.28,1.51-.89.43-1.94.97-2.61,1.7-.22.24-.34.5-.43.76-.13.04-.26.08-.39.16-1.47.82-2.91,1.3-4.62,1.32-1.17.01-2.32.09-3.33.62,2.54-1.75,5.15-3.41,7.88-4.84,1.73-.94.32-3.59-1.49-2.61-3.83,2.01-7.43,4.43-10.93,6.98l-2.54,2.02-1.26,1.02-1.21,1.08-2.41,2.17-2.3,2.29c-.62.63-.58,1.38-.21,1.92-.05.07-.1.13-.14.2-.64,1.47-1.23,2.98-1.73,4.48-.49,1.51-.82,3.09-1.02,4.61-.16,1.18.11,2.31,1.29,2.88,1.23.58,2.77.29,4.03.17,2.61-.27,5.36-.6,7.4-2.06.8-.52,1.69-1.2,1.94-2.19.14-.54.06-1.16-.19-1.7-.33-.72-1.04-1.02-1.4-1.65-.01-.02-.02-.05-.03-.08.03,0,.06.02.09.02,2.85.66,6.08.27,8.62-.44.64-.19,1.22-.47,1.74-.81.54-.32,1-.73,1.39-1.2.78-.94,1.22-2.21,1.26-3.64.06-1.87-2.81-1.82-2.8.09.01,1.76-1.42,2.51-3.09,2.98-1.69.43-3.76.43-4.92.41-.3-.01-.78-.05-1.29-.13.7-.84,1.49-1.6,2.08-2.53.5-.83.95-1.94.72-2.97-.29-1.34-1.75-1.92-3.01-1.73-2.19.28-4.25,2.64-4.89,4.62-.49,1.65.1,2.96,1.15,3.89-.09.53-.1,1.07,0,1.58.14.7.46,1.35.95,1.89.17.19.42.45.65.63-.11.1-.21.21-.33.3-1.3,1.01-2.99,1.46-4.69,1.65-.99.11-1.98.18-2.96.26-.19.01-.4,0-.59.04-.03,0-.04,0-.07.01.1-.39.11-.89.18-1.25.21-1.15.56-2.23.91-3.35.16-.47.32-.94.49-1.42.91.95,1.73,1.97,2.45,3.11.52.81,1.4.86,2.01.5.62-.35,1.02-1.08.52-1.91-1.15-1.94-2.54-3.7-4.23-5.21l2.04-2.03,2.34-2.11,1.18-1.05,1.23-.99,2.47-1.96c.63-.46,1.26-.9,1.9-1.35-.56.53-.89,1.41-.33,2.06,2.24,2.61,5.4,3.62,8.55,4.02,1.6.22,3.22.4,4.81.55,1.62.18,3.19.29,4.68.27,1.51.03,3.02-.1,4.4-.53,1.42-.36,2.7-1.03,3.75-2.12,1.8-1.72,2.9-4.62,2.39-7.48-.05-.25-.14-.47-.26-.65,1.05-.58,2.03-1.34,2.16-2.56.23-1.98-1.77-3.05-3.38-3.48ZM589.94,39.39c-.17.25-.35.49-.54.71-.26.31-.54.61-.81.91.25-.48.64-.93,1.01-1.29.11-.11.23-.23.35-.33ZM618.35,31.87c-.35.91-.94,1.7-1.69,2.34-.96.81-2.13,1.18-3.34,1.43-1.21.24-2.5.25-3.77.16-1.21-.06-2.44-.15-3.7-.28l-1.9-.22c-.63-.07-1.25-.13-1.88-.2-1.72-.21-3.61-.59-5.16-1.53.75-.05,1.53,0,2.19-.09,1.39-.19,2.64-.71,3.85-1.35.19.29.39.56.59.8,1.23,1.43,2.87,1.71,4.42,1.01.95-.4,1.9-.84,2.83-1.31l1.39-.71c.48-.21.95-.42,1.42-.63.96-.4,1.93-.8,2.9-1.21.71-.27,1.41-.56,2.09-.87.14.95.04,1.86-.26,2.67Z"/><path class="cls-1" d="M612.64,26.68c1.71-.77.56-3.54-1.23-2.74-1.78.8-.48,3.51,1.23,2.74Z"/><path class="cls-1" d="M581.85,54.73c-2.12,1.71-4.25,3.43-6.43,5.15,0,0,0,0,0,0-.7-.75-1.49-1.41-2.33-2.03-1.13-.85-2.32-1.65-2.76-3.08-.34-1.09-2.01-1.18-2.61-.22-1.44,2.2-2.47,4.65-3.24,7.11-.52,1.93,2.37,2.66,2.9.81.44-1.39.98-2.77,1.63-4.1.5.51,1.07.97,1.65,1.39.74.53,1.58,1.04,2.29,1.66-.61,1.06-1.43,1.99-2.3,2.86-.61.59-1.16,1.21-1.74,1.83-.59.65-1.28,1.35-1.73,2.12-.49.94-.27,2.03.59,2.69.76.58,1.59,1.07,2.4,1.57,1.58.98,3.2,1.88,4.85,2.73,1.73.87,2.87-1.4,1.21-2.33-1.46-.81-2.89-1.66-4.29-2.57-.58-.38-1.16-.77-1.73-1.17.11-.13.22-.27.34-.4,1.58-1.84,3.38-3.41,4.68-5.37.34.03.69-.06,1-.3,1.29-.96,2.51-1.96,3.73-2.95.53-.4,1.04-.82,1.55-1.23.24-.01.47-.08.66-.23.63-.52,1.19-1.1,1.72-1.72.42-.52.4-1.31-.11-1.86-.46-.5-1.34-.77-1.9-.32ZM569.68,68.77s0,0,0,.01c-.02-.02-.02-.02,0-.01Z"/><path class="cls-1" d="M568.21,80.69c-3.32-2.02-3.15-6.5-4.51-9.78-.37-.94-1.36-1.11-2.1-.8.23-.45.45-.91.68-1.36.91-1.74-1.73-3.17-2.67-1.36-3.23,6.26-5.82,12.85-7.7,19.64-.46,1.58,1.4,2.47,2.49,1.48,1.85-1.62,3.69-3.29,5.89-4.33,2.16-1.06,4.45-1.56,6.95-1.04,1.44.29,2.19-1.7.97-2.46ZM559.31,81.37c-1.05.49-2.08,1.11-3.09,1.79,1.29-3.9,2.83-7.71,4.58-11.41.02.06.03.12.06.18,1.13,2.67,1.49,5.78,2.91,8.21-1.55.14-3.05.56-4.47,1.23Z"/><path class="cls-1" d="M566.35,88.18c-1.78-1.09-3.69-2-5.66-2.65-.75-.25-1.67.2-1.85.97-.19.79.23,1.59,1.04,1.83.46.14.92.29,1.37.45l.67.26.26.11.14.06c.88.39,1.73.82,2.55,1.3.67.39,1.67.2,2.04-.42.37-.64.16-1.46-.55-1.9Z"/><path class="cls-1" d="M563.51,94.93c-4.42-1.3-8.78-2.81-13.03-4.63-.75-.32-1.62-.15-2.05.68-.36.71-.18,1.85.59,2.15,4.57,1.8,9.23,3.28,13.96,4.51.79.2,1.59-.38,1.71-1.06.14-.77-.39-1.41-1.18-1.64Z"/><path class="cls-1" d="M562.58,109.49c-.22-.99-.39-1.99-.5-3.01-.06-.51-.1-1.02-.13-1.53-.01-.51,0-1.02.02-1.53.04-1.02.14-2.05.28-3.07.15-.79-.68-1.82-1.64-1.63-.96.21-1.46.69-2.02,1.43l-1.08,1.46c-.8-.24-1.81.1-1.96,1.16-.23,1.43-.36,2.88-.52,4.33-.07.72-.15,1.45-.19,2.18-.02.73-.03,1.45-.02,2.18,0,.73.21,1.39.81,1.84.56.42,1.28.5,1.97.6,1.48.22,2.96.29,4.46.21.89-.05,1.84-.83,1.49-1.71-.37-.95-.69-1.92-.96-2.91ZM557.95,111.05l-.12-.03s0-.06,0-.08l.03-.89c.03-1.16.19-2.32.27-3.47.06-.68.12-1.36.2-2.03.22,0,.43-.05.63-.16.03,2.35.36,4.69,1.04,6.92-.49-.03-.97-.07-1.45-.15l-.61-.11Z"/><path class="cls-1" d="M553.68,98.96l-3.81-.6c-1.91-.31-2.32,2.89-.4,3.12l2,.25c-.43,1.4-.77,2.83-.96,4.28-.15,1.05-.3,2.12-.38,3.18l-.14,3.2c-.07,2.01,2.93,1.98,3,.05l.12-2.91c.05-.97.2-1.93.33-2.89.15-.96.29-1.91.53-2.85.25-.93.55-1.85.9-2.75.35-.9-.21-1.94-1.19-2.09Z"/><path class="cls-1" d="M662.59,21.04c-3.13-.29-6.25-.55-9.39-.77-.75-.06-1.47.68-1.43,1.46.04.85.61,1.47,1.39,1.54,3.04.22,6.07.47,9.1.75.72.07,1.49-.49,1.57-1.31.07-.8-.43-1.58-1.23-1.67Z"/><path class="cls-1" d="M672.2,17.94c.72.67,1.36,1.44,1.88,2.23.87,1.35,1.44,2.87,1.68,4.5.22,1.46,2.4,1.39,2.75,0,.26-1.09.21-2.11.07-3.21-.11-.8-.35-1.71-.12-2.51.23-.8.97-1.4,1.5-2.02.72-.86,1.26-1.79,1.23-2.94-.06-1.93-3.29-2.03-3.16-.07.04.71-.62,1.24-1.05,1.75-.46.55-.88,1.14-1.17,1.78-1.04-1.3-2.32-2.48-3.81-3.41-.89-.52-2.04.19-2.2,1.07-.16.83-.32,1.97-.79,2.81-.66-.55-1.38-.99-2.17-1.27-1.25-.39-2.63-.39-4.03.06-.77.24-1.05,1.28-.75,1.97.35.81,1.17,1.03,1.92.79.78-.25,1.65-.16,2.39.16.95.46,1.52,1.76,2.57,1.8,1.25.05,2.22-1.32,2.76-2.33.2-.38.36-.78.5-1.18Z"/><path class="cls-1" d="M690.25,28.11c-1.7-.77-2.85,2-1.23,2.74,1.62.73,2.93-1.97,1.23-2.74Z"/><path class="cls-1" d="M724.75,54.21c.83-1.09.74-2.65.78-3.96.1-2.74-.3-5.65-1.95-8.04-.65-.86-1.51-1.85-2.59-2.13-.59-.15-1.23-.06-1.75.21-.69.37-.92,1.14-1.52,1.54-.02.02-.05.02-.07.03,0-.03.01-.06.01-.09.27-2.88-.81-6.42-2.55-8.92-.43-.64-.93-1.23-1.5-1.72-.58-.47-1.21-.85-1.88-1.13-1.34-.55-2.79-.7-4.26-.18-1.83.64-.46,3.29,1.33,2.75,1.7-.52,3.18.64,4.12,2.34.98,1.67,1.54,3.7,1.69,4.93.05.32.1.81.09,1.32-.95-.6-1.81-1.32-2.91-1.65-.95-.3-2.13-.48-3.05,0-1.19.63-1.39,2.2-1,3.32.72,1.87,2.99,3.35,4.98,3.65,1.58.27,2.84-.4,3.7-1.51.52.06,1.05.05,1.58-.07.7-.16,1.35-.5,1.87-1.01.19-.18.44-.43.61-.67.12.11.24.22.34.34,1.19,1.33,1.55,3.23,1.7,4.91.09.98.05,2-.02,3-.01.19-.05.4-.04.59,0,.03,0,.04,0,.07-.37-.15-.85-.22-1.18-.33-1.05-.35-2.15-.66-3.18-1.03-.45-.15-.88-.32-1.31-.48.96-.9,1.99-1.7,3.14-2.38.83-.49.9-1.38.55-2.04-.35-.65-1.16-1.02-1.97-.51-1.92,1.21-3.59,2.71-5.05,4.44l-1.89-1.7-2.14-1.77-1.06-.89-1.1-.84-2.19-1.7c-.56-.4-1.13-.8-1.69-1.21.61.31,1.5.3,1.97-.43,1.84-2.85,1.91-6.19.88-9.38-.53-1.57-1.15-3.23-1.91-4.83-.79-1.56-1.7-3.11-2.74-4.54-1.06-1.37-2.38-2.68-3.87-3.72-1.53-.97-3.25-1.68-5.06-1.85-3.11-.2-6.14,1.01-7.59,3.63-.13.23-.19.45-.2.66-1.27-.22-2.62-.19-3.43.68-1.33,1.45-.32,3.54.6,4.83.41.54.97,1.1,1.45,1.71-3.56-1.42-7.48-1.71-11.25-.83-1.72.42-.96,3.25.7,2.82,4.01-.88,8.41-.25,11.89,2.01.91.55,1.96.09,2.26-1.08.68-2.64-1.18-4.4-2.59-6.32-.15-.2-.31-.39-.44-.6-.06-.09-.09-.19-.14-.29.22.03.45.06.5.06.39.04.76.15,1.14.25,1.44.41,2.84.97,4.2,1.6,1.33.65,2.68,1.25,4,1.93,1.22.66,2.84,1.2,3.87,2.12.47.45.26.85-.02,1.38-.02.03-.12.18-.21.33l-.46-.24c-1.37-.68-2.71-1.4-4.01-2.22-1.61-.93-2.84,1.8-1.31,2.7.94.6,1.9,1.15,2.89,1.65.82.39,1.68,1.05,2.6,1.21.29.05.57.03.83-.04.09.09.18.17.31.24,1.39.74,2.28,1.93,2.91,3.36.45,1.01.84,2.04,1.63,2.75-2.25-1.59-4.53-3.14-6.91-4.54-1.5-.92-2.92,1.72-1.49,2.61,3.09,1.81,6,3.9,8.91,5.98l2.12,1.65,1.07.81,1.03.86,2.07,1.71,2,1.79c.54.48,1.25.36,1.78-.02.06.04.11.08.19.1,1.29.51,2.61,1.04,4,1.51,1.37.48,2.73.97,4.18,1.31,1.13.27,2.26.22,3.05-.82ZM711.44,42.71c-.12-.08-.24-.18-.35-.27.25.12.5.26.74.4.33.2.66.43.98.65-.49-.17-.98-.48-1.37-.77ZM700.16,32.82c.16-.3.31-.61.42-.9.67-1.75.02-3.34-1.5-4.41-.93-.62-1.93-1.14-2.93-1.67l-1.51-.77c-.51-.24-1.02-.47-1.53-.71-1.02-.48-2.04-1.01-3.08-1.47-.76-.31-1.53-.6-2.31-.86.56-.78,1.3-1.37,2.16-1.71.98-.4,2.11-.5,3.22-.26,1.42.3,2.74.95,3.83,1.89,1.1.94,2.03,2.07,2.8,3.2.73,1.12,1.37,2.32,1.96,3.51.29.6.57,1.19.83,1.79.25.62.48,1.23.7,1.85.61,1.68.98,3.54.65,5.31-.29-.67-.52-1.4-.87-1.93-.74-1.13-1.69-2.12-2.84-2.84Z"/><path class="cls-1" d="M729.46,66.57c-1.04-.9-1.97-1.86-2.87-2.85.67-.29,1.31-.65,1.92-1.03.77-.48,1.55-1.07,2.39-1.48.74.98,1.22,2.15,1.65,3.28.3.77.49,1.6.75,2.39.26.83.5,1.75.93,2.5.47.91,1.46,1.35,2.5,1.03.91-.28,1.8-.67,2.68-1.02,1.72-.7,3.42-1.46,5.08-2.3,1.73-.86.26-3.76-1.46-2.82-1.47.8-2.96,1.54-4.49,2.22-.64.29-1.28.56-1.93.83-.06-.17-.13-.34-.19-.51-.78-2.38-1.45-4.85-2.85-6.94.17-.32.22-.7.09-1.12-.56-1.61-1.15-3.25-1.86-4.84-.31-.66-.64-1.32-.97-1.98.03-.25,0-.51-.12-.75-.42-.82-.91-1.61-1.55-2.28-.52-.56-1.35-.72-1.97-.29-.56.38-.93,1.25-.54,1.89,1.49,2.5,2.69,5.13,3.66,7.81,0,0,0,0-.01.01-.94.41-1.81.95-2.67,1.54-1.17.81-2.32,1.65-3.74,1.7-1.08.05-1.76,1.54-1.16,2.27,1.44,1.7,2.91,3.36,4.64,4.85,1.26,1.2,3.43-.89,2.09-2.12ZM736.04,67.57s-.03,0,0,0c0,0,0,0,0,0Z"/><path class="cls-1" d="M738.23,91.39c.75-2.07,1.64-4.37,2.7-6.43,1.1-2.07,2.58-3.99,4.81-5.26,1.27-.72.33-3.02-1.08-2.74-3.75.68-6.96-2.58-10.32-3.33-1-.21-1.74.48-1.94,1.21-.2-.42-.4-.84-.61-1.26-.8-1.59-3.44-.16-2.67,1.36,2.64,5.28,4.73,10.83,6.23,16.53.36,1.3,2.4,1.19,2.89-.07ZM733.26,76.31c2.74.63,5.11,2.48,7.82,3.32-1.83,2-3.04,4.44-4.05,6.88-1.11-3.5-2.44-6.94-3.97-10.28.07.03.13.05.2.07Z"/><path class="cls-1" d="M741.02,87.59c.25.74,1.02,1.18,1.83.96.46-.12.93-.23,1.4-.33l.71-.13c.09-.01.18-.03.28-.04l.15-.02c.95-.12,1.91-.17,2.88-.15.79.02,1.54-.7,1.48-1.53-.05-.85-.69-1.54-1.53-1.54-2.08,0-4.17.35-6.17.95-.74.22-1.27,1.09-1.03,1.81Z"/><path class="cls-1" d="M751.02,94.13c-.16-.88-1-1.3-1.79-1.19-4.58.62-9.17,1.09-13.76,1.48-.8.07-1.53.55-1.59,1.3-.06.64.58,1.37,1.38,1.33,4.84-.28,9.71-.62,14.56-1.12.81-.08,1.34-1.02,1.2-1.79Z"/><path class="cls-1" d="M753.51,112.14c-.42-1.08-.79-2.15-1.12-3.24-.38-1.08-.7-2.17-.98-3.26-.14-.55-.26-1.09-.38-1.64-.13-.55-.26-1.1-.38-1.65-.23-1.1-.41-2.22-.53-3.34-.14-.88-1.3-1.66-2.13-1.13-.85.53-1.09,1.16-1.44,2.05l-.69,1.72c-.84-.02-1.72.56-1.6,1.58.19,1.38.2,2.78.28,4.18l.12,2.09c.01.7.04,1.39.08,2.09.04.7.28,1.32.9,1.75.58.4,1.31.48,2,.58,1.49.21,2.98.31,4.47.21.89-.05,1.79-.96,1.4-1.97ZM747.86,110.98l-.12-.02s0-.06,0-.08v-.91c0-1.19-.14-2.37-.19-3.56-.04-.7-.09-1.39-.15-2.08.2-.04.39-.13.56-.27.52,2.38,1.19,4.73,2.01,7.06-.5,0-.99-.02-1.49-.07l-.61-.08Z"/><path class="cls-1" d="M741.53,100.24l-3.82.58c-1.9.3-1.59,2.85.34,2.63l2.01-.24c-.09,1.29-.1,2.56-.14,3.85-.01.93.03,1.86.05,2.79v2.79c.03,1.73,3.04,1.76,3.01-.05l-.02-2.69-.05-2.69c0-.9.04-1.8.08-2.7.02-.9.09-1.8.21-2.71.12-.91-.67-1.7-1.66-1.55Z"/><path class="cls-1" d="M820.63,73.45c.85-4.58,8.83-5.58,8.83-5.58v-3.06h-23.66v3.06s7.98,1,8.83,5.58v90.15c-.85,4.59-8.83,5.58-8.83,5.58v3.06h23.66v-3.06s-7.98-1-8.83-5.58v-90.16Z"/><path class="cls-1" d="M856.67,83.45c.85-4.58,8.83-5.58,8.83-5.58v-3.06h-23.66v3.06s7.98,1,8.83,5.58v70.15c-.85,4.59-8.83,5.58-8.83,5.58v3.06h23.66v-3.06s-7.98-1-8.83-5.58v-70.16Z"/><path class="cls-1" d="M892.7,93.45c.85-4.58,8.83-5.58,8.83-5.58v-3.06h-23.66v3.06s7.98,1,8.83,5.58v50.15c-.85,4.58-8.83,5.58-8.83,5.58v3.06h23.66v-3.06s-7.98-1-8.83-5.58v-50.15Z"/><path class="cls-1" d="M653.49,72.68c.49-2.63,5.06-3.2,5.06-3.2v-1.76h-13.57v1.76s4.58.57,5.06,3.2v28.76c-.49,2.63-5.06,3.2-5.06,3.2v1.76h13.57v-1.76s-4.58-.57-5.06-3.2v-28.76Z"/><path class="cls-1" d="M679.56,110.07c3.3-5.14,5.22-11.25,5.22-17.81,0-18.24-14.78-33.02-33.02-33.02-18.24,0-33.02,14.78-33.02,33.02,0,6.56,1.92,12.67,5.22,17.81-5.31-6.31-8.52-14.46-8.52-23.36,0-20.06,16.26-36.31,36.31-36.31,20.06,0,36.31,16.26,36.31,36.31,0,8.9-3.21,17.05-8.52,23.36Z"/><path class="cls-1" d="M733.23,114.02h-8c0-40.51-32.96-73.47-73.47-73.47s-73.47,32.96-73.47,73.47h-8c0-44.92,36.55-81.47,81.47-81.47s81.47,36.55,81.47,81.47Z"/><path class="cls-1" d="M765.79,114.02h-4c0-60.67-49.36-110.02-110.02-110.02s-110.02,49.36-110.02,110.02h-4c0-62.87,51.15-114.02,114.02-114.02s114.02,51.15,114.02,114.02Z"/></g></svg>