<?xml version="1.0" encoding="UTF-8"?><svg id="Layer_1" xmlns="http://www.w3.org/2000/svg" viewBox="0 0 1223.02 206"><defs><style>.cls-1{fill:#fff;}</style></defs><g id="Divider_2"><path class="cls-1" d="M611.51,81.91c0-4.1,3.28-14.21,6.96-15.93-3.68-.48-6.96-39.39-6.96-39.39,0,0-3.28,38.91-6.96,39.39,3.68,1.72,6.96,11.83,6.96,15.93Z"/><path class="cls-1" d="M1214.26,93.51c3.07,0,6.01.52,8.76,1.46-.84-.08-1.69-.13-2.55-.13-14.16,0-25.64,11.48-25.64,25.64,0,14.16,11.48,25.64,25.64,25.64.86,0,1.71-.04,2.55-.13-2.75.94-5.69,1.46-8.76,1.46-14.9,0-26.98-12.08-26.98-26.98,0-14.9,12.08-26.98,26.98-26.98Z"/><path class="cls-1" d="M1085.51,70.76c5.66,0,11.08.96,16.15,2.7-1.55-.15-3.11-.23-4.7-.23-26.1,0-47.26,21.16-47.26,47.26,0,26.1,21.16,47.26,47.26,47.26,1.59,0,3.15-.08,4.7-.23-5.07,1.74-10.49,2.7-16.15,2.7-27.46,0-49.72-22.26-49.72-49.72,0-27.46,22.26-49.72,49.72-49.72Z"/><path class="cls-1" d="M625.71,4.61c0-1.61-.27-3.16-.77-4.61.04.44.07.89.07,1.34,0,7.45-6.04,13.49-13.49,13.49s-13.49-6.04-13.49-13.49c0-.45.02-.9.07-1.34-.5,1.45-.77,3-.77,4.61,0,7.84,6.36,14.19,14.19,14.19s14.19-6.36,14.19-14.19Z"/><path class="cls-1" d="M1191.62,114.49h-189.25c-11.02-1.18-19.6-10.5-19.6-21.83,0,11.33-8.58,20.65-19.6,21.83h-214.02v12h214.02c11.02,1.18,19.6,10.5,19.6,21.83,0-11.33,8.58-20.65,19.6-21.83h189.25v-12Z"/><path class="cls-1" d="M826.77,160.08h11.83s0-3.06,0-3.06c0,0-9.91-1.11-9.91-6.38,0-5.28-3.83-5.28-3.83,0s-9.91,6.38-9.91,6.38v3.06s6.55,0,11.83,0Z"/><rect class="cls-1" x="824.77" y="120.49" width="4" height="31.6"/><path class="cls-1" d="M826.77,80.89h11.83v3.06s-9.91,1.11-9.91,6.38c0,5.28-3.83,5.28-3.83,0s-9.91-6.38-9.91-6.38v-3.06s6.55,0,11.83,0Z"/><path class="cls-1" d="M866.36,120.49c0-5.28,0-11.83,0-11.83h-3.06s-1.11,9.91-6.38,9.91c-5.28,0-5.28,3.83,0,3.83s6.38,9.91,6.38,9.91h3.06s0-6.55,0-11.83Z"/><path class="cls-1" d="M787.17,120.49c0-5.28,0-11.83,0-11.83h3.06s1.11,9.91,6.38,9.91,5.28,3.83,0,3.83-6.38,9.91-6.38,9.91h-3.06s0-6.55,0-11.83Z"/><rect class="cls-1" x="824.77" y="88.89" width="4" height="31.6"/><path class="cls-1" d="M826.77,138.54c-9.95,0-18.05-8.1-18.05-18.05s8.1-18.05,18.05-18.05,18.05,8.1,18.05,18.05-8.1,18.05-18.05,18.05ZM826.77,106.43c-7.75,0-14.05,6.3-14.05,14.05s6.3,14.05,14.05,14.05,14.05-6.3,14.05-14.05-6.3-14.05-14.05-14.05Z"/><polygon class="cls-1" points="682.34 87.25 611.51 28.17 540.68 87.25 534.27 79.58 611.51 15.15 688.75 79.58 682.34 87.25"/><rect class="cls-1" x="705.3" y="96.21" width="6" height="50.47"/><rect class="cls-1" x="719.53" y="114.62" width="3.74" height="11.74" transform="translate(1442.81 240.97) rotate(-180)"/><rect class="cls-1" x="609.64" y="93.42" width="3.74" height="11.74" transform="translate(710.81 -512.21) rotate(90)"/><rect class="cls-1" x="609.64" y="135.81" width="3.74" height="11.74" transform="translate(469.83 753.19) rotate(-90)"/><path class="cls-1" d="M611.51,137.53c-9.4,0-17.04-7.65-17.04-17.04s7.65-17.04,17.04-17.04,17.04,7.65,17.04,17.04-7.65,17.04-17.04,17.04ZM611.51,107.44c-7.19,0-13.04,5.85-13.04,13.04s5.85,13.04,13.04,13.04,13.04-5.85,13.04-13.04-5.85-13.04-13.04-13.04Z"/><rect class="cls-1" x="609.51" y="85.13" width="4" height="70.72"/><path class="cls-1" d="M8.76,93.51c-3.07,0-6.01.52-8.76,1.46.84-.08,1.69-.13,2.55-.13,14.16,0,25.64,11.48,25.64,25.64,0,14.16-11.48,25.64-25.64,25.64-.86,0-1.71-.04-2.55-.13,2.75.94,5.69,1.46,8.76,1.46,14.9,0,26.98-12.08,26.98-26.98s-12.08-26.98-26.98-26.98Z"/><path class="cls-1" d="M137.51,70.76c-5.66,0-11.08.96-16.15,2.7,1.55-.15,3.11-.23,4.7-.23,26.1,0,47.26,21.16,47.26,47.26,0,26.1-21.16,47.26-47.26,47.26-1.59,0-3.15-.08-4.7-.23,5.07,1.74,10.49,2.7,16.15,2.7,27.46,0,49.72-22.26,49.72-49.72,0-27.46-22.26-49.72-49.72-49.72Z"/><path class="cls-1" d="M473.87,114.49h-214.02c-11.02-1.18-19.6-10.5-19.6-21.83,0,11.33-8.58,20.65-19.6,21.83H31.4v12h189.25c11.02,1.18,19.6,10.5,19.6,21.83,0-11.33,8.58-20.65,19.6-21.83h214.02v-12Z"/><path class="cls-1" d="M396.26,160.08c-5.28,0-11.83,0-11.83,0v-3.06s9.91-1.11,9.91-6.38c0-5.28,3.83-5.28,3.83,0,0,5.28,9.91,6.38,9.91,6.38v3.06s-6.55,0-11.83,0Z"/><rect class="cls-1" x="394.26" y="120.49" width="4" height="31.6"/><path class="cls-1" d="M396.26,80.89c-5.28,0-11.83,0-11.83,0v3.06s9.91,1.11,9.91,6.38,3.83,5.28,3.83,0c0-5.28,9.91-6.38,9.91-6.38v-3.06s-6.55,0-11.83,0Z"/><path class="cls-1" d="M356.66,120.49c0-5.28,0-11.83,0-11.83h3.06s1.11,9.91,6.38,9.91,5.28,3.83,0,3.83-6.38,9.91-6.38,9.91h-3.06s0-6.55,0-11.83Z"/><path class="cls-1" d="M435.85,120.49c0-5.28,0-11.83,0-11.83h-3.06s-1.11,9.91-6.38,9.91-5.28,3.83,0,3.83,6.38,9.91,6.38,9.91h3.06s0-6.55,0-11.83Z"/><rect class="cls-1" x="394.26" y="88.89" width="4" height="31.6"/><path class="cls-1" d="M396.26,138.54c-9.95,0-18.05-8.1-18.05-18.05s8.1-18.05,18.05-18.05,18.05,8.1,18.05,18.05-8.1,18.05-18.05,18.05ZM396.26,106.43c-7.75,0-14.05,6.3-14.05,14.05s6.3,14.05,14.05,14.05,14.05-6.3,14.05-14.05-6.3-14.05-14.05-14.05Z"/><rect class="cls-1" x="511.72" y="96.21" width="6" height="50.47"/><rect class="cls-1" x="499.74" y="114.62" width="3.74" height="11.74"/><rect class="cls-1" x="609.51" y="85.13" width="4" height="70.72"/><path class="cls-1" d="M721.4,117.49h-62.6c-2.96-.54-5.67-2.39-7.02-5.32-3.86-18.7-20.45-32.81-40.28-32.81s-36.42,14.11-40.28,32.81c-1.34,2.93-4.06,4.78-7.01,5.32h-62.6v6h62.6c2.96.54,5.67,2.38,7.01,5.32,3.86,18.7,20.45,32.81,40.28,32.81s36.42-14.1,40.28-32.81c1.34-2.93,4.06-4.78,7.01-5.32h62.6v-6ZM611.51,85.36c16.51,0,30.39,11.45,34.13,26.83.23,2.5-.51,4.69-2.43,5.3h-63.39c-1.93-.61-2.66-2.8-2.43-5.3,3.74-15.38,17.62-26.83,34.13-26.83ZM611.51,155.61c-16.51,0-30.39-11.45-34.13-26.83-.23-2.5.51-4.69,2.43-5.3h63.39c1.92.61,2.66,2.79,2.43,5.3-3.74,15.38-17.62,26.83-34.13,26.83Z"/><path class="cls-1" d="M642.17,182.34s-1,7.98-5.58,8.83h-50.16c-4.58-.85-5.58-8.83-5.58-8.83h-3.06v23.66h3.06s1-7.98,5.58-8.83h50.15c4.59.85,5.58,8.83,5.58,8.83h3.06v-23.66h-3.06Z"/><path class="cls-1" d="M752.29,124.37l4.81-3.89-4.81-3.89c-9.87-7.98-20.17-15.12-30.77-21.38-1.71-6.02,1.75-24.54,1.75-24.54,0,0-5.01,11.39-26.52,11.75-27.66-12.29-56.7-18.8-85.24-18.8s-57.58,6.51-85.24,18.8c-21.51-.36-26.52-11.75-26.52-11.75,0,0,3.46,18.52,1.75,24.54-10.6,6.26-20.9,13.39-30.77,21.38l-4.81,3.89,4.81,3.89c9.87,7.98,20.17,15.12,30.77,21.38,1.71,6.02-1.75,24.54-1.75,24.54,0,0,5.01-11.39,26.52-11.75,22.48,9.99,45.87,16.15,69.16,18.1,7.81,1.81,16.08,6.98,16.08,12.42,0-5.44,8.27-10.61,16.08-12.42,23.29-1.96,46.68-8.12,69.16-18.1,21.51.36,26.52,11.75,26.52,11.75,0,0-3.46-18.52-1.75-24.54,10.6-6.26,20.9-13.39,30.77-21.38ZM611.51,73.64c44.41,0,90.19,16.6,129.56,46.85-39.37,30.26-85.15,46.85-129.56,46.85s-90.19-16.6-129.56-46.85c39.37-30.26,85.15-46.85,129.56-46.85Z"/><path class="cls-1" d="M559.83,99.97c-.61.01-1.21,0-1.82.01-.03-1.65-.04-3.31.01-4.97.06-1.93-2.94-1.93-3,0-.05,1.66-.05,3.32-.01,4.98-.46,0-.92,0-1.39-.01-.06-2.45-.05-4.9.07-7.35.09-1.93-2.91-1.93-3,0-.12,2.43-.13,4.86-.07,7.29-.45-.01-.9-.01-1.35-.02-.32,0-1.1.06-1.28-.13-.25-.26-.2-1.4-.23-1.75-.11-1.69-.05-3.4.22-5.07.13-.8-.21-1.61-1.05-1.85-.72-.2-1.71.24-1.85,1.05-.31,1.86-.44,3.73-.33,5.61-.34-.2-.69-.38-1.07-.53-2.23-.87-4.8-.42-6.81.8-1.06.65-2.22,1.53-2.7,2.72-.6,1.5.14,3.02,1.64,3.55,1.32.47,2.83.64,4.21.84,1.49.22,2.98.38,4.48.48-.35,1-.86,1.97-1.35,2.9-.38.72-.18,1.63.54,2.05.68.4,1.68.18,2.05-.54,1.17-2.23,2.36-4.64,2.13-7.23.84.12,1.72.1,2.56.12.1,0,.2,0,.3,0,.1,1.82.24,3.63.44,5.44.09.8.62,1.5,1.5,1.5.74,0,1.59-.69,1.5-1.5-.2-1.79-.33-3.59-.44-5.39.45,0,.9,0,1.35,0,.08,1.71.2,3.42.37,5.13.08.81.63,1.5,1.5,1.5.75,0,1.58-.69,1.5-1.5-.17-1.71-.28-3.43-.37-5.14.57,0,1.15,0,1.72,0,1.93-.04,1.93-3.04,0-3ZM536.73,101.45c-.06-.02-.1-.03-.1-.03.03-.03.06-.01.1.03ZM536.98,101.83c0,.07-.16.24,0,0h0ZM538.74,101.9c-.49-.1-.97-.2-1.46-.31,0,0-.04-.01-.09-.02.07-.07.14-.13.2-.19.31-.29.56-.47.93-.7,1.35-.84,2.81-1.13,4.19-.68,1.17.38,2.14,1.33,2.36,2.68-.07-.01-.13-.03-.2-.03-2-.12-3.97-.36-5.94-.75Z"/><path class="cls-1" d="M559.12,132.56c-.2-.9-.32-1.94-.8-2.75-.94-1.59-2.96-1.51-4.57-1.53-2.07-.02-4.14.16-6.2.39-3.32.37-7.52.7-10.1,3.1-2.4,2.24-1.93,6.02.7,7.84,1.59,1.1,3.09-1.5,1.51-2.59-.59-.41-.9-1.2-.81-1.9.13-1,1.09-1.59,1.92-1.97,2.45-1.12,5.32-1.34,7.96-1.61,1.46-.14,2.93-.25,4.4-.27.73,0,1.48-.03,2.2.05.54.06.41.03.57.68.45,1.89.89,3.85.98,5.8-1.7-.97-3.78-1.36-5.71-1.45-3.17-.14-6.4.68-9.14,2.27-1.4.81-2.76,1.85-3.76,3.12-.96,1.23-1.81,3.18-.92,4.67.43.73,1.27,1.09,2.09.86.84-.23,1.37-1.02,1.96-1.6.61-.6,1.24-1.15,1.99-1.57.35-.2.71-.35,1.09-.48.22-.07.46-.11.68-.18.12-.04.32-.03.31-.07.32.25.7.89.89,1.15.29.38.56.78.82,1.18.53.83.93,1.75,1.48,2.56,1.09,1.6,2.85,1.97,4.65,2.21.59.08,1.34-.52,1.45-1.1.42-2.4.79-4.82,1.12-7.24.11-.81-.19-1.6-1.05-1.85-.7-.2-1.74.25-1.85,1.05-.27,1.97-.57,3.93-.9,5.89-.25-.08-.48-.18-.66-.33-.54-.44-.83-1.37-1.18-1.95-.49-.83-1.03-1.61-1.62-2.37-.48-.63-.98-1.38-1.64-1.83-.49-.33-1.09-.42-1.71-.38.8-.33,1.64-.58,2.5-.76,2.75-.58,7.45-.59,9.1,2.18.61,1.03,2.51.96,2.74-.36.36-2.08.3-4.11-.01-6.2-.14-.91-.32-1.8-.51-2.7Z"/><path class="cls-1" d="M563.61,137.4c-.03-.81-.67-1.5-1.5-1.5-.79,0-1.53.69-1.5,1.5.16,4.03.14,8.06-.09,12.08-.04.81.72,1.5,1.5,1.5.85,0,1.46-.69,1.5-1.5.22-4.02.25-8.06.09-12.08Z"/><path class="cls-1" d="M688.3,109.11c-3.36.02-6.72.04-10.09.07-.04-.59-.06-1.18-.08-1.77,1.26-.26,2.59-.94,3.53-1.61,1.38-.99,2.19-2.43,2.56-4.07.39-1.76.53-3.78-.5-5.36-.78-1.18-2.04-1.82-3.38-2.16.05-.86-.02-1.72-.25-2.54-.42-1.52-1.52-3.07-3.27-2.9-1.91.19-2.5,2.11-2.54,3.74-.02.92-.03,1.84-.04,2.77-.99,1.11-1.33,2.6-2.11,3.84-.37.59-.27,1.16.06,1.58-1.44.57-2.98.59-4.33-.37-1.49-1.07-2.16-3.19-1.54-4.91.68-1.92,2.69-3.11,4.67-3.11,1.93,0,1.93-3,0-3-2.98,0-5.97,1.72-7.22,4.48-1.23,2.71-.65,5.94,1.38,8.12,2.24,2.4,5.74,2.57,8.61,1.33.13-.05.25-.13.37-.18,0,.41-.01.83-.01,1.24,0,1,.35,1.89.98,2.48.02.81.06,1.62.12,2.43-1.44,0-2.88.02-4.31.03-1.93.01-1.93,3.01,0,3,5.25-.03,10.49-.07,15.73-.1.31.13.65.17,1,.11.35-.06.71-.12,1.06-.18,1.69-.29,1.26-2.96-.4-2.95ZM677.35,93.89s-.06,0-.08,0c.02-.24.04-.49.05-.75.03.25.04.49.03.74ZM679.67,97.11c.19.06.38.11.56.19.88.36,1.26,1,1.29,1.93.02.92-.15,1.96-.52,2.81-.45,1.04-1.32,1.56-2.32,1.99-.18.08-.37.13-.56.19,0-.27,0-.55,0-.82.02-.61-.42-1.19-.98-1.41,0-.36.01-.72.02-1.08,1.08-1.08,1.95-2.37,2.51-3.79Z"/><path class="cls-1" d="M687.39,134.7c-1.01-1.64-3.61-.14-2.59,1.51.94,1.52,1.4,3.55,1.02,5.32-.2.92-.61,1.69-1.37,2.27-.3.22-.8.4-1.1.65-.09-.06-.18-.13-.27-.19-.23-.16-.46-.3-.71-.43-1.16-.57-2.28-.73-3.36-.64.37-.32.73-.65,1.11-.96.39-.02.77-.17,1.03-.43.2-.2.31-.42.38-.66.65-.51,1.29-1.02,1.96-1.5.66-.47.97-1.31.54-2.05-.38-.65-1.39-1.01-2.05-.54-.37.27-.72.56-1.09.83-.03-.21-.06-.41-.11-.61-.31-1.18-1.15-2.23-2.37-2.55-2.58-.69-4.63,2.2-6.49,3.5-.9.63-1.95,1.28-3.09,1.31-.45.01-1-.09-1.23-.25-.22-.15-.32-.28-.35-.63-.1-.97.54-2.12,1.12-2.86.59-.76,1.35-1.34,2.2-1.78,2.45-1.28,5.24-1.12,7.74-.12.75.3,1.65-.33,1.85-1.05.23-.86-.29-1.54-1.05-1.85-5.13-2.05-11.9-.51-14.23,4.89-.62,1.42-.93,3.07-.2,4.51.61,1.2,1.86,1.86,3.15,2.05,3.19.48,5.84-1.7,8.1-3.64.52-.45,1.03-.81,1.6-1.18.02-.01-.08-.02-.18-.03.07,0,.16,0,.32,0-.17,0-.04-.13.05.05.02.03.1.22.13.3.2.6.19,1.27.3,1.88,0,.04.02.09.03.13-3.24,2.66-6.26,5.58-9.05,8.71-1.09,1.23.3,3.28,1.82,2.36,2.28-1.39,4.25-3.48,6.75-4.47,1-.4,2.15-.6,3.17-.17.63.27,1.09.81,1.76,1.02.71.23,1.4.07,2.05-.27,2.21-1.12,3.79-2.93,4.15-5.43.35-2.4-.14-4.99-1.42-7.06Z"/></g></svg>