<?xml version="1.0" encoding="UTF-8"?><svg id="Layer_1" xmlns="http://www.w3.org/2000/svg" viewBox="0 0 1241.91 198.45"><defs><style>.cls-1{fill:#fff;}</style></defs><g id="Divider_5"><path class="cls-1" d="M425.11,86.66c-2.8,0-5.49.47-8,1.34.77-.08,1.54-.12,2.33-.12,12.93,0,23.41,10.48,23.41,23.41,0,12.93-10.48,23.41-23.41,23.41-.79,0-1.56-.04-2.33-.12,2.51.86,5.2,1.34,8,1.34,13.6,0,24.63-11.03,24.63-24.63,0-13.6-11.03-24.63-24.63-24.63Z"/><path class="cls-1" d="M565.65,106.53c0-2.8-.47-5.49-1.34-8,.08.77.12,1.54.12,2.33,0,12.93-10.48,23.41-23.41,23.41-12.93,0-23.41-10.48-23.41-23.41,0-.79.04-1.56.12-2.33-.86,2.51-1.34,5.2-1.34,8,0,13.6,11.03,24.63,24.63,24.63,13.6,0,24.63-11.03,24.63-24.63Z"/><path class="cls-1" d="M605.2,55.88c-.75-.75-1.59-1.34-2.49-1.78.22.18.44.38.65.59,3.45,3.45,3.45,9.05,0,12.51s-9.05,3.45-12.51,0c-.21-.21-.41-.43-.59-.65.44.9,1.03,1.75,1.78,2.49,3.63,3.63,9.53,3.63,13.16,0s3.63-9.53,0-13.16Z"/><path class="cls-1" d="M620.96,164.4l-77.98-93.42h155.96l-77.98,93.42ZM555.15,76.68l65.81,78.84,65.81-78.84h-131.61Z"/><path class="cls-1" d="M516.78,77.15s-.98,6.97-5.53,7.46h-46.8c-4.55-.48-5.53-7.46-5.53-7.46h-1v19.91h1s.98-6.98,5.53-7.46h46.8c4.55.48,5.53,7.46,5.53,7.46h1v-19.91h-1Z"/><path class="cls-1" d="M649.89,79.62s-.98,6.98-5.54,7.46h-46.79c-4.55-.48-5.54-7.46-5.54-7.46h-1v19.91h1s.98-6.97,5.53-7.46h46.8c4.55.48,5.53,7.46,5.53,7.46h1v-19.91h-1Z"/><path class="cls-1" d="M31.31,96.86c-.82-1.22-1.94-2.14-3.37-2.54-.73-.2-1.49-.28-2.26-.32.67-1.04,1.26-2.12,1.74-3.29.48-1.16.93-2.36.49-3.61-.4-1.12-1.35-1.93-2.44-2.34-2.44-.93-5.26.53-7.56,1.31-1.82.62-1.04,3.52.8,2.89,1.1-.38,2.2-.77,3.31-1.13.76-.24,1.74-.59,2.52-.23.9.41.45,1.16.16,1.88-.38.96-.87,1.89-1.42,2.77-.36.58-.78,1.14-1.21,1.69-1.47-.03-2.94-.06-4.41-.09-1.51-.03-4.01-.52-4.45,1.48-.21.94.32,1.88,1.15,2.32.64.34,1.36.31,1.94.79.79.66,1.09,1.64,1.15,2.64-.17.7-.25,1.44-.19,2.23.06.74.53,1.38,1.3,1.47.68.08,1.51-.33,1.65-1.07.12-.69.2-1.39.22-2.08.46-1.74,1.75-3.19,2.93-4.55.03-.04.06-.08.1-.12.83.01,1.66.03,2.49.08,1.29.07,2.28.51,2.95,1.64.33.56.55,1.15.74,1.76.06.21.14.44.21.67-.2,0-.41,0-.61,0-.05,0-.16-.01-.27-.02.13-1.08-1-2.28-2.22-1.55-1.34.79-1.48,2.7-.35,3.76,1.15,1.07,3.15.88,4.6.81.85-.04,1.6-.39,1.93-1.22.31-.78.03-1.64-.17-2.41-.32-1.25-.74-2.53-1.47-3.61ZM18.94,96.88c.24,0,.48,0,.72.01-.12.16-.24.31-.36.47-.11-.17-.24-.33-.37-.48Z"/><path class="cls-1" d="M33.2,92.66c.31.21.81.25,1.16.15.35-.1.72-.36.9-.69.18-.35.28-.77.15-1.16l-.15-.36c-.13-.23-.31-.4-.54-.54-.16-.11-.32-.23-.48-.35-.69-.55-1.34-1.14-1.94-1.8-.25-.28-.69-.44-1.06-.44s-.81.16-1.06.44c-.26.29-.46.66-.44,1.06.02.41.16.76.44,1.06.9.99,1.93,1.86,3.03,2.62Z"/><path class="cls-1" d="M40.98,92.3c.81-.26,1.22-1.02,1.05-1.85-.02-.11-.04-.23-.06-.34-.06-.53-.06-1.05-.03-1.58.18.09.35.19.53.28.65.33,1.29.66,1.94,1,.7.36,1.66.2,2.05-.54.36-.69.21-1.67-.54-2.05l-2.35-1.2c-.4-.21-.81-.41-1.21-.62-.25-.13-.51-.27-.79-.34-.48-.13-1.01-.04-1.43.21-1.01.62-1.13,2.08-1.22,3.15-.08.95.01,1.91.21,2.84.16.77,1.11,1.29,1.85,1.05Z"/><path class="cls-1" d="M45.96,97.91c-.77-.45-1.56-.11-2.05.54-.84,1.11-1.8,2.15-2.81,3.11-.18-.15-.37-.31-.55-.46-.63-.52-1.27-1.05-1.9-1.57-.5-.41-1-.83-1.5-1.24.83.11,1.72.11,2.4-.27,1.37-.79.92-2.62-.27-3.3-1.87-1.08-4.6-.79-5.74,1.17-.55.94-.55,2.1,0,3.04.51.85,1.44,1.45,2.19,2.07.82.68,1.64,1.35,2.45,2.03.84.69,1.79,1.8,2.94,1.85,1.22.05,2.27-1.32,3.04-2.13.84-.88,1.6-1.82,2.34-2.78.49-.65.1-1.68-.54-2.05ZM36.23,97.22s0,0,0,0h0s0,0,0,0ZM38.26,95.32c.17-.04.29-.01,0,0h0Z"/><path class="cls-1" d="M48.69,94.16c.79.18,1.62-.24,1.85-1.05.17-.62.34-1.23.51-1.85.02.1.05.21.07.31.05.35.4.73.69.9.32.19.8.27,1.16.15.36-.12.71-.34.9-.69.2-.38.21-.73.15-1.16-.13-.86-.46-1.72-.92-2.46-.26-.41-.56-.81-.9-1.16-.62-.65-1.56-.92-2.38-.44-.99.58-1.14,1.88-1.42,2.88-.25.91-.5,1.81-.75,2.72-.21.76.26,1.67,1.05,1.85Z"/><path class="cls-1" d="M61.28,96.58c.13-1.43.37-2.72.97-4.05.61-1.38,1.41-2.67,2.2-3.95.59-.96-.17-2.28-1.3-2.26-2.36.06-4.71.11-7.07.17-1.93.05-1.93,3.05,0,3,1.47-.04,2.94-.07,4.4-.11-.94,1.69-1.73,3.47-2.04,5.38-.05.33-.1.66-.12.99,0,.03,0,.05,0,.08-.57-.05-1.18.03-1.72.11-1.33.19-2.6.7-3.7,1.47-.84.59-.96,1.57-.3,2.36.4.49.74,1.01,1.04,1.57-.12-.11-.23-.22-.35-.33-.48-.45-.94-.92-1.39-1.39-1.8-1.89-3.38-3.95-4.76-6.16-1.02-1.63-3.62-.13-2.59,1.51,1.06,1.69,2.24,3.31,3.52,4.84,1.22,1.47,2.56,3.05,4.12,4.18,1.42,1.02,3.63,1,4.53-.71.67-1.28.04-2.79-.8-4.06.69-.26,1.42-.4,2.2-.38,1.64.04,3.01-.39,3.18-2.25ZM53.94,102c.02.05.04.09.03.09-.06,0-.06-.04-.03-.09Z"/><path class="cls-1" d="M67.12,95.91c-.79.26-1.18.98-1.05,1.77,0,0,0,.02,0,.02-.06-.28-.02-.1,0,.02,0,.01,0,.01,0,.03,0,0,0,0,0,0,0,.02-.02.04-.03.06,0,0,0,0,0,0-.02.02-.03.03-.05.05,0,0-.01,0-.02.01,0,0-.01,0-.02,0-.03,0-.06,0-.09,0-.05,0-.09,0-.11,0-.02,0-.03,0-.05-.01-.14-.03-.28-.06-.42-.1-.23-.06-.47-.12-.7-.17-.51-.09-1.02-.14-1.53-.07-2.16.26-3.89,1.59-4.69,3.6-.29.73.32,1.68,1.05,1.85.87.2,1.53-.27,1.85-1.05-.14.36-.01.04.03-.04.05-.1.11-.19.16-.28.03-.05.06-.09.09-.13.06-.09.04-.06-.07.09.03-.08.16-.18.22-.24.08-.08.16-.15.24-.22.01-.01,0,0,.01-.02.16-.11.32-.21.49-.31.03-.02.06-.03.09-.04.08-.02.22-.09.26-.1.1-.03.21-.06.31-.09.03,0,.06-.02.09-.03.16-.04.37-.02.53-.02.04,0,.23.03.25.03.08.02.17.04.19.04.61.15,1.24.33,1.87.31.68-.02,1.29-.24,1.82-.66,1.02-.78,1.43-2.04,1.17-3.28-.16-.77-1.11-1.29-1.85-1.05ZM65.99,97.87s0,0,0,0c0,0,0,0,0,0,0,0,0,0,0,0,0,0,0,0,0,0ZM66,97.85s0,0,0,0c0,0,0,0,0,0,0,0,0,0,0,0ZM65.94,97.94s.02-.03.03-.04h0,0s0,0,0,0c0,0,0,0,.01,0-.02.03-.03.05-.05.06Z"/><path class="cls-1" d="M68.76,91.67c1.5-.57,2.94-1.26,4.29-2.12.3-.19.6-.4.9-.6.13-.09.27-.19.4-.27.03-.02.09-.07.17-.12.15.48.51.88,1.02,1,.78.18,1.64-.23,1.85-1.05.34-1.32-.49-2.51-1.72-2.95-1.04-.37-2.15.06-3.02.66-.75.51-1.49,1.01-2.28,1.44-.42.23-.85.45-1.29.65-.1.05-.21.1-.31.14-.02,0-.14.06-.2.09-.07.03-.18.07-.2.08-.13.05-.26.1-.39.15-.73.28-1.31,1.02-1.05,1.85.23.71,1.06,1.35,1.85,1.05ZM74.97,88.4s-.08.01-.12.02c.05-.02.11-.03.12-.02ZM74.73,88.4s0,0,0,0c-.16-.11-.03-.02,0,0Z"/><path class="cls-1" d="M79.72,94.64c.12-.07.24-.15.36-.21-.01,0,.15-.07.21-.1.08-.03.3-.1.34-.11.18-.05.36-.09.55-.12.02.32.15.62.41.89.52.52,1.62.64,2.12,0,.08-.1.17-.2.27-.29.03-.01.13-.08.17-.1.04-.02.06-.03.07-.03-.1,0,.22,0,.26,0,.74.02,1.39-.59,1.47-1.3.09-.8-.36-1.35-1.07-1.65-1.92-.79-4.16-.78-6.05.09-.96.44-2.06,1.3-2.41,2.33-.51,1.49.63,2.53,1.76,3.25.49.31.99.62,1.49.92.03.02.05.03.08.05-.33.08-.65.18-.97.35-.49.26-.88.69-1.15,1.17-.04.07-.07.15-.1.23-.25-.25-.31-.34-.56-.74-.14-.23-.27-.47-.39-.71-.02-.03-.07-.14-.08-.18-.05-.12-.09-.24-.14-.36-.17-.48-.3-.97-.4-1.47-.03-.15-.06-.3-.08-.46,0-.03-.03-.22-.04-.28-.03-.24-.05-.47-.07-.71-.04-.56-.06-1.13-.06-1.69,0-.81-.69-1.5-1.5-1.5s-1.5.69-1.5,1.5c0,2.21.26,4.43,1.18,6.46.83,1.83,3.49,5.1,5.56,2.82.3-.34.46-.72.65-1.12.04-.09.09-.18.13-.27.01-.03.02-.03.03-.05-.01,0-.02.02-.04.02.01,0,.03-.01.04-.02,0,0,.01-.02.01-.03,0,0,.02,0,.02,0,0,0,0,0,.01-.01,0,0,0,0,0,0,0,0,0,0,0,.01.06-.02.11-.03.17-.05.54-.14,1.06-.2,1.57-.44.58-.28,1.08-.73,1.37-1.31.41-.83.28-1.77-.31-2.47-.42-.5-1.03-.79-1.58-1.12-.56-.33-1.11-.67-1.66-1.02-.07-.04-.13-.08-.2-.13,0,0,0,0,.01-.01.02-.01.03-.02.06-.04ZM77.2,100.65c-.03.06-.05.11-.05.14,0-.06.02-.11.05-.14ZM78.03,100.48s0,0,.01,0c0,.01.03.04-.01,0ZM80.3,101.2s0-.01-.03,0c.02-.03.03-.03.03,0,0,0,0,0,0,0ZM79.09,94.27s.08.04.09.1c-.06-.05-.11-.1-.09-.1Z"/><path class="cls-1" d="M80.25,101.25s0,0,0,0c.02-.01.04-.02.05-.04,0,0,0,0,0,0-.01.01-.02.02-.04.03Z"/><path class="cls-1" d="M84.27,94.56s-.05,0-.07,0c0,0,0,0-.04.02-.08.04-.05.04.11-.02Z"/><path class="cls-1" d="M86.59,99.32c-.14-.15-.3-.25-.48-.31-.18-.09-.37-.14-.58-.13-.13.02-.27.04-.4.05-.25.07-.47.2-.66.39-.08.1-.16.2-.23.3-.14.23-.2.49-.2.76v1.36c0,.21.04.4.13.58.06.19.16.35.31.48.14.15.3.25.48.31.18.09.37.14.58.13.13-.02.27-.04.4-.05.25-.07.47-.2.66-.39.08-.1.16-.2.23-.3.14-.23.2-.49.2-.76v-1.36c0-.21-.04-.4-.13-.58-.06-.19-.16-.35-.31-.48Z"/><path class="cls-1" d="M95.16,96.99c-.81.08-1.63.19-2.45.28.16-.31.31-.63.42-.96.39-1.15.25-2.41-.44-3.41-.58-.86-1.42-1.42-2.17-2.12-.78-.74-1.19-1.65-1.36-2.7-.13-.8-1.13-1.25-1.85-1.05-.85.23-1.17,1.04-1.05,1.85.26,1.62,1.11,3.13,2.34,4.22.49.44,1.07.82,1.49,1.34.27.33.3.62.13,1.08-.51,1.33-2.53,3.22-.85,4.53.79.62,1.9.32,2.82.23.46-.04.91-.09,1.37-.13-.02.7-.03,1.41,0,2.11.08,1.92,3.08,1.93,3,0-.05-1.26-.02-2.51.09-3.76.07-.76-.74-1.57-1.5-1.5Z"/><path class="cls-1" d="M104.18,85.04c-2.45-1.36-5.29-1.63-8.04-1.65-1.93-.02-1.93,2.95,0,3,.6.02,1.18.09,1.75.21-.98,1.2-2.12,2.27-3.39,3.16-.66.46-.97,1.31-.54,2.05.38.66,1.39,1.01,2.05.54,2.08-1.46,3.83-3.24,5.28-5.31.4.14.8.29,1.18.49,1.73.91,2.74,2.23,3.16,4.13.36,1.62.8,3.62-.89,4.63-.82.49-1.75.69-2.67.89-1.19.25-2.31.52-3.43.99-.75.32-.91,1.42-.54,2.05.45.77,1.3.85,2.05.54,1.25-.53,2.66-.61,3.96-.98,1.14-.32,2.24-.83,3.13-1.62,2.13-1.9,1.83-4.77,1.28-7.29-.56-2.53-2.07-4.56-4.34-5.82Z"/><path class="cls-1" d="M103.48,93.7s.02-.03.02-.05c.19-.34.26-.77.15-1.16-.05-.2-.14-.37-.27-.51-.11-.16-.25-.29-.42-.39-.35-.18-.77-.28-1.16-.15-.37.12-.7.34-.9.69-.14.25-.26.53-.35.8-.06.16-.1.32-.13.48-.05.28-.09.58-.09.87,0,.29.05.59.09.88.05.2.14.37.27.51.11.16.25.29.42.39.17.11.36.17.56.18.2.04.4.04.6-.03.36-.12.71-.34.9-.69.05-.12.1-.24.15-.36.05-.17.05-.34.04-.51-.02-.18-.01-.37,0-.55.03-.14.06-.27.11-.4Z"/><path class="cls-1" d="M119.41,90.83c2.75.55,5.49,1.38,8.33,1.13.81-.07,1.5-.64,1.5-1.5,0-.76-.69-1.57-1.5-1.5-2.79.25-5.43-.66-8.14-1.14-2.89-.51-5.77-.41-8.68-.23-1.19.07-1.79,1.2-1.3,2.26.7,1.48,1.89,2.7,3.34,3.45.51.26,1,.22,1.4,0-.01.16,0,.33.05.5.18.59.34,1.2.46,1.81.03.14.05.28.08.42.02.09.03.19.05.28,0,.07.01.1.02.12,0,.02,0,.02,0,.05.01.09.02.19.03.29.01.14.03.29.04.43.05.62.06,1.24.04,1.86,0,.29-.03.57-.05.86-.01.14-.03.29-.04.43,0,.06-.02.13-.02.19,0,.02,0,.06-.02.12-.12.77.19,1.65,1.05,1.85.71.16,1.72-.22,1.85-1.05.43-2.84.27-5.71-.58-8.45-.23-.75-1.06-1.3-1.85-1.05-.08.03-.16.06-.24.1.06-.51-.13-1.03-.74-1.34-.15-.08-.29-.17-.42-.26,1.79-.04,3.58.03,5.36.38Z"/><path class="cls-1" d="M141.05,90.14c-.45-1.49-1.41-2.88-2.8-3.63-1.54-.83-3.4-.84-4.8.27-1.43,1.14-1.86,3.2-.77,4.73.57.8,1.4,1.28,2.37,1.43.5.07,1.02,0,1.51.1.05,0,.08.01.11.02-.12.83.52,1.53,1.26,1.69-.08.19-.15.38-.25.55-.62,1.09-1.78,1.44-2.93,1.73-.78.19-1.57.35-2.37.47-.21.03-.68.17-.88.09.19.08-.31-.51-.35-.56-.46-.62-.92-1.23-1.38-1.85-.5-.67-.96-1.4-1.67-1.87-.78-.51-1.79-.62-2.6-.11-.08.05-.13.12-.2.18-.85-.21-1.92.25-1.94,1.39-.04,2.24.25,4.48.84,6.63.45,1.63,2.95,1.31,2.95-.4,0-.97.01-1.94.04-2.91.01-.38.05-.84.09-1.28.54.73,1.08,1.46,1.63,2.18.58.76,1.17,1.39,2.15,1.54.94.15,1.99-.11,2.91-.28,1.55-.28,3.23-.64,4.55-1.55,2.58-1.78,3.39-5.67,2.52-8.57ZM135.51,90c-.29-.07-.51-.22-.46-.52.14-.87,1.46-.58,1.98-.21.37.27.65.63.86,1.03-.07-.03-.14-.07-.22-.1-.71-.23-1.46-.05-2.17-.21Z"/><path class="cls-1" d="M142.25,98.47c-.14-.15-.3-.25-.48-.31-.18-.09-.37-.14-.58-.13-.39.02-.79.14-1.06.44-.27.29-.44.65-.44,1.06v1.87c0,.38.17.79.44,1.06.14.15.3.25.48.31.18.09.37.14.58.13.39-.02.79-.14,1.06-.44.27-.29.44-.65.44-1.06v-1.87c0-.38-.17-.79-.44-1.06Z"/><path class="cls-1" d="M391.85,114.85c-4.42-4.39-16.42-14.62-32.35-14.62s-27.93,10.22-32.35,14.62l-4.23-4.25c4.95-4.92,18.41-16.36,36.58-16.36s31.64,11.44,36.58,16.36l-4.23,4.25Z"/><path class="cls-1" d="M359.5,131.21c-18.17,0-31.64-11.44-36.58-16.36l4.23-4.25c4.42,4.39,16.42,14.62,32.35,14.62s27.93-10.22,32.35-14.62l4.23,4.25c-4.95,4.92-18.41,16.36-36.58,16.36Z"/><path class="cls-1" d="M541.02,77.7c0,9.83,3.92,20.83,9.96,20.83-6.04,0-9.96,8.02-9.96,13.51,0-5.49-3.92-13.51-9.96-13.51,6.04,0,9.96-11,9.96-20.83Z"/><path class="cls-1" d="M620.96,31.36c-3.17,0-5.74-1.85-5.74-1.85,0,0,2.57-1.85,5.74-1.85s5.74,1.85,5.74,1.85c0,0-2.57,1.85-5.74,1.85Z"/><path class="cls-1" d="M620.96,111.28c-3.17,0-5.74-1.13-5.74-1.13,0,0,2.57-1.13,5.74-1.13s5.74,1.13,5.74,1.13c0,0-2.57,1.13-5.74,1.13Z"/><path class="cls-1" d="M620.96,143.62c-39.71,0-71.89,9.48-71.89,21.18,0,2.85,1.92,5.56,5.38,8.04-.51-.95-.78-1.91-.78-2.9,0-10.5,30.13-19,67.3-19s67.3,8.51,67.3,19c0,.99-.27,1.96-.78,2.9,3.46-2.48,5.38-5.19,5.38-8.04,0-11.7-32.19-21.18-71.89-21.18Z"/><path class="cls-1" d="M816.81,86.66c2.8,0,5.49.47,8,1.34-.77-.08-1.54-.12-2.33-.12-12.93,0-23.41,10.48-23.41,23.41,0,12.93,10.48,23.41,23.41,23.41.79,0,1.56-.04,2.33-.12-2.51.86-5.2,1.34-8,1.34-13.6,0-24.63-11.03-24.63-24.63,0-13.6,11.03-24.63,24.63-24.63Z"/><path class="cls-1" d="M676.26,106.53c0-2.8.47-5.49,1.34-8-.08.77-.12,1.54-.12,2.33,0,12.93,10.48,23.41,23.41,23.41,12.93,0,23.41-10.48,23.41-23.41,0-.79-.04-1.56-.12-2.33.86,2.51,1.34,5.2,1.34,8,0,13.6-11.03,24.63-24.63,24.63s-24.63-11.03-24.63-24.63Z"/><path class="cls-1" d="M636.72,55.88c.75-.75,1.59-1.34,2.49-1.78-.22.18-.44.38-.65.59-3.45,3.45-3.45,9.05,0,12.51,3.45,3.45,9.05,3.45,12.51,0,.21-.21.41-.43.59-.65-.44.9-1.03,1.75-1.78,2.49-3.63,3.63-9.53,3.63-13.16,0-3.63-3.63-3.63-9.53,0-13.16Z"/><path class="cls-1" d="M783,77.15s-.98,6.97-5.53,7.46h-46.8c-4.55-.48-5.53-7.46-5.53-7.46h-1v19.91h1s.98-6.98,5.53-7.46h46.8c4.55.48,5.53,7.46,5.53,7.46h1v-19.91h-1Z"/><path class="cls-1" d="M1228.22,94.43c-.69-.73-1.7-.61-2.62-.59-1.74.04-3.48.07-5.22.11-.18,0-.36,0-.54,0-.43-.55-.85-1.11-1.21-1.68-.55-.88-1.04-1.81-1.42-2.77-.27-.67-.72-1.38.05-1.82.79-.45,1.83-.09,2.63.17,1.11.35,2.21.75,3.31,1.13,1.83.63,2.62-2.27.8-2.89-2.3-.79-5.11-2.24-7.56-1.31-1.09.41-2.03,1.23-2.44,2.34-.45,1.24,0,2.46.49,3.61.48,1.16,1.06,2.24,1.73,3.27-1.84.13-3.61.56-4.88,1.94-.94,1.02-1.52,2.29-1.93,3.6-.41,1.29-1.18,3.37.29,4.27.8.49,1.91.31,2.8.31.85,0,1.74-.01,2.5-.45,1.54-.88,1.73-3.19.15-4.13-1.22-.72-2.35.48-2.22,1.56-.12.01-.23.02-.27.02-.2,0-.4,0-.61,0,.06-.19.12-.38.17-.55.18-.62.4-1.22.72-1.78.68-1.19,1.66-1.67,3.01-1.74.83-.05,1.66-.07,2.49-.08.03.04.06.08.1.12,1.18,1.37,2.47,2.82,2.93,4.55.02.69.1,1.39.22,2.08.13.72.97,1.18,1.65,1.07.77-.12,1.24-.71,1.3-1.47.06-.79-.02-1.53-.18-2.23.04-.83.26-1.63.79-2.28.91-1.11,2.55-.76,3.26-2.13.38-.73.28-1.65-.29-2.26ZM1222.25,96.9c.24,0,.48,0,.73-.01-.13.15-.26.32-.37.48-.12-.16-.24-.31-.36-.47Z"/><path class="cls-1" d="M1207.56,92.81c.38.09.83.08,1.16-.15,1.1-.76,2.13-1.63,3.03-2.62.27-.29.44-.66.44-1.06,0-.37-.16-.81-.44-1.06-.29-.26-.66-.46-1.06-.44-.39.02-.79.14-1.06.44-.59.65-1.24,1.25-1.94,1.8-.16.12-.32.24-.48.35-.33.23-.58.5-.69.9-.1.36-.05.84.15,1.16.21.32.51.6.9.69Z"/><path class="cls-1" d="M1197.5,89.81c.65-.33,1.29-.66,1.94-1,.18-.09.35-.19.53-.28.03.53.03,1.05-.03,1.58-.02.12-.04.23-.06.35-.08.4-.06.8.15,1.16.18.31.54.61.9.69.75.17,1.68-.23,1.85-1.05.19-.92.28-1.86.21-2.8-.08-1.08-.2-2.56-1.23-3.19-.42-.26-.94-.34-1.43-.21-.28.07-.54.21-.79.34-.39.2-.78.4-1.17.6-.8.41-1.59.82-2.39,1.22-.7.36-.96,1.4-.54,2.05.46.71,1.3.92,2.05.54Z"/><path class="cls-1" d="M1203.54,94.35c-.64.2-1.21.47-1.62,1.01-.46.61-.55,1.42-.13,2.08.6.94,1.87,1,2.98.85-.5.41-1,.82-1.5,1.24-.61.5-1.21,1-1.82,1.5-.21.17-.42.35-.63.52-1.01-.96-1.97-2-2.81-3.11-.49-.64-1.29-.98-2.05-.54-.64.37-1.03,1.4-.54,2.05.64.84,1.3,1.66,2.01,2.43.67.73,1.41,1.62,2.26,2.15.63.4,1.41.43,2.07.06.49-.27.91-.71,1.34-1.06.82-.68,1.64-1.35,2.45-2.03,1.5-1.24,3.77-2.59,3.14-4.89-.62-2.25-3.13-2.91-5.15-2.27ZM1205.68,97.23s0,0,0,0c0,0,0,0,0,0Z"/><path class="cls-1" d="M1188.96,92.63c.38.09.82.07,1.16-.15.3-.2.63-.52.69-.9.02-.11.04-.21.07-.31.17.62.34,1.23.51,1.85.21.76,1.07,1.3,1.85,1.05.77-.25,1.27-1.03,1.05-1.85-.25-.91-.5-1.81-.75-2.72-.28-1-.43-2.31-1.42-2.88-.82-.48-1.75-.21-2.38.44-.34.35-.64.75-.9,1.16-.46.74-.79,1.6-.92,2.46-.06.42-.07.78.15,1.16.18.31.54.61.9.69Z"/><path class="cls-1" d="M1194.78,93.45c-1.38,2.21-2.96,4.27-4.76,6.16-.42.44-.84.87-1.28,1.29-.15.14-.3.29-.46.43.3-.56.64-1.08,1.04-1.57.65-.78.54-1.77-.3-2.36-1.1-.77-2.37-1.27-3.7-1.47-.48-.07-1.17-.19-1.73-.12-.03-.35-.07-.7-.12-1.05-.31-1.91-1.1-3.69-2.04-5.38,1.47.04,2.94.07,4.4.11,1.93.05,1.93-2.95,0-3-2.36-.06-4.71-.11-7.07-.17-1.13-.03-1.88,1.3-1.3,2.26.79,1.28,1.58,2.58,2.2,3.95.59,1.33.84,2.62.97,4.05.17,1.85,1.53,2.29,3.18,2.25.78-.02,1.5.12,2.2.38-.79,1.2-1.38,2.61-.87,3.88.76,1.89,3.15,1.94,4.6.89,1.52-1.09,2.82-2.64,4.02-4.06,1.32-1.57,2.53-3.23,3.61-4.96,1.03-1.64-1.57-3.15-2.59-1.51ZM1187.94,102.09s0-.04.04-.1c.02.05.02.09-.04.1Z"/><path class="cls-1" d="M1178.91,97.54c-.5-.06-.98-.02-1.48.07-.26.04-.51.11-.76.17-.14.04-.28.07-.42.1-.02,0-.04,0-.06.01-.01,0,0,0-.03,0-.08,0-.17-.02-.18,0-.02-.03-.08-.08-.11-.12,0,0,0,0,0-.02,0-.02,0-.02,0-.03.01-.12.05-.3,0-.02,0,0,0,0,0-.01.13-.75-.25-1.6-1.06-1.78-.75-.17-1.68.23-1.85,1.05-.24,1.16.1,2.39,1.02,3.17.57.48,1.23.74,1.97.77.64.03,1.26-.16,1.87-.31.06-.01.14-.04.22-.06.02,0,.03,0,.06,0,.04,0,.07,0,.11,0,.18,0,.38.03.57.02.04,0,.07.01.11.02.11.02.21.05.31.09.06.02.13.04.19.07.04.02.07.03.11.05.18.09.34.2.51.31,0,0,0,0,0,0,0,0,.01.02.03.03.08.08.16.15.24.22,0,0,.12.13.18.2.02.03.04.06.06.09.05.08.1.15.14.23.04.08.2.46.06.09.29.73,1.01,1.32,1.85,1.05.7-.23,1.36-1.07,1.05-1.85-.81-2.01-2.54-3.34-4.69-3.6ZM1175.85,97.72s0,0,0,0c0,0,0,0,0,0,0,0,0,0,0,0,0,0,0,0,0,.01ZM1175.85,97.73s0,0,0,0c0,0,0,.01,0,.02,0,0,0-.02,0-.03ZM1175.98,97.89s0,0,0,0c.01,0,.03.01.08.02-.03,0-.05-.01-.08-.02Z"/><path class="cls-1" d="M1166.38,89.55c.49-.16.86-.53,1.02-.98.04.02.08.04.11.07.14.09.27.18.4.27.31.22.63.43.95.64,1.35.86,2.8,1.55,4.29,2.12.73.28,1.68-.31,1.85-1.05.19-.86-.26-1.55-1.05-1.85-.18-.07-.37-.14-.55-.22-.03-.01-.23-.1-.24-.1-.08-.04-.17-.08-.25-.11-.44-.2-.87-.42-1.29-.65-.81-.44-1.58-.96-2.34-1.48-.86-.58-1.93-1-2.97-.67-1.26.4-2.11,1.64-1.77,2.96.19.76,1.08,1.29,1.85,1.05Z"/><path class="cls-1" d="M1167.71,91.92c-.81,0-1.5.69-1.5,1.5,0,.46,0,.92-.04,1.38-.02.26-.04.52-.06.77,0,.08-.02.16-.03.24,0-.03-.04.28-.04.29-.07.45-.17.91-.3,1.35-.07.24-.15.48-.23.72-.03.07-.05.14-.08.21-.01.02-.12.26-.12.26-.19.38-.4.75-.66,1.08-.03.03-.07.08-.08.09-.06.07-.13.14-.19.21-.15-.31-.31-.6-.56-.86-.41-.42-.94-.7-1.51-.85-.05-.01-.1-.02-.14-.03.28-.17.55-.33.83-.5,1-.62,2.28-1.26,2.57-2.51.33-1.38-.81-2.51-1.87-3.2-1.92-1.26-4.59-1.28-6.66-.43-.69.28-1.19.85-1.07,1.65.11.71.71,1.32,1.47,1.3.01,0,.48-.02.2,0,.05.01.1.03.14.04-.1-.05-.1-.06-.01,0,.03.01.13.08.17.1.1.09.18.19.26.29.5.64,1.6.52,2.12,0,.27-.27.39-.58.42-.89.07.01.14.02.13.02.23.05.45.12.68.19.02,0,.06.02.09.03.09.04.17.08.25.13.1.06.2.12.3.18.04.02.06.03.08.04,0,0,0,0,0,0-.01,0-.03.02-.04.03-.33.21-.66.42-.99.62-1.16.71-2.89,1.36-2.96,2.95-.07,1.42,1.16,2.47,2.46,2.74.22.05.43.08.65.13.05.01.09.02.14.04.08.03.12.04.13.04.02.07.1.18.12.23.09.18.15.37.24.55.62,1.31,2.1,1.81,3.37,1.06.97-.57,1.76-1.58,2.31-2.54,1.22-2.14,1.52-4.69,1.52-7.12,0-.81-.69-1.5-1.5-1.5ZM1161.04,98.94s0,0,0,0c0,0,0,0,0,0-.09.05-.09.05,0,0ZM1161.65,101.22h0s0,0,0,0ZM1163.87,100.48s.01,0,.01,0c-.06.05-.07.06-.01,0Z"/><path class="cls-1" d="M1157.44,99.32c-.14-.15-.3-.25-.48-.31-.18-.09-.37-.14-.58-.13-.13.02-.27.04-.4.05-.25.07-.47.2-.66.39l-.23.3c-.14.23-.2.49-.2.76v1.36c0,.21.04.4.13.58.06.19.16.35.31.48.14.15.3.25.48.31.18.09.37.14.58.13.13-.02.27-.04.4-.05.25-.07.47-.2.66-.39l.23-.3c.14-.23.2-.49.2-.76v-1.36c0-.21-.04-.4-.13-.58-.06-.19-.16-.35-.31-.48Z"/><path class="cls-1" d="M1154.58,87.03c-.71-.2-1.72.24-1.85,1.05-.16,1.02-.54,1.91-1.29,2.64-.75.74-1.63,1.3-2.23,2.18-.66.97-.83,2.2-.47,3.32.12.36.28.71.46,1.05-.82-.09-1.64-.2-2.45-.28-.76-.07-1.57.75-1.5,1.5.11,1.25.14,2.51.09,3.76-.08,1.93,2.92,1.93,3,0,.03-.71.02-1.41,0-2.11.41.04.82.08,1.23.12.88.08,2,.39,2.8-.1,1.95-1.2-.19-3.31-.7-4.64-.41-1.07.75-1.66,1.55-2.36,1.26-1.1,2.15-2.62,2.41-4.28.13-.8-.2-1.61-1.05-1.85Z"/><path class="cls-1" d="M1143.28,98.17c-1.12-.47-2.25-.74-3.43-.99-.92-.19-1.86-.39-2.67-.89-1.68-1.01-1.25-3-.89-4.63.42-1.9,1.43-3.23,3.16-4.13.38-.2.78-.35,1.18-.49,1.44,2.08,3.2,3.86,5.27,5.31.66.47,1.67.12,2.05-.54.44-.75.13-1.59-.54-2.05-1.27-.89-2.4-1.96-3.39-3.16.57-.12,1.15-.2,1.75-.21,1.93-.05,1.94-3.02,0-3-2.75.02-5.59.29-8.04,1.65-2.27,1.26-3.78,3.29-4.34,5.82-.56,2.52-.86,5.39,1.28,7.29.89.79,2,1.3,3.13,1.62,1.3.37,2.71.45,3.96.98.75.31,1.61.22,2.05-.54.37-.63.21-1.74-.54-2.05Z"/><path class="cls-1" d="M1138.56,94.96c0,.2.07.39.18.56.09.17.22.32.39.42.14.13.31.22.51.27.38.09.82.07,1.16-.15l.3-.23c.19-.19.31-.41.39-.66.05-.29.1-.59.09-.88,0-.29-.05-.58-.09-.87-.03-.16-.07-.33-.13-.48-.1-.27-.21-.55-.35-.8-.09-.17-.22-.32-.39-.42-.14-.13-.31-.22-.51-.27-.2-.06-.4-.07-.6-.03-.2,0-.39.07-.56.18-.32.21-.6.51-.69.9-.09.4-.05.79.15,1.16,0,.02.02.03.02.05.05.13.08.27.11.4.01.16.02.32,0,.48-.02.13-.02.26.01.38Z"/><path class="cls-1" d="M1131,87.59c-2.91-.18-5.79-.29-8.68.23-2.71.49-5.35,1.39-8.14,1.14-.81-.07-1.5.74-1.5,1.5,0,.87.69,1.43,1.5,1.5,2.84.25,5.58-.58,8.33-1.13,1.78-.35,3.56-.42,5.36-.38-.14.09-.27.18-.42.26-.6.31-.8.82-.74,1.33-.08-.04-.16-.07-.24-.09-.81-.19-1.6.25-1.85,1.05-.85,2.75-1.01,5.62-.58,8.45.12.78,1.14,1.28,1.85,1.05.85-.27,1.17-1.01,1.05-1.85,0-.07-.02-.1-.02-.12,0-.04,0-.08-.01-.12-.02-.17-.04-.33-.05-.5-.02-.29-.04-.57-.05-.86-.02-.62,0-1.24.04-1.86.02-.26.05-.52.08-.78.01-.07.04-.28.05-.32.03-.17.06-.33.09-.49.12-.61.28-1.21.46-1.81.05-.16.06-.33.05-.5.4.22.89.27,1.4,0,1.45-.75,2.64-1.97,3.34-3.45.5-1.05-.1-2.18-1.3-2.26Z"/><path class="cls-1" d="M1116.63,93.37c-.38-.34-.87-.54-1.52-.51-1.75.07-2.75,2.01-3.67,3.24-.23.31-.46.62-.69.92-.11.15-.24.41-.39.54-.02,0-.13.03-.2.02-.17-.02-.34-.03-.51-.06-.4-.05-.8-.12-1.19-.2-1.25-.24-2.87-.46-3.8-1.41-.31-.31-.53-.72-.7-1.15.74-.16,1.4-.86,1.27-1.7.38,0,.78-.02,1.16-.05.93-.07,1.8-.36,2.47-1.03,1.14-1.15,1.31-2.99.39-4.32-2.14-3.12-6.5-1.58-7.94,1.36-1.33,2.71-.97,6.57,1.07,8.86,1.11,1.25,2.78,1.79,4.36,2.16.87.2,1.75.35,2.64.47.95.12,1.81.15,2.62-.43.84-.6,1.41-1.63,2.02-2.45.21-.28.42-.56.63-.84.01.29.03.59.04.88.04,1.12.06,2.23.05,3.35,0,1.69,2.49,2.04,2.95.4.59-2.16.88-4.4.84-6.63-.02-1.14-1.07-1.6-1.92-1.4ZM1105.04,93.15s.03-.01.05-.02c-.01.02-.03.03-.05.02ZM1106.65,89.17c1.02,1-1.47.87-1.96.95-.23.04-.45.1-.66.19.1-.18.2-.37.33-.53.49-.6,1.6-1.28,2.29-.61Z"/><path class="cls-1" d="M1101.3,98.16c-.18-.09-.37-.14-.58-.13-.39.02-.79.14-1.06.44-.27.29-.44.65-.44,1.06v1.87c0,.38.17.79.44,1.06.14.15.3.25.48.31.18.09.37.14.58.13.39-.02.79-.14,1.06-.44.27-.29.44-.65.44-1.06v-1.87c0-.38-.17-.79-.44-1.06-.14-.15-.3-.25-.48-.31Z"/><path class="cls-1" d="M914.77,114.85c-4.42-4.39-16.42-14.62-32.35-14.62s-27.93,10.22-32.35,14.62l-4.23-4.25c4.95-4.92,18.41-16.36,36.58-16.36s31.64,11.44,36.58,16.36l-4.23,4.25Z"/><path class="cls-1" d="M882.42,131.21c-18.17,0-31.64-11.44-36.58-16.36l4.23-4.25c4.42,4.39,16.42,14.62,32.35,14.62s27.93-10.22,32.35-14.62l4.23,4.25c-4.95,4.92-18.41,16.36-36.58,16.36Z"/><path class="cls-1" d="M700.89,77.7c0,9.83-3.92,20.83-9.96,20.83,6.04,0,9.96,8.02,9.96,13.51,0-5.49,3.92-13.51,9.96-13.51-6.04,0-9.96-11-9.96-20.83Z"/><path class="cls-1" d="M617.72,18.21c0,3.17,1.45,5.74,3.23,5.74s3.23-2.57,3.23-5.74-1.45-5.74-3.23-5.74-3.23,2.57-3.23,5.74Z"/><path class="cls-1" d="M643.03,18.21c-1.46,0-5.49-3.43-5.49-3.43-2.6-2.12-6.61-4.73-11.63-5.84-4.43-2.46-4.96-8.94-4.96-8.94,0,0-.53,6.48-4.96,8.94-5.02,1.12-9.03,3.72-11.63,5.84,0,0-4.03,3.43-5.49,3.43,1.46,0,5.49,3.43,5.49,3.43,3.41,2.78,9.24,6.4,16.59,6.4s13.18-3.62,16.59-6.4c0,0,4.03-3.43,5.49-3.43ZM620.96,24.04c-6.45,0-11.61-3.4-14.47-5.83,2.86-2.43,8.02-5.83,14.47-5.83s11.61,3.4,14.47,5.83c-2.86,2.43-8.02,5.83-14.47,5.83Z"/><path class="cls-1" d="M617.72,180.24c0,3.17,1.45,5.74,3.23,5.74s3.23-2.57,3.23-5.74-1.45-5.74-3.23-5.74-3.23,2.57-3.23,5.74Z"/><path class="cls-1" d="M643.03,180.24c-1.46,0-5.49-3.43-5.49-3.43-2.6-2.12-6.61-4.73-11.63-5.84-4.43-2.46-4.96-8.94-4.96-8.94,0,0-.53,6.48-4.96,8.94-5.02,1.12-9.03,3.72-11.63,5.84,0,0-4.03,3.43-5.49,3.43,1.46,0,5.49,3.43,5.49,3.43,2.6,2.12,6.61,4.73,11.63,5.84,4.43,2.46,4.96,8.94,4.96,8.94,0,0,.53-6.47,4.96-8.94,5.02-1.12,9.03-3.72,11.63-5.84,0,0,4.03-3.43,5.49-3.43ZM620.96,186.07c-6.45,0-11.61-3.4-14.47-5.83,2.86-2.43,8.02-5.83,14.47-5.83s11.61,3.4,14.47,5.83c-2.86,2.43-8.02,5.83-14.47,5.83Z"/><path class="cls-1" d="M620.93,106.11l-18.03-32.07,18.07-44.63,18.07,44.63-18.1,32.07ZM609.53,73.62l11.42,20.44,11.42-20.44-11.42-28.22-11.42,28.22Z"/><path class="cls-1" d="M1234.45,73.83h-163.72s17.36,2.3,17.36,8-16.34,26.89-46.98,26.89h-270.85c-6.54,0-10.77-5.15-11.61-10.53.04-1.11.05-2.22,0-3.33-.27-11.69-4.01-24.21-13.22-32-1.73-1.38-3.59-2.69-5.69-3.49-2.03-.74-3.36,1.98-1.59,3.2,6.89,5.96,10.11,15.19,10.99,24.06.1.68.2,2.06.21,2.75l.14,2.76-.05,2.79c.01,2.52-.24,5.19-.95,7.57-9.95,32.99-98.31,30.17-127.53,30.82-15.86,0-31.7-.27-47.46-1.23-22.48-1.67-72.18-4.62-80.08-29.59-.71-2.38-.96-5.04-.95-7.57l-.05-2.79s.14-2.76.14-2.76c.06-1.78.31-3.72.53-5.48,1.31-7.93,4.45-16,10.68-21.33,1.76-1.23.49-3.92-1.59-3.2-2.1.81-3.95,2.12-5.69,3.49-9.9,8.36-13.31,21.92-13.29,34.39,0,.37.03.72.04,1.08-.89,5.32-5.1,10.39-11.59,10.39H200.81c-30.64,0-46.98-21.19-46.98-26.89s17.36-8,17.36-8H7.47c-4.26-2.31-6.76-5.31-7.47-9.02v61.23c.74-3.87,3.4-6.98,8-9.32h470.3c7.15,0,13.53,2.47,18.47,5.87,0,0-.01-.02-.02-.04,8.06,5.94,18.58,9.46,28.24,11.59,31.75,6.9,63.83,6.91,95.97,7.17,0,0,0,0,0,0,34.92-.57,88.64.58,119.58-15.68,1.79-.99,3.54-2.15,5.2-3.43,4.85-3.2,11.01-5.48,17.88-5.48h470.3c4.6,2.34,7.26,5.45,8,9.32v-61.23c-.71,3.71-3.21,6.72-7.47,9.02ZM8,108.72v-26.89h134.21s2.3-.13,2.3,1.23c0,14.94,22.4,25.66,22.4,25.66H8ZM1075,108.72s22.4-10.71,22.4-25.66c0-1.36,2.3-1.23,2.3-1.23h134.21v26.89h-158.91Z"/></g></svg>