<?xml version="1.0" encoding="UTF-8"?><svg id="Layer_1" xmlns="http://www.w3.org/2000/svg" viewBox="0 0 1309.45 44.28"><defs><style>.cls-1{fill:#fff;}</style></defs><g id="Line_8"><path class="cls-1" d="M82.78,34.26c-11.88,0-20.69-7.48-23.93-10.7l-1.43-1.42,1.43-1.42c3.23-3.22,12.04-10.7,23.93-10.7s20.69,7.48,23.93,10.7l1.43,1.42-1.43,1.42c-3.23,3.22-12.04,10.7-23.93,10.7ZM63.19,22.14c3.64,3.21,10.67,8.12,19.59,8.12s15.95-4.91,19.59-8.12c-3.64-3.21-10.67-8.12-19.59-8.12s-15.95,4.91-19.59,8.12Z"/><path class="cls-1" d="M82.78,32.02l-1.42-1.43c-2.38-2.39-3.75-5.47-3.75-8.45s1.37-6.06,3.75-8.45l1.42-1.43,1.42,1.43c2.38,2.39,3.75,5.47,3.75,8.45s-1.37,6.06-3.75,8.45l-1.42,1.43ZM82.78,18.31c-.62,1.01-1.16,2.32-1.16,3.83s.54,2.82,1.16,3.83c.62-1.01,1.16-2.32,1.16-3.83s-.54-2.82-1.16-3.83Z"/><path class="cls-1" d="M63.71,44.28c2.52,0,4.94-.43,7.19-1.2-.69.07-1.39.1-2.09.1-11.62,0-21.04-9.42-21.04-21.04,0-11.62,9.42-21.04,21.04-21.04.71,0,1.4.04,2.09.1C68.65.43,66.23,0,63.71,0c-12.23,0-22.14,9.91-22.14,22.14,0,12.23,9.91,22.14,22.14,22.14Z"/><path class="cls-1" d="M1309.45,22.14c-1.61-1.6-4.13-3.19-7.11-3.19-1.64,0-3.13.49-4.42,1.19H105.3v4h1192.62c1.29.7,2.78,1.19,4.42,1.19,2.98,0,5.5-1.6,7.11-3.19Z"/><path class="cls-1" d="M21.79.35C9.77.35,0,10.12,0,22.14s9.77,21.79,21.79,21.79,21.79-9.77,21.79-21.79S33.8.35,21.79.35ZM21.79,39.93c-9.81,0-17.79-7.98-17.79-17.79S11.98,4.35,21.79,4.35s17.79,7.98,17.79,17.79-7.98,17.79-17.79,17.79Z"/><path class="cls-1" d="M33.23,19.23c-.81.04-1.5.66-1.5,1.5v6.13c0,.78.69,1.54,1.5,1.5.81-.04,1.5-.66,1.5-1.5v-6.13c0-.78-.69-1.54-1.5-1.5Z"/><path class="cls-1" d="M25.05,14.86c-.96-.5-1.95-.78-3.01-.42-.48.16-.86.44-1.22.75l-.07-2.29c-.06-1.93-3.06-1.93-3,0,.05,1.48.1,2.95.14,4.43-1.43.46-3.08.36-4.52.1-.61-.11-1.22-.24-1.83-.38.04,0,0,0-.08-.02.01-.06.03-.12.04-.17.24-.87.62-1.66,1.11-2.42,1.08-1.67,2.8-2.96,4.77-3.36,2.58-.52,5.2.74,7.47,1.8,1.74.81,3.26-1.78,1.51-2.59-3.72-1.73-7.7-3.25-11.69-1.46-3.09,1.39-5.51,4.45-6.19,7.76-.22,1.07-.16,2.1.8,2.79.8.57,1.99.69,2.93.87,1.9.37,3.88.57,5.78.14.06,1.76.11,3.51.17,5.27,0,.15.03.29.07.41-.49.08-.98.18-1.46.29-.82.2-1.62.48-2.44.69-.3.08-.63.15-.95.1-.17-.14-.33-.27-.5-.41-.57-.48-1.35-.61-1.97-.12-.55.44-.82,1.31-.39,1.94.08.11.16.2.24.3,0,0,0,0,0,0,.01,0,.02.02.03.03.31.37.66.65,1.02.84,2.24,1.86,4.51,3.68,6.82,5.45.64.49,1.68.1,2.05-.54.45-.77.11-1.56-.54-2.05-1.27-.98-2.53-1.97-3.77-2.98,1.07-.3,2.14-.63,3.1-.71.67-.06,1.43-.07,1.97.04.55.11.99.22,1.28.61.23.31.21,1.08.2,1.54-.03.81-.16,1.59-.37,2.37-.5,1.87,2.39,2.66,2.89.8.44-1.63.78-3.68.26-5.34-.52-1.63-2.01-2.63-3.64-2.91-.31-.05-.61-.07-.92-.09.01-.09.02-.18.02-.27-.02-.48-.03-.96-.05-1.44.42.89,1.18,1.65,2.1,2.02,3.91,1.57,9.95-2.97,7.2-7.15-1.2-1.82-3.48-3.24-5.37-4.23ZM27.73,22.21c-.6.69-1.67,1.25-2.58,1.34-.38.04-1.7-.26-1.39-.84.27-.51,1.54-.24,1.97-.16,1.88.38,2.69-2.51.8-2.89-1.88-.38-4.19-.36-5.31,1.48-.08.13-.12.27-.18.41-.03-.81-.05-1.62-.08-2.43.02-.01.04-.03.06-.04.35-.25.67-.53.97-.84.26-.26.61-.82.97-.93.58-.17,1.7.79,2.18,1.11.81.53,1.64,1.1,2.33,1.79.64.64.91,1.26.27,2Z"/></g></svg>