<?xml version="1.0" encoding="UTF-8"?><svg id="Layer_1" xmlns="http://www.w3.org/2000/svg" viewBox="0 0 1317.67 67.45"><defs><style>.cls-1{fill:#fff;}</style></defs><g id="Line_5"><path class="cls-1" d="M150.71,57.05c2.52,0,4.94-.43,7.19-1.2-.69.07-1.39.1-2.09.1-11.62,0-21.04-9.42-21.04-21.04,0-11.62,9.42-21.04,21.04-21.04.71,0,1.4.04,2.09.1-2.26-.77-4.67-1.2-7.19-1.2-12.23,0-22.14,9.91-22.14,22.14,0,12.23,9.91,22.14,22.14,22.14Z"/><path class="cls-1" d="M296.66,57.05c-2.52,0-4.94-.43-7.19-1.2.69.07,1.39.1,2.09.1,11.62,0,21.04-9.42,21.04-21.04,0-11.62-9.42-21.04-21.04-21.04-.71,0-1.4.04-2.09.1,2.26-.77,4.67-1.2,7.19-1.2,12.23,0,22.14,9.91,22.14,22.14,0,12.23-9.91,22.14-22.14,22.14Z"/><path class="cls-1" d="M223.69,66.69c-18.18,0-32.97-14.79-32.97-32.97S205.51.75,223.69.75s32.97,14.79,32.97,32.97-14.79,32.97-32.97,32.97ZM223.69,5.75c-15.42,0-27.97,12.55-27.97,27.97s12.55,27.97,27.97,27.97,27.97-12.55,27.97-27.97-12.55-27.97-27.97-27.97Z"/><rect class="cls-1" x="11.83" y="27.72" width="181.39" height="12"/><path class="cls-1" d="M1301.94,39.72H255.87v-12h1061.8c-11.32.41-15.35,5.13-15.73,12Z"/><path class="cls-1" d="M14.83,8.65c.85-4.58,8.83-5.58,8.83-5.58V0H0v3.06s7.98,1,8.83,5.58v50.15c-.85,4.59-8.83,5.58-8.83,5.58v3.06h23.66v-3.06s-7.98-1-8.83-5.58V8.65Z"/><path class="cls-1" d="M219.7,33.76c0,3.91,1.78,7.08,3.99,7.08s3.99-3.17,3.99-7.08-1.78-7.08-3.99-7.08-3.99,3.17-3.99,7.08Z"/><path class="cls-1" d="M250.9,33.76c-1.79,0-6.76-4.23-6.76-4.23-3.2-2.62-8.14-5.83-14.33-7.2-5.46-3.03-6.11-11.01-6.11-11.01,0,0-.66,7.98-6.11,11.01-6.19,1.38-11.13,4.59-14.33,7.2,0,0-4.97,4.23-6.76,4.23,1.79,0,6.76,4.23,6.76,4.23,3.2,2.62,8.14,5.83,14.33,7.2,5.46,3.03,6.11,11.01,6.11,11.01,0,0,.66-7.98,6.11-11.01,6.19-1.38,11.13-4.59,14.33-7.2,0,0,4.97-4.23,6.76-4.23ZM223.69,40.94c-7.95,0-14.31-4.19-17.84-7.19,3.52-2.99,9.88-7.19,17.84-7.19s14.31,4.19,17.84,7.19c-3.52,2.99-9.88,7.19-17.84,7.19Z"/></g></svg>