<?xml version="1.0" encoding="UTF-8"?><svg id="Layer_1" xmlns="http://www.w3.org/2000/svg" viewBox="0 0 1313.97 59.68"><defs><style>.cls-1{fill:#fff;}</style></defs><g id="Line_6"><path class="cls-1" d="M31.48,0c-3.39,0-6.65.57-9.69,1.62.93-.09,1.87-.14,2.82-.14,15.66,0,28.36,12.7,28.36,28.36,0,15.66-12.7,28.36-28.36,28.36-.95,0-1.89-.05-2.82-.14,3.04,1.04,6.3,1.62,9.69,1.62,16.48,0,29.84-13.36,29.84-29.84C61.32,13.36,47.96,0,31.48,0Z"/><path class="cls-1" d="M1313.97,47.86V11.82c0,4.83-8.31,4.83-8.31,0v36.04c0-4.83,8.31-4.83,8.31,0Z"/><rect class="cls-1" x="2" y="25.84" width="1307.81" height="8"/><path class="cls-1" d="M21.79,51.63C9.77,51.63,0,41.85,0,29.84S9.77,8.05,21.79,8.05s21.79,9.77,21.79,21.79-9.77,21.79-21.79,21.79ZM21.79,12.05c-9.81,0-17.79,7.98-17.79,17.79s7.98,17.79,17.79,17.79,17.79-7.98,17.79-17.79-7.98-17.79-17.79-17.79Z"/><rect class="cls-1" x="19.79" y="10.05" width="4" height="39.57"/></g></svg>