<?xml version="1.0" encoding="UTF-8"?><svg id="Layer_1" xmlns="http://www.w3.org/2000/svg" viewBox="0 0 1281.19 41.33"><defs><style>.cls-1{fill:#fff;}</style></defs><g id="Line_3"><path class="cls-1" d="M1248.4,17.35H.06s-3.09,6.64,35,6.64h1213.33v-6.64Z"/><path class="cls-1" d="M1262.31,4.53c1.83,0,3.6.31,5.24.88-.5-.05-1.01-.08-1.53-.08-8.47,0-15.33,6.87-15.33,15.33,0,8.47,6.87,15.33,15.33,15.33.51,0,1.02-.03,1.53-.08-1.64.56-3.4.88-5.24.88-8.91,0-16.13-7.22-16.13-16.13,0-8.91,7.22-16.13,16.13-16.13Z"/><path class="cls-1" d="M1281.19,20.67c-6.44,0-13.64-2.57-13.64-6.52,0,3.96-5.25,6.52-8.85,6.52,3.6,0,8.85,2.57,8.85,6.52,0-3.96,7.21-6.52,13.64-6.52Z"/><path class="cls-1" d="M35.06,2.79V0H15.02v2.79s7.19.97,7.52,5.49v24.77c-.33,4.52-7.52,5.49-7.52,5.49v2.79h20.04v-2.79s-7.2-.97-7.52-5.49V8.28c.33-4.52,7.52-5.49,7.52-5.49Z"/><path class="cls-1" d="M60.07,37.39h17.66c7.83,0,11.66-6,10-6h-26.54s0-21.45,0-21.45h26.54c1.66,0-2.17-6-10-6h-17.66c-4.34,0-6.73-1.84-6.73-1.84,0,0,1.85,2.39,1.85,6.73v23.68c0,4.34-1.85,6.73-1.85,6.73,0,0,2.39-1.84,6.73-1.84Z"/></g></svg>