<?xml version="1.0" encoding="UTF-8"?><svg id="Layer_1" xmlns="http://www.w3.org/2000/svg" viewBox="0 0 1315.97 44.02"><defs><style>.cls-1{fill:#fff;}</style></defs><g id="Line_7"><path class="cls-1" d="M69.79,22.54c-3.69.07-7.39.01-11.08-.17-.88-.04-1.72.72-1.68,1.5.04.85.74,1.45,1.68,1.5,3.69.18,7.39.23,11.08.17.88-.02,1.72-.68,1.68-1.5-.04-.8-.74-1.52-1.68-1.5Z"/><path class="cls-1" d="M85.92,23.66c.71,1.35,3.23.68,3.14-.76-.07-1.12-.47-2.09-.98-3.1-.37-.74-.91-1.55-.9-2.38,0-.83.62-1.61.97-2.35.49-1.02.76-2.07.38-3.16-.63-1.84-3.89-1.06-3.25.8.23.67-.31,1.37-.62,1.96-.34.64-.63,1.31-.77,2-1.47-1.03-3.11-1.88-4.88-2.48-1.05-.35-2.12.55-2.13,1.45,0,.85.05,1.99-.31,2.9-2.18-1.1-4.65-1.31-7.11-.3-.83.34-1.03,1.4-.6,2.05.5.76,1.47.88,2.3.54.85-.35,1.86-.37,2.75-.15,1.16.29,2.06,1.47,3.3,1.32,1.45-.17,2.24-1.68,2.61-2.79.14-.41.22-.84.28-1.26,2.54,1.32,4.56,3.34,5.81,5.72Z"/><path class="cls-1" d="M103.41,22.03c-2.17,0-2.17,3,0,3s2.17-3,0-3Z"/><path class="cls-1" d="M151.53,18.67c-2.27-1.83-4.89-3.57-7.99-4.03-1.16-.17-2.56-.29-3.63.25-.58.3-1.03.8-1.25,1.36-.29.75.1,1.46-.09,2.17,0,.03-.03.05-.03.08-.02-.02-.04-.05-.06-.08-1.97-2.36-5.36-4.25-8.46-5.2-3.15-.97-6.55-.4-8.61,2.02-1.31,1.54,1.61,3.03,2.91,1.51,2.43-2.85,8.06.61,10.13,2.21.27.21.67.55,1.06.94-1.27.17-2.55.21-3.78.61-1.07.35-2.27.94-2.78,1.89-.66,1.23.26,2.59,1.49,3.22,2.1,1.08,5.46.67,7.47-.4,1.64-.88,2.18-2.23,2.03-3.63.49-.32.93-.7,1.27-1.14.45-.6.71-1.29.74-2.02.01-.26.02-.61-.03-.9.18,0,.36,0,.54.01,1.98.15,3.79,1.14,5.32,2.21.89.63,1.73,1.32,2.55,2.03.16.13.31.3.48.42.03.02.04.03.06.04-.41.18-.85.5-1.21.68-1.62.82-3.29,1.57-4.99,2.24.04-1.32.22-2.62.58-3.92.52-1.87-2.72-2.67-3.25-.8-.61,2.2-.84,4.43-.65,6.69-5.33.13-10.65.19-15.98.17.83-.11,1.66-.63,1.59-1.48-.27-3.41-2.51-6.11-5.43-8.2-2.93-2.09-6.2-4.16-9.59-5.61-3.36-1.44-7.37-2.28-11.01-1.15-3.06.95-5.64,3.21-6.21,6.12-.05.25-.03.49.04.7-1.42.21-2.84.64-3.42,1.74-.95,1.8.88,3.46,2.44,4.38.68.4,1.55.74,2.35,1.14-4.63-.11-9.19.7-13.5,2.43-1.97.79-.26,3.38,1.7,2.59,4.7-1.89,10.01-2.52,15.1-1.79,1.33.19,2.3-.65,2.07-1.85-.52-2.68-3.34-3.66-5.65-4.91-.24-.13-.49-.26-.71-.42-.1-.07-.18-.15-.26-.23.25-.04.51-.09.57-.1.44-.08.88-.13,1.33-.17,1.71-.16,3.45-.11,5.17-.08,1.7.03,3.41.06,5.11.09,1.59.03,3.53-.21,5.08.11.73.15.74.61.75,1.2,0,.04-.02.22-.03.39-.2,0-.4.02-.61.02-1.79.06-3.58,0-5.36-.13-2.16-.16-2.15,2.84,0,3,1.34.1,2.68.16,4.02.15,1.1,0,2.41.1,3.47-.21.34-.1.61-.26.85-.45.14.03.29.06.46.05,1.89-.01,3.54.43,5.15,1.31,1.08.6,2.16,1.19,3.39,1.35-3.36-.02-6.72-.05-10.07-.12-2.17-.05-2.17,2.95,0,3,9.17.2,18.34.18,27.51-.05.94-.02,1.47-.6,1.59-1.24.09-.01.17-.02.26-.05,3.21-1.13,6.49-2.42,9.38-4.12,1.12-.66,1.93-1.58,1.57-2.85-.38-1.33-1.8-2.29-2.9-3.17ZM133.24,23.22c.33-.08.66-.14.98-.18.46-.06.92-.11,1.38-.15-.57.19-1.24.28-1.82.31-.17.01-.36.02-.54.02ZM116.22,21.65c-.02-.34-.06-.68-.12-.99-.37-1.85-1.91-2.91-3.96-3.07-2.49-.2-5.05-.11-7.54-.15-2.17-.04-4.37-.13-6.54-.04.56-1.99,2.35-3.41,4.61-3.88,3.05-.64,6.22.36,8.87,1.68,2.56,1.27,5.06,2.8,7.38,4.39,1.6,1.09,3.17,2.45,4.02,4.09-.73-.39-1.44-.86-2.13-1.13-1.46-.57-3-.85-4.58-.9Z"/><path class="cls-1" d="M177.82,20.71c.19-.93.27-1.91.36-2.85.19-1.85.28-3.71.28-5.56,0-1.93-3.36-1.93-3.37,0,0,1.67-.08,3.33-.23,5-.06.7-.14,1.39-.23,2.08-.2-.03-.41-.06-.61-.09-2.81-.48-5.55-1.2-8.38-1.19-.2-.31-.52-.56-.98-.68-2.61-.69-5.26-1.28-7.93-1.77-.2-.18-.44-.32-.73-.37-.99-.18-1.99-.27-3-.24-.83.02-1.55.55-1.65,1.3-.09.68.37,1.52,1.21,1.65,3.21.49,6.38,1.14,9.52,1.91-.25,1-.31,2.04-.33,3.1-.03,1.42,0,2.85-.98,4.04-.74.91.25,2.32,1.45,2.26,2.81-.15,5.6-.54,8.31-1.2,2.09-.51,1.2-3.4-.9-2.89-1.59.38-3.19.66-4.81.86.16-.71.23-1.44.26-2.16.04-.91-.02-1.89.12-2.82,1.42-.08,2.85.13,4.23.39.95.18,1.89.39,2.84.57.99.19,2.08.44,3.09.44,1.21,0,2.21-.69,2.43-1.76ZM174.56,20s0,0,.01,0c0,.03,0,.03-.01,0Z"/><path class="cls-1" d="M201.87,26.88c-4.47-2.62-9.44-5.61-10.38-10.67-.27-1.45-2.94-1.41-3.25,0-.81,3.78-5.71,5.42-8.32,8.09-.76.78-.43,1.74.26,2.25-.56,0-1.13,0-1.69,0-2.17-.01-2.17,2.99,0,3,7.51.04,15.02.09,22.53.13,1.74,0,2.2-2,.85-2.8ZM182.31,26.43c2.13-2.19,5.23-3.68,7.27-5.89,1.4,2.42,3.63,4.4,6.09,6.11-4.51-.03-9.02-.05-13.54-.08.06-.05.12-.09.17-.14Z"/><path class="cls-1" d="M198.36,23.16c.92-.04,1.67-.66,1.68-1.5,0-.48.03-.96.08-1.44.02-.24.05-.48.08-.72.01-.09.02-.18.04-.27,0-.05.02-.1.02-.15.16-.95.4-1.89.7-2.81.24-.75-.3-1.67-1.18-1.85-.9-.18-1.81.24-2.07,1.05-.65,2-.99,4.1-1.03,6.18-.01.78.78,1.54,1.68,1.5Z"/><path class="cls-1" d="M208.3,15.04c-.97,0-1.61.69-1.68,1.5-.4,4.6-1.03,9.18-1.87,13.74-.15.8.23,1.61,1.18,1.85.81.2,1.92-.24,2.07-1.05.9-4.82,1.57-9.67,1.99-14.54.07-.81-.82-1.5-1.68-1.5Z"/><path class="cls-1" d="M215.68,21.33c-.15.83.38,1.78,1.6,1.79,3.29.04,6.62.22,9.91.12.83-.03,1.57-.25,2.08-.85.48-.57.57-1.3.69-1.98.25-1.48.35-2.97.24-4.47-.06-.89-1.04-1.81-2.13-1.45-4.7,1.58-9.64,2.36-14.67,2.29-.98-.01-2.05.99-1.62,1.9.43.92,1.09,1.3,2.05,1.76.62.3,1.24.6,1.85.9ZM218.97,20.14c-.03-.21-.1-.41-.25-.6,2.76-.27,5.49-.77,8.14-1.52-.02.49-.06.99-.13,1.47-.03.2-.07.41-.11.61,0,.04-.02.08-.03.12-.03,0-.07,0-.09,0-.35,0-.69,0-1.04-.01-2.16-.03-4.32-.05-6.49-.08Z"/><path class="cls-1" d="M228.36,25.03c-4.33-.05-8.69-.09-12.91-1.02-1.06-.23-2.13.45-2.13,1.45,0,1.29,0,2.57-.01,3.86,0,1.93,3.36,1.93,3.37,0,0-.67,0-1.35,0-2.02,3.85.62,7.78.69,11.69.73,2.17.02,2.17-2.98,0-3Z"/><path class="cls-1" d="M1302.07,16.24c-7.66,0-13.89,6.23-13.89,13.89,0,2.11.49,4.1,1.33,5.89H22.48V4.66c.41-2.47,4.42-3.01,4.42-3.01V0h-11.84v1.65s4,.54,4.42,3.01v31.37H7.42V4.65c.42-2.47,4.42-3.01,4.42-3.01V0H0v1.65s4.01.54,4.42,3.01v39.36h1297.65c7.66,0,13.89-6.23,13.89-13.89s-6.23-13.89-13.89-13.89ZM1302.07,36.02c-3.25,0-5.89-2.64-5.89-5.89s2.64-5.89,5.89-5.89,5.89,2.64,5.89,5.89-2.64,5.89-5.89,5.89Z"/><path class="cls-1" d="M31.09,0c6.64,0,12.02,7.72,12.02,17.23,0-.05,0-.1,0-.15v20.38h4.23V4.12s.06-.08.09-.12h195.65s.06.08.09.12v33.35h4.23v-20.38c0,.05,0,.1,0,.15,0-9.52,5.38-17.23,12.02-17.23H31.09Z"/></g></svg>