<?xml version="1.0" encoding="UTF-8"?><svg id="Layer_1" xmlns="http://www.w3.org/2000/svg" viewBox="0 0 1279.05 67.45"><defs><style>.cls-1{fill:#fff;}</style></defs><g id="Line_1"><path class="cls-1" d="M910.64,54.35c2.36,0,4.62-.4,6.73-1.12-.64.06-1.3.1-1.96.1-10.88,0-19.7-8.82-19.7-19.7,0-10.88,8.82-19.7,19.7-19.7.66,0,1.32.03,1.96.1-2.11-.73-4.38-1.12-6.73-1.12-11.45,0-20.73,9.28-20.73,20.73s9.28,20.73,20.73,20.73Z"/><path class="cls-1" d="M378.96,8.65c.85-4.59,8.83-5.58,8.83-5.58V0h-23.66v3.06s7.98,1,8.83,5.58v50.16c-.85,4.58-8.83,5.58-8.83,5.58v3.06h23.66v-3.06s-7.98-1-8.83-5.58V8.65Z"/><path class="cls-1" d="M409.43,8.65c.85-4.58,8.83-5.58,8.83-5.58V0h-23.66v3.06s7.98,1,8.83,5.58v50.15c-.85,4.59-8.83,5.58-8.83,5.58v3.06h23.66v-3.06s-7.98-1-8.83-5.58V8.65Z"/><path class="cls-1" d="M1276.57,16.45s-2.56,7.8-7.97,10.28H72.7c-5.14-1.09-9.38-11.56-9.38-19.18,0,7.62-4.24,18.09-9.38,19.18l-53.94-.06c3.4,0,3.4,14,0,14l53.94.06c5.14,1.09,9.38,11.56,9.38,19.18,0-7.62,4.24-18.09,9.38-19.18h1195.9c5.4,2.47,7.97,10.28,7.97,10.28h2.47V16.45h-2.47Z"/></g></svg>