<?xml version="1.0" encoding="UTF-8"?><svg id="Layer_1" xmlns="http://www.w3.org/2000/svg" viewBox="0 0 1288.7 49.14"><defs><style>.cls-1{fill:#fff;}</style></defs><g id="Line_4"><path class="cls-1" d="M1241.09,30H42.21c-14.3,0-27.91,7.66-27.91,7.66,0,0,2.04-16.68-14.3-29.96V0s10.85,20.68,34.85,20.68h1206.24v9.32Z"/><path class="cls-1" d="M1255.9,25.53c0,4.11,1.88,7.45,4.19,7.45s4.19-3.33,4.19-7.45-1.88-7.45-4.19-7.45-4.19,3.33-4.19,7.45Z"/><path class="cls-1" d="M1288.7,25.53c-1.89,0-7.11-4.45-7.11-4.45-3.37-2.75-8.56-6.13-15.07-7.58-5.74-3.19-6.43-11.58-6.43-11.58,0,0-.69,8.39-6.43,11.58-6.51,1.45-11.7,4.82-15.07,7.58,0,0-5.23,4.45-7.11,4.45,1.89,0,7.11,4.45,7.11,4.45,3.37,2.75,8.56,6.13,15.07,7.58,5.74,3.19,6.43,11.58,6.43,11.58,0,0,.69-8.39,6.43-11.58,6.51-1.45,11.7-4.83,15.07-7.58,0,0,5.23-4.45,7.11-4.45ZM1260.09,33.09c-8.36,0-15.05-4.41-18.76-7.56,3.71-3.15,10.39-7.56,18.76-7.56s15.05,4.41,18.76,7.56c-3.71,3.15-10.39,7.56-18.76,7.56Z"/></g></svg>