<?xml version="1.0" encoding="UTF-8"?><svg id="Layer_1" xmlns="http://www.w3.org/2000/svg" viewBox="0 0 1281.45 43.57"><defs><style>.cls-1{fill:#fff;}</style></defs><g id="Line_2"><path class="cls-1" d="M1278.66,11.77s-.52,3.82-2.54,6.02H5.33c-2.02-2.21-2.54-6.02-2.54-6.02H0v20.04h2.79s.52-3.82,2.54-6.02h1270.79c2.02,2.21,2.54,6.02,2.54,6.02h2.79V11.77h-2.79Z"/><path class="cls-1" d="M63.32,43.57c-12.01,0-21.79-9.77-21.79-21.79S51.31,0,63.32,0s21.79,9.77,21.79,21.79-9.77,21.79-21.79,21.79ZM63.32,4c-9.81,0-17.79,7.98-17.79,17.79s7.98,17.79,17.79,17.79,17.79-7.98,17.79-17.79-7.98-17.79-17.79-17.79Z"/><rect class="cls-1" x="61.32" y="2" width="4" height="39.57"/><path class="cls-1" d="M1244.56,39.79V3.79c0,4.82-8,4.82-8,0v36c0-4.82,8-4.82,8,0Z"/><path class="cls-1" d="M1228.56,39.79V3.79c0,4.82-8,4.82-8,0v36c0-4.82,8-4.82,8,0Z"/></g></svg>