<?xml version="1.0" encoding="UTF-8"?><svg id="Layer_1" xmlns="http://www.w3.org/2000/svg" viewBox="0 0 768 768"><defs><style>.cls-1{fill:#fff;}</style></defs><g id="Pentagram_5"><path class="cls-1" d="M260.3,104.29c5.99,9.32,9.48,20.41,9.48,32.31,0,33.08-26.82,59.9-59.9,59.9s-59.9-26.82-59.9-59.9c0-11.91,3.49-22.99,9.48-32.31-9.64,11.46-15.45,26.23-15.45,42.38,0,36.38,29.49,65.87,65.87,65.87s65.87-29.49,65.87-65.87c0-16.14-5.82-30.92-15.45-42.38Z"/><path class="cls-1" d="M384,768c-51.84,0-102.13-10.15-149.47-30.18-45.73-19.34-86.79-47.03-122.06-82.29-35.27-35.26-62.95-76.33-82.29-122.06C10.15,486.13,0,435.84,0,384s10.15-102.13,30.18-149.47c19.34-45.73,47.03-86.79,82.29-122.06,35.26-35.27,76.33-62.95,122.06-82.29C281.87,10.15,332.16,0,384,0s102.13,10.15,149.47,30.18c45.73,19.34,86.79,47.03,122.06,82.29,35.26,35.26,62.95,76.33,82.29,122.06,20.02,47.34,30.18,97.63,30.18,149.47s-10.15,102.13-30.18,149.47c-19.34,45.73-47.03,86.79-82.29,122.06-35.26,35.27-76.33,62.95-122.06,82.29-47.34,20.02-97.63,30.18-149.47,30.18ZM384,6C175.57,6,6,175.57,6,384s169.57,378,378,378,378-169.57,378-378S592.43,6,384,6Z"/><path class="cls-1" d="M384,746c-48.87,0-96.28-9.57-140.91-28.45-43.11-18.23-81.82-44.33-115.06-77.58s-59.35-71.96-77.58-115.06c-18.88-44.63-28.45-92.04-28.45-140.91s9.57-96.28,28.45-140.91c18.23-43.11,44.33-81.82,77.58-115.06,33.24-33.24,71.96-59.35,115.06-77.58,44.63-18.88,92.04-28.45,140.91-28.45s96.28,9.57,140.91,28.45c43.11,18.23,81.82,44.33,115.06,77.58,33.24,33.24,59.35,71.96,77.58,115.06,18.88,44.63,28.45,92.04,28.45,140.91s-9.57,96.28-28.45,140.91c-18.23,43.11-44.33,81.82-77.58,115.06s-71.96,59.35-115.06,77.58c-44.63,18.88-92.04,28.45-140.91,28.45ZM384,28C187.7,28,28,187.7,28,384s159.7,356,356,356,356-159.7,356-356S580.3,28,384,28Z"/><path class="cls-1" d="M374.29,424.57v1s6.98.98,7.46,5.53v185.15c-2.09-1.57-4.68-2.52-7.48-2.52-6.88,0-12.48,5.6-12.48,12.48s5.6,12.48,12.48,12.48,12.48-5.6,12.48-12.48c0,0,0-.01,0-.02h0v-195.1c.48-4.55,7.46-5.53,7.46-5.53v-1h-19.92ZM374.26,633.71c-4.13,0-7.48-3.36-7.48-7.48s3.36-7.48,7.48-7.48,7.48,3.36,7.48,7.48-3.36,7.48-7.48,7.48Z"/><path class="cls-1" d="M166.21,278.18v1s6.45.9,7.38,5.01v185.68c-2.09-1.57-4.68-2.52-7.48-2.52-6.88,0-12.48,5.6-12.48,12.48s5.6,12.48,12.48,12.48,12.48-5.6,12.48-12.48c0,0,0-.01,0-.02h0s.03-194.44.03-194.61c0-4.98,7.5-6.02,7.5-6.02v-1h-19.91ZM166.11,487.32c-4.13,0-7.48-3.36-7.48-7.48s3.36-7.48,7.48-7.48,7.48,3.36,7.48,7.48-3.36,7.48-7.48,7.48Z"/><path class="cls-1" d="M602.54,275.68c-6.88,0-12.48,5.6-12.48,12.48,0,0,0,.01,0,.02h0s-.03,194.45-.03,194.61c0,4.98-7.5,6.02-7.5,6.02v1h19.92v-1s-6.45-.9-7.38-5.01v-185.68c2.09,1.57,4.68,2.52,7.49,2.52,6.88,0,12.48-5.6,12.48-12.48s-5.6-12.48-12.48-12.48ZM602.54,295.65c-4.13,0-7.48-3.36-7.48-7.48s3.36-7.48,7.48-7.48,7.48,3.36,7.48,7.48-3.36,7.48-7.48,7.48Z"/><path class="cls-1" d="M404.92,589.66s-1,7.98-5.58,8.83h-30.15c-4.58-.85-5.58-8.83-5.58-8.83h-3.06v23.66h3.06s1-7.98,5.58-8.83h30.15c4.59.85,5.58,8.83,5.58,8.83h3.06v-23.66h-3.06Z"/><path class="cls-1" d="M414.92,559.45s-1,7.98-5.58,8.83h-50.15c-4.59-.85-5.58-8.83-5.58-8.83h-3.06v23.66h3.06s1-7.98,5.58-8.83h50.16c4.58.85,5.58,8.83,5.58,8.83h3.06v-23.66h-3.06Z"/><path class="cls-1" d="M394.27,129.29c-6.88,0-12.48,5.6-12.48,12.48,0,0,0,.01,0,.02h0v195.1c-.48,4.55-7.46,5.53-7.46,5.53v1h19.92v-1s-6.98-.98-7.46-5.53v-185.15c2.09,1.57,4.68,2.52,7.48,2.52,6.88,0,12.48-5.6,12.48-12.48s-5.6-12.48-12.48-12.48ZM394.27,149.26c-4.13,0-7.48-3.36-7.48-7.48s3.36-7.48,7.48-7.48,7.48,3.36,7.48,7.48-3.36,7.48-7.48,7.48Z"/><path class="cls-1" d="M404.92,154.68s-1,7.98-5.58,8.83h-30.16c-4.58-.85-5.58-8.83-5.58-8.83h-3.06v23.66h3.06s1-7.98,5.58-8.83h30.15c4.59.85,5.58,8.83,5.58,8.83h3.06v-23.66h-3.06Z"/><path class="cls-1" d="M414.92,184.89s-1,7.98-5.58,8.83h-50.15c-4.59-.85-5.58-8.83-5.58-8.83h-3.06v23.66h3.06s1-7.98,5.58-8.83h50.16c4.58.85,5.58,8.83,5.58,8.83h3.06v-23.66h-3.06Z"/><path class="cls-1" d="M66.87,536.77s13.29-9.03,22.73-10.43h589.32c9.44,1.41,22.73,10.43,22.73,10.43,0,0-15.98-16.89-20.22-22.51L398.69,75.98c-.29-.63-.86-1.63-1.82-3.13-8.59-13.47-12.61-40.27-12.61-40.27,0,0-4.02,26.8-12.61,40.27-.96,1.5-1.53,2.5-1.82,3.13L87.1,514.25c-4.23,5.62-20.23,22.52-20.23,22.52ZM384.27,68.37l290.28,449.97H93.99L384.27,68.37Z"/><path class="cls-1" d="M681.44,253.74c4.24-5.62,20.22-22.51,20.22-22.51,0,0-13.29,9.03-22.73,10.43H89.61c-9.44-1.41-22.73-10.43-22.73-10.43,0,0,15.99,16.9,20.23,22.52l282.74,438.28c.29.63.86,1.63,1.82,3.13,8.59,13.47,12.61,40.27,12.61,40.27,0,0,4.02-26.8,12.61-40.27.96-1.5,1.53-2.5,1.82-3.13l282.74-438.29ZM674.54,249.66l-290.28,449.97L93.99,249.66h580.56Z"/><path class="cls-1" d="M508.23,104.29c-5.99,9.32-9.48,20.41-9.48,32.31,0,33.08,26.82,59.9,59.9,59.9,33.08,0,59.9-26.82,59.9-59.9,0-11.91-3.49-22.99-9.48-32.31,9.64,11.46,15.45,26.23,15.45,42.38,0,36.38-29.49,65.87-65.87,65.87-36.38,0-65.87-29.49-65.87-65.87,0-16.14,5.82-30.92,15.45-42.38Z"/><path class="cls-1" d="M260.3,663.71c5.99-9.32,9.48-20.41,9.48-32.31,0-33.08-26.82-59.9-59.9-59.9s-59.9,26.82-59.9,59.9c0,11.91,3.49,22.99,9.48,32.31-9.64-11.46-15.45-26.23-15.45-42.38,0-36.38,29.49-65.87,65.87-65.87s65.87,29.49,65.87,65.87c0,16.14-5.82,30.92-15.45,42.38Z"/><path class="cls-1" d="M508.23,663.71c-5.99-9.32-9.48-20.41-9.48-32.31,0-33.08,26.82-59.9,59.9-59.9,33.08,0,59.9,26.82,59.9,59.9,0,11.91-3.49,22.99-9.48,32.31,9.64-11.46,15.45-26.23,15.45-42.38,0-36.38-29.49-65.87-65.87-65.87s-65.87,29.49-65.87,65.87c0,16.14,5.82,30.92,15.45,42.38Z"/><path class="cls-1" d="M315.55,318.37c-.96.02-1.92.01-2.88.02-.05-2.35-.06-4.7.01-7.05.06-1.93-2.94-1.93-3,0-.07,2.36-.06,4.71,0,7.06-.93,0-1.87-.01-2.8-.02-.1-3.39-.08-6.79.09-10.18.09-1.93-2.91-1.93-3,0-.16,3.37-.19,6.75-.09,10.12-.76-.02-1.52-.02-2.27-.04-.56-.02-1.75.15-2.11-.41-.4-.62-.32-1.86-.36-2.55-.15-2.28-.06-4.58.31-6.83.13-.8-.21-1.61-1.05-1.85-.72-.2-1.71.24-1.85,1.05-.43,2.64-.6,5.3-.39,7.96,0,.08.01.16.02.24-.62-.47-1.31-.86-2.07-1.15-2.83-1.11-6.07-.54-8.62,1.01-1.31.8-2.78,1.9-3.36,3.36-.68,1.71.15,3.44,1.86,4.04,1.74.62,3.74.84,5.56,1.12,1.99.3,3.99.51,6,.63.17.01.32-.01.46-.05-.46,1.61-1.27,3.14-2.03,4.58-.9,1.71,1.69,3.23,2.59,1.51,1.52-2.9,3.08-6.02,2.74-9.4-.02-.17-.06-.33-.08-.5.08.02.15.04.24.06,1.21.23,2.49.18,3.72.21.28,0,.57,0,.85.02.14,2.56.32,5.11.61,7.66.09.81.62,1.49,1.5,1.5.74,0,1.59-.7,1.5-1.5-.28-2.53-.47-5.07-.6-7.61.05,0,.1,0,.16,0,.87,0,1.73,0,2.6,0,.11,2.42.27,4.83.51,7.24.08.81.63,1.5,1.5,1.5.75,0,1.58-.69,1.5-1.5-.24-2.41-.4-4.83-.51-7.25.92,0,1.85-.01,2.77-.03,1.93-.04,1.93-3.04,0-3ZM287.55,320.91c-.64-.13-1.29-.26-1.93-.41-.21-.05-.54-.09-.76-.18.25-.81,1.33-1.47,2.02-1.9,1.77-1.1,3.88-1.6,5.91-.95,1.88.6,3.23,2.14,3.49,4.11.03.21.03.42.04.62-.21-.15-.48-.26-.8-.28-2.68-.16-5.34-.49-7.97-1Z"/><path class="cls-1" d="M311.79,435.6c-1.52-.76-3.64-.56-5.28-.54-3.98.06-8.04.46-11.95,1.17-3.16.57-7.01,1.49-9.04,4.22-2.1,2.81-1.16,6.76,1.64,8.68,1.59,1.1,3.1-1.5,1.51-2.59-.98-.68-1.47-1.95-1.27-3.12.24-1.44,1.6-2.3,2.83-2.86,3.31-1.5,7.18-1.81,10.76-2.16,1.92-.19,3.84-.33,5.76-.34.95,0,1.93-.03,2.88.07,1.04.11,1.04.5,1.27,1.47.65,2.77,1.28,5.63,1.29,8.49-2.22-1.53-5.11-2.17-7.78-2.32-4.17-.25-8.44.8-12.05,2.89-1.78,1.03-3.53,2.33-4.82,3.94-1.15,1.44-2.31,3.8-1.31,5.62.42.77,1.22,1.24,2.11,1.07,1.11-.22,1.84-1.34,2.59-2.08.75-.74,1.53-1.44,2.44-1.98.72-.43,2.42-1.39,3.31-1.14.44.12.97,1.01,1.25,1.38.42.54.82,1.11,1.2,1.68.73,1.11,1.27,2.33,1.99,3.44,1.35,2.07,3.54,2.56,5.84,2.86.59.08,1.34-.52,1.45-1.1.55-3.18,1.05-6.36,1.48-9.56.11-.81-.19-1.6-1.05-1.85-.7-.2-1.74.25-1.85,1.05-.37,2.76-.8,5.51-1.26,8.25-.33-.07-.65-.17-.95-.3-.84-.37-1.18-1.04-1.6-1.82-.94-1.75-2.03-3.4-3.27-4.95-.52-.65-1.08-1.48-1.84-1.86-.79-.39-1.67-.25-2.51-.09-1.59.3-3.07.98-4.4,1.9.47-.39.96-.75,1.4-1.05,2.8-1.93,6.13-3.11,9.53-3.31,3.33-.19,8.11.25,10,3.44.61,1.03,2.51.96,2.74-.36.7-4.01.11-7.95-.78-11.88-.37-1.64-.61-3.53-2.27-4.37Z"/><path class="cls-1" d="M320.06,446.62c-.08-1.92-3.08-1.93-3,0,.22,5.32.18,10.65-.11,15.97-.11,1.93,2.89,1.92,3,0,.29-5.32.33-10.64.11-15.97Z"/><path class="cls-1" d="M485.29,330.45c-4.6.03-9.19.06-13.79.09-.08-1.07-.13-2.14-.16-3.22,1.72-.25,3.64-1.22,4.93-2.15,1.72-1.23,2.7-3.06,3.16-5.09.49-2.2.69-4.74-.62-6.71-1.04-1.56-2.77-2.34-4.55-2.72.11-1.21.03-2.43-.29-3.6-.48-1.76-1.73-3.68-3.8-3.49-2.27.21-2.9,2.56-2.94,4.47-.03,1.28-.05,2.56-.06,3.84-1.38,1.44-1.8,3.47-2.84,5.12-.52.82-.12,1.61.53,1.99-2.22,1.08-4.69,1.29-6.82-.22-2.15-1.52-3.13-4.55-2.26-7.03.96-2.74,3.8-4.46,6.63-4.46,1.93,0,1.93-3,0-3-3.78,0-7.54,2.18-9.13,5.67-1.54,3.38-.78,7.44,1.75,10.14,2.81,3,7.18,3.22,10.79,1.68.42-.18.82-.39,1.22-.6-.01.8-.03,1.61-.02,2.41,0,1.27.44,2.39,1.29,3.08.03,1.3.09,2.6.19,3.89-2.07.01-4.14.03-6.2.04-1.93.01-1.93,3.01,0,3,6.99-.05,13.98-.09,20.97-.14.28.16.63.24,1.02.17.47-.08.93-.16,1.4-.24,1.69-.29,1.26-2.96-.4-2.95ZM470.16,313.48c.08-.03.17-.06.26-.08-.08.17-.18.34-.27.51,0-.14,0-.28,0-.42ZM470.26,307.28c.02-.14.05-.61.23-.69,0,0,0-.01,0-.02.01.03.04.07.11.17.38.47.53,1.23.63,1.81.1.59.09,1.19.04,1.79-.38,0-.77.02-1.14.07-.03-1.06-.03-2.13.13-3.13ZM473.58,313.54c.4.09.8.2,1.16.35,1.37.54,2.01,1.57,2.05,3.02.03,1.3-.22,2.77-.75,3.96-.64,1.44-1.85,2.19-3.24,2.8-.46.2-.98.46-1.5.6,0-.62.02-1.24.04-1.86.03-.72-.6-1.41-1.31-1.49.01-.67.03-1.33.04-2,1.55-1.5,2.77-3.34,3.5-5.37Z"/><path class="cls-1" d="M481.66,441.3c-1.01-1.64-3.61-.14-2.59,1.51,1.31,2.12,1.92,4.93,1.39,7.4-.28,1.29-.87,2.38-1.93,3.21-.39.3-1.18.95-1.68,1.05-.36.07-1.2-.7-1.65-.92-2.04-.99-3.99-1-5.87-.47.95-.84,1.91-1.67,2.89-2.48.71.08,1.41-.52,1.59-1.26.94-.74,1.89-1.46,2.85-2.16,1.55-1.12.06-3.72-1.51-2.59-.69.5-1.37,1.01-2.04,1.52-.06-.51-.12-1.02-.25-1.52-.37-1.4-1.35-2.65-2.79-3.03-1.63-.43-3.1.43-4.33,1.41-1.3,1.04-2.51,2.21-3.88,3.17-1.27.89-2.73,1.75-4.32,1.8-1.16.03-2.47-.3-2.57-1.64-.2-2.77,2.38-5.38,4.63-6.56,3.34-1.76,7.17-1.57,10.6-.2.75.3,1.65-.33,1.85-1.05.23-.85-.29-1.54-1.05-1.85-6.58-2.64-15.27-.72-18.26,6.24-.74,1.72-1.13,3.72-.26,5.48.74,1.49,2.3,2.26,3.88,2.49,4.01.58,7.4-2.26,10.23-4.69.8-.69,2.73-2.81,3.34-.9.31.98.34,1.97.55,2.91-4.37,3.57-8.44,7.5-12.2,11.73-1.09,1.23.3,3.28,1.82,2.36,3.05-1.86,5.68-4.64,9.03-5.96,1.45-.57,3.1-.82,4.56-.17.79.35,1.38,1.04,2.21,1.3.82.26,1.59.08,2.34-.3,2.82-1.43,4.8-3.71,5.26-6.88.44-3.04-.21-6.33-1.83-8.95Z"/><path class="cls-1" d="M301.02,345.52c-14.07,0-25.52-11.45-25.52-25.52s11.45-25.52,25.52-25.52,25.52,11.45,25.52,25.52-11.45,25.52-25.52,25.52ZM301.02,298.49c-11.86,0-21.52,9.65-21.52,21.52s9.65,21.52,21.52,21.52,21.52-9.65,21.52-21.52-9.65-21.52-21.52-21.52Z"/><path class="cls-1" d="M467.51,345.52c-14.07,0-25.52-11.45-25.52-25.52s11.45-25.52,25.52-25.52,25.52,11.45,25.52,25.52-11.45,25.52-25.52,25.52ZM467.51,298.49c-11.87,0-21.52,9.65-21.52,21.52s9.65,21.52,21.52,21.52,21.52-9.65,21.52-21.52-9.65-21.52-21.52-21.52Z"/><path class="cls-1" d="M301.02,473.51c-14.07,0-25.52-11.45-25.52-25.52s11.45-25.52,25.52-25.52,25.52,11.45,25.52,25.52-11.45,25.52-25.52,25.52ZM301.02,426.48c-11.86,0-21.52,9.65-21.52,21.52s9.65,21.52,21.52,21.52,21.52-9.65,21.52-21.52-9.65-21.52-21.52-21.52Z"/><path class="cls-1" d="M467.51,473.51c-14.07,0-25.52-11.45-25.52-25.52s11.45-25.52,25.52-25.52,25.52,11.45,25.52,25.52-11.45,25.52-25.52,25.52ZM467.51,426.48c-11.87,0-21.52,9.65-21.52,21.52s9.65,21.52,21.52,21.52,21.52-9.65,21.52-21.52-9.65-21.52-21.52-21.52Z"/><path class="cls-1" d="M512.78,371.4s-13.62,7.66-27.91,7.66h-201.08c-14.3,0-27.91-7.66-27.91-7.66,0,0,2.04,16.68-14.3,29.96v7.7s10.85-20.68,34.85-20.68h215.8c24,0,34.85,20.68,34.85,20.68v-7.7c-16.34-13.28-14.3-29.96-14.3-29.96Z"/><path class="cls-1" d="M71.17,405.79c-12.01,0-21.79-9.77-21.79-21.79s9.77-21.79,21.79-21.79,21.79,9.77,21.79,21.79-9.77,21.79-21.79,21.79ZM71.17,366.21c-9.81,0-17.79,7.98-17.79,17.79s7.98,17.79,17.79,17.79,17.79-7.98,17.79-17.79-7.98-17.79-17.79-17.79Z"/><rect class="cls-1" x="51.39" y="382" width="39.57" height="4"/><rect class="cls-1" x="69.17" y="364.21" width="4" height="39.57"/><path class="cls-1" d="M697.47,405.79c-12.01,0-21.79-9.77-21.79-21.79s9.77-21.79,21.79-21.79,21.79,9.77,21.79,21.79-9.77,21.79-21.79,21.79ZM697.47,366.21c-9.81,0-17.79,7.98-17.79,17.79s7.98,17.79,17.79,17.79,17.79-7.98,17.79-17.79-7.98-17.79-17.79-17.79Z"/><rect class="cls-1" x="677.68" y="382" width="39.57" height="4"/><rect class="cls-1" x="695.47" y="364.21" width="4" height="39.57"/><path class="cls-1" d="M562.64,104.29c0,3.92-1.79,7.09-3.99,7.09s-3.99-3.17-3.99-7.09c0-3.92,1.79-7.09,3.99-7.09s3.99,3.17,3.99,7.09Z"/><path class="cls-1" d="M538.17,108.53c3.21,2.62,8.16,5.83,14.35,7.21,5.46,3.04,6.12,11.03,6.12,11.03,0,0,.66-7.99,6.12-11.03,6.2-1.38,11.15-4.6,14.35-7.21,0,0,4.98-4.24,6.77-4.24-1.8,0-6.77-4.24-6.77-4.24-3.21-2.62-8.15-5.83-14.35-7.21-5.46-3.04-6.12-11.03-6.12-11.03,0,0-.66,7.99-6.12,11.03-6.2,1.38-11.14,4.6-14.35,7.21,0,0-4.98,4.24-6.77,4.24,1.8,0,6.77,4.24,6.77,4.24ZM540.78,104.29c3.53-3,9.9-7.2,17.86-7.2,7.97,0,14.33,4.2,17.86,7.2-3.53,3-9.9,7.2-17.86,7.2-7.96,0-14.33-4.2-17.86-7.2Z"/><path class="cls-1" d="M205.36,104.29c0,3.92,1.79,7.09,3.99,7.09s3.99-3.17,3.99-7.09-1.79-7.09-3.99-7.09-3.99,3.17-3.99,7.09Z"/><path class="cls-1" d="M236.6,104.29c-1.8,0-6.77-4.24-6.77-4.24-3.21-2.62-8.15-5.83-14.35-7.21-5.47-3.04-6.12-11.03-6.12-11.03,0,0-.66,7.99-6.12,11.03-6.2,1.38-11.14,4.6-14.35,7.21,0,0-4.98,4.24-6.77,4.24,1.8,0,6.77,4.24,6.77,4.24,3.21,2.62,8.15,5.83,14.35,7.21,5.46,3.04,6.12,11.03,6.12,11.03,0,0,.66-7.99,6.12-11.03,6.2-1.38,11.14-4.6,14.35-7.21,0,0,4.98-4.24,6.77-4.24ZM209.35,111.49c-7.97,0-14.33-4.2-17.86-7.2,3.53-3,9.89-7.2,17.86-7.2s14.33,4.2,17.86,7.2c-3.53,3-9.9,7.2-17.86,7.2Z"/><path class="cls-1" d="M562.64,663.71c0-3.92-1.79-7.09-3.99-7.09s-3.99,3.17-3.99,7.09c0,3.92,1.79,7.09,3.99,7.09s3.99-3.17,3.99-7.09Z"/><path class="cls-1" d="M531.4,663.71c1.8,0,6.77,4.24,6.77,4.24,3.21,2.62,8.15,5.83,14.35,7.21,5.47,3.04,6.12,11.03,6.12,11.03,0,0,.66-7.99,6.12-11.03,6.2-1.38,11.14-4.6,14.35-7.21,0,0,4.98-4.24,6.77-4.24-1.8,0-6.77-4.24-6.77-4.24-3.21-2.62-8.15-5.83-14.35-7.21-5.46-3.04-6.12-11.03-6.12-11.03,0,0-.66,7.99-6.12,11.03-6.2,1.38-11.14,4.6-14.35,7.21,0,0-4.98,4.24-6.77,4.24ZM558.65,656.51c7.97,0,14.33,4.2,17.86,7.2-3.53,3-9.89,7.2-17.86,7.2-7.96,0-14.33-4.2-17.86-7.2,3.53-3,9.9-7.2,17.86-7.2Z"/><path class="cls-1" d="M205.36,663.71c0-3.92,1.79-7.09,3.99-7.09s3.99,3.17,3.99,7.09-1.79,7.09-3.99,7.09-3.99-3.17-3.99-7.09Z"/><path class="cls-1" d="M229.83,659.47c-3.21-2.62-8.16-5.83-14.35-7.21-5.46-3.04-6.12-11.03-6.12-11.03,0,0-.66,7.99-6.12,11.03-6.2,1.38-11.15,4.6-14.35,7.21,0,0-4.98,4.24-6.77,4.24,1.8,0,6.77,4.24,6.77,4.24,3.21,2.62,8.15,5.83,14.35,7.21,5.46,3.04,6.12,11.03,6.12,11.03,0,0,.66-7.99,6.12-11.03,6.2-1.38,11.14-4.6,14.35-7.21,0,0,4.98-4.24,6.77-4.24-1.8,0-6.77-4.24-6.77-4.24ZM227.22,663.71c-3.53,3-9.9,7.2-17.86,7.2s-14.33-4.2-17.86-7.2c3.53-3,9.9-7.2,17.86-7.2s14.33,4.2,17.86,7.2Z"/></g></svg>