<?xml version="1.0" encoding="UTF-8"?><svg id="Layer_1" xmlns="http://www.w3.org/2000/svg" viewBox="0 0 768 768"><defs><style>.cls-1{fill:#fff;}</style></defs><g id="Pentagram_4"><path class="cls-1" d="M384,768c-51.84,0-102.13-10.15-149.47-30.18-45.73-19.34-86.79-47.03-122.06-82.29-35.27-35.26-62.95-76.33-82.29-122.06C10.15,486.13,0,435.84,0,384s10.15-102.13,30.18-149.47c19.34-45.73,47.03-86.79,82.29-122.06,35.26-35.27,76.33-62.95,122.06-82.29C281.87,10.15,332.16,0,384,0s102.13,10.15,149.47,30.18c45.73,19.34,86.79,47.03,122.06,82.29,35.27,35.26,62.95,76.33,82.29,122.06,20.02,47.34,30.18,97.63,30.18,149.47s-10.15,102.13-30.18,149.47c-19.34,45.73-47.03,86.79-82.29,122.06-35.26,35.27-76.33,62.95-122.06,82.29-47.34,20.02-97.63,30.18-149.47,30.18ZM384,6C175.57,6,6,175.57,6,384s169.57,378,378,378,378-169.57,378-378S592.43,6,384,6Z"/><path class="cls-1" d="M384,713c-87.88,0-170.5-34.22-232.64-96.36-62.14-62.14-96.36-144.76-96.36-232.64s34.22-170.5,96.36-232.64c62.14-62.14,144.76-96.36,232.64-96.36s170.5,34.22,232.64,96.36c62.14,62.14,96.36,144.76,96.36,232.64s-34.22,170.5-96.36,232.64c-62.14,62.14-144.76,96.36-232.64,96.36ZM384,61c-178.1,0-323,144.9-323,323s144.9,323,323,323,323-144.9,323-323S562.1,61,384,61Z"/><path class="cls-1" d="M384,418.72c-92.29,0-167.36-75.08-167.36-167.36s75.08-167.36,167.36-167.36,167.36,75.08,167.36,167.36-75.08,167.36-167.36,167.36ZM384,89.99c-88.98,0-161.36,72.39-161.36,161.36s72.39,161.36,161.36,161.36,161.36-72.39,161.36-161.36-72.39-161.36-161.36-161.36Z"/><path class="cls-1" d="M498.55,617.86c-29.05,0-57.72-7.63-83.54-22.57-38.7-22.39-66.36-58.5-77.89-101.69-11.53-43.19-5.56-88.29,16.83-126.98s58.5-66.36,101.69-77.89c43.19-11.53,88.29-5.55,126.98,16.83,38.7,22.39,66.36,58.5,77.89,101.69,11.53,43.19,5.56,88.29-16.83,126.98s-58.5,66.36-101.69,77.89c-14.37,3.84-28.96,5.74-43.45,5.74ZM499.08,288.99c-13.97,0-28.03,1.83-41.89,5.53-41.64,11.12-76.46,37.79-98.05,75.1-21.58,37.31-27.35,80.79-16.23,122.43s37.79,76.46,75.1,98.05c37.31,21.58,80.79,27.35,122.43,16.23,41.64-11.12,76.46-37.79,98.05-75.1,21.58-37.31,27.35-80.79,16.23-122.43s-37.79-76.46-75.1-98.05c-24.89-14.4-52.53-21.76-80.54-21.76Z"/><path class="cls-1" d="M531.55,524.47c-8.28,0-16.46-2.18-23.82-6.44-22.78-13.18-30.59-42.43-17.41-65.21,13.18-22.78,42.43-30.59,65.21-17.41h0c22.78,13.18,30.59,42.43,17.41,65.21-6.38,11.03-16.68,18.92-29,22.21-4.1,1.09-8.26,1.64-12.39,1.64ZM531.71,433.01c-15.11,0-29.82,7.83-37.92,21.82-12.07,20.87-4.92,47.67,15.95,59.74,10.11,5.85,21.89,7.41,33.17,4.4,11.28-3.01,20.72-10.24,26.57-20.35,12.07-20.87,4.91-47.67-15.95-59.74h0c-6.88-3.98-14.4-5.87-21.82-5.87Z"/><path class="cls-1" d="M236.45,524.47c-4.13,0-8.29-.54-12.39-1.64-12.32-3.29-22.61-11.18-29-22.21-6.38-11.03-8.09-23.89-4.8-36.21s11.18-22.61,22.21-29c11.03-6.38,23.89-8.09,36.21-4.8,12.32,3.29,22.61,11.18,29,22.21,13.18,22.78,5.37,52.03-17.41,65.21-7.36,4.26-15.54,6.44-23.82,6.44ZM236.3,432.98c-7.59,0-15.08,1.99-21.82,5.9h0c-20.87,12.07-28.02,38.87-15.95,59.74,5.85,10.11,15.28,17.34,26.57,20.35,11.28,3.01,23.07,1.45,33.17-4.4,20.87-12.07,28.02-38.87,15.95-59.74-5.85-10.11-15.28-17.34-26.57-20.35-3.75-1-7.57-1.5-11.35-1.5Z"/><path class="cls-1" d="M384.04,257.39c-12.48,0-24.26-4.77-33.23-13.49-9.14-8.88-14.28-20.79-14.47-33.54-.19-12.75,4.6-24.8,13.49-33.94,8.88-9.14,20.79-14.28,33.54-14.47,26.34-.38,48.03,20.71,48.41,47.03.19,12.75-4.6,24.8-13.49,33.94-8.88,9.14-20.79,14.28-33.54,14.47-.24,0-.48,0-.71,0ZM384.07,165.94c-.22,0-.43,0-.64,0-11.68.17-22.59,4.88-30.73,13.25s-12.53,19.42-12.36,31.1c.17,11.68,4.88,22.59,13.25,30.73,8.38,8.14,19.44,12.56,31.1,12.36,11.68-.17,22.59-4.88,30.73-13.25,8.14-8.38,12.53-19.42,12.36-31.1-.35-23.89-19.9-43.09-43.71-43.09Z"/><path class="cls-1" d="M269.28,617.56c-14.64,0-29.36-1.94-43.87-5.85-43.16-11.65-79.2-39.4-101.49-78.16-22.28-38.75-28.14-83.87-16.5-127.03,11.65-43.16,39.4-79.2,78.16-101.49,38.76-22.28,83.87-28.14,127.03-16.5,43.16,11.65,79.2,39.4,101.49,78.16,46,80,18.34,182.51-61.66,228.52-25.73,14.79-54.26,22.35-83.16,22.35ZM188.57,310.24c-37.37,21.49-64.13,56.24-75.36,97.85-11.23,41.61-5.58,85.11,15.91,122.47,21.49,37.37,56.24,64.13,97.85,75.36,41.61,11.23,85.11,5.58,122.47-15.91,77.13-44.35,103.8-143.19,59.45-220.32-21.49-37.37-56.24-64.13-97.85-75.36-41.61-11.23-85.11-5.58-122.47,15.91h0Z"/><path class="cls-1" d="M260.18,714.19c-2.78-1.02-5.51-2.16-8.19-3.41-.64-.3-1.56.16-1.83.89-.29.8,0,1.56.69,1.88,2.7,1.26,5.46,2.41,8.26,3.44.67.25,1.54-.12,1.79-.91.25-.76-.02-1.64-.73-1.9Z"/><path class="cls-1" d="M268.84,713.83c.24-.35.44-.73.63-1.12,1.46,1.89,2.32,4.31,2.51,6.89.11,1.46,2.24,1.48,2.63.09.3-1.08.3-2.1.24-3.19-.04-.8-.19-1.7.08-2.49.27-.79.97-1.38,1.47-1.99.69-.85,1.21-1.77,1.28-2.91.12-1.9-2.51-1.96-2.65-.05-.05.69-.67,1.22-1.09,1.7-.46.53-.89,1.08-1.22,1.7-.76-1.35-1.7-2.56-2.81-3.56-.66-.6-1.76-.02-2.07.83-.29.79-.64,1.89-1.22,2.65-1.25-1.61-2.97-2.55-5.14-2.31-.73.08-1.26,1.01-1.18,1.74.1.85.78,1.25,1.52,1.18.76-.08,1.51.2,2.09.67.75.62,1.03,1.97,2.02,2.14,1.16.21,2.26-1.01,2.91-1.97Z"/><path class="cls-1" d="M285.83,722.31c-1.66-.47-2.54,2.4-.85,2.88,1.68.48,2.52-2.4.85-2.88Z"/><path class="cls-1" d="M318.41,722.76c-.85-.34-1.92-.61-2.84-.29-.51.19-.95.6-1.23,1.11-.38.68-.22,1.44-.52,2.1-.01.03-.03.04-.04.07-.01-.03-.02-.06-.03-.08-1.04-2.66-3.22-5.11-5.35-6.58-2.17-1.5-4.87-1.53-7.03.45-1.38,1.26.5,3.23,1.86,1.98,2.53-2.34,6.03,2.02,7.3,3.95.16.25.4.65.62,1.11-1.02-.06-2.02-.25-3.06-.08-.9.15-1.97.51-2.59,1.34-.8,1.08-.38,2.57.44,3.41,1.41,1.43,4.16,1.65,5.96.97,1.47-.56,2.16-1.79,2.33-3.19.45-.22.87-.52,1.22-.91.48-.53.81-1.17.98-1.88.06-.26.13-.6.14-.89.14.02.29.05.43.09,1.51.43,2.73,1.64,3.72,2.91.58.74,1.11,1.54,1.63,2.35.1.15.19.34.31.48.02.02.03.03.04.05-.36.12-.76.37-1.08.5-1.43.58-2.89,1.08-4.37,1.5.28-1.29.67-2.54,1.21-3.77.76-1.77-1.61-3-2.39-1.24-.91,2.07-1.54,4.22-1.84,6.46-3.58-.65-7.14-1.45-10.69-2.25-.68-.16-1.35-.31-2.03-.47.69.06,1.5-.3,1.64-1.15.57-3.37-.55-6.4-2.29-8.94-1.76-2.49-3.68-5.29-5.83-7.38-2.13-2.11-4.86-3.75-7.9-3.44-1.28.13-2.57.61-3.7,1.36-1.12.72-2.1,1.76-2.75,3.07-.11.23-.17.46-.18.67-1.13-.16-2.32-.11-3.1.79-1.28,1.47-.4,3.51.5,4.79.39.56.95,1.1,1.44,1.68-1.23-.44-2.47-.8-3.75-1.03-2.37-.43-4.83-.48-7.36-.15-1.78.23-1.32,3.12.47,2.89,2.13-.28,4.26-.22,6.32.15,2.07.36,4.03,1.13,5.94,2,.98.48,1.99-.11,2.15-1.31.37-2.7-1.55-4.19-2.91-5.99-.14-.19-.29-.38-.41-.59-.05-.09-.09-.19-.13-.29.2.03.42.04.46.05.36.04.71.1,1.06.17,1.35.25,2.67.65,3.98,1.06l3.89,1.2c1.21.37,2.76.56,3.86,1.21.52.3.4.75.25,1.32,0,.03-.07.21-.13.37l-.47-.11c-1.39-.34-2.76-.78-4.09-1.3-1.61-.63-2.45,2.26-.83,2.88,1.01.39,2.04.74,3.08,1.04.85.24,1.84.62,2.75.56.29-.02.54-.12.77-.24.1.06.21.12.35.15,1.47.41,2.63,1.21,3.69,2.33.73.8,1.46,1.6,2.45,1.96-2.69-.63-5.36-1.3-7.98-2.18-1.68-.53-2.48,2.37-.78,2.9,3.56,1.2,7.23,2,10.89,2.85,3.66.82,7.33,1.65,11.02,2.31.76.11,1.3-.38,1.53-.99.07,0,.14,0,.22-.02,2.8-.65,5.66-1.44,8.25-2.71,1.01-.49,1.8-1.29,1.73-2.59-.07-1.36-1.02-2.51-1.72-3.53-1.45-2.12-3.15-4.19-5.44-5.07ZM309.09,729.5c-.14-.02-.28-.04-.43-.07.27-.02.54-.02.81,0,.37.02.74.06,1.11.1-.49.09-1.03.05-1.49-.02ZM299.11,726.53c-1-.79-2.12-1.4-3.32-1.8.07-.34.13-.67.16-.98.18-1.87-.71-3.22-2.22-3.83-1.84-.73-3.8-1.19-5.69-1.77-1.64-.51-3.28-1.07-4.96-1.45,1.01-1.78,2.78-2.75,4.6-2.73,2.47.03,4.56,1.67,6.21,3.51,1.59,1.77,3.09,3.79,4.48,5.83.97,1.35,1.86,2.94,2.13,4.69-.48-.51-.92-1.1-1.39-1.48Z"/><path class="cls-1" d="M344.21,732.93c.26-.91.43-1.87.62-2.8.36-1.82.65-3.65.87-5.5.23-1.92-2.35-2.25-2.6-.33-.21,1.65-.47,3.3-.8,4.94-.14.68-.29,1.36-.44,2.04-.16-.05-.31-.1-.47-.15-2.15-.76-4.2-1.74-6.42-2.02-.11-.33-.33-.6-.67-.77-1.38-.67-2.75-1.33-4.12-1.99-.58-.27-1.17-.53-1.76-.78-.12-.21-.29-.37-.5-.46-.74-.31-1.49-.54-2.27-.65-.65-.09-1.3.33-1.51,1.05-.19.65.02,1.54.65,1.79,2.42.92,4.79,2.03,7.13,3.2,0,.01,0,.02,0,.03-.34.95-.57,1.96-.75,2.99-.24,1.4-.44,2.81-1.4,3.85-.74.79-.16,2.33.82,2.44,2.29.19,4.61.05,6.89-.31,1.75-.29,1.41-3.25-.33-2.96-1.32.21-2.65.34-3.97.36.23-.68.39-1.4.52-2.11.16-.89.26-1.87.5-2.77,1.13.07,2.24.41,3.3.81l2.18.85c.76.29,1.59.65,2.4.75.96.12,1.83-.46,2.13-1.5ZM341.72,731.89s0,0,.01,0c0,.02-.01.03-.01,0Z"/><path class="cls-1" d="M355.44,729.56c-.09-1.46-2.17-1.58-2.55-.19-.5,1.85-1.75,3.14-3.19,4.22-1.43,1.04-3.04,1.93-4.23,3.12-.69.69-.54,1.69-.05,2.27l-1.36-.18c-1.74-.23-2.11,2.74-.35,2.98l4.56.61c1.52.2,3.05.28,4.58.42l9.17.76c1.42.12,1.91-1.86.87-2.74-3.45-2.89-7.17-6.17-7.46-11.27ZM348.59,739.4l-1.6-.21c.05-.04.1-.08.15-.13.7-.71,1.5-1.31,2.31-1.89.81-.6,1.65-1.2,2.43-1.84.59-.49,1.16-1,1.66-1.57.89,2.49,2.51,4.6,4.37,6.46l-4.78-.4c-1.51-.14-3.03-.21-4.54-.42Z"/><path class="cls-1" d="M360.33,736.9c.74.02,1.38-.56,1.45-1.39.04-.48.09-.95.16-1.43l.11-.71.05-.27.03-.15c.19-.94.44-1.86.73-2.76.24-.74-.12-1.68-.8-1.91-.69-.24-1.43.13-1.69.92-.65,1.96-1.08,4.03-1.27,6.11-.07.78.51,1.58,1.23,1.6Z"/><path class="cls-1" d="M368.68,729.36c-.76,0-1.3.61-1.4,1.43-.56,4.57-1.3,9.11-2.25,13.6-.17.79.1,1.63.86,1.92.65.25,1.59-.12,1.75-.94.97-4.79,1.73-9.62,2.29-14.48.09-.81-.58-1.51-1.25-1.53Z"/><path class="cls-1" d="M374.26,735.79c-.15.82.25,1.79,1.23,1.82,2.64.11,5.31.35,7.95.32.66,0,1.26-.22,1.67-.81.38-.56.46-1.29.55-1.97.2-1.48.28-2.96.19-4.46-.05-.89-.81-1.83-1.67-1.49-3.69,1.48-7.61,2.17-11.57,2-.77-.03-1.66.95-1.36,1.86.3.93.82,1.32,1.56,1.8l1.45.93ZM376.92,734.67c-.02-.21-.07-.41-.19-.6,2.2-.21,4.37-.66,6.47-1.36-.02.49-.05.98-.11,1.47l-.09.61-.02.12s-.06,0-.07,0l-.83-.03-5.16-.21Z"/><path class="cls-1" d="M384.36,739.75c-3.49-.13-7.01-.27-10.38-1.28-.84-.25-1.73.41-1.77,1.4l-.16,3.86c-.08,1.93,2.69,2,2.75.07l.07-2.02c3.1.7,6.3.85,9.48.97,1.76.07,1.76-2.93.01-3Z"/><path class="cls-1" d="M137.16,634.63c-.48-.52-1.51-.44-2.04.13-.58.62-.6,1.44-.08,2,2.03,2.18,4.15,4.29,6.36,6.29.53.48,1.47.47,2.01-.16.52-.61.61-1.52.05-2.03-2.19-1.99-4.3-4.08-6.31-6.24Z"/><path class="cls-1" d="M147.13,641.79c.47.85.2,2.22,1.01,2.79.95.69,2.47-.06,3.42-.68.36-.23.69-.51,1.02-.79.63,2.29.51,4.86-.3,7.31-.46,1.39,1.51,2.22,2.4,1.08.69-.88,1.08-1.83,1.44-2.85.26-.75.47-1.64,1.02-2.26.55-.62,1.43-.9,2.12-1.27.96-.52,1.8-1.17,2.3-2.19.83-1.71-1.58-2.77-2.43-1.05-.31.62-1.09.87-1.66,1.16-.63.31-1.24.65-1.78,1.1-.19-1.53-.6-3-1.24-4.35-.39-.79-1.58-.73-2.2-.06-.58.62-1.32,1.5-2.14,1.97-.5-2.01-1.77-3.49-3.87-4.1-.71-.2-1.56.45-1.76,1.16-.23.82.25,1.45.96,1.66.73.21,1.32.75,1.69,1.41Z"/><path class="cls-1" d="M164.02,658.23c-1.36-1.07-3.27,1.25-1.89,2.33,1.38,1.08,3.25-1.26,1.89-2.33Z"/><path class="cls-1" d="M193.94,671.16c-.33-.32-.72-.65-1.14-.9-.41-.27-.86-.47-1.36-.48-.54-.02-1.11.19-1.57.56-.61.48-.76,1.25-1.28,1.74-.02.02-.04.03-.06.05,0-.03,0-.06,0-.09.06-2.85-1.02-5.94-2.43-8.11-1.44-2.21-3.92-3.27-6.68-2.27-1.76.63-.77,3.17.96,2.54,3.24-1.19,4.8,4.16,5.24,6.43.05.3.12.76.15,1.26-.92-.44-1.78-1-2.8-1.24-.89-.21-2.02-.28-2.91.25-1.15.69-1.34,2.23-.9,3.31.75,1.86,3.21,3.11,5.15,3.17,1.58.05,2.69-.83,3.38-2.05.5-.03,1-.14,1.47-.36.63-.29,1.19-.74,1.62-1.34.15-.21.36-.5.48-.76.12.08.24.15.35.24,1.23.97,1.89,2.56,2.32,4.11.25.91.43,1.85.6,2.79.03.18.04.39.1.56,0,.03.01.04.02.06-.38-.03-.84.05-1.19.05-1.54-.01-3.08-.11-4.61-.29.76-1.08,1.6-2.08,2.56-3.01,1.38-1.34-.34-3.39-1.74-2.06-1.64,1.55-3.04,3.29-4.18,5.25-3.03-2.02-6.04-4.08-9.01-6.18l-1.66-1.19c.61.3,1.47.27,1.93-.45,1.82-2.89,1.95-6.12,1.32-9.12-.62-3.05-1.34-6.32-2.53-9.08-1.17-2.75-3.07-5.31-6-6.17-2.47-.72-5.38-.38-7.62,1.57-.19.17-.33.36-.43.55-.98-.58-2.11-.98-3.17-.45-1.75.87-1.72,3.08-1.37,4.61.15.66.46,1.37.69,2.1-2.77-2.51-6.04-4.31-9.85-5.3-1.74-.46-2.41,2.38-.67,2.84,4.16,1.1,7.8,3.43,10.48,6.7.73.81,1.89.65,2.49-.39.68-1.17.73-2.29.53-3.38-.17-1.12-.59-2.23-.88-3.31-.06-.23-.13-.46-.16-.7-.01-.1,0-.21-.01-.31.18.1.37.2.41.22.32.17.62.36.91.56.57.39,1.1.81,1.62,1.26l1.6,1.3,3.14,2.58c.98.81,2.34,1.57,3.12,2.58.36.48.09.84-.27,1.32-.02.03-.14.16-.26.29l-.4-.28c-1.16-.84-2.25-1.77-3.29-2.76-1.25-1.19-3.13,1.15-1.87,2.35.79.75,1.6,1.46,2.46,2.13.7.54,1.47,1.28,2.33,1.56.28.09.55.1.81.07.07.1.15.19.26.27,1.21.93,1.98,2.11,2.48,3.61.36.98.71,1.97,1.44,2.67l-2.11-1.51c-1.47-1.14-2.9-2.34-4.33-3.52-1.35-1.12-3.2,1.24-1.83,2.38,1.45,1.19,2.89,2.4,4.37,3.55l4.57,3.29c3.06,2.17,6.16,4.29,9.28,6.37.66.4,1.34.16,1.78-.32.07.03.13.06.21.07,2.83.47,5.78.84,8.66.66,1.12-.07,2.16-.5,2.59-1.73.46-1.28.02-2.71-.23-3.92-.53-2.51-1.3-5.07-3.08-6.77ZM182.39,673.55c.26.09.51.19.75.31.34.16.66.34.99.51-.49-.11-.97-.35-1.37-.59-.12-.07-.24-.15-.37-.23ZM172.31,664.25c.2-.28.38-.57.52-.84.89-1.65.58-3.24-.59-4.38-1.42-1.37-3.07-2.55-4.59-3.8-1.32-1.1-2.65-2.21-4.01-3.25.75-.59,1.58-.94,2.43-1.07.97-.16,1.96-.04,2.85.34,2.28.97,3.58,3.28,4.41,5.6.8,2.24,1.41,4.67,1.91,7.08.23,1.18.41,2.42.36,3.64-.02.52-.1,1.04-.23,1.56-.25-.65-.43-1.36-.72-1.9-.59-1.17-1.38-2.16-2.34-2.97Z"/><path class="cls-1" d="M204.97,685.77c1.01.5,1.9,1.24,2.72,2.01l1.68,1.62c.59.56,1.22,1.21,1.92,1.62.84.48,1.87.28,2.55-.56.59-.74,1.12-1.56,1.65-2.34,1.03-1.54,2-3.12,2.92-4.74.95-1.68-1.3-2.98-2.27-1.31-.83,1.45-1.71,2.86-2.63,4.25-.39.58-.79,1.15-1.19,1.72-.12-.11-.25-.21-.37-.32-1.7-1.53-3.21-3.23-5.15-4.33.02-.34-.07-.68-.32-.97-1.03-1.11-2-2.32-3.04-3.43-.43-.47-.88-.93-1.32-1.39-.03-.24-.12-.46-.28-.62-.56-.57-1.17-1.07-1.85-1.47-.56-.33-1.32-.19-1.8.39-.43.53-.58,1.43-.09,1.9,1.88,1.78,3.64,3.7,5.36,5.69,0,0,0,.02-.01.03-.68.75-1.28,1.59-1.84,2.47-.76,1.2-1.49,2.43-2.78,3.02-.98.45-1.04,2.09-.18,2.56,2.03,1.07,4.23,1.83,6.47,2.37,1.73.41,2.55-2.45.83-2.86-1.3-.31-2.57-.71-3.8-1.2.48-.54.9-1.14,1.29-1.74.49-.76.97-1.62,1.55-2.36ZM211.96,688.54s-.02.02-.01,0c0,0,0,0,.01,0Z"/><path class="cls-1" d="M225.51,691.66c.48-1.38-1.4-2.3-2.27-1.16-1.17,1.53-2.82,2.2-4.57,2.67-1.74.44-3.55.62-5.11,1.27-.91.37-1.15,1.35-.91,2.07l-1.19-.69c-1.51-.88-3,1.72-1.47,2.62l3.97,2.32,4.08,2.14,8.16,4.25c1.26.66,2.48-.98,1.85-2.19-2.07-4.01-4.24-8.48-2.55-13.29ZM215.4,698.12l-1.39-.81c.06-.02.12-.03.19-.06,1.83-.74,3.89-1.06,5.82-1.64.74-.22,1.45-.48,2.13-.81-.14,2.65.54,5.22,1.54,7.66l-4.25-2.22-4.04-2.12Z"/><path class="cls-1" d="M227.19,700.32c.68.31,1.49.02,1.87-.73.22-.43.45-.85.69-1.26l.37-.61.15-.23.08-.13c.54-.79,1.12-1.55,1.74-2.27.5-.59.53-1.6,0-2.07-.54-.48-1.37-.43-1.91.2-1.36,1.56-2.55,3.3-3.52,5.15-.37.69-.14,1.66.52,1.95Z"/><path class="cls-1" d="M237.82,696.53c-.69-.31-1.45.1-1.85.81-2.28,4.02-4.72,7.95-7.32,11.72-.46.66-.54,1.55.06,2.09.52.45,1.55.43,2-.24,2.74-4.05,5.3-8.21,7.67-12.48.39-.71.05-1.62-.56-1.9Z"/><path class="cls-1" d="M251.27,708.38c.76-1.3,1.39-2.64,1.89-4.06.29-.84-.06-1.97-1-1.95-3.99,0-7.85-.94-11.43-2.62-.7-.33-1.89.23-1.97,1.2-.08.98.24,1.54.74,2.27l.98,1.42c-.45.7-.46,1.75.43,2.16,2.39,1.12,4.75,2.39,7.2,3.38.63.22,1.27.23,1.88-.18.58-.38.92-1.03,1.27-1.63ZM248.04,706.84l-4.67-2.2c.07-.2.09-.41.06-.63.66.21,1.33.4,2,.56,1.02.24,2.06.43,3.1.57.46.06.91.1,1.37.14-.21.45-.42.89-.66,1.31l-.32.53-.06.1s-.05-.02-.07-.03l-.75-.35Z"/><path class="cls-1" d="M248.3,712.18c-3.2-1.39-6.37-2.95-9.09-5.18-.68-.56-1.75-.29-2.17.61l-1.63,3.5c-.82,1.75,1.71,2.89,2.51,1.13l.84-1.84c2.59,1.85,5.47,3.27,8.38,4.54,1.63.67,2.78-2.1,1.16-2.77Z"/><path class="cls-1" d="M62.73,530.43c.71-.36,1.14-1.17.81-1.85-1.26-2.68-2.5-5.37-3.45-8.17-.22-.67-1.17-1.01-1.88-.68-.77.36-1.12,1.11-.89,1.84.96,2.83,2.21,5.54,3.48,8.24.31.64,1.19.99,1.93.62Z"/><path class="cls-1" d="M65.3,526.98c-.53.67-.32,1.43.27,1.89.6.48.95,1.2,1.04,1.94.12.96-.65,2.12-.12,2.96.63.99,2.25.91,3.38.7.41-.08.82-.2,1.23-.34-.35,2.39-1.4,4.69-3.08,6.65-.95,1.1.57,2.62,1.83,1.9.97-.55,1.7-1.27,2.42-2.08.53-.59,1.06-1.33,1.8-1.7.74-.37,1.67-.29,2.46-.37,1.09-.11,2.12-.4,2.96-1.15,1.42-1.26-.43-3.15-1.87-1.89-.52.46-1.34.39-1.98.44-.7.05-1.4.13-2.07.34.4-1.48.58-3,.58-4.53-.02-.9-1.18-1.28-2-.9-.77.35-1.79.88-2.73,1.01.29-2.04-.33-3.89-2.04-5.25-.58-.46-1.62-.17-2.07.4Z"/><path class="cls-1" d="M75.87,552.5c-.81-1.53-3.46-.11-2.63,1.43.87,1.52,3.5.07,2.63-1.43Z"/><path class="cls-1" d="M97.64,586.96c.91-1.01,1.04-2.49,1.26-3.7.23-1.26.41-2.55.4-3.81-.02-1.25-.21-2.47-.65-3.63-.34-.86-.84-1.85-1.74-2.26-.5-.22-1.1-.24-1.67-.08-.75.21-1.18.86-1.85,1.12-.03,0-.05.01-.08.02.01-.03.03-.05.04-.08,1.13-2.61,1.29-5.86.8-8.4-.51-2.58-2.43-4.49-5.26-4.67-1.83-.11-1.97,2.67-.16,2.76,3.46.12,2.9,5.65,2.45,7.91-.06.29-.17.74-.34,1.22-.69-.76-1.27-1.6-2.14-2.2-.75-.53-1.77-1.02-2.8-.87-1.33.2-2.09,1.55-2.09,2.71,0,2,1.82,4.08,3.59,4.86,1.45.64,2.82.25,3.92-.62.48.16.98.24,1.5.22.7-.03,1.38-.24,2-.62.22-.14.52-.33.74-.52.08.12.16.24.22.36.36.7.52,1.49.57,2.31.06.81.03,1.63-.06,2.43-.11.93-.3,1.87-.49,2.8-.04.18-.11.37-.12.55,0,.03,0,.04,0,.06-.34-.17-.81-.27-1.12-.4-1.43-.59-2.83-1.26-4.15-2.03,1.11-.71,2.26-1.31,3.5-1.8,1.78-.7,1.05-3.31-.73-2.62-2.1.81-4.06,1.88-5.86,3.26-2.06-3-4.08-6.04-6.05-9.1l-1.12-1.75c.45.52,1.28.84,1.99.34,2.79-1.98,4.08-4.88,4.75-7.97.64-3.08,1.15-6.35,1.1-9.35-.02-1.49-.24-3-.74-4.38-.51-1.38-1.33-2.61-2.44-3.61-1.92-1.66-4.84-2.4-7.62-1.46-.24.08-.44.2-.61.35-.7-.9-1.59-1.7-2.78-1.62-1.95.14-2.76,2.19-3.01,3.73-.11.67-.09,1.45-.15,2.21-1.61-3.38-4-6.27-7.15-8.63-1.44-1.08-3.14,1.28-1.7,2.37,3.45,2.59,5.96,6.12,7.21,10.15.33,1.05,1.43,1.36,2.39.62,2.16-1.65,1.99-4.13,2.27-6.35.03-.23.06-.47.12-.7.03-.1.07-.2.11-.29.13.16.27.32.3.36.23.28.44.56.64.86.76,1.14,1.35,2.39,1.95,3.62.58,1.23,1.28,2.39,1.92,3.59.61,1.11,1.59,2.33,1.92,3.56.16.58-.23.81-.75,1.11-.03.02-.2.1-.35.17l-.26-.41c-.76-1.22-1.43-2.48-2.02-3.79-.72-1.57-3.35-.13-2.62,1.46.45.99.94,1.95,1.48,2.89.44.77.88,1.73,1.58,2.32.22.19.47.3.73.37.03.12.07.23.14.35.77,1.31,1.05,2.69.94,4.27-.07,1.09-.17,2.21.27,3.17-.46-.78-.89-1.56-1.33-2.35l-2.69-4.89c-.83-1.55-3.44-.06-2.6,1.5l2.71,4.93c.46.82.91,1.64,1.39,2.45l1.51,2.37c2.03,3.16,4.11,6.28,6.23,9.37.43.63,1.15.68,1.74.41.05.05.09.1.16.15,1.16.8,2.42,1.54,3.73,2.2,1.3.67,2.64,1.26,4.01,1.72,1.07.36,2.19.35,3.07-.61ZM87.31,573.99c-.08-.11-.17-.23-.25-.35.21.18.4.37.58.56.25.27.49.56.73.85-.41-.28-.77-.69-1.05-1.06ZM80.37,551.11c-.49-.86-.92-1.78-1.35-2.68-.32-.65-.66-1.28-1.03-1.91,1.96-.54,3.85.05,5.07,1.39,1.74,1.77,2.09,4.38,1.98,6.83-.11,2.37-.45,4.84-.89,7.25-.31,1.66-.85,3.45-1.92,4.89.04-.71.17-1.45.12-2.07-.09-1.31-.46-2.51-1.05-3.63.29-.19.56-.38.8-.58,1.45-1.19,1.76-2.77,1.1-4.26-.8-1.8-1.89-3.51-2.84-5.24Z"/><path class="cls-1" d="M102.12,598.83c-1.12-.76-2.11-1.63-3.03-2.58.64-.32,1.26-.7,1.85-1.11.74-.52,1.5-1.14,2.32-1.6.27.33.53.69.75,1.06.38.59.69,1.23.98,1.86l.95,2.13c.34.74.68,1.58,1.18,2.22.6.76,1.63.96,2.58.44.83-.46,1.63-1.01,2.42-1.54,1.54-1.03,3.04-2.13,4.5-3.27,1.52-1.19-.09-3.24-1.62-2.06-1.32,1.02-2.67,2-4.06,2.92-.58.39-1.17.76-1.76,1.13-.07-.15-.15-.29-.22-.44-.98-2.06-1.79-4.16-3.12-5.96.16-.31.21-.67.1-1.04-.64-2.09-1.37-4.13-2.18-6.13.06-.23.06-.47-.03-.68-.31-.74-.68-1.43-1.16-2.05-.4-.52-1.16-.68-1.82-.31-.6.33-1.08,1.1-.8,1.72,1.07,2.35,2,4.78,2.83,7.27,0,0,0,0-.01.01-.92.43-1.79.98-2.64,1.59-1.16.82-2.3,1.68-3.72,1.73-1.08.04-1.76,1.53-1.14,2.29.72.89,1.5,1.74,2.31,2.54.84.78,1.76,1.5,2.7,2.17,1.45,1.03,3.3-1.3,1.86-2.32ZM108.67,598.77s-.03.01-.01,0c0,0,0,0,.01,0Z"/><path class="cls-1" d="M117.32,620.06c-.41-4.48-.73-9.41,2.67-13.22.97-1.09-.43-2.65-1.67-1.93-3.33,1.93-6.99-.12-10.39-.1-.99,0-1.58.81-1.63,1.57l-.84-1.09c-1.07-1.39-3.44.46-2.35,1.86l2.82,3.64c.95,1.21,1.85,2.45,2.87,3.59l5.98,7c.92,1.08,2.68.03,2.55-1.32ZM108.25,608.9l-.99-1.27c.06,0,.13.02.2.02,2.01-.01,3.97.52,5.93.76.76.08,1.52.11,2.28.06-1.13,2.39-1.47,5.01-1.47,7.64l-3.11-3.64c-1.01-1.14-1.91-2.37-2.85-3.56Z"/><path class="cls-1" d="M118.28,615.46c.51.54,1.37.58,2.01.04.37-.31.74-.61,1.12-.9l.58-.42.23-.16.12-.08c.8-.53,1.63-1,2.47-1.43.69-.35,1.1-1.27.79-1.91-.32-.65-1.11-.91-1.85-.54-1.85.92-3.62,2.08-5.22,3.42-.6.5-.75,1.48-.25,2Z"/><path class="cls-1" d="M129.52,616.04c-.5-.57-1.34-.49-1.98,0-3.63,2.84-7.37,5.52-11.22,8.02-.68.44-1.08,1.22-.74,1.96.29.63,1.22,1.03,1.89.58,4.05-2.67,8-5.54,11.83-8.59.64-.51.65-1.47.22-1.99Z"/><path class="cls-1" d="M135.63,633.14c.67-.12,1.23-.59,1.78-1,1.19-.9,2.29-1.9,3.29-3.02.59-.66.72-1.87-.13-2.23-3.66-1.55-6.92-3.84-9.6-6.76-.52-.57-1.84-.5-2.28.36-.44.87-.36,1.51-.17,2.37l.37,1.68c-.69.48-1.09,1.44-.42,2.16,1.79,1.94,3.51,4,5.4,5.84.48.46,1.05.74,1.76.61ZM131.57,625.63c.14-.16.24-.34.29-.56,1.71,1.4,3.56,2.62,5.54,3.61-.36.33-.73.66-1.12.96l-.5.36-.1.07s-.04-.04-.06-.05l-.56-.61-3.51-3.79Z"/><path class="cls-1" d="M126.81,626.24c-.42-.78-1.51-.93-2.24-.26l-2.84,2.62c-1.42,1.31.49,3.31,1.9,1.99l1.48-1.38c1.7,2.68,3.86,5.05,6.03,7.38,1.2,1.29,3.32-.83,2.13-2.11-2.38-2.56-4.78-5.14-6.44-8.24Z"/><path class="cls-1" d="M31.38,395.62c.8-.06,1.5-.64,1.47-1.4-.14-2.96-.16-5.92-.06-8.87.03-.7-.76-1.38-1.53-1.35-.85.03-1.44.6-1.47,1.36-.11,2.98-.09,5.97.06,8.95.03.71.71,1.37,1.53,1.31Z"/><path class="cls-1" d="M33.54,400.15c.2,1.16,1.72,1.71,2.85,1.94.42.09.85.13,1.28.16-.45.78-.96,1.51-1.6,2.17-1.05,1.11-2.33,2.05-3.77,2.78-1.3.66-.49,2.64.95,2.46,1.11-.14,2.06-.52,3.04-1,.72-.34,1.49-.82,2.32-.88.83-.05,1.65.38,2.41.6,1.05.32,2.11.45,3.18.08,1.8-.62.82-3.07-.99-2.47-.66.22-1.39-.15-2-.36-.66-.22-1.34-.41-2.04-.48.94-1.21,1.7-2.55,2.21-3.95.33-.84-.59-1.63-1.49-1.6-.85.03-1.99.13-2.9-.12,1.06-1.77,1.21-3.72.16-5.63-.36-.64-1.42-.78-2.06-.42-.74.41-.85,1.2-.49,1.85.37.67.41,1.47.2,2.19-.26.93-1.42,1.71-1.26,2.68Z"/><path class="cls-1" d="M35.04,421.04c-.12-.86-.9-1.22-1.64-1.14-.75.07-1.46.59-1.34,1.45.22,1.74,3.2,1.41,2.98-.31Z"/><path class="cls-1" d="M38.8,460.62c.85.74,1.89,1.17,3.07.61,1.23-.58,1.91-1.9,2.58-2.93,1.4-2.15,2.57-4.49,2.65-6.97.01-.93-.06-2.03-.74-2.75-.37-.39-.93-.65-1.51-.71-.77-.09-1.42.35-2.14.32-.03,0-.05-.01-.08-.01.02-.02.05-.04.07-.06,2.05-1.97,3.44-4.91,3.96-7.44.26-1.29.14-2.56-.39-3.66-.53-1.1-1.36-2.06-2.67-2.68-1.65-.81-2.84,1.7-1.21,2.49,3.14,1.44.51,6.33-.78,8.24-.17.25-.45.62-.78.99-.35-.96-.56-1.96-1.13-2.85-.49-.78-1.25-1.63-2.26-1.88-1.31-.33-2.52.62-2.97,1.7-.77,1.85.11,4.47,1.45,5.87,1.09,1.14,2.5,1.32,3.86.94.38.33.81.6,1.3.78.66.24,1.37.31,2.09.2.26-.04.61-.1.88-.2.03.14.05.28.06.42.14,1.56-.63,3.18-1.38,4.57-.46.82-.99,1.61-1.53,2.39-.1.15-.24.31-.32.46-.01.03-.02.04-.03.06-.25-.29-.64-.56-.89-.8-.76-.77-1.52-1.56-2.2-2.39-.28-.35-.53-.73-.79-1.09,1.29-.22,2.58-.34,3.9-.31,1.91.03,2.24-2.65.33-2.7-2.25-.06-4.47.18-6.66.75-.75-3.56-1.45-7.14-2.1-10.72l-.36-2.04c.22.65.86,1.26,1.71,1.07,3.33-.75,5.65-2.93,7.46-5.53,1.78-2.6,3.51-5.42,4.62-8.2,1.13-2.77,1.49-5.91.11-8.6-1.13-2.27-3.53-4.08-6.46-4.28-.26-.02-.49.02-.69.09-.29-1.1-.81-2.19-1.94-2.56-1.85-.62-3.39.96-4.22,2.29-.36.57-.64,1.3-.99,1.98-.18-3.74-1.26-7.32-3.26-10.72-.91-1.55-3.39-.02-2.48,1.53,2.18,3.72,3.13,7.94,2.72,12.14-.11,1.09.79,1.8,1.96,1.5,2.63-.69,3.43-3.04,4.55-4.99.12-.2.23-.42.38-.6.06-.08.14-.15.21-.23.05.2.12.4.14.44.1.34.19.69.25,1.04.26,1.35.32,2.73.39,4.09l.41,4.05c.13,1.26.57,2.76.4,4.03-.08.59-.53.66-1.12.74-.03,0-.22.01-.39.03l-.09-.48c-.24-1.42-.36-2.84-.41-4.27-.06-1.73-3.04-1.4-2.98.33.04,1.08.11,2.16.26,3.24.11.88.15,1.94.56,2.75.13.26.32.45.53.62-.02.12-.03.24,0,.38.2,1.51-.07,2.89-.78,4.3-.49,1.01-1.03,2.02-.97,3.09l-.33-2.75-.6-5.55c-.17-1.75-3.15-1.38-2.98.38l.6,5.6.33,2.8.49,2.77c.67,3.69,1.39,7.38,2.16,11.05.16.75.8,1.07,1.45,1.04.03.07.05.13.09.2,1.52,2.37,3.46,4.69,5.62,6.59ZM37.23,444.85c.12.24.23.5.32.74.13.35.24.71.35,1.06-.27-.42-.45-.93-.57-1.38-.03-.13-.07-.28-.1-.42ZM37.68,430.93c1.79-.54,2.69-1.88,2.65-3.51-.05-1.97-.39-3.97-.6-5.93-.22-1.7-.23-3.44-.45-5.15,2.02.26,3.51,1.53,4.16,3.23.94,2.3.25,4.85-.79,7.07-1.01,2.15-2.28,4.3-3.62,6.35-.93,1.41-2.11,2.85-3.65,3.78.31-.64.72-1.27.91-1.86.42-1.24.54-2.5.43-3.76.34-.06.67-.13.97-.22Z"/><path class="cls-1" d="M41.42,473.92c-.72-1.13-1.28-2.33-1.75-3.56.72-.04,1.44-.17,2.14-.32.89-.19,1.83-.47,2.76-.59.33,1.08.36,2.25.42,3.38l.07,2.33c.03.81.03,1.71.25,2.5.26.93,1.15,1.51,2.22,1.4.94-.1,1.89-.31,2.83-.5,1.82-.36,3.63-.8,5.42-1.29,1.86-.52,1.15-3.02-.72-2.52-1.61.43-3.23.82-4.87,1.14-.68.14-1.37.26-2.06.37-.01-.16-.03-.33-.04-.49-.09-1.44-.08-2.89-.22-4.3-.05-.82-.15-1.62-.34-2.41.26-.23.45-.54.49-.92.21-2.18.31-4.34.32-6.49.14-.19.23-.41.23-.64,0-.8-.09-1.58-.29-2.34-.17-.63-.81-1.07-1.56-.99-.68.07-1.42.6-1.39,1.28.09,2.58.03,5.18-.16,7.8,0,0-.01,0-.02,0-1.01.05-2.03.22-3.05.45-1.38.31-2.77.67-4.1.17-1.02-.38-2.21.74-1.93,1.68.33,1.1.72,2.18,1.17,3.23.23.53.46,1.05.72,1.56.28.51.58,1,.88,1.49.95,1.51,3.55.07,2.6-1.43ZM47.51,476.36s0,0,0,0c-.03,0-.03,0,0,0Z"/><path class="cls-1" d="M47.36,499.34c1.32-4.28,2.89-8.96,7.48-11.17.66-.32.8-.97.63-1.52-.16-.56-.67-1.01-1.38-.92-3.79.5-6.42-2.79-9.57-4.07-.91-.38-1.77.15-2.11.82l-.37-1.32c-.47-1.69-3.36-.9-2.89.81l2.45,8.87,2.87,8.75c.45,1.35,2.47,1.05,2.87-.24ZM43.02,484.09c2.59,1.04,4.67,3.02,7.23,3.92-1.98,1.78-3.28,4.06-4.27,6.48l-1.49-4.55-1.65-5.95c.06.03.11.07.18.09Z"/><path class="cls-1" d="M49.98,495.47c.27.69,1.05,1.06,1.85.8.46-.15.92-.28,1.38-.4l.7-.17.27-.06.15-.03c.94-.18,1.89-.3,2.84-.38.78-.06,1.5-.76,1.45-1.46-.05-.72-.68-1.26-1.51-1.21-2.07.15-4.14.54-6.14,1.16-.75.23-1.26,1.07-.99,1.75Z"/><path class="cls-1" d="M60.19,500.29c-.24-.72-1.05-.97-1.84-.75-4.44,1.23-8.92,2.28-13.45,3.12-.79.15-1.46.71-1.43,1.52.03.69.74,1.42,1.53,1.26,4.77-.92,9.51-2.06,14.2-3.39.78-.22,1.2-1.12.99-1.76Z"/><path class="cls-1" d="M57.65,504.13c-.74.64-.9,1.26-1.06,2.12l-.3,1.69c-.82.18-1.55.91-1.21,1.83.93,2.47,1.74,5.02,2.81,7.44.27.61.69,1.08,1.4,1.23.67.14,1.37-.07,2.03-.25,1.45-.38,2.84-.88,4.2-1.53.8-.39,1.38-1.45.72-2.11-2.81-2.83-4.97-6.18-6.36-9.88-.28-.72-1.51-1.17-2.25-.54ZM61.23,515.45l-.6.15-.12.03s-.03-.05-.03-.07l-.29-.78-1.82-4.83c.19-.09.36-.22.48-.4,1.06,1.94,2.32,3.77,3.78,5.44-.46.17-.93.33-1.4.46Z"/><path class="cls-1" d="M53.72,508.7c-.09-.87-1.05-1.43-1.99-1.09l-3.63,1.33c-1.81.66-.8,3.24,1.01,2.56l1.89-.71c.57,3.13,1.67,6.13,2.8,9.1.63,1.65,3.4.5,2.78-1.14-1.24-3.26-2.49-6.56-2.86-10.05Z"/><path class="cls-1" d="M196.79,93.88c.22-.41.44-.82.65-1.23.95-1.78,2.14-4.01,2.73-6.28,1.61-1.05,3.19-2.15,4.73-3.32.89-.68.9-2.47-.46-2.73-1.41-.27-2.21.13-3.01,1.29-.1.14-.15.28-.19.42-.26.19-.53.37-.79.55,0,0,0-.01,0-.02-.59-3.73-3.77-4.41-7.32-3.87-1.77.27-3.65.83-5.28,1.49-1.6.71-3,1.47-3.9,2.03-2.69,1.68-6.53,4.4-7.18,7.71-.5,2.57,1.15,4.82,3.75,5.15,3.56.45,7.26-1.58,10.33-3.27.77.81,1.54,1.62,2.32,2.41-.93,1.51-1.96,2.94-3.11,4.25-1.13,1.29-2.47,2.76-4.37,2.66-2.03-.1-3.54-1.81-3.49-3.86.05-1.87-2.86-2.46-2.91-.57-.06,2.76,1.17,5.42,3.84,6.7,3.06,1.47,5.95.31,8.09-1.78,1.56-1.51,2.91-3.31,4.11-5.22,1.16,1.16,2.34,2.31,3.53,3.45.69.66,1.47.45,1.91-.1.45-.54.57-1.38-.12-2.06-1.3-1.27-2.57-2.55-3.84-3.83ZM188.31,83.26c.93-.46,3.12-1.31,5.13-1.61,2.01-.31,3.84-.08,4.17,1.67.07.36.07.74.04,1.14-2.05,1.31-4.16,2.53-6.3,3.69-1.19-1.3-2.37-2.61-3.53-3.95-.18-.2-.38-.34-.59-.43.36-.18.72-.35,1.08-.52ZM186.89,90.43c-1.32.61-2.68,1.19-4.11,1.52-1,.23-1.6.43-2.44-.33-1.05-.94-.54-1.74.33-2.8,1.2-1.45,2.73-2.73,4.38-3.79,0,.27.11.56.36.83,1.09,1.23,2.19,2.45,3.3,3.66-.6.31-1.21.61-1.82.9ZM193.42,90.38c.9-.5,1.79-1.01,2.68-1.52-.46.9-.93,1.73-1.28,2.4-.06.13-.14.25-.2.38-.4-.42-.8-.84-1.2-1.26Z"/><path class="cls-1" d="M218.82,84.76c-1.19.58-2.41,1.13-3.62,1.69.04-.28,0-.6-.19-.93-.1-.19-.21-.38-.32-.56,1.24-.34,2.5-1.43,3.47-2,1.56-.9.15-3.49-1.47-2.62-.94.48-1.86.99-2.78,1.49-.06-.06-.13-.12-.21-.19l-.96-1.18c-.31-.38-.66-.53-1-.52-2.77-4.45-5.84-8.72-9.23-12.76-1.26-1.51-3.3.73-2.06,2.18,3.82,4.47,7.2,9.25,10.23,14.3-3.22,1.88-6.39,3.84-9.59,5.75-1.57.95.05,3.47,1.6,2.54,3.17-1.9,6.31-3.84,9.51-5.7.12.22.25.43.37.65.14.25.32.43.52.55-.16.08-.33.15-.49.23-2.04,1.04-4.09,2.05-6.16,3.04-1.63.78-.03,3.32,1.57,2.56,2.06-.98,4.09-1.98,6.11-3.01,2.02-1.02,4.13-1.9,6.17-2.9,1.61-.76.16-3.39-1.47-2.62Z"/><path class="cls-1" d="M199.38,75.68s.01,0,.02.01c.03.03.06.06.09.09.02.03.04.06.06.1.37.69,1.4.94,2.02.51.69-.47.87-1.31.48-2.06-.28-.54-.76-1.01-1.3-1.29-.68-.37-1.65-.14-2,.6-.34.72-.12,1.64.61,2.03Z"/><path class="cls-1" d="M235.76,67.52c-.52-1.18-2.17-3.81-2.4-5.41.63-.9.09-2.27-.91-2.43.56-1.21,1.14-2.41,1.78-3.59.53-.98-.13-2.76-1.47-2.33-3.82,1.2-7.61,2.53-11.36,3.99-.94.37-1.87.74-2.81,1.12-.92.41-1.82.85-2.73,1.28-1.81.88-3.6,1.79-5.39,2.73-1.7.9-.24,3.52,1.44,2.63,1.71-.9,3.43-1.77,5.16-2.62l2.61-1.25c.89-.37,1.79-.73,2.69-1.08,2.54-.99,5.11-1.9,7.68-2.77-.62,1.3-1.18,2.6-1.71,3.93-1.74.99-3.49,1.95-5.26,2.86-.31.15-.6.32-.9.47-.35-.7-.69-1.4-1.03-2.11-.84-1.79-3.43-.35-2.59,1.39.34.71.69,1.4,1.04,2.1-.27.15-.54.3-.81.44-1.43.76-2.88,1.5-4.34,2.21-1.7.83-.23,3.45,1.44,2.63,1.45-.71,2.88-1.44,4.3-2.19.27-.14.54-.3.81-.44.8,1.46,1.64,2.9,2.52,4.32.31.5.76.71,1.2.73-.18,1.12-.28,2.26-.26,3.35-1.41-1.07-2.79-2.19-4.15-3.37-1.43-1.24-3.5.78-2.04,2.03,2.48,2.13,5.02,4.11,7.66,5.96,1.21.84,2.6-.63,1.92-1.92-1.03-1.96-.33-4.58.06-6.53.38-2.02.87-4.02,1.47-6,.39-1.3.84-2.58,1.32-3.86.06-.04.13-.08.19-.11.16.39.34.76.5,1.12l3.31,7.37c-1.35.05-2.65.43-3.9,1.22-1.52.97-.18,3.65,1.34,2.68,1.36-.87,2.79-1.23,4.43-.81,1.18.3,2.25-.72,1.69-2l-2.52-5.74ZM226.16,68.24c-.24.82-.5,1.75-.76,2.72-.63-1.07-1.25-2.15-1.84-3.25.3-.15.58-.32.88-.46.8-.41,1.59-.85,2.38-1.27-.24.75-.46,1.5-.67,2.26Z"/><path class="cls-1" d="M249.78,63.01c.77-.33.96-1.16.73-1.94-.48-1.58-1.08-3.11-1.8-4.6-.84-1.73-3.53-.6-2.66,1.13.73,1.48,1.34,3.01,1.84,4.58.24.77,1.25,1.1,1.9.82Z"/><path class="cls-1" d="M261.83,58.57c-1.01.36-2.03.72-3.04,1.09,0-.13.02-.26.01-.39-.06-1.51-.54-3.07-1.6-4.59-1.83-2.64-4.85-3.64-7.8-4.08-1.83-.27-3.69-.35-5.55-.34-1.57,0-3.5-.18-5.02.29-2.77.86-2.13,4.7-1.22,6.81.49,1.15,1.22,2.21,2.35,2.82,1.39.76,3.56.24,4.63,1.36,1.32,1.38,3.55-.41,2.23-1.82-1.29-1.37-2.46-1.38-4.17-1.82-1.74-.45-2.42-1.26-2.7-3.03-.35-2.17-.23-1.13.86-1.53,1-.37,2.91-.12,3.95-.1,1.15.02,2.3.09,3.43.23,2.15.26,4.52.66,6.12,2.28,1.56,1.6,1.91,3.39,1.54,5.1l-2.59,1.11c-2.82,1.22-5.63,2.47-8.43,3.75-1.66.76-.43,3.49,1.22,2.74,2.44-1.11,4.89-2.19,7.34-3.26-.99,1.06-2.13,1.93-3.21,2.49-1.44.74-4.82,2.64-6.5,1.97-.81-.32-1.33-2.28-1.64-3-.48-1.1-.94-2.21-1.38-3.32-.72-1.82-3.31-.54-2.59,1.25.96,2.39,2.14,7.22,4.9,7.93,1.36.33,2.99.1,4.55-.39,1.56-.49,3.06-1.24,4.21-1.86,2.5-1.35,4.88-3.74,6.14-6.56.08-.17.13-.35.2-.52l.53-.23c1.42-.56,2.86-1.04,4.3-1.56,1.71-.6.66-3.41-1.07-2.8Z"/><path class="cls-1" d="M212.49,75.42c1.16,1.54,3.19-.5,2.05-2.04-1.35-1.82-2.79-3.55-4.34-5.2-1.32-1.41-3.44.66-2.1,2.06,1.56,1.64,3.02,3.37,4.38,5.17Z"/><path class="cls-1" d="M281.64,48.46c-1.74-.05-3.86,1.11-5.5,1.64l-3.33,1.08-2.81,1.06c.66-.42,1.34-.83,2.02-1.23,3.3-1.81,6.78-3.31,9.99-5.27,1.04-.62.75-2.49-.47-2.72-3.14-.58-6.33-.95-9.52-1.03-.38-.95-.74-1.92-1.05-2.9-.58-1.85-3.43-.95-2.82.93.22.67.46,1.33.72,1.98-3.92.24-7.85.86-11.76,1.83-1.04-.28-2.35,1.07-1.63,2.37,1.98,3.59,3.67,7.31,5.14,11.13.43,1.12,1.76,1.26,2.47.47.66-.73,1.37-1.41,2.1-2.05.74,2,1.6,3.97,2.3,5.86.67,1.81,3.28.85,2.63-.97-.77-2.15-1.82-4.45-2.59-6.75.42-.31.85-.6,1.29-.9-.13.22-.19.48-.18.73-.13.3-.17.67-.03,1.08.84,2.54,1.87,6.66,4.94,5.76,2.01-.63,4.03-1.38,6.04-2.01,1.72-.54,3.96-.84,5.43-1.92.36-.27.71-.78.63-1.29-.27-1.64-1.16-3.22-1.81-4.74-.5-1.16-.83-2.11-2.18-2.14ZM266.61,50.09c-.22-1.92-3.13-1.7-2.89.21.1.8.28,1.61.49,2.41-.6.48-1.19.99-1.76,1.52-1.07-2.65-2.25-5.24-3.55-7.78,3.39-.79,6.82-1.3,10.24-1.49.33-.03.66-.03.99-.04.12.26.24.52.37.77.36.72,1.44.81,2.04.43.44-.28.61-.7.61-1.15.64.04,1.27.08,1.9.13.53.05,1.06.12,1.59.18-.46.24-.92.49-1.39.72-1.74.9-3.51,1.71-5.18,2.75-1.13.67-2.24,1.36-3.32,2.1-.05-.26-.1-.52-.13-.77ZM276.02,56.53c-.72.19-2.48,1.23-3.16.99-.48-.17-.96-1.61-1.28-2.68l1.76-.66c.94-.36,1.91-.63,2.86-.95,1.46-.47,3.38-1.43,5.03-1.71.51.9,1.06,2.06,1.37,3.02-.85.33-1.86.5-2.63.75l-3.94,1.24Z"/><path class="cls-1" d="M307.24,28.87c-1.42,1.26.6,3.49,2.01,2.23,2.18-1.93,3.67,1.73,3.72,3.41.06,1.87-.42,3.76-1.46,5.27-1.91,2.78-5.37,4.21-8.45,5.01-.46.11-.99.19-1.54.25-.65-1.95-1.27-3.91-1.83-5.89-.53-1.85-3.36-1.13-2.81.73.53,1.77,1.09,3.53,1.68,5.28-.96-.03-1.95-.11-2.94-.27l-2.66-7.54c-.64-1.81-3.5-1.08-2.83.73l2.17,5.98c-1.57-.54-3.01-1.28-4.13-2.29-1.24-1.1-2.07-2.53-2.22-4.39-.14-1.93-3.1-1.85-2.93.08.24,2.81,1.61,4.93,3.49,6.5.95.79,2.01,1.42,3.15,1.98,1.14.57,2.35,1.03,3.54,1.38.1.03.2.05.3.07l.81,2.23c-.36.05-.72.11-1.08.15-.81.09-1.63.18-2.45.26-.81.1-1.62.21-2.43.32-1.8.22-1.69,3.22.1,3,.84-.11,1.67-.22,2.5-.33.83-.11,1.68-.18,2.52-.28.63-.07,1.25-.18,1.88-.26l.37,1.01c.65,1.8,3.34,1.13,2.7-.7l-.25-.7c.1-.02.2-.03.3-.04.96-.15,1.91-.32,2.86-.5.63.31,1.41.14,1.8-.35,1.74-.36,3.47-.74,5.2-1.16,1.76-.35,1.11-3.28-.68-2.92-1.66.39-3.33.77-4.99,1.12-.04-.1-.07-.21-.11-.31.71-.12,1.41-.26,2.1-.46,1.23-.34,2.42-.85,3.58-1.37,4.63-2.18,7.99-6.51,7.63-12.17-.25-4.28-4.66-8.53-8.6-5.06ZM298.07,49.09c-.31.05-.62.08-.93.13l-.42-1.19c.97.12,1.94.16,2.91.14.07.2.14.4.22.6-.59.11-1.19.21-1.78.31Z"/><path class="cls-1" d="M297.07,33.08c-.03.37.06.76.34,1.11,1.95,2.48,4.04,4.79,6.27,6.95.6.58,1.35.53,1.86.13.51-.39.79-1.09.43-1.88-.82-1.79-1.14-3.72-.83-5.64.2-1.25,1.32-2.73.93-4-.32-1.03-1.27-1.35-2.23-1.16-2.09.42-4.01,1.54-6.13,1.99-1.29.29-1.33,1.75-.64,2.5ZM302.42,32.33s-.02.07-.03.11c-.19.9-.29,1.84-.28,2.76-.62-.71-1.23-1.43-1.83-2.17.53-.15,1.06-.31,1.58-.49.19-.07.38-.14.57-.21Z"/><path class="cls-1" d="M346.8,23.9c-4.43-1.66-9.51-.68-14.05.09l-8.23,1.27-4.11.66-4.08.86c-.46.1-.76.35-.94.66-.88.49-1.3,1.87-.19,2.57,1.38.88,2.77,1.71,4.18,2.49.41.22.82.44,1.23.65-.14.17-.28.33-.41.51-3.64,4.99.7,10.1,4.15,13.37,1.36,1.32,2.93-1.08,1.58-2.39-2.5-2.47-6.25-6.44-2.83-9.77.1-.09.2-.16.3-.25.09.05.19.1.28.15,1.91.95,5.48,3.47,7.58,2.44,1.05-.51,1.88-1.89,2.68-2.7.8-.81,1.66-1.57,2.54-2.3.15.03.3.06.45.09.74.17,1.47.37,2.17.64.71.28,1.4.6,2.07.96,1.55.84,3.57,2.49,2.34,4.44-1.1,1.78-3.52,1.63-5.27,1.6-1.81-.08-2.15,2.9-.34,2.98,1.93.04,4.43-.25,6.29-1.3,1.86-1.06,3.09-2.87,2.45-5.67-.56-2.44-2.57-4.12-4.99-5.25-.64-.3-1.32-.57-1.99-.8,2.22-1.35,4.61-2.37,7.11-3.23,1.16-.39,1.23-2.32.06-2.76ZM320.47,28.97c1.2-.23,2.41-.4,3.61-.6l7.23-1.13c2.19-.32,4.68-.95,7.17-1.24.76-.07,1.52-.1,2.27-.11-.87.43-1.72.87-2.55,1.36-.86.55-1.68,1.15-2.49,1.77-.47-.06-.92-.12-1.34-.16-2.42-.23-5.18-.06-7.74.67-1.28.37-2.5.87-3.6,1.54-.01,0-.03.02-.04.03-.65-.35-1.3-.71-1.94-1.09-.5-.27-1-.56-1.49-.85l.91-.19ZM331.82,32.46c-.37.38-.73.76-1.07,1.16-.72.84-.51.61-1.43.49-.91-.12-2.01-.73-2.98-1.26,1.93-.78,4.09-1.1,6.1-1.08.03,0,.07,0,.1,0-.24.23-.48.45-.71.69Z"/><path class="cls-1" d="M328.96,39.37c-.26-1.91-3.09-1.47-2.81.44l1,6.91c.28,1.91,3.02,1.48,2.76-.43l-.94-6.92Z"/><path class="cls-1" d="M332.35,38.78c-.6-1.83-3.2-.6-2.59,1.21.56,1.66,1.02,3.34,1.41,5.06.42,1.87,3.17,1.46,2.77-.43-.42-1.97-.95-3.92-1.58-5.84Z"/><path class="cls-1" d="M366.56,38.28c.4-.24.79-.49,1.18-.74,1.34-.87,2.93-1.91,4.35-3.15.39-.34.76-.69,1.12-1.05.65-.03,1.31-.07,1.96-.1,1.28-.08,2.55-.19,3.83-.33,1.11-.12,2.02-1.65.97-2.57-1.09-.96-1.98-1.02-3.25-.44-.14.07-.25.15-.35.24-.33.03-.65.05-.98.08,0,0,0,0,0,0,.68-1.75.42-3.18-.43-4.34-.85-1.16-2.29-2.1-3.96-2.67-3.34-1.22-7.58-1.53-9.71-1.5-1.59.02-3.56.12-5.4.52-1.85.42-3.57,1.26-4.67,2.55-1.71,2.02-1.41,4.8.67,6.33.8.59,1.7,1.01,2.66,1.31.48.15.98.27,1.49.37.51.12,1.03.22,1.55.3,1.65.25,3.33.32,4.87.38.26,1.09.52,2.18.8,3.26-1.56.8-3.17,1.49-4.83,2.02-1.63.48-3.51,1.16-5.11.17-1.7-1.06-2.15-3.29-1.09-5.07.97-1.62-1.25-3.53-2.23-1.89-1.43,2.41-1.69,5.34-.03,7.74,1.91,2.79,4.98,3.07,7.87,2.34,2.11-.5,4.18-1.31,6.18-2.32.42,1.6.86,3.19,1.32,4.77.53,1.85,3.14.9,2.63-.95-.49-1.74-.95-3.48-1.4-5.23ZM372.56,29.38c-.13.36-.32.71-.56,1.05-2.42.14-4.85.21-7.27.14-.38-1.73-.74-3.46-1.08-5.2-.05-.26-.16-.48-.29-.67.4.03.8.07,1.19.11,2.1.25,9.21,1.16,8.01,4.56ZM359.72,30.22c-1.45-.16-2.92-.39-4.33-.81-.98-.27-1.59-.39-1.94-1.45-.43-1.33.4-1.79,1.69-2.31,1.77-.64,3.74-.94,5.7-.99-.13.23-.18.53-.11.9.33,1.63.67,3.25,1.03,4.87-.68-.05-1.36-.11-2.04-.2ZM365.4,33.53c1.03.02,2.06.03,3.09.01-.85.57-1.68,1.07-2.31,1.49-.12.08-.25.15-.37.22-.14-.57-.27-1.15-.41-1.72Z"/><path class="cls-1" d="M390.57,36.4c-1.05-.03-2.1-.02-3.15-.02-.02-.08-.05-.17-.09-.28l-.24-1.49c-.08-.48-.31-.78-.61-.94-.16-5.24-.68-10.44-1.59-15.61-.33-1.89-3.22-1.06-2.87.83,1.06,5.78,1.59,11.62,1.68,17.48-.72,0-1.44,0-2.16,0-3.01.02-6.02-.02-9.03.04-1.83.09-1.7,3.09.11,3,2.98-.06,5.97-.02,8.95-.04.71,0,1.42,0,2.14,0,0,.26,0,.53,0,.79,0,.28.06.52.16.72-2.46-.17-4.92-.37-7.39-.61-1.8-.17-1.69,2.83.08,3,4.54.46,9.06.75,13.59,1.01,1.78.17,1.84-2.83.04-3-1.32-.08-2.65-.16-3.97-.24.18-.23.29-.53.3-.91,0-.21,0-.43,0-.64,1.25.28,2.88-.11,4-.09,1.8.03,1.88-2.91.05-3Z"/><path class="cls-1" d="M377.93,23.77s.03.08.04.13c0,.04,0,.08,0,.11-.03.79.74,1.53,1.49,1.48.83-.05,1.41-.67,1.44-1.52.03-.61-.15-1.26-.47-1.77-.41-.67-1.36-.97-2.03-.52-.66.44-.93,1.35-.49,2.06,0,0,0,.02.01.02Z"/><path class="cls-1" d="M414.55,26.51c1.09-.75,2.19-1.49,3.34-2.18.95-.57,1.27-2.44-.11-2.76-1.95-.46-3.91-.89-5.88-1.28-.99-.19-1.98-.38-2.96-.57l-1.48-.27-1.49-.19c-3.98-.48-7.99-.83-12.02-1.05-1.92-.1-1.97,2.9-.07,3,3.86.21,7.71.54,11.53.99,1.91.19,3.81.59,5.7.95.78.16,1.55.34,2.33.51-1.03.69-2.03,1.41-3.01,2.16-.15.11-.29.23-.44.34-2.34-.02-4.68-.05-7.01-.11.05-.77.1-1.55.17-2.32.17-1.93-2.79-2.03-2.94-.11-.06.78-.11,1.56-.15,2.34-1.93-.08-3.86-.19-5.79-.36-1.88-.16-1.93,2.84-.08,3,1.92.17,3.83.28,5.75.36-.04,1.67-.03,3.33.01,5,.02.59.3,1,.67,1.25-.72.87-1.37,1.78-1.9,2.73-.68-1.65-1.33-3.31-1.9-5.01-.61-1.8-3.42-1.13-2.78.7,1.08,3.1,2.28,6.11,3.64,9.05.62,1.34,2.56.8,2.63-.66.09-2.2,2.01-4.09,3.33-5.66,1.34-1.58,2.78-3.17,4.28-4.54.99-.92,2.02-1.79,3.08-2.64.07,0,.15,0,.22,0-.05.42-.09.83-.13,1.22l-.83,8.03c-1.19-.65-2.51-.99-3.98-.94-1.81.14-1.99,3.13-.18,2.99,1.61-.06,3.03.37,4.24,1.56.87.86,2.31.53,2.46-.85l.7-6.23c.15-1.28.03-4.38.63-5.88,1-.45,1.22-1.91.43-2.55ZM404.83,30.74c-.62.63-1.32,1.32-2.02,2.05,0-1.25,0-2.5.04-3.75,1.22.03,2.43.06,3.65.07-.56.52-1.12,1.06-1.66,1.63Z"/><path class="cls-1" d="M429.49,36.74c.38-1.61.63-3.23.75-4.88.14-1.92-2.75-2.32-2.87-.38-.11,1.65-.34,3.27-.71,4.88-.18.79.53,1.58,1.23,1.68.83.11,1.41-.51,1.6-1.3Z"/><path class="cls-1" d="M440.55,40.21c-1.06-.19-2.12-.35-3.18-.5.83-1.43,1.29-3.13,1.11-5.1-.27-3.14-2.38-5.54-4.71-7.43-1.44-1.17-3.02-2.18-4.63-3.12-1.36-.79-2.94-1.95-4.48-2.3-2.84-.54-4.21,3.15-4.48,5.42-.15,1.25-.05,2.52.62,3.59.82,1.33,2.97,1.84,3.33,3.39.45,1.86,3.27,1.46,2.84-.43-.43-1.84-1.44-2.44-2.69-3.69-1.28-1.25-1.47-2.25-.82-3.95.79-2.06.37-1.13,1.52-.92,1.05.19,2.58,1.38,3.46,1.92.98.6,1.94,1.25,2.85,1.94,1.73,1.32,3.58,2.88,4.15,5.08.55,2.18-.04,3.89-1.22,5.18-.93-.12-1.86-.24-2.79-.36-3.05-.37-6.1-.78-9.16-1.04-1.83-.11-2.13,2.88-.32,2.98,2.67.22,5.34.56,8,.89-1.39.41-2.82.58-4.04.51-.81-.04-2.18-.1-3.49-.3-1.32-.15-2.57-.47-3.13-1.16-.54-.66,0-2.63.08-3.41.13-1.19.3-2.38.47-3.57.29-1.91-2.59-2.15-2.86-.24-.37,2.55-1.76,7.31.27,9.34,1.01,1.01,2.54,1.56,4.15,1.85,1.61.28,3.27.47,4.58.5,2.84.11,6.09-.73,8.59-2.52.15-.11.29-.23.44-.35,1.7.22,3.4.46,5.09.77,1.78.35,2.27-2.61.48-2.96Z"/><path class="cls-1" d="M391.05,22.62c-.44-1.93-3.3-1.1-2.85.78.53,2.19.92,4.4,1.2,6.63.23,1.87,3.01,1.19,2.8-.72-.26-2.25-.64-4.48-1.15-6.69Z"/><path class="cls-1" d="M465.38,36.64c-2.41-2.16-5-4.03-7.74-5.65.15-1.03.33-2.05.55-3.06.42-1.89-2.52-2.42-2.92-.53-.15.69-.27,1.38-.37,2.08-3.5-1.81-7.22-3.24-11.07-4.4-.76-.78-2.57-.28-2.6,1.24-.08,4.07-.48,8.15-1.12,12.19-.19,1.18.89,1.98,1.9,1.66.94-.29,1.89-.52,2.84-.7-.36,2.1-.6,4.24-.94,6.22-.32,1.9,2.41,2.41,2.76.5.41-2.25.65-4.76,1.14-7.14.52-.05,1.04-.09,1.57-.12-.23.13-.4.32-.53.55-.27.19-.48.49-.56.91-.54,2.62-1.71,6.7,1.39,7.48,2.04.54,4.2.71,6.25,1.2,1.75.4,3.85,1.29,5.66,1.09.44-.05,1-.32,1.19-.8.58-1.55.61-3.37.8-5.02.15-1.26.33-2.24-.82-2.96-1.48-.92-3.89-1-5.58-1.38-2.13-.43-4.29-.77-6.43-1.15,4.54-.14,9.16.32,13.68.36,1.21-.01,1.9-1.77.95-2.59ZM460.87,43.84c0,1.03-.12,2.31-.32,3.3-.9-.14-1.86-.51-2.65-.69-1.34-.3-2.68-.64-4.04-.85-.73-.13-2.77-.14-3.24-.7-.33-.39-.03-1.88.23-2.97l4.82.84c1.5.31,3.64.46,5.2,1.06ZM452.57,35.94c-1.31,0-2.62.04-3.92.12.09-.25.17-.5.27-.73.76-1.77-1.86-3.06-2.61-1.29-.31.75-.56,1.53-.78,2.33-.76.11-1.52.25-2.28.41.4-2.83.67-5.66.82-8.52,3.33,1.04,6.54,2.34,9.6,3.92.29.16.58.31.87.47-.02.28-.05.57-.07.85-.05.81.85,1.41,1.56,1.35.52-.04.88-.33,1.11-.72.54.33,1.07.67,1.59,1.05.44.31.85.64,1.28.96-.52-.03-1.04-.05-1.56-.08-1.95-.12-3.93-.11-5.88-.12Z"/><path class="cls-1" d="M494.73,37.19c-1.86.38-1.22,3.32.63,2.94,2.85-.58,2.31,3.35,1.52,4.82-.89,1.65-2.24,3.05-3.89,3.82-1.52.73-3.2.94-4.9.93-1.71.01-3.41-.29-4.93-.76-.45-.14-.95-.34-1.46-.56.41-2.01.85-4.02,1.35-6.02.47-1.87-2.34-2.67-2.79-.79-.43,1.8-.82,3.6-1.18,5.41-.81-.51-1.63-1.08-2.41-1.72l1.46-7.87c.35-1.89-2.49-2.71-2.82-.8l-1.11,6.27c-1.09-1.26-1.99-2.55-2.45-3.96-.52-1.57-.53-3.23.28-4.92.84-1.74-1.75-3.17-2.58-1.42-2.38,5.12.47,10.05,3.92,13.56.07.07.15.14.22.21l-.41,2.34c-.34-.14-.68-.27-1.01-.41-1.51-.61-3.03-1.2-4.54-1.86-1.67-.72-3.07,1.92-1.41,2.64,1.55.67,3.11,1.31,4.68,1.91.58.25,1.17.49,1.75.74l-.18,1.04c-.34,1.89,2.32,2.66,2.69.76l.14-.73c.09.04.19.08.28.11.9.35,1.8.66,2.7.98.39.61,1.16.87,1.75.64,1.68.57,3.37,1.11,5.08,1.61,1.73.5,2.62-2.37.87-2.87-1.64-.47-3.27-.99-4.89-1.53.02-.11.04-.22.06-.33,1.86.71,3.82,1.15,5.84,1.23,5.12.38,10.16-1.62,12.68-6.73,1.91-3.83.22-9.73-4.91-8.72ZM478.38,50.76c-.57-.21-1.14-.4-1.7-.61-.29-.11-.58-.24-.87-.35l.23-1.24c.78.59,1.6,1.12,2.45,1.6-.04.2-.07.41-.11.61Z"/><path class="cls-1" d="M483.55,36.94c.45,3.13,1.11,6.18,1.96,9.18.46,1.62,2.71,1.31,2.86-.39.18-1.94.86-3.78,2.1-5.32.81-1.02,2.52-1.76,2.81-3.04.24-1.06-.42-1.81-1.37-2.07-2.05-.6-4.24-.67-6.3-1.33-1.26-.4-2.03.84-1.8,1.84-.21.3-.33.68-.26,1.13ZM488.81,37.85s-.05.05-.08.08c-.62.68-1.17,1.44-1.62,2.25-.19-.93-.35-1.86-.5-2.8.53.14,1.07.27,1.61.38.2.04.4.07.6.1Z"/><path class="cls-1" d="M522.27,54.25c2.62-.1,5.19.23,7.78.75,1.2.25,2.22-1.39,1.43-2.37-1.5-1.84-3.48-3.17-5.61-4.27-2.16-1.02-4.49-1.78-6.62-2.64l-7.75-3.04-1.94-.75-1.97-.66-3.96-1.3c-.44-.15-.83-.08-1.15.1-1.01-.02-2.05.97-1.45,2.12.97,1.87,2.01,3.68,3.11,5.44-.2.07-.41.14-.61.23-5.63,2.48-4.43,9.1-3.07,13.66.27.89,1.05.98,1.69.65.64-.32,1.16-1.1.9-2-.96-3.3-2.24-8.59,2.4-9.85.13-.03.27-.04.4-.07.06.08.11.17.17.25,1.18,1.76,3.02,5.76,5.34,5.92,1.17.09,2.57-.69,3.67-.99,1.1-.3,2.22-.53,3.34-.72,1.25,1.11,2.36,2.37,3.25,3.74.93,1.51,1.85,3.95-.19,5.03-1.82.93-3.9-.24-5.39-1.19-1.53-.98-3.3,1.43-1.78,2.41,3.29,1.99,9.35,3.79,11.06-1.72.73-2.39-.18-4.86-1.7-7.06-.41-.59-.87-1.14-1.35-1.66ZM506.1,45.14c-.3-.49-.58-.99-.87-1.49,1.46.47,2.91.95,4.34,1.5l6.82,2.66c2.06.82,4.51,1.56,6.83,2.52.7.28,1.37.62,2.02.98-.28-.02-.55-.05-.83-.06-.69,0-1.38,0-2.07.04-1.02.05-2.03.15-3.04.28-.37-.29-.73-.56-1.07-.81-1.98-1.41-4.45-2.66-7.03-3.31-1.29-.32-2.59-.51-3.88-.47-.02,0-.03,0-.05,0-.4-.61-.79-1.22-1.16-1.84ZM514.23,52.59c-.5.14-1.01.29-1.5.46-1.04.36-.74.27-1.48-.3-.73-.56-1.38-1.65-1.95-2.59,2.06.29,4.09,1.12,5.81,2.14.03.02.06.04.08.05-.32.08-.64.15-.96.24Z"/><path class="cls-1" d="M505.66,56.1l-2.58,6.48c-.71,1.8,1.87,2.8,2.6,1.02l2.63-6.46c.73-1.79-1.94-2.83-2.65-1.03Z"/><path class="cls-1" d="M508.69,58.08c-.34,1.72-.78,3.41-1.3,5.09-.57,1.84,2.01,2.86,2.61,1.02.62-1.92,1.13-3.88,1.54-5.85.39-1.89-2.47-2.14-2.84-.25Z"/><path class="cls-1" d="M549.67,74c.59.28,1.19.55,1.78.83,1.14.57,2.3,1.12,3.47,1.64,1.02.45,2.57-.41,2.12-1.74-.46-1.38-1.2-1.88-2.59-2.02-.17-.02-.32,0-.46.03-.29-.14-.59-.28-.88-.42,0,0,.02-.01.03-.02,1.46-1.17,1.95-2.54,1.8-3.98-.16-1.42-1-2.86-2.14-4.23-2.28-2.73-5.79-5.14-7.65-6.19-1.4-.76-3.11-1.74-4.96-2.22-1.84-.5-3.72-.68-5.33-.11-2.49.89-3.61,3.45-2.57,5.82.79,1.82,2.28,3.28,3.97,4.52,1.31,1.02,2.73,1.94,4.03,2.77-.32,1.07-.63,2.15-.94,3.23-1.75-.09-3.48-.3-5.18-.68-1.7-.3-3.66-.68-4.54-2.34-.94-1.77-.22-3.93,1.58-4.94,1.65-.92.68-3.69-.98-2.76-2.44,1.36-4.12,3.77-3.88,6.69.27,3.35,2.76,5.21,5.66,5.94,2.09.59,4.29.93,6.51,1.06-.43,1.6-.84,3.2-1.24,4.8-.46,1.87,2.27,2.36,2.75.5.44-1.75.91-3.49,1.4-5.24.46,0,.93-.03,1.39-.05,2.03-.1,4.56-.25,6.83-.9ZM551.06,70.26c-.28.24-.63.44-.99.61-.8-.39-1.59-.79-2.37-1.21-1.36-.73-2.69-1.5-4-2.32.53-1.69,1.08-3.37,1.66-5.05.09-.25.11-.5.08-.73.33.23.66.46.97.7,1.69,1.27,7.39,5.64,4.65,7.98ZM539.54,64.52c-.59-.43-1.17-.89-1.74-1.35-.58-.45-1.13-.92-1.64-1.44-.71-.73-1.18-1.14-.95-2.24.29-1.37,1.24-1.35,2.61-1.15.77.11,1.55.28,2.31.52.75.26,1.49.57,2.22.93.31.15.62.32.93.48-.23.14-.42.37-.54.72-.53,1.57-1.04,3.15-1.53,4.73-.56-.39-1.12-.78-1.66-1.19ZM542.3,71.96c.17-.57.33-1.13.5-1.7.88.54,1.76,1.07,2.66,1.56-1.02.07-1.98.09-2.74.13-.14,0-.29,0-.43,0Z"/><path class="cls-1" d="M563.19,85.3l-2.73-1.58c.02-.08.04-.17.06-.28l.54-1.41c.17-.45.12-.83-.06-1.12,2.47-4.62,4.63-9.39,6.42-14.33.66-1.81-2.26-2.54-2.89-.73-1.97,5.55-4.42,10.87-7.27,16l-1.87-1.08-3.9-2.27c-.65-.37-1.29-.77-1.96-1.12l-2-1.04c-1.62-.84-3.01,1.82-1.4,2.65l1.99,1.03c.66.35,1.29.74,1.94,1.11l3.87,2.25,1.85,1.07c-.13.23-.26.46-.4.68-.14.24-.21.48-.22.7-2.04-1.39-4.06-2.8-6.07-4.25-1.47-1.06-2.87,1.6-1.43,2.64,3.7,2.67,7.44,5.24,11.24,7.7,1.49.97,3.04-1.6,1.53-2.58-1.11-.72-2.2-1.46-3.3-2.2.26-.11.5-.32.69-.63.11-.18.22-.37.33-.56.94.87,2.53,1.38,3.52,1.91,1.59.86,3.12-1.66,1.54-2.58Z"/><path class="cls-1" d="M559.02,70.29c.74.38,1.55.12,2-.59.33-.52.49-1.17.48-1.78-.02-.78-.69-1.52-1.5-1.47-.79.05-1.47.7-1.45,1.54,0,0,0,.02,0,.03,0,.04-.02.09-.03.13-.02.03-.03.07-.05.1-.42.67-.13,1.69.55,2.04Z"/><path class="cls-1" d="M587.27,90.68c1.08.12,2.01-1.05,1.65-2,1.31-.1,2.63-.16,3.97-.19,1.1-.02,2.31-1.47,1.29-2.45-5.71-5.68-12.24-10.38-18.96-14.85-1.61-1.06-3.15,1.51-1.56,2.56,3.23,2.13,6.38,4.36,9.46,6.68.76.59,1.52,1.17,2.29,1.76.76.58,1.51,1.19,2.22,1.85.6.53,1.17,1.08,1.76,1.62-1.23.08-2.46.2-3.67.35-.19.02-.39.06-.58.09-.32-.19-.64-.38-.95-.56-1.42-.79-2.82-1.61-4.21-2.45-.29-.18-.57-.36-.86-.54.43-.65.86-1.29,1.3-1.92,1.11-1.58-1.39-3.17-2.48-1.58-.44.64-.87,1.29-1.29,1.94-1.62-1.05-3.23-2.12-4.81-3.23-1.54-1.09-3.08,1.49-1.56,2.56,1.57,1.11,3.17,2.17,4.78,3.21-.87,1.43-1.7,2.88-2.49,4.35-.28.52-.25,1.02-.04,1.42-1.06.4-2.08.86-3.01,1.42.24-1.77.52-3.54.87-5.31.37-1.87-2.39-2.7-2.75-.8-.62,3.23-1.08,6.45-1.38,9.68-.14,1.48,1.81,1.99,2.6.75,1.18-1.86,3.78-2.53,5.7-3.23,1.96-.71,3.96-1.31,5.99-1.82,1.32-.33,2.64-.58,3.96-.79.08.04.15.09.23.13-.25.33-.49.66-.71.97l-4.73,6.54c-.71-1.17-1.68-2.1-3.03-2.73-1.63-.79-3.28,1.71-1.65,2.5.73.35,1.36.78,1.86,1.33.49.56.85,1.25,1.07,2.07.32,1.19,1.72,1.63,2.55.51l3.72-5.05c.77-1.04,2.22-3.78,3.49-4.78ZM578.35,87.54c-.85.23-1.79.48-2.77.75.62-1.09,1.25-2.17,1.91-3.24.28.17.56.36.85.53.77.47,1.56.91,2.33,1.36-.78.19-1.55.38-2.32.59Z"/><path class="cls-1" d="M598.08,112.78c.18-.02.35-.05.53-.08,1.35,1.07,2.71,2.12,4.06,3.2,1.41,1.13,3.32-1.18,1.89-2.33-.84-.68-1.69-1.33-2.54-2,1.44-.82,2.69-2.06,3.53-3.87,1.34-2.86.73-6.01-.33-8.83-.66-1.74-1.51-3.42-2.42-5.05-.76-1.41-1.6-3.12-2.79-4.16-2.18-1.91-5.2.6-6.57,2.43-.75,1-1.3,2.16-1.26,3.42.05,1.56,1.62,3.13,1.2,4.6-.26.91.28,1.6.96,1.84.67.25,1.47.07,1.75-.86.56-1.83-.05-2.8-.54-4.47-.5-1.7-.15-2.68,1.26-3.83,1.72-1.4.87-.77,1.78-.05.84.65,1.61,2.39,2.08,3.33.54,1.02,1.04,2.07,1.48,3.13.83,2.02,1.64,4.31,1.03,6.51-.62,2.17-2,3.36-3.66,3.88-.74-.58-1.46-1.17-2.2-1.74l-3.66-2.81c-1.21-.95-2.53-1.75-3.79-2.63-1.52-1.02-3.27,1.42-1.77,2.42,1.25.87,2.56,1.66,3.76,2.6l2.76,2.11c-1.4-.35-2.72-.93-3.73-1.6-1.36-.88-4.79-2.74-5.06-4.51-.13-.85,1.31-2.28,1.77-2.92.71-.97,1.45-1.91,2.19-2.85,1.21-1.51-1.16-3.18-2.34-1.66-1.59,2.02-5.17,5.44-4.44,8.23.71,2.79,4.21,4.95,6.42,6.34,2.38,1.54,5.6,2.45,8.65,2.18Z"/><path class="cls-1" d="M596.74,105.01c1.13-1.2,2.16-2.48,3.09-3.85,1.08-1.59-1.21-3.4-2.28-1.79-.92,1.38-1.93,2.66-3.05,3.88-.55.59-.34,1.64.22,2.08.66.52,1.47.28,2.03-.32Z"/><path class="cls-1" d="M568.16,79.93c.9-2.08,1.67-4.18,2.32-6.33.55-1.84-2.34-2.57-2.87-.72-.64,2.16-1.4,4.28-2.28,6.35-.75,1.77,2.08,2.43,2.83.7Z"/><path class="cls-1" d="M605.88,114.25c.97.21,1.9.48,2.82.81-1.36,1.64-2.64,3.37-3.93,4.92-1.23,1.49.86,3.31,2.11,1.84,1.48-1.75,2.95-3.8,4.56-5.62.47.22.93.45,1.4.69-.25,0-.5.07-.72.2-.33.03-.66.18-.94.5-1.78,1.99-4.83,4.93-2.56,7.2,1.49,1.49,3.21,2.8,4.81,4.18.67.59,1.39,1.3,2.11,2,.71.71,1.45,1.36,2.28,1.73.4.19,1.02.24,1.42-.09,1.28-1.05,2.21-2.61,3.21-3.94.76-1.02,1.41-1.78.79-2.98-.41-.77-1.1-1.5-1.89-2.15-.8-.63-1.65-1.21-2.31-1.77l-4.94-4.22c.68.38,1.36.76,2.03,1.16,3.21,1.98,6.33,3.91,9.63,5.95,1.04.6,2.52-.57,2.12-1.76-.98-3.1-2.32-5.97-3.89-8.73.63-.8,1.29-1.59,1.98-2.35,1.31-1.42-.95-3.38-2.24-1.94-.47.52-.92,1.06-1.36,1.61-1.12-1.76-2.33-3.47-3.63-5.13-1.17-1.48-2.38-2.95-3.74-4.27-.31-1.01-2.15-1.42-2.91-.15-2.12,3.49-4.49,6.81-7.07,9.99-.75.93-.19,2.12.87,2.32ZM620.38,126.83c-.53.89-1.27,1.95-1.94,2.71-.7-.58-1.34-1.39-1.96-1.9l-3.12-2.7c-.56-.49-2.31-1.53-2.44-2.25-.09-.51.92-1.64,1.69-2.45l3.72,3.18c1.16,1,3.02,2.11,4.06,3.42ZM613.63,104.95c1.03,1.08,1.98,2.24,2.9,3.41,1.21,1.57,2.35,3.19,3.4,4.85.18.28.34.57.51.86-.16.23-.32.46-.48.7-.45.68.02,1.65.66,1.96.47.22.92.16,1.3-.06.3.55.6,1.11.88,1.67.23.47.45.95.67,1.43-.45-.27-.9-.54-1.35-.81-1.68-1.02-3.34-2.07-5.02-3.06-1.13-.66-2.28-1.28-3.44-1.87.2-.17.41-.35.62-.51,1.54-1.15-.06-3.6-1.59-2.44-.64.49-1.25,1.04-1.84,1.63-.52-.22-1.05-.42-1.58-.61-.19-.07-.4-.12-.6-.18,1.77-2.25,3.42-4.58,4.97-6.97Z"/><path class="cls-1" d="M630.03,135.46l-1.54,1.82c-1.25-1.55-2.48-3.12-3.66-4.76-1.07-1.47-3.6.1-2.54,1.57,1.36,1.89,2.79,3.71,4.25,5.5l-.69.82c-1.24,1.46.76,3.39,2.01,1.94l.48-.56c.06.08.13.16.19.23.59.76,1.21,1.49,1.82,2.24.03.72.55,1.35,1.17,1.45,1.15,1.36,2.32,2.69,3.53,3.99,1.22,1.31,3.43-.71,2.19-2.05-1.16-1.25-2.3-2.53-3.4-3.83.07-.08.14-.17.22-.25,1.23,1.57,2.69,2.95,4.37,4.05,2.15,1.43,4.62,2.27,7.1,2.43,2.44.18,4.97-.39,7.32-1.96,1.78-1.18,3.07-3.26,3.28-5.27.1-1-.03-2-.55-2.83-.53-.81-1.39-1.48-2.65-1.88-1.84-.57-2.73,2.27-.89,2.83,2.83.86.34,4.04-1.07,4.9-1.58.97-3.45,1.5-5.31,1.38-3.41-.23-6.51-2.39-8.63-4.76-.32-.35-.64-.77-.96-1.23,1.37-1.54,2.76-3.05,4.19-4.54,1.34-1.38-.66-3.52-1.99-2.11-1.27,1.34-2.52,2.71-3.74,4.09-.44-.85-.85-1.76-1.22-2.7l5.2-6.06c1.24-1.46-.87-3.51-2.11-2.03l-4.1,4.86c-.73-3.39-.33-6.79,2.58-8.78,1.59-1.08.09-3.64-1.5-2.54-4.6,3.21-4.69,9-3.44,13.72.03.1.06.19.09.29ZM631.27,138.8c.34.81.75,1.59,1.18,2.35-.13.16-.27.31-.4.47-.38-.47-.77-.93-1.15-1.4-.2-.24-.39-.48-.59-.72l.84-.98c.04.09.07.19.11.28Z"/><path class="cls-1" d="M643.12,142.36c1.13-1.6,2.64-2.84,4.48-3.55,1.19-.46,3.06-.25,3.97-1.22.73-.79.52-1.75-.15-2.48-1.45-1.57-3.29-2.75-4.72-4.37-.87-.99-2.16-.31-2.47.68-.33.15-.62.43-.79.85-1.19,2.95-2.17,5.93-2.96,8.97-.43,1.64,1.65,2.52,2.65,1.12ZM647.01,135.35c.15.13.31.26.46.39-.03.01-.07.01-.11.03-.87.28-1.73.65-2.52,1.12.31-.9.64-1.8.99-2.69.38.39.78.78,1.19,1.15Z"/><path class="cls-1" d="M655.83,151.9c-.21-.04-.42-.08-.63-.11-6.06-.73-8.38,5.64-9.53,10.3-.45,1.82,2.46,1.94,2.91.14.83-3.35,2.42-8.61,7.03-7.32.13.04.25.09.37.13,0,.1,0,.21.02.31.15,2.11-.15,6.39,1.79,7.68.95.67,2.54.72,3.62,1.02,1.09.3,2.15.68,3.21,1.09.49,1.61.81,3.28.88,4.92.08,1.74-.31,4.29-2.64,4.23-2.1-.06-3.28-2.14-4.06-3.74-.8-1.64-3.53-.45-2.74,1.18,1.7,3.49,6.28,7.9,10.49,4.02,2.32-2.14,2.34-5.7,1.62-8.99,2.31,1.23,4.47,2.73,6.49,4.44.94.8,2.65-.11,2.43-1.34-.84-4.62-4.4-8.4-7.17-12.07-.84-1.11-1.67-2.22-2.52-3.31l-2.7-3.17-5.43-6.32c-.3-.35-.67-.5-1.03-.5-.85-.53-2.24-.21-2.31,1.11-.12,2.12-.15,4.23-.1,6.32ZM662.16,161.17c-.5-.13-1.01-.27-1.51-.37-1.06-.22-.78-.14-1.15-.99-.37-.83-.41-2.08-.45-3.16.32.23.62.48.92.74.64.57,1.23,1.19,1.76,1.85.5.68.94,1.4,1.33,2.12.02.03.03.06.04.09-.31-.09-.62-.2-.94-.28ZM661.76,152.49c1.56,1.87,3.23,3.66,4.65,5.64,1.74,2.29,4.13,4.84,5.8,7.56-1.67-1.07-3.42-2.01-5.23-2.8-.17-.44-.34-.87-.51-1.25-1.38-3.44-4.18-6.91-7.66-8.69-.06-1.3-.07-2.61-.05-3.93l2.99,3.48Z"/><path class="cls-1" d="M652.88,159.99l-5.49,4.32c-1.52,1.2.28,3.31,1.81,2.13l5.52-4.28c1.53-1.18-.33-3.37-1.85-2.17Z"/><path class="cls-1" d="M652.67,169.09c1.5-1.36,2.92-2.79,4.28-4.3.64-.71.4-1.51-.2-1.91-.6-.4-1.52-.44-2.15.28-1.15,1.31-2.38,2.55-3.67,3.74-1.38,1.27.3,3.49,1.74,2.2Z"/><path class="cls-1" d="M673.34,177.89c-.45,3.56,1.58,7.26,3.27,10.33-.81.77-1.62,1.54-2.41,2.32-1.51-.93-2.93-1.96-4.25-3.11-1.29-1.13-2.76-2.47-2.66-4.37.1-2.03,1.81-3.54,3.86-3.49,1.87.05,2.46-2.86.57-2.91-2.76-.06-5.42,1.17-6.7,3.84-1.47,3.06-.31,5.95,1.78,8.09,1.51,1.56,3.31,2.91,5.22,4.11-1.16,1.16-2.31,2.34-3.45,3.53-.66.69-.45,1.47.1,1.91.54.45,1.38.57,2.06-.12,1.27-1.3,2.55-2.57,3.83-3.84.41.22.82.44,1.23.65,1.78.95,4.01,2.14,6.28,2.73,1.05,1.61,2.15,3.19,3.32,4.73.68.89,2.47.9,2.73-.46.27-1.41-.13-2.21-1.29-3.01-.14-.1-.28-.15-.42-.19-.19-.26-.37-.53-.55-.79,0,0,.01,0,.02,0,3.73-.59,4.41-3.77,3.87-7.32-.27-1.77-.83-3.65-1.49-5.28-.71-1.6-1.47-3-2.03-3.9-1.68-2.69-4.4-6.53-7.71-7.18-2.57-.5-4.82,1.15-5.15,3.75ZM676.77,191.99c.42-.4.84-.8,1.26-1.2.5.9,1.01,1.79,1.52,2.68-.9-.46-1.73-.93-2.4-1.28-.13-.06-.25-.14-.38-.2ZM686.77,190.81c.31,2.01.08,3.84-1.67,4.17-.36.07-.74.07-1.14.04-1.31-2.05-2.53-4.16-3.69-6.3,1.3-1.19,2.61-2.37,3.95-3.53.2-.18.34-.38.43-.59.18.36.35.72.52,1.08.46.93,1.31,3.12,1.61,5.13ZM676.79,177.71c.94-1.05,1.74-.54,2.8.33,1.45,1.2,2.73,2.73,3.79,4.38-.27,0-.56.11-.83.36-1.23,1.09-2.45,2.19-3.66,3.3-.31-.6-.61-1.21-.9-1.82-.61-1.32-1.19-2.68-1.52-4.11-.23-1-.43-1.6.33-2.44Z"/><path class="cls-1" d="M679,198.47c-.95-1.57-3.47.05-2.54,1.6,1.9,3.17,3.84,6.31,5.7,9.51-.22.12-.43.25-.65.37-.25.14-.43.32-.55.52-.08-.16-.15-.33-.23-.49-1.04-2.04-2.05-4.09-3.04-6.16-.78-1.63-3.32-.03-2.56,1.57.98,2.06,1.98,4.09,3.01,6.11,1.02,2.02,1.9,4.13,2.9,6.17.76,1.61,3.39.16,2.62-1.47-.58-1.19-1.13-2.41-1.69-3.62.28.04.6,0,.93-.19.19-.1.37-.21.56-.32.34,1.24,1.43,2.5,2,3.47.9,1.56,3.49.15,2.62-1.47-.48-.94-.99-1.86-1.49-2.78.06-.06.12-.13.19-.21l1.18-.96c.38-.31.53-.66.52-1,4.45-2.77,8.72-5.84,12.76-9.23,1.51-1.26-.73-3.3-2.18-2.06-4.47,3.82-9.25,7.2-14.3,10.23-1.88-3.22-3.84-6.39-5.75-9.59Z"/><path class="cls-1" d="M694.07,199.43c.54-.28,1.01-.76,1.29-1.3.37-.68.14-1.65-.6-2-.72-.34-1.64-.12-2.03.61,0,0,0,.01-.01.02-.03.03-.06.06-.09.09-.03.02-.06.04-.1.06-.69.37-.94,1.4-.51,2.02.47.69,1.31.87,2.06.48Z"/><path class="cls-1" d="M705.53,214.46l1.25,2.61c.37.89.73,1.79,1.08,2.69.99,2.54,1.9,5.11,2.77,7.68-1.3-.62-2.6-1.18-3.93-1.71-.99-1.74-1.95-3.49-2.86-5.26-.15-.31-.32-.6-.47-.9.7-.35,1.4-.69,2.11-1.03,1.79-.84.35-3.43-1.39-2.59-.71.34-1.4.69-2.1,1.04-.15-.27-.3-.54-.44-.81-.76-1.43-1.5-2.88-2.21-4.34-.83-1.7-3.45-.23-2.63,1.44.71,1.45,1.44,2.88,2.19,4.3.14.27.3.54.44.81-1.46.8-2.9,1.64-4.32,2.52-.5.31-.71.76-.73,1.2-1.12-.18-2.26-.28-3.35-.26,1.07-1.41,2.19-2.79,3.37-4.15,1.24-1.43-.78-3.5-2.03-2.04-2.13,2.48-4.11,5.02-5.96,7.66-.84,1.21.63,2.6,1.92,1.92,1.96-1.03,4.58-.33,6.53.06,2.02.38,4.02.87,6,1.47,1.3.39,2.58.84,3.86,1.32.04.06.08.13.11.19-.39.16-.76.34-1.12.5l-7.37,3.31c-.05-1.35-.43-2.65-1.22-3.9-.97-1.52-3.65-.18-2.68,1.34.87,1.36,1.23,2.79.81,4.43-.3,1.18.72,2.25,2,1.69l5.74-2.52c1.18-.52,3.81-2.17,5.41-2.4.9.63,2.27.09,2.43-.91,1.21.56,2.41,1.14,3.59,1.78.98.53,2.76-.13,2.33-1.47-1.2-3.82-2.53-7.61-3.99-11.36-.37-.94-.74-1.87-1.12-2.81-.41-.92-.85-1.82-1.28-2.73-.88-1.81-1.79-3.6-2.73-5.39-.9-1.7-3.52-.24-2.63,1.44.9,1.71,1.77,3.43,2.62,5.16ZM700.17,223.53c-.82-.24-1.75-.5-2.72-.76,1.07-.63,2.15-1.25,3.25-1.84.15.3.32.58.46.88.41.8.85,1.59,1.27,2.38-.75-.24-1.5-.46-2.26-.67Z"/><path class="cls-1" d="M711.04,234.98c-1.15.49-2.21,1.22-2.82,2.35-.76,1.39-.24,3.56-1.36,4.63-1.38,1.32.41,3.55,1.82,2.23,1.37-1.29,1.38-2.46,1.82-4.17.45-1.74,1.26-2.42,3.03-2.7,2.17-.35,1.13-.23,1.53.86.37,1,.12,2.91.1,3.95-.02,1.15-.09,2.3-.23,3.43-.26,2.15-.66,4.52-2.28,6.12-1.6,1.56-3.39,1.91-5.1,1.54l-1.11-2.59c-1.22-2.82-2.47-5.63-3.75-8.43-.76-1.66-3.49-.43-2.74,1.22,1.11,2.44,2.19,4.89,3.26,7.34-1.06-.99-1.93-2.13-2.49-3.21-.74-1.44-2.64-4.82-1.97-6.5.32-.81,2.28-1.33,3-1.64,1.1-.48,2.21-.94,3.32-1.38,1.82-.72.54-3.31-1.25-2.59-2.39.96-7.22,2.14-7.93,4.9-.33,1.36-.1,2.99.39,4.55.49,1.56,1.24,3.06,1.86,4.21,1.35,2.5,3.74,4.88,6.56,6.14.17.08.35.13.52.2l.23.53c.56,1.42,1.04,2.86,1.56,4.3.6,1.71,3.41.66,2.8-1.07-.36-1.01-.72-2.03-1.09-3.04.13,0,.26.02.39.01,1.51-.06,3.07-.54,4.59-1.6,2.64-1.83,3.64-4.85,4.08-7.8.27-1.83.35-3.69.34-5.55,0-1.57.18-3.5-.29-5.02-.86-2.77-4.7-2.13-6.81-1.22Z"/><path class="cls-1" d="M705.41,247.15c.33.77,1.16.96,1.94.73,1.58-.48,3.11-1.08,4.6-1.8,1.73-.84.6-3.53-1.13-2.66-1.48.73-3.01,1.34-4.58,1.84-.77.24-1.1,1.25-.82,1.9Z"/><path class="cls-1" d="M695.03,211.91c1.82-1.35,3.55-2.79,5.2-4.34,1.41-1.32-.66-3.44-2.06-2.1-1.64,1.56-3.37,3.02-5.17,4.38-1.54,1.16.5,3.19,2.04,2.05Z"/><path class="cls-1" d="M710.61,260.46c.73.66,1.41,1.37,2.05,2.1-2,.74-3.97,1.6-5.86,2.3-1.81.67-.85,3.28.97,2.63,2.15-.77,4.45-1.82,6.75-2.59.31.42.6.85.9,1.29-.22-.13-.48-.19-.73-.18-.3-.13-.67-.17-1.08-.03-2.54.84-6.66,1.87-5.76,4.94.63,2.01,1.38,4.03,2.01,6.04.54,1.72.84,3.96,1.92,5.43.27.36.78.71,1.29.63,1.64-.27,3.22-1.16,4.74-1.81,1.16-.5,2.11-.83,2.14-2.18.05-1.74-1.11-3.86-1.64-5.5l-1.08-3.33-1.06-2.81c.42.66.83,1.34,1.23,2.02,1.81,3.3,3.31,6.78,5.27,9.99.63,1.04,2.49.75,2.72-.47.58-3.14.95-6.33,1.03-9.52.95-.38,1.92-.74,2.9-1.05,1.85-.58.95-3.43-.93-2.82-.67.22-1.33.46-1.98.72-.24-3.92-.86-7.85-1.83-11.76.28-1.04-1.07-2.35-2.37-1.63-3.59,1.98-7.31,3.67-11.13,5.14-1.12.43-1.26,1.76-.47,2.47ZM711.88,273.4c-.19-.72-1.23-2.48-.99-3.16.17-.48,1.61-.96,2.68-1.28l.66,1.76c.36.94.63,1.91.95,2.86.47,1.46,1.43,3.38,1.71,5.03-.9.51-2.06,1.05-3.02,1.37-.33-.85-.5-1.86-.75-2.63l-1.24-3.94ZM722.28,269.91c.28.44.7.61,1.15.61-.04.64-.08,1.27-.13,1.9-.05.53-.12,1.06-.18,1.59-.24-.46-.49-.92-.72-1.39-.9-1.74-1.71-3.51-2.75-5.18-.67-1.13-1.36-2.24-2.1-3.32.26-.05.52-.1.77-.13,1.92-.22,1.7-3.14-.21-2.89-.8.1-1.61.28-2.41.49-.48-.6-.99-1.19-1.52-1.76,2.65-1.07,5.24-2.25,7.78-3.55.79,3.39,1.3,6.82,1.49,10.24.03.33.03.66.04.99-.26.12-.52.24-.77.37-.72.36-.81,1.44-.43,2.04Z"/><path class="cls-1" d="M724.46,283.87c-.79.95-1.42,2.01-1.98,3.15-.57,1.14-1.03,2.35-1.38,3.54-.03.1-.05.2-.07.3l-2.23.81c-.05-.36-.11-.72-.15-1.08-.09-.81-.18-1.63-.26-2.45-.1-.81-.21-1.62-.32-2.43-.22-1.8-3.22-1.69-3,.1.11.84.22,1.67.33,2.5.11.83.18,1.68.28,2.52.07.63.18,1.25.26,1.88l-1.01.37c-1.8.65-1.13,3.34.7,2.7l.7-.25c.02.1.03.2.04.3.15.96.32,1.91.5,2.86-.31.63-.14,1.41.35,1.79.36,1.74.74,3.47,1.16,5.2.35,1.76,3.28,1.11,2.92-.68-.39-1.66-.77-3.33-1.12-4.99.1-.04.21-.07.31-.11.12.71.26,1.41.46,2.1.34,1.23.85,2.42,1.37,3.58,2.18,4.63,6.51,7.99,12.17,7.63,4.28-.25,8.53-4.66,5.06-8.6-1.26-1.42-3.49.6-2.23,2.01,1.93,2.18-1.73,3.67-3.41,3.72-1.87.06-3.76-.42-5.27-1.46-2.78-1.91-4.21-5.37-5.01-8.45-.11-.46-.19-.99-.25-1.54,1.95-.65,3.91-1.27,5.89-1.83,1.85-.53,1.13-3.36-.73-2.81-1.77.53-3.53,1.09-5.28,1.68.03-.96.11-1.95.27-2.94l7.54-2.66c1.81-.64,1.08-3.5-.73-2.83l-5.98,2.17c.54-1.57,1.28-3.01,2.29-4.13,1.1-1.24,2.53-2.07,4.39-2.22,1.93-.14,1.85-3.1-.08-2.93-2.81.24-4.93,1.61-6.5,3.49ZM720.24,297.01c-.2.07-.4.14-.6.22-.11-.59-.22-1.19-.31-1.78-.05-.31-.08-.62-.13-.93l1.19-.42c-.12.97-.16,1.94-.14,2.91Z"/><path class="cls-1" d="M727.14,302.92c.39.51,1.09.79,1.88.43,1.79-.82,3.72-1.14,5.64-.83,1.25.2,2.73,1.32,4,.93,1.03-.32,1.35-1.27,1.16-2.23-.42-2.09-1.54-4.01-1.99-6.13-.29-1.29-1.75-1.33-2.5-.64-.37-.03-.76.06-1.11.34-2.48,1.95-4.79,4.04-6.95,6.27-.58.6-.53,1.35-.13,1.86ZM735.38,297.65c.15.53.31,1.06.49,1.58.07.19.14.38.21.57-.04,0-.07-.02-.11-.03-.9-.19-1.84-.29-2.76-.28.71-.62,1.43-1.23,2.17-1.83Z"/><path class="cls-1" d="M738.4,312.56c-.88,1.38-1.71,2.77-2.49,4.18-.22.41-.44.82-.65,1.23-.17-.14-.33-.28-.51-.41-4.99-3.64-10.1.7-13.37,4.15-1.32,1.36,1.08,2.93,2.39,1.58,2.47-2.5,6.44-6.25,9.77-2.83.09.1.16.2.25.3-.05.09-.1.19-.15.28-.95,1.91-3.47,5.48-2.44,7.58.51,1.05,1.89,1.88,2.7,2.68.81.8,1.57,1.66,2.3,2.54-.03.15-.06.3-.09.45-.17.74-.37,1.47-.64,2.17-.28.71-.6,1.4-.96,2.07-.84,1.55-2.49,3.57-4.44,2.34-1.78-1.1-1.63-3.52-1.6-5.27.08-1.81-2.9-2.15-2.98-.34-.04,1.93.25,4.43,1.3,6.29,1.06,1.86,2.87,3.09,5.67,2.45,2.44-.56,4.12-2.57,5.25-4.99.3-.64.57-1.32.8-1.99,1.35,2.22,2.37,4.61,3.23,7.11.39,1.16,2.32,1.23,2.76.06,1.66-4.43.68-9.51-.09-14.05l-1.27-8.23-.66-4.11-.86-4.08c-.1-.46-.35-.76-.66-.94-.49-.88-1.87-1.3-2.57-.19ZM735.96,329.19c-.38-.37-.76-.73-1.16-1.07-.84-.72-.61-.51-.49-1.43.12-.91.73-2.01,1.26-2.98.78,1.93,1.1,4.09,1.08,6.1,0,.03,0,.07,0,.1-.23-.24-.45-.48-.69-.71ZM741.17,328.68c.32,2.19.95,4.68,1.24,7.17.07.76.1,1.52.11,2.27-.43-.87-.87-1.72-1.36-2.55-.55-.86-1.15-1.68-1.77-2.49.06-.47.12-.92.16-1.34.23-2.42.06-5.18-.67-7.74-.37-1.28-.87-2.5-1.54-3.6,0-.01-.02-.03-.03-.04.35-.65.71-1.3,1.09-1.94.27-.5.56-1,.85-1.49l.19.91c.23,1.2.4,2.41.6,3.61l1.13,7.23Z"/><path class="cls-1" d="M728.6,323.52l-6.91,1c-1.91.28-1.48,3.02.43,2.76l6.91-.94c1.91-.26,1.47-3.09-.44-2.81Z"/><path class="cls-1" d="M723.79,331.3c1.97-.42,3.92-.95,5.84-1.58,1.83-.6.6-3.2-1.21-2.59-1.66.56-3.34,1.02-5.06,1.41-1.87.42-1.46,3.17.43,2.77Z"/><path class="cls-1" d="M743.67,348.59c-2.02-1.71-4.8-1.41-6.33.67-.59.8-1.01,1.7-1.31,2.66-.15.48-.27.98-.37,1.49-.12.51-.22,1.03-.3,1.55-.25,1.65-.32,3.33-.38,4.87-1.09.26-2.18.52-3.26.8-.8-1.56-1.49-3.17-2.02-4.83-.48-1.63-1.16-3.51-.17-5.11,1.06-1.7,3.29-2.15,5.07-1.09,1.62.97,3.53-1.25,1.89-2.23-2.41-1.43-5.34-1.69-7.74-.03-2.79,1.91-3.07,4.98-2.34,7.87.5,2.11,1.31,4.18,2.32,6.18-1.6.42-3.19.86-4.77,1.32-1.85.53-.9,3.14.95,2.63,1.74-.49,3.48-.95,5.23-1.4.24.4.49.79.74,1.18.87,1.34,1.91,2.93,3.15,4.35.34.39.69.76,1.05,1.12.03.65.07,1.31.1,1.96.08,1.28.19,2.55.33,3.83.12,1.11,1.65,2.02,2.57.97.96-1.09,1.02-1.98.44-3.25-.07-.14-.15-.26-.24-.35-.03-.33-.05-.65-.08-.98,0,0,0,0,0,0,1.75.68,3.18.42,4.34-.43,1.16-.85,2.1-2.29,2.67-3.96,1.22-3.34,1.53-7.58,1.5-9.71-.02-1.59-.12-3.56-.52-5.4-.42-1.85-1.26-3.57-2.55-4.67ZM738.2,357.09c.16-1.45.39-2.92.81-4.33.27-.98.39-1.59,1.45-1.94,1.33-.43,1.79.4,2.31,1.69.64,1.77.94,3.74.99,5.7-.23-.13-.53-.18-.9-.11-1.63.33-3.25.67-4.87,1.03.05-.68.11-1.36.2-2.04ZM733.38,363.55c-.08-.12-.15-.25-.22-.37.57-.14,1.15-.27,1.72-.41-.02,1.03-.03,2.06-.01,3.09-.57-.85-1.07-1.68-1.49-2.31ZM739.03,369.93c-.36-.13-.71-.32-1.05-.56-.14-2.42-.21-4.85-.14-7.27,1.73-.38,3.46-.74,5.2-1.08.26-.05.48-.16.67-.29-.03.4-.07.8-.11,1.19-.25,2.1-1.16,9.21-4.56,8.01Z"/><path class="cls-1" d="M749.53,379.4c-5.78,1.06-11.62,1.59-17.48,1.68,0-.72,0-1.44,0-2.16-.02-3.01.02-6.02-.04-9.03-.09-1.83-3.09-1.7-3,.11.06,2.98.02,5.97.04,8.95,0,.71,0,1.42,0,2.14-.26,0-.53,0-.79,0-.28,0-.52.06-.72.16.17-2.46.37-4.92.61-7.39.17-1.8-2.83-1.69-3,.08-.46,4.54-.75,9.06-1.01,13.59-.17,1.78,2.83,1.84,3,.04.08-1.32.16-2.65.24-3.97.23.18.53.29.91.3.21,0,.43,0,.64,0-.28,1.25.11,2.88.09,4-.03,1.8,2.91,1.88,3,.05.03-1.05.02-2.1.02-3.15.08-.02.17-.05.28-.09l1.49-.24c.48-.08.78-.31.94-.61,5.24-.16,10.44-.68,15.61-1.59,1.89-.33,1.06-3.22-.83-2.87Z"/><path class="cls-1" d="M744.67,375.29s-.02,0-.02.01c-.04.01-.08.03-.13.04-.04,0-.08,0-.11,0-.79-.03-1.53.74-1.48,1.49.05.83.67,1.41,1.52,1.44.61.03,1.26-.15,1.77-.47.67-.41.97-1.36.52-2.03-.44-.66-1.35-.93-2.06-.49Z"/><path class="cls-1" d="M747.21,391.25c-.21,3.86-.54,7.71-.99,11.53-.19,1.91-.59,3.81-.95,5.7-.16.78-.34,1.55-.51,2.33-.69-1.03-1.41-2.03-2.16-3.01-.11-.15-.23-.29-.34-.44.02-2.34.05-4.68.11-7.01.78.05,1.55.1,2.33.17,1.93.17,2.03-2.79.11-2.94-.78-.06-1.56-.11-2.34-.15.08-1.93.19-3.86.37-5.79.16-1.88-2.84-1.93-3-.08-.17,1.92-.28,3.83-.36,5.75-1.67-.04-3.33-.03-5,.01-.59.02-1,.3-1.25.67-.87-.72-1.78-1.37-2.73-1.9,1.65-.68,3.31-1.32,5.01-1.9,1.8-.61,1.13-3.42-.7-2.78-3.1,1.08-6.11,2.28-9.05,3.64-1.34.62-.8,2.56.66,2.63,2.2.09,4.09,2.01,5.66,3.33,1.58,1.34,3.17,2.78,4.54,4.28.92.99,1.79,2.02,2.64,3.08,0,.07,0,.15,0,.22-.42-.05-.83-.09-1.22-.13l-8.03-.83c.65-1.19.99-2.51.94-3.98-.14-1.81-3.13-1.99-2.99-.18.06,1.61-.37,3.03-1.56,4.24-.86.87-.53,2.31.85,2.46l6.23.7c1.28.15,4.38.03,5.88.63.45,1,1.91,1.22,2.55.43.75,1.09,1.49,2.19,2.18,3.34.57.95,2.44,1.27,2.76-.11.46-1.95.89-3.91,1.28-5.88.19-.99.38-1.98.57-2.96l.27-1.48.19-1.49c.48-3.98.83-7.99,1.05-12.02.1-1.92-2.9-1.97-3-.07ZM737.67,402.2c-.63-.62-1.32-1.32-2.05-2.02,1.25,0,2.5,0,3.75.04-.03,1.22-.06,2.43-.07,3.65-.52-.56-1.06-1.12-1.63-1.66Z"/><path class="cls-1" d="M741.25,417.55c-1.25-.15-2.52-.05-3.59.62-1.33.82-1.84,2.97-3.39,3.33-1.86.45-1.46,3.27.43,2.84,1.84-.43,2.44-1.44,3.69-2.69,1.25-1.28,2.25-1.47,3.95-.82,2.06.79,1.13.37.92,1.52-.19,1.05-1.38,2.58-1.92,3.46-.6.98-1.25,1.94-1.94,2.85-1.32,1.73-2.88,3.58-5.08,4.15-2.18.55-3.89-.04-5.18-1.22.12-.93.24-1.86.36-2.79.37-3.05.78-6.1,1.04-9.16.11-1.83-2.88-2.13-2.98-.32-.22,2.67-.56,5.34-.89,8-.41-1.39-.58-2.82-.51-4.04.04-.81.1-2.18.3-3.49.15-1.32.47-2.57,1.16-3.13.66-.54,2.63,0,3.41.08,1.19.13,2.38.3,3.57.47,1.91.29,2.15-2.59.24-2.86-2.55-.37-7.31-1.76-9.34.27-1.01,1.01-1.56,2.54-1.85,4.15-.28,1.61-.47,3.27-.5,4.58-.11,2.84.73,6.09,2.52,8.59.11.15.23.29.35.44-.22,1.7-.46,3.4-.77,5.09-.35,1.78,2.61,2.27,2.96.48.19-1.06.35-2.12.5-3.18,1.43.83,3.13,1.29,5.1,1.11,3.14-.27,5.54-2.38,7.43-4.71,1.17-1.44,2.18-3.02,3.12-4.63.79-1.36,1.95-2.94,2.3-4.48.54-2.84-3.15-4.21-5.42-4.48Z"/><path class="cls-1" d="M730.37,425.26c-.11.83.51,1.41,1.3,1.6,1.61.38,3.23.63,4.88.75,1.92.14,2.32-2.75.38-2.87-1.65-.11-3.27-.34-4.88-.71-.79-.18-1.58.53-1.68,1.23Z"/><path class="cls-1" d="M739.1,389.57c2.25-.26,4.48-.64,6.69-1.15,1.93-.44,1.1-3.3-.78-2.85-2.19.53-4.4.92-6.63,1.2-1.87.23-1.19,3.01.72,2.8Z"/><path class="cls-1" d="M742.09,438.61c-4.07-.08-8.15-.48-12.19-1.12-1.18-.19-1.98.89-1.66,1.9.29.94.52,1.89.7,2.84-2.1-.36-4.24-.6-6.22-.94-1.9-.32-2.41,2.41-.5,2.76,2.25.41,4.76.65,7.14,1.14.05.52.09,1.04.12,1.57-.13-.23-.32-.4-.55-.53-.19-.27-.49-.48-.91-.56-2.62-.54-6.7-1.71-7.48,1.39-.54,2.04-.71,4.2-1.2,6.25-.4,1.75-1.29,3.85-1.09,5.66.05.44.32,1,.8,1.19,1.55.58,3.37.61,5.02.8,1.26.15,2.24.33,2.96-.82.92-1.48,1-3.89,1.38-5.58.43-2.13.77-4.29,1.15-6.43.14,4.54-.32,9.16-.36,13.68.01,1.21,1.77,1.9,2.59.95,2.16-2.41,4.03-5,5.65-7.74,1.03.15,2.05.33,3.06.55,1.89.42,2.42-2.52.53-2.92-.69-.15-1.38-.27-2.08-.37,1.81-3.5,3.24-7.22,4.4-11.07.78-.76.28-2.57-1.24-2.6ZM724.57,458.24c-1.03,0-2.31-.12-3.3-.32.14-.9.51-1.86.69-2.65.3-1.34.64-2.68.85-4.04.13-.73.14-2.77.7-3.24.39-.33,1.88-.03,2.97.23l-.84,4.82c-.31,1.5-.46,3.64-1.06,5.2ZM734.91,451.85c-.81-.05-1.41.85-1.35,1.56.04.52.33.88.72,1.11-.33.54-.67,1.07-1.05,1.59-.31.44-.64.85-.96,1.28.03-.52.05-1.04.08-1.56.12-1.95.11-3.93.12-5.88,0-1.31-.04-2.62-.12-3.92.25.09.5.17.73.27,1.77.76,3.06-1.86,1.29-2.61-.75-.31-1.53-.56-2.33-.78-.11-.76-.25-1.52-.41-2.28,2.83.4,5.66.67,8.52.82-1.04,3.33-2.34,6.54-3.92,9.6-.16.29-.31.58-.47.87-.28-.02-.57-.05-.85-.07Z"/><path class="cls-1" d="M735.83,466.81c-5.12-2.38-10.05.47-13.56,3.92-.07.07-.14.15-.21.22l-2.34-.41c.14-.34.27-.68.41-1.01.61-1.51,1.2-3.03,1.86-4.54.72-1.67-1.92-3.07-2.64-1.41-.67,1.55-1.31,3.11-1.91,4.68-.25.58-.49,1.17-.74,1.75l-1.04-.18c-1.89-.34-2.66,2.32-.76,2.69l.73.14c-.04.09-.08.19-.11.28-.35.9-.66,1.8-.98,2.7-.61.39-.87,1.16-.64,1.75-.57,1.68-1.11,3.37-1.61,5.08-.5,1.73,2.37,2.62,2.87.87.47-1.64.99-3.27,1.53-4.89.11.02.22.04.33.06-.71,1.86-1.15,3.82-1.23,5.84-.38,5.12,1.62,10.16,6.73,12.68,3.83,1.91,9.73.22,8.72-4.91-.38-1.86-3.32-1.22-2.94.63.58,2.85-3.35,2.31-4.82,1.52-1.65-.89-3.05-2.24-3.82-3.89-.73-1.52-.94-3.2-.93-4.9-.01-1.71.29-3.41.76-4.93.14-.45.34-.95.56-1.46,2.01.41,4.02.85,6.02,1.35,1.87.47,2.67-2.34.79-2.79-1.8-.43-3.6-.82-5.41-1.18.51-.81,1.08-1.63,1.72-2.41l7.87,1.46c1.89.35,2.71-2.49.8-2.82l-6.27-1.11c1.26-1.09,2.55-1.99,3.96-2.45,1.57-.52,3.23-.53,4.92.28,1.74.84,3.17-1.75,1.42-2.58ZM718.26,475.87c-.2-.04-.41-.07-.61-.11.21-.57.4-1.14.61-1.7.11-.29.24-.58.35-.87l1.24.23c-.59.78-1.12,1.6-1.6,2.45Z"/><path class="cls-1" d="M732.61,481.18c-.3-.21-.68-.33-1.13-.26-3.13.45-6.18,1.11-9.18,1.96-1.62.46-1.31,2.71.39,2.86,1.94.18,3.78.86,5.32,2.1,1.02.81,1.76,2.52,3.04,2.81,1.06.24,1.81-.42,2.07-1.37.6-2.05.67-4.24,1.33-6.3.4-1.26-.84-2.03-1.84-1.8ZM728.24,484.48c.93-.19,1.86-.35,2.8-.5-.14.53-.27,1.07-.38,1.61-.04.2-.07.4-.1.6-.03-.02-.05-.05-.08-.08-.68-.62-1.44-1.17-2.25-1.62Z"/><path class="cls-1" d="M726.23,498.4c-1.87.97-3.68,2.01-5.44,3.11-.07-.2-.14-.41-.23-.61-2.48-5.63-9.1-4.43-13.66-3.07-.89.27-.98,1.05-.65,1.69.32.64,1.1,1.16,2,.9,3.3-.96,8.59-2.24,9.85,2.4.03.13.04.27.07.4-.08.06-.17.11-.25.17-1.76,1.18-5.76,3.02-5.92,5.34-.09,1.17.69,2.57.99,3.67.3,1.1.53,2.22.72,3.34-1.11,1.25-2.37,2.36-3.74,3.25-1.51.93-3.95,1.85-5.03-.19-.93-1.82.24-3.9,1.19-5.39.98-1.53-1.43-3.3-2.41-1.78-1.99,3.29-3.79,9.35,1.72,11.06,2.39.73,4.86-.18,7.06-1.7.59-.41,1.14-.87,1.66-1.35.1,2.62-.23,5.19-.75,7.78-.25,1.2,1.39,2.22,2.37,1.43,1.84-1.5,3.17-3.48,4.27-5.61,1.02-2.16,1.78-4.49,2.64-6.62l3.04-7.75.75-1.94.66-1.97,1.3-3.96c.15-.44.08-.83-.1-1.15.02-1.01-.97-2.05-2.12-1.45ZM715.83,511.6c-.14-.5-.29-1.01-.46-1.5-.36-1.04-.27-.74.3-1.48.56-.73,1.65-1.38,2.59-1.95-.29,2.06-1.12,4.09-2.14,5.81-.02.03-.04.06-.05.08-.08-.32-.15-.64-.24-.96ZM720.6,513.76c-.82,2.06-1.56,4.51-2.52,6.83-.28.7-.62,1.37-.98,2.02.02-.28.05-.55.06-.83,0-.69,0-1.38-.04-2.07-.05-1.02-.15-2.03-.28-3.04.29-.37.56-.73.81-1.07,1.41-1.98,2.66-4.45,3.31-7.03.32-1.29.51-2.59.47-3.88,0-.02,0-.03,0-.05.61-.4,1.22-.79,1.84-1.16.49-.3.99-.58,1.49-.87-.47,1.46-.95,2.91-1.5,4.34l-2.66,6.82Z"/><path class="cls-1" d="M712.32,503.03l-6.48-2.58c-1.8-.71-2.8,1.87-1.02,2.6l6.46,2.63c1.79.73,2.83-1.94,1.03-2.65Z"/><path class="cls-1" d="M710.33,506.06c-1.72-.34-3.41-.78-5.09-1.3-1.84-.57-2.86,2.01-1.02,2.61,1.92.62,3.88,1.13,5.85,1.54,1.89.39,2.14-2.47.25-2.84Z"/><path class="cls-1" d="M707,529.67c-1.82.79-3.28,2.28-4.52,3.97-1.02,1.31-1.94,2.73-2.77,4.03-1.07-.32-2.15-.63-3.23-.94.09-1.75.3-3.48.68-5.18.3-1.7.68-3.66,2.34-4.54,1.77-.94,3.93-.22,4.94,1.58.92,1.65,3.69.68,2.76-.98-1.36-2.44-3.77-4.12-6.69-3.88-3.36.27-5.21,2.76-5.94,5.66-.59,2.09-.93,4.29-1.06,6.51-1.6-.43-3.2-.84-4.8-1.24-1.87-.46-2.36,2.27-.5,2.75,1.75.44,3.49.91,5.24,1.4,0,.46.03.93.05,1.39.1,2.02.25,4.56.9,6.83-.28.59-.55,1.19-.83,1.78-.57,1.14-1.12,2.3-1.64,3.47-.45,1.02.41,2.57,1.74,2.12,1.38-.46,1.88-1.2,2.02-2.59.02-.17,0-.32-.03-.46.14-.29.28-.59.42-.88,0,0,.01.02.02.03,1.17,1.46,2.54,1.95,3.98,1.8,1.42-.16,2.86-1,4.23-2.14,2.73-2.28,5.14-5.79,6.19-7.65.76-1.4,1.74-3.11,2.22-4.96.5-1.84.68-3.72.11-5.33-.89-2.49-3.45-3.61-5.82-2.57ZM698.16,540.18c-.54.88-1.07,1.76-1.56,2.66-.07-1.02-.09-1.98-.13-2.74,0-.14,0-.29,0-.43.57.17,1.13.33,1.7.5ZM698.15,548.43c-.24-.28-.44-.63-.61-.99.39-.8.79-1.59,1.21-2.37.73-1.36,1.5-2.69,2.32-4,1.69.53,3.37,1.08,5.05,1.66.25.09.5.11.73.08-.23.33-.46.66-.7.97-1.27,1.69-5.64,7.39-7.98,4.65ZM710.08,535.2c-.11.77-.28,1.55-.52,2.31-.26.75-.57,1.49-.93,2.22-.15.31-.32.62-.48.93-.14-.23-.37-.42-.72-.54-1.57-.53-3.15-1.04-4.73-1.53.39-.56.78-1.12,1.19-1.66.43-.59.89-1.17,1.35-1.74.45-.58.92-1.13,1.45-1.64.73-.71,1.14-1.18,2.24-.95,1.37.29,1.35,1.24,1.15,2.61Z"/><path class="cls-1" d="M702.56,561.9c-5.55-1.97-10.87-4.42-16-7.27l1.08-1.87,2.27-3.9c.37-.65.77-1.29,1.12-1.96l1.04-2c.84-1.62-1.82-3.01-2.65-1.4l-1.03,1.99c-.35.66-.74,1.29-1.11,1.94l-2.25,3.87-1.07,1.85c-.23-.13-.46-.26-.68-.4-.24-.14-.48-.21-.7-.22,1.39-2.04,2.8-4.06,4.25-6.07,1.06-1.47-1.6-2.87-2.64-1.43-2.67,3.7-5.24,7.44-7.7,11.24-.97,1.49,1.6,3.04,2.58,1.53.72-1.11,1.46-2.2,2.2-3.3.11.26.32.5.63.69.18.11.37.22.56.33-.87.94-1.38,2.53-1.91,3.52-.86,1.59,1.66,3.12,2.58,1.54l1.58-2.73c.08.02.17.04.28.06l1.41.54c.45.17.83.12,1.12-.06,4.62,2.47,9.39,4.63,14.33,6.42,1.81.66,2.54-2.26.73-2.89Z"/><path class="cls-1" d="M700.49,558.87c.78-.02,1.52-.69,1.47-1.5-.05-.79-.7-1.47-1.54-1.45,0,0-.02,0-.03,0-.04,0-.09-.02-.13-.03-.03-.02-.07-.03-.1-.05-.67-.42-1.69-.13-2.04.55-.38.74-.12,1.55.59,2,.52.33,1.17.49,1.78.48Z"/><path class="cls-1" d="M694.66,571.03c-2.13,3.23-4.36,6.39-6.68,9.46-.59.76-1.17,1.52-1.76,2.29-.58.76-1.19,1.51-1.85,2.22-.53.6-1.08,1.17-1.62,1.76-.08-1.23-.2-2.46-.35-3.67-.02-.19-.06-.39-.09-.58.19-.32.38-.64.56-.95.79-1.42,1.61-2.82,2.45-4.21.18-.29.36-.57.54-.86.65.43,1.29.86,1.92,1.3,1.58,1.11,3.17-1.39,1.58-2.48-.64-.44-1.29-.87-1.94-1.29,1.05-1.62,2.12-3.23,3.23-4.81,1.09-1.54-1.49-3.08-2.56-1.56-1.11,1.57-2.17,3.17-3.21,4.78-1.43-.87-2.88-1.7-4.35-2.49-.52-.28-1.02-.25-1.42-.04-.4-1.06-.86-2.08-1.42-3.01,1.77.24,3.54.52,5.31.87,1.87.37,2.7-2.39.8-2.75-3.23-.62-6.45-1.08-9.68-1.38-1.48-.14-1.99,1.81-.75,2.6,1.86,1.18,2.53,3.78,3.23,5.7.71,1.96,1.31,3.96,1.82,5.99.33,1.32.58,2.64.79,3.96-.04.08-.09.15-.13.23-.33-.25-.66-.49-.97-.71l-6.54-4.73c1.17-.71,2.1-1.68,2.73-3.03.79-1.63-1.71-3.28-2.5-1.65-.35.73-.78,1.36-1.33,1.86-.56.49-1.25.85-2.07,1.07-1.19.32-1.63,1.72-.51,2.55l5.05,3.72c1.04.77,3.78,2.22,4.78,3.49-.12,1.08,1.05,2.01,2,1.65.1,1.31.16,2.63.19,3.97.02,1.1,1.47,2.31,2.45,1.29,5.68-5.71,10.38-12.24,14.85-18.96,1.06-1.61-1.51-3.15-2.56-1.56ZM683.35,574.86c-.17.28-.36.56-.53.85-.47.77-.91,1.56-1.36,2.33-.19-.78-.38-1.55-.59-2.32-.23-.85-.48-1.79-.75-2.77,1.09.62,2.17,1.25,3.24,1.91Z"/><path class="cls-1" d="M676.32,590.81c-1-.75-2.16-1.3-3.42-1.26-1.56.05-3.13,1.62-4.6,1.2-.91-.26-1.6.28-1.84.96-.25.67-.07,1.47.86,1.75,1.83.56,2.8-.05,4.47-.54,1.7-.5,2.68-.15,3.83,1.26,1.4,1.72.77.87.05,1.78-.65.84-2.39,1.61-3.33,2.08-1.02.54-2.07,1.04-3.13,1.48-2.02.83-4.31,1.64-6.51,1.03-2.17-.62-3.36-2-3.88-3.66.58-.74,1.17-1.46,1.74-2.2l2.81-3.66c.95-1.21,1.75-2.53,2.63-3.79,1.02-1.52-1.42-3.27-2.42-1.77-.87,1.25-1.66,2.56-2.6,3.76l-2.11,2.76c.35-1.4.93-2.72,1.6-3.73.88-1.36,2.74-4.79,4.51-5.06.85-.13,2.28,1.31,2.92,1.77.97.71,1.91,1.45,2.85,2.19,1.51,1.21,3.18-1.16,1.66-2.34-2.02-1.59-5.44-5.17-8.23-4.44-2.79.71-4.95,4.21-6.34,6.42-1.54,2.38-2.45,5.6-2.18,8.65.02.18.05.35.08.53-1.07,1.35-2.12,2.71-3.2,4.06-1.13,1.41,1.18,3.32,2.33,1.89.68-.84,1.33-1.69,2-2.54.82,1.44,2.06,2.69,3.87,3.53,2.86,1.34,6.01.73,8.83-.33,1.74-.66,3.42-1.51,5.05-2.42,1.41-.76,3.12-1.6,4.16-2.79,1.9-2.18-.6-5.2-2.43-6.57Z"/><path class="cls-1" d="M663.09,592.09c-.52.66-.28,1.47.32,2.03,1.2,1.13,2.48,2.16,3.85,3.09,1.59,1.08,3.4-1.21,1.79-2.28-1.38-.92-2.66-1.93-3.88-3.05-.6-.55-1.64-.34-2.08.22Z"/><path class="cls-1" d="M694.82,567.85c1.84.55,2.57-2.34.72-2.87-2.16-.64-4.28-1.4-6.35-2.28-1.77-.75-2.43,2.08-.7,2.83,2.08.9,4.18,1.67,6.33,2.32Z"/><path class="cls-1" d="M666.48,609.45c-3.49-2.12-6.81-4.49-9.99-7.07-.93-.75-2.12-.19-2.32.87-.21.97-.48,1.9-.81,2.82-1.64-1.36-3.37-2.64-4.92-3.93-1.49-1.23-3.31.86-1.84,2.11,1.75,1.48,3.8,2.95,5.62,4.56-.22.47-.45.93-.69,1.4,0-.25-.07-.5-.2-.72-.03-.33-.18-.66-.5-.94-1.99-1.78-4.93-4.83-7.2-2.56-1.49,1.49-2.8,3.21-4.18,4.81-.59.67-1.3,1.39-2,2.11-.71.71-1.36,1.45-1.73,2.28-.19.4-.24,1.02.09,1.42,1.05,1.28,2.61,2.21,3.94,3.21,1.02.76,1.78,1.41,2.98.79.77-.41,1.5-1.1,2.15-1.89.63-.8,1.21-1.65,1.77-2.31l4.22-4.94c-.38.68-.76,1.36-1.16,2.03-1.98,3.21-3.91,6.33-5.95,9.63-.6,1.04.57,2.52,1.76,2.12,3.1-.98,5.97-2.32,8.73-3.89.8.63,1.59,1.29,2.35,1.98,1.42,1.31,3.38-.95,1.94-2.24-.52-.47-1.06-.92-1.61-1.36,1.76-1.12,3.47-2.33,5.13-3.63,1.48-1.17,2.95-2.38,4.27-3.74,1.01-.31,1.42-2.15.15-2.91ZM645,613.69c-1,1.16-2.11,3.02-3.42,4.06-.89-.53-1.95-1.27-2.71-1.94.58-.7,1.39-1.34,1.9-1.96l2.7-3.12c.49-.56,1.53-2.31,2.25-2.44.51-.09,1.64.92,2.45,1.69l-3.18,3.72ZM660.05,613.9c-1.57,1.21-3.19,2.35-4.85,3.4-.28.18-.57.34-.86.51-.23-.16-.46-.32-.7-.48-.68-.45-1.65.02-1.96.66-.22.47-.16.92.06,1.3-.55.3-1.11.6-1.67.88-.47.23-.95.45-1.43.67.27-.45.54-.9.81-1.35,1.02-1.68,2.07-3.34,3.06-5.02.66-1.13,1.28-2.28,1.87-3.44.17.2.35.41.51.62,1.15,1.54,3.6-.06,2.44-1.59-.49-.64-1.04-1.25-1.63-1.84.22-.52.42-1.05.61-1.58.07-.19.12-.4.18-.6,2.25,1.77,4.58,3.42,6.97,4.97-1.08,1.03-2.24,1.98-3.41,2.9Z"/><path class="cls-1" d="M633.24,627.31c-.1.03-.19.06-.29.09l-1.82-1.54c1.55-1.25,3.12-2.48,4.76-3.66,1.47-1.07-.1-3.6-1.57-2.54-1.89,1.36-3.71,2.79-5.5,4.25l-.82-.69c-1.46-1.24-3.39.76-1.94,2.01l.56.48c-.08.06-.16.13-.23.19-.76.59-1.49,1.21-2.24,1.82-.72.03-1.35.55-1.45,1.17-1.36,1.15-2.69,2.32-3.99,3.53-1.31,1.22.71,3.43,2.05,2.19,1.25-1.16,2.53-2.3,3.83-3.4.08.07.17.14.25.22-1.57,1.23-2.95,2.69-4.05,4.37-1.43,2.15-2.27,4.62-2.43,7.1-.18,2.44.39,4.97,1.96,7.32,1.18,1.78,3.26,3.07,5.27,3.28,1,.1,2-.03,2.83-.55.81-.53,1.48-1.39,1.88-2.65.57-1.84-2.27-2.73-2.83-.89-.86,2.83-4.04.34-4.9-1.07-.97-1.58-1.5-3.45-1.38-5.31.23-3.41,2.39-6.51,4.76-8.63.35-.32.77-.64,1.23-.96,1.54,1.37,3.05,2.76,4.54,4.19,1.38,1.34,3.52-.66,2.11-1.99-1.34-1.27-2.71-2.52-4.09-3.74.85-.44,1.76-.85,2.7-1.22l6.06,5.2c1.46,1.24,3.51-.87,2.03-2.11l-4.86-4.1c3.39-.73,6.79-.33,8.78,2.58,1.08,1.59,3.64.09,2.54-1.5-3.21-4.6-9-4.69-13.72-3.44ZM629.62,628.64c-.81.34-1.59.75-2.35,1.18-.16-.13-.31-.27-.47-.4.47-.38.93-.77,1.4-1.15.24-.2.48-.39.72-.59l.98.84c-.09.04-.19.07-.28.11Z"/><path class="cls-1" d="M637,641.6c-.15-.33-.43-.62-.85-.79-2.95-1.19-5.93-2.17-8.97-2.96-1.64-.43-2.52,1.65-1.12,2.65,1.6,1.13,2.84,2.64,3.55,4.48.46,1.19.25,3.06,1.22,3.97.79.73,1.75.52,2.48-.15,1.57-1.45,2.75-3.29,4.37-4.72.99-.87.31-2.16-.68-2.47ZM633.06,644.39c-.13.15-.26.31-.39.46-.01-.03-.01-.07-.03-.11-.28-.87-.65-1.73-1.12-2.52.9.31,1.79.64,2.69.99-.39.38-.78.78-1.15,1.19Z"/><path class="cls-1" d="M622.84,653.29c-2.12-.12-4.23-.15-6.32-.1.04-.21.08-.42.11-.63.73-6.06-5.64-8.38-10.3-9.53-1.82-.45-1.94,2.46-.14,2.91,3.35.83,8.61,2.42,7.32,7.03-.04.13-.09.25-.13.37-.1,0-.21,0-.31.02-2.11.15-6.39-.15-7.68,1.79-.67.95-.72,2.54-1.02,3.62-.3,1.09-.68,2.15-1.09,3.21-1.61.49-3.28.81-4.91.88-1.74.08-4.29-.31-4.23-2.64.06-2.1,2.14-3.28,3.74-4.06,1.64-.8.45-3.53-1.18-2.74-3.49,1.7-7.9,6.28-4.02,10.49,2.14,2.32,5.7,2.34,8.99,1.62-1.23,2.31-2.73,4.47-4.44,6.49-.8.94.11,2.65,1.34,2.43,4.62-.84,8.4-4.4,12.07-7.17,1.11-.84,2.22-1.67,3.31-2.52l3.17-2.7,6.32-5.43c.35-.3.5-.67.5-1.03.54-.85.21-2.24-1.11-2.31ZM607.24,659.53c.13-.5.27-1.01.37-1.51.22-1.06.14-.78.99-1.15.83-.37,2.08-.41,3.16-.45-.23.32-.48.62-.74.92-.57.64-1.19,1.23-1.85,1.76-.68.5-1.4.94-2.12,1.33-.03.02-.06.03-.09.04.09-.31.2-.62.28-.94ZM615.93,659.13c-1.87,1.56-3.66,3.23-5.64,4.65-2.3,1.74-4.84,4.13-7.56,5.8,1.07-1.67,2.01-3.42,2.8-5.23.44-.17.87-.34,1.25-.51,3.44-1.38,6.91-4.18,8.69-7.66,1.3-.06,2.61-.07,3.93-.05l-3.48,2.99Z"/><path class="cls-1" d="M608.42,650.25l-4.32-5.49c-1.2-1.52-3.31.28-2.13,1.81l4.28,5.52c1.18,1.53,3.37-.33,2.17-1.85Z"/><path class="cls-1" d="M601.52,648.31c-1.27-1.38-3.49.3-2.2,1.74,1.36,1.5,2.79,2.92,4.3,4.28.71.64,1.51.4,1.91-.2.4-.6.44-1.52-.28-2.15-1.31-1.15-2.55-2.38-3.74-3.67Z"/><path class="cls-1" d="M394.02,468.79v-1h-19.91v1s6.97.98,7.46,5.53v188.69c-.48,4.55-7.46,5.53-7.46,5.53v1h19.91v-1s-6.98-.98-7.46-5.54v-188.68c.48-4.55,7.46-5.54,7.46-5.54Z"/><path class="cls-1" d="M626.34,232.66l-.87.5s2.64,6.53-1.06,9.23l-163.4,94.34c-4.18,1.86-8.52-3.69-8.52-3.69l-.87.5,9.96,17.25.87-.5s-2.63-6.53,1.06-9.22l163.4-94.34c4.18-1.86,8.52,3.69,8.52,3.69l.87-.5-9.96-17.25Z"/><path class="cls-1" d="M315.52,333.03s-4.34,5.55-8.52,3.69l-163.4-94.34c-3.7-2.69-1.06-9.23-1.06-9.23l-.87-.5-9.96,17.25.87.5s4.34-5.55,8.52-3.69l163.41,94.34c3.7,2.69,1.06,9.22,1.06,9.22l.87.5,9.96-17.25-.87-.5Z"/><path class="cls-1" d="M260.31,461.72c0-2.72-.46-5.34-1.3-7.78.07.74.11,1.5.11,2.26,0,6.75-2.94,12.81-7.61,16.98-4.13-3.38-9.4-5.4-15.15-5.4s-11.02,2.03-15.15,5.4c-4.67-4.17-7.61-10.23-7.61-16.98,0-.76.04-1.52.11-2.26-.84,2.44-1.3,5.05-1.3,7.78,0,5.68,1.98,10.9,5.29,15-3.31,4.11-5.29,9.32-5.29,15,0,2.72.46,5.34,1.3,7.78-.07-.74-.11-1.5-.11-2.26,0-6.75,2.94-12.81,7.61-16.98,4.13,3.38,9.4,5.4,15.15,5.4s11.02-2.03,15.15-5.4c4.67,4.17,7.61,10.23,7.61,16.98,0,.76-.04,1.52-.11,2.26.84-2.44,1.3-5.05,1.3-7.78,0-5.68-1.98-10.9-5.29-15,3.31-4.11,5.29-9.32,5.29-15ZM236.37,478.96c-3.53,0-6.88-.8-9.86-2.24,2.98-1.44,6.33-2.24,9.86-2.24s6.88.8,9.86,2.24c-2.98,1.44-6.33,2.24-9.86,2.24Z"/><path class="cls-1" d="M558.27,447.69v-1.04h-22.59v1.04s9.11,1.5,9.3,4.68v3.61c-3.81-2.56-8.4-4.06-13.34-4.06s-9.53,1.5-13.34,4.06v-3.61c.19-3.18,9.3-4.68,9.3-4.68v-1.04h-22.59v1.04s9.1,1.5,9.3,4.68v6.99c-4.09,4.29-6.6,10.1-6.6,16.5,0,2.72.46,5.34,1.3,7.78-.07-.74-.11-1.5-.11-2.26,0-5.62,2.04-10.76,5.42-14.73v34.42c-.19,3.18-9.3,4.68-9.3,4.68v1.04h22.59v-1.04s-9.11-1.5-9.3-4.68v-38.12c3.75-2.72,8.36-4.32,13.34-4.32s9.59,1.61,13.34,4.32v38.12c-.19,3.19-9.3,4.68-9.3,4.68v1.04h22.59v-1.04s-9.1-1.5-9.3-4.68v-34.42c3.38,3.97,5.42,9.11,5.42,14.73,0,.76-.04,1.52-.11,2.26.84-2.44,1.3-5.05,1.3-7.78,0-6.4-2.51-12.2-6.6-16.5v-6.99c.19-3.18,9.3-4.68,9.3-4.68Z"/><path class="cls-1" d="M402.63,226.07s-1.84-2.39-1.84-6.73v-17.66c0-7.83-6-11.66-6-10v26.54h-7.72v-39.32c0,2.36-6,2.36-6,0v39.32h-7.72v-26.54c0-1.66-6,2.17-6,10v17.66c0,4.34-1.84,6.73-1.84,6.73,0,0,2.39-1.85,6.73-1.85h8.84v16.19c0-2.36,6-2.36,6,0v-16.19h8.84c4.34,0,6.73,1.85,6.73,1.85Z"/><path class="cls-1" d="M414.66,632.87s-1,7.98-5.58,8.83h-50.15c-4.59-.85-5.58-8.83-5.58-8.83h-3.06v23.66h3.06s1-7.98,5.58-8.83h50.16c4.58.85,5.58,8.83,5.58,8.83h3.06v-23.66h-3.06Z"/><path class="cls-1" d="M414.66,602.67s-1,7.98-5.58,8.83h-50.16c-4.58-.85-5.58-8.83-5.58-8.83h-3.06v23.66h3.06s1-7.98,5.58-8.83h50.15c4.59.85,5.58,8.83,5.58,8.83h3.06v-23.66h-3.06Z"/><path class="cls-1" d="M634.96,273.4s-7.4,3.15-10.44-.38l-25.25-43.39c-1.52-4.38,4.85-9.22,4.85-9.22l-1.54-2.65-20.45,11.9,1.54,2.65s7.4-3.15,10.44.38l25.25,43.39c1.52,4.38-4.85,9.22-4.85,9.22l1.54,2.65,20.45-11.9-1.54-2.65Z"/><path class="cls-1" d="M165.43,217.76l-1.54,2.65s6.36,4.85,4.85,9.22l-12.64,21.72-12.61,21.67c-3.04,3.54-10.44.38-10.44.38l-1.54,2.65,20.45,11.9,1.54-2.65s-6.36-4.85-4.85-9.22l12.64-21.72,12.61-21.67c3.04-3.54,10.44-.38,10.44-.38l1.54-2.65-20.45-11.9Z"/><path class="cls-1" d="M608.85,288.6s-7.4,3.15-10.44-.38l-25.25-43.39c-1.52-4.38,4.85-9.23,4.85-9.23l-1.54-2.65-20.45,11.9,1.54,2.65s7.4-3.15,10.44.38l25.26,43.39c1.51,4.38-4.85,9.22-4.85,9.22l1.54,2.65,20.45-11.9-1.54-2.65Z"/><path class="cls-1" d="M191.53,232.95l-1.54,2.65s6.36,4.85,4.85,9.22l-12.64,21.72-12.61,21.67c-3.04,3.54-10.44.38-10.44.38l-1.54,2.65,20.45,11.9,1.54-2.65s-6.36-4.84-4.85-9.22l12.64-21.72,12.62-21.67c3.04-3.53,10.44-.38,10.44-.38l1.54-2.65-20.45-11.9Z"/></g></svg>