<?xml version="1.0" encoding="UTF-8"?><svg id="Layer_1" xmlns="http://www.w3.org/2000/svg" viewBox="0 0 864.26 834.74"><defs><style>.cls-1{fill:#fff;}</style></defs><g id="Pentagram_2"><path class="cls-1" d="M482.14,240.65c5.99-9.32,9.48-20.41,9.48-32.31,0-33.08-26.82-59.9-59.9-59.9-33.08,0-59.9,26.82-59.9,59.9,0,11.91,3.49,22.99,9.48,32.31-9.64-11.46-15.45-26.23-15.45-42.38,0-36.38,29.49-65.87,65.87-65.87,36.38,0,65.87,29.49,65.87,65.87,0,16.14-5.82,30.92-15.45,42.38Z"/><path class="cls-1" d="M475.65,79.9h17.66c7.83,0,11.66,6,10,6h-26.54v21.45h26.54c1.66,0-2.17,6-10,6h-17.66c-4.34,0-6.73,1.84-6.73,1.84,0,0,1.85-2.39,1.85-6.73v-23.68c0-4.34-1.85-6.73-1.85-6.73,0,0,2.39,1.84,6.73,1.84Z"/><path class="cls-1" d="M516.08,93.63h-168.71c2.36,0,2.36,6,0,6h168.71c-2.36,0-2.36-6,0-6Z"/><path class="cls-1" d="M387.79,79.9h-17.66c-7.83,0-11.66,6-10,6h26.54v21.45h-26.54c-1.66,0,2.17,6,10,6h17.66c4.34,0,6.73,1.84,6.73,1.84,0,0-1.85-2.39-1.85-6.73v-23.68c0-4.34,1.85-6.73,1.85-6.73,0,0-2.39,1.84-6.73,1.84Z"/><path class="cls-1" d="M788.72,266.73c-19.49-46.08-47.4-87.47-82.93-123.01-35.54-35.54-76.93-63.44-123.01-82.93-40.61-17.18-83.37-27.14-127.41-29.73-10.61-1.97-16.82-12.51-23.23-31.06-6.41,18.55-12.62,29.08-23.23,31.06-44.04,2.59-86.8,12.55-127.41,29.73-46.08,19.49-87.47,47.4-123.01,82.93s-63.44,76.93-82.93,123.01c-20.18,47.72-30.42,98.4-30.42,150.64s10.23,102.92,30.42,150.64c19.49,46.08,47.4,87.47,82.93,123.01s76.93,63.44,123.01,82.94c40.61,17.18,83.37,27.14,127.4,29.73,10.61,1.97,16.82,12.51,23.23,31.06,6.41-18.55,12.62-29.09,23.23-31.06,44.04-2.59,86.8-12.55,127.41-29.73,46.08-19.49,87.47-47.4,123.01-82.94,35.54-35.54,63.44-76.93,82.93-123.01,20.18-47.71,30.42-98.4,30.42-150.64s-10.23-102.92-30.42-150.64ZM432.13,792.37c-206.78,0-375-168.22-375-375S225.36,42.37,432.13,42.37s375,168.22,375,375-168.22,375-375,375Z"/><path class="cls-1" d="M432.13,779.37c-48.87,0-96.28-9.57-140.91-28.45-43.11-18.23-81.82-44.33-115.07-77.58-33.24-33.24-59.35-71.96-77.58-115.06-18.88-44.63-28.45-92.04-28.45-140.91s9.57-96.28,28.45-140.91c18.23-43.11,44.33-81.82,77.58-115.07,33.25-33.24,71.96-59.35,115.07-77.58,44.63-18.88,92.04-28.45,140.91-28.45s96.28,9.57,140.91,28.45c43.11,18.23,81.82,44.33,115.07,77.58,33.25,33.25,59.35,71.96,77.58,115.07,18.88,44.63,28.45,92.04,28.45,140.91s-9.57,96.28-28.45,140.91c-18.23,43.11-44.33,81.82-77.58,115.06s-71.96,59.35-115.07,77.58c-44.63,18.88-92.04,28.45-140.91,28.45ZM432.13,59.37c-197.4,0-358,160.6-358,358s160.6,358,358,358,358-160.6,358-358S629.53,59.37,432.13,59.37Z"/><path class="cls-1" d="M148.39,368.05v-1h-19.91v1s6.98.98,7.46,5.53v87.81c-.48,4.55-7.46,5.53-7.46,5.53v1h19.91v-1s-6.97-.98-7.46-5.53v-87.81c.48-4.55,7.46-5.53,7.46-5.53Z"/><path class="cls-1" d="M287.83,407.53s-.98,6.97-5.53,7.46H113.58c-4.55-.48-5.53-7.46-5.53-7.46h-1v19.91h1s.98-6.98,5.54-7.46h168.71c4.55.48,5.54,7.46,5.54,7.46h1v-19.91h-1Z"/><path class="cls-1" d="M188.41,317.5v-1h-19.91v1s6.98.98,7.46,5.54v188.68c-.48,4.55-7.46,5.54-7.46,5.54v1h19.91v-1s-6.97-.98-7.46-5.53v-188.68c.48-4.55,7.46-5.53,7.46-5.53Z"/><path class="cls-1" d="M218.54,317.5v-1h-19.91v1s6.98.98,7.46,5.53v188.68c-.48,4.55-7.46,5.53-7.46,5.53v1h19.91v-1s-6.97-.98-7.46-5.53v-188.68c.48-4.55,7.46-5.53,7.46-5.53Z"/><path class="cls-1" d="M141.05,751.78l7.87-15.86c10.63-21.43,17.91-70.36-22.26-117.84l-.18-.23c-36.6-50.28-85.86-54.81-109.21-49.56l-17.27,3.89,13.92-10.93c23.99-18.84,53.87-27.21,84.15-23.57,30.28,3.64,57.33,18.86,76.17,42.84s27.21,53.87,23.57,84.15c-3.64,30.28-18.86,57.33-42.84,76.17l-13.92,10.93ZM132.86,613.02c17.99,21.3,28.98,45.74,31.8,70.67,1.55,13.7.55,27.59-2.72,39.98,15.43-16.39,25.2-37.19,27.93-59.95,3.39-28.16-4.4-55.95-21.92-78.26-17.52-22.31-42.67-36.45-70.83-39.84-22.76-2.74-45.29,1.82-64.86,12.93,12.8-.24,26.53,2.08,39.48,6.83,23.56,8.64,44.69,25.12,61.12,47.64Z"/><path class="cls-1" d="M84.22,297.9c-25.44,0-49.98-8.44-70.3-24.4l-13.92-10.93,17.27,3.89c23.34,5.25,72.61.72,109.21-49.56l.18-.23c40.17-47.48,32.89-96.41,22.26-117.84l-7.87-15.86,13.92,10.93c23.99,18.84,39.2,45.89,42.84,76.17s-4.73,60.17-23.57,84.15-45.89,39.2-76.17,42.84c-4.63.56-9.26.83-13.86.83ZM32.26,276.2c19.58,11.1,42.1,15.66,64.86,12.93,28.16-3.39,53.31-17.53,70.83-39.84,17.52-22.31,25.3-50.1,21.92-78.26-2.74-22.76-12.51-43.56-27.93-59.95,3.27,12.38,4.26,26.27,2.72,39.98-2.81,24.94-13.81,49.37-31.8,70.67-16.43,22.53-37.56,39-61.12,47.64-12.95,4.75-26.67,7.07-39.48,6.83Z"/><path class="cls-1" d="M723.21,751.78l-13.92-10.93c-23.99-18.84-39.2-45.89-42.84-76.17-3.64-30.28,4.73-60.17,23.57-84.15,18.84-23.99,45.89-39.2,76.17-42.84,30.28-3.64,60.17,4.73,84.15,23.57l13.92,10.93-17.27-3.89c-23.34-5.25-72.61-.72-109.21,49.56l-.18.23c-40.17,47.47-32.89,96.41-22.26,117.84l7.87,15.86ZM780.03,544.85c-4.27,0-8.58.26-12.89.77-28.16,3.39-53.31,17.53-70.83,39.84-17.52,22.31-25.3,50.1-21.92,78.26,2.74,22.76,12.51,43.56,27.93,59.95-3.27-12.38-4.26-26.27-2.72-39.98,2.81-24.94,13.81-49.37,31.8-70.67,16.43-22.53,37.56-39,61.12-47.64,12.95-4.75,26.68-7.08,39.48-6.83-15.87-9-33.68-13.7-51.98-13.7Z"/><path class="cls-1" d="M780.04,297.9c-4.6,0-9.22-.28-13.86-.83-30.28-3.64-57.33-18.86-76.17-42.84-18.84-23.99-27.21-53.87-23.57-84.15,3.64-30.28,18.86-57.33,42.84-76.17l13.92-10.93-7.87,15.86c-10.63,21.43-17.91,70.37,22.26,117.84l.18.23c36.6,50.28,85.87,54.81,109.21,49.56l17.27-3.89-13.92,10.93c-20.31,15.95-44.86,24.4-70.29,24.4ZM702.33,111.07c-15.43,16.39-25.2,37.19-27.93,59.95-3.39,28.16,4.4,55.95,21.92,78.26,17.52,22.31,42.67,36.45,70.83,39.84,22.77,2.74,45.29-1.82,64.86-12.93-12.82.24-26.53-2.09-39.48-6.83-23.56-8.64-44.69-25.12-61.12-47.64-17.99-21.3-28.98-45.74-31.8-70.67-1.55-13.7-.55-27.59,2.72-39.98Z"/><path class="cls-1" d="M698.73,780.4c-2.58-67.45-30.05-130.49-78.05-178.49-47.95-47.95-110.91-75.41-178.28-78.04-5.76-7.44-10.68-69.57-10.68-69.57,0,0-4.93,62.13-10.68,69.57-67.37,2.63-130.33,30.1-178.28,78.04-48,48-75.47,111.04-78.05,178.49-.67,9-1.85,20.5,2.58,30.64,4.97,11.38,10.37,16.96,10.37,16.96,0,0-5.73-29.94,9.02-35.84-9.67-.41-13.89-7.13-13.97-11.61,5.36-136.22,116.31-245.77,253.1-248.84,3.46,6.8,5.9,16.43,5.9,21.31,0-4.88,2.45-14.51,5.9-21.31,136.79,3.07,247.75,112.62,253.1,248.85-.08,4.47-4.29,11.19-13.97,11.6,14.75,5.9,9.02,35.84,9.02,35.84,0,0,5.39-5.58,10.37-16.96,4.43-10.15,3.25-21.64,2.58-30.65Z"/><path class="cls-1" d="M431.72,279.08c-52.03,0-101.34-16.65-142.59-48.14-39.93-30.48-69.55-73.71-83.41-121.72l7.69-2.22c27.89,96.61,117.66,164.08,218.32,164.08s190.73-67.67,218.46-164.56l7.69,2.2c-13.78,48.13-43.38,91.48-83.36,122.06-41.29,31.59-90.67,48.29-142.8,48.29Z"/><path class="cls-1" d="M650.18,728.22c-27.74-96.89-117.57-164.56-218.46-164.56s-190.43,67.47-218.32,164.08l-7.69-2.22c13.86-48.01,43.48-91.23,83.41-121.72,41.25-31.49,90.56-48.14,142.59-48.14s101.5,16.7,142.8,48.29c39.98,30.59,69.58,73.94,83.36,122.06l-7.69,2.2Z"/><path class="cls-1" d="M696.14,23.7c-4.97-11.38-10.37-16.96-10.37-16.96,0,0,5.73,29.94-9.02,35.84,9.67.41,13.89,7.13,13.97,11.6-5.35,136.22-116.31,245.77-253.1,248.85-3.46-6.8-5.91-16.44-5.91-21.31,0,4.88-2.45,14.52-5.91,21.31-136.78-3.07-247.74-112.62-253.1-248.85.08-4.47,4.29-11.19,13.97-11.61-14.75-5.9-9.02-35.84-9.02-35.84,0,0-5.39,5.58-10.37,16.96-4.43,10.15-3.25,21.64-2.58,30.64,2.58,67.45,30.05,130.5,78.05,178.49,47.95,47.95,110.91,75.41,178.28,78.04,5.75,7.47,10.68,69.56,10.68,69.56,0,0,4.92-62.09,10.68-69.56,67.37-2.63,130.33-30.09,178.28-78.04,48-48,75.47-111.04,78.05-178.49.67-9.01,1.85-20.5-2.58-30.65Z"/><path class="cls-1" d="M468.25,214.49s-1,8.89-5.59,9.83h-13.01c-.93-8.36-7.58-15.01-15.94-15.94v-13.01c.94-4.59,9.83-5.59,9.83-5.59v-3.06h-23.66v3.06s8.89,1,9.83,5.59v13.01c-8.36.93-15.01,7.58-15.94,15.94h-13.01c-4.59-.94-5.59-9.83-5.59-9.83h-3.06v23.66h3.06s1-8.89,5.59-9.83h13.01c.93,8.36,7.58,15.01,15.94,15.94v13.01c-.94,4.59-9.83,5.59-9.83,5.59v3.06h23.66v-3.06s-8.89-1-9.83-5.59v-13.01c8.36-.93,15.01-7.58,15.94-15.94h13.01c4.59.94,5.59,9.83,5.59,9.83h3.06v-23.66h-3.06ZM445.61,224.32h-11.89v-11.89c6.15.88,11.01,5.75,11.89,11.89ZM429.72,212.42v11.89h-11.89c.88-6.15,5.75-11.01,11.89-11.89ZM417.83,228.32h11.89v11.89c-6.15-.88-11.01-5.75-11.89-11.89ZM433.72,240.21v-11.89h11.89c-.88,6.15-5.75,11.01-11.89,11.89Z"/><path class="cls-1" d="M482.14,594.09c5.99,9.32,9.48,20.41,9.48,32.31,0,33.08-26.82,59.9-59.9,59.9-33.08,0-59.9-26.82-59.9-59.9,0-11.91,3.49-22.99,9.48-32.31-9.64,11.46-15.45,26.23-15.45,42.38,0,36.38,29.49,65.87,65.87,65.87,36.38,0,65.87-29.49,65.87-65.87,0-16.14-5.82-30.92-15.45-42.38Z"/><path class="cls-1" d="M475.65,754.84h17.66c7.83,0,11.66-6,10-6h-26.54v-21.45h26.54c1.66,0-2.17-6-10-6h-17.66c-4.34,0-6.73-1.84-6.73-1.84,0,0,1.85,2.39,1.85,6.73v23.68c0,4.34-1.85,6.73-1.85,6.73,0,0,2.39-1.84,6.73-1.84Z"/><path class="cls-1" d="M516.08,741.12h-168.71c2.36,0,2.36-6,0-6h168.71c-2.36,0-2.36,6,0,6Z"/><path class="cls-1" d="M387.79,754.84h-17.66c-7.83,0-11.66-6-10-6h26.54v-21.45h-26.54c-1.66,0,2.17-6,10-6h17.66c4.34,0,6.73-1.84,6.73-1.84,0,0-1.85,2.39-1.85,6.73v23.68c0,4.34,1.85,6.73,1.85,6.73,0,0-2.39-1.84-6.73-1.84Z"/><path class="cls-1" d="M468.25,596.6s-1,8.89-5.59,9.83h-13.01c-.93-8.36-7.58-15.01-15.94-15.94v-13.01c.94-4.59,9.83-5.59,9.83-5.59v-3.06h-23.66v3.06s8.89,1,9.83,5.59v13.01c-8.36.93-15.01,7.58-15.94,15.94h-13.01c-4.59-.94-5.59-9.83-5.59-9.83h-3.06v23.66h3.06s1-8.89,5.59-9.83h13.01c.93,8.36,7.58,15.01,15.94,15.94v13.01c-.94,4.59-9.83,5.59-9.83,5.59v3.06h23.66v-3.06s-8.89-1-9.83-5.59v-13.01c8.36-.93,15.01-7.58,15.94-15.94h13.01c4.59.94,5.59,9.83,5.59,9.83h3.06v-23.66h-3.06ZM445.61,606.43h-11.89v-11.89c6.15.88,11.01,5.75,11.89,11.89ZM429.72,594.53v11.89h-11.89c.88-6.15,5.75-11.01,11.89-11.89ZM417.83,610.43h11.89v11.89c-6.15-.88-11.01-5.75-11.89-11.89ZM433.72,622.32v-11.89h11.89c-.88,6.15-5.75,11.01-11.89,11.89Z"/><path class="cls-1" d="M549.52,702.71c-18.18,0-32.97-14.79-32.97-32.97s14.79-32.97,32.97-32.97,32.97,14.79,32.97,32.97-14.79,32.97-32.97,32.97ZM549.52,641.78c-15.42,0-27.97,12.55-27.97,27.97s12.55,27.97,27.97,27.97,27.97-12.55,27.97-27.97-12.55-27.97-27.97-27.97Z"/><path class="cls-1" d="M313.92,702.71c-18.18,0-32.97-14.79-32.97-32.97s14.79-32.97,32.97-32.97,32.97,14.79,32.97,32.97-14.79,32.97-32.97,32.97ZM313.92,641.78c-15.42,0-27.97,12.55-27.97,27.97s12.55,27.97,27.97,27.97,27.97-12.55,27.97-27.97-12.55-27.97-27.97-27.97Z"/><path class="cls-1" d="M238.49,521.99s10.13-9.59,14.73-13.33l133.9-86.38c7.05-3.33,17.53-4.91,17.53-4.91,0,0-10.48-1.57-17.53-4.91l-133.9-86.38c-4.59-3.74-14.73-13.33-14.73-13.33,0,0,6.13,9.02,7.23,15.59v178.06c-1.1,6.56-7.23,15.59-7.23,15.59ZM253.72,498.81v-162.88l126.24,81.44-126.24,81.44Z"/><path class="cls-1" d="M213.58,294.44c2.63.49,3.2,5.06,3.2,5.06h1.76v-13.57h-1.76s-.57,4.58-3.2,5.06h-40.13c-2.63-.49-3.2-5.06-3.2-5.06h-1.76v13.57h1.76s.57-4.58,3.2-5.06h40.12Z"/><path class="cls-1" d="M213.58,540.3c2.63-.49,3.2-5.06,3.2-5.06h1.76v13.57h-1.76s-.57-4.58-3.2-5.06h-40.13c-2.63.49-3.2,5.06-3.2,5.06h-1.76v-13.57h1.76s.57,4.58,3.2,5.06h40.12Z"/><path class="cls-1" d="M715.87,368.05v-1h19.91v1s-6.98.98-7.46,5.53v87.81c.48,4.55,7.46,5.53,7.46,5.53v1h-19.91v-1s6.97-.98,7.46-5.53v-87.81c-.48-4.55-7.46-5.53-7.46-5.53Z"/><path class="cls-1" d="M576.44,407.53s.98,6.97,5.53,7.46h168.72c4.55-.48,5.53-7.46,5.53-7.46h1v19.91h-1s-.98-6.98-5.54-7.46h-168.71c-4.55.48-5.54,7.46-5.54,7.46h-1v-19.91h1Z"/><path class="cls-1" d="M675.85,317.5v-1h19.91v1s-6.98.98-7.46,5.54v188.68c.48,4.55,7.46,5.54,7.46,5.54v1h-19.91v-1s6.97-.98,7.46-5.53v-188.68c-.48-4.55-7.46-5.53-7.46-5.53Z"/><path class="cls-1" d="M645.72,317.5v-1h19.91v1s-6.98.98-7.46,5.53v188.68c.48,4.55,7.46,5.53,7.46,5.53v1h-19.91v-1s6.97-.98,7.46-5.53v-188.68c-.48-4.55-7.46-5.53-7.46-5.53Z"/><path class="cls-1" d="M618.54,506.4v-178.06c1.1-6.56,7.23-15.59,7.23-15.59,0,0-10.13,9.59-14.73,13.33l-133.9,86.38c-7.05,3.34-17.53,4.91-17.53,4.91,0,0,10.48,1.57,17.53,4.91l133.9,86.38c4.59,3.74,14.73,13.33,14.73,13.33,0,0-6.13-9.02-7.23-15.59ZM484.3,417.37l126.24-81.44v162.88s-126.24-81.44-126.24-81.44Z"/><path class="cls-1" d="M650.68,294.44c-2.63.49-3.2,5.06-3.2,5.06h-1.76v-13.57h1.76s.57,4.58,3.2,5.06h40.13c2.63-.49,3.2-5.06,3.2-5.06h1.76v13.57h-1.76s-.57-4.58-3.2-5.06h-40.12Z"/><path class="cls-1" d="M650.68,540.3c-2.63-.49-3.2-5.06-3.2-5.06h-1.76v13.57h1.76s.57-4.58,3.2-5.06h40.13c2.63.49,3.2,5.06,3.2,5.06h1.76v-13.57h-1.76s-.57,4.58-3.2,5.06h-40.12Z"/><path class="cls-1" d="M309.93,669.75c0,3.92,1.79,7.09,3.99,7.09s3.99-3.17,3.99-7.09-1.79-7.09-3.99-7.09-3.99,3.17-3.99,7.09Z"/><path class="cls-1" d="M341.17,669.75c-1.8,0-6.77-4.24-6.77-4.24-3.21-2.62-8.15-5.83-14.35-7.21-5.47-3.04-6.12-11.03-6.12-11.03,0,0-.66,7.99-6.12,11.03-6.2,1.38-11.14,4.6-14.35,7.21,0,0-4.98,4.24-6.77,4.24,1.8,0,6.77,4.24,6.77,4.24,3.21,2.62,8.15,5.83,14.35,7.21,5.46,3.04,6.12,11.03,6.12,11.03,0,0,.66-7.99,6.12-11.03,6.2-1.38,11.14-4.6,14.35-7.21,0,0,4.98-4.24,6.77-4.24ZM313.92,676.94c-7.97,0-14.33-4.2-17.86-7.2,3.53-3,9.89-7.2,17.86-7.2s14.33,4.2,17.86,7.2c-3.53,3-9.9,7.2-17.86,7.2Z"/><path class="cls-1" d="M553.51,669.75c0,3.92-1.79,7.09-3.99,7.09s-3.99-3.17-3.99-7.09c0-3.92,1.79-7.09,3.99-7.09s3.99,3.17,3.99,7.09Z"/><path class="cls-1" d="M529.05,673.99c3.21,2.62,8.16,5.83,14.35,7.21,5.46,3.04,6.12,11.03,6.12,11.03,0,0,.66-7.99,6.12-11.03,6.2-1.38,11.15-4.6,14.35-7.21,0,0,4.98-4.24,6.77-4.24-1.8,0-6.77-4.24-6.77-4.24-3.21-2.62-8.15-5.83-14.35-7.21-5.46-3.04-6.12-11.03-6.12-11.03,0,0-.66,7.99-6.12,11.03-6.2,1.38-11.14,4.6-14.35,7.21,0,0-4.98,4.24-6.77,4.24,1.8,0,6.77,4.24,6.77,4.24ZM531.66,669.75c3.53-3,9.9-7.2,17.86-7.2s14.33,4.2,17.86,7.2c-3.53,3-9.9,7.2-17.86,7.2s-14.33-4.2-17.86-7.2Z"/><path class="cls-1" d="M582.49,164.99c0,18.18-14.79,32.97-32.97,32.97s-32.97-14.79-32.97-32.97,14.79-32.97,32.97-32.97,32.97,14.79,32.97,32.97ZM577.49,164.99c0-15.42-12.55-27.97-27.97-27.97s-27.97,12.55-27.97,27.97,12.55,27.97,27.97,27.97,27.97-12.55,27.97-27.97Z"/><path class="cls-1" d="M346.89,164.99c0,18.18-14.79,32.97-32.97,32.97s-32.97-14.79-32.97-32.97,14.79-32.97,32.97-32.97,32.97,14.79,32.97,32.97ZM341.89,164.99c0-15.42-12.55-27.97-27.97-27.97s-27.97,12.55-27.97,27.97,12.55,27.97,27.97,27.97,27.97-12.55,27.97-27.97Z"/><path class="cls-1" d="M309.93,164.99c0-3.92,1.79-7.09,3.99-7.09s3.99,3.17,3.99,7.09-1.79,7.09-3.99,7.09-3.99-3.17-3.99-7.09Z"/><path class="cls-1" d="M334.39,160.75c-3.21-2.62-8.16-5.83-14.35-7.21-5.46-3.04-6.12-11.03-6.12-11.03,0,0-.66,7.99-6.12,11.03-6.2,1.38-11.15,4.6-14.35,7.21,0,0-4.98,4.24-6.77,4.24,1.8,0,6.77,4.24,6.77,4.24,3.21,2.62,8.15,5.83,14.35,7.21,5.46,3.04,6.12,11.03,6.12,11.03,0,0,.66-7.99,6.12-11.03,6.2-1.38,11.14-4.6,14.35-7.21,0,0,4.98-4.24,6.77-4.24-1.8,0-6.77-4.24-6.77-4.24ZM331.78,164.99c-3.53,3-9.9,7.2-17.86,7.2s-14.33-4.2-17.86-7.2c3.53-3,9.9-7.2,17.86-7.2s14.33,4.2,17.86,7.2Z"/><path class="cls-1" d="M553.51,164.99c0-3.92-1.79-7.09-3.99-7.09s-3.99,3.17-3.99,7.09c0,3.92,1.79,7.09,3.99,7.09s3.99-3.17,3.99-7.09Z"/><path class="cls-1" d="M522.27,164.99c1.8,0,6.77,4.24,6.77,4.24,3.21,2.62,8.15,5.83,14.35,7.21,5.47,3.04,6.12,11.03,6.12,11.03,0,0,.66-7.99,6.12-11.03,6.2-1.38,11.14-4.6,14.35-7.21,0,0,4.98-4.24,6.77-4.24-1.8,0-6.77-4.24-6.77-4.24-3.21-2.62-8.15-5.83-14.35-7.21-5.46-3.04-6.12-11.03-6.12-11.03,0,0-.66,7.99-6.12,11.03-6.2,1.38-11.14,4.6-14.35,7.21,0,0-4.98,4.24-6.77,4.24ZM549.52,157.79c7.97,0,14.33,4.2,17.86,7.2-3.53,3-9.89,7.2-17.86,7.2s-14.33-4.2-17.86-7.2c3.53-3,9.9-7.2,17.86-7.2Z"/></g></svg>