<?xml version="1.0" encoding="UTF-8"?><svg id="Layer_1" xmlns="http://www.w3.org/2000/svg" viewBox="0 0 768 768"><defs><style>.cls-1{fill:#fff;}</style></defs><g id="Pentagram_8"><path class="cls-1" d="M384,768c-51.84,0-102.13-10.15-149.47-30.18-45.73-19.34-86.79-47.03-122.06-82.29-35.27-35.26-62.95-76.33-82.29-122.06C10.15,486.13,0,435.84,0,384s10.15-102.13,30.18-149.47c19.34-45.73,47.03-86.79,82.29-122.06,35.26-35.27,76.33-62.95,122.06-82.29C281.87,10.15,332.16,0,384,0s102.13,10.15,149.47,30.18c45.73,19.34,86.79,47.03,122.06,82.29,35.27,35.26,62.95,76.33,82.29,122.06,20.02,47.34,30.18,97.63,30.18,149.47s-10.15,102.13-30.18,149.47c-19.34,45.73-47.03,86.79-82.29,122.06-35.26,35.26-76.33,62.95-122.06,82.29-47.34,20.02-97.63,30.18-149.47,30.18ZM384,6C175.57,6,6,175.57,6,384s169.57,378,378,378,378-169.57,378-378S592.43,6,384,6Z"/><path class="cls-1" d="M250,716.73c-1.52-.51-2.98-1.19-4.44-1.87-1.46-.68-2.9-1.38-4.33-2.11-.68-.35-1.66.05-1.95.78-.31.79,0,1.59.74,1.97,1.44.74,2.9,1.45,4.37,2.13,1.47.68,2.94,1.36,4.48,1.88.73.26,1.66-.08,1.94-.86.27-.75-.03-1.64-.8-1.92Z"/><path class="cls-1" d="M259.33,716.75c.26-.34.47-.71.67-1.09,1.56,2.02,2.49,4.54,2.7,7.17.06.74.66,1.16,1.29,1.21.64.04,1.32-.3,1.53-.99.32-1.07.31-2.1.24-3.19-.05-.8-.21-1.74.08-2.52.29-.78,1.04-1.32,1.57-1.92.74-.83,1.3-1.75,1.37-2.88.1-1.88-2.69-2.16-2.83-.21-.05.7-.71,1.19-1.16,1.66-.49.5-.95,1.03-1.3,1.64-.81-1.42-1.82-2.72-3-3.82-.7-.65-1.88-.14-2.21.7-.31.79-.68,1.87-1.3,2.61-1.35-1.7-3.24-2.65-5.58-2.47-.79.06-1.36.98-1.26,1.71.11.85.86,1.27,1.65,1.21.82-.06,1.64.24,2.28.72.83.62,1.13,2.01,2.18,2.26,1.24.3,2.41-.87,3.1-1.8Z"/><path class="cls-1" d="M277.64,726.14c-1.78-.59-2.71,2.27-.9,2.86,1.8.59,2.69-2.27.9-2.86Z"/><path class="cls-1" d="M316.11,730.01c-.96-.96-2.04-1.76-3.27-2.27-.92-.38-2.06-.76-3.06-.43-.55.18-1.03.59-1.33,1.1-.41.67-.23,1.44-.55,2.1-.01.03-.03.04-.05.07-.01-.03-.02-.06-.03-.09-1.14-2.68-3.52-5.14-5.85-6.64-1.19-.73-2.49-1.22-3.8-1.24-1.3-.03-2.61.39-3.77,1.32-1.48,1.19.55,3.3,2,2.12,1.37-1.12,2.96-.44,4.43.58,1.47,1.05,2.79,2.64,3.48,3.62.18.25.44.66.68,1.12-1.11-.07-2.2-.28-3.32-.12-.98.14-2.14.48-2.8,1.31-.86,1.07-.4,2.57.49,3.41,1.54,1.45,4.52,1.7,6.48,1.04,1.59-.54,2.34-1.77,2.51-3.16.49-.22.94-.5,1.31-.88.51-.5.87-1.13,1.05-1.84.06-.25.13-.6.15-.89.15.03.31.06.46.11,1.62.52,2.94,1.82,4.01,3.17.62.8,1.21,1.57,1.77,2.39.11.15.21.34.33.48.02.02.03.03.05.05-.39.12-.82.36-1.17.49-1.55.57-3.11.97-4.7,1.3.3-1.28.72-2.52,1.29-3.73.81-1.74-1.74-3.13-2.58-1.39-.98,2.04-1.65,4.18-1.97,6.42-3.88-.76-7.75-1.54-11.6-2.43-.71-.19-1.42-.4-2.13-.6.73.08,1.57-.23,1.72-1.07.6-3.37-.6-6.51-2.48-9.19-1.88-2.69-4-5.42-6.34-7.58-2.35-2.07-5.26-3.97-8.51-3.85-2.73.1-5.52,1.56-6.92,4.16-.12.23-.18.45-.2.67-1.22-.18-2.52-.16-3.36.72-1.38,1.44-.41,3.5.58,4.8.43.56,1.04,1.12,1.57,1.72-3.82-1.36-7.87-1.81-11.98-1.63-1.9.12-1.4,3.08.5,2.97,1.14-.07,2.27-.05,3.4.05,1.14.05,2.28.18,3.4.39,2.24.42,4.4,1.16,6.42,2.21,1.05.55,2.13.02,2.3-1.18.38-2.69-1.65-4.4-3.15-6.21-.16-.19-.32-.38-.45-.6-.06-.09-.1-.19-.14-.29.22.03.45.05.5.06.39.05.77.11,1.15.19,1.46.32,2.86.83,4.26,1.32l4.16,1.47c1.29.48,2.99.63,4.19,1.31.56.31.44.75.29,1.33,0,.03-.07.21-.13.37l-.51-.12c-1.51-.38-3.01-.78-4.44-1.42-1.73-.74-2.62,2.13-.88,2.87,1.08.49,2.2.82,3.33,1.14.93.25,2,.65,2.98.61.32-.02.59-.11.84-.23.11.06.23.12.38.16,1.59.43,2.87,1.24,4,2.47.76.83,1.52,1.66,2.53,2.09-2.85-.8-5.69-1.62-8.51-2.48-1.82-.55-2.67,2.32-.83,2.88,3.89,1.18,7.81,2.31,11.74,3.38,3.97.91,7.96,1.72,11.95,2.5.82.16,1.39-.3,1.64-.91.08,0,.15.01.23,0,1.5-.25,3.02-.52,4.51-.88,1.5-.41,2.98-.92,4.38-1.54,1.09-.48,1.95-1.27,1.87-2.57-.08-1.36-1.12-2.52-1.88-3.54-.79-1.08-1.66-2.1-2.62-3.05ZM302.78,734.25c-.15-.02-.31-.05-.46-.08.29-.01.59,0,.88,0,.4.02.8.07,1.2.11-.53.08-1.12.03-1.62-.04ZM292,730.84c-1.07-.89-2.29-1.51-3.59-1.93.08-.33.14-.67.17-.98.19-1.87-.79-3.23-2.44-3.86-1-.38-2.03-.69-3.07-.99-1.03-.32-2.06-.67-3.07-1.02-1.76-.62-3.51-1.3-5.31-1.79,1.08-1.74,2.97-2.61,4.92-2.46,1.33.1,2.55.6,3.66,1.32,1.11.73,2.15,1.56,3.04,2.51,1.74,1.8,3.38,3.84,4.89,5.91,1.04,1.42,2,3.09,2.3,4.88-.51-.55-.99-1.17-1.5-1.59Z"/><path class="cls-1" d="M340.8,738.55c.28-.91.46-1.86.66-2.79.39-1.82.69-3.65.93-5.49.24-1.92-2.56-2.26-2.82-.35-.22,1.65-.51,3.3-.85,4.93-.14.68-.31,1.36-.47,2.04-.17-.05-.34-.1-.51-.16-1.48-.49-2.93-1.07-4.4-1.51-.84-.29-1.69-.52-2.56-.67-.12-.33-.35-.63-.72-.81-2.1-1.06-4.23-2.03-6.38-2.9-.13-.21-.31-.38-.54-.47-.8-.32-1.62-.55-2.47-.67-.7-.1-1.41.32-1.63,1.04-.2.65.03,1.54.71,1.79,2.63.95,5.21,2.05,7.75,3.28,0,0,0,.01,0,.02-.37.95-.61,1.95-.8,2.98-.26,1.39-.46,2.81-1.51,3.84-.8.78-.17,2.33.9,2.45,1.24.14,2.48.21,3.72.23,1.24.02,2.48-.04,3.72-.24,1.9-.28,1.52-3.24-.37-2.96-1.43.19-2.86.23-4.29.17.25-.68.42-1.38.56-2.09.17-.89.27-1.88.54-2.78,1.22.13,2.41.58,3.55.99l2.37.86c.83.29,1.73.66,2.61.77,1.04.13,1.99-.45,2.31-1.49ZM338.09,737.5s0,0,.01,0c0,.02-.01.03-.01,0Z"/><path class="cls-1" d="M352.96,735.41c-.1-1.46-2.36-1.58-2.76-.24-1.06,3.68-5.44,4.79-8.02,7.17-.75.69-.58,1.69-.04,2.27-.49-.06-.98-.13-1.48-.19-1.89-.24-2.28,2.73-.37,2.98,3.3.41,6.6.88,9.9,1.25l9.95.8c1.54.12,2.07-1.85.94-2.73-3.75-2.9-7.79-6.2-8.12-11.29ZM343.84,744.83c.06-.04.11-.07.17-.13,1.52-1.41,3.44-2.4,5.12-3.6.64-.44,1.25-.94,1.79-1.51.97,2.51,2.73,4.61,4.75,6.48l-5.18-.41c-2.22-.25-4.43-.54-6.65-.83Z"/><path class="cls-1" d="M358.3,735.06c-.71,1.96-1.17,4.02-1.37,6.1-.08.78.56,1.58,1.34,1.6.81.02,1.5-.55,1.57-1.39.04-.48.1-.95.17-1.43l.12-.71.05-.28.03-.14c.21-.94.47-1.86.79-2.76.26-.74-.14-1.68-.87-1.91-.75-.24-1.55.13-1.84.92Z"/><path class="cls-1" d="M367.33,735.28c-.82-.06-1.41.59-1.51,1.39-.6,4.57-1.4,9.11-2.43,13.6-.18.79.11,1.63.93,1.92.71.25,1.72-.12,1.9-.91,1.05-4.76,1.87-9.54,2.47-14.41.1-.8-.63-1.53-1.36-1.59Z"/><path class="cls-1" d="M384.15,735.2c-4,1.48-8.26,2.16-12.55,1.98-.84-.03-1.8.94-1.47,1.86.33.93.89,1.32,1.69,1.8l1.57.93c-.16.82.27,1.79,1.33,1.83,2.86.11,5.76.36,8.62.33.72,0,1.37-.22,1.81-.81.42-.56.5-1.29.6-1.97.22-1.48.3-2.96.21-4.46-.05-.89-.88-1.83-1.81-1.49ZM376.27,740.66c-.02-.21-.08-.42-.2-.6,2.38-.21,4.74-.66,7.02-1.35-.02.49-.05.98-.12,1.47l-.1.61-.02.12s-.06,0-.08,0l-.9-.03-5.6-.21Z"/><path class="cls-1" d="M384.35,745.75c-3.78-.14-7.6-.28-11.26-1.3-.92-.26-1.87.41-1.92,1.4l-.17,3.86c-.09,1.93,2.91,2.01,2.98.07l.07-2.02c3.37.7,6.84.86,10.28.98,1.91.07,1.91-2.93.01-3Z"/><path class="cls-1" d="M120.1,625.38c-.51-.57-1.53-.64-2.09-.08-.6.59-.68,1.48-.13,2.1,2.09,2.46,4.29,4.85,6.57,7.14.54.55,1.53.62,2.1.03.55-.58.65-1.52.07-2.1-2.26-2.28-4.44-4.64-6.52-7.08Z"/><path class="cls-1" d="M130.43,633.76c.49.92.19,2.32,1.03,3,.98.81,2.55.19,3.57-.38.38-.21.73-.47,1.07-.73.64,2.45.5,5.08-.37,7.56-.49,1.4,1.57,2.44,2.5,1.34.73-.85,1.15-1.79,1.53-2.83.28-.76.51-1.66,1.09-2.25.58-.6,1.5-.8,2.23-1.13,1.01-.45,1.89-1.05,2.42-2.06.88-1.7-1.64-3.02-2.54-1.32-.32.62-1.14.8-1.75,1.05-.66.26-1.3.56-1.87.98-.19-1.6-.61-3.17-1.27-4.63-.38-.87-1.64-.91-2.29-.28-.61.59-1.39,1.43-2.24,1.85-.51-2.13-1.82-3.8-4-4.63-.73-.28-1.63.32-1.84,1.04-.25.83.25,1.53.98,1.81.76.29,1.37.91,1.75,1.62Z"/><path class="cls-1" d="M147.96,652.38c-1.42-1.23-3.43,1-1.99,2.24,1.44,1.24,3.42-1.01,1.99-2.24Z"/><path class="cls-1" d="M179.4,668.27c-.7-.71-1.61-1.48-2.66-1.58-.57-.07-1.17.1-1.65.44-.64.44-.81,1.22-1.36,1.68-.02.02-.05.03-.07.04,0-.03,0-.06,0-.09.08-2.94-1.04-6.21-2.52-8.57-1.5-2.4-4.11-3.72-7.02-2.93-1.86.5-.83,3.2,1,2.7,3.41-.95,5.04,4.71,5.49,7.09.06.31.12.79.15,1.31-.97-.54-1.86-1.19-2.94-1.53-.94-.29-2.12-.47-3.06,0-1.22.61-1.42,2.18-.96,3.34.78,1.98,3.37,3.49,5.4,3.71,1.66.18,2.84-.62,3.57-1.82.53,0,1.06-.07,1.57-.28.68-.26,1.27-.69,1.72-1.26.16-.2.38-.48.51-.74.13.09.25.17.37.27,1.29,1.1,1.99,2.79,2.44,4.43.26.95.45,1.94.63,2.92.03.19.04.4.1.58,0,.03.01.04.02.07-.4-.06-.89-.02-1.25-.05-1.63-.14-3.25-.37-4.87-.69.8-1.04,1.69-2.01,2.71-2.88,1.46-1.26-.34-3.51-1.82-2.26-1.74,1.47-3.23,3.15-4.44,5.06-.77-.51-1.52-1.05-2.26-1.61l-2.42-1.82-4.8-3.69-1.74-1.37c.64.36,1.55.4,2.03-.3,1.93-2.82,2.08-6.14,1.42-9.29-.35-1.56-.68-3.24-1.1-4.87-.42-1.63-.92-3.23-1.53-4.71-1.21-2.95-3.19-5.77-6.26-6.92-1.31-.47-2.69-.71-4.08-.58-1.38.13-2.74.62-3.91,1.52-.2.16-.35.34-.45.53-1.02-.69-2.2-1.21-3.32-.76-1.83.74-1.82,3.04-1.47,4.66.15.7.47,1.47.71,2.24-2.88-2.85-6.29-5.02-10.25-6.4-1.81-.64-2.54,2.25-.72,2.89,4.34,1.52,8.13,4.27,10.9,7.9.76.91,1.97.84,2.62-.18.72-1.14.78-2.3.58-3.45-.17-1.18-.6-2.36-.9-3.51-.06-.24-.13-.49-.16-.74-.01-.11,0-.22,0-.33.18.12.39.24.43.26.33.21.64.43.95.66.59.45,1.15.95,1.69,1.46.57.48,1.12.98,1.67,1.48l3.28,2.95c1.03.92,2.45,1.83,3.25,2.95.38.52.09.88-.29,1.34-.02.03-.15.16-.27.28l-.41-.33c-1.21-.97-2.35-2.03-3.44-3.14-1.31-1.34-3.29.91-1.98,2.26.82.84,1.67,1.65,2.56,2.42.73.62,1.53,1.45,2.43,1.82.29.12.57.15.85.14.07.11.16.21.27.31,1.27,1.06,2.04,2.39,2.6,3.92.37,1.05.74,2.09,1.5,2.88l-2.21-1.74c-1.58-1.26-3.04-2.66-4.54-4-1.41-1.28-3.36,1-1.94,2.29,1.52,1.35,2.99,2.76,4.58,4.03l4.79,3.78,4.84,3.72,2.44,1.83c.81.61,1.63,1.22,2.49,1.77.69.46,1.42.27,1.89-.19.07.03.14.07.22.09,2.99.72,6.1,1.34,9.13,1.4,1.18.02,2.28-.33,2.74-1.56.49-1.28.03-2.78-.23-4.04-.55-2.63-1.36-5.33-3.23-7.21ZM167.19,669.79c.27.11.53.24.78.38.35.19.69.41,1.04.61-.51-.15-1.02-.44-1.44-.73-.12-.08-.26-.17-.38-.27ZM156.62,659.35c.21-.27.4-.55.55-.82.94-1.63.63-3.3-.6-4.58-1.48-1.55-3.2-2.91-4.79-4.34-1.37-1.26-2.77-2.52-4.19-3.73.79-.54,1.66-.83,2.56-.89,1.02-.08,2.05.13,2.99.61,2.39,1.21,3.74,3.71,4.6,6.19.82,2.39,1.46,4.96,1.96,7.49.36,1.74.58,3.61.13,5.35-.26-.69-.44-1.44-.75-2.02-.65-1.21-1.45-2.33-2.46-3.26Z"/><path class="cls-1" d="M191.06,684.11c1.08.59,2.01,1.43,2.88,2.29l1.78,1.8c.63.62,1.29,1.34,2.03,1.81.88.56,1.98.44,2.69-.37.63-.71,1.19-1.51,1.75-2.27,1.1-1.5,2.12-3.04,3.09-4.62,1.01-1.65-1.37-3.16-2.4-1.52-.88,1.42-1.81,2.8-2.8,4.14-.41.56-.84,1.12-1.27,1.66-.13-.12-.27-.24-.39-.36-1.79-1.7-3.39-3.57-5.44-4.86.02-.35-.07-.71-.34-1.02-1.05-1.27-2.19-2.41-3.26-3.69-.45-.51-.92-.99-1.38-1.49-.03-.27-.12-.52-.31-.72-.59-.63-1.23-1.2-1.95-1.67-.59-.39-1.4-.31-1.9.25-.45.51-.61,1.42-.1,1.94,1.99,1.97,3.82,4.14,5.67,6.25,0,0,0,.01,0,.02-.73.72-1.36,1.54-1.96,2.4-.81,1.17-1.58,2.37-2.96,2.9-1.06.4-1.1,2.05-.17,2.57,2.18,1.21,4.48,2.2,6.86,2.93,1.83.56,2.71-2.31.89-2.86-1.38-.42-2.72-.94-4.02-1.54.51-.52.96-1.09,1.37-1.68.52-.74,1.01-1.59,1.63-2.3ZM198.46,687.53s-.02.02-.01,0c0,0,0,0,.01,0Z"/><path class="cls-1" d="M212.89,691.66c.51-1.38-1.48-2.46-2.41-1.37-2.48,2.93-7.01,2.29-10.34,3.4-.95.3-1.21,1.28-.98,2.03-.42-.26-.84-.51-1.25-.78-1.6-1.03-3.18,1.52-1.56,2.56,1.38.93,2.83,1.74,4.28,2.57l4.33,2.49,8.66,4.97c1.37.7,2.68-.89,1.98-2.13-2.24-4.18-4.51-8.97-2.71-13.75ZM202.15,697.5c-.5-.29-1.01-.58-1.51-.87.07-.02.13-.03.2-.05,2.75-.95,5.85-.92,8.48-1.96-.15,2.7.57,5.37,1.63,7.94l-4.5-2.59-4.29-2.47Z"/><path class="cls-1" d="M214.67,700.65c.72.36,1.58.14,1.99-.6.23-.42.48-.83.74-1.23l.4-.6.16-.23.09-.12c.57-.77,1.19-1.49,1.85-2.19.54-.57.56-1.59,0-2.12-.58-.54-1.45-.55-2.03.05-1.44,1.49-2.71,3.18-3.74,4.99-.39.68-.14,1.68.55,2.04Z"/><path class="cls-1" d="M226.04,697.42c-.74-.37-1.54,0-1.97.69-2.42,3.93-5.01,7.76-7.8,11.46-.49.65-.56,1.52.08,2.11.55.5,1.64.56,2.13-.1,2.91-3.93,5.63-7.99,8.15-12.17.42-.69.05-1.65-.6-1.98Z"/><path class="cls-1" d="M240.47,710.26c.8-1.27,1.48-2.59,2.01-4,.31-.83-.07-2.01-1.07-2.05-2.15-.09-4.28-.38-6.35-.89-2.03-.59-4.01-1.39-5.92-2.39-.74-.39-2.01.09-2.09,1.07-.08.99.26,1.59.79,2.37l1.04,1.52c-.48.69-.48,1.75.46,2.24,2.52,1.38,5.11,2.68,7.77,3.75.67.27,1.35.33,2-.04.61-.35.98-.98,1.35-1.57ZM237,708.52l-3.21-1.47c-.62-.3-1.23-.62-1.84-.94.07-.2.1-.41.06-.64.7.26,1.41.5,2.14.71,1.6.39,3.22.67,4.86.84-.22.44-.45.88-.71,1.3l-.34.52-.07.1s-.06-.02-.08-.03l-.82-.38Z"/><path class="cls-1" d="M237.31,713.92c-1.72-.79-3.45-1.58-5.12-2.47-1.66-.9-3.21-2.02-4.66-3.25-.72-.63-1.86-.43-2.3.46l-1.73,3.45c-.87,1.73,1.82,3.08,2.66,1.34l.89-1.81c1.12.85,2.29,1.63,3.51,2.33,1.8.96,3.66,1.83,5.51,2.68,1.74.8,2.96-1.95,1.23-2.73Z"/><path class="cls-1" d="M46.83,507.46c.74-.31,1.19-1.12.88-1.88-1.1-3.01-2.04-6.09-2.88-9.19-.2-.74-1.15-1.2-1.89-.93-.8.3-1.18,1.06-.96,1.86.85,3.12,1.79,6.23,2.9,9.27.29.71,1.18,1.18,1.94.86Z"/><path class="cls-1" d="M53.4,521.35c1.01-.48,1.78-1.18,2.57-1.97.57-.58,1.15-1.31,1.92-1.63.77-.31,1.69-.12,2.48-.11,1.1,0,2.14-.19,3.04-.9,1.51-1.2-.2-3.45-1.72-2.26-.55.43-1.37.27-2.01.24-.7-.03-1.41-.02-2.09.13.51-1.55.79-3.16.81-4.78.01-.96-1.16-1.49-2-1.18-.79.29-1.85.74-2.81.78.36-2.14-.21-4.17-1.92-5.8-.55-.56-1.6-.37-2.1.2-.59.67-.38,1.49.19,2.05.6.57.92,1.37,1,2.17.09,1.03-.73,2.18-.21,3.13.61,1.12,2.27,1.21,3.42,1.1.43-.04.85-.13,1.27-.23-.45,2.51-1.7,4.88-3.51,6.79-1.03,1.08.38,2.89,1.68,2.26Z"/><path class="cls-1" d="M59.24,532.41c-.76-1.72-3.5-.5-2.73,1.24.77,1.74,3.49.48,2.73-1.24Z"/><path class="cls-1" d="M80.17,571.37c.96-.97,1.12-2.52,1.37-3.76.13-.65.24-1.31.34-1.98.11-.68.19-1.36.22-2.03.06-1.35-.06-2.69-.51-3.95-.33-.94-.82-2.04-1.74-2.56-.5-.28-1.13-.37-1.71-.26-.77.15-1.23.79-1.93.99-.03,0-.05,0-.08.01.01-.03.03-.05.04-.08,1.22-2.64,1.46-6.05,1-8.78-.36-2.82-2.14-5.12-5.08-5.59-1.87-.31-2.08,2.61-.23,2.91,1.73.27,2.36,1.87,2.5,3.71.19,1.8-.1,3.84-.36,5-.07.3-.19.77-.37,1.25-.69-.87-1.27-1.82-2.14-2.54-.76-.64-1.8-1.26-2.83-1.22-1.34.06-2.21,1.44-2.23,2.66-.05,2.11,1.77,4.5,3.58,5.5,1.47.82,2.88.56,4.03-.25.49.22,1,.36,1.53.39.72.04,1.42-.11,2.07-.45.23-.12.54-.29.77-.47.08.13.16.26.22.41.7,1.55.62,3.4.34,5.09-.15.99-.42,1.98-.64,2.94-.04.18-.12.38-.13.57,0,.03,0,.04,0,.07-.35-.21-.83-.36-1.14-.54-1.4-.8-2.76-1.69-4.08-2.65,1.15-.63,2.35-1.15,3.63-1.54,1.84-.56,1.15-3.38-.7-2.84-2.17.64-4.21,1.57-6.09,2.83l-2.97-4.98c-1-1.75-2.09-3.46-2.96-5.28-.33-.66-.66-1.32-.99-1.98.43.6,1.22,1.01,1.95.56,2.91-1.8,4.43-4.8,5.16-7.98.73-3.19,1.34-6.59,1.36-9.77.01-.79-.05-1.58-.13-2.39-.07-.81-.2-1.61-.41-2.38-.41-1.55-1.13-2.98-2.26-4.15-1.91-1.96-4.87-3.06-7.74-2.36-.25.06-.46.17-.63.3-.69-1.03-1.58-1.97-2.79-2.01-2-.06-2.88,2.03-3.18,3.64-.13.7-.13,1.52-.22,2.32-.54-1.31-1.17-2.57-1.91-3.78-.71-1.11-1.42-2.21-2.21-3.25-.8-1.05-1.68-2.04-2.65-2.99-1.36-1.33-3.23,1.02-1.87,2.36,3.17,3.23,5.71,7.2,6.86,11.61.3,1.15,1.42,1.59,2.42.92,2.25-1.52,2.15-4.16,2.5-6.49.04-.24.07-.5.14-.73.03-.1.08-.2.12-.3.12.18.27.37.29.41.23.32.43.64.63.98.74,1.29,1.31,2.68,1.88,4.05l1.71,4.07c.27.64.62,1.31.95,1.99.35.67.68,1.35.83,2.02.15.62-.26.83-.8,1.1-.03.02-.2.08-.36.15l-.26-.46c-.37-.68-.73-1.38-1.05-2.08-.29-.72-.57-1.45-.82-2.19-.61-1.78-3.34-.52-2.72,1.26.39,1.11.78,2.22,1.34,3.26.43.86.86,1.92,1.55,2.62.22.22.47.36.73.47.03.13.07.25.13.39.75,1.47,1.01,2.96.85,4.61-.1,1.12-.21,2.24.14,3.27-1.32-2.65-2.62-5.3-3.88-7.98-.81-1.72-3.52-.43-2.7,1.31,1.74,3.68,3.53,7.34,5.37,10.97.88,1.84,1.98,3.56,2.99,5.33l3.13,5.24c.43.71,1.16.83,1.77.61.05.06.09.12.16.17,2.39,1.89,4.86,3.79,7.72,5.01,1.09.49,2.25.59,3.17-.34ZM69.99,556.54c-.08-.13-.17-.26-.25-.4.21.21.4.43.58.65.25.31.49.64.73.97-.42-.34-.78-.81-1.06-1.23ZM61.6,526.3c2.02-.36,3.93.46,5.14,2.01.82,1.05,1.27,2.29,1.48,3.6.11.65.15,1.32.15,2,.02.66.01,1.32-.03,1.97-.17,2.49-.58,5.07-1.1,7.58-.36,1.72-.95,3.55-2.08,4.97.06-.75.2-1.51.17-2.17-.06-1.39-.41-2.71-.98-3.95.3-.17.59-.34.84-.53,1.51-1.11,1.87-2.75,1.23-4.39-.82-1.97-1.74-3.96-2.58-5.93-.72-1.72-1.39-3.47-2.24-5.14Z"/><path class="cls-1" d="M81.49,581.29c.67-.27,1.31-.61,1.93-.99.78-.47,1.57-1.05,2.41-1.45.72.99,1.21,2.15,1.64,3.31.28.8.61,1.56.93,2.35.34.81.67,1.72,1.18,2.44.6.86,1.67,1.17,2.66.72.86-.4,1.7-.9,2.52-1.38,1.61-.93,3.17-1.93,4.7-2.99,1.59-1.1-.04-3.41-1.64-2.32-1.38.94-2.79,1.83-4.23,2.67-.6.35-1.22.69-1.83,1.02-.07-.16-.15-.32-.23-.48-1.04-2.22-1.71-4.6-3.01-6.65.17-.31.23-.68.12-1.08-.62-2.27-1.33-4.49-2.13-6.67.06-.24.07-.48-.02-.72-.3-.81-.67-1.57-1.16-2.28-.4-.58-1.18-.83-1.87-.51-.62.28-1.13,1.05-.85,1.73,1.06,2.59,1.97,5.23,2.77,7.94,0,0,0,0-.01.01-.95.36-1.86.85-2.75,1.4-1.21.74-2.4,1.53-3.86,1.45-1.12-.07-1.84,1.43-1.21,2.3,1.46,2.02,3.09,3.9,4.96,5.54,1.49,1.22,3.41-1.03,1.97-2.26-1.06-.96-2.05-1.99-2.97-3.09ZM91.21,584.97s-.03.01-.01,0c0,0,0,0,.01,0Z"/><path class="cls-1" d="M99.76,608.19c-.36-4.72-.63-9.93,2.93-13.58.99-1.03-.35-2.86-1.63-2.24-3.45,1.68-7.21-.82-10.71-1.15-1.02-.1-1.64.7-1.71,1.48l-.85-1.22c-1.09-1.56-3.56.14-2.46,1.72l5.7,8.19c1.99,2.67,4.05,5.28,6.07,7.92.94,1.22,2.77.29,2.66-1.13ZM89.62,594.12c.07.01.13.03.2.04,2.87.25,5.61,1.6,8.41,1.72-1.23,2.41-1.61,5.13-1.64,7.88-1.06-1.37-2.12-2.75-3.15-4.14l-3.82-5.5Z"/><path class="cls-1" d="M106.54,598.34c-1.93.79-3.77,1.83-5.45,3.07-.63.47-.8,1.47-.29,2.07.52.61,1.41.74,2.09.23.38-.29.77-.57,1.17-.83l.61-.39.24-.14.13-.07c.83-.47,1.7-.89,2.58-1.26.72-.3,1.16-1.23.84-1.92-.33-.71-1.14-1.06-1.91-.75Z"/><path class="cls-1" d="M112.44,605.18c-.51-.65-1.38-.65-2.05-.19-3.8,2.61-7.7,5.06-11.73,7.3-.71.39-1.13,1.17-.8,1.98.29.69,1.25,1.2,1.95.8,4.23-2.4,8.35-5.01,12.34-7.81.66-.46.73-1.5.28-2.08Z"/><path class="cls-1" d="M120.42,622.79c1.24-.83,2.4-1.76,3.46-2.83.62-.63.77-1.88-.11-2.34-3.79-1.97-7.15-4.67-9.91-7.97-.54-.65-1.91-.7-2.37.16-.47.87-.39,1.54-.2,2.46l.36,1.79c-.72.44-1.14,1.4-.46,2.21,1.84,2.19,3.6,4.51,5.55,6.61.49.53,1.08.87,1.82.8.7-.07,1.29-.49,1.86-.88ZM114.42,615.44c.14-.15.26-.34.31-.55,1.76,1.62,3.68,3.07,5.72,4.3-.38.31-.76.62-1.17.9l-.52.33-.1.06s-.04-.04-.06-.06l-.58-.69-3.6-4.29Z"/><path class="cls-1" d="M109.47,615.62c-.43-.85-1.56-1.12-2.33-.48l-2.98,2.46c-1.49,1.23.47,3.5,1.95,2.26l1.55-1.3c1.74,2.96,3.96,5.64,6.18,8.27,1.23,1.46,3.46-.55,2.24-2-2.44-2.9-4.9-5.82-6.6-9.21Z"/><path class="cls-1" d="M26.17,358.85c.8.02,1.56-.54,1.6-1.36.17-3.21.43-6.41.89-9.58.14-.75-.53-1.56-1.31-1.61-.85-.05-1.53.49-1.67,1.31-.46,3.2-.72,6.43-.9,9.66-.04.77.57,1.55,1.39,1.57Z"/><path class="cls-1" d="M26.58,374.2c1.12-.03,2.1-.35,3.12-.76.75-.3,1.57-.73,2.4-.71.83.03,1.6.58,2.33.9,1.01.45,2.05.7,3.15.41,1.85-.48,1.13-3.24-.73-2.77-.67.17-1.36-.31-1.95-.6-.64-.31-1.29-.59-1.98-.73,1.06-1.21,1.95-2.57,2.6-4.04.42-.87-.42-1.83-1.31-1.88-.84-.05-1.99-.07-2.88-.43,1.24-1.81,1.6-3.9.75-6.07-.29-.73-1.33-.99-2.01-.67-.78.37-.97,1.21-.68,1.95.3.76.25,1.63-.03,2.38-.36.98-1.6,1.69-1.53,2.77.08,1.27,1.53,2.02,2.63,2.39.41.14.83.23,1.26.3-.52.79-1.11,1.53-1.81,2.18-1.15,1.09-2.53,1.98-4.03,2.61-1.36.57-.75,2.8.69,2.75Z"/><path class="cls-1" d="M27.28,386.68c-.05-1.88-3.05-1.88-3,.02.05,1.9,3.05,1.86,3-.02Z"/><path class="cls-1" d="M27.51,429.79c.78.89,1.78,1.47,3,1,1.28-.49,2.08-1.84,2.84-2.88,1.58-2.16,3.04-4.57,3.18-7.23.04-.99.03-2.19-.56-3.04-.33-.47-.86-.8-1.43-.94-.76-.18-1.45.22-2.16.12-.03,0-.05-.02-.08-.02.02-.02.05-.04.07-.06,2.23-1.91,3.9-4.93,4.66-7.61.77-2.73-.01-5.54-2.55-7.17-1.62-1.04-2.93,1.53-1.33,2.55,2.99,1.9-.1,6.89-1.57,8.82-.19.25-.5.62-.87.99-.25-1.08-.37-2.18-.84-3.2-.41-.89-1.08-1.89-2.06-2.27-1.27-.49-2.57.4-3.12,1.52-.94,1.91-.32,4.83.88,6.49.98,1.35,2.36,1.69,3.75,1.43.35.4.75.74,1.22.98.63.33,1.35.48,2.08.44.26-.02.61-.04.9-.12.02.15.04.31.05.46.05,1.7-.74,3.34-1.64,4.77-.53.83-1.13,1.63-1.74,2.42-.12.15-.27.3-.36.47-.01.03-.02.04-.03.06-.22-.34-.59-.67-.81-.96-.98-1.3-1.88-2.67-2.73-4.08,1.3-.1,2.61-.08,3.93.09,1.92.24,2.37-2.61.45-2.87-2.26-.31-4.48-.29-6.72.09-.41-3.93-.76-7.86-1.06-11.8l-.15-2.21c.17.72.74,1.42,1.58,1.3,3.38-.46,5.94-2.56,7.84-5.16,1.98-2.61,4.02-5.48,5.39-8.37,1.37-2.88,2.13-6.23.92-9.29-.94-2.57-3.11-4.78-6.01-5.3-.25-.05-.49-.03-.7.02-.18-1.22-.58-2.45-1.67-2.97-1.78-.86-3.47.69-4.43,2.03-.42.58-.77,1.34-1.19,2.03.21-4.05-.51-8.04-2.14-11.91-.75-1.77-3.37-.38-2.63,1.4,1.78,4.24,2.3,8.9,1.47,13.39-.24,1.17.68,2.03,1.85,1.82,2.62-.47,3.68-2.92,4.98-4.91.14-.21.27-.42.44-.61.07-.08.16-.15.23-.23.03.22.08.45.09.49.07.38.12.76.15,1.15.13,1.48,0,2.98.04,4.46l.02,4.41c0,1.38.29,3.04,0,4.39-.13.63-.59.65-1.19.68-.04,0-.22,0-.39-.01l-.04-.53c-.09-1.55-.08-3.11.02-4.66.12-1.87-2.88-1.84-3,.05-.07,1.17-.1,2.35-.07,3.52.03.96-.05,2.11.28,3.03.11.3.27.52.46.73-.03.13-.05.26-.04.41.05,1.65-.36,3.11-1.2,4.56-.54.98-1.06,1.96-1.13,3.04l-.19-2.81-.04-6.05c0-1.91-3-1.83-3,.1l.04,6.1.42,6.09c.31,4.06.66,8.11,1.09,12.16.12.82.76,1.23,1.41,1.28.02.07.04.15.08.22,1.47,2.7,3.1,5.43,5.1,7.72ZM27.24,412.62c.1.28.18.56.25.84.09.39.17.79.24,1.18-.23-.48-.36-1.06-.43-1.55-.02-.15-.04-.31-.06-.46ZM28.92,397.64c1.84-.39,2.87-1.75,2.99-3.51.15-2.14,0-4.33,0-6.47,0-1.08,0-2.17,0-3.26,0-.78,0-1.57,0-2.35,1.98.49,3.33,2.02,3.88,3.93.71,2.58-.23,5.27-1.49,7.56-1.22,2.21-2.69,4.4-4.23,6.48-1.09,1.43-2.34,2.85-3.92,3.68.34-.66.77-1.29,1-1.91.54-1.29.79-2.64.8-4.01.34-.03.68-.07.98-.14Z"/><path class="cls-1" d="M29.15,444.39c-.61-1.3-1.13-2.64-1.56-4.01.72.03,1.45-.02,2.17-.11.9-.11,1.86-.31,2.8-.33.29,1.2.29,2.45.24,3.67l-.14,2.52c-.04.88-.13,1.85.02,2.72.18,1.03,1,1.76,2.09,1.75.95,0,1.91-.13,2.86-.22,1.85-.19,3.68-.45,5.51-.79,1.9-.35,1.42-3.14-.48-2.8-1.64.29-3.29.53-4.95.69-.69.07-1.39.12-2.08.17,0-.18,0-.36,0-.53.06-2.47.37-4.9-.05-7.29.28-.22.48-.53.53-.93.11-.81.2-1.63.28-2.44l.32-2.46c.08-.69.15-1.38.21-2.07.16-.19.27-.41.29-.66.07-.86.06-1.71-.07-2.56-.11-.7-.71-1.24-1.46-1.24-.68,0-1.47.5-1.51,1.23-.09,1.65-.23,3.29-.42,4.94-.15,1.15-.29,2.3-.44,3.45-.01,0-.03,0-.04.01-1.02-.06-2.05.02-3.09.15-1.41.18-2.81.41-4.1-.27-.97-.52-2.29.55-2.06,1.6.57,2.43,1.38,4.8,2.44,7.05.81,1.73,3.53.46,2.72-1.26ZM34.99,447.71s0,0,0,.01c-.03,0-.03,0,0-.01Z"/><path class="cls-1" d="M33.14,472.43c1.68-4.48,3.65-9.35,8.42-11.22,1.37-.54.83-2.75-.61-2.7-1.93.06-3.52-.86-5.02-2.01-.75-.57-1.48-1.21-2.22-1.8-.71-.6-1.41-1.17-2.17-1.6-.87-.51-1.77-.04-2.17.65-.08-.49-.17-.98-.24-1.47-.31-1.88-3.26-1.34-2.95.56.48,3.3,1.28,6.53,1.96,9.78l2.12,9.76c.32,1.51,2.4,1.41,2.88.06ZM29.83,455.55c2.55,1.4,4.61,3.73,7.15,4.98-2.1,1.7-3.6,4.02-4.8,6.52l-1.1-5.08c-.46-2.18-.96-4.35-1.39-6.53.05.03.09.07.15.1Z"/><path class="cls-1" d="M37.23,466.77c-.77.17-1.35,1.02-1.14,1.77.21.78.96,1.26,1.78,1.07.47-.11.94-.2,1.41-.28l.71-.1.28-.03h.15c.95-.1,1.91-.13,2.86-.1.78.02,1.56-.65,1.57-1.42.01-.79-.57-1.44-1.4-1.47-2.07-.08-4.17.11-6.21.56Z"/><path class="cls-1" d="M46.07,474.85c-.22-.79-1.03-1.15-1.83-1-4.55.83-9.12,1.46-13.74,1.87-.81.07-1.51.6-1.51,1.47,0,.74.69,1.59,1.5,1.51,4.87-.46,9.71-1.16,14.51-2.08.8-.15,1.26-1.07,1.07-1.77Z"/><path class="cls-1" d="M51.3,490.82c-.69-.83-1.34-1.69-1.94-2.57-.61-.88-1.16-1.8-1.61-2.76-.92-1.91-1.66-3.91-2.2-5.99-.21-.81-1.42-1.43-2.2-.83-.79.6-1,1.25-1.23,2.17l-.43,1.79c-.83.1-1.62.81-1.35,1.83.35,1.39.69,2.79,1.04,4.19.39,1.39.84,2.76,1.34,4.1.25.67.66,1.22,1.38,1.46.67.22,1.39.07,2.07-.04,1.48-.25,2.92-.63,4.32-1.18.83-.32,1.45-1.4.81-2.16ZM46.16,491.24l-.61.09h-.12s-.02-.04-.03-.06l-.27-.86c-.6-1.77-1.07-3.58-1.54-5.38.2-.08.37-.2.52-.38.28.7.57,1.39.9,2.06.71,1.47,1.61,2.86,2.6,4.18-.48.13-.95.25-1.44.34Z"/><path class="cls-1" d="M39.75,488.8c-.38-1.86-.64-3.74-.69-5.64-.02-.95-.93-1.67-1.89-1.4l-3.72,1.02c-1.86.51-1.06,3.41.79,2.87l1.94-.55c.13,1.4.34,2.79.61,4.17.4,2.01,1.08,3.94,1.67,5.9.58,1.83,3.43.9,2.86-.91-.56-1.81-1.17-3.61-1.58-5.46Z"/><path class="cls-1" d="M67.29,214.56c.72.34,1.63.14,2.02-.58,1.52-2.83,3.16-5.6,4.89-8.29.41-.64.11-1.66-.58-2.02-.75-.39-1.58-.17-2.03.53-1.75,2.72-3.4,5.52-4.93,8.36-.38.67-.13,1.64.62,2Z"/><path class="cls-1" d="M61.41,228.76c1.04.43,2.07.54,3.18.59.81.04,1.75-.02,2.49.34.75.37,1.22,1.18,1.74,1.77.73.82,1.57,1.47,2.7,1.66,1.9.32,2.42-2.46.52-2.8-.69-.12-1.11-.84-1.53-1.33-.45-.54-.93-1.06-1.5-1.47,1.49-.66,2.87-1.53,4.08-2.6.72-.63.32-1.86-.47-2.28-.75-.39-1.79-.88-2.46-1.57.7-.45,1.31-.98,1.79-1.62.76-1,1.16-2.26,1.28-3.67.05-.78-.79-1.44-1.55-1.43-.87.01-1.41.69-1.45,1.48-.02.82-.4,1.61-.94,2.2-.7.76-2.11.92-2.46,1.94-.42,1.21.62,2.5,1.47,3.28.31.29.66.55,1.02.79-2.16,1.35-4.75,2.01-7.38,1.94-1.49-.04-1.88,2.22-.55,2.77Z"/><path class="cls-1" d="M57.07,240.48c.76-1.72-1.98-2.94-2.75-1.2-.77,1.74,1.99,2.92,2.75,1.2Z"/><path class="cls-1" d="M38.31,270.64c0,.08-.03.15-.02.23.09,1.52.22,3.07.43,4.59.21,1.53.47,3.02.98,4.49.37,1.14,1.07,2.07,2.37,2.13,1.36.06,2.61-.85,3.7-1.5,2.35-1.33,4.72-2.92,5.98-5.28.47-.88.96-1.98.73-3.01-.13-.57-.48-1.09-.96-1.44-.63-.47-1.41-.38-2.03-.77-.02-.01-.04-.04-.06-.05.03,0,.06-.02.09-.02,2.79-.85,5.4-2.98,7.22-5.11,1.87-2.15,2.36-5.02.74-7.52-1.03-1.6-3.33.2-2.31,1.77,1.92,2.93-3.08,6.19-5.08,7.4-.27.15-.7.37-1.17.56.18-1.1.49-2.16.45-3.3-.03-.99-.19-2.15-.93-2.9-.95-.96-2.52-.68-3.5.11-1.66,1.36-2.16,4.32-1.71,6.33.38,1.65,1.52,2.52,2.89,2.84.17.51.41.99.74,1.4.45.56,1.03.99,1.72,1.24.25.09.58.2.87.24-.05.15-.1.3-.16.45-.68,1.56-2.1,2.74-3.54,3.67-.84.54-1.73,1.02-2.63,1.49-.17.09-.38.17-.53.28-.02.02-.04.03-.06.04-.06-.39-.25-.85-.32-1.2-.34-1.58-.6-3.19-.78-4.81,1.24.44,2.43.98,3.58,1.67,1.65.99,3.28-1.41,1.64-2.42-1.92-1.19-3.98-2.08-6.18-2.63l1.7-5.55.92-2.89,1.07-2.83c.26-.69.54-1.37.81-2.06-.15.72.07,1.58.89,1.82,3.28.96,6.52.08,9.36-1.5,2.85-1.59,5.78-3.42,8.15-5.53,2.43-2.07,4.6-4.77,4.79-8.03.17-2.74-1-5.67-3.44-7.34-.21-.15-.43-.23-.65-.27.3-1.2.4-2.5-.38-3.42-1.29-1.52-3.43-.78-4.82.07-.6.37-1.22.92-1.87,1.39.61-1.28,1.12-2.6,1.52-3.95.83-2.48,1.32-5.07,1.42-7.77.07-1.91-2.92-1.72-3,.19-.08,2.29-.54,4.52-1.23,6.68-.64,2.19-1.59,4.27-2.83,6.18-.65.99-.23,2.12.95,2.42,2.63.66,4.53-1.19,6.48-2.49.2-.14.41-.28.64-.39.1-.05.2-.08.3-.11-.05.21-.1.45-.11.49-.08.38-.19.75-.31,1.12-.46,1.42-1.11,2.77-1.73,4.11l-1.87,4c-.57,1.26-1.08,2.85-1.84,3.99-.36.53-.79.36-1.35.14-.03-.01-.2-.1-.35-.17l.17-.5c.5-1.48,1.24-2.85,1.97-4.22.91-1.65-1.85-2.83-2.76-1.18-.57,1.03-1.1,2.08-1.57,3.16-.36.89-.85,1.93-.91,2.9-.02.32.05.6.15.86-.08.1-.14.22-.2.36-.58,1.54-1.52,2.73-2.85,3.72-.9.67-1.8,1.34-2.33,2.3,1.08-2.75,2.17-5.5,3.31-8.23.73-1.76-2.04-2.91-2.78-1.13-1.56,3.76-3.07,7.54-4.52,11.35l-1.08,2.86-.92,2.91-1.79,5.84c-.24.8.16,1.42.74,1.73ZM46.28,264.59c.04-.15.08-.3.12-.45-.02.29-.05.59-.09.87-.06.4-.15.79-.23,1.19-.03-.54.08-1.12.2-1.61ZM50.85,254.25c.99-.98,1.73-2.12,2.27-3.38.32.11.65.21.95.27,1.83.38,3.29-.45,4.08-2.03.97-1.9,1.83-3.92,2.72-5.86.79-1.69,1.64-3.37,2.31-5.11,1.62,1.26,2.29,3.23,1.95,5.17-.45,2.62-2.48,4.66-4.58,6.23-1.96,1.55-4.15,2.97-6.35,4.26-1.52.89-3.27,1.67-5.07,1.78.59-.46,1.25-.86,1.72-1.32Z"/><path class="cls-1" d="M35.32,293.99c0-1.43.1-2.86.29-4.28.65.32,1.33.56,2.02.77.87.26,1.83.47,2.69.82-.25,1.2-.78,2.35-1.35,3.43-.38.75-.84,1.48-1.17,2.25-.37.79-.82,1.65-1.02,2.51-.23,1.02.25,2.03,1.25,2.46.87.38,1.81.66,2.71.95,1.77.57,3.56,1.07,5.37,1.5,1.88.44,2.5-2.31.62-2.77-1.62-.4-3.23-.85-4.82-1.36-.66-.22-1.32-.45-1.98-.68.07-.16.13-.33.2-.49.32-.71.65-1.42.99-2.11.37-.69.73-1.38,1.06-2.08.37-.8.69-1.63.92-2.48.34-.08.66-.29.88-.63,1.26-1.98,2.43-4,3.51-6.05.22-.11.41-.27.52-.49.39-.76.71-1.55.91-2.39.17-.69-.18-1.43-.87-1.73-.63-.27-1.54-.14-1.85.52-1.21,2.52-2.55,4.97-4.02,7.38,0,0-.01,0-.02,0-.91-.47-1.88-.81-2.88-1.11-1.36-.4-2.74-.76-3.66-1.9-.7-.88-2.29-.41-2.52.64-.52,2.44-.79,4.92-.79,7.39,0,1.9,3.02,1.84,3.01-.05ZM39.34,299.38s0,0,0,.01c-.02,0-.03-.02,0-.01Z"/><path class="cls-1" d="M27.82,321.29c3.26-3.43,6.91-7.12,12.03-6.91,1.47.06,1.93-2.16.61-2.7-3.56-1.44-4.23-5.91-6.34-8.73-.61-.82-1.62-.75-2.25-.28l.33-1.45c.43-1.85-2.49-2.55-2.92-.68l-2.24,9.73c-.41,1.61-.67,3.26-.97,4.9l-.88,4.91c-.27,1.52,1.64,2.26,2.63,1.22ZM29.99,310.86l1.51-6.53c.03.06.06.12.11.18,1.72,2.3,2.6,5.25,4.38,7.41-1.51.4-2.94,1.06-4.24,1.9-.97.63-1.88,1.38-2.76,2.16l.05-.26c.3-1.62.56-3.25.96-4.85Z"/><path class="cls-1" d="M33.74,317.74c-.77-.16-1.63.39-1.72,1.17-.1.8.4,1.55,1.23,1.71.47.09.94.2,1.4.32l.69.19.26.08.15.05c.91.3,1.8.66,2.66,1.07.71.33,1.68.04,1.99-.67.31-.72.02-1.56-.73-1.92-1.88-.91-3.89-1.58-5.93-2Z"/><path class="cls-1" d="M22.77,325.94c4.62,1.54,9.32,2.85,14.07,3.94.79.18,1.6-.47,1.73-1.18.14-.81-.45-1.46-1.24-1.65-4.48-1.07-8.92-2.34-13.28-3.83-.77-.26-1.63-.06-2,.73-.32.68-.05,1.73.72,1.98Z"/><path class="cls-1" d="M34.46,331.08c-.98.23-1.41.74-1.97,1.49l-1.08,1.47c-.8-.24-1.8.09-1.95,1.14-.39,2.84-.92,5.7-1.17,8.55-.06.72.08,1.38.63,1.89.52.47,1.23.63,1.9.8,1.45.37,2.92.6,4.42.67.89.04,1.91-.69,1.66-1.65-1.08-4.14-1.34-8.44-.75-12.7.1-.83-.74-1.88-1.7-1.66ZM31.47,343.58l-.11-.04s0-.06,0-.08l.12-.89.76-5.55c.21,0,.42-.04.62-.14-.02,2.39.19,4.79.66,7.12-.49-.07-.97-.15-1.45-.27l-.6-.16Z"/><path class="cls-1" d="M26.4,344.54c.51-3.75,1.02-7.54,2.39-11.08.34-.89-.22-1.91-1.2-2.05l-3.82-.56c-1.91-.29-2.28,2.69-.36,2.96l2,.28c-1.03,3.28-1.52,6.72-1.98,10.13-.26,1.9,2.73,2.2,2.98.32Z"/><path class="cls-1" d="M165.98,100.02c1.24-1.02,2.51-2.01,3.79-2.97,1.29-.96,2.56-1.94,3.94-2.76.65-.41.8-1.44.31-2.05-.53-.66-1.39-.8-2.09-.36-1.4.83-2.67,1.82-3.97,2.79-1.29.97-2.57,1.97-3.82,3-.6.49-.77,1.46-.24,2.09.52.61,1.44.8,2.08.28Z"/><path class="cls-1" d="M152.77,110.32c.77.81,1.67,1.32,2.65,1.81.72.35,1.59.67,2.13,1.31.53.64.64,1.58.89,2.34.34,1.05.85,1.99,1.81,2.62,1.6,1.05,3.16-1.33,1.56-2.4-.58-.39-.68-1.22-.86-1.85-.2-.68-.43-1.35-.78-1.96,1.61-.03,3.19-.31,4.77-.75.92-.27,1.08-1.54.52-2.24-.53-.66-1.28-1.53-1.61-2.42,2.17-.29,3.96-1.43,5-3.52.35-.7-.16-1.65-.85-1.94-.8-.33-1.54.09-1.9.8-.37.73-1.04,1.28-1.78,1.58-.97.39-2.32-.05-3.08.72-.89.91-.47,2.5-.01,3.56.17.39.38.76.61,1.13-.16.02-.32.05-.48.06-.79.08-1.57.1-2.37.04-1.58-.12-3.16-.55-4.63-1.24-1.34-.63-2.58,1.32-1.58,2.36Z"/><path class="cls-1" d="M143.97,119.19c1.36-1.29-.65-3.52-2.03-2.21-1.37,1.31.66,3.51,2.03,2.21Z"/><path class="cls-1" d="M113.4,151.15c1.22.62,2.76.31,4.04.18,2.66-.28,5.42-.81,7.48-2.49.75-.65,1.7-1.39,1.92-2.43.12-.56.02-1.18-.27-1.69-.38-.69-1.13-.93-1.53-1.53-.02-.02-.02-.05-.03-.07.03,0,.06.01.09.01,2.91.37,6.27-.41,8.76-1.65,2.54-1.25,4.08-3.75,3.62-6.69-.14-.93-.92-1.23-1.64-1.07-.7.18-1.32.84-1.16,1.78.6,3.5-5.18,4.55-7.58,4.76-.31.02-.8.04-1.31.02.63-.91,1.37-1.74,1.81-2.78.38-.91.67-2.07.3-3.06-.49-1.28-2.02-1.64-3.22-1.3-2.05.58-3.8,3.01-4.22,5.01-.35,1.64.33,2.89,1.45,3.74-.06.53-.04,1.05.09,1.56.18.69.53,1.32,1.05,1.82.18.18.44.42.69.59-.11.11-.21.23-.32.33-1.23,1.17-2.97,1.7-4.64,1.98-.97.17-1.97.25-2.96.33-.19.01-.4,0-.59.04-.03,0-.04,0-.07.01.1-.39.11-.89.17-1.25.3-1.61.7-3.21,1.17-4.79.96.91,1.82,1.89,2.59,3,1.11,1.6,3.5,0,2.45-1.57-1.26-1.86-2.77-3.52-4.55-4.92,2.64-2.94,5.32-5.84,8.04-8.7.53-.54,1.04-1.09,1.56-1.64-.44.61-.6,1.53.07,2.1,2.61,2.21,5.87,2.68,9.09,2.37,3.3-.25,6.76-.69,9.83-1.61,3.06-.91,6.03-2.62,7.51-5.54,1.31-2.39,1.47-5.5-.08-8.01-.14-.22-.3-.38-.48-.5.79-.95,1.42-2.07,1.08-3.23-.55-1.9-2.84-2.12-4.47-1.93-.71.08-1.51.33-2.3.48,3.14-2.57,5.62-5.78,7.38-9.59.81-1.75-1.98-2.76-2.79-1.01-1.95,4.17-5.05,7.69-8.93,10.08-1.01.62-1.1,1.81-.14,2.56,2.14,1.67,4.66.8,7,.44.25-.04.5-.08.75-.08.11,0,.22.01.32.02-.14.17-.28.36-.31.4-.24.31-.49.6-.75.88-1.01,1.09-2.2,2.01-3.31,3l-3.26,2.98c-1.02.93-2.06,2.26-3.25,2.95-.56.32-.88,0-1.3-.43-.02-.03-.14-.17-.25-.3l.36-.38c1.09-1.11,2.25-2.14,3.46-3.12,1.46-1.17-.57-3.38-2.04-2.2-.92.73-1.81,1.5-2.65,2.32-.69.66-1.59,1.38-2.05,2.24-.15.28-.21.56-.23.83-.11.06-.22.14-.33.24-1.19,1.15-2.54,1.83-4.18,2.17-1.17.23-2.28.52-3.15,1.27.68-.71,1.37-1.42,2.09-2.09l4.46-4.1c1.41-1.28-.66-3.45-2.08-2.16l-4.49,4.13c-1.48,1.4-2.85,2.91-4.26,4.37-2.8,2.95-5.56,5.94-8.28,8.97-.56.61-.44,1.36-.04,1.87-.04.07-.08.13-.11.21-1.01,2.91-1.94,5.94-2.3,8.97-.14,1.18.1,2.31,1.27,2.9ZM124.7,136.56c-.14.26-.29.51-.46.74-.23.33-.47.65-.71.97.2-.49.54-.98.86-1.36.1-.12.2-.24.3-.36ZM136.18,127.13c.25.23.51.45.76.64,1.52,1.1,3.21.95,4.6-.14,1.68-1.32,3.21-2.9,4.78-4.35.8-.72,1.6-1.46,2.43-2.17.6-.5,1.18-1.03,1.75-1.57.97,1.81.72,3.81-.34,5.49-1.44,2.26-4.06,3.36-6.6,3.97-2.45.58-5.07.96-7.63,1.21-1.24.12-2.57.15-3.83-.06-.53-.08-1.05-.22-1.55-.41.72-.19,1.48-.29,2.12-.5,1.32-.47,2.48-1.19,3.51-2.1Z"/><path class="cls-1" d="M102.36,159.24c.56-1.33,1.2-2.62,1.93-3.86.46.56.99,1.07,1.53,1.54.68.6,1.47,1.17,2.12,1.86-.7,1.02-1.62,1.86-2.56,2.64l-1.96,1.59c-.68.56-1.46,1.15-2,1.84-.65.83-.63,1.93.1,2.73.64.7,1.37,1.34,2.08,1.98,1.37,1.25,2.8,2.43,4.28,3.56,1.53,1.17,3.27-1.05,1.75-2.24-1.31-1.03-2.59-2.1-3.83-3.22-.52-.47-1.02-.95-1.52-1.43.13-.12.26-.24.4-.36,1.87-1.61,3.88-3.02,5.37-4.93.34.06.71,0,1.04-.23,1.32-.96,2.74-1.84,4.07-2.81.55-.39,1.07-.82,1.61-1.23.27,0,.53-.07.74-.23.69-.52,1.31-1.1,1.85-1.77.44-.55.45-1.36-.06-1.92-.46-.5-1.35-.76-1.92-.3-2.17,1.77-4.46,3.41-6.81,4.98,0,0-.02,0-.03-.02-.63-.79-1.38-1.5-2.17-2.19-1.07-.93-2.19-1.81-2.55-3.23-.27-1.08-1.93-1.32-2.58-.47-1.47,2.01-2.65,4.23-3.62,6.52-.74,1.77,2.02,2.94,2.75,1.18ZM103.82,165.8s0,0,0,.01c-.02-.02-.02-.03,0-.01Z"/><path class="cls-1" d="M84.22,180.98c4.44-1.75,9.37-3.56,13.95-1.26,1.31.65,2.59-1.22,1.6-2.27-1.33-1.39-1.72-3.19-1.88-5.08-.19-1.91.02-3.8-.37-5.51-.21-.99-1.16-1.35-1.94-1.18.31-.39.62-.78.93-1.17,1.18-1.49-1.19-3.33-2.39-1.82-1.02,1.31-2.09,2.59-3.07,3.93l-2.9,4.06-5.81,8.12c-.9,1.25.54,2.71,1.88,2.18ZM90.58,172.43l2.88-4.03c.34-.47.71-.92,1.06-1.38,0,.06,0,.13.02.2.62,2.8.28,5.89,1.06,8.63-2.66-.42-5.39.02-8.05.81l3.02-4.23Z"/><path class="cls-1" d="M91.15,180.22c-.64-.46-1.65-.32-2.08.34-.43.68-.29,1.56.39,2.04.39.28.78.56,1.15.86l.55.46.21.18.11.1c.7.65,1.36,1.34,1.98,2.07.5.59,1.53.73,2.1.22.59-.52.69-1.39.15-2.03-1.33-1.59-2.88-3.03-4.57-4.24Z"/><path class="cls-1" d="M89.02,192.58c.65.49,1.64.22,2.03-.39.44-.7.16-1.54-.49-2.04-3.66-2.82-7.19-5.81-10.58-8.97-.59-.55-1.46-.72-2.1-.14-.55.5-.72,1.58-.11,2.13,3.6,3.31,7.36,6.44,11.25,9.4Z"/><path class="cls-1" d="M83.97,193.27l-1.62.88c-.63-.55-1.68-.66-2.26.22-1.55,2.41-3.33,4.72-4.6,7.3-.33.64-.46,1.31-.16,2,.29.65.88,1.08,1.42,1.51,1.18.93,2.42,1.75,3.76,2.42.79.4,2,.14,2.14-.85.15-1.07.35-2.13.61-3.17.26-1.04.63-2.02,1.02-3.01.79-1.97,1.78-3.86,2.96-5.66.46-.7.11-2.01-.86-2.2-.97-.18-1.6.09-2.43.54ZM80.11,204.05c-.41-.26-.82-.53-1.2-.83l-.48-.39-.09-.08s.03-.06.04-.07l.45-.78c.57-1.03,1.24-2,1.88-2.99l1.13-1.73c.19.09.4.14.62.13-1.05,2.15-1.87,4.4-2.35,6.75Z"/><path class="cls-1" d="M73.44,201.64c1.84-3.31,4.01-6.47,6.76-9.1.69-.66.61-1.81-.22-2.35l-3.25-2.08c-1.62-1.04-3.23,1.49-1.6,2.52l1.74,1.09c-2.34,2.53-4.34,5.39-6.01,8.4-.97,1.65,1.63,3.15,2.59,1.52Z"/><path class="cls-1" d="M300.46,34.95c3.12-.77,6.27-1.42,9.43-1.94.76-.13,1.31-1.03,1.12-1.79-.21-.82-.93-1.28-1.75-1.15-3.19.53-6.37,1.19-9.51,1.96-.75.18-1.31.99-1.08,1.78.23.77.99,1.33,1.79,1.14Z"/><path class="cls-1" d="M286.61,37.49c-.97-1.13-2.91.09-2.42,1.45.37,1.06.98,1.9,1.69,2.75.51.63,1.18,1.28,1.41,2.08.23.8-.06,1.69-.15,2.48-.12,1.09-.04,2.16.57,3.12,1.03,1.62,3.44.15,2.42-1.5-.37-.59-.12-1.39-.03-2.03.1-.7.16-1.4.09-2.1,1.49.66,3.06,1.1,4.66,1.28.95.11,1.6-1.01,1.38-1.88-.21-.82-.54-1.92-.48-2.88,2.08.56,4.16.18,5.99-1.22.61-.48.54-1.56.03-2.11-.59-.64-1.45-.58-2.07-.09-.64.49-1.48.72-2.27.73-1.03-.01-2.09-.95-3.08-.52-1.17.5-1.44,2.14-1.45,3.3,0,.43.04.86.1,1.28-2.44-.69-4.67-2.18-6.37-4.18Z"/><path class="cls-1" d="M272.56,43.54c1.78-.59.86-3.44-.95-2.85-1.8.6-.84,3.44.95,2.85Z"/><path class="cls-1" d="M235.2,61.97c2.57.87,5.33,1.54,7.92.9.97-.24,2.11-.61,2.72-1.48.33-.48.48-1.09.43-1.68-.07-.79-.66-1.3-.78-2.02,0-.03,0-.05,0-.08.03.02.05.03.08.05,2.5,1.51,5.82,1.98,8.64,1.99,2.85-.06,5.31-1.62,6.08-4.5.5-1.84-2.37-2.34-2.86-.52-.45,1.7-2.1,2.17-3.94,2.12-1.84-.06-3.86-.63-4.97-.98-.29-.1-.74-.27-1.2-.5.93-.6,1.92-1.12,2.76-1.84.73-.65,1.48-1.58,1.54-2.62.08-1.35-1.18-2.32-2.42-2.52-2.14-.39-4.68,1.24-5.87,2.93-.97,1.39-.85,2.82-.17,4.05-.26.47-.46.97-.54,1.49-.12.71-.04,1.43.23,2.11.1.24.23.57.39.81-.14.06-.28.13-.43.18-1.61.55-3.43.28-5.09-.17-.96-.26-1.92-.6-2.86-.95-.18-.07-.37-.17-.56-.21-.03,0-.04,0-.07-.01.25-.31.46-.75.67-1.05.94-1.31,1.98-2.56,3.06-3.78.5,1.21.89,2.45,1.13,3.75.36,1.89,3.24,1.49,2.89-.41-.4-2.23-1.12-4.36-2.17-6.36,4.22-2.12,8.57-3.92,12.98-5.6-.66.35-1.2,1.13-.82,1.92,1.48,3.08,4.3,4.9,7.37,5.94,3.09,1.06,6.39,1.96,9.56,2.36,3.18.47,6.62.22,9.17-1.81,2.15-1.71,3.54-4.55,3.15-7.49-.03-.26-.12-.47-.23-.66,1.1-.58,2.12-1.38,2.3-2.53.29-1.92-1.74-3.16-3.29-3.58-.68-.2-1.5-.28-2.29-.45,1.36-.41,2.68-.92,3.97-1.48,2.4-1.03,4.65-2.42,6.73-4.16,1.47-1.23-.67-3.32-2.14-2.1-1.76,1.46-3.71,2.66-5.79,3.55-2.07.92-4.24,1.67-6.49,2.01-1.17.19-1.73,1.26-1.16,2.33,1.27,2.4,3.9,2.56,6.17,3.14.24.06.48.12.71.21.1.04.19.1.28.15-.19.1-.4.23-.44.25-.34.19-.68.37-1.04.53-1.36.61-2.79,1.04-4.21,1.48l-4.22,1.3c-1.32.41-2.82,1.16-4.2,1.28-.65.05-.81-.37-1.02-.93-.01-.03-.06-.21-.11-.37.16-.07.32-.14.49-.2,1.46-.54,2.95-.98,4.47-1.33,1.83-.43.87-3.28-.97-2.84-1.15.27-2.28.59-3.39.96-.46.15-.96.29-1.46.47-.49.19-.95.43-1.33.74-.25.2-.41.44-.54.69-.13.01-.26.04-.4.09-1.54.6-3.04.71-4.67.39-1.15-.23-2.3-.45-3.42-.14,2.82-1.06,5.65-2.09,8.47-3.12,1.8-.63.8-3.46-1.02-2.82-7.64,2.79-15.34,5.51-22.62,9.19-.75.36-.95,1.08-.79,1.71-.06.04-.13.08-.19.14-2.13,2.19-4.24,4.53-5.82,7.09-.6,1.04-.82,2.19,0,3.19.86,1.05,2.38,1.36,3.62,1.79ZM247.4,51.61c.13-.07.27-.15.42-.21-.23.19-.47.36-.71.52-.34.22-.69.42-1.04.63.38-.38.88-.7,1.33-.93ZM258.16,48.12c1.39.08,2.73-.14,4.02-.59.13.32.28.62.44.89.94,1.63,2.52,2.12,4.23,1.69,2.09-.48,4.14-1.25,6.19-1.88,1.78-.55,3.59-1.05,5.33-1.72.15,2.05-.87,3.87-2.53,4.92-2.25,1.42-5.11,1.3-7.69.77-2.49-.51-4.98-1.11-7.42-1.9-1.67-.53-3.42-1.31-4.71-2.57.73.13,1.48.35,2.14.39Z"/><path class="cls-1" d="M215.21,73.13c.76,1.7,1.59,3.36,2.48,4.99.93,1.69,3.38.3,2.47-1.4-.79-1.47-1.53-2.97-2.21-4.49-.28-.64-.55-1.28-.82-1.93.17-.06.33-.12.5-.18,2.36-.73,4.8-1.13,6.97-2.22.29.2.65.29,1.05.23,2.31-.39,4.59-.88,6.84-1.46.23.09.47.12.71.05.83-.22,1.63-.52,2.38-.93.63-.32.97-1.04.73-1.75-.22-.64-.93-1.25-1.64-1.07-2.68.77-5.4,1.43-8.17,1.96,0,0,0,0-.01-.01-.26-.99-.65-1.94-1.11-2.89-.61-1.28-1.27-2.55-1.03-4,.18-1.11-1.23-1.98-2.15-1.44-2.16,1.25-4.18,2.71-6.01,4.38-1.41,1.28.65,3.48,2.05,2.21,1.06-.96,2.19-1.85,3.37-2.66.2.69.47,1.37.78,2.02.38.82.87,1.67,1.19,2.55-1.06.62-2.26,1-3.45,1.3l-2.47.61c-.87.2-1.78.49-2.56.91-.91.52-1.34,1.55-.99,2.58.3.9.72,1.78,1.11,2.65ZM216.9,69.71s0,0,0,0c0-.02,0-.03,0,0Z"/><path class="cls-1" d="M192.91,75.83c4.73.12,9.89.32,13.2,4.35.94,1.13,2.9-.02,2.41-1.37-1.31-3.61,1.56-7.11,2.24-10.57.2-1.01-.52-1.71-1.3-1.86.43-.24.87-.48,1.3-.73,1.66-.93.23-3.56-1.45-2.63-5.8,3.26-11.69,6.38-17.26,10.03-1.31.82-.58,2.73.85,2.77ZM207.91,67.41c-.55,2.83-2.16,5.46-2.57,8.23-1.3-.85-2.74-1.47-4.26-1.9-1.12-.31-2.28-.5-3.44-.63,3.4-2.05,6.87-3.97,10.34-5.9-.02.07-.05.13-.06.2Z"/><path class="cls-1" d="M197.48,77.34c-.66.46-.88,1.34-.44,2.06.25.41.48.83.71,1.25l.32.64.12.25.06.14c.38.88.71,1.78.98,2.7.22.75,1.1,1.28,1.82,1.03.74-.25,1.17-1.03.94-1.83-.58-2-1.42-3.95-2.49-5.75-.4-.68-1.38-.95-2.02-.49Z"/><path class="cls-1" d="M192.57,88.29c.39.71,1.42.88,2.03.49.7-.44.78-1.31.4-2.03-2.2-4.05-4.23-8.19-6.04-12.43-.32-.74-1.05-1.25-1.88-.99-.71.22-1.32,1.12-.99,1.87,1.95,4.47,4.12,8.83,6.48,13.1Z"/><path class="cls-1" d="M183.68,86.33c-2.36,1.62-4.84,3.14-7.12,4.88-.57.44-.97.99-.98,1.73,0,.7.36,1.33.68,1.95.7,1.33,1.51,2.57,2.46,3.73.57.69,1.79.96,2.33.13,2.34-3.58,5.36-6.67,8.91-9.09.72-.44.94-1.76.12-2.33-.82-.56-1.53-.59-2.46-.51l-1.81.18c-.36-.76-1.27-1.28-2.14-.68ZM179.85,95.27c-.27-.41-.54-.83-.77-1.26l-.28-.55-.05-.11s.05-.04.06-.05l.74-.51,4.62-3.16c.14.16.31.29.52.37-1.79,1.59-3.42,3.36-4.84,5.27Z"/><path class="cls-1" d="M174.69,90.34c3.12-2.15,6.27-4.31,9.81-5.67.89-.34,1.26-1.45.72-2.27l-2.14-3.22c-1.07-1.62-3.52.11-2.44,1.71l1.13,1.67c-3.12,1.44-6,3.38-8.84,5.34-1.58,1.09.2,3.51,1.76,2.43Z"/><path class="cls-1" d="M449.83,30.43c1.59.24,3.17.51,4.75.81.79.16,1.58.29,2.36.49l2.32.63c.74.21,1.61-.38,1.74-1.15.14-.84-.33-1.56-1.13-1.79l-2.34-.64c-.79-.2-1.58-.33-2.38-.49-1.59-.3-3.19-.58-4.79-.82-.76-.12-1.61.41-1.71,1.23-.1.79.37,1.6,1.18,1.73Z"/><path class="cls-1" d="M438.32,31.36c-.96-1.25-1.7-2.71-2.18-4.26-.43-1.41-2.71-1.02-2.81.42-.08,1.12.13,2.12.43,3.18.22.77.57,1.63.45,2.45-.11.82-.74,1.54-1.14,2.23-.55.96-.91,1.97-.74,3.1.29,1.89,3.1,1.44,2.83-.46-.1-.69.45-1.33.79-1.88.37-.6.72-1.23.93-1.9.44.47.89.91,1.37,1.32.74.66,1.53,1.25,2.37,1.76.82.5,1.86-.23,2.01-1.12.14-.83.28-1.98.72-2.82,1.67,1.41,3.71,1.97,5.96,1.34.76-.21,1.12-1.23.88-1.93-.29-.82-1.1-1.08-1.87-.87-.79.22-1.65.09-2.37-.26-.94-.45-1.52-1.75-2.6-1.79-1.27-.05-2.17,1.33-2.65,2.38-.18.39-.31.79-.43,1.21-.73-.63-1.39-1.34-1.97-2.09Z"/><path class="cls-1" d="M420.85,26.89c.94.06,1.48-.61,1.55-1.36.07-.74-.32-1.57-1.27-1.63-1.89-.14-2.16,2.85-.29,2.99Z"/><path class="cls-1" d="M379.21,28.74c1.99,1.79,4.24,3.46,6.86,3.87.98.2,2.18.35,3.09-.17.5-.29.88-.78,1.08-1.34.26-.74-.07-1.46.11-2.16,0-.03.02-.05.03-.07.02.03.03.05.05.08,1.67,2.4,4.51,4.36,7.1,5.38,1.32.52,2.7.65,3.98.36.64-.15,1.26-.4,1.84-.76.58-.35,1.11-.79,1.58-1.36,1.2-1.43-1.22-3.17-2.4-1.64-2.19,2.8-6.85-.77-8.61-2.42-.23-.22-.57-.56-.89-.96,1.1-.14,2.21-.16,3.27-.53.93-.32,1.99-.89,2.47-1.83.62-1.22-.14-2.6-1.19-3.25-1.8-1.12-4.78-.79-6.55.24-1.45.84-1.93,2.19-1.81,3.59-.43.31-.81.68-1.1,1.12-.4.59-.62,1.28-.65,2.01,0,.26-.02.61.02.9-.15,0-.31,0-.46-.02-1.7-.21-3.25-1.09-4.58-2.15-.78-.61-1.51-1.29-2.23-1.97-.14-.13-.27-.3-.43-.41-.02-.02-.04-.03-.06-.04.36-.19.73-.52,1.04-.71,1.4-.84,2.85-1.65,4.34-2.35-.03,1.32-.18,2.62-.49,3.93-.22.94.37,1.6,1.07,1.78.7.19,1.51-.04,1.74-.98.54-2.19.75-4.42.6-6.68,4.67,0,9.35,0,14.01.18-.72.11-1.44.61-1.41,1.44.05,1.71.54,3.25,1.31,4.63.77,1.39,1.83,2.58,3.02,3.74,2.4,2.27,5.04,4.54,7.78,6.2,1.36.82,2.86,1.5,4.41,1.87,1.55.38,3.16.36,4.73.02,2.65-.63,5.07-2.61,5.89-5.44.07-.25.08-.48.05-.7,1.23-.06,2.49-.34,3.13-1.37,1.04-1.69-.33-3.52-1.57-4.61-.54-.47-1.25-.9-1.9-1.38,4.01.6,8.06.28,12.07-.97,1.84-.53.73-3.33-1.12-2.75-4.41,1.36-9.09,1.42-13.48.15-1.14-.33-2.08.4-2,1.61.19,2.72,2.53,3.99,4.37,5.48.19.16.39.31.56.5.07.08.13.17.2.26-.22.01-.45.04-.5.04-.39.03-.77.04-1.16.03-1.49-.02-2.97-.25-4.44-.46-1.46-.19-2.93-.29-4.39-.44-1.37-.13-3.06-.01-4.37-.43-.61-.19-.59-.65-.55-1.25,0-.04.03-.22.05-.39h.53c1.55.07,3.1.24,4.63.49,1.85.3,2.12-2.69.26-2.99-1.16-.19-2.32-.33-3.5-.41-.96-.07-2.09-.25-3.04-.01-.31.08-.55.22-.77.39-.12-.04-.25-.07-.4-.08-1.65-.11-3.06-.66-4.42-1.64-.59-.43-1.17-.85-1.8-1.17-.3-.14-.61-.25-.94-.32,2.9.13,5.79.34,8.67.69,1.9.19,2.13-2.8.21-2.99-8.09-.97-16.25-.91-24.38-.93-.83,0-1.3.57-1.41,1.21-.08.01-.15.02-.23.05-2.84,1.19-5.71,2.55-8.2,4.31-.97.69-1.64,1.62-1.3,2.89.36,1.32,1.62,2.25,2.57,3.11ZM395.04,24.25c-.28.07-.58.12-.86.16-.4.06-.8.09-1.2.13.5-.18,1.09-.25,1.59-.28.15,0,.31-.01.47-.01ZM405.83,25.27c1.23.66,2.55,1.04,3.91,1.19,0,.34,0,.68.04.99.2,1.87,1.44,3.02,3.19,3.32,2.11.36,4.31.42,6.43.62,1.86.13,3.71.5,5.57.64-.69,1.92-2.35,3.14-4.3,3.39-2.64.45-5.22-.75-7.37-2.22-2.08-1.43-4.1-3.11-6.01-4.84-1.31-1.19-2.6-2.65-3.26-4.34.62.44,1.21.95,1.79,1.27Z"/><path class="cls-1" d="M356.4,30.69c0,1.86.07,3.71.22,5.56.16,1.92,2.97,1.72,2.84-.21-.12-1.66-.18-3.33-.18-5,0-.7.02-1.4.05-2.09.18.02.35.03.53.05,2.45.31,4.84.83,7.26.67.19.29.47.52.87.61,2.27.61,4.56,1.15,6.85,1.59.17.18.38.31.63.35.85.16,1.7.23,2.56.18.71-.04,1.31-.58,1.38-1.33.07-.68-.34-1.51-1.06-1.62-2.77-.43-5.52-1-8.26-1.71,0,0,0-.01,0-.02.17-1,.19-2.03.17-3.08-.03-1.42-.12-2.84.69-4.06.62-.92-.31-2.31-1.38-2.22-.62.05-1.24.12-1.85.21-.61.11-1.22.24-1.83.39-1.21.29-2.41.64-3.58,1.05-1.8.64-.83,3.47.97,2.83,1.36-.46,2.74-.88,4.15-1.16-.1.72-.13,1.45-.12,2.17.02.91.12,1.88.04,2.82-1.22.17-2.47.05-3.68-.12l-2.49-.39c-.87-.13-1.83-.31-2.71-.25-1.05.07-1.86.83-1.96,1.9-.09.94-.07,1.92-.08,2.87ZM359.34,28.33s0,0-.01,0c0-.03,0-.03.01,0Z"/><path class="cls-1" d="M334.95,23.95c4.27,2.12,8.91,4.56,10.27,9.49.39,1.41,2.64,1.1,2.75-.34.14-1.92,1.22-3.42,2.52-4.81,1.31-1.31,2.83-2.51,3.85-3.92.6-.82.22-1.76-.42-2.23l1.49-.1c1.9-.13,1.67-3.12-.25-2.99l-4.98.33c-1.66.14-3.31.37-4.96.55l-9.91,1.15c-1.53.18-1.65,2.22-.36,2.86ZM345.56,22.92c1.64-.18,3.27-.41,4.92-.54l1.74-.12s-.09.09-.14.15c-.6.84-1.32,1.59-2.06,2.33-.74.77-1.5,1.52-2.2,2.31-.53.6-1.02,1.22-1.44,1.88-1.47-2.26-3.62-3.98-5.98-5.42l5.16-.6Z"/><path class="cls-1" d="M337.2,34.37c-.1.77.48,1.62,1.24,1.71.78.09,1.49-.43,1.61-1.25.29-2.06.32-4.17.09-6.24-.09-.78-.87-1.44-1.64-1.31-.79.13-1.35.83-1.25,1.67.06.48.1.95.13,1.43l.03.72v.28s0,.15,0,.15c-.01.96-.08,1.91-.21,2.86Z"/><path class="cls-1" d="M331.18,36.48c.81-.14,1.25-.92,1.19-1.73-.35-4.6-.5-9.25-.41-13.85.02-.8-.44-1.59-1.3-1.66-.74-.07-1.65.53-1.66,1.35-.05,4.9.14,9.79.54,14.66.07.81.93,1.36,1.65,1.24Z"/><path class="cls-1" d="M322.24,29.82c-1.42.21-2.84.42-4.27.63-1.43.21-2.86.41-4.24.8-.7.18-1.28.54-1.59,1.23-.29.65-.22,1.38-.18,2.07.09,1.5.32,2.97.71,4.42.23.86,1.24,1.58,2.06,1.02,1.78-1.25,3.7-2.15,5.69-2.88,1.99-.73,4.06-1.27,6.19-1.6.83-.13,1.57-1.27,1.06-2.11-.52-.85-1.14-1.12-2.03-1.44l-1.73-.61c-.02-.84-.63-1.7-1.68-1.53ZM319.5,34.25c-1.07.39-2.12.83-3.14,1.32-.44.23-.88.48-1.31.73-.08-.49-.15-.97-.19-1.47l-.03-.62v-.12s.06-.02.08-.02l.88-.18,5.53-.88c.06.2.16.39.32.55-.72.21-1.44.44-2.14.69Z"/><path class="cls-1" d="M312.38,29.72c.93-.19,1.85-.41,2.79-.56.94-.14,1.88-.26,2.82-.36,1.89-.19,3.78-.27,5.68-.13.95.07,1.75-.76,1.59-1.74l-.63-3.81c-.31-1.91-3.27-1.4-2.94.51l.34,1.99c-1.4-.01-2.81.06-4.21.2-1.02.1-2.03.23-3.05.37-1.01.15-2.01.39-3.01.59-1.87.4-1.25,3.33.6,2.94Z"/><path class="cls-1" d="M595.9,92.6c.6.48,1.65.28,2.08-.37.47-.71.33-1.55-.32-2.06-2.54-2.01-5.15-3.92-7.84-5.73-.64-.43-1.62-.31-2.05.39-.42.68-.33,1.63.35,2.08,2.66,1.79,5.26,3.69,7.77,5.68Z"/><path class="cls-1" d="M582.47,83.76c-1.16-.53-2.56.37-3.43,1.13-.32.28-.61.6-.89.93-1.12-2.27-1.51-4.91-1.17-7.52.19-1.47-2.02-2.09-2.71-.82-.54.99-.75,2-.92,3.09-.12.8-.16,1.73-.6,2.44-.44.7-1.3,1.09-1.94,1.55-.89.64-1.63,1.41-1.94,2.52-.52,1.85,2.2,2.65,2.74.79.19-.67.95-1.02,1.49-1.38.59-.39,1.15-.82,1.62-1.34.51,1.54,1.23,3,2.17,4.31.56.77,1.82.51,2.32-.24.47-.7,1.06-1.69,1.82-2.28.38.74.84,1.4,1.43,1.93.9.89,2.05,1.5,3.46,1.74.77.13,1.52-.64,1.59-1.39.08-.87-.55-1.46-1.32-1.59-.8-.13-1.52-.62-2.03-1.25-.69-.77-.7-2.18-1.68-2.63Z"/><path class="cls-1" d="M563.09,71.9c1.63.93,3.14-1.67,1.48-2.61-1.65-.94-3.12,1.68-1.48,2.61Z"/><path class="cls-1" d="M529.02,62.94c.83.56,1.87,1.15,2.92,1.02.58-.07,1.13-.37,1.54-.81.54-.58.53-1.36.98-1.93.02-.02.04-.04.06-.06,0,.03,0,.06.01.09.28,1.42.88,2.84,1.65,4.15.76,1.34,1.67,2.62,2.63,3.64,1.95,2.07,4.76,2.84,7.43,1.49,1.7-.86.15-3.32-1.53-2.47-3.12,1.62-5.86-3.64-6.79-5.89-.12-.28-.3-.73-.43-1.22,1.08.29,2.08.76,3.19.87.97.1,2.16.04,2.98-.62,1.06-.85.94-2.43.25-3.48-.58-.9-1.58-1.59-2.69-2.03-1.12-.4-2.36-.54-3.39-.41-1.68.21-2.67,1.26-3.13,2.58-.52.12-1.03.31-1.47.6-.61.39-1.09.93-1.42,1.58-.11.23-.27.55-.35.83-.14-.06-.28-.12-.42-.19-1.49-.83-2.51-2.36-3.28-3.88-.45-.89-.84-1.82-1.21-2.75-.07-.18-.13-.39-.22-.55-.01-.03-.02-.04-.03-.06.4-.02.87-.16,1.23-.2,1.61-.18,3.24-.28,4.88-.29-.56,1.19-1.23,2.32-2.05,3.38-1.16,1.53,1.06,3.39,2.24,1.87,1.39-1.79,2.49-3.75,3.27-5.87l5.35,2.23c1.83.85,3.63,1.76,5.44,2.66.66.33,1.32.67,1.97,1.01-.7-.23-1.59-.09-1.91.7-1.3,3.16-.76,6.46.52,9.44.65,1.49,1.35,3.01,2.12,4.48.39.73.79,1.45,1.21,2.15.41.71.83,1.43,1.28,2.1,1.78,2.67,4.28,5.05,7.5,5.58,2.71.44,5.76-.42,7.68-2.68.17-.2.27-.4.33-.61.25.09.51.18.77.25.91.28,1.85.33,2.63-.19,1.64-1.1,1.15-3.36.48-4.88-.3-.65-.79-1.32-1.19-2.01,3.44,2.15,7.18,3.64,11.33,4.2,1.9.26,2.02-2.72.12-2.99-4.54-.62-8.74-2.66-12.34-5.42-.92-.74-2.09-.44-2.51.7-.94,2.54.71,4.61,1.81,6.67.11.22.24.44.32.67.04.1.06.21.08.31-.21-.07-.43-.14-.48-.16-.37-.12-.73-.26-1.09-.42-1.37-.6-2.65-1.37-3.92-2.13l-3.8-2.25c-1.19-.7-2.75-1.32-3.77-2.26-.47-.44-.26-.85.01-1.38.02-.03.12-.18.21-.33l.47.24c1.38.72,2.7,1.53,3.99,2.41,1.55,1.06,3.02-1.55,1.46-2.62-.97-.67-1.96-1.3-2.99-1.87-.84-.47-1.79-1.13-2.74-1.31-.31-.05-.6-.01-.87.06-.1-.09-.2-.17-.34-.23-1.48-.73-2.56-1.78-3.42-3.19-.58-.96-1.15-1.92-2.05-2.54,2.63,1.34,5.26,2.7,7.86,4.11,1.64.98,3.07-1.65,1.42-2.64-3.58-1.93-7.2-3.8-10.84-5.62-1.82-.91-3.64-1.83-5.49-2.68l-5.64-2.35c-.77-.32-1.44.02-1.8.56-.08-.02-.15-.04-.23-.04-3.06-.11-6.21-.11-9.18.44-1.16.21-2.15.78-2.35,2.08-.21,1.36.55,2.75,1.06,3.94,1.07,2.48,2.42,4.98,4.63,6.47ZM540.27,58.59c.14.06.29.12.43.19-.29-.06-.57-.13-.84-.22-.39-.11-.77-.23-1.15-.35.54.03,1.11.17,1.57.38ZM553.2,66.83c-.15.31-.27.62-.37.92-.58,1.78.12,3.28,1.55,4.32,1.76,1.23,3.71,2.23,5.55,3.32,1.6.95,3.19,1.96,4.86,2.8-1.42,1.48-3.47,1.95-5.36,1.42-2.57-.72-4.4-2.91-5.73-5.18-1.27-2.23-2.48-4.5-3.53-6.82-.73-1.59-1.32-3.41-1.24-5.21.39.63.73,1.33,1.14,1.84.87,1.08,1.93,1.93,3.13,2.59Z"/><path class="cls-1" d="M514.3,49.88c-1.17-.37-2.25-1.01-3.27-1.68l-2.1-1.42c-.74-.47-1.52-1.09-2.37-1.35-1-.33-2.05.05-2.58,1-.47.83-.85,1.73-1.23,2.6-.76,1.7-1.44,3.43-2.06,5.18-.64,1.82,2.04,2.71,2.7.89.57-1.57,1.18-3.12,1.86-4.65.29-.64.59-1.27.89-1.91.15.09.31.18.46.28,2.1,1.32,4.04,2.84,6.3,3.71.05.35.22.68.54.94,1.84,1.46,3.74,2.8,5.67,4.08.09.23.23.43.44.56.72.46,1.47.86,2.26,1.2.66.27,1.42.03,1.79-.63.33-.59.3-1.53-.3-1.94-1.36-.96-2.75-1.81-4.1-2.76-.95-.66-1.88-1.34-2.8-2.04,0,0,0-.01,0-.02.56-.86,1-1.78,1.41-2.75.55-1.31,1.04-2.65,2.28-3.45.95-.61.65-2.24-.37-2.56-2.38-.76-4.82-1.28-7.28-1.52-1.89-.19-2.15,2.81-.27,3,1.43.14,2.85.38,4.24.71-.39.61-.71,1.27-.99,1.93-.35.84-.67,1.76-1.12,2.59ZM506.41,47.99s.02-.03.01,0c0,0,0,0-.01,0Z"/><path class="cls-1" d="M491.41,47.02c-.21,1.46,1.95,2.13,2.63.87,1.81-3.39,6.34-3.61,9.37-5.43.88-.53.92-1.53.51-2.2l1.41.48c1.8.61,2.81-2.22.98-2.83l-9.46-3.19c-1.58-.52-3.15-1.09-4.74-1.56l-4.8-1.36c-1.48-.42-2.42,1.41-1.49,2.49,1.54,1.78,3.13,3.68,4.25,5.76,1.11,2.1,1.71,4.46,1.34,6.99ZM491.01,35.94l.25.07c1.58.47,3.13,1.04,4.7,1.55l6.35,2.14c-.06.03-.12.05-.19.09-2.48,1.48-5.5,2.06-7.84,3.61-.42-2.7-1.68-5.2-3.27-7.47Z"/><path class="cls-1" d="M483.69,44.68c-.41.67-.21,1.67.45,2.04.68.38,1.55.18,1.99-.54,1.1-1.78,1.98-3.7,2.61-5.69.24-.75-.22-1.65-.98-1.83-.79-.18-1.58.25-1.83,1.05-.14.46-.29.91-.46,1.36l-.26.67-.11.26-.06.13c-.4.87-.85,1.72-1.35,2.54Z"/><path class="cls-1" d="M477.32,44.2c.79.22,1.5-.3,1.77-1.07,1.54-4.35,3.26-8.63,5.2-12.82.34-.73.23-1.61-.52-2.06-.64-.38-1.72-.22-2.05.52-2.02,4.44-3.81,8.98-5.4,13.59-.26.77.3,1.64,1,1.83Z"/><path class="cls-1" d="M459.39,38.99c-.13.88.49,1.97,1.47,1.81,2.12-.33,4.25-.46,6.38-.38,1.06.04,2.13.14,3.19.28,1.06.15,2.11.33,3.14.66.81.24,1.94-.49,1.81-1.47-.13-.99-.58-1.51-1.26-2.18-.44-.44-.89-.85-1.34-1.26.32-.77.1-1.8-.93-2.04-2.78-.66-5.58-1.47-8.39-2-.71-.13-1.39-.06-1.94.44-.52.47-.75,1.16-.99,1.81-.52,1.41-.9,2.84-1.13,4.33ZM469.72,36.99c-.03.21,0,.42.07.63-.75-.08-1.5-.15-2.25-.18-1.64-.07-3.28-.03-4.91.13.12-.48.25-.95.42-1.41l.22-.58.05-.11s.06,0,.08.01l.87.21,5.45,1.3Z"/><path class="cls-1" d="M462.84,30.44c3.69.87,7.41,1.75,10.78,3.46.85.42,1.9.04,2.15-.93l.96-3.74c.24-.93-.36-1.61-1.08-1.8-.73-.16-1.58.14-1.81,1.08l-.49,1.96c-3.16-1.35-6.53-2.17-9.89-2.97-1.86-.44-2.48,2.5-.63,2.93Z"/><path class="cls-1" d="M691.5,194.82c.89,1.34,1.75,2.69,2.59,4.06.84,1.37,1.53,2.82,2.26,4.25.34.69,1.36.94,2.02.52.72-.46.94-1.29.57-2.03-.74-1.44-1.43-2.91-2.28-4.29-.84-1.38-1.71-2.75-2.61-4.1-.43-.64-1.38-.92-2.06-.45-.66.45-.94,1.35-.49,2.03Z"/><path class="cls-1" d="M680.21,192.62c.18.94,1.42,1.22,2.18.74.71-.45,1.65-1.12,2.58-1.35.07,2.18,1.03,4.07,3.02,5.31.67.42,1.67.01,2.02-.64.41-.76.06-1.54-.61-1.97-.69-.44-1.17-1.16-1.4-1.93-.29-1,.28-2.3-.41-3.13-.82-.97-2.45-.72-3.55-.38-.41.13-.8.3-1.19.49-.02-.96.05-1.93.25-2.88.34-1.59.88-3.08,1.73-4.48.76-1.26-1.06-2.69-2.2-1.81-.89.68-1.49,1.52-2.07,2.45-.43.68-.83,1.51-1.52,1.98-.69.46-1.64.48-2.42.65-1.09.23-2.07.64-2.79,1.53-1.21,1.48,1.01,3.26,2.24,1.79.44-.53,1.29-.55,1.93-.67.69-.13,1.38-.29,2.02-.57-.16,1.61-.09,3.25.19,4.86Z"/><path class="cls-1" d="M674.74,170.92c1.08,1.53,3.51-.23,2.41-1.79-1.15-1.51-3.55.29-2.41,1.79Z"/><path class="cls-1" d="M646.06,137.25c-.74,1.15-.59,2.71-.58,3.99,0,2.68.31,5.43,1.71,7.7.51.86,1.2,1.85,2.2,2.17.55.18,1.17.13,1.72-.1.72-.3,1.04-1.03,1.68-1.37.02-.01.05-.02.08-.03,0,.03-.02.06-.02.09-.66,2.85-.21,6.26.77,8.86,1,2.64,3.33,4.42,6.24,4.32,1.88-.08,1.51-3-.36-2.91-3.55.25-4.03-5.59-3.99-8,0-.31.04-.8.11-1.31.84.72,1.6,1.53,2.59,2.07.87.47,2,.88,3.02.6,1.32-.35,1.84-1.84,1.62-3.06-.38-2.09-2.62-4.07-4.58-4.69-1.6-.51-2.92.04-3.88,1.07-.52-.11-1.05-.15-1.57-.07-.71.11-1.37.4-1.93.86-.2.17-.47.4-.65.62-.1-.12-.21-.23-.3-.35-.97-1.41-1.33-3.18-1.45-4.86-.07-.98-.05-1.98-.03-2.97,0-.19.04-.4.02-.59,0-.03,0-.04,0-.07.38.14.87.19,1.23.3,1.56.47,3.14,1,4.65,1.64-1,.85-2.06,1.61-3.24,2.26-1.67.91-.42,3.55,1.26,2.64,1.98-1.07,3.78-2.4,5.36-4.03,2.66,2.91,5.29,5.86,7.88,8.85l1.47,1.71c-.56-.5-1.46-.74-2.09-.14-2.47,2.37-3.23,5.53-3.34,8.84-.08,3.3.01,6.77.62,9.91.3,1.56.8,3.12,1.57,4.51.39.7.84,1.35,1.37,1.94.5.61,1.08,1.16,1.75,1.61,2.25,1.54,5.35,2.01,8,.73.23-.11.41-.26.55-.43.87.88,1.93,1.62,3.12,1.4,1.95-.35,2.4-2.6,2.37-4.24-.01-.71-.17-1.53-.25-2.33,2.25,3.37,5.22,6.14,8.8,8.32,1.58,1.04,2.97-1.69,1.32-2.69-3.97-2.36-7.16-5.79-9.17-9.89-.52-1.07-1.7-1.28-2.54-.4-1.89,1.96-1.27,4.55-1.14,6.91.01.25.03.5,0,.75,0,.11-.04.21-.06.32-.16-.16-.33-.31-.37-.34-.28-.27-.55-.55-.8-.84-.98-1.12-1.81-2.37-2.64-3.6-.8-1.24-1.7-2.4-2.58-3.58-.83-1.1-2.05-2.27-2.62-3.52-.27-.59.09-.87.55-1.25.03-.02.18-.12.32-.22l.34.4c1,1.19,1.91,2.45,2.76,3.75,1.02,1.57,3.42-.23,2.4-1.81-.64-.98-1.32-1.94-2.04-2.87-.59-.75-1.22-1.72-2.03-2.26-.26-.18-.53-.26-.81-.31-.05-.12-.11-.24-.21-.35-1.02-1.29-1.57-2.71-1.75-4.37-.14-1.14-.23-2.31-.84-3.26.6.75,1.18,1.52,1.77,2.29l3.64,4.84c1.14,1.53,3.51-.3,2.36-1.85l-3.67-4.88c-.62-.81-1.23-1.62-1.87-2.41l-1.99-2.31c-2.66-3.08-5.37-6.12-8.12-9.11-.56-.61-1.3-.58-1.85-.24-.06-.05-.12-.1-.19-.14-2.72-1.36-5.71-2.54-8.68-3.21-1.16-.26-2.31-.13-3.02.97ZM659.1,149.65c.11.11.22.22.32.34-.24-.16-.48-.34-.7-.53-.31-.26-.6-.53-.9-.81.47.25.92.64,1.27.99ZM670.43,172.84c1.09,1.51,2.07,3.12,3.23,4.58-1.89.77-3.92.36-5.4-.92-2.03-1.71-2.93-4.38-3.26-6.97-.33-2.49-.45-5.12-.44-7.7,0-1.77.22-3.7,1.04-5.33.09.75.09,1.54.26,2.18.34,1.36.94,2.58,1.74,3.69-.26.23-.5.46-.71.69-1.25,1.4-1.27,3.09-.32,4.58,1.15,1.8,2.58,3.47,3.86,5.18Z"/><path class="cls-1" d="M639.16,125.43c.98.52,1.92,1.09,2.84,1.71.28.19.53.4.79.6-.59.4-1.15.87-1.67,1.35-.67.62-1.32,1.35-2.07,1.92-.92-.81-1.7-1.79-2.37-2.81l-1.39-2.11c-.49-.73-1-1.56-1.64-2.17-.76-.73-1.86-.82-2.73-.18-.76.56-1.47,1.23-2.18,1.86-1.38,1.24-2.71,2.54-3.99,3.89-1.33,1.4.72,3.35,2.06,1.96,1.16-1.2,2.35-2.36,3.59-3.48.52-.47,1.05-.92,1.58-1.37.1.14.21.28.32.43.9,1.28,1.71,2.61,2.64,3.84.53.71,1.11,1.37,1.74,1.98-.09.33-.07.7.11,1.07,1.06,2.11,2.19,4.16,3.41,6.15-.01.25.03.49.16.7.45.73.97,1.41,1.58,2.01.51.5,1.31.58,1.92.13.55-.41.89-1.27.49-1.87-1.54-2.34-2.96-4.76-4.28-7.27,0,0,0,0,.01-.01.86-.55,1.64-1.22,2.4-1.94,1.03-.97,2.03-1.99,3.47-2.21,1.1-.16,1.51-1.78.73-2.51-1.79-1.73-3.88-3.12-6.07-4.31-1.69-.91-3.13,1.71-1.45,2.61ZM632.46,126.22s.03-.02.01,0c0,0,0,0-.01,0Z"/><path class="cls-1" d="M626.55,119.64c1.85.09,3.77.42,5.5.23,1.01-.11,1.46-1.02,1.37-1.8.35.35.72.68,1.07,1.03,1.37,1.32,3.44-.85,2.05-2.19-4.69-4.72-9.82-8.97-14.8-13.38-1.16-1.01-2.76.26-2.37,1.65,1.29,4.58,2.59,9.65-.16,13.96-.78,1.24.96,2.69,2.1,1.81,1.51-1.17,3.39-1.42,5.23-1.32ZM623.34,116.99c.69-2.6.53-5.35.01-8.06,2.99,2.6,5.97,5.22,8.84,7.95-.07,0-.13,0-.21,0-2.8.28-5.84-.39-8.65.11Z"/><path class="cls-1" d="M616.24,111.28l-.51.5-.21.19-.11.1c-.72.63-1.48,1.22-2.26,1.76-.64.44-.88,1.44-.43,2.06.46.64,1.32.82,2.01.35,1.72-1.16,3.31-2.55,4.7-4.11.52-.59.49-1.61-.13-2.09-.63-.5-1.53-.45-2.08.19-.32.36-.64.71-.98,1.05Z"/><path class="cls-1" d="M607.38,108.7c-.56.59-.39,1.6.19,2.05.65.51,1.52.31,2.08-.28,3.19-3.34,6.5-6.52,9.98-9.54.61-.53.87-1.38.38-2.11-.41-.63-1.5-.88-2.1-.34-3.67,3.24-7.18,6.65-10.53,10.22Z"/><path class="cls-1" d="M596.13,95.17c-1.05,1.07-2,2.23-2.81,3.49-.48.75-.35,1.97.63,2.21,4.15,1.1,7.92,3.16,11.28,5.84.65.53,2,.31,2.28-.63.28-.95.07-1.6-.29-2.46l-.71-1.69c.61-.57.84-1.6,0-2.27-2.24-1.79-4.4-3.74-6.74-5.39-.6-.39-1.26-.59-1.98-.36-.68.22-1.17.76-1.66,1.26ZM598.31,97.08l.09-.08s.05.03.07.05l.7.56,4.37,3.51c-.11.18-.18.38-.19.61-.64-.39-1.29-.77-1.95-1.12-1.46-.75-2.93-1.44-4.49-1.96.31-.39.63-.77.97-1.13l.44-.43Z"/><path class="cls-1" d="M600.01,92.24l1.15.84,1.1.9c.73.6,1.46,1.22,2.16,1.85,1.41,1.27,2.74,2.62,3.9,4.12.58.75,1.74.79,2.36.01l2.41-3.02c1.21-1.51-1.16-3.36-2.35-1.84l-1.25,1.59c-.93-1.05-1.93-2.04-2.97-2.98-.76-.69-1.53-1.35-2.32-2.01-.78-.66-1.58-1.29-2.42-1.88-1.55-1.12-3.31,1.3-1.78,2.42Z"/><path class="cls-1" d="M745.96,344.68c-.21-3.23-.55-6.45-1.02-9.65-.11-.76-.86-1.41-1.67-1.26-.79.14-1.42.85-1.31,1.66.46,3.18.8,6.37,1.01,9.57.05.76.9,1.41,1.67,1.3.84-.12,1.37-.79,1.31-1.62Z"/><path class="cls-1" d="M734.32,330.35c.84-.12,1.97-.34,2.92-.17-.79,2.01-.76,4.14.5,6.09.42.66,1.5.7,2.1.25.7-.52.72-1.38.29-2.05-.44-.68-.56-1.54-.44-2.34.18-1.04,1.2-1.98.88-3.01-.38-1.22-1.99-1.65-3.15-1.79-.43-.05-.86-.05-1.29-.04.93-2.35,2.63-4.41,4.79-5.9,1.22-.84.19-2.9-1.21-2.56-1.09.26-1.99.77-2.91,1.39-.67.45-1.39,1.04-2.21,1.18-.82.14-1.68-.24-2.46-.41-1.08-.23-2.14-.27-3.17.24-1.72.85-.48,3.4,1.25,2.56.63-.31,1.4.02,2.02.18.68.17,1.38.31,2.08.31-.81,1.41-1.4,2.92-1.74,4.49-.2.93.85,1.69,1.74,1.57Z"/><path class="cls-1" d="M736.4,306.77c.41,1.83,3.35,1.22,2.93-.64-.41-1.85-3.34-1.2-2.93.64Z"/><path class="cls-1" d="M724.18,264.27c-1.15.75-1.67,2.24-2.21,3.42-1.12,2.46-2.07,5.12-1.69,7.76.14.99.4,2.16,1.21,2.85.44.38,1.04.59,1.63.6.79.02,1.37-.51,2.09-.57.03,0,.05,0,.08,0-.02.02-.04.05-.06.07-1.67,2.3-2.74,5.62-2.96,8.41-.22,2.83,1.09,5.44,3.89,6.51,1.78.69,2.56-2.11.8-2.78-3.3-1.24-1.24-6.79-.19-8.98.15-.29.38-.72.66-1.15.46,1,.79,2.06,1.45,2.97.58.79,1.43,1.63,2.46,1.8,1.34.22,2.43-.93,2.75-2.14.53-2.06-.58-4.83-2.21-6.17-1.29-1.11-2.73-1.14-4.02-.6-.44-.31-.92-.56-1.43-.7-.7-.19-1.42-.19-2.13,0-.25.07-.59.17-.85.3-.05-.15-.1-.29-.14-.44-.38-1.66.06-3.44.67-5.03.35-.93.79-1.84,1.23-2.74.08-.17.2-.35.26-.53,0-.03.01-.04.02-.07.28.28.7.54.98.78,1.22,1.07,2.36,2.23,3.46,3.44-1.25.37-2.53.62-3.85.73-1.92.16-1.81,3.06.12,2.91,2.26-.17,4.46-.65,6.56-1.49.64,1.82,1.35,3.63,1.89,5.48l1.67,5.82.58,2.14c-.3-.67-1-1.24-1.8-.95-3.22,1.15-5.31,3.75-6.65,6.69-1.35,2.96-2.58,6.13-3.43,9.27-.79,3.1-.87,6.55.9,9.3,1.48,2.31,4.22,3.99,7.12,3.92.26,0,.48-.07.68-.16.09.25.19.5.3.74.41.86,1,1.6,1.91,1.82,1.91.48,3.27-1.39,3.94-2.9.31-.66.49-1.48.74-2.24.02.1.03.2.05.3.23,1.3.51,2.57.91,3.82.79,2.49,1.95,4.87,3.48,7.12,1.08,1.59,3.37-.32,2.3-1.91-1.29-1.9-2.28-3.96-2.96-6.12-.34-1.08-.6-2.19-.79-3.31-.23-1.11-.39-2.24-.45-3.37-.07-1.18-1.08-1.85-2.2-1.4-2.52,1.01-2.94,3.61-3.73,5.8-.08.23-.17.47-.3.69-.05.1-.12.18-.19.27-.07-.21-.17-.42-.18-.47-.15-.36-.3-.72-.42-1.09-.48-1.41-.76-2.88-1.06-4.34l-.88-4.33c-.27-1.35-.87-2.93-.86-4.31,0-.65.45-.76,1.03-.91.03,0,.21-.04.39-.07l.14.51c.39,1.5.68,3.03.89,4.57.25,1.86,3.18,1.21,2.93-.66-.16-1.17-.36-2.32-.62-3.47-.21-.94-.37-2.08-.87-2.91-.16-.27-.37-.46-.6-.62,0-.13,0-.26-.04-.41-.44-1.59-.4-3.09.08-4.67.32-1.07.65-2.14.51-3.22l.74,2.71.76,2.93c.26.97.5,1.96.68,2.95.37,1.87,3.29,1.17,2.91-.72-.18-1-.42-1.99-.68-2.98l-.77-2.95-1.6-5.89-1.68-5.87c-.57-1.95-1.32-3.85-1.99-5.77-.28-.78-.98-1.05-1.62-.96-.04-.07-.07-.14-.12-.2-1.97-2.35-4.09-4.69-6.49-6.52-.94-.72-2.02-1.07-3.12-.35ZM731.15,281.36c-.15-.25-.28-.51-.4-.77-.17-.36-.31-.74-.47-1.11.32.42.55.96.72,1.44.05.14.1.29.15.44ZM732.65,296.36c-1.69.76-2.45,2.3-2.22,4.06.27,2.13.84,4.24,1.26,6.34.37,1.82.69,3.68,1.19,5.48-2.05-.07-3.78-1.27-4.66-3.03-1.19-2.39-.79-5.21,0-7.72.38-1.21.83-2.43,1.31-3.64.47-1.21.93-2.39,1.44-3.56.69-1.6,1.64-3.26,3.03-4.4-.21.71-.5,1.43-.6,2.08-.22,1.37-.13,2.72.18,4.06-.33.1-.65.21-.93.34Z"/><path class="cls-1" d="M722.61,250.69c.86,1.15,1.62,2.36,2.32,3.62-.71.12-1.41.33-2.09.56-.86.29-1.75.69-2.67.91-.51-1.12-.77-2.35-.96-3.56l-.36-2.51c-.13-.87-.24-1.85-.56-2.67-.37-.98-1.4-1.49-2.45-1.26-.93.21-1.85.53-2.76.82-1.77.57-3.51,1.22-5.23,1.94-1.77.74-.64,3.32,1.11,2.61,1.54-.63,3.11-1.2,4.69-1.72.66-.21,1.33-.41,2-.61.03.18.07.35.1.52.43,2.44.61,4.9,1.48,7.16-.23.27-.36.62-.33,1.02.11,1.64.27,3.28.48,4.9.09.68.19,1.36.29,2.04-.11.22-.17.46-.13.7.1.86.27,1.7.57,2.5.24.66.94,1.07,1.67.91.66-.15,1.34-.8,1.23-1.52-.34-2.8-.77-5.55-1.02-8.35,0,0,.01,0,.02,0,1.01-.16,2-.45,2.99-.79,1.34-.47,2.67-.99,4.09-.61,1.09.3,2.1-1.01,1.65-1.99-1.03-2.27-2.29-4.43-3.76-6.42-1.13-1.53-3.54.28-2.41,1.8ZM716.25,248.65s.03,0,0,0h0Z"/><path class="cls-1" d="M712.73,224.15c-.31,2.34-.6,4.77-1.46,7.01-.87,2.25-2.18,4.26-4.32,5.68-1.22.82-.27,2.87,1.12,2.53,3.73-.92,6.94,2.29,10.33,3.33.98.3,1.75-.34,1.98-1.09l.59,1.37c.76,1.74,3.53.6,2.76-1.16l-3.99-9.15-2-4.58c-.67-1.52-1.46-2.99-2.18-4.49-.68-1.38-2.67-.86-2.85.56ZM719.7,240.04c-.06-.03-.12-.06-.19-.08-2.77-.85-5.23-2.71-7.96-3.41.98-1.21,1.74-2.57,2.33-4.03.44-1.09.77-2.24,1.06-3.4.04.08.08.16.11.24l1.98,4.54,2.67,6.14Z"/><path class="cls-1" d="M710.76,228.53c-.4-.7-1.25-1.01-2.01-.65-.44.2-.88.39-1.32.57l-.67.25-.26.09-.15.05c-.92.29-1.85.52-2.79.7-.77.14-1.38.96-1.21,1.7.18.76.91,1.27,1.74,1.12,2.06-.37,4.08-1,5.98-1.87.71-.32,1.08-1.27.7-1.95Z"/><path class="cls-1" d="M699.64,224.49c.37.74,1.23.91,1.98.6,4.26-1.77,8.6-3.34,13.01-4.7.77-.24,1.35-.91,1.18-1.76-.15-.73-.99-1.42-1.77-1.18-4.65,1.47-9.23,3.17-13.72,5.07-.75.32-1.02,1.31-.69,1.97Z"/><path class="cls-1" d="M697.5,205.14c-.7-.08-1.37.22-2.01.47-1.39.55-2.72,1.23-3.97,2.06-.74.49-1.13,1.68-.36,2.3,1.67,1.35,3.2,2.85,4.57,4.48,1.37,1.63,2.6,3.39,3.5,5.35.37.76,1.66,1.11,2.31.36.65-.76.73-1.44.77-2.39l.07-1.85c.09-.03.17-.07.25-.11.66-.35,1.13-1.14.67-1.96-1.38-2.51-2.65-5.12-4.15-7.56-.38-.61-.89-1.07-1.63-1.15ZM699.94,213.99c-.17.12-.32.27-.42.47-.44-.61-.9-1.21-1.38-1.79-1.05-1.27-2.19-2.45-3.4-3.56.44-.23.88-.45,1.33-.63l.58-.22.11-.04s.03.05.04.07l.43.79,2.69,4.91Z"/><path class="cls-1" d="M704.82,214.84c.21.94,1.24,1.45,2.12.99l3.42-1.79c1.71-.89.38-3.58-1.36-2.66l-1.79.95c-.12-.36-.25-.72-.39-1.08-.37-.95-.77-1.88-1.21-2.8-.87-1.85-1.85-3.65-2.84-5.43-.93-1.68-3.52-.17-2.6,1.49,1.81,3.32,3.71,6.65,4.64,10.33Z"/><path class="cls-1" d="M732.88,483.46c-.78-.18-1.63.2-1.83,1-.4,1.55-.8,3.11-1.29,4.64-.53,1.52-1.09,3.02-1.68,4.52-.28.71.22,1.64.97,1.85.82.23,1.59-.17,1.89-.94.59-1.51,1.15-3.03,1.69-4.56.5-1.54.9-3.11,1.31-4.68.19-.75-.25-1.64-1.05-1.83Z"/><path class="cls-1" d="M735.69,468.36c-1.1-.2-2.12-.09-3.2.1-.79.14-1.67.4-2.48.2-.81-.2-1.45-.9-2.11-1.37-.9-.65-1.87-1.11-3-1.06-1.91.09-1.74,2.94.18,2.86.69-.03,1.28.59,1.78.99.55.43,1.12.84,1.76,1.12-1.34.95-2.53,2.09-3.51,3.38-.58.77.05,1.88.91,2.12.81.23,1.94.48,2.73,1.02-1.56,1.52-2.32,3.49-1.91,5.8.14.78,1.11,1.25,1.83,1.08.84-.2,1.18-.98,1.05-1.77-.14-.81.07-1.65.49-2.34.54-.89,1.89-1.33,2.04-2.4.17-1.26-1.11-2.3-2.1-2.89-.37-.22-.76-.39-1.16-.56,1.86-1.76,4.31-2.94,6.85-3.44,1.44-.28,1.28-2.59-.14-2.85Z"/><path class="cls-1" d="M737.57,456c-.41,1.83,2.52,2.45,2.94.6.41-1.85-2.53-2.43-2.94-.6Z"/><path class="cls-1" d="M749.58,422.58c0-.08,0-.15-.03-.23-.2-.73-.4-1.47-.62-2.2-.25-.74-.52-1.47-.8-2.2-.57-1.45-1.21-2.87-1.97-4.19-.59-1.03-1.46-1.8-2.74-1.59-1.35.22-2.4,1.38-3.34,2.24-.98.9-1.95,1.86-2.75,2.93-.4.53-.76,1.09-1.06,1.67-.33.58-.6,1.19-.8,1.83-.29.96-.56,2.13-.13,3.09.24.53.69.96,1.22,1.21.71.33,1.46.08,2.14.33.03,0,.05.03.07.04-.03.01-.06.03-.08.04-2.55,1.41-4.78,4.03-6.04,6.51-.64,1.26-.9,2.62-.75,3.92.1,1.3.64,2.55,1.69,3.6,1.33,1.35,3.23-.89,1.92-2.21-2.47-2.46,1.46-6.73,3.29-8.32.24-.2.61-.51,1.04-.79.04,1.11-.06,2.21.21,3.31.23.96.69,2.07,1.58,2.65,1.15.74,2.6.13,3.35-.85,1.29-1.68,1.25-4.67.4-6.54-.69-1.53-1.99-2.14-3.39-2.17-.26-.46-.59-.88-1-1.21-.55-.45-1.21-.75-1.93-.85-.26-.04-.61-.08-.9-.07.02-.15.03-.31.07-.46.37-1.67,1.54-3.11,2.68-4.32.68-.71,1.43-1.37,2.18-2.01.14-.12.32-.24.45-.38.02-.02.03-.03.04-.05.15.37.44.78.6,1.11.5,1.04.97,2.09,1.39,3.17.17.46.32.92.47,1.38-1.3-.17-2.58-.45-3.84-.89-1.81-.63-2.95,2.06-1.14,2.71,2.12.76,4.32,1.2,6.58,1.28-.37,3.93-.79,7.86-1.26,11.78-.07.73-.18,1.45-.29,2.17-.02-.73-.45-1.52-1.29-1.58-1.7-.12-3.27.2-4.74.83-1.49.62-2.86,1.53-4.1,2.6-2.49,2.15-5.01,4.54-6.92,7.1-.95,1.27-1.77,2.69-2.29,4.19-.47,1.51-.84,3.07-.59,4.69.37,2.7,2.1,5.32,4.83,6.44.24.1.47.13.69.12-.06,1.24.09,2.52,1.05,3.26,1.57,1.22,3.53.04,4.73-1.08.52-.49,1.02-1.15,1.56-1.75-.35,1.38-.59,2.77-.71,4.17-.11,1.31-.13,2.62-.05,3.95.04.66.11,1.33.19,2,.06.66.14,1.32.25,1.99.3,1.87,3.21,1.07,2.91-.81-.87-4.52-.5-9.2,1.2-13.44.44-1.1-.19-2.12-1.41-2.16-2.72-.1-4.22,2.1-5.88,3.78-.17.18-.35.36-.55.51-.09.07-.18.12-.27.17.01-.22,0-.45,0-.5,0-.39.04-.77.08-1.16.17-1.48.54-2.93.9-4.37.35-1.43.72-2.85.97-4.31.26-1.35.31-3.04.85-4.31.25-.59.71-.52,1.3-.42.03,0,.21.05.38.09l-.07.52c-.21,1.54-.53,3.06-.92,4.56-.48,1.81,2.47,2.39,2.95.57.3-1.14.56-2.28.75-3.44.16-.95.45-2.06.31-3.03-.05-.31-.17-.57-.31-.81.05-.12.1-.24.12-.39.27-1.63.95-2.98,2.06-4.23.77-.86,1.54-1.73,1.86-2.81-.16.95-.34,1.9-.52,2.85l-1.14,5.95c-.37,1.87,2.58,2.41,2.95.52l1.15-6c.36-2,.76-4,.96-6.03.49-4.04.92-8.09,1.3-12.14.08-.83-.44-1.35-1.06-1.53ZM742.93,430.14c0,.15-.02.31-.03.47-.04-.29-.07-.59-.08-.87-.02-.4-.01-.81,0-1.21.13.52.14,1.11.12,1.61ZM740.72,441.23c-.78,1.16-1.28,2.43-1.57,3.77-.34-.04-.68-.07-.99-.06-1.88,0-3.14,1.12-3.61,2.83-.57,2.06-.82,4.25-1.27,6.34-.44,1.81-.95,3.62-1.26,5.46-1.84-.89-2.89-2.67-2.94-4.63-.02-.66.07-1.31.24-1.94.15-.63.35-1.25.63-1.85.55-1.19,1.33-2.3,2.17-3.29,1.62-1.92,3.49-3.76,5.4-5.48,1.32-1.18,2.89-2.31,4.64-2.79-.49.57-1.06,1.1-1.43,1.65Z"/><path class="cls-1" d="M750.48,398.45c-.46-1.86-3.37-1.18-2.91.67.26,1.08.5,2.16.62,3.25.03.33.05.66.07.99-.7-.18-1.42-.28-2.14-.34-.9-.08-1.88-.08-2.8-.25,0-1.23.23-2.46.52-3.64l.63-2.44c.21-.85.48-1.79.51-2.67.03-1.05-.64-1.93-1.7-2.15-.93-.19-1.9-.27-2.84-.37-1.85-.2-3.7-.31-5.56-.36-1.93-.04-2,2.78-.07,2.84,1.67.05,3.33.16,4.99.34.69.07,1.39.16,2.08.26-.04.17-.07.35-.11.52-.34,1.53-.78,3.02-1.07,4.53-.15.75-.24,1.51-.3,2.28-.01.11,0,.23-.02.34-.32.15-.59.42-.74.8-.85,2.2-1.61,4.41-2.26,6.65-.19.15-.34.35-.41.59-.24.83-.39,1.67-.43,2.53-.03.71.45,1.36,1.19,1.51.67.13,1.54-.19,1.72-.89.69-2.71,1.54-5.39,2.51-8.05,0,0,.01,0,.02,0,.98.27,2,.4,3.05.48,1.41.11,2.84.17,3.97,1.1.86.71,2.33-.08,2.35-1.14.01-1.24-.02-2.49-.14-3.72-.17-1.24-.4-2.46-.7-3.67ZM742.49,394.68s0,0,0-.01c.02,0,.03,0,0,.01Z"/><path class="cls-1" d="M752.13,371.53c-.03-1.54-2.05-1.87-2.81-.65-2.52,4.03-5.41,8.39-10.45,9.23-1.44.25-1.35,2.52.07,2.77,3.88.68,5.33,4.92,7.97,7.24.76.68,1.73.4,2.26-.19l-.05,1.49c-.06,1.9,2.94,1.98,3,.06l.15-4.99.08-2.49-.04-2.49-.18-9.98ZM749.09,388.06c-1.56-1.37-2.7-3.17-4.11-4.72-.54-.59-1.11-1.14-1.73-1.63,2.39-1.23,4.32-3.19,5.98-5.39l.09,5.2.04,2.47-.08,2.47-.05,1.75c-.04-.05-.08-.1-.14-.15Z"/><path class="cls-1" d="M738,374.83c2.02.5,4.12.75,6.2.74.79,0,1.52-.72,1.46-1.5-.06-.8-.69-1.43-1.53-1.42-.48,0-.96,0-1.44-.02l-.72-.04-.27-.02-.15-.02c-.95-.11-1.89-.28-2.82-.51-.76-.18-1.66.31-1.82,1.06-.16.77.28,1.53,1.09,1.73Z"/><path class="cls-1" d="M753.36,365.29c-4.87-.56-9.76-.88-14.64-.98-.81-.02-1.45.78-1.39,1.51.07.82.74,1.34,1.56,1.36,4.61.13,9.2.46,13.77,1.02.8.1,1.61-.28,1.82-1.13.18-.73-.28-1.7-1.11-1.79Z"/><path class="cls-1" d="M740.73,362.66c.89-.42,1.23-1.02,1.63-1.87l.78-1.66c.83.07,1.75-.45,1.69-1.51-.17-2.86-.2-5.77-.51-8.61-.06-.72-.38-1.34-1.03-1.71-.62-.36-1.35-.36-2.04-.39-1.5-.06-2.99,0-4.47.25-.88.14-1.69,1.06-1.22,1.95,1.86,3.83,2.95,8,3.19,12.29.05.84,1.11,1.69,2,1.27ZM740.61,349.76l.61.04h.12s0,.07.01.09l.05.9.33,5.59c-.21.04-.41.12-.58.26-.44-2.35-1.11-4.65-2.04-6.85.5-.03.99-.05,1.49-.03Z"/><path class="cls-1" d="M746.01,347.82c.26,3.78.47,7.6-.18,11.34-.17.94.59,1.82,1.58,1.76l3.86-.23c1.93-.11,1.71-3.11-.22-2.97l-2.02.14c.37-3.42.2-6.89-.04-10.33-.21-1.9-3.19-1.59-2.99.29Z"/><path class="cls-1" d="M662.35,615.87c-.63-.49-1.58-.49-2.1.14-2.05,2.48-4.19,4.87-6.42,7.18-.53.55-.44,1.61.16,2.11.65.54,1.5.48,2.08-.11,2.25-2.33,4.41-4.74,6.47-7.24.49-.59.47-1.58-.18-2.08Z"/><path class="cls-1" d="M671.07,603.22c-.92-.64-1.9-.96-2.97-1.23-.78-.2-1.7-.33-2.36-.85-.65-.51-.95-1.41-1.35-2.1-.55-.96-1.24-1.77-2.3-2.19-1.78-.71-2.84,1.93-1.06,2.65.65.26.92,1.05,1.22,1.63.33.62.69,1.23,1.16,1.75-1.58.35-3.1.92-4.49,1.73-.82.48-.68,1.77,0,2.34.64.54,1.57,1.23,2.07,2.04-.79.29-1.52.66-2.14,1.17-.98.8-1.7,1.89-2.07,3.27-.2.76.49,1.58,1.22,1.72.85.17,1.5-.4,1.71-1.16.21-.78.77-1.45,1.44-1.9.86-.58,2.32-.4,2.86-1.34.65-1.1-.11-2.59-.78-3.54-.25-.35-.53-.67-.83-.98,2.37-.89,5.02-1.01,7.57-.4,1.44.34,2.28-1.8,1.08-2.62Z"/><path class="cls-1" d="M677.83,592.7c-1.08,1.53,1.34,3.3,2.44,1.75,1.09-1.55-1.35-3.29-2.44-1.75Z"/><path class="cls-1" d="M703.06,557.74c-.1-1.18-.56-2.22-1.83-2.56-1.33-.35-2.78.26-4.01.65-2.57.81-5.18,1.9-6.88,3.95-.63.77-1.33,1.74-1.31,2.81.01.58.25,1.17.65,1.62.52.6,1.3.67,1.82,1.18.02.02.03.04.05.06-.03,0-.06,0-.09,0-2.86.27-6.07,1.68-8.26,3.4-2.25,1.74-3.3,4.46-2.22,7.26.68,1.79,3.28.49,2.6-1.27-1.29-3.28,4.19-5.48,6.52-6.17.3-.09.78-.2,1.29-.28-.44,1.01-1,1.97-1.23,3.07-.2.96-.25,2.15.31,3.04.73,1.14,2.32,1.19,3.43.61,1.89-.99,3.16-3.69,3.14-5.75-.04-1.7-.98-2.8-2.25-3.39-.06-.54-.2-1.06-.44-1.53-.33-.65-.81-1.19-1.43-1.58-.22-.14-.52-.32-.79-.43.08-.13.15-.27.23-.4.97-1.4,2.59-2.26,4.17-2.87.93-.36,1.89-.65,2.85-.92.18-.05.4-.09.57-.16.03-.01.04-.02.06-.03-.02.4.07.89.08,1.25.02,1.63-.05,3.26-.2,4.9-1.12-.69-2.17-1.47-3.15-2.39-1.41-1.32-3.47.7-2.08,2.04,1.64,1.57,3.47,2.88,5.49,3.88-1.79,3.53-3.96,6.83-6.04,10.19l-1.19,1.86c.29-.68.25-1.58-.5-1.98-3.01-1.62-6.33-1.43-9.41-.46-1.55.49-3.11,1.04-4.66,1.65-1.59.58-3.13,1.24-4.55,1.99-2.82,1.5-5.44,3.75-6.28,6.91-.36,1.33-.39,2.78-.09,4.16.27,1.36.89,2.66,1.9,3.72.18.19.37.31.58.4-.58,1.09-.99,2.3-.42,3.37.92,1.74,3.22,1.5,4.79.98.68-.22,1.41-.61,2.15-.92-.88,1.1-1.7,2.24-2.41,3.45-1.32,2.26-2.3,4.72-2.94,7.36-.45,1.87,2.5,2.29,2.95.43.54-2.23,1.4-4.35,2.55-6.31,1.13-1.97,2.61-3.72,4.16-5.37.83-.85.65-2.04-.44-2.58-2.45-1.21-4.6.26-6.83,1.09-.23.09-.47.18-.72.23-.11.02-.22.03-.32.04.1-.19.2-.41.22-.45.17-.35.36-.68.57-1.01.74-1.3,1.63-2.5,2.51-3.69l2.62-3.56c.82-1.11,1.58-2.61,2.62-3.53.48-.43.87-.18,1.37.15.03.02.17.14.31.24l-.28.44c-.85,1.3-1.79,2.54-2.79,3.73-1.21,1.44,1.24,3.17,2.45,1.73.76-.9,1.48-1.82,2.16-2.79.55-.79,1.29-1.67,1.58-2.6.09-.3.09-.58.06-.86.1-.08.19-.18.28-.3.97-1.34,2.05-2.35,3.56-3.04,1.01-.47,2.01-.95,2.72-1.78l-1.52,2.37-1.66,2.53c-.57.83-1.19,1.63-1.78,2.45-1.14,1.53,1.33,3.23,2.48,1.69.6-.82,1.22-1.63,1.8-2.47l1.67-2.55,3.29-5.14c2.14-3.46,4.39-6.86,6.22-10.51.39-.74.12-1.43-.38-1.85.02-.07.05-.14.07-.23.42-3.04.73-6.19.48-9.2ZM693.42,571.38c-.07.13-.15.27-.23.41.09-.28.19-.55.3-.82.16-.37.33-.73.51-1.09-.1.52-.34,1.06-.58,1.5ZM686.83,580.57c-1.17.75-2.08,1.74-2.91,2.84-.29-.18-.59-.34-.88-.47-1.72-.77-3.36-.28-4.51,1.06-1.4,1.63-2.58,3.47-3.85,5.19-1.1,1.5-2.26,2.98-3.26,4.56-1.32-1.57-1.59-3.66-.87-5.5.97-2.49,3.33-4.09,5.71-5.19,1.15-.53,2.35-1.02,3.57-1.47,1.22-.43,2.44-.86,3.65-1.28,1.65-.56,3.51-.97,5.29-.7-.67.33-1.39.59-1.94.95Z"/><path class="cls-1" d="M710.28,544.94c-.28,1.41-.66,2.79-1.13,4.15-.57-.45-1.19-.83-1.82-1.18-.79-.44-1.68-.85-2.46-1.39.48-1.12,1.22-2.13,1.99-3.08l1.62-1.95c.56-.68,1.21-1.42,1.61-2.2.47-.94.25-2-.65-2.64-.78-.55-1.63-1.02-2.45-1.5-1.61-.93-3.26-1.8-4.93-2.59-1.71-.81-2.99,1.71-1.25,2.55,1.5.73,2.97,1.51,4.41,2.34.6.35,1.2.71,1.79,1.08-.11.14-.21.29-.32.43-1.52,1.95-3.22,3.73-4.31,5.9-.35.01-.7.15-.98.44-1.63,1.69-3.14,3.44-4.66,5.21-.24.06-.45.17-.62.36-.57.65-1.07,1.34-1.47,2.1-.33.63-.17,1.42.44,1.85.55.4,1.48.46,1.95-.1,1.04-1.28,2.18-2.5,3.26-3.74.74-.88,1.52-1.73,2.3-2.58,0,0,.01,0,.02,0,.79.65,1.67,1.19,2.59,1.69,1.24.68,2.52,1.32,3.19,2.64.51,1.01,2.15.88,2.58-.1.99-2.29,1.75-4.67,2.24-7.11.38-1.87-2.58-2.44-2.95-.58ZM707.54,538.85s0,0,0-.01c.02.01.03.02,0,.01Z"/><path class="cls-1" d="M723.44,519.86c-3.77,2.73-8.4,5.45-13.33,4.18-1.42-.36-2.31,1.72-1.12,2.53,3.18,2.16,2.96,6.7,4.46,9.91.43.94,1.43,1.08,2.13.74l-.61,1.36c-.38.87.05,1.61.74,1.93.67.32,1.59.23,1.98-.65l4.11-9.1,2.05-4.55c.33-.76.7-1.51,1.01-2.28l.91-2.32c.56-1.44-1.16-2.56-2.32-1.75ZM719.04,529.56l-2.76,6.1c-.02-.07-.04-.13-.07-.2-1.23-2.62-1.5-5.71-2.81-8.2,1.55-.08,3.07-.43,4.54-.97,1.1-.41,2.18-.93,3.24-1.49-.04.08-.07.16-.11.24l-2.04,4.51Z"/><path class="cls-1" d="M711.24,516.87c-.44.64-.33,1.53.33,2.04,1.63,1.27,3.44,2.35,5.35,3.18.71.31,1.72-.02,1.95-.77.26-.77-.09-1.6-.86-1.93-.44-.19-.88-.39-1.31-.6l-.64-.33-.24-.13-.13-.08c-.83-.49-1.62-1.03-2.39-1.61-.62-.48-1.64-.39-2.07.24Z"/><path class="cls-1" d="M729.29,516.35c-4.21-2.48-8.53-4.75-12.95-6.81-.73-.34-1.66.12-1.92.8-.3.77.15,1.53.88,1.88,4.16,1.99,8.24,4.16,12.2,6.53.7.42,1.58.4,2.09-.3.44-.6.39-1.69-.31-2.1Z"/><path class="cls-1" d="M718.67,503.86c-.3,1.02-.65,2.03-1.05,3.03-.32.78.29,1.98,1.28,1.96,1-.02,1.56-.42,2.28-1.03l1.42-1.19c.73.4,1.79.3,2.19-.69.98-2.69,2.03-5.4,2.84-8.15.2-.69.19-1.38-.24-1.98-.41-.57-1.08-.87-1.7-1.18-1.34-.66-2.73-1.2-4.19-1.58-.86-.22-2,.28-1.94,1.27.12,2.14.04,4.29-.25,6.4-.16,1.05-.32,2.12-.62,3.14ZM724.49,497.28l.11.06s-.01.06-.02.08l-.29.85c-.62,1.76-1.22,3.53-1.84,5.29-.2-.05-.41-.05-.62,0,.16-.74.29-1.48.41-2.22.23-1.63.35-3.27.35-4.91.46.17.92.35,1.36.57l.55.28Z"/><path class="cls-1" d="M729.64,497.39c-.62,1.79-1.23,3.59-1.95,5.34-.72,1.75-1.51,3.46-2.65,5.01-.55.78-.24,1.89.69,2.24l3.62,1.35c1.81.68,2.89-2.12,1.07-2.78l-1.9-.69c.2-.33.4-.66.59-.99.46-.91.87-1.84,1.27-2.78.78-1.88,1.46-3.82,2.12-5.75.62-1.81-2.23-2.73-2.85-.94Z"/><path class="cls-1" d="M542.25,707.68c-2.81,1.57-5.81,2.73-8.81,3.89-.72.27-1.07,1.26-.73,1.96.38.76,1.18,1.07,1.96.77,3.02-1.17,6.05-2.34,8.88-3.92.68-.36,1.05-1.29.66-2.01-.38-.7-1.24-1.07-1.97-.69Z"/><path class="cls-1" d="M548.15,699.55c2.55.19,5.05,1.2,7.15,2.81,1.19.92,2.78-.78,2.03-2-.59-.95-1.35-1.64-2.21-2.31-.63-.49-1.41-.98-1.81-1.71-.39-.73-.31-1.68-.39-2.48-.12-1.11-.43-2.14-1.22-2.94-.67-.68-1.51-.51-2.01,0-.52.48-.7,1.31-.02,2.01.49.5.41,1.33.45,1.97.05.7.13,1.4.35,2.06-1.6-.35-3.24-.48-4.85-.33-.96.08-1.36,1.3-.96,2.1.38.76.94,1.76,1.07,2.71-2.17-.14-4.14.62-5.58,2.48-.49.62-.19,1.66.43,2.08.71.49,1.52.22,2.01-.41.51-.65,1.27-1.05,2.06-1.2,1.02-.19,2.25.51,3.14-.1,1.05-.72.97-2.37.74-3.5-.08-.42-.21-.83-.36-1.23Z"/><path class="cls-1" d="M567.75,693.45c-1.63.93-.13,3.52,1.52,2.58,1.65-.94.11-3.51-1.52-2.58Z"/><path class="cls-1" d="M604.25,668.49c-1.07-.85-2.63-.86-3.9-.98-1.32-.13-2.69-.2-4.01-.08-1.32.13-2.66.34-3.87.93-.91.43-1.95,1.02-2.38,1.98-.23.53-.25,1.15-.08,1.72.23.75.92,1.14,1.19,1.81.01.03.01.05.02.08-.03-.01-.06-.02-.09-.03-2.76-.95-6.19-.84-8.86-.12-2.69.79-4.82,2.73-4.98,5.7-.11,1.89,2.82,1.8,2.93-.06.05-.87.45-1.51,1.07-1.96.61-.48,1.42-.79,2.3-.98,1.77-.38,3.84-.29,5.02-.15.31.04.79.12,1.28.25-.8.77-1.68,1.44-2.32,2.38-.56.82-1.07,1.91-.91,2.95.22,1.35,1.64,2.02,2.87,1.92,2.11-.17,4.3-2.21,5.12-4.1.67-1.54.26-2.92-.66-3.98.16-.51.25-1.03.23-1.56-.03-.72-.25-1.4-.66-2.01-.14-.21-.35-.51-.55-.71.12-.09.25-.18.38-.26,1.47-.86,3.34-.93,5.03-.87.98.03,1.97.14,2.95.27.19.02.4.08.58.07.03,0,.04,0,.07,0-.17.37-.28.85-.42,1.19-.6,1.55-1.34,3-2.16,4.4-.75-1.08-1.39-2.22-1.91-3.45-.75-1.77-3.5-.81-2.77.97.86,2.09,2,4.02,3.45,5.75-3.16,2.37-6.36,4.7-9.58,6.98-.6.4-1.21.8-1.82,1.19.53-.49.84-1.29.32-1.96-2.09-2.69-5.25-3.91-8.49-4.31-3.26-.41-6.72-.67-9.89-.38-1.58.14-3.18.49-4.64,1.12-1.5.56-2.86,1.42-3.9,2.66-1.76,2.09-2.54,5.13-1.54,7.91.09.24.22.44.37.59-.96.78-1.81,1.76-1.71,2.97.15,1.99,2.33,2.65,3.96,2.79.71.06,1.54-.02,2.34-.02-1.25.67-2.45,1.42-3.57,2.27-1.04.79-2.03,1.67-2.96,2.62-.94.93-1.86,1.88-2.69,2.95-1.19,1.49,1.35,3.1,2.55,1.62,1.45-1.73,3.03-3.44,4.85-4.8,1.81-1.38,3.81-2.48,5.95-3.28,1.11-.41,1.44-1.57.66-2.5-1.75-2.08-4.38-1.72-6.73-1.83-.25-.01-.5-.02-.74-.07-.11-.02-.21-.06-.31-.09.17-.14.34-.3.38-.33.29-.26.6-.49.91-.72,1.21-.87,2.53-1.56,3.84-2.27,1.29-.71,2.6-1.38,3.87-2.12,1.18-.71,2.46-1.81,3.76-2.26.61-.21.86.18,1.18.68.02.03.1.19.18.35l-.43.3c-1.28.88-2.62,1.67-4,2.38-1.7.8-.16,3.38,1.55,2.57,1.04-.54,2.06-1.12,3.05-1.75.81-.52,1.83-1.05,2.45-1.8.2-.24.31-.51.39-.77.12-.04.25-.09.37-.17,1.39-.89,2.85-1.29,4.52-1.31,1.15,0,2.3-.02,3.32-.5-2.51,1.6-5.07,3.13-7.62,4.68-1.63.98-.06,3.53,1.59,2.54,3.48-2.11,6.98-4.2,10.36-6.46,3.32-2.35,6.62-4.75,9.87-7.19.67-.5.71-1.24.42-1.82.05-.06.11-.11.15-.18,1.68-2.51,3.17-5.35,4.13-8.26.37-1.13.36-2.29-.66-3.11ZM590.57,680.17c-.12.1-.24.2-.37.29.19-.23.39-.44.59-.64.29-.28.59-.55.89-.82-.3.45-.73.85-1.12,1.17ZM580.84,685.92c-1.38.2-2.66.68-3.84,1.37-.2-.28-.4-.55-.61-.78-1.26-1.39-2.94-1.58-4.51-.78-.95.48-1.88,1.04-2.8,1.61l-1.37.86c-.47.26-.94.52-1.41.78-1.64.89-3.32,1.73-4.9,2.73-.57-1.96.05-3.94,1.47-5.29.96-.93,2.17-1.46,3.42-1.85,1.25-.4,2.59-.56,3.89-.6,2.51-.08,5.13.07,7.68.33,1.76.18,3.64.59,5.17,1.57-.75.02-1.53-.05-2.18.04Z"/><path class="cls-1" d="M616.45,658.93c.77-.42,1.65-.84,2.32-1.42.8-.68,1-1.77.45-2.71-.48-.82-1.07-1.59-1.63-2.36-1.09-1.5-2.25-2.96-3.46-4.36-1.26-1.46-3.4.38-2.15,1.86,1.08,1.27,2.11,2.58,3.09,3.93.41.56.81,1.14,1.2,1.72-.15.09-.3.18-.46.27-1.36.77-2.76,1.45-4.08,2.25-.74.47-1.48.95-2.18,1.49-.33-.14-.71-.16-1.09-.01-2.2.84-4.34,1.77-6.44,2.78-.24-.04-.49-.02-.71.09-.77.38-1.5.83-2.16,1.38-.54.45-.71,1.25-.32,1.9.35.59,1.17,1.01,1.81.67,2.47-1.31,5.02-2.48,7.64-3.54,0,0,0,0,.01.01.46.91,1.04,1.76,1.68,2.59.86,1.13,1.77,2.22,1.84,3.69.05,1.11,1.62,1.68,2.42.97,1.87-1.65,3.58-3.45,4.94-5.56,1.07-1.59-1.38-3.3-2.45-1.71-.79,1.23-1.71,2.31-2.71,3.33-.34-.64-.75-1.24-1.18-1.81-.55-.72-1.2-1.45-1.69-2.25.92-.81,2.02-1.42,3.08-2.02l2.23-1.18ZM616.62,656.1s0,0,0-.01c.01.02.02.03,0,.01Z"/><path class="cls-1" d="M638.86,645.21c-4.67.83-9.84,1.62-13.84-1.55-1.15-.91-2.77.69-2.01,1.91,2.04,3.27-.09,7.24-.05,10.75,0,1.02.86,1.56,1.65,1.55l-1.13.97c-1.45,1.23.5,3.52,1.96,2.27l3.8-3.24c1.26-1.09,2.56-2.13,3.74-3.29l7.27-6.83c1.12-1.06.01-2.78-1.4-2.53ZM630.96,652.35c-1.18,1.16-2.47,2.19-3.71,3.27l-1.33,1.13c0-.07.02-.13.02-.21-.02-2.07.52-4.15.76-6.2.08-.79.11-1.59.05-2.37,2.51.95,5.26,1.06,8,.82l-3.79,3.56Z"/><path class="cls-1" d="M632.5,640.68l-.08-.12c-.56-.78-1.06-1.59-1.52-2.43-.37-.69-1.34-1.02-2-.64-.68.39-.95,1.23-.55,1.97.98,1.83,2.2,3.56,3.61,5.1.53.58,1.55.65,2.09.08.56-.58.6-1.48.02-2.09-.33-.35-.64-.71-.95-1.08l-.45-.56-.17-.23Z"/><path class="cls-1" d="M636.64,632.95c-.54-.62-1.54-.54-2.06-.03-.6.57-.51,1.44.02,2.05,2.99,3.51,5.82,7.14,8.47,10.91.46.66,1.28,1.01,2.05.59.66-.36,1.07-1.36.6-2.02-2.81-3.95-5.88-7.82-9.07-11.51Z"/><path class="cls-1" d="M651.26,623.16c-.96-1.16-2.01-2.22-3.18-3.15-.69-.55-1.91-.54-2.29.37-1.59,3.96-3.95,7.56-6.96,10.63-.59.6-.51,1.96.4,2.34.91.38,1.58.23,2.47-.05l1.75-.54c.51.67,1.51.99,2.25.24,2-2.05,4.14-4.02,6.03-6.17.48-.54.76-1.16.61-1.89-.15-.7-.64-1.25-1.08-1.78ZM648.46,625.87l-3.92,4c-.17-.13-.36-.22-.58-.25,1.44-1.91,2.7-3.95,3.71-6.1.35.35.69.7,1.01,1.07l.38.48.07.1s-.04.05-.05.06l-.63.64Z"/><path class="cls-1" d="M653.75,627.3c-2.64,2.71-5.31,5.45-8.53,7.47-.81.51-.96,1.66-.25,2.36l2.75,2.71c1.37,1.36,3.45-.81,2.06-2.16l-1.45-1.41c2.78-2.02,5.23-4.49,7.63-6.96.68-.68.42-1.56-.14-2.05-.56-.51-1.41-.64-2.08.03Z"/><path class="cls-1" d="M397.09,743.02c-3.21.15-6.42.17-9.63.07-.76-.02-1.5.76-1.46,1.54.04.85.65,1.44,1.47,1.46,3.23.1,6.47.08,9.7-.07.77-.04,1.49-.71,1.42-1.54-.06-.8-.7-1.5-1.51-1.46Z"/><path class="cls-1" d="M411.16,743.45c.71,1.3,2.86.48,2.67-.95-.15-1.11-.56-2.05-1.07-3.03-.37-.71-.89-1.49-.95-2.32-.06-.83.41-1.65.66-2.41.34-1.05.49-2.11.09-3.18-.67-1.8-3.33-.81-2.68,1,.24.65-.17,1.39-.39,2-.24.66-.45,1.34-.52,2.04-1.32-.94-2.76-1.68-4.29-2.17-.9-.27-1.77.66-1.74,1.55.03.84.13,1.99-.13,2.9-1.92-1.05-4.04-1.21-6.12-.15-.7.36-.85,1.42-.46,2.06.45.74,1.3.85,2.01.49.73-.37,1.59-.41,2.38-.21,1.01.26,1.85,1.42,2.91,1.25,1.25-.23,1.85-1.81,2.11-2.94.09-.42.14-.85.17-1.28,2.24,1.16,4.11,3.05,5.36,5.34Z"/><path class="cls-1" d="M426.17,740.49c-1.86.23-1.56,3.21.33,2.98,1.88-.23,1.54-3.21-.33-2.98Z"/><path class="cls-1" d="M466.55,730.21c-2.32-1.36-4.87-2.57-7.53-2.45-.99.05-2.18.19-2.96.92-.43.4-.7.98-.77,1.56-.1.77.37,1.42.34,2.14,0,.03-.01.05-.01.08-.02-.02-.04-.04-.07-.06-2.13-2.03-5.31-3.4-8.06-3.89-2.79-.5-5.52.55-6.88,3.24-.87,1.71,1.83,2.76,2.68,1.07,1.58-3.16,6.87-.57,8.94.7.27.17.67.44,1.07.77-1.05.35-2.13.58-3.1,1.15-.85.5-1.77,1.26-2.05,2.27-.36,1.31.67,2.52,1.83,2.95,2,.75,4.85-.15,6.37-1.51,1.24-1.13,1.43-2.56,1.02-3.91.36-.4.65-.86.84-1.36.26-.68.34-1.4.22-2.12-.04-.26-.11-.6-.21-.88.15-.03.3-.07.45-.09,1.69-.22,3.41.4,4.92,1.16.89.45,1.74.97,2.59,1.5.16.1.33.24.5.31.03.01.04.02.06.03-.31.26-.61.65-.88.9-1.19,1.11-2.47,2.13-3.78,3.11-.24-1.28-.35-2.58-.32-3.91.04-1.93-2.84-2.1-2.9-.17-.07,2.27.18,4.5.79,6.68-.9.22-1.79.47-2.69.65l-2.97.57-5.96,1.08c-.74.12-1.48.25-2.22.38.71-.23,1.37-.87,1.17-1.72-.81-3.32-3.17-5.66-5.95-7.29-2.79-1.58-5.85-3.36-8.87-4.44-3-1.09-6.42-1.51-9.34-.01-2.45,1.31-4.43,3.64-4.65,6.59-.02.26.02.49.09.69-1.2.3-2.37.82-2.78,1.95-.68,1.86,1.04,3.39,2.48,4.21.62.36,1.41.64,2.15.99-.1,0-.2,0-.3,0-1.32.08-2.61.25-3.89.52-2.56.54-5.04,1.46-7.44,2.77-1.69.92-.03,3.39,1.66,2.48,4.04-2.21,8.62-3.11,13.17-2.82,1.18.05,1.95-.89,1.62-2.06-.74-2.62-3.27-3.23-5.39-4.39-.22-.12-.45-.23-.65-.38-.09-.06-.17-.14-.25-.21.21-.05.44-.12.48-.14.37-.11.75-.19,1.13-.26,1.47-.23,2.95-.43,4.43-.57l4.39-.45c1.37-.14,3-.58,4.37-.43.64.07.71.52.8,1.12,0,.03.01.22.03.39l-.52.09c-1.54.24-3.08.38-4.64.44-1.88.07-1.53,3.05.35,2.98,1.17-.04,2.35-.13,3.51-.28.95-.12,2.1-.16,2.98-.58.28-.13.49-.32.67-.53.13.02.26.02.41,0,.82-.11,1.6-.09,2.37.03.77.11,1.52.3,2.28.62,1.05.44,2.11.88,3.23.82-2.94.5-5.89.98-8.87,1.21-1.9.19-1.51,3.16.41,2.97,4.06-.31,8.07-1.08,12.08-1.75l6.01-1.09,3-.58c1-.19,1.98-.48,2.97-.72.81-.2,1.15-.87,1.13-1.52.07-.03.14-.06.21-.1,2.54-1.73,5.08-3.61,7.16-5.83.81-.86,1.28-1.91.68-3.08-.63-1.22-2.05-1.89-3.16-2.54ZM451.98,737.89c.26-.12.54-.23.81-.33.38-.13.77-.24,1.15-.36-.46.28-1.02.46-1.5.58-.15.04-.3.07-.46.1ZM441.21,739.07c-.75-.2-1.5-.29-2.27-.33-.6-.05-1.2-.03-1.8.02-.06-.34-.14-.67-.24-.96-.58-1.79-2.03-2.68-3.8-2.63-2.14.06-4.31.42-6.43.64-1.85.17-3.72.35-5.57.62.29-2.02,1.66-3.62,3.5-4.32,2.5-.95,5.27-.28,7.67.75,2.33.99,4.66,2.27,6.88,3.56,1.52.85,3.07,1.96,4.06,3.45-.69-.28-1.37-.64-2-.8Z"/><path class="cls-1" d="M488.47,723.65c-.38-1.81-.84-3.61-1.37-5.39-.55-1.85-3.27-1.1-2.74.76.46,1.6.87,3.22,1.21,4.85.14.68.27,1.37.39,2.05-.18.02-.35.04-.53.05-2.47.18-4.92.12-7.26.77-.24-.25-.58-.42-.98-.43-1.64-.05-3.28-.05-4.91,0-.69,0-1.39,0-2.08,0-.21-.14-.44-.23-.69-.22-.86.01-1.71.1-2.54.32-.69.18-1.17.83-1.08,1.57.08.68.65,1.41,1.38,1.38,1.65-.07,3.3-.09,4.97-.07,1.16.01,2.31,0,3.46,0,0,0,0,0,0,.01.05,1.02.23,2.04.47,3.06.33,1.38.71,2.76.17,4.14-.41,1.05.78,2.19,1.8,1.84,2.36-.81,4.64-1.84,6.77-3.12,1.64-.98.09-3.55-1.54-2.58-1.24.74-2.52,1.38-3.84,1.95-.05-.72-.17-1.44-.33-2.14-.2-.88-.5-1.82-.63-2.75,1.16-.4,2.41-.53,3.63-.6l2.53-.11c.88-.05,1.86-.06,2.71-.29,1.01-.28,1.65-1.17,1.53-2.24-.11-.94-.33-1.89-.52-2.82ZM486.07,726.52s0,0,0,0c0,.03,0,.03,0,0Z"/><path class="cls-1" d="M510.83,725.69c-2.27-.49-4.71-1.19-6.85-2.28-2.14-1.09-3.99-2.6-5.18-4.87-.68-1.3-2.82-.56-2.63.87.52,3.81-3,6.7-4.38,9.97-.4.94.14,1.76.85,2.07-.47.15-.93.3-1.4.44-1.84.5-.99,3.37.86,2.87,3.18-.96,6.34-2.03,9.51-3.04l4.75-1.54c1.58-.53,3.18-.98,4.73-1.61,1.44-.54,1.13-2.58-.25-2.9ZM500.67,728.88c-2.12.68-4.24,1.37-6.37,2.05.03-.06.07-.11.09-.17,1.13-2.67,3.24-4.95,4.22-7.59,1.91,1.92,4.39,3.19,7.01,4.12-.08.03-.16.05-.24.08l-4.71,1.52Z"/><path class="cls-1" d="M506.96,719.28l-.06-.27-.03-.15c-.19-.94-.32-1.9-.4-2.86-.06-.78-.8-1.48-1.56-1.38-.77.1-1.37.72-1.31,1.56.14,2.06.55,4.13,1.21,6.11.25.74,1.16,1.24,1.89.96.76-.27,1.15-1.11.87-1.9-.16-.45-.3-.91-.43-1.38l-.18-.7Z"/><path class="cls-1" d="M513.75,713.48c-.24-.78-1.2-1.15-1.88-.88-.77.3-1.04,1.14-.81,1.92,1.3,4.43,2.42,8.91,3.3,13.45.16.8.76,1.44,1.62,1.35.74-.07,1.51-.84,1.35-1.64-.97-4.79-2.18-9.52-3.59-14.19Z"/><path class="cls-1" d="M522.06,717.33c.67-.25,1.35-.48,2.02-.74l2-.82c1.33-.55,2.66-1.12,3.95-1.74.65-.31,1.15-.78,1.31-1.51.15-.69-.07-1.39-.26-2.05-.4-1.44-.94-2.83-1.63-4.17-.41-.79-1.55-1.3-2.24-.59-1.51,1.53-3.16,2.91-4.92,4.11-.87.62-1.81,1.12-2.77,1.58-.96.46-1.94.88-2.95,1.25-.79.29-1.28,1.55-.6,2.27.68.72,1.35.87,2.29,1l1.83.25c.19.81.98,1.53,1.97,1.16ZM522.35,713.33c.49-.29.97-.6,1.45-.92,1.36-.92,2.66-1.94,3.88-3.04.18.46.35.92.49,1.39l.16.6.03.12s-.05.03-.07.04l-.83.35-3.25,1.39-1.62.69-.29.11c-.1-.19-.24-.35-.43-.47.16-.08.32-.16.48-.25Z"/><path class="cls-1" d="M531.68,715.26c-3.49,1.46-6.96,3.09-10.78,3.47-.95.12-1.56,1.09-1.2,2.01l1.41,3.59c.7,1.8,3.51.72,2.78-1.07l-.75-1.86c3.39-.66,6.58-2.05,9.75-3.4,1.76-.76.53-3.49-1.21-2.75Z"/><path class="cls-1" d="M384,723c-90.55,0-175.68-35.26-239.71-99.29-64.03-64.03-99.29-149.16-99.29-239.71s35.26-175.68,99.29-239.71c64.03-64.03,149.16-99.29,239.71-99.29s175.68,35.26,239.71,99.29c64.03,64.03,99.29,149.16,99.29,239.71s-35.26,175.68-99.29,239.71c-64.03,64.03-149.16,99.29-239.71,99.29ZM384,51c-88.95,0-172.57,34.64-235.47,97.53-62.9,62.9-97.53,146.52-97.53,235.47s34.64,172.57,97.53,235.47c62.9,62.9,146.52,97.53,235.47,97.53s172.57-34.64,235.47-97.53c62.9-62.9,97.53-146.52,97.53-235.47s-34.64-172.57-97.53-235.47c-62.9-62.9-146.52-97.53-235.47-97.53Z"/><path class="cls-1" d="M384,421.04c-9.89,0-19.2-3.85-26.19-10.85-7-7-10.85-16.3-10.85-26.19s3.85-19.2,10.85-26.19c7-7,16.3-10.85,26.19-10.85s19.2,3.85,26.19,10.85,10.85,16.3,10.85,26.19-3.85,19.2-10.85,26.19c-7,7-16.3,10.85-26.19,10.85ZM384,352.96c-8.29,0-16.09,3.23-21.95,9.09-5.86,5.86-9.09,13.66-9.09,21.95s3.23,16.09,9.09,21.95c5.86,5.86,13.66,9.09,21.95,9.09s16.09-3.23,21.95-9.09c5.86-5.86,9.09-13.66,9.09-21.95s-3.23-16.09-9.09-21.95c-5.86-5.86-13.66-9.09-21.95-9.09Z"/><path class="cls-1" d="M386.02,381.88l-182.75-182.75c2.4-.53,4.61-1.72,6.38-3.49,2.45-2.45,3.8-5.72,3.8-9.19s-1.35-6.73-3.8-9.19h0c-2.45-2.45-5.72-3.81-9.19-3.81s-6.73,1.35-9.19,3.81c-2.45,2.45-3.8,5.72-3.8,9.19s1.35,6.73,3.8,9.19c.03.03.07.06.1.09l190.39,190.39,4.24-4.24ZM195.56,181.54c1.31-1.31,3.06-2.04,4.91-2.04s3.6.72,4.91,2.04h0c2.71,2.71,2.71,7.12,0,9.83-1.31,1.31-3.06,2.04-4.91,2.04s-3.6-.72-4.91-2.04c-2.71-2.71-2.71-7.12,0-9.83Z"/><path class="cls-1" d="M217.41,185.2l-2.17,2.17s4.94,6.35,2.29,10.2l-21.31,21.31c-3.84,2.65-10.2-2.29-10.2-2.29l-2.17,2.17,16.73,16.73,2.17-2.17s-4.94-6.35-2.3-10.19l21.32-21.32c3.84-2.64,10.19,2.3,10.19,2.3l2.17-2.17-16.73-16.73Z"/><path class="cls-1" d="M245.84,199.49l-2.17,2.17s4.94,6.35,2.3,10.19l-35.46,35.46c-3.84,2.65-10.2-2.29-10.2-2.29l-2.17,2.17,16.73,16.73,2.17-2.17s-4.94-6.35-2.3-10.19l35.46-35.46c3.84-2.64,10.19,2.3,10.19,2.3l2.17-2.17-16.73-16.73Z"/><path class="cls-1" d="M398.03,74.78v-3.63h-28.07v3.63s7.88.98,10.03,5.28v607.88c-2.15,4.3-10.03,5.28-10.03,5.28v3.63h28.07v-3.63s-7.88-.98-10.03-5.28V80.06c2.15-4.3,10.03-5.28,10.03-5.28Z"/><path class="cls-1" d="M693.22,398.03h3.63v-28.07h-3.63s-.98,7.88-5.28,10.03H80.06c-4.3-2.15-5.28-10.03-5.28-10.03h-3.63v28.07h3.63s.98-7.88,5.28-10.03h607.88c4.3,2.15,5.28,10.03,5.28,10.03Z"/><path class="cls-1" d="M333.58,681.25c-5.99-9.32-9.48-20.41-9.48-32.31,0-33.08,26.82-59.9,59.9-59.9,33.08,0,59.9,26.82,59.9,59.9,0,11.91-3.49,22.99-9.48,32.31,9.64-11.46,15.45-26.23,15.45-42.38,0-36.38-29.49-65.87-65.87-65.87s-65.87,29.49-65.87,65.87c0,16.14,5.82,30.92,15.45,42.38Z"/><path class="cls-1" d="M357.94,681.25c-3.1-4.82-4.9-10.55-4.9-16.7,0-17.1,13.86-30.96,30.96-30.96,17.1,0,30.96,13.86,30.96,30.96,0,6.15-1.8,11.88-4.9,16.7,4.98-5.92,7.99-13.56,7.99-21.9,0-18.8-15.24-34.04-34.04-34.04-18.8,0-34.04,15.24-34.04,34.04,0,8.34,3.01,15.98,7.99,21.9Z"/><path class="cls-1" d="M357.94,86.76c-3.1,4.82-4.9,10.55-4.9,16.7,0,17.1,13.86,30.96,30.96,30.96,17.1,0,30.96-13.86,30.96-30.96,0-6.15-1.8-11.88-4.9-16.7,4.98,5.92,7.99,13.56,7.99,21.9,0,18.8-15.24,34.04-34.04,34.04s-34.04-15.24-34.04-34.04c0-8.34,3.01-15.98,7.99-21.9Z"/><path class="cls-1" d="M333.58,86.76c-5.99,9.32-9.48,20.41-9.48,32.31,0,33.08,26.82,59.9,59.9,59.9,33.08,0,59.9-26.82,59.9-59.9,0-11.91-3.49-22.99-9.48-32.31,9.64,11.46,15.45,26.23,15.45,42.38,0,36.38-29.49,65.87-65.87,65.87s-65.87-29.49-65.87-65.87c0-16.14,5.82-30.92,15.45-42.38Z"/><path class="cls-1" d="M642.64,207.35v-1h-16.03v1s5.75,1.01,6.02,5.69v341.92c-.27,4.69-6.02,5.69-6.02,5.69v1h16.03v-1s-5.75-1.01-6.02-5.69V213.04c.27-4.69,6.02-5.69,6.02-5.69Z"/><path class="cls-1" d="M141.19,207.35v-1h-16.03v1s5.75,1.01,6.02,5.7v341.92c-.26,4.69-6.02,5.7-6.02,5.7v1h16.03v-1s-5.75-1.01-6.01-5.69V213.04c.27-4.69,6.01-5.69,6.01-5.69Z"/><path class="cls-1" d="M322.13,337.35v-1h-16.03v1s5.75,1.01,6.01,5.69v81.93c-.27,4.69-6.01,5.69-6.01,5.69v1h16.03v-1s-5.75-1.01-6.02-5.7v-81.91c.26-4.69,6.02-5.7,6.02-5.7Z"/><path class="cls-1" d="M299.04,337.35v-1h-16.03v1s5.75,1.01,6.02,5.7v81.92c-.26,4.69-6.02,5.7-6.02,5.7v1h16.03v-1s-5.75-1.01-6.01-5.69v-81.92c.27-4.69,6.01-5.69,6.01-5.69Z"/><path class="cls-1" d="M168.35,307.35v-1h-16.03v1s5.75,1.01,6.02,5.7v141.92c-.27,4.69-6.02,5.7-6.02,5.7v1h16.03v-1s-5.75-1.01-6.02-5.69v-141.92c.27-4.69,6.02-5.69,6.02-5.69Z"/><path class="cls-1" d="M615.48,307.35v-1h-16.03v1s5.75,1.01,6.02,5.7v141.91c-.26,4.69-6.02,5.7-6.02,5.7v1h16.03v-1s-5.74-1.01-6.01-5.69v-141.93c.27-4.68,6.01-5.69,6.01-5.69Z"/><path class="cls-1" d="M461.9,337.35v-1h-16.03v1s5.75,1.01,6.02,5.7v81.91c-.26,4.69-6.02,5.7-6.02,5.7v1h16.03v-1s-5.75-1.01-6.01-5.69v-81.92c.27-4.69,6.01-5.69,6.01-5.69Z"/><path class="cls-1" d="M484.99,337.35v-1h-16.03v1s5.75,1.01,6.01,5.69v81.92c-.27,4.69-6.01,5.69-6.01,5.69v1h16.03v-1s-5.75-1.01-6.02-5.7v-81.92c.26-4.69,6.02-5.7,6.02-5.7Z"/><path class="cls-1" d="M203.67,568.48l182.35-182.36-4.24-4.24-182.35,182.35c-3.45,1.02-7.68-2.16-7.68-2.16l-.71.71,14.08,14.08.71-.71s-3.18-4.23-2.16-7.68Z"/><path class="cls-1" d="M245.64,565.53s-6.35,4.94-10.19,2.29l-35.46-35.46c-2.64-3.84,2.29-10.19,2.29-10.19l-2.17-2.17-16.73,16.73,2.17,2.17s6.35-4.94,10.19-2.29l17.73,17.73,17.73,17.73c2.64,3.84-2.3,10.19-2.3,10.19l2.17,2.17,16.73-16.73-2.17-2.17Z"/><path class="cls-1" d="M267,544.17s-6.35,4.94-10.19,2.29l-35.46-35.46c-2.64-3.84,2.29-10.19,2.29-10.19l-2.17-2.17-16.73,16.73,2.17,2.17s6.35-4.94,10.19-2.29l35.46,35.46c2.64,3.84-2.3,10.19-2.3,10.19l2.17,2.17,16.73-16.73-2.17-2.17Z"/><path class="cls-1" d="M557.67,586.33c-4.58-1-8.94-3.27-12.5-6.83-9.89-9.89-9.89-25.93,0-35.82,9.89-9.89,25.93-9.89,35.82,0,3.56,3.56,5.83,7.92,6.83,12.5-.54-6.31-3.22-12.47-8.05-17.29-10.88-10.88-28.52-10.88-39.4,0-10.88,10.88-10.88,28.52,0,39.4,4.83,4.83,10.99,7.51,17.29,8.05Z"/><path class="cls-1" d="M540.75,522.48c-4.32-4.32-10.92-4.93-15.9-1.86l-138.73-138.73-4.24,4.24,138.73,138.73c-3.06,4.98-2.45,11.58,1.86,15.9,1.04,1.04,2.21,1.86,3.46,2.47-.31-.26-.62-.53-.91-.82-4.8-4.8-4.8-12.57,0-17.37s12.57-4.8,17.37,0c.29.29.56.59.82.91-.61-1.25-1.43-2.42-2.47-3.46Z"/><path class="cls-1" d="M586.33,210.33c-1,4.58-3.27,8.94-6.83,12.5-9.89,9.89-25.93,9.89-35.82,0-9.89-9.89-9.89-25.93,0-35.82,3.56-3.56,7.92-5.83,12.5-6.83-6.31.54-12.47,3.22-17.29,8.05-10.88,10.88-10.88,28.52,0,39.4,10.88,10.88,28.52,10.88,39.4,0,4.83-4.83,7.51-10.99,8.05-17.29Z"/><path class="cls-1" d="M516.31,233.42c-1.04,1.04-1.86,2.21-2.47,3.46.26-.31.53-.62.82-.91,4.8-4.8,12.57-4.8,17.37,0s4.8,12.57,0,17.37c-.29.29-.59.56-.91.82,1.25-.61,2.42-1.43,3.46-2.47,5.05-5.05,5.05-13.23,0-18.28-5.05-5.05-13.23-5.05-18.28,0Z"/><path class="cls-1" d="M574.45,168.07c3.41,3.41-2.47,9.29-5.88,5.88l10.62,10.62-197.31,197.31,4.24,4.24,197.31-197.31,10.62,10.62c-3.41-3.41,2.47-9.29,5.88-5.88l-25.49-25.49Z"/><path class="cls-1" d="M133.1,420.73l-1.33-1.19c-.73-.65-17.77-16.12-17.77-35.66s17.05-35.01,17.77-35.66l1.33-1.19,1.33,1.19c.73.65,17.77,16.12,17.77,35.66s-17.05,35.01-17.77,35.66l-1.33,1.19ZM133.1,352.51c-3.92,3.99-15.11,16.68-15.11,31.37s11.19,27.38,15.11,31.38c3.92-3.99,15.11-16.68,15.11-31.38s-11.19-27.38-15.11-31.37Z"/><path class="cls-1" d="M634.7,420.73l-1.33-1.19c-.73-.65-17.77-16.12-17.77-35.66s17.05-35.01,17.77-35.66l1.33-1.19,1.33,1.19c.73.65,17.77,16.12,17.77,35.66s-17.05,35.01-17.77,35.66l-1.33,1.19ZM634.7,352.5c-3.92,3.99-15.11,16.68-15.11,31.38s11.19,27.38,15.11,31.38c3.92-3.99,15.11-16.68,15.11-31.38s-11.19-27.39-15.1-31.38Z"/><path class="cls-1" d="M568.32,384c-4.69,0-13.8-6-20.53-14.61-3.36-38.41-19.93-74.07-47.51-101.66-31.06-31.06-72.35-48.16-116.27-48.16s-85.22,17.1-116.27,48.16c-27.52,27.52-44.07,63.07-47.49,101.37-6.76,8.77-16.01,14.9-20.76,14.9,4.75,0,14,6.13,20.76,14.9,3.42,38.3,19.97,73.85,47.49,101.37,31.06,31.06,72.35,48.16,116.27,48.16s85.22-17.1,116.27-48.16c27.59-27.59,44.15-63.25,47.51-101.66,6.74-8.61,15.84-14.61,20.53-14.61ZM496.03,496.03c-29.92,29.92-69.71,46.41-112.03,46.41s-82.11-16.48-112.03-46.41c-22.92-22.92-37.94-51.62-43.72-82.82,5.28-15.64,69.96-29.21,69.96-29.21,0,0-64.67-13.57-69.96-29.21,5.78-31.2,20.8-59.9,43.72-82.82,29.92-29.92,69.71-46.4,112.03-46.4s82.11,16.48,112.03,46.4c22.82,22.82,37.81,51.37,43.64,82.4-4.25,15.81-70.08,29.63-70.08,29.63,0,0,65.83,13.82,70.08,29.63-5.84,31.03-20.83,59.59-43.64,82.4Z"/><path class="cls-1" d="M586.95,383.84c-6.54,0-11.86-5.32-11.86-11.86s5.32-11.86,11.86-11.86,11.86,5.32,11.86,11.86-5.32,11.86-11.86,11.86ZM586.95,364.12c-4.33,0-7.86,3.52-7.86,7.86s3.52,7.86,7.86,7.86,7.86-3.52,7.86-7.86-3.52-7.86-7.86-7.86Z"/><path class="cls-1" d="M586.95,407.88c-6.54,0-11.86-5.32-11.86-11.86s5.32-11.86,11.86-11.86,11.86,5.32,11.86,11.86-5.32,11.86-11.86,11.86ZM586.95,388.16c-4.33,0-7.86,3.52-7.86,7.86s3.52,7.86,7.86,7.86,7.86-3.52,7.86-7.86-3.52-7.86-7.86-7.86Z"/><path class="cls-1" d="M181.05,383.84c-6.54,0-11.86-5.32-11.86-11.86s5.32-11.86,11.86-11.86,11.86,5.32,11.86,11.86-5.32,11.86-11.86,11.86ZM181.05,364.12c-4.33,0-7.86,3.52-7.86,7.86s3.52,7.86,7.86,7.86,7.86-3.52,7.86-7.86-3.52-7.86-7.86-7.86Z"/><path class="cls-1" d="M181.05,407.88c-6.54,0-11.86-5.32-11.86-11.86s5.32-11.86,11.86-11.86,11.86,5.32,11.86,11.86-5.32,11.86-11.86,11.86ZM181.05,388.16c-4.33,0-7.86,3.52-7.86,7.86s3.52,7.86,7.86,7.86,7.86-3.52,7.86-7.86-3.52-7.86-7.86-7.86Z"/></g></svg>