<?xml version="1.0" encoding="UTF-8"?><svg id="Layer_1" xmlns="http://www.w3.org/2000/svg" viewBox="0 0 774 774"><defs><style>.cls-1{fill:#fff;}</style></defs><g id="Pentagram_3"><path class="cls-1" d="M387,774c-52.24,0-102.92-10.23-150.64-30.41-46.08-19.49-87.47-47.4-123.01-82.94s-63.44-76.93-82.93-123.01C10.23,489.92,0,439.24,0,387s10.23-102.92,30.42-150.64c19.49-46.08,47.4-87.47,82.93-123.01s76.93-63.44,123.01-82.93C284.08,10.23,334.76,0,387,0s102.92,10.23,150.64,30.42c46.08,19.49,87.47,47.4,123.01,82.93,35.54,35.54,63.44,76.93,82.93,123.01,20.18,47.72,30.42,98.4,30.42,150.64s-10.23,102.92-30.42,150.64c-19.49,46.08-47.4,87.47-82.93,123.01-35.54,35.54-76.93,63.44-123.01,82.94-47.71,20.18-98.4,30.41-150.64,30.41ZM387,12C180.22,12,12,180.22,12,387s168.22,375,375,375,375-168.22,375-375S593.78,12,387,12Z"/><path class="cls-1" d="M387,576.54c-104.52,0-189.54-85.03-189.54-189.54s85.03-189.54,189.54-189.54,189.54,85.03,189.54,189.54-85.03,189.54-189.54,189.54ZM387,205.46c-100.1,0-181.54,81.44-181.54,181.54s81.44,181.54,181.54,181.54,181.54-81.44,181.54-181.54-81.44-181.54-181.54-181.54Z"/><path class="cls-1" d="M676.53,377.04s-.98,6.98-5.54,7.46H103.01c-4.55-.48-5.54-7.46-5.54-7.46h-1v19.91h1s.98-6.97,5.53-7.46h567.99c4.55.48,5.53,7.46,5.53,7.46h1v-19.91h-1Z"/><path class="cls-1" d="M396.96,219.38v-1h-19.91v1s6.98.98,7.46,5.52v324.19c-.48,4.54-7.46,5.52-7.46,5.52v1h19.91v-1s-6.97-.98-7.46-5.52V224.9c.48-4.54,7.46-5.52,7.46-5.52Z"/><path class="cls-1" d="M679.36,434.02c2.53,3.94,4.01,8.63,4.01,13.67,0,13.99-11.34,25.33-25.33,25.33s-25.33-11.34-25.33-25.33c0-5.03,1.47-9.72,4.01-13.67-4.08,4.84-6.54,11.09-6.54,17.92,0,15.39,12.47,27.86,27.86,27.86,15.39,0,27.86-12.47,27.86-27.86,0-6.83-2.46-13.08-6.54-17.92Z"/><path class="cls-1" d="M183.13,287.12v-1h-19.92v1s6.97.98,7.46,5.53v188.69c-.49,4.55-7.46,5.53-7.46,5.53v1h19.92v-1s-6.98-.99-7.46-5.54v-188.67c.48-4.55,7.46-5.54,7.46-5.54Z"/><path class="cls-1" d="M610.79,287.12v-1h-19.91v1s6.97.98,7.46,5.53v188.68c-.48,4.55-7.46,5.53-7.46,5.53v1h19.91v-1s-6.98-.98-7.46-5.54v-188.68c.48-4.55,7.46-5.54,7.46-5.54Z"/><path class="cls-1" d="M373.69,697.91c-.49-2.63-5.06-3.2-5.06-3.2v-1.76h13.57v1.76s-4.58.57-5.06,3.2v40.13c.49,2.63,5.06,3.2,5.06,3.2v1.76h-13.57v-1.76s4.58-.57,5.06-3.2v-40.12Z"/><path class="cls-1" d="M396.87,697.91c-.49-2.63-5.06-3.2-5.06-3.2v-1.76h13.57v1.76s-4.58.57-5.06,3.2v40.13c.49,2.63,5.06,3.2,5.06,3.2v1.76h-13.57v-1.76s4.58-.57,5.06-3.2v-40.12Z"/><path class="cls-1" d="M406.86,674.19c2.63-.49,3.2-5.06,3.2-5.06h1.76v13.57h-1.76s-.57-4.58-3.2-5.06h-40.13c-2.63.49-3.2,5.06-3.2,5.06h-1.76v-13.57h1.76s.57,4.58,3.2,5.06h40.12Z"/><path class="cls-1" d="M299.99,621.78c-3.63-.18-7.26-.23-10.89-.17-.86.02-1.7.68-1.66,1.5.04.8.73,1.52,1.66,1.5,3.63-.07,7.27-.01,10.89.17.87.04,1.69-.72,1.66-1.5-.04-.85-.73-1.45-1.66-1.5Z"/><path class="cls-1" d="M287.74,626.33c-.84.35-1.83.37-2.71.15-1.14-.29-2.03-1.47-3.24-1.32-1.43.17-2.2,1.68-2.56,2.79-.13.41-.21.84-.28,1.26-2.49-1.32-4.48-3.34-5.71-5.72-.7-1.35-3.17-.68-3.08.76.07,1.12.46,2.09.96,3.1.36.74.89,1.55.89,2.38,0,.83-.61,1.61-.96,2.35-.49,1.02-.75,2.07-.37,3.16.62,1.84,3.82,1.06,3.19-.8-.23-.67.3-1.37.61-1.96.33-.64.62-1.31.76-2,1.44,1.03,3.06,1.88,4.8,2.48,1.03.35,2.09-.55,2.1-1.45,0-.85-.05-1.99.31-2.9,2.14,1.1,4.57,1.31,6.99.3.81-.34,1.01-1.4.59-2.05-.49-.76-1.45-.88-2.26-.54Z"/><path class="cls-1" d="M265.54,623.36c-.66-.4-1.52-.74-2.31-1.14,4.56.11,9.04-.7,13.27-2.43,1.94-.79.26-3.38-1.67-2.59-4.62,1.89-9.84,2.52-14.85,1.79-1.3-.19-2.26.65-2.04,1.85.51,2.68,3.29,3.66,5.55,4.91.24.13.48.26.7.42.09.07.17.15.26.23-.25.04-.51.09-.56.1-.43.08-.87.13-1.31.17-1.69.16-3.39.11-5.08.08-1.67-.03-3.35-.06-5.02-.09-1.57-.03-3.47.21-5-.11-.71-.15-.72-.61-.73-1.2,0-.04.02-.22.03-.39.2,0,.4-.02.6-.02,1.76-.06,3.52,0,5.27.13,2.12.16,2.11-2.84,0-3-1.32-.1-2.63-.16-3.95-.15-1.08,0-2.37-.1-3.41.21-.34.1-.6.26-.83.45-.14-.03-.29-.06-.46-.05-1.86.01-3.48-.43-5.06-1.31-1.07-.6-2.12-1.19-3.33-1.35,3.3.02,6.6.05,9.9.12,2.13.05,2.13-2.95,0-3-9.01-.2-18.03-.18-27.05.05-.92.02-1.44.6-1.57,1.24-.08.01-.17.02-.25.05-3.16,1.13-6.39,2.42-9.23,4.12-1.11.66-1.9,1.58-1.54,2.85.37,1.33,1.77,2.29,2.85,3.17,2.23,1.83,4.81,3.57,7.85,4.03,1.14.17,2.52.29,3.57-.25.57-.3,1.01-.8,1.23-1.36.29-.75-.1-1.46.09-2.16,0-.03.02-.05.03-.08.02.02.04.05.06.08,1.94,2.36,5.27,4.25,8.31,5.2,3.09.97,6.44.4,8.47-2.02,1.29-1.54-1.58-3.03-2.86-1.51-2.39,2.85-7.93-.61-9.96-2.21-.27-.21-.66-.55-1.04-.94,1.25-.17,2.51-.21,3.71-.61,1.05-.35,2.23-.94,2.74-1.89.65-1.23-.26-2.59-1.46-3.22-2.06-1.08-5.37-.67-7.34.4-1.61.88-2.14,2.23-1.99,3.63-.49.32-.92.7-1.25,1.14-.45.6-.7,1.29-.73,2.02-.01.26-.02.61.03.9-.18,0-.35,0-.53-.01-1.95-.15-3.73-1.14-5.23-2.21-.88-.63-1.7-1.32-2.5-2.03-.15-.13-.3-.3-.48-.42-.03-.02-.04-.03-.06-.04.41-.18.84-.5,1.19-.68,1.59-.82,3.23-1.57,4.91-2.24-.04,1.32-.21,2.62-.57,3.92-.51,1.87,2.68,2.67,3.19.8.6-2.2.82-4.43.64-6.69,5.24-.13,10.47-.19,15.71-.17-.81.11-1.63.63-1.57,1.49.27,3.41,2.47,6.11,5.34,8.2,2.88,2.09,6.1,4.16,9.43,5.61,3.3,1.44,7.25,2.28,10.82,1.15,3.01-.95,5.55-3.21,6.1-6.12.05-.25.03-.49-.04-.7,1.4-.21,2.79-.64,3.37-1.74.94-1.8-.87-3.46-2.4-4.38ZM226.72,623.93c-.32.08-.65.14-.96.18-.45.07-.9.11-1.35.15.56-.19,1.22-.28,1.79-.31.17-.01.35-.02.53-.02ZM256.78,633.63c-3,.64-6.12-.36-8.72-1.68-2.52-1.27-4.97-2.8-7.26-4.39-1.58-1.09-3.12-2.45-3.95-4.09.72.39,1.41.86,2.09,1.13,1.43.57,2.95.85,4.5.9.02.34.06.68.12.99.37,1.85,1.88,2.91,3.89,3.07,2.45.2,4.96.11,7.42.15,2.14.04,4.29.13,6.43.04-.55,1.99-2.31,3.41-4.53,3.88Z"/><path class="cls-1" d="M256.04,625.12c2.13,0,2.13-3,0-3s-2.13,3,0,3Z"/><path class="cls-1" d="M207.71,629.17c-3.16-.49-6.28-1.14-9.36-1.91.24-1,.3-2.04.33-3.1.03-1.42,0-2.85.96-4.04.73-.91-.25-2.32-1.43-2.26-2.76.15-5.5.54-8.17,1.2-2.05.51-1.18,3.4.88,2.89,1.56-.38,3.13-.66,4.73-.86-.16.71-.23,1.44-.25,2.16-.04.91.02,1.89-.12,2.82-1.39.08-2.8-.13-4.16-.39-.93-.18-1.86-.39-2.79-.57-.97-.19-2.04-.44-3.04-.44-1.19,0-2.17.69-2.39,1.76-.19.93-.26,1.91-.35,2.85-.18,1.85-.27,3.71-.28,5.56,0,1.93,3.3,1.93,3.31,0,0-1.67.08-3.33.23-5,.06-.7.14-1.39.23-2.08.2.03.4.06.6.09,2.76.48,5.46,1.2,8.24,1.19.2.31.51.56.96.68,2.57.69,5.17,1.28,7.79,1.77.19.18.43.32.71.37.97.18,1.95.27,2.95.24.82-.02,1.53-.55,1.63-1.3.09-.68-.36-1.52-1.19-1.65ZM186.09,627.16s0-.03.01,0c0,0,0,0-.01,0Z"/><path class="cls-1" d="M182.23,617.6c-7.38-.04-14.77-.09-22.15-.13-1.71,0-2.17,2-.84,2.8,4.39,2.62,9.28,5.61,10.2,10.67.26,1.45,2.89,1.41,3.19,0,.8-3.78,5.62-5.42,8.18-8.09.74-.78.42-1.74-.25-2.25.56,0,1.11,0,1.67,0,2.13.01,2.13-2.99,0-3ZM178.48,620.72c-2.09,2.19-5.14,3.68-7.15,5.89-1.38-2.42-3.57-4.4-5.99-6.11,4.44.03,8.87.05,13.31.08-.06.05-.11.09-.17.14Z"/><path class="cls-1" d="M162.7,623.99c-.91.04-1.64.66-1.66,1.5,0,.48-.03.96-.07,1.44-.02.24-.05.48-.08.72-.01.09-.02.18-.04.28,0,.05-.02.1-.02.15-.16.95-.39,1.89-.68,2.81-.24.75.29,1.67,1.16,1.85.88.18,1.78-.24,2.04-1.05.64-2,.98-4.1,1.01-6.18.01-.78-.77-1.54-1.66-1.5Z"/><path class="cls-1" d="M155.27,615.03c-.79-.2-1.89.24-2.04,1.05-.88,4.82-1.54,9.67-1.96,14.54-.07.81.81,1.5,1.66,1.5.95,0,1.59-.69,1.66-1.5.4-4.6,1.01-9.18,1.84-13.74.15-.8-.23-1.61-1.16-1.85Z"/><path class="cls-1" d="M147.49,626.71c-.61-.3-1.22-.6-1.82-.9.15-.83-.38-1.78-1.57-1.79-3.23-.04-6.51-.22-9.74-.12-.81.03-1.54.25-2.04.85-.47.57-.56,1.3-.68,1.98-.25,1.48-.34,2.97-.24,4.47.06.89,1.02,1.81,2.1,1.45,4.62-1.58,9.48-2.36,14.42-2.29.97.01,2.02-.99,1.6-1.9-.43-.92-1.08-1.3-2.01-1.76ZM142.43,627c.03.21.1.41.25.6-2.72.27-5.4.77-8.01,1.52.02-.49.06-.99.13-1.47.03-.2.07-.41.11-.61,0-.04.02-.08.03-.12.03,0,.07,0,.09,0,.34,0,.68,0,1.02.01,2.13.03,4.25.05,6.38.08Z"/><path class="cls-1" d="M133.21,622.12c4.26.05,8.54.09,12.7,1.02,1.04.23,2.09-.45,2.1-1.45,0-1.29,0-2.57.01-3.86,0-1.93-3.3-1.93-3.31,0,0,.67,0,1.35,0,2.02-3.78-.62-7.65-.69-11.49-.73-2.13-.02-2.13,2.98,0,3Z"/><path class="cls-1" d="M470.29,621.78c-3.63-.18-7.26-.23-10.89-.17-.86.02-1.7.68-1.66,1.5.04.8.73,1.52,1.66,1.5,3.63-.07,7.27-.01,10.89.17.87.04,1.69-.72,1.66-1.5-.04-.85-.73-1.45-1.66-1.5Z"/><path class="cls-1" d="M458.04,626.33c-.84.35-1.83.37-2.71.15-1.14-.29-2.03-1.47-3.24-1.32-1.43.17-2.2,1.68-2.56,2.79-.13.41-.21.84-.28,1.26-2.49-1.32-4.48-3.34-5.71-5.72-.7-1.35-3.17-.68-3.08.76.07,1.12.46,2.09.96,3.1.36.74.89,1.55.89,2.38,0,.83-.61,1.61-.96,2.35-.49,1.02-.75,2.07-.37,3.16.62,1.84,3.82,1.06,3.19-.8-.23-.67.3-1.37.61-1.96.33-.64.62-1.31.75-2,1.44,1.03,3.06,1.88,4.8,2.48,1.03.35,2.09-.55,2.1-1.45,0-.85-.05-1.99.31-2.9,2.14,1.1,4.57,1.31,6.99.3.81-.34,1.01-1.4.59-2.05-.49-.76-1.45-.88-2.26-.54Z"/><path class="cls-1" d="M435.84,623.36c-.66-.4-1.52-.74-2.31-1.14,4.56.11,9.04-.7,13.27-2.43,1.94-.79.26-3.38-1.67-2.59-4.62,1.89-9.84,2.52-14.85,1.79-1.3-.19-2.26.65-2.04,1.85.51,2.68,3.29,3.66,5.55,4.91.24.13.48.26.7.42.09.07.17.15.26.23-.25.04-.51.09-.56.1-.43.08-.87.13-1.31.17-1.69.16-3.39.11-5.08.08-1.67-.03-3.35-.06-5.02-.09-1.57-.03-3.47.21-5-.11-.71-.15-.72-.61-.73-1.2,0-.04.02-.22.03-.39.2,0,.4-.02.6-.02,1.76-.06,3.52,0,5.27.13,2.12.16,2.11-2.84,0-3-1.32-.1-2.63-.16-3.95-.15-1.08,0-2.37-.1-3.41.21-.34.1-.6.26-.83.45-.14-.03-.29-.06-.46-.05-1.86.01-3.48-.43-5.06-1.31-1.07-.6-2.12-1.19-3.33-1.35,3.3.02,6.6.05,9.9.12,2.13.05,2.13-2.95,0-3-9.01-.2-18.03-.18-27.05.05-.92.02-1.44.6-1.57,1.24-.08.01-.17.02-.25.05-3.16,1.13-6.39,2.42-9.23,4.12-1.11.66-1.9,1.58-1.54,2.85.37,1.33,1.77,2.29,2.85,3.17,2.23,1.83,4.81,3.57,7.85,4.03,1.14.17,2.52.29,3.57-.25.57-.3,1.01-.8,1.23-1.36.29-.75-.1-1.46.09-2.16,0-.03.02-.05.03-.08.02.02.04.05.06.08,1.94,2.36,5.27,4.25,8.31,5.2,3.09.97,6.44.4,8.47-2.02,1.29-1.54-1.58-3.03-2.86-1.51-2.39,2.85-7.93-.61-9.96-2.21-.27-.21-.66-.55-1.04-.94,1.25-.17,2.51-.21,3.71-.61,1.05-.35,2.23-.94,2.74-1.89.65-1.23-.26-2.59-1.46-3.22-2.06-1.08-5.37-.67-7.34.4-1.61.88-2.14,2.23-1.99,3.63-.49.32-.92.7-1.25,1.14-.45.6-.7,1.29-.73,2.02-.01.26-.02.61.03.9-.18,0-.35,0-.53-.01-1.95-.15-3.73-1.14-5.23-2.21-.88-.63-1.7-1.32-2.5-2.03-.15-.13-.3-.3-.48-.42-.03-.02-.04-.03-.06-.04.41-.18.84-.5,1.19-.68,1.59-.82,3.23-1.57,4.91-2.24-.04,1.32-.21,2.62-.57,3.92-.51,1.87,2.68,2.67,3.19.8.6-2.2.82-4.43.64-6.69,5.24-.13,10.47-.19,15.71-.17-.81.11-1.63.63-1.57,1.49.27,3.41,2.47,6.11,5.34,8.2,2.88,2.09,6.1,4.16,9.43,5.61,3.3,1.44,7.25,2.28,10.82,1.15,3.01-.95,5.55-3.21,6.1-6.12.05-.25.03-.49-.04-.7,1.4-.21,2.79-.64,3.37-1.74.94-1.8-.87-3.46-2.4-4.38ZM397.02,623.93c-.32.08-.65.14-.96.18-.45.07-.9.11-1.35.15.56-.19,1.22-.28,1.79-.31.17-.01.35-.02.53-.02ZM427.08,633.63c-3,.64-6.12-.36-8.72-1.68-2.52-1.27-4.97-2.8-7.26-4.39-1.58-1.09-3.12-2.45-3.95-4.09.72.39,1.41.86,2.09,1.13,1.43.57,2.95.85,4.5.9.02.34.06.68.12.99.37,1.85,1.88,2.91,3.89,3.07,2.45.2,4.96.11,7.42.15,2.14.04,4.29.13,6.43.04-.55,1.99-2.31,3.41-4.53,3.88Z"/><path class="cls-1" d="M426.34,625.12c2.13,0,2.13-3,0-3s-2.13,3,0,3Z"/><path class="cls-1" d="M378.01,629.17c-3.16-.49-6.28-1.14-9.36-1.91.24-1,.3-2.04.33-3.1.03-1.42,0-2.85.96-4.04.73-.91-.25-2.32-1.43-2.26-2.76.15-5.5.54-8.17,1.2-2.05.51-1.18,3.4.88,2.89,1.56-.38,3.13-.66,4.73-.86-.16.71-.23,1.44-.25,2.16-.04.91.02,1.89-.12,2.82-1.39.08-2.8-.13-4.16-.39-.93-.18-1.86-.39-2.79-.57-.97-.19-2.04-.44-3.04-.44-1.19,0-2.17.69-2.39,1.76-.19.93-.26,1.91-.35,2.85-.18,1.85-.27,3.71-.28,5.56,0,1.93,3.3,1.93,3.31,0,0-1.67.08-3.33.23-5,.06-.7.14-1.39.23-2.08.2.03.4.06.6.09,2.76.48,5.46,1.2,8.24,1.19.2.31.51.56.96.68,2.57.69,5.17,1.28,7.79,1.77.19.18.43.32.71.37.97.18,1.95.27,2.95.24.82-.02,1.53-.55,1.63-1.3.09-.68-.36-1.52-1.19-1.65ZM356.39,627.16s0-.03.01,0c0,0,0,0-.01,0Z"/><path class="cls-1" d="M352.53,617.6c-7.38-.04-14.77-.09-22.15-.13-1.71,0-2.17,2-.84,2.8,4.39,2.62,9.28,5.61,10.2,10.67.26,1.45,2.89,1.41,3.19,0,.8-3.78,5.62-5.42,8.18-8.09.74-.78.42-1.74-.25-2.25.56,0,1.11,0,1.67,0,2.13.01,2.13-2.99,0-3ZM348.77,620.72c-2.09,2.19-5.14,3.68-7.15,5.89-1.38-2.42-3.57-4.4-5.99-6.11,4.44.03,8.87.05,13.31.08-.06.05-.11.09-.17.14Z"/><path class="cls-1" d="M333,623.99c-.91.04-1.64.66-1.66,1.5,0,.48-.03.96-.07,1.44-.02.24-.05.48-.08.72-.01.09-.02.18-.04.28,0,.05-.02.1-.02.15-.16.95-.39,1.89-.68,2.81-.24.75.29,1.67,1.16,1.85.88.18,1.78-.24,2.04-1.05.64-2,.98-4.1,1.01-6.18.01-.78-.77-1.54-1.66-1.5Z"/><path class="cls-1" d="M325.57,615.03c-.79-.2-1.89.24-2.04,1.05-.88,4.82-1.54,9.67-1.96,14.54-.07.81.81,1.5,1.66,1.5.95,0,1.59-.69,1.66-1.5.4-4.6,1.01-9.18,1.84-13.74.15-.8-.23-1.61-1.16-1.85Z"/><path class="cls-1" d="M317.79,626.71c-.61-.3-1.22-.6-1.82-.9.15-.83-.38-1.78-1.57-1.79-3.24-.04-6.51-.22-9.74-.12-.81.03-1.54.25-2.04.85-.47.57-.56,1.3-.68,1.98-.25,1.48-.34,2.97-.24,4.47.06.89,1.02,1.81,2.1,1.45,4.62-1.58,9.48-2.36,14.42-2.29.97.01,2.02-.99,1.6-1.9-.43-.92-1.08-1.3-2.01-1.76ZM312.73,627c.03.21.1.41.25.6-2.72.27-5.4.77-8.01,1.52.02-.49.06-.99.13-1.47.03-.2.07-.41.11-.61,0-.04.02-.08.03-.12.03,0,.07,0,.09,0,.34,0,.68,0,1.02.01,2.13.03,4.25.05,6.38.08Z"/><path class="cls-1" d="M303.5,622.12c4.26.05,8.54.09,12.7,1.02,1.04.23,2.09-.45,2.1-1.45,0-1.29,0-2.57.01-3.86,0-1.93-3.3-1.93-3.31,0,0,.67,0,1.35,0,2.02-3.78-.62-7.65-.69-11.49-.73-2.13-.02-2.13,2.98,0,3Z"/><path class="cls-1" d="M640.59,621.78c-3.63-.18-7.26-.23-10.89-.17-.86.02-1.7.68-1.66,1.5.04.8.73,1.52,1.66,1.5,3.63-.07,7.27-.01,10.89.17.87.04,1.69-.72,1.66-1.5-.04-.85-.73-1.45-1.66-1.5Z"/><path class="cls-1" d="M628.34,626.33c-.84.35-1.83.37-2.71.15-1.14-.29-2.03-1.47-3.24-1.32-1.43.17-2.2,1.68-2.56,2.79-.13.41-.21.84-.28,1.26-2.49-1.32-4.48-3.34-5.71-5.72-.7-1.35-3.17-.68-3.08.76.07,1.12.46,2.09.96,3.1.36.74.89,1.55.89,2.38,0,.83-.61,1.61-.96,2.35-.49,1.02-.75,2.07-.37,3.16.62,1.84,3.82,1.06,3.19-.8-.23-.67.3-1.37.61-1.96.33-.64.62-1.31.75-2,1.44,1.03,3.06,1.88,4.8,2.48,1.03.35,2.09-.55,2.1-1.45,0-.85-.05-1.99.31-2.9,2.14,1.1,4.57,1.31,6.99.3.81-.34,1.01-1.4.59-2.05-.49-.76-1.45-.88-2.26-.54Z"/><path class="cls-1" d="M606.13,623.36c-.66-.4-1.52-.74-2.31-1.14,4.56.11,9.04-.7,13.27-2.43,1.94-.79.26-3.38-1.67-2.59-4.62,1.89-9.84,2.52-14.85,1.79-1.3-.19-2.26.65-2.04,1.85.51,2.68,3.29,3.66,5.55,4.91.24.13.48.26.7.42.09.07.17.15.26.23-.25.04-.51.09-.56.1-.43.08-.87.13-1.31.17-1.69.16-3.39.11-5.08.08-1.67-.03-3.35-.06-5.02-.09-1.57-.03-3.47.21-5-.11-.71-.15-.72-.61-.73-1.2,0-.04.02-.22.03-.39.2,0,.4-.02.6-.02,1.76-.06,3.52,0,5.27.13,2.12.16,2.11-2.84,0-3-1.32-.1-2.63-.16-3.95-.15-1.08,0-2.37-.1-3.41.21-.34.1-.6.26-.83.45-.14-.03-.29-.06-.46-.05-1.86.01-3.48-.43-5.06-1.31-1.07-.6-2.12-1.19-3.33-1.35,3.3.02,6.6.05,9.9.12,2.13.05,2.13-2.95,0-3-9.01-.2-18.03-.18-27.05.05-.92.02-1.44.6-1.57,1.24-.08.01-.17.02-.25.05-3.16,1.13-6.39,2.42-9.23,4.12-1.11.66-1.9,1.58-1.54,2.85.37,1.33,1.77,2.29,2.85,3.17,2.23,1.83,4.81,3.57,7.85,4.03,1.14.17,2.52.29,3.57-.25.57-.3,1.01-.8,1.23-1.36.29-.75-.1-1.46.09-2.16,0-.03.02-.05.03-.08.02.02.04.05.06.08,1.94,2.36,5.27,4.25,8.31,5.2,3.09.97,6.44.4,8.47-2.02,1.29-1.54-1.58-3.03-2.86-1.51-2.39,2.85-7.93-.61-9.96-2.21-.27-.21-.66-.55-1.04-.94,1.25-.17,2.51-.21,3.71-.61,1.05-.35,2.23-.94,2.74-1.89.65-1.23-.26-2.59-1.46-3.22-2.06-1.08-5.37-.67-7.34.4-1.61.88-2.14,2.23-1.99,3.63-.49.32-.92.7-1.25,1.14-.45.6-.7,1.29-.73,2.02-.01.26-.02.61.03.9-.18,0-.35,0-.53-.01-1.95-.15-3.73-1.14-5.23-2.21-.88-.63-1.7-1.32-2.5-2.03-.15-.13-.3-.3-.48-.42-.03-.02-.04-.03-.06-.04.41-.18.84-.5,1.19-.68,1.59-.82,3.23-1.57,4.91-2.24-.04,1.32-.21,2.62-.57,3.92-.51,1.87,2.68,2.67,3.19.8.6-2.2.82-4.43.64-6.69,5.24-.13,10.47-.19,15.71-.17-.81.11-1.63.63-1.57,1.49.27,3.41,2.47,6.11,5.34,8.2,2.88,2.09,6.1,4.16,9.43,5.61,3.3,1.44,7.25,2.28,10.82,1.15,3.01-.95,5.55-3.21,6.1-6.12.05-.25.03-.49-.04-.7,1.4-.21,2.79-.64,3.36-1.74.94-1.8-.87-3.46-2.4-4.38ZM567.31,623.93c-.32.08-.65.14-.96.18-.45.07-.9.11-1.35.15.56-.19,1.22-.28,1.79-.31.17-.01.35-.02.53-.02ZM597.37,633.63c-3,.64-6.12-.36-8.72-1.68-2.52-1.27-4.97-2.8-7.26-4.39-1.58-1.09-3.12-2.45-3.95-4.09.72.39,1.41.86,2.09,1.13,1.43.57,2.95.85,4.5.9.02.34.06.68.12.99.37,1.85,1.88,2.91,3.89,3.07,2.45.2,4.96.11,7.42.15,2.14.04,4.29.13,6.43.04-.55,1.99-2.31,3.41-4.53,3.88Z"/><path class="cls-1" d="M596.64,625.12c2.13,0,2.13-3,0-3s-2.13,3,0,3Z"/><path class="cls-1" d="M548.31,629.17c-3.16-.49-6.28-1.14-9.36-1.91.24-1,.3-2.04.33-3.1.03-1.42,0-2.85.96-4.04.73-.91-.25-2.32-1.43-2.26-2.76.15-5.5.54-8.17,1.2-2.05.51-1.18,3.4.88,2.89,1.56-.38,3.13-.66,4.73-.86-.16.71-.23,1.44-.25,2.16-.04.91.02,1.89-.12,2.82-1.39.08-2.8-.13-4.16-.39-.93-.18-1.86-.39-2.79-.57-.97-.19-2.04-.44-3.04-.44-1.19,0-2.17.69-2.39,1.76-.19.93-.26,1.91-.35,2.85-.18,1.85-.27,3.71-.28,5.56,0,1.93,3.3,1.93,3.31,0,0-1.67.08-3.33.23-5,.06-.7.14-1.39.23-2.08.2.03.4.06.6.09,2.76.48,5.46,1.2,8.24,1.19.2.31.51.56.96.68,2.57.69,5.17,1.28,7.79,1.77.19.18.43.32.71.37.97.18,1.95.27,2.95.24.82-.02,1.53-.55,1.63-1.3.09-.68-.36-1.52-1.19-1.65ZM526.68,627.16s0-.03.01,0c0,0,0,0-.01,0Z"/><path class="cls-1" d="M522.82,617.6c-7.38-.04-14.77-.09-22.15-.13-1.71,0-2.17,2-.84,2.8,4.39,2.62,9.28,5.61,10.2,10.67.26,1.45,2.89,1.41,3.19,0,.8-3.78,5.62-5.42,8.18-8.09.74-.78.42-1.74-.25-2.25.56,0,1.11,0,1.67,0,2.13.01,2.13-2.99,0-3ZM519.07,620.72c-2.09,2.19-5.14,3.68-7.15,5.89-1.38-2.42-3.57-4.4-5.99-6.11,4.44.03,8.87.05,13.31.08-.06.05-.11.09-.17.14Z"/><path class="cls-1" d="M503.3,623.99c-.91.04-1.64.66-1.66,1.5,0,.48-.03.96-.07,1.44-.02.24-.05.48-.08.72-.01.09-.02.18-.04.28,0,.05-.02.1-.02.15-.16.95-.39,1.89-.68,2.81-.24.75.29,1.67,1.16,1.85.88.18,1.78-.24,2.04-1.05.64-2,.98-4.1,1.01-6.18.01-.78-.77-1.54-1.66-1.5Z"/><path class="cls-1" d="M495.86,615.03c-.79-.2-1.89.24-2.04,1.05-.88,4.82-1.54,9.67-1.96,14.54-.07.81.81,1.5,1.66,1.5.95,0,1.59-.69,1.66-1.5.4-4.6,1.01-9.18,1.84-13.74.15-.8-.23-1.61-1.16-1.85Z"/><path class="cls-1" d="M488.09,626.71c-.61-.3-1.22-.6-1.82-.9.15-.83-.38-1.78-1.57-1.79-3.24-.04-6.51-.22-9.74-.12-.81.03-1.54.25-2.04.85-.47.57-.56,1.3-.68,1.98-.25,1.48-.34,2.97-.24,4.47.06.89,1.02,1.81,2.1,1.45,4.62-1.58,9.48-2.36,14.42-2.29.97.01,2.02-.99,1.6-1.9-.43-.92-1.08-1.3-2.01-1.76ZM483.03,627c.03.21.1.41.25.6-2.72.27-5.4.77-8.01,1.52.02-.49.06-.99.13-1.47.03-.2.07-.41.11-.61,0-.04.02-.08.03-.12.03,0,.07,0,.09,0,.34,0,.68,0,1.02.01,2.13.03,4.25.05,6.38.08Z"/><path class="cls-1" d="M473.8,622.12c4.26.05,8.54.09,12.7,1.02,1.04.23,2.09-.45,2.1-1.45,0-1.29,0-2.57.01-3.86,0-1.93-3.3-1.93-3.31,0,0,.67,0,1.35,0,2.02-3.78-.62-7.65-.69-11.49-.73-2.13-.02-2.13,2.98,0,3Z"/><polygon class="cls-1" points="541 670.04 541 672.91 432.98 672.91 432.98 678.91 541 678.91 541 681.79 544.74 681.79 544.74 670.04 541 670.04"/><polygon class="cls-1" points="341.02 672.91 233 672.91 233 670.04 229.26 670.04 229.26 681.79 233 681.79 233 678.91 341.02 678.91 341.02 672.91"/><path class="cls-1" d="M680.16,176.75s-18-4-18-27.49c0-.08,0-.15,0-.24v-30.28h-8v50.01H119.84v-50.01h-8v30.28c0,.08,0,.15,0,.24,0,23.49-18,27.49-18,27.49h293.16s293.16,0,293.16,0Z"/><path class="cls-1" d="M680.16,597.25s-18,4-18,27.49c0,.08,0,.15,0,.24v30.28h-8v-50.01H119.84v50.01h-8v-30.28c0-.08,0-.15,0-.24,0-23.49-18-27.49-18-27.49h293.16s293.16,0,293.16,0Z"/><path class="cls-1" d="M373.69,76.09c-.49,2.63-5.06,3.2-5.06,3.2v1.76h13.57v-1.76s-4.58-.57-5.06-3.2v-40.13c.49-2.63,5.06-3.2,5.06-3.2v-1.76h-13.57v1.76s4.58.57,5.06,3.2v40.12Z"/><path class="cls-1" d="M396.87,76.09c-.49,2.63-5.06,3.2-5.06,3.2v1.76h13.57v-1.76s-4.58-.57-5.06-3.2v-40.13c.49-2.63,5.06-3.2,5.06-3.2v-1.76h-13.57v1.76s4.58.57,5.06,3.2v40.12Z"/><path class="cls-1" d="M406.86,99.81c2.63.49,3.2,5.06,3.2,5.06h1.76v-13.57h-1.76s-.57,4.58-3.2,5.06h-40.13c-2.63-.49-3.2-5.06-3.2-5.06h-1.76v13.57h1.76s.57-4.58,3.2-5.06h40.12Z"/><path class="cls-1" d="M724.34,138.02c0-21.19,19.85-43.98,19.85-43.98,0,0-22.79,19.85-43.98,19.85h-262.85c.1-.37.36-1.41.36-1.41.92-3.88,1.43-7.92,1.43-12.08,0-28.8-23.34-52.14-52.14-52.14-28.8,0-52.14,23.34-52.14,52.14,0,4.16.5,8.2,1.43,12.08,0,0,.26,1.04.36,1.41H73.8c-21.19,0-43.98-19.85-43.98-19.85,0,0,19.85,22.79,19.85,43.98,0-3.98,0,501.95,0,497.96,0,21.19-19.85,43.98-19.85,43.98,0,0,22.79-19.85,43.98-19.85h262.85c-.1.37-.36,1.41-.36,1.41-.92,3.88-1.43,7.92-1.43,12.08,0,28.8,23.34,52.14,52.14,52.14s52.14-23.34,52.14-52.14c0-4.16-.5-8.2-1.43-12.08,0,0-.26-1.04-.36-1.41h262.85c21.19,0,43.98,19.85,43.98,19.85,0,0-19.85-22.79-19.85-43.98,0,3.98,0-501.95,0-497.96ZM422.48,650.12s7.62,8.91,8.59,20.85c.64,7.83-1.88,17.98-7.64,24.23-9.05,9.81-22.02,15.96-36.42,15.96-14.4,0-27.37-6.15-36.42-15.96-5.76-6.25-8.28-16.39-7.64-24.23.97-11.94,8.59-20.85,8.59-20.85H59.66V123.88h291.86s-7.62-8.92-8.59-20.85c-.64-7.83,1.88-17.98,7.64-24.23,9.05-9.81,22.02-15.96,36.42-15.96,14.4,0,27.37,6.15,36.42,15.96,5.76,6.25,8.28,16.39,7.64,24.23-.97,11.94-8.59,20.85-8.59,20.85h291.86v526.24h-291.86Z"/><path class="cls-1" d="M299.99,143.97c-3.63-.18-7.26-.23-10.89-.17-.86.02-1.7.68-1.66,1.5.04.8.73,1.52,1.66,1.5,3.63-.07,7.27-.01,10.89.17.87.04,1.69-.72,1.66-1.5-.04-.85-.73-1.45-1.66-1.5Z"/><path class="cls-1" d="M287.74,148.52c-.84.35-1.83.37-2.71.15-1.14-.29-2.03-1.47-3.24-1.32-1.43.17-2.2,1.68-2.56,2.79-.13.41-.21.84-.28,1.26-2.49-1.32-4.48-3.34-5.71-5.72-.7-1.35-3.17-.68-3.08.76.07,1.12.46,2.09.96,3.1.36.74.89,1.55.89,2.38,0,.83-.61,1.61-.96,2.35-.49,1.02-.75,2.07-.37,3.16.62,1.84,3.82,1.06,3.19-.8-.23-.67.3-1.37.61-1.96.33-.64.62-1.31.76-2,1.44,1.03,3.06,1.88,4.8,2.48,1.03.35,2.09-.55,2.1-1.45,0-.85-.05-1.99.31-2.9,2.14,1.1,4.57,1.31,6.99.3.81-.34,1.01-1.4.59-2.05-.49-.76-1.45-.88-2.26-.54Z"/><path class="cls-1" d="M265.54,145.56c-.66-.4-1.52-.74-2.31-1.14,4.56.11,9.04-.7,13.27-2.43,1.94-.79.26-3.38-1.67-2.59-4.62,1.89-9.84,2.52-14.85,1.79-1.3-.19-2.26.65-2.04,1.85.51,2.68,3.29,3.66,5.55,4.91.24.13.48.26.7.42.09.07.17.15.26.23-.25.04-.51.09-.56.1-.43.08-.87.13-1.31.17-1.69.16-3.39.11-5.08.08-1.67-.03-3.35-.06-5.02-.09-1.57-.03-3.47.21-5-.11-.71-.15-.72-.61-.73-1.2,0-.04.02-.22.03-.39.2,0,.4-.02.6-.02,1.76-.06,3.52,0,5.27.13,2.12.16,2.11-2.84,0-3-1.32-.1-2.63-.16-3.95-.15-1.08,0-2.37-.1-3.41.21-.34.1-.6.26-.83.45-.14-.03-.29-.06-.46-.05-1.86.01-3.48-.43-5.06-1.31-1.07-.6-2.12-1.19-3.33-1.35,3.3.02,6.6.05,9.9.12,2.13.05,2.13-2.95,0-3-9.01-.2-18.03-.18-27.05.05-.92.02-1.44.6-1.57,1.24-.08.01-.17.02-.25.05-3.16,1.13-6.39,2.42-9.23,4.12-1.11.66-1.9,1.58-1.54,2.85.37,1.33,1.77,2.29,2.85,3.17,2.23,1.83,4.81,3.57,7.85,4.03,1.14.17,2.52.29,3.57-.25.57-.3,1.01-.8,1.23-1.36.29-.75-.1-1.46.09-2.16,0-.03.02-.05.03-.08.02.02.04.05.06.08,1.94,2.36,5.27,4.25,8.31,5.2,3.09.97,6.44.4,8.47-2.02,1.29-1.54-1.58-3.03-2.86-1.51-2.39,2.85-7.93-.61-9.96-2.21-.27-.21-.66-.55-1.04-.94,1.25-.17,2.51-.21,3.71-.61,1.05-.35,2.23-.94,2.74-1.89.65-1.23-.26-2.59-1.46-3.22-2.06-1.08-5.37-.67-7.34.4-1.61.88-2.14,2.23-1.99,3.63-.49.32-.92.7-1.25,1.14-.45.6-.7,1.29-.73,2.02-.01.26-.02.61.03.9-.18,0-.35,0-.53-.01-1.95-.15-3.73-1.14-5.23-2.21-.88-.63-1.7-1.32-2.5-2.03-.15-.13-.3-.3-.48-.42-.03-.02-.04-.03-.06-.04.41-.18.84-.5,1.19-.68,1.59-.82,3.23-1.57,4.91-2.24-.04,1.32-.21,2.62-.57,3.92-.51,1.87,2.68,2.67,3.19.8.6-2.2.82-4.43.64-6.69,5.24-.13,10.47-.19,15.71-.17-.81.11-1.63.63-1.57,1.49.27,3.41,2.47,6.11,5.34,8.2,2.88,2.09,6.1,4.16,9.43,5.61,3.3,1.44,7.25,2.28,10.82,1.15,3.01-.95,5.55-3.21,6.1-6.12.05-.25.03-.49-.04-.7,1.4-.21,2.79-.64,3.36-1.74.94-1.8-.87-3.46-2.4-4.38ZM226.72,146.12c-.32.08-.65.14-.96.18-.45.07-.9.11-1.35.15.56-.19,1.22-.28,1.79-.31.17-.01.35-.02.53-.02ZM256.78,155.83c-3,.64-6.12-.36-8.72-1.68-2.52-1.27-4.97-2.8-7.26-4.39-1.58-1.09-3.12-2.45-3.95-4.09.72.39,1.41.86,2.09,1.13,1.43.57,2.95.85,4.5.9.02.34.06.68.12.99.37,1.85,1.88,2.91,3.89,3.07,2.45.2,4.96.11,7.42.15,2.14.04,4.29.13,6.43.04-.55,1.99-2.31,3.41-4.53,3.88Z"/><path class="cls-1" d="M256.04,147.31c2.13,0,2.13-3,0-3s-2.13,3,0,3Z"/><path class="cls-1" d="M207.71,151.36c-3.16-.49-6.28-1.14-9.36-1.91.24-1,.3-2.04.33-3.1.03-1.42,0-2.85.96-4.04.73-.91-.25-2.32-1.43-2.26-2.76.15-5.5.54-8.17,1.2-2.05.51-1.18,3.4.88,2.89,1.56-.38,3.13-.66,4.73-.86-.16.71-.23,1.44-.25,2.16-.04.91.02,1.89-.12,2.82-1.39.08-2.8-.13-4.16-.39-.93-.18-1.86-.39-2.79-.57-.97-.19-2.04-.44-3.04-.44-1.19,0-2.17.69-2.39,1.76-.19.93-.26,1.91-.35,2.85-.18,1.85-.27,3.71-.28,5.56,0,1.93,3.3,1.93,3.31,0,0-1.67.08-3.33.23-5,.06-.7.14-1.39.23-2.08.2.03.4.06.6.09,2.76.48,5.46,1.2,8.24,1.19.19.31.51.56.96.68,2.57.69,5.17,1.28,7.79,1.77.19.18.43.32.71.37.97.18,1.95.27,2.95.24.82-.02,1.53-.55,1.63-1.3.09-.68-.36-1.52-1.19-1.65ZM186.09,149.35s0-.03.01,0c0,0,0,0-.01,0Z"/><path class="cls-1" d="M182.23,139.79c-7.38-.04-14.77-.09-22.15-.13-1.71,0-2.17,2-.84,2.8,4.39,2.62,9.28,5.61,10.2,10.67.26,1.45,2.89,1.41,3.19,0,.8-3.78,5.62-5.42,8.18-8.09.74-.78.42-1.74-.25-2.25.56,0,1.11,0,1.67,0,2.13.01,2.13-2.99,0-3ZM178.48,142.91c-2.09,2.19-5.14,3.68-7.15,5.89-1.38-2.42-3.57-4.4-5.99-6.11,4.44.03,8.87.05,13.31.08-.06.05-.11.09-.17.14Z"/><path class="cls-1" d="M162.7,146.18c-.91.04-1.64.66-1.66,1.5,0,.48-.03.96-.07,1.44-.02.24-.05.48-.08.72-.01.09-.02.18-.04.28,0,.05-.02.1-.02.15-.16.95-.39,1.89-.68,2.81-.24.75.29,1.67,1.16,1.85.88.18,1.78-.24,2.04-1.05.64-2,.98-4.1,1.01-6.18.01-.78-.77-1.54-1.66-1.5Z"/><path class="cls-1" d="M155.27,137.22c-.79-.2-1.89.24-2.04,1.05-.88,4.82-1.54,9.67-1.96,14.54-.07.81.81,1.5,1.66,1.5.95,0,1.59-.69,1.66-1.5.4-4.6,1.01-9.18,1.84-13.74.15-.8-.23-1.61-1.16-1.85Z"/><path class="cls-1" d="M147.49,148.91c-.61-.3-1.22-.6-1.82-.9.15-.83-.38-1.78-1.57-1.79-3.23-.04-6.51-.22-9.74-.12-.81.03-1.54.25-2.04.85-.47.57-.56,1.3-.68,1.98-.25,1.48-.34,2.97-.24,4.47.06.89,1.02,1.81,2.1,1.45,4.62-1.58,9.48-2.36,14.42-2.29.97.01,2.02-.99,1.6-1.9-.43-.92-1.08-1.3-2.01-1.76ZM142.43,149.2c.03.21.1.41.25.6-2.72.27-5.4.77-8.01,1.52.02-.49.06-.99.13-1.47.03-.2.07-.41.11-.61,0-.04.02-.08.03-.12.03,0,.07,0,.09,0,.34,0,.68,0,1.02.01,2.13.03,4.25.05,6.38.08Z"/><path class="cls-1" d="M133.21,144.31c4.26.05,8.54.09,12.7,1.02,1.04.23,2.09-.45,2.1-1.45,0-1.29,0-2.57.01-3.86,0-1.93-3.3-1.93-3.31,0,0,.67,0,1.35,0,2.02-3.78-.62-7.65-.69-11.49-.73-2.13-.02-2.13,2.98,0,3Z"/><path class="cls-1" d="M470.29,143.97c-3.63-.18-7.26-.23-10.89-.17-.86.02-1.7.68-1.66,1.5.04.8.73,1.52,1.66,1.5,3.63-.07,7.27-.01,10.89.17.87.04,1.69-.72,1.66-1.5-.04-.85-.73-1.45-1.66-1.5Z"/><path class="cls-1" d="M458.04,148.52c-.84.35-1.83.37-2.71.15-1.14-.29-2.03-1.47-3.24-1.32-1.43.17-2.2,1.68-2.56,2.79-.13.41-.21.84-.28,1.26-2.49-1.32-4.48-3.34-5.71-5.72-.7-1.35-3.17-.68-3.08.76.07,1.12.46,2.09.96,3.1.36.74.89,1.55.89,2.38,0,.83-.61,1.61-.96,2.35-.49,1.02-.75,2.07-.37,3.16.62,1.84,3.82,1.06,3.19-.8-.23-.67.3-1.37.61-1.96.33-.64.62-1.31.75-2,1.44,1.03,3.06,1.88,4.8,2.48,1.03.35,2.09-.55,2.1-1.45,0-.85-.05-1.99.31-2.9,2.14,1.1,4.57,1.31,6.99.3.81-.34,1.01-1.4.59-2.05-.49-.76-1.45-.88-2.26-.54Z"/><path class="cls-1" d="M435.84,145.56c-.66-.4-1.52-.74-2.31-1.14,4.56.11,9.04-.7,13.27-2.43,1.94-.79.26-3.38-1.67-2.59-4.62,1.89-9.84,2.52-14.85,1.79-1.3-.19-2.26.65-2.04,1.85.51,2.68,3.29,3.66,5.55,4.91.24.13.48.26.7.42.09.07.17.15.26.23-.25.04-.51.09-.56.1-.43.08-.87.13-1.31.17-1.69.16-3.39.11-5.08.08-1.67-.03-3.35-.06-5.02-.09-1.57-.03-3.47.21-5-.11-.71-.15-.72-.61-.73-1.2,0-.04.02-.22.03-.39.2,0,.4-.02.6-.02,1.76-.06,3.52,0,5.27.13,2.12.16,2.11-2.84,0-3-1.32-.1-2.63-.16-3.95-.15-1.08,0-2.37-.1-3.41.21-.34.1-.6.26-.83.45-.14-.03-.29-.06-.46-.05-1.86.01-3.48-.43-5.06-1.31-1.07-.6-2.12-1.19-3.33-1.35,3.3.02,6.6.05,9.9.12,2.13.05,2.13-2.95,0-3-9.01-.2-18.03-.18-27.05.05-.92.02-1.44.6-1.57,1.24-.08.01-.17.02-.25.05-3.16,1.13-6.39,2.42-9.23,4.12-1.11.66-1.9,1.58-1.54,2.85.37,1.33,1.77,2.29,2.85,3.17,2.23,1.83,4.81,3.57,7.85,4.03,1.14.17,2.52.29,3.57-.25.57-.3,1.01-.8,1.23-1.36.29-.75-.1-1.46.09-2.16,0-.03.02-.05.03-.08.02.02.04.05.06.08,1.94,2.36,5.27,4.25,8.31,5.2,3.09.97,6.44.4,8.47-2.02,1.29-1.54-1.58-3.03-2.86-1.51-2.39,2.85-7.93-.61-9.96-2.21-.27-.21-.66-.55-1.04-.94,1.25-.17,2.51-.21,3.71-.61,1.05-.35,2.23-.94,2.74-1.89.65-1.23-.26-2.59-1.46-3.22-2.06-1.08-5.37-.67-7.34.4-1.61.88-2.14,2.23-1.99,3.63-.49.32-.92.7-1.25,1.14-.45.6-.7,1.29-.73,2.02-.01.26-.02.61.03.9-.18,0-.35,0-.53-.01-1.95-.15-3.73-1.14-5.23-2.21-.88-.63-1.7-1.32-2.5-2.03-.15-.13-.3-.3-.48-.42-.03-.02-.04-.03-.06-.04.41-.18.84-.5,1.19-.68,1.59-.82,3.23-1.57,4.91-2.24-.04,1.32-.21,2.62-.57,3.92-.51,1.87,2.68,2.67,3.19.8.6-2.2.82-4.43.64-6.69,5.24-.13,10.47-.19,15.71-.17-.81.11-1.63.63-1.57,1.49.27,3.41,2.47,6.11,5.34,8.2,2.88,2.09,6.1,4.16,9.43,5.61,3.3,1.44,7.25,2.28,10.82,1.15,3.01-.95,5.55-3.21,6.1-6.12.05-.25.03-.49-.04-.7,1.4-.21,2.79-.64,3.36-1.74.94-1.8-.87-3.46-2.4-4.38ZM397.02,146.12c-.32.08-.65.14-.96.18-.45.07-.9.11-1.35.15.56-.19,1.22-.28,1.79-.31.17-.01.35-.02.53-.02ZM427.08,155.83c-3,.64-6.12-.36-8.72-1.68-2.52-1.27-4.97-2.8-7.26-4.39-1.58-1.09-3.12-2.45-3.95-4.09.72.39,1.41.86,2.09,1.13,1.43.57,2.95.85,4.5.9.02.34.06.68.12.99.37,1.85,1.88,2.91,3.89,3.07,2.45.2,4.96.11,7.42.15,2.14.04,4.29.13,6.43.04-.55,1.99-2.31,3.41-4.53,3.88Z"/><path class="cls-1" d="M426.34,147.31c2.13,0,2.13-3,0-3s-2.13,3,0,3Z"/><path class="cls-1" d="M378.01,151.36c-3.16-.49-6.28-1.14-9.36-1.91.24-1,.3-2.04.33-3.1.03-1.42,0-2.85.96-4.04.73-.91-.25-2.32-1.43-2.26-2.76.15-5.5.54-8.17,1.2-2.05.51-1.18,3.4.88,2.89,1.56-.38,3.13-.66,4.73-.86-.16.71-.23,1.44-.25,2.16-.04.91.02,1.89-.12,2.82-1.39.08-2.8-.13-4.16-.39-.93-.18-1.86-.39-2.79-.57-.97-.19-2.04-.44-3.04-.44-1.19,0-2.17.69-2.39,1.76-.19.93-.26,1.91-.35,2.85-.18,1.85-.27,3.71-.28,5.56,0,1.93,3.3,1.93,3.31,0,0-1.67.08-3.33.23-5,.06-.7.14-1.39.23-2.08.2.03.4.06.6.09,2.76.48,5.46,1.2,8.24,1.19.19.31.51.56.96.68,2.57.69,5.17,1.28,7.79,1.77.19.18.43.32.71.37.97.18,1.95.27,2.95.24.82-.02,1.53-.55,1.63-1.3.09-.68-.36-1.52-1.19-1.65ZM356.39,149.35s0-.03.01,0c0,0,0,0-.01,0Z"/><path class="cls-1" d="M352.53,139.79c-7.38-.04-14.77-.09-22.15-.13-1.71,0-2.17,2-.84,2.8,4.39,2.62,9.28,5.61,10.2,10.67.26,1.45,2.89,1.41,3.19,0,.8-3.78,5.62-5.42,8.18-8.09.74-.78.42-1.74-.25-2.25.56,0,1.11,0,1.67,0,2.13.01,2.13-2.99,0-3ZM348.77,142.91c-2.09,2.19-5.14,3.68-7.15,5.89-1.38-2.42-3.57-4.4-5.99-6.11,4.44.03,8.87.05,13.31.08-.06.05-.11.09-.17.14Z"/><path class="cls-1" d="M333,146.18c-.91.04-1.64.66-1.66,1.5,0,.48-.03.96-.07,1.44-.02.24-.05.48-.08.72-.01.09-.02.18-.04.28,0,.05-.02.1-.02.15-.16.95-.39,1.89-.68,2.81-.24.75.29,1.67,1.16,1.85.88.18,1.78-.24,2.04-1.05.64-2,.98-4.1,1.01-6.18.01-.78-.77-1.54-1.66-1.5Z"/><path class="cls-1" d="M325.57,137.22c-.79-.2-1.89.24-2.04,1.05-.88,4.82-1.54,9.67-1.96,14.54-.07.81.81,1.5,1.66,1.5.95,0,1.59-.69,1.66-1.5.4-4.6,1.01-9.18,1.84-13.74.15-.8-.23-1.61-1.16-1.85Z"/><path class="cls-1" d="M317.79,148.91c-.61-.3-1.22-.6-1.82-.9.15-.83-.38-1.78-1.57-1.79-3.24-.04-6.51-.22-9.74-.12-.81.03-1.54.25-2.04.85-.47.57-.56,1.3-.68,1.98-.25,1.48-.34,2.97-.24,4.47.06.89,1.02,1.81,2.1,1.45,4.62-1.58,9.48-2.36,14.42-2.29.97.01,2.02-.99,1.6-1.9-.43-.92-1.08-1.3-2.01-1.76ZM312.73,149.2c.03.21.1.41.25.6-2.72.27-5.4.77-8.01,1.52.02-.49.06-.99.13-1.47.03-.2.07-.41.11-.61,0-.04.02-.08.03-.12.03,0,.07,0,.09,0,.34,0,.68,0,1.02.01,2.13.03,4.25.05,6.38.08Z"/><path class="cls-1" d="M303.5,144.31c4.26.05,8.54.09,12.7,1.02,1.04.23,2.09-.45,2.1-1.45,0-1.29,0-2.57.01-3.86,0-1.93-3.3-1.93-3.31,0,0,.67,0,1.35,0,2.02-3.78-.62-7.65-.69-11.49-.73-2.13-.02-2.13,2.98,0,3Z"/><path class="cls-1" d="M640.59,143.97c-3.63-.18-7.26-.23-10.89-.17-.86.02-1.7.68-1.66,1.5.04.8.73,1.52,1.66,1.5,3.63-.07,7.27-.01,10.89.17.87.04,1.69-.72,1.66-1.5-.04-.85-.73-1.45-1.66-1.5Z"/><path class="cls-1" d="M628.34,148.52c-.84.35-1.83.37-2.71.15-1.14-.29-2.03-1.47-3.24-1.32-1.43.17-2.2,1.68-2.56,2.79-.13.41-.21.84-.28,1.26-2.49-1.32-4.48-3.34-5.71-5.72-.7-1.35-3.17-.68-3.08.76.07,1.12.46,2.09.96,3.1.36.74.89,1.55.89,2.38,0,.83-.61,1.61-.96,2.35-.49,1.02-.75,2.07-.37,3.16.62,1.84,3.82,1.06,3.19-.8-.23-.67.3-1.37.61-1.96.33-.64.62-1.31.75-2,1.44,1.03,3.06,1.88,4.8,2.48,1.03.35,2.09-.55,2.1-1.45,0-.85-.05-1.99.31-2.9,2.14,1.1,4.57,1.31,6.99.3.81-.34,1.01-1.4.59-2.05-.49-.76-1.45-.88-2.26-.54Z"/><path class="cls-1" d="M606.13,145.56c-.66-.4-1.52-.74-2.31-1.14,4.56.11,9.04-.7,13.27-2.43,1.94-.79.26-3.38-1.67-2.59-4.62,1.89-9.84,2.52-14.85,1.79-1.3-.19-2.26.65-2.04,1.85.51,2.68,3.29,3.66,5.55,4.91.24.13.48.26.7.42.09.07.17.15.26.23-.25.04-.51.09-.56.1-.43.08-.87.13-1.31.17-1.69.16-3.39.11-5.08.08-1.67-.03-3.35-.06-5.02-.09-1.57-.03-3.47.21-5-.11-.71-.15-.72-.61-.73-1.2,0-.04.02-.22.03-.39.2,0,.4-.02.6-.02,1.76-.06,3.52,0,5.27.13,2.12.16,2.11-2.84,0-3-1.32-.1-2.63-.16-3.95-.15-1.08,0-2.37-.1-3.41.21-.34.1-.6.26-.83.45-.14-.03-.29-.06-.46-.05-1.86.01-3.48-.43-5.06-1.31-1.07-.6-2.12-1.19-3.33-1.35,3.3.02,6.6.05,9.9.12,2.13.05,2.13-2.95,0-3-9.01-.2-18.03-.18-27.05.05-.92.02-1.44.6-1.57,1.24-.08.01-.17.02-.25.05-3.16,1.13-6.39,2.42-9.23,4.12-1.11.66-1.9,1.58-1.54,2.85.37,1.33,1.77,2.29,2.85,3.17,2.23,1.83,4.81,3.57,7.85,4.03,1.14.17,2.52.29,3.57-.25.57-.3,1.01-.8,1.23-1.36.29-.75-.1-1.46.09-2.16,0-.03.02-.05.03-.08.02.02.04.05.06.08,1.94,2.36,5.27,4.25,8.31,5.2,3.09.97,6.44.4,8.47-2.02,1.29-1.54-1.58-3.03-2.86-1.51-2.39,2.85-7.93-.61-9.96-2.21-.27-.21-.66-.55-1.04-.94,1.25-.17,2.51-.21,3.71-.61,1.05-.35,2.23-.94,2.74-1.89.65-1.23-.26-2.59-1.46-3.22-2.06-1.08-5.37-.67-7.34.4-1.61.88-2.14,2.23-1.99,3.63-.49.32-.92.7-1.25,1.14-.45.6-.7,1.29-.73,2.02-.01.26-.02.61.03.9-.18,0-.35,0-.53-.01-1.95-.15-3.73-1.14-5.23-2.21-.88-.63-1.7-1.32-2.5-2.03-.15-.13-.3-.3-.48-.42-.03-.02-.04-.03-.06-.04.41-.18.84-.5,1.19-.68,1.59-.82,3.23-1.57,4.91-2.24-.04,1.32-.21,2.62-.57,3.92-.51,1.87,2.68,2.67,3.19.8.6-2.2.82-4.43.64-6.69,5.24-.13,10.47-.19,15.71-.17-.81.11-1.63.63-1.57,1.49.27,3.41,2.47,6.11,5.34,8.2,2.88,2.09,6.1,4.16,9.43,5.61,3.3,1.44,7.25,2.28,10.82,1.15,3.01-.95,5.55-3.21,6.1-6.12.05-.25.03-.49-.04-.7,1.4-.21,2.79-.64,3.36-1.74.94-1.8-.87-3.46-2.4-4.38ZM567.31,146.12c-.32.08-.65.14-.96.18-.45.07-.9.11-1.35.15.56-.19,1.22-.28,1.79-.31.17-.01.35-.02.53-.02ZM597.37,155.83c-3,.64-6.12-.36-8.72-1.68-2.52-1.27-4.97-2.8-7.26-4.39-1.58-1.09-3.12-2.45-3.95-4.09.72.39,1.41.86,2.09,1.13,1.43.57,2.95.85,4.5.9.02.34.06.68.12.99.37,1.85,1.88,2.91,3.89,3.07,2.45.2,4.96.11,7.42.15,2.14.04,4.29.13,6.43.04-.55,1.99-2.31,3.41-4.53,3.88Z"/><path class="cls-1" d="M596.64,147.31c2.13,0,2.13-3,0-3s-2.13,3,0,3Z"/><path class="cls-1" d="M548.31,151.36c-3.16-.49-6.28-1.14-9.36-1.91.24-1,.3-2.04.33-3.1.03-1.42,0-2.85.96-4.04.73-.91-.25-2.32-1.43-2.26-2.76.15-5.5.54-8.17,1.2-2.05.51-1.18,3.4.88,2.89,1.56-.38,3.13-.66,4.73-.86-.16.71-.23,1.44-.25,2.16-.04.91.02,1.89-.12,2.82-1.39.08-2.8-.13-4.16-.39-.93-.18-1.86-.39-2.79-.57-.97-.19-2.04-.44-3.04-.44-1.19,0-2.17.69-2.39,1.76-.19.93-.26,1.91-.35,2.85-.18,1.85-.27,3.71-.28,5.56,0,1.93,3.3,1.93,3.31,0,0-1.67.08-3.33.23-5,.06-.7.14-1.39.23-2.08.2.03.4.06.6.09,2.76.48,5.46,1.2,8.24,1.19.19.31.51.56.96.68,2.57.69,5.17,1.28,7.79,1.77.19.18.43.32.71.37.97.18,1.95.27,2.95.24.82-.02,1.53-.55,1.63-1.3.09-.68-.36-1.52-1.19-1.65ZM526.68,149.35s0-.03.01,0c0,0,0,0-.01,0Z"/><path class="cls-1" d="M522.82,139.79c-7.38-.04-14.77-.09-22.15-.13-1.71,0-2.17,2-.84,2.8,4.39,2.62,9.28,5.61,10.2,10.67.26,1.45,2.89,1.41,3.19,0,.8-3.78,5.62-5.42,8.18-8.09.74-.78.42-1.74-.25-2.25.56,0,1.11,0,1.67,0,2.13.01,2.13-2.99,0-3ZM519.07,142.91c-2.09,2.19-5.14,3.68-7.15,5.89-1.38-2.42-3.57-4.4-5.99-6.11,4.44.03,8.87.05,13.31.08-.06.05-.11.09-.17.14Z"/><path class="cls-1" d="M503.3,146.18c-.91.04-1.64.66-1.66,1.5,0,.48-.03.96-.07,1.44-.02.24-.05.48-.08.72-.01.09-.02.18-.04.28,0,.05-.02.1-.02.15-.16.95-.39,1.89-.68,2.81-.24.75.29,1.67,1.16,1.85.88.18,1.78-.24,2.04-1.05.64-2,.98-4.1,1.01-6.18.01-.78-.77-1.54-1.66-1.5Z"/><path class="cls-1" d="M495.86,137.22c-.79-.2-1.89.24-2.04,1.05-.88,4.82-1.54,9.67-1.96,14.54-.07.81.81,1.5,1.66,1.5.95,0,1.59-.69,1.66-1.5.4-4.6,1.01-9.18,1.84-13.74.15-.8-.23-1.61-1.16-1.85Z"/><path class="cls-1" d="M488.09,148.91c-.61-.3-1.22-.6-1.82-.9.15-.83-.38-1.78-1.57-1.79-3.24-.04-6.51-.22-9.74-.12-.81.03-1.54.25-2.04.85-.47.57-.56,1.3-.68,1.98-.25,1.48-.34,2.97-.24,4.47.06.89,1.02,1.81,2.1,1.45,4.62-1.58,9.48-2.36,14.42-2.29.97.01,2.02-.99,1.6-1.9-.43-.92-1.08-1.3-2.01-1.76ZM483.03,149.2c.03.21.1.41.25.6-2.72.27-5.4.77-8.01,1.52.02-.49.06-.99.13-1.47.03-.2.07-.41.11-.61,0-.04.02-.08.03-.12.03,0,.07,0,.09,0,.34,0,.68,0,1.02.01,2.13.03,4.25.05,6.38.08Z"/><path class="cls-1" d="M473.8,144.31c4.26.05,8.54.09,12.7,1.02,1.04.23,2.09-.45,2.1-1.45,0-1.29,0-2.57.01-3.86,0-1.93-3.3-1.93-3.31,0,0,.67,0,1.35,0,2.02-3.78-.62-7.65-.69-11.49-.73-2.13-.02-2.13,2.98,0,3Z"/><polygon class="cls-1" points="541 92.21 541 95.09 432.98 95.09 432.98 101.09 541 101.09 541 103.96 544.74 103.96 544.74 92.21 541 92.21"/><polygon class="cls-1" points="341.02 95.09 233 95.09 233 92.21 229.26 92.21 229.26 103.96 233 103.96 233 101.09 341.02 101.09 341.02 95.09"/><path class="cls-1" d="M425.02,341.92c.85-4.58,8.83-5.58,8.83-5.58v-3.06h-23.66v3.06s7.98,1,8.83,5.59v90.15c-.85,4.59-8.83,5.59-8.83,5.59v3.06h23.66v-3.06s-7.98-1-8.83-5.58v-90.16Z"/><path class="cls-1" d="M461.05,351.92c.85-4.58,8.83-5.58,8.83-5.58v-3.06h-23.66v3.06s7.98,1,8.83,5.58v70.15c-.85,4.59-8.83,5.58-8.83,5.58v3.06h23.66v-3.06s-7.98-1-8.83-5.58v-70.16Z"/><path class="cls-1" d="M497.08,361.92c.85-4.58,8.83-5.58,8.83-5.58v-3.06h-23.66v3.06s7.98,1,8.83,5.58v50.15c-.85,4.59-8.83,5.58-8.83,5.58v3.06h23.66v-3.06s-7.98-1-8.83-5.58v-50.16Z"/><path class="cls-1" d="M348.98,341.92c-.85-4.58-8.83-5.58-8.83-5.58v-3.06h23.66v3.06s-7.98,1-8.83,5.59v90.15c.85,4.59,8.83,5.59,8.83,5.59v3.06h-23.66v-3.06s7.98-1,8.83-5.58v-90.16Z"/><path class="cls-1" d="M312.95,351.92c-.85-4.58-8.83-5.58-8.83-5.58v-3.06h23.66v3.06s-7.98,1-8.83,5.58v70.15c.85,4.59,8.83,5.58,8.83,5.58v3.06h-23.66v-3.06s7.98-1,8.83-5.58v-70.16Z"/><path class="cls-1" d="M276.92,361.92c-.85-4.58-8.83-5.58-8.83-5.58v-3.06h23.66v3.06s-7.98,1-8.83,5.58v50.15c.85,4.59,8.83,5.58,8.83,5.58v3.06h-23.66v-3.06s7.98-1,8.83-5.58v-50.16Z"/><path class="cls-1" d="M670.96,491.13c0-1.47-.25-2.88-.7-4.2.04.4.06.81.06,1.22,0,6.78-5.5,12.28-12.28,12.28s-12.28-5.5-12.28-12.28c0-.41.02-.82.06-1.22-.45,1.32-.7,2.73-.7,4.2,0,6.46,4.74,11.79,10.92,12.75v93.36h4v-93.37c6.19-.96,10.92-6.3,10.92-12.75Z"/><path class="cls-1" d="M94.64,434.02c-2.53,3.94-4.01,8.63-4.01,13.67,0,13.99,11.34,25.33,25.33,25.33,13.99,0,25.33-11.34,25.33-25.33,0-5.03-1.47-9.72-4.01-13.67,4.08,4.84,6.54,11.09,6.54,17.92,0,15.39-12.47,27.86-27.86,27.86-15.39,0-27.86-12.47-27.86-27.86,0-6.83,2.46-13.08,6.54-17.92Z"/><path class="cls-1" d="M128.89,491.13c0-1.47-.25-2.88-.7-4.2.04.4.06.81.06,1.22,0,6.78-5.5,12.28-12.28,12.28s-12.28-5.5-12.28-12.28c0-.41.02-.82.06-1.22-.45,1.32-.7,2.73-.7,4.2,0,6.46,4.74,11.79,10.92,12.75v93.36h4v-93.36c6.19-.96,10.92-6.3,10.92-12.75Z"/><path class="cls-1" d="M679.36,339.98c2.53-3.94,4.01-8.63,4.01-13.67,0-13.99-11.34-25.33-25.33-25.33s-25.33,11.34-25.33,25.33c0,5.03,1.47,9.72,4.01,13.67-4.08-4.84-6.54-11.09-6.54-17.92,0-15.39,12.47-27.86,27.86-27.86,15.39,0,27.86,12.47,27.86,27.86,0,6.83-2.46,13.08-6.54,17.92Z"/><path class="cls-1" d="M670.96,282.87c0-6.46-4.74-11.79-10.92-12.75v-93.36h-4v93.36c-6.19.96-10.92,6.3-10.92,12.75,0,1.47.25,2.88.7,4.2-.04-.4-.06-.81-.06-1.22,0-6.78,5.5-12.28,12.28-12.28s12.28,5.5,12.28,12.28c0,.41-.02.82-.06,1.22.45-1.32.7-2.73.7-4.2Z"/><path class="cls-1" d="M94.64,339.98c-2.53-3.94-4.01-8.63-4.01-13.67,0-13.99,11.34-25.33,25.33-25.33,13.99,0,25.33,11.34,25.33,25.33,0,5.03-1.47,9.72-4.01,13.67,4.08-4.84,6.54-11.09,6.54-17.92,0-15.39-12.47-27.86-27.86-27.86-15.39,0-27.86,12.47-27.86,27.86,0,6.83,2.46,13.08,6.54,17.92Z"/><path class="cls-1" d="M128.89,282.87c0-6.46-4.74-11.79-10.92-12.75v-93.36h-4v93.36c-6.19.96-10.92,6.3-10.92,12.75,0,1.47.25,2.88.7,4.2-.04-.4-.06-.81-.06-1.22,0-6.78,5.5-12.28,12.28-12.28s12.28,5.5,12.28,12.28c0,.41-.02.82-.06,1.22.45-1.32.7-2.73.7-4.2Z"/></g></svg>