<?xml version="1.0" encoding="UTF-8"?><svg id="Layer_1" xmlns="http://www.w3.org/2000/svg" viewBox="0 0 768 768"><defs><style>.cls-1{fill:#fff;}</style></defs><g id="Pentagram_6"><path class="cls-1" d="M384,768c-51.84,0-102.13-10.15-149.47-30.18-45.73-19.34-86.79-47.03-122.06-82.29-35.26-35.26-62.95-76.33-82.29-122.06C10.15,486.13,0,435.84,0,384s10.15-102.13,30.18-149.47c19.34-45.73,47.03-86.79,82.29-122.06,35.26-35.27,76.33-62.95,122.06-82.29C281.87,10.15,332.16,0,384,0s102.13,10.15,149.47,30.18c45.73,19.34,86.79,47.03,122.06,82.29,35.27,35.26,62.95,76.33,82.29,122.06,20.02,47.34,30.18,97.63,30.18,149.47s-10.15,102.13-30.18,149.47c-19.34,45.73-47.03,86.79-82.29,122.06-35.26,35.27-76.33,62.95-122.06,82.29-47.34,20.02-97.63,30.18-149.47,30.18ZM384,6C175.57,6,6,175.57,6,384s169.57,378,378,378,378-169.57,378-378S592.43,6,384,6Z"/><path class="cls-1" d="M653.08,653.08H114.92V114.92h538.15v538.15ZM122.92,645.08h522.15V122.92H122.92v522.15Z"/><path class="cls-1" d="M384,764.53L3.47,384,384,3.47l380.53,380.53-380.53,380.53ZM14.78,384l369.22,369.22,369.22-369.22L384,14.78,14.78,384Z"/><path class="cls-1" d="M136.78,331.16c.8-.03,1.52-.54,1.5-1.23-.07-2.71-.01-5.41.17-8.11.04-.65-.72-1.26-1.5-1.23-.85.03-1.45.54-1.5,1.23-.18,2.7-.23,5.41-.17,8.11.02.64.68,1.26,1.5,1.23Z"/><path class="cls-1" d="M138.83,335.37c.17,1.07,1.68,1.64,2.79,1.91.41.1.84.16,1.26.21-1.32,1.86-3.34,3.34-5.72,4.26-1.35.52-.68,2.36.76,2.3,1.12-.05,2.09-.34,3.1-.71.74-.27,1.55-.66,2.38-.66.83,0,1.61.45,2.35.71,1.02.36,2.07.56,3.16.28,1.84-.46,1.06-2.85-.8-2.38-.67.17-1.37-.23-1.96-.45-.64-.25-1.31-.46-2-.56,1.03-1.07,1.88-2.28,2.48-3.57.35-.77-.55-1.55-1.45-1.56-.85,0-1.99.03-2.9-.23,1.1-1.6,1.31-3.41.3-5.2-.34-.6-1.4-.76-2.05-.44-.76.36-.88,1.08-.54,1.69.35.62.37,1.36.15,2.02-.29.85-1.47,1.51-1.32,2.41Z"/><path class="cls-1" d="M138.79,354.55c0-1.59-3-1.59-3,0s3,1.59,3,0Z"/><path class="cls-1" d="M143.85,348.17c-.25-.04-.49-.02-.7.03-.21-1.04-.64-2.08-1.74-2.51-1.8-.7-3.46.65-4.38,1.79-.4.5-.74,1.13-1.14,1.72.11-3.39-.7-6.73-2.43-9.89-.79-1.44-3.38-.19-2.59,1.24,1.89,3.44,2.52,7.33,1.79,11.06-.19.97.65,1.69,1.85,1.52,2.68-.38,3.66-2.45,4.91-4.14.13-.18.26-.36.42-.52.07-.07.15-.13.23-.19.04.18.09.38.1.42.08.32.13.65.17.97.16,1.26.11,2.52.08,3.78-.03,1.25-.06,2.49-.09,3.74-.03,1.17.21,2.58-.11,3.72-.15.53-.61.54-1.2.55-.04,0-.22-.01-.39-.02,0-.15-.02-.3-.02-.44-.06-1.31,0-2.62.13-3.93.16-1.58-2.84-1.57-3,0-.1.98-.16,1.96-.15,2.95,0,.8-.1,1.76.21,2.54.1.25.26.45.45.62-.03.1-.06.22-.05.34.01,1.38-.43,2.6-1.31,3.77-.6.79-1.19,1.58-1.35,2.48.02-2.46.05-4.92.12-7.38.05-1.59-2.95-1.59-3,0-.2,6.71-.18,13.43.05,20.15.02.69.6,1.07,1.24,1.17.01.06.02.12.05.19,1.13,2.35,2.42,4.76,4.12,6.87.66.82,1.58,1.41,2.85,1.15,1.33-.27,2.29-1.32,3.17-2.12,1.83-1.66,3.57-3.58,4.03-5.85.17-.85.29-1.88-.25-2.66-.3-.43-.8-.75-1.36-.91-.75-.21-1.46.07-2.17-.07-.03,0-.05-.02-.07-.03.02-.01.05-.03.08-.04,2.36-1.45,4.25-3.92,5.2-6.19.97-2.3.4-4.8-2.02-6.31-1.54-.96-3.03,1.18-1.51,2.13,2.85,1.78-.61,5.9-2.21,7.42-.21.2-.55.49-.94.78-.17-.93-.21-1.87-.61-2.77-.35-.78-.94-1.66-1.89-2.04-1.23-.49-2.59.19-3.22,1.09-1.08,1.54-.67,4,.4,5.47.88,1.21,2.25,1.6,3.66,1.48.32.36.67.69,1.11.93.6.33,1.29.52,2.02.54.26,0,.61.01.9-.02,0,.13,0,.26-.01.4-.15,1.45-1.14,2.78-2.21,3.89-.63.65-1.32,1.26-2.03,1.86-.13.11-.3.23-.42.35-.02.02-.03.03-.04.05-.18-.3-.5-.62-.68-.89-.82-1.19-1.57-2.41-2.24-3.66,1.32.03,2.62.16,3.92.42,1.87.38,2.67-2,.8-2.38-2.2-.45-4.43-.61-6.69-.48-.13-3.9-.19-7.8-.17-11.7.11.6.63,1.22,1.49,1.17,3.41-.2,6.11-1.84,8.2-3.98,2.09-2.15,4.16-4.54,5.61-7.02,1.44-2.46,2.28-5.4,1.15-8.06-.95-2.24-3.21-4.13-6.12-4.55ZM137.6,376.39c.08.24.14.48.18.72.07.33.11.67.15,1.01-.19-.42-.28-.91-.31-1.33-.01-.13-.02-.26-.02-.39ZM145.62,360.49c-1.27,1.87-2.8,3.7-4.39,5.4-1.09,1.17-2.45,2.32-4.09,2.94.39-.53.86-1.05,1.13-1.56.57-1.07.85-2.2.9-3.35.34-.01.68-.04.99-.09,1.85-.27,2.91-1.4,3.07-2.9.2-1.82.11-3.7.15-5.52.04-1.59.13-3.2.04-4.79,1.99.41,3.41,1.72,3.88,3.38.64,2.24-.36,4.56-1.68,6.49Z"/><path class="cls-1" d="M148.52,407.04c-1.67,0-3.33-.06-5-.17-.7-.05-1.39-.1-2.08-.17.03-.15.06-.3.09-.45.48-2.06,1.2-4.06,1.19-6.13.31-.15.56-.38.68-.72.69-1.91,1.28-3.85,1.77-5.8.18-.14.32-.32.37-.53.18-.73.27-1.45.24-2.19-.02-.61-.55-1.14-1.3-1.21-.68-.07-1.52.27-1.65.88-.49,2.35-1.14,4.68-1.91,6.98,0,0-.01,0-.02,0-1-.18-2.02-.24-3.07-.26-1.42-.02-2.85,0-4.04-.72-.91-.54-2.32.18-2.26,1.06.15,2.06.54,4.1,1.2,6.09.51,1.53,3.4.88,2.89-.66-.38-1.16-.66-2.33-.86-3.52.71.12,1.44.17,2.16.19.91.03,1.89-.02,2.82.09.08,1.04-.13,2.09-.39,3.1-.18.7-.39,1.39-.57,2.08-.19.73-.44,1.52-.44,2.26,0,.88.69,1.61,1.76,1.78.93.14,1.91.2,2.85.26,1.85.14,3.71.2,5.56.21,1.93,0,1.93-2.46,0-2.47ZM140.82,406.64s0,0,0,0c-.02,0-.03,0,0,0Z"/><path class="cls-1" d="M131.27,409.53c-.04,5.5-.09,11-.13,16.5-.01,1.27,2,1.61,2.8.62,2.62-3.27,5.61-6.91,10.67-7.6,1.45-.2,1.41-2.15,0-2.38-3.78-.6-5.42-4.18-8.09-6.09-.78-.55-1.74-.31-2.25.19,0-.41,0-.83,0-1.24.01-1.59-2.99-1.59-3,0ZM134.39,412.32c2.19,1.56,3.68,3.83,5.89,5.32-2.42,1.02-4.4,2.66-6.11,4.46.03-3.3.05-6.61.08-9.91.05.04.09.08.14.13Z"/><path class="cls-1" d="M145.35,423.59c-2-.48-4.1-.73-6.18-.75-.78-.01-1.54.57-1.5,1.23.04.68.66,1.22,1.5,1.23.48,0,.96.02,1.44.05.24.02.48.03.72.06.09,0,.18.02.27.03.05,0,.1.01.15.02.95.12,1.89.29,2.81.51.75.18,1.67-.22,1.85-.86.18-.66-.24-1.33-1.05-1.52Z"/><path class="cls-1" d="M145.78,431.35c0-.71-.69-1.18-1.5-1.23-4.6-.3-9.18-.75-13.74-1.37-.8-.11-1.61.17-1.85.86-.2.59.24,1.41,1.05,1.52,4.82.66,9.67,1.15,14.54,1.46.81.05,1.5-.6,1.5-1.23Z"/><path class="cls-1" d="M144.04,435.09c.01-.72-.99-1.5-1.9-1.19-.92.32-1.3.8-1.76,1.5-.3.45-.6.91-.9,1.36-.83-.11-1.78.28-1.79,1.17-.04,2.41-.22,4.85-.12,7.26.03.6.25,1.15.85,1.52.57.35,1.3.42,1.98.5,1.48.18,2.97.25,4.47.18.89-.04,1.81-.76,1.45-1.56-1.58-3.44-2.36-7.06-2.29-10.74ZM141.32,444.85c-.2-.02-.41-.05-.61-.08-.04,0-.08-.01-.12-.02,0-.02,0-.05,0-.07,0-.25,0-.51.01-.76l.08-4.75c.21-.02.41-.08.6-.19.27,2.02.77,4.02,1.52,5.96-.49-.02-.98-.04-1.47-.09Z"/><path class="cls-1" d="M135.36,435.02c-1.29,0-2.57,0-3.86-.01-1.93,0-1.93,2.46,0,2.47.67,0,1.35,0,2.02,0-.62,2.82-.69,5.7-.73,8.56-.02,1.59,2.98,1.59,3,0,.05-3.17.09-6.36,1.02-9.46.23-.78-.45-1.56-1.45-1.56Z"/><path class="cls-1" d="M257.45,168.92c2.17-2.26,4.42-4.44,6.76-6.53.56-.5.52-1.54-.05-2.07-.63-.58-1.47-.58-2.07-.05-2.34,2.08-4.59,4.26-6.76,6.53-.52.54-.55,1.51.05,2.07.59.54,1.52.63,2.07.05Z"/><path class="cls-1" d="M245.64,180.21c.83.75,1.76,1.2,2.78,1.61.75.3,1.64.55,2.23,1.14.58.59.77,1.51,1.08,2.25.43,1.02,1.01,1.92,2.01,2.47,1.68.92,3.08-1.58,1.38-2.51-.61-.34-.78-1.15-1.02-1.76-.25-.66-.55-1.3-.95-1.87,1.61-.15,3.19-.53,4.68-1.17.88-.38.88-1.66.25-2.3-.59-.6-1.44-1.38-1.86-2.24,2.09-.53,3.71-1.87,4.47-4.05.26-.73-.37-1.61-1.09-1.81-.83-.24-1.51.26-1.76,1-.26.76-.85,1.38-1.55,1.76-.9.49-2.28.2-2.91,1.04-.75.99-.15,2.53.41,3.54.21.37.46.72.73,1.06-2.45.59-5.09.37-7.53-.56-1.38-.53-2.42,1.45-1.35,2.42Z"/><path class="cls-1" d="M237.65,189.43c1.3-1.3-.82-3.42-2.12-2.12-1.3,1.3.82,3.42,2.12,2.12Z"/><path class="cls-1" d="M207.2,220.14c1.16.71,2.7.54,3.98.51,2.66-.07,5.46-.41,7.64-1.94.82-.57,1.75-1.33,2-2.35.14-.56.05-1.18-.21-1.71-.35-.7-1.09-.97-1.47-1.59-.01-.02-.02-.05-.03-.07.03,0,.06.01.09.02,2.85.49,6.22-.21,8.75-1.39,2.57-1.2,4.21-3.65,3.74-6.59-.3-1.87-3.11-1.18-2.81.67.56,3.47-5.26,4.4-7.64,4.51-.31.01-.79.02-1.3-.03.64-.88,1.38-1.68,1.83-2.69.39-.88.7-2.03.33-3-.47-1.27-1.99-1.68-3.17-1.39-2.02.49-3.75,2.8-4.2,4.76-.36,1.6.27,2.89,1.35,3.78-.07.52-.07,1.05.05,1.57.16.7.49,1.34.99,1.87.18.19.42.44.66.62-.11.11-.21.22-.33.32-1.3,1.08-3.08,1.47-4.75,1.62-.98.09-1.97.1-2.96.09-.19,0-.4-.03-.58,0-.03,0-.04,0-.07,0,.12-.38.16-.86.24-1.21.39-1.55.86-3.08,1.41-4.58.91.95,1.72,1.98,2.42,3.12,1.01,1.64,3.52.26,2.51-1.38-1.19-1.92-2.63-3.64-4.34-5.12,3.1-3.29,6.25-6.52,9.46-9.7-.41.57-.55,1.44.09,2.01,2.57,2.25,5.83,2.82,9.05,2.54,3.23-.28,6.66-.78,9.72-1.78,3.03-.99,6.03-2.81,7.41-5.79,1.16-2.51,1.11-5.65-.61-8.05-.15-.21-.33-.36-.51-.47.71-1,1.25-2.16.82-3.28-.7-1.85-2.97-1.91-4.56-1.64-.69.12-1.45.4-2.21.6,2.85-2.7,5.01-6.01,6.37-9.81.62-1.74-2.23-2.55-2.85-.81-1.48,4.15-4.22,7.78-7.78,10.32-.93.66-.92,1.84.06,2.55,2.2,1.58,4.59.58,6.86.09.24-.05.48-.11.73-.13.11,0,.21,0,.32,0-.12.18-.24.37-.27.41-.21.32-.43.62-.67.92-.92,1.14-1.99,2.14-3.04,3.16-1.04,1-2.08,2-3.12,3-.98.94-1.96,2.27-3.12,2.97-.54.33-.87.01-1.3-.41-.03-.02-.14-.16-.26-.29.11-.13.23-.26.35-.38,1.03-1.11,2.14-2.15,3.31-3.12,1.41-1.18-.72-3.29-2.12-2.12-.87.73-1.72,1.49-2.52,2.3-.66.66-1.51,1.37-1.93,2.23-.14.28-.18.55-.19.82-.11.06-.22.14-.32.24-1.12,1.14-2.43,1.82-4.02,2.16-1.07.23-2.14.45-2.98,1.08,2.02-2,4.06-3.99,6.13-5.95,1.33-1.27-.79-3.39-2.12-2.12-5.64,5.35-11.13,10.87-16.46,16.53-.54.58-.45,1.3-.08,1.83-.04.06-.09.12-.12.19-1.12,2.73-2.19,5.6-2.71,8.54-.2,1.14-.04,2.28,1.08,2.96ZM218.93,206.47c-.14.25-.3.49-.46.72-.23.32-.47.63-.72.93.21-.48.55-.94.87-1.31.1-.11.2-.23.3-.34ZM230.24,197.38c.25.23.51.45.77.63,1.53,1.08,3.2.91,4.55-.2,1.63-1.35,3.1-2.95,4.63-4.41,1.33-1.28,2.71-2.52,3.95-3.9,1.07,1.74,1,3.82-.02,5.51-1.38,2.29-3.99,3.47-6.5,4.13-2.43.63-5.01,1.05-7.53,1.32-1.73.19-3.63.17-5.31-.49.71-.16,1.47-.25,2.08-.48,1.28-.47,2.4-1.2,3.38-2.11Z"/><path class="cls-1" d="M195.71,226.91c.68-1.22,1.44-2.38,2.27-3.49.4.6.88,1.15,1.37,1.68.62.66,1.35,1.32,1.92,2.06-.79.9-1.8,1.62-2.81,2.26-.7.44-1.41.86-2.1,1.3-.73.46-1.56.93-2.17,1.54-.72.72-.84,1.81-.21,2.7.54.78,1.19,1.51,1.8,2.23,1.2,1.42,2.46,2.79,3.76,4.1,1.36,1.37,3.38-.65,2.02-2.02-1.17-1.18-2.31-2.41-3.4-3.67-.45-.53-.9-1.07-1.33-1.61.14-.1.29-.2.43-.3,2.02-1.34,4.17-2.48,5.86-4.18.34.1.71.08,1.07-.11,2.06-1.08,4.06-2.25,6-3.5.25.01.49-.04.7-.17.72-.47,1.38-1,1.97-1.62.48-.52.54-1.32.07-1.91-.42-.53-1.29-.85-1.89-.44-2.28,1.58-4.64,3.03-7.07,4.36,0,0,0,0-.01-.01-.56-.85-1.24-1.63-1.96-2.38-.98-1.02-2.01-2.01-2.27-3.44-.2-1.09-1.79-1.49-2.47-.72-1.58,1.79-2.97,3.74-4.13,5.83-.9,1.61,1.68,3.13,2.58,1.51ZM196.44,233.52s0,0,0,.01c-.02-.02-.02-.03,0-.01Z"/><path class="cls-1" d="M175.19,245.02c4.53-.82,9.62-1.69,13.77,1.33,1.19.86,2.76-.76,1.95-1.95-2.19-3.16-.41-7.26-.73-10.71-.1-1-.98-1.49-1.75-1.44.34-.34.68-.67,1.02-1.01,1.31-1.29-.81-3.41-2.12-2.12-4.53,4.47-9.06,8.94-13.6,13.41-1.05,1.03.09,2.74,1.47,2.49ZM187.05,242.14c-2.55-.87-5.28-.93-7.98-.67,2.72-2.69,5.45-5.37,8.17-8.06,0,.07,0,.13,0,.2.27,2.82-.53,5.74-.19,8.52Z"/><path class="cls-1" d="M179.94,245.55c-.53.58-.53,1.47.05,2.07.33.34.66.7.97,1.06.16.18.31.37.46.55.06.07.12.15.17.22.03.04.06.08.09.12.57.77,1.1,1.57,1.57,2.4.39.68,1.36,1,2.01.6.67-.41.91-1.26.5-1.98-1.03-1.81-2.3-3.49-3.75-4.99-.55-.56-1.56-.62-2.07-.05Z"/><path class="cls-1" d="M177.65,257.2c.53.61,1.55.57,2.07.05.58-.58.48-1.45-.05-2.07-3.01-3.5-5.88-7.11-8.59-10.84-.48-.65-1.28-1-2.01-.6-.62.34-.98,1.32-.5,1.98,2.87,3.94,5.9,7.78,9.08,11.47Z"/><path class="cls-1" d="M172.59,256.74l-1.74.48c-.5-.67-1.49-1.03-2.23-.31-2,1.94-4.12,3.81-6.02,5.86-.48.51-.77,1.12-.64,1.85.11.69.57,1.26.99,1.81.9,1.2,1.89,2.31,3.01,3.31.66.59,1.91.66,2.3-.25,1.7-3.94,4.11-7.45,7.17-10.41.6-.58.53-1.93-.37-2.32-.91-.39-1.58-.26-2.47-.02ZM166.48,266.26c-.33-.36-.67-.73-.97-1.12-.13-.16-.25-.33-.37-.5-.02-.03-.05-.07-.07-.1.02-.02.04-.05.05-.06l.63-.62c1.31-1.28,2.63-2.56,3.94-3.83.16.13.35.23.57.27-1.46,1.84-2.74,3.84-3.8,5.95Z"/><path class="cls-1" d="M169.09,255.19c.8-.47.96-1.6.25-2.3-.91-.91-1.81-1.83-2.72-2.74-1.36-1.37-3.38.65-2.02,2.02.47.48.95.95,1.42,1.43-2.74,1.87-5.15,4.17-7.52,6.49-1.32,1.28.81,3.41,2.12,2.12,2.63-2.56,5.27-5.14,8.46-7.02Z"/><path class="cls-1" d="M446.19,135.45c-2.7-.18-5.41-.23-8.11-.17-.64.02-1.26.68-1.23,1.5.03.8.54,1.52,1.23,1.5,2.71-.07,5.41-.01,8.11.17.65.04,1.26-.72,1.23-1.5-.03-.85-.54-1.45-1.23-1.5Z"/><path class="cls-1" d="M438.31,142.59c.6-.34.76-1.4.44-2.05-.36-.76-1.08-.88-1.69-.54-.62.35-1.36.37-2.02.15-.85-.29-1.51-1.47-2.41-1.32-1.07.17-1.64,1.68-1.91,2.79-.1.41-.16.84-.21,1.26-1.86-1.32-3.34-3.34-4.26-5.72-.52-1.35-2.36-.68-2.3.76.05,1.12.34,2.09.71,3.1.27.74.66,1.55.66,2.38,0,.83-.45,1.61-.71,2.35-.36,1.02-.56,2.07-.28,3.16.46,1.84,2.85,1.06,2.38-.8-.17-.67.23-1.37.45-1.96.25-.64.46-1.31.56-2,1.07,1.03,2.28,1.88,3.57,2.48.77.35,1.55-.55,1.56-1.45,0-.85-.03-1.99.23-2.9,1.6,1.1,3.41,1.31,5.2.3Z"/><path class="cls-1" d="M413.45,138.79c1.59,0,1.59-3,0-3s-1.59,3,0,3Z"/><path class="cls-1" d="M378.22,142.15c1.66,1.83,3.58,3.57,5.85,4.03.85.17,1.88.3,2.66-.25.43-.3.75-.8.91-1.36.21-.74-.07-1.46.07-2.16,0-.03.02-.05.03-.08.01.02.03.05.04.08,1.45,2.36,3.92,4.25,6.19,5.2,2.3.97,4.8.4,6.31-2.02.96-1.54-1.18-3.03-2.13-1.51-1.78,2.85-5.9-.61-7.42-2.21-.2-.21-.49-.55-.78-.94.93-.17,1.87-.21,2.77-.61.78-.35,1.66-.94,2.04-1.89.49-1.23-.19-2.59-1.09-3.22-1.53-1.08-4-.67-5.47.4-1.21.88-1.6,2.25-1.48,3.66-.36.32-.69.67-.93,1.11-.33.6-.52,1.29-.54,2.02,0,.26-.01.61.02.9-.13,0-.26,0-.4-.01-1.45-.15-2.78-1.14-3.89-2.21-.65-.63-1.26-1.32-1.86-2.03-.11-.13-.23-.3-.35-.42-.02-.02-.03-.03-.05-.04.3-.18.62-.5.89-.68,1.19-.82,2.41-1.57,3.66-2.24-.03,1.32-.16,2.62-.42,3.92-.38,1.87,2,2.67,2.38.8.45-2.2.61-4.43.48-6.69,3.9-.13,7.8-.19,11.7-.17-.6.11-1.22.63-1.17,1.48.2,3.41,1.84,6.11,3.98,8.2,2.15,2.09,4.54,4.16,7.02,5.61,2.46,1.44,5.4,2.28,8.06,1.15,2.24-.95,4.13-3.21,4.55-6.12.04-.25.02-.49-.03-.7,1.04-.21,2.08-.64,2.51-1.74.7-1.8-.65-3.46-1.79-4.38-.5-.4-1.13-.74-1.72-1.14,3.39.11,6.73-.7,9.89-2.43,1.44-.79.19-3.38-1.24-2.59-3.44,1.89-7.33,2.52-11.06,1.79-.97-.19-1.69.65-1.52,1.85.38,2.68,2.45,3.66,4.14,4.91.18.13.36.26.52.42.07.07.13.15.19.23-.18.04-.38.09-.42.1-.32.08-.65.13-.97.17-1.26.16-2.52.11-3.78.08-1.25-.03-2.49-.06-3.74-.09-1.17-.03-2.58.21-3.72-.11-.53-.15-.54-.61-.55-1.2,0-.04.01-.22.02-.39.15,0,.3-.02.44-.02,1.31-.06,2.62,0,3.93.13,1.58.16,1.57-2.84,0-3-.98-.1-1.96-.16-2.95-.15-.8,0-1.76-.1-2.54.21-.25.1-.45.26-.62.45-.1-.03-.22-.06-.34-.05-1.38.01-2.6-.43-3.77-1.31-.79-.6-1.58-1.19-2.48-1.35,2.46.02,4.92.05,7.38.12,1.59.05,1.59-2.95,0-3-6.71-.2-13.43-.18-20.15.05-.69.02-1.07.6-1.17,1.24-.06.01-.12.02-.19.05-2.35,1.13-4.76,2.42-6.87,4.12-.82.66-1.41,1.58-1.15,2.85.27,1.33,1.32,2.29,2.12,3.17ZM391.61,137.6c-.24.08-.48.14-.72.18-.33.07-.67.11-1.01.15.42-.19.91-.28,1.33-.31.13-.01.26-.02.39-.02ZM404.07,139.17c.01.34.04.68.09.99.27,1.85,1.4,2.91,2.9,3.07,1.82.2,3.7.11,5.52.15,1.59.04,3.2.13,4.79.04-.41,1.99-1.72,3.41-3.38,3.88-2.24.64-4.55-.36-6.49-1.68-1.87-1.27-3.7-2.8-5.41-4.39-1.17-1.09-2.32-2.45-2.94-4.09.53.39,1.05.86,1.56,1.13,1.07.57,2.2.85,3.35.9Z"/><path class="cls-1" d="M358.97,140.11c-.14.93-.2,1.91-.26,2.85-.14,1.85-.2,3.71-.21,5.56,0,1.93,2.46,1.93,2.47,0,0-1.67.06-3.33.17-5,.05-.7.1-1.39.17-2.08.15.03.3.06.45.09,2.06.48,4.06,1.2,6.13,1.19.15.31.38.56.72.68,1.91.69,3.85,1.28,5.8,1.77.14.18.32.32.53.37.73.18,1.45.27,2.19.24.61-.02,1.14-.55,1.21-1.3.07-.68-.27-1.52-.88-1.65-2.35-.49-4.68-1.14-6.98-1.91,0,0,0-.01,0-.02.18-1,.24-2.02.26-3.07.02-1.42,0-2.85.72-4.04.54-.91-.18-2.32-1.06-2.26-2.06.15-4.1.54-6.09,1.2-1.53.51-.88,3.4.66,2.89,1.16-.38,2.33-.66,3.52-.86-.12.71-.17,1.44-.19,2.16-.03.91.02,1.89-.09,2.82-1.04.08-2.09-.13-3.1-.39-.7-.18-1.39-.39-2.08-.57-.73-.19-1.52-.44-2.26-.44-.88,0-1.61.69-1.78,1.76ZM361.36,140.82s0,0,0,0c0-.03,0-.03,0,0Z"/><path class="cls-1" d="M348.95,144.61c.2,1.45,2.15,1.41,2.38,0,.6-3.78,4.18-5.42,6.09-8.09.55-.78.31-1.74-.19-2.25.41,0,.83,0,1.24,0,1.59.01,1.59-2.99,0-3l-16.5-.13c-1.27,0-1.61,2-.62,2.8,3.27,2.62,6.91,5.61,7.6,10.67ZM355.68,134.39c-1.56,2.19-3.83,3.68-5.32,5.89-1.02-2.42-2.66-4.4-4.46-6.11,3.3.03,6.61.05,9.91.08-.04.05-.08.09-.12.14Z"/><path class="cls-1" d="M343.93,137.66c-.68.04-1.22.66-1.23,1.5,0,.48-.02.96-.05,1.44-.02.24-.03.48-.06.72,0,.09-.02.18-.03.27,0,.05-.01.1-.02.15-.12.95-.29,1.89-.51,2.81-.18.75.22,1.67.86,1.85.66.18,1.33-.24,1.52-1.05.48-2,.73-4.1.75-6.18.01-.78-.57-1.54-1.23-1.5Z"/><path class="cls-1" d="M336.65,145.78c.71,0,1.18-.69,1.23-1.5.3-4.6.75-9.18,1.37-13.74.11-.8-.17-1.61-.86-1.85-.59-.2-1.41.24-1.52,1.05-.66,4.82-1.15,9.67-1.46,14.54-.05.81.6,1.5,1.23,1.5Z"/><path class="cls-1" d="M322.17,146.33c3.44-1.58,7.06-2.36,10.74-2.29.72.01,1.5-.99,1.19-1.9-.32-.92-.8-1.3-1.5-1.76-.45-.3-.91-.6-1.36-.9.11-.83-.28-1.78-1.17-1.79-2.41-.04-4.85-.22-7.26-.12-.6.03-1.15.25-1.52.85-.35.57-.42,1.3-.5,1.98-.18,1.48-.25,2.97-.18,4.47.04.89.76,1.81,1.56,1.45ZM328.83,140.68c.02.21.08.41.19.6-2.02.27-4.02.77-5.96,1.52.02-.49.04-.98.09-1.47.02-.2.05-.41.08-.61,0-.04.01-.08.02-.12.02,0,.05,0,.07,0,.25,0,.51,0,.76.01,1.58.03,3.17.05,4.75.08Z"/><path class="cls-1" d="M321.96,135.79c3.17.05,6.36.09,9.46,1.02.78.23,1.56-.45,1.56-1.45v-3.86c.02-1.93-2.45-1.93-2.46,0,0,.67,0,1.35,0,2.02-2.82-.62-5.7-.69-8.56-.73-1.59-.02-1.59,2.98,0,3Z"/><path class="cls-1" d="M605.61,264.21c.5.56,1.54.52,2.07-.05.57-.63.58-1.47.05-2.07-2.09-2.34-4.26-4.59-6.53-6.76-.54-.52-1.51-.55-2.07.05-.54.59-.63,1.52-.05,2.07,2.26,2.17,4.44,4.42,6.53,6.76Z"/><path class="cls-1" d="M595.28,256.29c-.49-.9-.2-2.28-1.04-2.91-.99-.75-2.53-.15-3.54.41-.37.21-.72.46-1.06.72-.59-2.45-.37-5.09.56-7.53.53-1.38-1.45-2.42-2.42-1.35-.75.83-1.2,1.76-1.61,2.78-.3.75-.55,1.64-1.14,2.23-.59.58-1.51.77-2.25,1.08-1.02.43-1.92,1.01-2.47,2.01-.92,1.68,1.58,3.08,2.51,1.38.34-.61,1.15-.78,1.76-1.02.66-.25,1.3-.55,1.87-.95.15,1.61.53,3.19,1.17,4.68.38.88,1.66.88,2.3.25.6-.59,1.38-1.44,2.24-1.86.53,2.09,1.86,3.71,4.05,4.47.73.26,1.61-.37,1.81-1.09.24-.83-.26-1.51-1-1.76-.76-.26-1.38-.85-1.76-1.55Z"/><path class="cls-1" d="M578.57,237.65c1.3,1.3,3.42-.82,2.12-2.12s-3.42.82-2.12,2.12Z"/><path class="cls-1" d="M580.68,245.94c1,.71,2.16,1.25,3.28.82,1.85-.7,1.91-2.97,1.64-4.56-.12-.69-.4-1.45-.6-2.21,2.7,2.85,6.01,5.01,9.81,6.37,1.74.62,2.55-2.23.81-2.85-4.15-1.48-7.78-4.22-10.32-7.78-.66-.93-1.84-.92-2.55.06-1.58,2.2-.58,4.59-.09,6.86.05.24.11.48.13.73,0,.11,0,.21,0,.32-.18-.12-.37-.24-.41-.27-.32-.21-.62-.43-.92-.67-1.14-.92-2.14-1.99-3.16-3.04-1-1.04-2-2.08-3-3.13-.94-.98-2.27-1.96-2.97-3.12-.33-.54-.01-.87.41-1.3.02-.03.16-.14.29-.26.13.11.26.23.38.35,1.11,1.03,2.15,2.15,3.12,3.31,1.18,1.41,3.29-.72,2.12-2.12-.73-.87-1.49-1.72-2.3-2.52-.66-.66-1.37-1.51-2.23-1.93-.27-.14-.55-.18-.82-.19-.06-.11-.14-.22-.24-.32-1.14-1.12-1.82-2.43-2.16-4.02-.23-1.07-.45-2.14-1.08-2.98,2,2.02,3.99,4.06,5.95,6.13,1.27,1.33,3.39-.79,2.12-2.12-5.35-5.64-10.87-11.13-16.53-16.46-.58-.54-1.3-.45-1.83-.08-.06-.04-.12-.09-.19-.12-2.73-1.12-5.6-2.18-8.54-2.71-1.14-.2-2.28-.04-2.96,1.08-.71,1.16-.54,2.7-.51,3.98.07,2.66.41,5.46,1.94,7.64.57.82,1.33,1.75,2.35,2,.56.14,1.18.05,1.71-.21.7-.35.97-1.09,1.59-1.47.02-.01.05-.02.07-.03,0,.03-.01.06-.02.09-.49,2.85.21,6.22,1.39,8.75,1.2,2.57,3.65,4.21,6.59,3.74,1.87-.3,1.18-3.11-.67-2.81-3.47.56-4.4-5.26-4.51-7.64-.01-.31-.02-.79.03-1.3.88.64,1.68,1.38,2.69,1.83.88.39,2.03.7,3,.33,1.27-.47,1.68-1.99,1.39-3.17-.49-2.02-2.8-3.75-4.76-4.2-1.6-.36-2.89.27-3.78,1.35-.52-.07-1.05-.07-1.57.05-.7.16-1.34.49-1.87.99-.19.18-.44.42-.62.66-.11-.11-.22-.21-.32-.33-1.08-1.3-1.47-3.08-1.62-4.75-.09-.98-.1-1.97-.09-2.96,0-.19.03-.4,0-.58,0-.03,0-.04,0-.07.38.12.86.16,1.21.24,1.55.39,3.08.86,4.58,1.41-.95.91-1.98,1.72-3.12,2.42-1.64,1.01-.26,3.52,1.38,2.51,1.92-1.19,3.64-2.63,5.12-4.34,3.29,3.1,6.52,6.25,9.7,9.46-.58-.41-1.44-.55-2.01.09-2.25,2.57-2.82,5.83-2.54,9.05.28,3.23.78,6.66,1.78,9.72.99,3.03,2.81,6.03,5.79,7.41,2.51,1.16,5.65,1.11,8.05-.61.21-.15.36-.33.47-.51ZM561.19,218.62c.11.1.23.2.34.3-.25-.14-.49-.3-.72-.46-.32-.23-.63-.47-.93-.72.48.21.94.55,1.31.87ZM573,244.12c-2.29-1.38-3.47-3.99-4.13-6.5-.64-2.43-1.05-5.01-1.32-7.53-.19-1.73-.17-3.63.49-5.31.16.71.25,1.47.48,2.08.47,1.28,1.2,2.4,2.11,3.38-.23.25-.45.51-.63.77-1.08,1.53-.91,3.2.2,4.55,1.35,1.63,2.95,3.1,4.41,4.63,1.28,1.33,2.52,2.71,3.9,3.95-1.74,1.07-3.82,1-5.51-.02Z"/><path class="cls-1" d="M541.09,195.71c1.22.68,2.38,1.44,3.49,2.27-.6.4-1.15.88-1.68,1.37-.66.62-1.32,1.35-2.06,1.92-.9-.79-1.62-1.8-2.26-2.81-.44-.7-.86-1.41-1.3-2.1-.46-.73-.93-1.56-1.54-2.17-.72-.72-1.81-.84-2.7-.21-.78.54-1.51,1.19-2.23,1.8-1.42,1.2-2.79,2.45-4.1,3.76-1.37,1.36.65,3.38,2.02,2.02,1.18-1.17,2.41-2.31,3.67-3.4.53-.45,1.07-.9,1.61-1.33.1.14.2.29.3.43,1.34,2.02,2.48,4.17,4.18,5.86-.1.34-.08.71.11,1.07,1.08,2.06,2.25,4.06,3.5,6-.01.25.04.49.17.7.47.72,1,1.38,1.62,1.97.52.48,1.32.54,1.91.07.53-.42.85-1.29.44-1.89-1.58-2.28-3.03-4.64-4.36-7.07,0,0,0,0,.01-.01.85-.56,1.63-1.24,2.38-1.96,1.02-.98,2.01-2.01,3.44-2.27,1.09-.2,1.49-1.79.72-2.47-1.79-1.58-3.74-2.97-5.83-4.13-1.61-.89-3.12,1.68-1.51,2.58ZM534.47,196.44s.03-.02.01,0c0,0,0,0-.01,0Z"/><path class="cls-1" d="M522.98,175.19c.82,4.53,1.69,9.62-1.33,13.77-.86,1.19.76,2.76,1.95,1.95,3.16-2.19,7.26-.41,10.71-.73,1-.1,1.49-.98,1.44-1.75.34.34.67.68,1.01,1.02,1.29,1.31,3.41-.81,2.12-2.12-4.47-4.53-8.94-9.06-13.41-13.6-1.03-1.05-2.74.09-2.49,1.47ZM534.38,187.24c-2.82.27-5.74-.53-8.52-.19.87-2.55.93-5.28.67-7.98,2.69,2.72,5.37,5.45,8.06,8.17-.07,0-.13,0-.2,0Z"/><path class="cls-1" d="M522.45,179.94c-.58-.53-1.47-.53-2.07.05-.34.33-.7.66-1.06.97-.18.16-.37.31-.55.46-.07.06-.14.11-.22.17-.04.03-.08.06-.12.09-.77.57-1.57,1.1-2.4,1.57-.68.39-1,1.36-.6,2.01.41.67,1.26.91,1.98.5,1.81-1.03,3.49-2.3,4.99-3.75.56-.55.62-1.56.05-2.07Z"/><path class="cls-1" d="M510.75,179.72c.58.58,1.45.48,2.07-.05,3.5-3.01,7.11-5.88,10.84-8.59.65-.48,1-1.28.6-2.01-.34-.62-1.32-.98-1.98-.5-3.94,2.87-7.78,5.9-11.47,9.08-.61.53-.57,1.56-.05,2.07Z"/><path class="cls-1" d="M511.24,175.06c.39-.91.26-1.58.02-2.47-.16-.58-.32-1.16-.48-1.74.67-.5,1.03-1.49.31-2.23-1.94-2-3.81-4.12-5.86-6.02-.51-.48-1.12-.77-1.85-.64-.69.11-1.26.57-1.81.99-1.2.9-2.31,1.89-3.31,3.01-.59.66-.66,1.91.25,2.3,3.94,1.7,7.45,4.11,10.41,7.17.58.6,1.93.53,2.32-.37ZM503.35,165.15s.07-.05.1-.07c.02.02.05.04.06.05.2.21.41.42.61.63,1.28,1.31,2.56,2.63,3.83,3.94-.13.16-.23.35-.27.57-1.84-1.46-3.84-2.74-5.95-3.8.36-.33.73-.67,1.12-.97.16-.13.33-.25.5-.37Z"/><path class="cls-1" d="M512.81,169.09c.47.8,1.59.96,2.3.25.91-.91,1.83-1.81,2.74-2.72,1.37-1.36-.65-3.38-2.02-2.02-.48.47-.96.95-1.43,1.42-1.87-2.74-4.17-5.15-6.49-7.52-1.28-1.32-3.41.8-2.12,2.12,2.56,2.63,5.14,5.27,7.02,8.46Z"/><path class="cls-1" d="M631.22,436.84c-.8.03-1.52.54-1.5,1.23.07,2.71.01,5.41-.17,8.11-.04.65.72,1.26,1.5,1.23.85-.03,1.45-.54,1.5-1.23.18-2.7.23-5.41.17-8.11-.02-.64-.68-1.26-1.5-1.23Z"/><path class="cls-1" d="M629.17,432.63c-.17-1.07-1.68-1.64-2.79-1.91-.41-.1-.84-.16-1.26-.21,1.32-1.86,3.34-3.34,5.72-4.26,1.35-.52.68-2.36-.76-2.3-1.12.05-2.09.34-3.1.71-.74.27-1.55.66-2.38.66-.83,0-1.61-.45-2.35-.71-1.02-.36-2.07-.56-3.16-.28-1.84.46-1.06,2.85.8,2.38.67-.17,1.37.23,1.96.45.64.25,1.31.46,2,.56-1.03,1.07-1.88,2.28-2.48,3.57-.35.77.55,1.55,1.45,1.56.85,0,1.99-.03,2.9.23-1.1,1.6-1.31,3.41-.3,5.2.34.6,1.4.76,2.05.44.76-.36.88-1.08.54-1.69-.35-.62-.37-1.36-.15-2.02.29-.85,1.47-1.51,1.32-2.41Z"/><path class="cls-1" d="M629.21,413.45c0,1.59,3,1.59,3,0s-3-1.59-3,0Z"/><path class="cls-1" d="M636.05,384.31c-.01-.06-.02-.12-.05-.19-1.13-2.35-2.42-4.76-4.12-6.87-.66-.82-1.58-1.41-2.85-1.15-1.33.27-2.29,1.32-3.17,2.12-1.83,1.66-3.57,3.58-4.03,5.85-.17.85-.3,1.88.25,2.66.3.43.8.75,1.36.91.75.21,1.46-.07,2.16.07.03,0,.05.02.07.03-.02.01-.05.03-.08.04-2.36,1.45-4.25,3.92-5.2,6.19-.97,2.3-.4,4.8,2.02,6.31,1.54.96,3.03-1.18,1.51-2.13-2.85-1.78.61-5.9,2.21-7.42.21-.2.55-.49.94-.78.17.93.21,1.87.61,2.77.35.78.94,1.66,1.89,2.04,1.23.49,2.59-.19,3.22-1.09,1.08-1.54.67-4-.4-5.47-.88-1.21-2.25-1.6-3.66-1.48-.32-.36-.67-.69-1.11-.93-.6-.33-1.29-.52-2.02-.54-.26,0-.61-.01-.9.02,0-.13,0-.26.01-.4.15-1.45,1.14-2.78,2.21-3.89.63-.65,1.32-1.26,2.03-1.86.13-.11.3-.23.42-.35.02-.02.03-.03.04-.05.18.3.5.62.68.89.82,1.19,1.57,2.41,2.24,3.66-1.32-.03-2.62-.16-3.92-.42-1.87-.38-2.67,2-.8,2.38,2.2.45,4.43.61,6.69.48.13,3.9.19,7.8.17,11.7-.11-.6-.63-1.22-1.48-1.17-3.41.2-6.11,1.84-8.2,3.98-2.09,2.15-4.16,4.54-5.61,7.02-1.44,2.46-2.28,5.4-1.15,8.06.95,2.24,3.21,4.13,6.12,4.55.25.04.49.02.7-.03.21,1.04.64,2.08,1.74,2.51,1.8.7,3.46-.65,4.38-1.79.4-.5.74-1.13,1.14-1.72-.11,3.39.7,6.73,2.43,9.89.79,1.44,3.38.19,2.59-1.24-1.89-3.44-2.52-7.33-1.79-11.06.19-.97-.65-1.69-1.85-1.52-2.68.38-3.66,2.45-4.91,4.14-.13.18-.26.36-.42.52-.07.07-.15.13-.23.19-.04-.18-.09-.38-.1-.42-.08-.32-.13-.65-.17-.97-.16-1.26-.11-2.52-.08-3.78.03-1.25.06-2.49.09-3.74.03-1.17-.21-2.58.11-3.72.15-.53.61-.54,1.2-.55.04,0,.22.01.39.02,0,.15.02.3.02.44.06,1.31,0,2.62-.13,3.93-.16,1.58,2.84,1.57,3,0,.1-.98.16-1.96.15-2.95,0-.8.1-1.76-.21-2.54-.1-.25-.26-.45-.45-.62.03-.1.06-.22.05-.34-.01-1.38.43-2.6,1.31-3.77.6-.79,1.19-1.58,1.35-2.48-.02,2.46-.05,4.92-.12,7.38-.05,1.59,2.95,1.59,3,0,.2-6.71.18-13.43-.05-20.15-.02-.69-.6-1.07-1.24-1.17ZM630.4,391.61c-.08-.24-.14-.48-.18-.72-.07-.33-.11-.67-.15-1.01.19.42.28.91.31,1.33.01.13.02.26.02.39ZM627.84,404.16c-1.85.27-2.91,1.4-3.07,2.9-.2,1.82-.11,3.7-.15,5.52-.04,1.59-.13,3.2-.04,4.79-1.99-.41-3.41-1.72-3.88-3.38-.64-2.24.36-4.56,1.68-6.49,1.27-1.87,2.8-3.7,4.39-5.4,1.09-1.17,2.45-2.32,4.09-2.94-.39.53-.86,1.05-1.13,1.56-.57,1.07-.85,2.2-.9,3.35-.34.01-.68.04-.99.09Z"/><path class="cls-1" d="M619.48,360.96c1.67,0,3.33.06,5,.17.7.05,1.39.1,2.08.17-.03.15-.06.3-.09.45-.48,2.06-1.2,4.06-1.19,6.13-.31.15-.56.38-.68.72-.69,1.91-1.28,3.85-1.77,5.8-.18.14-.32.32-.37.53-.18.73-.27,1.45-.24,2.19.02.61.55,1.14,1.3,1.21.68.07,1.52-.27,1.65-.88.49-2.35,1.14-4.68,1.91-6.98,0,0,.01,0,.02,0,1,.18,2.02.24,3.07.26,1.42.02,2.85,0,4.04.72.91.54,2.32-.18,2.26-1.06-.15-2.06-.54-4.1-1.2-6.09-.51-1.53-3.4-.88-2.89.66.38,1.16.66,2.33.86,3.52-.71-.12-1.44-.17-2.16-.19-.91-.03-1.89.02-2.82-.09-.08-1.04.13-2.09.39-3.1.18-.7.39-1.39.57-2.08.19-.73.44-1.52.44-2.26,0-.88-.69-1.61-1.76-1.78-.93-.14-1.91-.19-2.85-.26-1.85-.14-3.71-.2-5.56-.21-1.93,0-1.93,2.46,0,2.47ZM627.18,361.36s0,0,0,0c.03,0,.03,0,0,0Z"/><path class="cls-1" d="M636.73,358.47c.04-5.5.09-11,.13-16.5,0-1.27-2-1.61-2.8-.62-2.62,3.27-5.61,6.91-10.67,7.6-1.45.2-1.41,2.15,0,2.38,3.78.6,5.42,4.18,8.09,6.09.78.55,1.74.31,2.25-.19,0,.41,0,.83,0,1.24-.01,1.59,2.99,1.59,3,0ZM633.61,355.68c-2.19-1.56-3.68-3.83-5.89-5.32,2.42-1.02,4.4-2.66,6.11-4.46-.03,3.3-.05,6.61-.08,9.91-.05-.04-.09-.08-.14-.13Z"/><path class="cls-1" d="M622.65,344.41c2,.48,4.1.73,6.18.75.78.01,1.54-.57,1.5-1.23-.04-.68-.66-1.22-1.5-1.23-.48,0-.96-.02-1.44-.06-.24-.02-.48-.03-.72-.06-.09,0-.18-.02-.28-.03-.05,0-.1-.01-.15-.02-.95-.12-1.89-.29-2.81-.51-.75-.18-1.67.22-1.85.86-.18.66.24,1.33,1.05,1.52Z"/><path class="cls-1" d="M638.25,336.87c-4.82-.66-9.67-1.15-14.54-1.46-.81-.05-1.5.6-1.5,1.23,0,.71.69,1.18,1.5,1.23,4.6.3,9.18.75,13.74,1.37.8.11,1.61-.17,1.84-.86.2-.59-.24-1.41-1.05-1.52Z"/><path class="cls-1" d="M623.96,332.91c-.01.72.99,1.5,1.9,1.19.92-.32,1.3-.8,1.76-1.5.3-.45.6-.91.9-1.36.83.11,1.78-.28,1.79-1.17.04-2.41.22-4.85.12-7.26-.03-.6-.25-1.15-.85-1.52-.57-.35-1.3-.42-1.98-.5-1.48-.18-2.97-.25-4.47-.18-.89.04-1.81.76-1.45,1.56,1.58,3.44,2.36,7.06,2.29,10.74ZM626.68,323.15c.2.02.41.05.61.08.04,0,.08.01.12.02,0,.02,0,.05,0,.07,0,.25,0,.51-.01.76-.03,1.58-.05,3.17-.08,4.75-.21.02-.41.08-.6.19-.27-2.02-.77-4.02-1.52-5.96.49.02.98.04,1.47.09Z"/><path class="cls-1" d="M632.64,332.98c1.29,0,2.57,0,3.86.01,1.93,0,1.93-2.46,0-2.47-.67,0-1.35,0-2.02,0,.62-2.82.69-5.7.73-8.56.02-1.59-2.98-1.59-3,0-.05,3.17-.09,6.36-1.02,9.46-.23.78.45,1.56,1.45,1.56Z"/><path class="cls-1" d="M510.55,599.08c-2.17,2.26-4.42,4.44-6.76,6.53-.56.5-.52,1.54.05,2.07.63.57,1.47.58,2.07.05,2.34-2.09,4.59-4.26,6.76-6.53.52-.54.55-1.51-.05-2.07-.59-.54-1.52-.63-2.07-.05Z"/><path class="cls-1" d="M522.36,587.79c-.83-.75-1.76-1.2-2.78-1.61-.75-.3-1.64-.55-2.23-1.14-.58-.59-.77-1.51-1.08-2.25-.43-1.02-1.01-1.92-2.01-2.47-1.68-.92-3.08,1.58-1.38,2.51.61.34.78,1.15,1.02,1.76.25.66.55,1.3.95,1.87-1.61.15-3.19.53-4.68,1.17-.88.38-.88,1.66-.25,2.3.59.6,1.44,1.38,1.86,2.24-2.09.53-3.71,1.87-4.47,4.05-.26.73.37,1.61,1.09,1.81.83.24,1.51-.26,1.76-1,.26-.76.85-1.38,1.55-1.76.9-.49,2.28-.2,2.91-1.04.75-.99.15-2.53-.41-3.54-.21-.37-.46-.72-.72-1.06,2.45-.59,5.09-.37,7.53.56,1.38.53,2.42-1.45,1.35-2.42Z"/><path class="cls-1" d="M530.35,578.57c-1.3,1.3.82,3.42,2.12,2.12,1.3-1.3-.82-3.42-2.12-2.12Z"/><path class="cls-1" d="M560.8,547.86c-1.16-.71-2.7-.54-3.98-.51-2.66.07-5.46.41-7.64,1.94-.82.57-1.75,1.33-2,2.35-.14.56-.05,1.18.21,1.71.35.7,1.09.97,1.47,1.59.01.02.02.05.03.07-.03,0-.06-.01-.09-.02-2.85-.49-6.22.21-8.75,1.39-2.57,1.2-4.21,3.65-3.74,6.59.3,1.87,3.11,1.18,2.81-.67-.56-3.47,5.26-4.4,7.64-4.51.31-.01.79-.02,1.3.03-.64.88-1.38,1.68-1.83,2.69-.39.88-.7,2.03-.33,3,.47,1.27,1.99,1.68,3.17,1.39,2.02-.49,3.75-2.8,4.2-4.76.36-1.6-.27-2.89-1.35-3.78.07-.52.07-1.05-.05-1.57-.16-.7-.49-1.34-.99-1.87-.18-.19-.42-.44-.66-.62.11-.11.21-.22.33-.32,1.3-1.08,3.08-1.47,4.75-1.62.98-.09,1.97-.1,2.96-.09.19,0,.4.03.58,0,.03,0,.04,0,.07,0-.12.38-.16.86-.24,1.21-.39,1.55-.88,3.06-1.43,4.56-.9-.95-1.71-1.97-2.4-3.1-1.01-1.64-3.52-.26-2.51,1.38,1.19,1.92,2.63,3.64,4.34,5.12-3.1,3.29-6.25,6.52-9.46,9.7.41-.58.55-1.44-.09-2.01-2.57-2.25-5.83-2.82-9.05-2.54-3.23.28-6.66.78-9.72,1.78-3.03.99-6.03,2.81-7.41,5.79-1.16,2.51-1.11,5.65.61,8.05.15.21.33.36.51.47-.71,1-1.25,2.16-.82,3.28.7,1.85,2.97,1.91,4.56,1.64.69-.12,1.45-.4,2.21-.6-2.85,2.7-5.01,6.01-6.37,9.81-.62,1.74,2.23,2.55,2.85.81,1.48-4.15,4.22-7.78,7.78-10.32.93-.66.92-1.84-.06-2.55-2.2-1.58-4.59-.58-6.86-.09-.24.05-.48.11-.73.13-.11,0-.21,0-.32,0,.12-.18.24-.37.27-.41.21-.32.43-.62.67-.92.92-1.14,1.99-2.14,3.04-3.16,1.04-1,2.08-2,3.13-3,.98-.94,1.96-2.27,3.12-2.97.54-.33.87-.01,1.3.41.03.02.14.16.26.29-.11.13-.23.26-.35.38-1.03,1.11-2.15,2.15-3.31,3.12-1.41,1.18.72,3.29,2.12,2.12.87-.73,1.72-1.49,2.52-2.3.66-.66,1.51-1.37,1.93-2.23.14-.28.18-.55.19-.82.11-.06.22-.14.32-.24,1.13-1.14,2.43-1.82,4.02-2.16,1.07-.23,2.14-.45,2.98-1.08-2.02,2-4.06,3.99-6.13,5.95-1.33,1.27.79,3.39,2.12,2.12,5.64-5.35,11.13-10.87,16.46-16.53.54-.58.45-1.3.08-1.83.04-.06.09-.12.12-.19,1.12-2.73,2.19-5.6,2.71-8.54.2-1.14.04-2.28-1.08-2.96ZM549.07,561.53c.14-.25.3-.49.46-.72.23-.32.47-.63.72-.93-.21.48-.55.94-.87,1.31-.1.11-.2.23-.3.34ZM537.76,570.62c-.25-.23-.51-.45-.77-.63-1.53-1.08-3.2-.91-4.55.2-1.63,1.35-3.1,2.95-4.63,4.41-1.33,1.28-2.71,2.52-3.95,3.9-1.07-1.74-1-3.82.02-5.51,1.38-2.29,3.99-3.47,6.5-4.13,2.43-.63,5.01-1.05,7.53-1.32,1.73-.19,3.63-.17,5.31.49-.71.16-1.47.25-2.08.48-1.28.47-2.4,1.2-3.38,2.11Z"/><path class="cls-1" d="M572.29,541.09c-.68,1.22-1.44,2.38-2.27,3.49-.4-.6-.88-1.15-1.37-1.68-.62-.66-1.35-1.32-1.92-2.06.8-.9,1.8-1.62,2.81-2.26.7-.44,1.41-.86,2.1-1.3.73-.46,1.56-.93,2.17-1.54.73-.72.84-1.81.21-2.7-.54-.78-1.19-1.51-1.8-2.23-1.2-1.42-2.45-2.79-3.76-4.1-1.36-1.37-3.38.65-2.02,2.02,1.18,1.18,2.31,2.41,3.4,3.67.45.53.9,1.07,1.33,1.61-.14.1-.29.2-.43.3-2.02,1.34-4.17,2.48-5.86,4.18-.34-.1-.71-.08-1.07.11-2.06,1.08-4.06,2.25-6,3.5-.25-.01-.49.04-.7.17-.72.47-1.38,1-1.97,1.62-.48.52-.54,1.32-.07,1.91.42.53,1.29.85,1.89.44,2.28-1.58,4.64-3.03,7.07-4.36,0,0,0,0,.01.01.56.85,1.24,1.63,1.96,2.38.98,1.02,2.01,2.01,2.27,3.44.2,1.09,1.79,1.49,2.47.72,1.58-1.79,2.97-3.74,4.13-5.83.89-1.61-1.68-3.12-2.58-1.51ZM571.56,534.48s0,0,0-.01c.02.02.02.03,0,.01Z"/><path class="cls-1" d="M592.81,522.98c-4.53.82-9.62,1.69-13.77-1.33-1.19-.86-2.76.76-1.95,1.95,2.19,3.16.41,7.26.73,10.71.1,1,.98,1.49,1.75,1.44-.34.34-.68.67-1.02,1.01-1.31,1.29.81,3.41,2.12,2.12,4.53-4.47,9.06-8.94,13.6-13.41,1.05-1.03-.09-2.74-1.47-2.49ZM580.95,525.86c2.55.87,5.28.93,7.98.67-2.72,2.69-5.45,5.37-8.17,8.06,0-.07,0-.13,0-.2-.27-2.82.53-5.74.19-8.52Z"/><path class="cls-1" d="M586.58,518.77c-.06-.07-.12-.15-.17-.22-.03-.04-.06-.08-.09-.12-.57-.77-1.1-1.57-1.57-2.4-.39-.68-1.36-1-2.01-.6-.67.41-.91,1.26-.5,1.98,1.03,1.81,2.3,3.49,3.75,4.99.55.56,1.56.62,2.07.05.53-.58.53-1.47-.05-2.07-.33-.34-.66-.7-.97-1.06-.16-.18-.31-.37-.46-.55Z"/><path class="cls-1" d="M590.35,510.8c-.53-.61-1.55-.57-2.07-.05-.58.58-.48,1.45.05,2.07,3.01,3.5,5.88,7.11,8.59,10.84.48.65,1.28,1,2.01.6.62-.34.98-1.32.5-1.98-2.87-3.94-5.9-7.78-9.08-11.47Z"/><path class="cls-1" d="M602.04,498.25c-.66-.59-1.91-.66-2.3.25-1.7,3.94-4.11,7.45-7.17,10.41-.6.58-.53,1.93.37,2.32.91.39,1.57.26,2.47.02.58-.16,1.16-.32,1.74-.48.5.67,1.49,1.03,2.23.31,2-1.94,4.12-3.81,6.02-5.86.48-.51.76-1.12.64-1.85-.11-.69-.57-1.26-.99-1.81-.9-1.2-1.89-2.31-3.01-3.31ZM602.23,504.13c-1.31,1.28-2.63,2.56-3.94,3.83-.16-.13-.35-.23-.57-.27,1.46-1.84,2.74-3.84,3.8-5.95.33.36.67.73.97,1.12.13.16.25.33.37.5.02.03.05.07.07.1-.02.02-.04.05-.05.06-.21.2-.42.41-.63.62Z"/><path class="cls-1" d="M607.37,505.79c-2.63,2.56-5.27,5.14-8.46,7.02-.8.47-.96,1.6-.25,2.3.91.91,1.81,1.83,2.72,2.74,1.36,1.37,3.38-.65,2.02-2.02-.47-.48-.95-.95-1.42-1.43,2.74-1.87,5.15-4.17,7.52-6.49,1.32-1.28-.8-3.41-2.12-2.12Z"/><path class="cls-1" d="M329.93,629.72c-2.71.07-5.41.01-8.11-.17-.65-.04-1.26.72-1.23,1.5.03.85.54,1.45,1.23,1.5,2.7.18,5.41.23,8.11.17.64-.02,1.26-.68,1.23-1.5-.03-.8-.54-1.52-1.23-1.5Z"/><path class="cls-1" d="M341.74,630.84c.52,1.35,2.36.68,2.3-.76-.05-1.12-.34-2.09-.71-3.1-.27-.74-.66-1.55-.66-2.38,0-.83.45-1.61.71-2.35.36-1.02.56-2.07.28-3.16-.46-1.84-2.85-1.06-2.38.8.17.67-.23,1.37-.45,1.96-.25.64-.46,1.31-.56,2-1.07-1.03-2.28-1.88-3.57-2.48-.77-.35-1.55.55-1.56,1.45,0,.85.03,1.99-.23,2.9-1.6-1.1-3.41-1.31-5.2-.3-.6.34-.76,1.4-.44,2.05.36.76,1.08.88,1.69.54.62-.35,1.36-.37,2.02-.15.85.29,1.51,1.47,2.41,1.32,1.06-.17,1.64-1.68,1.91-2.79.1-.41.16-.84.21-1.26,1.86,1.32,3.34,3.34,4.26,5.72Z"/><path class="cls-1" d="M354.55,629.21c-1.59,0-1.59,3,0,3s1.59-3,0-3Z"/><path class="cls-1" d="M389.78,625.85c-1.66-1.83-3.58-3.57-5.85-4.03-.85-.17-1.88-.3-2.66.25-.43.3-.75.8-.91,1.36-.21.74.07,1.46-.07,2.16,0,.03-.02.05-.03.08-.01-.02-.03-.05-.04-.08-1.45-2.36-3.92-4.25-6.19-5.2-2.3-.97-4.8-.4-6.31,2.02-.96,1.54,1.18,3.03,2.13,1.51,1.78-2.85,5.9.61,7.42,2.21.2.21.49.55.78.94-.93.17-1.87.21-2.77.61-.78.35-1.66.94-2.04,1.89-.49,1.23.19,2.59,1.09,3.22,1.54,1.08,4,.67,5.47-.4,1.21-.88,1.6-2.25,1.48-3.66.36-.32.69-.67.93-1.11.33-.6.52-1.29.54-2.02,0-.26.01-.61-.02-.9.13,0,.26,0,.4.01,1.45.15,2.78,1.14,3.89,2.21.65.63,1.26,1.32,1.86,2.03.11.13.23.3.35.42.02.02.03.03.05.04-.3.18-.62.5-.89.68-1.19.82-2.41,1.57-3.66,2.24.03-1.32.16-2.62.42-3.92.38-1.87-2-2.67-2.38-.8-.45,2.2-.61,4.43-.48,6.69-3.9.13-7.8.19-11.7.17.6-.11,1.22-.63,1.17-1.49-.2-3.41-1.84-6.11-3.98-8.2-2.15-2.09-4.54-4.16-7.02-5.61-2.46-1.44-5.4-2.28-8.06-1.15-2.24.95-4.13,3.21-4.55,6.12-.04.25-.02.49.03.7-1.04.21-2.08.64-2.51,1.74-.7,1.8.65,3.46,1.78,4.38.5.4,1.13.74,1.72,1.14-3.39-.11-6.73.7-9.89,2.43-1.44.79-.19,3.38,1.24,2.59,3.44-1.89,7.33-2.52,11.06-1.79.97.19,1.69-.65,1.52-1.85-.38-2.68-2.45-3.66-4.14-4.91-.18-.13-.36-.26-.52-.42-.07-.07-.13-.15-.19-.23.18-.04.38-.09.42-.1.32-.08.65-.13.97-.17,1.26-.16,2.52-.11,3.78-.08,1.25.03,2.49.06,3.74.09,1.17.03,2.58-.21,3.72.11.53.15.54.61.55,1.2,0,.04-.01.22-.02.39-.15,0-.3.02-.44.02-1.31.06-2.62,0-3.93-.13-1.58-.16-1.57,2.84,0,3,.98.1,1.96.16,2.95.15.8,0,1.76.1,2.54-.21.25-.1.45-.26.62-.45.1.03.22.06.34.05,1.38-.01,2.59.43,3.77,1.31.79.6,1.58,1.19,2.48,1.35-2.46-.02-4.92-.05-7.38-.12-1.59-.05-1.59,2.95,0,3,6.71.2,13.43.18,20.15-.05.69-.02,1.07-.6,1.17-1.24.06-.01.12-.02.19-.05,2.35-1.13,4.76-2.42,6.87-4.12.82-.66,1.41-1.58,1.15-2.85-.27-1.33-1.32-2.29-2.12-3.17ZM376.39,630.4c.24-.08.48-.14.72-.18.33-.07.67-.11,1.01-.15-.42.19-.91.28-1.33.31-.13.01-.26.02-.39.02ZM363.93,628.83c-.01-.34-.04-.68-.09-.99-.27-1.85-1.4-2.91-2.9-3.07-1.82-.2-3.7-.11-5.52-.15-1.59-.04-3.2-.13-4.79-.04.41-1.99,1.72-3.41,3.38-3.88,2.24-.64,4.56.36,6.49,1.68,1.87,1.27,3.7,2.8,5.4,4.39,1.17,1.09,2.32,2.45,2.94,4.09-.53-.39-1.05-.86-1.56-1.13-1.07-.57-2.2-.85-3.35-.9Z"/><path class="cls-1" d="M409.03,627.89c.14-.93.19-1.91.26-2.85.14-1.85.2-3.71.21-5.56,0-1.93-2.46-1.93-2.47,0,0,1.67-.06,3.33-.17,5-.05.7-.11,1.39-.17,2.08-.15-.03-.3-.06-.45-.09-2.06-.48-4.06-1.2-6.13-1.19-.15-.31-.38-.56-.72-.68-1.91-.69-3.85-1.28-5.8-1.77-.14-.18-.32-.32-.53-.37-.73-.18-1.45-.27-2.19-.24-.61.02-1.14.55-1.21,1.3-.07.68.27,1.52.88,1.65,2.35.49,4.68,1.14,6.98,1.91,0,0,0,.01,0,.02-.18,1-.24,2.02-.26,3.07-.02,1.42,0,2.85-.72,4.04-.54.91.18,2.32,1.06,2.26,2.06-.15,4.1-.54,6.09-1.2,1.53-.51.88-3.4-.66-2.89-1.16.38-2.33.66-3.52.86.12-.71.17-1.44.19-2.16.03-.91-.02-1.89.09-2.82,1.04-.08,2.09.13,3.1.39.7.18,1.39.39,2.08.57.73.19,1.52.44,2.26.44.88,0,1.61-.69,1.78-1.76ZM406.64,627.18s0,0,0,0c0,.03,0,.03,0,0Z"/><path class="cls-1" d="M419.05,623.39c-.2-1.45-2.16-1.41-2.38,0-.6,3.79-4.19,5.42-6.09,8.09-.55.78-.31,1.74.19,2.25-.41,0-.83,0-1.24,0-1.59-.01-1.59,2.99,0,3,5.5.04,11,.09,16.5.13,1.27,0,1.61-2,.62-2.8-3.27-2.62-6.91-5.61-7.6-10.67ZM412.32,633.61c1.56-2.19,3.83-3.68,5.32-5.89,1.02,2.42,2.66,4.4,4.46,6.11-3.3-.03-6.61-.05-9.91-.08.04-.05.08-.09.13-.14Z"/><path class="cls-1" d="M424.07,630.34c.68-.04,1.22-.66,1.23-1.5,0-.48.02-.96.05-1.44.02-.24.03-.48.06-.72,0-.09.02-.19.03-.28,0-.05.01-.1.02-.15.12-.95.29-1.89.51-2.81.18-.75-.22-1.67-.86-1.85-.66-.18-1.33.24-1.52,1.05-.48,2-.73,4.1-.75,6.18-.01.78.57,1.54,1.23,1.5Z"/><path class="cls-1" d="M431.35,622.22c-.71,0-1.18.69-1.23,1.5-.3,4.6-.75,9.18-1.37,13.74-.11.8.17,1.61.86,1.85.59.2,1.41-.24,1.52-1.05.66-4.82,1.15-9.67,1.46-14.54.05-.81-.6-1.5-1.23-1.5Z"/><path class="cls-1" d="M445.83,621.67c-3.44,1.58-7.06,2.36-10.74,2.29-.72-.01-1.5.99-1.19,1.9.32.92.8,1.3,1.5,1.76.45.3.91.6,1.36.9-.11.83.28,1.78,1.17,1.79,2.41.04,4.85.22,7.26.12.6-.03,1.15-.25,1.52-.85.35-.57.42-1.3.5-1.98.18-1.48.25-2.97.18-4.47-.04-.89-.76-1.81-1.56-1.45ZM439.17,627.32c-.02-.21-.08-.41-.19-.6,2.02-.27,4.02-.77,5.96-1.52-.02.49-.04.98-.09,1.47-.02.2-.05.41-.08.61,0,.04-.01.08-.02.12-.02,0-.05,0-.07,0-.25,0-.51,0-.76-.01-1.58-.03-3.17-.05-4.75-.08Z"/><path class="cls-1" d="M446.04,632.21c-3.17-.05-6.36-.09-9.46-1.02-.78-.23-1.56.45-1.56,1.45,0,1.29,0,2.57-.01,3.86,0,1.93,2.46,1.93,2.47,0,0-.67,0-1.35,0-2.02,2.82.62,5.7.69,8.56.73,1.59.02,1.59-2.98,0-3Z"/><path class="cls-1" d="M162.39,503.79c-.5-.56-1.54-.52-2.07.05-.58.63-.58,1.47-.05,2.07,2.08,2.34,4.26,4.59,6.53,6.76.54.52,1.51.55,2.07-.05.54-.59.63-1.52.05-2.07-2.26-2.17-4.44-4.42-6.53-6.76Z"/><path class="cls-1" d="M172.72,511.71c.49.9.2,2.28,1.04,2.91.99.75,2.53.15,3.54-.41.37-.21.72-.46,1.06-.72.59,2.45.37,5.09-.56,7.53-.53,1.38,1.45,2.42,2.42,1.35.75-.83,1.2-1.76,1.61-2.78.3-.75.55-1.64,1.14-2.23.59-.58,1.51-.77,2.25-1.08,1.02-.43,1.92-1.01,2.47-2.01.92-1.68-1.58-3.08-2.51-1.38-.34.61-1.15.78-1.76,1.02-.66.25-1.3.55-1.87.95-.15-1.61-.53-3.19-1.17-4.68-.38-.88-1.66-.88-2.3-.25-.6.59-1.38,1.44-2.24,1.86-.53-2.09-1.87-3.71-4.05-4.47-.73-.26-1.61.37-1.81,1.09-.24.83.26,1.51,1,1.76.76.26,1.38.85,1.76,1.55Z"/><path class="cls-1" d="M189.43,530.35c-1.3-1.3-3.42.82-2.12,2.12,1.3,1.3,3.42-.82,2.12-2.12Z"/><path class="cls-1" d="M220.14,560.8c.71-1.16.54-2.7.51-3.98-.07-2.66-.41-5.46-1.94-7.64-.57-.82-1.33-1.75-2.35-2-.56-.14-1.18-.05-1.71.21-.7.35-.97,1.09-1.59,1.47-.02.01-.05.02-.07.03,0-.03.01-.06.02-.09.49-2.85-.21-6.22-1.39-8.75-1.2-2.57-3.65-4.21-6.59-3.74-1.87.3-1.18,3.11.67,2.81,3.47-.56,4.4,5.26,4.51,7.64.01.31.02.79-.03,1.3-.88-.64-1.68-1.38-2.69-1.83-.88-.39-2.03-.7-3-.33-1.27.47-1.68,1.99-1.39,3.17.49,2.02,2.8,3.75,4.76,4.2,1.6.36,2.89-.27,3.78-1.35.52.07,1.05.07,1.57-.05.7-.16,1.34-.49,1.87-.99.19-.18.44-.42.62-.66.11.11.22.21.32.33,1.08,1.3,1.47,3.08,1.62,4.75.09.98.1,1.97.09,2.96,0,.19-.03.4,0,.58,0,.03,0,.04,0,.07-.38-.12-.86-.16-1.21-.24-1.55-.39-3.06-.88-4.56-1.43.95-.9,1.97-1.71,3.1-2.4,1.64-1.01.26-3.52-1.38-2.51-1.92,1.19-3.64,2.63-5.12,4.34-3.29-3.1-6.52-6.25-9.7-9.46.57.41,1.44.55,2.01-.09,2.25-2.57,2.82-5.83,2.54-9.05-.28-3.23-.78-6.66-1.78-9.72-.99-3.03-2.81-6.03-5.79-7.41-2.51-1.16-5.65-1.11-8.05.61-.21.15-.36.33-.47.51-1-.71-2.16-1.25-3.28-.82-1.85.7-1.91,2.97-1.64,4.56.12.69.41,1.45.6,2.21-2.7-2.85-6.01-5.01-9.81-6.37-1.74-.62-2.55,2.23-.81,2.85,4.15,1.48,7.78,4.22,10.32,7.78.66.93,1.84.92,2.55-.06,1.58-2.2.58-4.59.09-6.86-.05-.24-.11-.48-.13-.73,0-.11,0-.21,0-.32.18.12.37.24.41.27.32.21.62.43.92.67,1.14.92,2.14,1.99,3.16,3.04,1,1.04,2,2.08,3,3.12.94.98,2.27,1.96,2.97,3.12.33.54.01.87-.41,1.3-.02.03-.16.14-.29.26-.13-.11-.26-.23-.38-.35-1.11-1.03-2.15-2.14-3.12-3.31-1.18-1.41-3.29.72-2.12,2.12.73.87,1.49,1.72,2.3,2.52.66.66,1.37,1.51,2.23,1.93.28.14.55.18.82.19.06.11.14.22.24.32,1.14,1.13,1.82,2.43,2.16,4.02.23,1.07.45,2.14,1.08,2.99-2-2.02-3.99-4.06-5.95-6.13-1.27-1.33-3.39.79-2.12,2.12,5.35,5.64,10.87,11.13,16.53,16.46.58.54,1.3.45,1.83.08.06.04.12.09.19.12,2.73,1.12,5.6,2.18,8.54,2.71,1.14.2,2.28.04,2.96-1.08ZM206.81,549.38c-.11-.1-.23-.2-.34-.3.25.14.49.3.72.46.32.23.63.47.94.72-.48-.21-.94-.55-1.31-.87ZM193.39,527.81c-1.28-1.33-2.52-2.71-3.9-3.95,1.74-1.07,3.82-1,5.51.02,2.29,1.38,3.47,3.99,4.13,6.5.63,2.43,1.05,5.01,1.32,7.53.19,1.73.17,3.63-.49,5.31-.16-.71-.25-1.47-.48-2.08-.47-1.28-1.2-2.4-2.11-3.38.23-.25.45-.51.63-.77,1.08-1.53.91-3.2-.2-4.55-1.35-1.63-2.95-3.1-4.41-4.63Z"/><path class="cls-1" d="M226.91,572.29c-1.22-.68-2.38-1.44-3.49-2.27.6-.4,1.15-.88,1.68-1.37.66-.62,1.32-1.35,2.06-1.92.9.79,1.62,1.8,2.26,2.81.44.7.86,1.41,1.3,2.1.46.73.93,1.56,1.54,2.17.72.73,1.81.84,2.7.21.78-.54,1.51-1.19,2.23-1.8,1.42-1.2,2.79-2.45,4.1-3.76,1.37-1.36-.65-3.38-2.02-2.02-1.18,1.18-2.41,2.31-3.67,3.4-.53.45-1.07.9-1.61,1.33-.1-.14-.2-.29-.3-.43-1.34-2.02-2.48-4.17-4.18-5.86.1-.34.08-.71-.11-1.07-1.08-2.06-2.25-4.06-3.5-6,.01-.25-.04-.49-.17-.7-.47-.72-1-1.38-1.62-1.97-.52-.48-1.32-.54-1.91-.07-.53.42-.85,1.29-.44,1.89,1.58,2.28,3.03,4.64,4.36,7.07,0,0,0,0-.01.01-.85.56-1.63,1.24-2.38,1.96-1.02.98-2.01,2.01-3.44,2.27-1.09.2-1.49,1.79-.72,2.47,1.79,1.58,3.74,2.97,5.83,4.13,1.61.89,3.13-1.68,1.51-2.58ZM233.53,571.56s-.03.02-.01,0c0,0,0,0,.01,0Z"/><path class="cls-1" d="M245.02,592.81c-.82-4.53-1.69-9.62,1.33-13.77.86-1.19-.76-2.76-1.95-1.95-3.16,2.19-7.26.41-10.71.73-1,.1-1.49.98-1.44,1.75-.34-.34-.67-.68-1.01-1.02-1.29-1.31-3.41.81-2.12,2.12,4.47,4.53,8.94,9.06,13.41,13.6,1.03,1.05,2.74-.09,2.49-1.47ZM233.62,580.76c2.82-.27,5.74.53,8.52.19-.87,2.55-.93,5.28-.67,7.98-2.69-2.72-5.37-5.45-8.06-8.17.07,0,.13,0,.2,0Z"/><path class="cls-1" d="M250.59,582.24c-1.81,1.03-3.49,2.3-4.99,3.75-.56.55-.62,1.56-.05,2.07.58.53,1.47.53,2.07-.05.34-.33.7-.66,1.06-.97.18-.16.37-.31.55-.46.07-.06.14-.12.22-.17.04-.03.08-.06.12-.09.77-.57,1.57-1.1,2.4-1.57.68-.39,1-1.36.6-2.01-.41-.67-1.25-.91-1.98-.5Z"/><path class="cls-1" d="M257.25,588.28c-.58-.58-1.45-.48-2.07.05-3.5,3.01-7.11,5.88-10.84,8.59-.65.48-1,1.28-.6,2.01.34.62,1.32.98,1.98.5,3.94-2.87,7.78-5.9,11.47-9.08.61-.53.57-1.56.05-2.07Z"/><path class="cls-1" d="M269.49,599.74c-3.94-1.7-7.45-4.11-10.41-7.17-.58-.6-1.93-.53-2.32.37-.39.91-.26,1.58-.02,2.47.16.58.32,1.16.48,1.74-.67.5-1.03,1.49-.31,2.23,1.94,2,3.81,4.12,5.86,6.02.51.48,1.12.77,1.85.64.69-.11,1.26-.57,1.81-.99,1.2-.9,2.31-1.89,3.31-3.01.59-.66.66-1.91-.25-2.3ZM264.64,602.85s-.07.05-.1.07c-.02-.02-.05-.04-.06-.05-.21-.21-.41-.42-.62-.63-1.28-1.31-2.56-2.63-3.83-3.94.13-.16.23-.35.27-.57,1.84,1.46,3.84,2.74,5.95,3.8-.36.33-.73.67-1.12.97-.16.13-.33.25-.5.37Z"/><path class="cls-1" d="M255.19,598.91c-.47-.8-1.6-.96-2.3-.25-.91.91-1.83,1.81-2.74,2.72-1.37,1.36.65,3.38,2.02,2.02.48-.47.96-.95,1.43-1.42,1.87,2.74,4.17,5.15,6.49,7.52,1.28,1.32,3.41-.81,2.12-2.12-2.56-2.63-5.14-5.27-7.02-8.46Z"/><path class="cls-1" d="M480.21,607.56h-192.42l-127.35-127.35v-192.43l.59-.59,126.76-126.76h192.42l127.35,127.35v192.43l-.59.59-126.76,126.76ZM289.44,603.56h189.11l125-125v-189.11l-125-125h-189.11l-125,125v189.11l125,125Z"/><path class="cls-1" d="M95.6,382.67c-.3-.34-7.08-7.8-16.02-8.83v-3.28c.27-3.67,6.11-4.46,6.11-4.46v-2.26h-16.28v2.26s5.85.79,6.11,4.47v3.28c-8.94,1.03-15.72,8.49-16.02,8.83l-1.19,1.33,1.19,1.33c.3.34,7.08,7.8,16.02,8.83v3.28c-.26,3.68-6.11,4.47-6.11,4.47v2.26h16.28v-2.26s-5.84-.79-6.11-4.46v-3.28c8.94-1.03,15.72-8.49,16.02-8.83l1.19-1.33-1.19-1.33ZM63.84,384c2.13-1.94,6.54-5.37,11.68-6.13v12.26c-5.14-.76-9.55-4.2-11.68-6.13ZM79.58,390.13v-12.26c5.14.76,9.55,4.2,11.68,6.13-2.13,1.94-6.54,5.37-11.68,6.13Z"/><path class="cls-1" d="M89.08,210.27c0-1.31-.22-2.57-.63-3.74.04.36.05.72.05,1.09,0,6.05-4.91,10.96-10.96,10.96s-10.96-4.91-10.96-10.96c0-.37.02-.73.05-1.09-.4,1.17-.62,2.43-.62,3.74,0,5.68,4.12,10.39,9.53,11.34v134.32s4,1.85,4-20.92v-113.4c5.41-.95,9.53-5.66,9.53-11.34Z"/><path class="cls-1" d="M67.47,229.92v-1h-16.03v1s5.75,1.01,6.02,5.7v61.91c-.26,4.69-6.02,5.7-6.02,5.7v1h16.03v-1s-5.75-1.01-6.01-5.69v-61.93c.27-4.69,6.01-5.69,6.01-5.69Z"/><path class="cls-1" d="M100.13,253.93s-1.01,5.75-5.7,6.02h-51.91c-4.69-.26-5.7-6.02-5.7-6.02h-1v16.03h1s1.01-5.75,5.69-6.01h51.93c4.69.27,5.69,6.01,5.69,6.01h1v-16.03h-1Z"/><path class="cls-1" d="M89.08,557.73c0,1.31-.22,2.57-.63,3.74.04-.36.05-.72.05-1.09,0-6.05-4.91-10.96-10.96-10.96-6.05,0-10.96,4.91-10.96,10.96,0,.37.02.73.05,1.09-.4-1.17-.62-2.43-.62-3.74,0-5.68,4.12-10.39,9.53-11.34v-134.32s4-1.85,4,20.92c0,21.05,0,101.38,0,113.4,5.41.95,9.53,5.66,9.53,11.34Z"/><path class="cls-1" d="M67.47,538.08v1h-16.03v-1s5.75-1.01,6.02-5.7v-61.91c-.26-4.69-6.02-5.7-6.02-5.7v-1h16.03v1s-5.75,1.01-6.01,5.69v61.93c.27,4.69,6.01,5.69,6.01,5.69Z"/><path class="cls-1" d="M100.13,514.07s-1.01-5.75-5.7-6.02h-51.91c-4.69.26-5.7,6.02-5.7,6.02h-1v-16.03h1s1.01,5.75,5.69,6.01h51.93c4.69-.27,5.69-6.01,5.69-6.01h1v16.03h-1Z"/><path class="cls-1" d="M671.21,384l1.19,1.33c.3.34,7.08,7.8,16.02,8.83v3.28c-.27,3.67-6.11,4.46-6.11,4.46v2.26s16.28,0,16.28,0v-2.26s-5.85-.79-6.11-4.47v-3.28c8.94-1.03,15.72-8.49,16.02-8.83l1.19-1.33-1.19-1.33c-.3-.34-7.08-7.8-16.02-8.83v-3.28c.26-3.68,6.11-4.47,6.11-4.47v-2.26s-16.28,0-16.28,0v2.26s5.84.79,6.11,4.46v3.28c-8.94,1.03-15.72,8.49-16.02,8.83l-1.19,1.33ZM692.48,390.13v-12.26c5.14.76,9.55,4.2,11.68,6.13-2.13,1.94-6.54,5.37-11.68,6.13ZM676.74,384c2.13-1.94,6.54-5.37,11.68-6.13v12.26c-5.14-.76-9.55-4.2-11.68-6.13Z"/><path class="cls-1" d="M678.92,210.27c0-1.31.22-2.57.63-3.74-.04.36-.05.72-.05,1.09,0,6.05,4.91,10.96,10.96,10.96s10.96-4.91,10.96-10.96c0-.37-.02-.73-.05-1.09.4,1.17.62,2.43.62,3.74,0,5.68-4.12,10.39-9.53,11.34v134.32s-4,1.85-4-20.92c0-21.05,0-101.38,0-113.4-5.41-.95-9.53-5.66-9.53-11.34Z"/><path class="cls-1" d="M700.53,229.92v-1h16.03v1s-5.75,1.01-6.02,5.7v61.91c.26,4.69,6.02,5.7,6.02,5.7v1h-16.03v-1s5.75-1.01,6.01-5.69v-61.93c-.27-4.69-6.01-5.69-6.01-5.69Z"/><path class="cls-1" d="M667.87,253.93s1.01,5.75,5.7,6.02h51.91c4.69-.26,5.7-6.02,5.7-6.02h1v16.03h-1s-1.01-5.75-5.69-6.01h-51.93c-4.69.27-5.69,6.01-5.69,6.01h-1v-16.03h1Z"/><path class="cls-1" d="M678.92,557.73c0,1.31.22,2.57.63,3.74-.04-.36-.05-.72-.05-1.09,0-6.05,4.91-10.96,10.96-10.96s10.96,4.91,10.96,10.96c0,.37-.02.73-.05,1.09.4-1.17.62-2.43.62-3.74,0-5.68-4.12-10.39-9.53-11.34v-134.32s-4-1.85-4,20.92c0,21.05,0,101.38,0,113.4-5.41.95-9.53,5.66-9.53,11.34Z"/><path class="cls-1" d="M700.53,538.08v1h16.03v-1s-5.75-1.01-6.02-5.7v-61.91c.26-4.69,6.02-5.7,6.02-5.7v-1h-16.03v1s5.75,1.01,6.01,5.69v61.93c-.27,4.69-6.01,5.69-6.01,5.69Z"/><path class="cls-1" d="M667.87,514.07s1.01-5.75,5.7-6.02h51.91c4.69.26,5.7,6.02,5.7,6.02h1v-16.03h-1s-1.01,5.75-5.69,6.01h-51.93c-4.69-.27-5.69-6.01-5.69-6.01h-1v16.03h1Z"/><path class="cls-1" d="M385.33,95.6c.34-.3,7.8-7.08,8.83-16.02h3.28c3.67.27,4.46,6.11,4.46,6.11h2.26v-16.28h-2.26s-.79,5.85-4.47,6.11h-3.28c-1.03-8.94-8.49-15.72-8.83-16.02l-1.33-1.19-1.33,1.19c-.34.3-7.8,7.08-8.83,16.02h-3.28c-3.68-.26-4.47-6.11-4.47-6.11h-2.26v16.28h2.26s.79-5.84,4.46-6.11h3.28c1.03,8.94,8.49,15.72,8.83,16.02l1.33,1.19,1.33-1.19ZM384,63.84c1.94,2.13,5.37,6.54,6.13,11.68h-12.26c.76-5.14,4.2-9.55,6.13-11.68ZM377.87,79.58h12.26c-.76,5.14-4.2,9.55-6.13,11.68-1.94-2.13-5.37-6.54-6.13-11.68Z"/><path class="cls-1" d="M557.73,89.08c1.31,0,2.57-.22,3.74-.63-.36.04-.72.05-1.09.05-6.05,0-10.96-4.91-10.96-10.96s4.91-10.96,10.96-10.96c.37,0,.73.02,1.09.05-1.17-.4-2.43-.62-3.74-.62-5.68,0-10.39,4.12-11.34,9.53h-134.32s-1.85,4,20.92,4h113.4c.95,5.41,5.66,9.53,11.34,9.53Z"/><path class="cls-1" d="M538.08,67.47h1v-16.03h-1s-1.01,5.75-5.7,6.02h-61.91c-4.69-.26-5.7-6.02-5.7-6.02h-1v16.03h1s1.01-5.75,5.69-6.01h61.93c4.69.27,5.69,6.01,5.69,6.01Z"/><path class="cls-1" d="M514.07,100.13s-5.75-1.01-6.02-5.7v-51.91c.26-4.69,6.02-5.7,6.02-5.7v-1h-16.03v1s5.75,1.01,6.01,5.69v51.93c-.27,4.69-6.01,5.69-6.01,5.69v1h16.03v-1Z"/><path class="cls-1" d="M210.27,89.08c-1.31,0-2.57-.22-3.74-.63.36.04.72.05,1.09.05,6.05,0,10.96-4.91,10.96-10.96,0-6.05-4.91-10.96-10.96-10.96-.37,0-.73.02-1.09.05,1.17-.4,2.43-.62,3.74-.62,5.68,0,10.39,4.12,11.34,9.53h134.32s1.85,4-20.92,4c-21.05,0-101.38,0-113.4,0-.95,5.41-5.66,9.53-11.34,9.53Z"/><path class="cls-1" d="M229.92,67.47h-1v-16.03h1s1.01,5.75,5.7,6.02h61.91c4.69-.26,5.7-6.02,5.7-6.02h1v16.03h-1s-1.01-5.75-5.69-6.01h-61.93c-4.69.27-5.69,6.01-5.69,6.01Z"/><path class="cls-1" d="M253.93,100.13s5.75-1.01,6.02-5.7v-51.91c-.26-4.69-6.02-5.7-6.02-5.7v-1h16.03v1s-5.75,1.01-6.01,5.69v51.93c.27,4.69,6.01,5.69,6.01,5.69v1h-16.03v-1Z"/><path class="cls-1" d="M384,671.21l-1.33,1.19c-.34.3-7.8,7.08-8.83,16.02h-3.28c-3.67-.27-4.46-6.11-4.46-6.11h-2.26s0,16.28,0,16.28h2.26s.79-5.85,4.47-6.11h3.28c1.03,8.94,8.49,15.72,8.83,16.02l1.33,1.19,1.33-1.19c.34-.3,7.8-7.08,8.83-16.02h3.28c3.68.26,4.47,6.11,4.47,6.11h2.26s0-16.28,0-16.28h-2.26s-.79,5.84-4.46,6.11h-3.28c-1.03-8.94-8.49-15.72-8.83-16.02l-1.33-1.19ZM377.87,692.48h12.26c-.76,5.14-4.2,9.55-6.13,11.68-1.94-2.13-5.37-6.54-6.13-11.68ZM384,676.74c1.94,2.13,5.37,6.54,6.13,11.68h-12.26c.76-5.14,4.2-9.55,6.13-11.68Z"/><path class="cls-1" d="M557.73,678.92c1.31,0,2.57.22,3.74.63-.36-.04-.72-.05-1.09-.05-6.05,0-10.96,4.91-10.96,10.96s4.91,10.96,10.96,10.96c.37,0,.73-.02,1.09-.05-1.17.4-2.43.62-3.74.62-5.68,0-10.39-4.12-11.34-9.53h-134.32s-1.85-4,20.92-4c21.05,0,101.38,0,113.4,0,.95-5.41,5.66-9.53,11.34-9.53Z"/><path class="cls-1" d="M538.08,700.53h1v16.03h-1s-1.01-5.75-5.7-6.02h-61.91c-4.69.26-5.7,6.02-5.7,6.02h-1v-16.03h1s1.01,5.75,5.69,6.01h61.93c4.69-.27,5.69-6.01,5.69-6.01Z"/><path class="cls-1" d="M514.07,667.87s-5.75,1.01-6.02,5.7v51.91c.26,4.69,6.02,5.7,6.02,5.7v1h-16.03v-1s5.75-1.01,6.01-5.69v-51.93c-.27-4.69-6.01-5.69-6.01-5.69v-1h16.03v1Z"/><path class="cls-1" d="M210.27,678.92c-1.31,0-2.57.22-3.74.63.36-.04.72-.05,1.09-.05,6.05,0,10.96,4.91,10.96,10.96,0,6.05-4.91,10.96-10.96,10.96-.37,0-.73-.02-1.09-.05,1.17.4,2.43.62,3.74.62,5.68,0,10.39-4.12,11.34-9.53h134.32s1.85-4-20.92-4c-21.05,0-101.38,0-113.4,0-.95-5.41-5.66-9.53-11.34-9.53Z"/><path class="cls-1" d="M229.92,700.53h-1v16.03h1s1.01-5.75,5.7-6.02h61.91c4.69.26,5.7,6.02,5.7,6.02h1v-16.03h-1s-1.01,5.75-5.69,6.01h-61.93c-4.69-.27-5.69-6.01-5.69-6.01Z"/><path class="cls-1" d="M253.93,667.87s5.75,1.01,6.02,5.7v51.91c-.26,4.69-6.02,5.7-6.02,5.7v1h16.03v-1s-5.75-1.01-6.01-5.69v-51.93c.27-4.69,6.01-5.69,6.01-5.69v-1h-16.03v1Z"/><path class="cls-1" d="M116.17,247.25l2.07,12.07,45.45-45.45s-11.69-.92-20.82-8.67c-5.99-5.09-11.38-14.04-11.73-22.53-.54-13.34,4.28-26.86,14.47-37.04,10.18-10.18,23.7-15,37.04-14.47,8.49.35,17.45,5.74,22.54,11.73,7.75,9.13,8.67,20.82,8.67,20.82l45.45-45.45-12.07-2.07-29.93,29.93c-.19-.33-5.33-7.86-8.28-10.8-20.36-20.36-50.83-17.82-71.19,2.55-20.36,20.36-22.91,50.83-2.55,71.19,2.94,2.94,10.46,8.08,10.8,8.28l-29.93,29.93Z"/><path class="cls-1" d="M520.75,651.83l-12.07-2.07,45.45-45.45s.92,11.69,8.67,20.82c5.09,5.99,14.04,11.38,22.53,11.73,13.34.54,26.86-4.28,37.04-14.47,10.18-10.18,15-23.7,14.47-37.04-.35-8.49-5.74-17.45-11.73-22.54-9.13-7.75-20.82-8.67-20.82-8.67l45.45-45.45,2.07,12.07-29.93,29.93c.33.19,7.86,5.33,10.8,8.28,20.36,20.36,17.82,50.83-2.55,71.19-20.36,20.36-50.83,22.91-71.19,2.55-2.94-2.94-8.08-10.46-8.28-10.8l-29.93,29.93Z"/><path class="cls-1" d="M520.75,116.17l-12.07,2.07,45.45,45.45s.92-11.69,8.67-20.82c5.09-5.99,14.04-11.38,22.53-11.73,13.34-.54,26.86,4.28,37.04,14.47,10.18,10.18,15,23.7,14.47,37.04-.35,8.49-5.74,17.45-11.73,22.54-9.13,7.75-20.82,8.67-20.82,8.67l45.45,45.45,2.07-12.07-29.93-29.93c.33-.19,7.86-5.33,10.8-8.28,20.36-20.36,17.82-50.83-2.55-71.19-20.36-20.36-50.83-22.91-71.19-2.55-2.94,2.94-8.08,10.46-8.28,10.8l-29.93-29.93Z"/><path class="cls-1" d="M116.17,520.75l2.07-12.07,45.45,45.45s-11.69.92-20.82,8.67c-5.99,5.09-11.38,14.04-11.73,22.53-.54,13.34,4.28,26.86,14.47,37.04,10.18,10.18,23.7,15,37.04,14.47,8.49-.35,17.45-5.74,22.54-11.73,7.75-9.13,8.67-20.82,8.67-20.82l45.45,45.45-12.07,2.07-29.93-29.93c-.19.33-5.33,7.86-8.28,10.8-20.36,20.36-50.83,17.82-71.19-2.55-20.36-20.36-22.91-50.83-2.55-71.19,2.94-2.94,10.46-8.08,10.8-8.28l-29.93-29.93Z"/><path class="cls-1" d="M462.19,389h20.29s3.96-5,7.66-5c-3.7,0-7.66-5-7.66-5h-20.29c2.07-5.9,7.67-10.14,14.27-10.14,3.13,0,6.05.95,8.46,2.58-3.77-4.92-9.71-8.1-16.39-8.1-9.68,0-17.78,6.67-20.01,15.65h-59.53v-59.53c8.98-2.24,15.65-10.34,15.65-20.01,0-6.68-3.18-12.62-8.1-16.39,1.63,2.42,2.58,5.33,2.58,8.46,0,6.61-4.24,12.21-10.14,14.27v-20.29s-5-3.96-5-7.66c0,3.7-5,7.66-5,7.66v20.29c-5.9-2.07-10.14-7.67-10.14-14.27,0-3.13.95-6.05,2.58-8.46-4.92,3.77-8.1,9.71-8.1,16.39,0,9.68,6.67,17.78,15.65,20.01v59.53h-59.53c-2.24-8.98-10.34-15.65-20.01-15.65-6.68,0-12.62,3.18-16.39,8.1,2.42-1.63,5.33-2.58,8.46-2.58,6.61,0,12.21,4.24,14.27,10.14h-20.29s-3.96,5-7.66,5c3.7,0,7.66,5,7.66,5h20.29c-2.07,5.9-7.67,10.14-14.27,10.14-3.13,0-6.05-.95-8.46-2.58,3.77,4.92,9.71,8.1,16.39,8.1,9.68,0,17.78-6.67,20.01-15.65h59.53v59.53c-8.98,2.24-15.65,10.34-15.65,20.01,0,6.68,3.18,12.62,8.1,16.39-1.63-2.42-2.58-5.33-2.58-8.46,0-6.61,4.24-12.21,10.14-14.27v20.29s5,3.96,5,7.66c0-3.7,5-7.66,5-7.66v-20.29c5.9,2.07,10.14,7.67,10.14,14.27,0,3.13-.95,6.05-2.58,8.46,4.92-3.77,8.1-9.71,8.1-16.39,0-9.68-6.67-17.78-15.65-20.01v-59.53h59.53c2.24,8.98,10.34,15.65,20.01,15.65,6.68,0,12.62-3.18,16.39-8.1-2.42,1.63-5.33,2.58-8.46,2.58-6.61,0-12.21-4.24-14.27-10.14Z"/><path class="cls-1" d="M420.72,358.67v-17.66c0-7.83-6-11.66-6-10v26.54h-61.45v-26.54c0-1.66-6,2.17-6,10v17.66c0,4.34-1.84,6.73-1.84,6.73,0,0,2.39-1.85,6.73-1.85h63.68c4.34,0,6.73,1.85,6.73,1.85,0,0-1.84-2.39-1.84-6.73Z"/><path class="cls-1" d="M420.72,409.33v17.66c0,7.83-6,11.66-6,10v-26.54h-61.45v26.54c0,1.66-6-2.17-6-10v-17.66c0-4.34-1.84-6.73-1.84-6.73,0,0,2.39,1.85,6.73,1.85h63.68c4.34,0,6.73-1.85,6.73-1.85,0,0-1.84,2.39-1.84,6.73Z"/></g></svg>