<?xml version="1.0" encoding="UTF-8"?><svg id="Layer_1" xmlns="http://www.w3.org/2000/svg" viewBox="0 0 768 768"><defs><style>.cls-1{fill:#fff;}</style></defs><g id="Pentagram_1"><path class="cls-1" d="M582.53,232.82c-9.32-5.99-20.41-9.48-32.31-9.48-33.08,0-59.9,26.82-59.9,59.9,0,33.08,26.82,59.9,59.9,59.9,11.91,0,22.99-3.49,32.31-9.48-11.46,9.64-26.23,15.45-42.38,15.45-36.38,0-65.87-29.49-65.87-65.87,0-36.38,29.49-65.87,65.87-65.87,16.14,0,30.92,5.82,42.38,15.45Z"/><path class="cls-1" d="M185.47,232.82c9.32-5.99,20.41-9.48,32.31-9.48,33.08,0,59.9,26.82,59.9,59.9,0,33.08-26.82,59.9-59.9,59.9-11.91,0-22.99-3.49-32.31-9.48,11.46,9.64,26.23,15.45,42.38,15.45,36.38,0,65.87-29.49,65.87-65.87,0-36.38-29.49-65.87-65.87-65.87-16.14,0-30.92,5.82-42.38,15.45Z"/><path class="cls-1" d="M582.53,535.17c-9.32,5.99-20.41,9.48-32.31,9.48-33.08,0-59.9-26.82-59.9-59.9,0-33.08,26.82-59.9,59.9-59.9,11.91,0,22.99,3.49,32.31,9.48-11.46-9.64-26.23-15.45-42.38-15.45-36.38,0-65.87,29.49-65.87,65.87,0,36.38,29.49,65.87,65.87,65.87,16.14,0,30.92-5.82,42.38-15.45Z"/><path class="cls-1" d="M185.47,535.17c9.32,5.99,20.41,9.48,32.31,9.48,33.08,0,59.9-26.82,59.9-59.9,0-33.08-26.82-59.9-59.9-59.9-11.91,0-22.99,3.49-32.31,9.48,11.46-9.64,26.23-15.45,42.38-15.45,36.38,0,65.87,29.49,65.87,65.87,0,36.38-29.49,65.87-65.87,65.87-16.14,0-30.92-5.82-42.38-15.45Z"/><path class="cls-1" d="M384,602.55c-10.81,0-18.78-6.77-21.7-9.67l-2.14-2.13,2.14-2.13c2.92-2.91,10.89-9.67,21.7-9.67s18.78,6.77,21.7,9.67l2.14,2.13-2.14,2.13c-2.92,2.91-10.89,9.67-21.7,9.67ZM368.92,590.75c3.23,2.59,8.55,5.8,15.08,5.8s11.85-3.22,15.08-5.8c-3.23-2.59-8.55-5.8-15.08-5.8s-11.85,3.21-15.08,5.8Z"/><path class="cls-1" d="M384,768c-51.84,0-102.13-10.15-149.47-30.18-45.73-19.34-86.79-47.03-122.06-82.29-35.26-35.27-62.95-76.33-82.29-122.06C10.15,486.13,0,435.84,0,384s10.15-102.13,30.18-149.47c19.34-45.73,47.03-86.79,82.29-122.06s76.33-62.95,122.06-82.29C281.87,10.15,332.16,0,384,0s102.13,10.15,149.47,30.18c45.73,19.34,86.79,47.03,122.06,82.29,35.27,35.26,62.95,76.33,82.29,122.06,20.02,47.34,30.18,97.63,30.18,149.47s-10.15,102.13-30.18,149.47c-19.34,45.73-47.03,86.79-82.29,122.06s-76.33,62.95-122.06,82.29c-47.34,20.02-97.63,30.18-149.47,30.18ZM384,6C175.57,6,6,175.57,6,384s169.57,378,378,378,378-169.57,378-378S592.43,6,384,6Z"/><path class="cls-1" d="M523.07,70.49c-.38,1.92-.74,3.84-1.07,5.77-.16.96,1.4,1.23,1.57.27.35-2.01.73-4.01,1.14-6.01,1.16.02,2.33,0,3.49-.08,1.75-.11,3.49-.35,5.22-.66.31-.05.63-.11.94-.18.06.03.12.06.18.09,2.1,1,4.23,1.92,6.4,2.77.52.2,1.28-.05,1.15-.69-.21-1.02-1.18-1.88-2.32-1.73-.16.02-.29.09-.39.17-.91-.38-1.81-.77-2.7-1.18-.07-.03-.14-.06-.2-.1.51-.24,1-.53,1.42-.9,1.13-1,1.42-2.52.79-3.98-.63-1.48-1.91-2.77-3.11-3.87-2.71-2.57-5.98-4.72-9.47-6.28-1.77-.72-3.61-1.28-5.47-1.69-1.67-.36-3.48-.56-4.96.16-1.39.68-2.19,2.06-1.77,3.59.41,1.5,1.67,2.69,2.88,3.7,1.67,1.4,3.56,2.5,5.45,3.59.7.43,1.41.84,2.12,1.25-.34,1.49-.67,2.98-.97,4.47-.54-.02-1.08-.04-1.61-.09-1.67-.16-3.36-.35-5.04-.62-1.74-.29-3.6-.67-5.01-1.8-2.53-2.06-2.16-5.9.67-7.21.91-.42.22-1.85-.69-1.43-2.89,1.32-4.1,4.57-2.73,7.51,1.55,3.33,5.38,4.13,8.74,4.6,1.78.27,3.57.46,5.37.55ZM522.41,61.63c-1.41-.81-2.8-1.66-4.09-2.66-1.06-.82-2.41-1.88-2.8-3.16-.44-1.42.93-2.28,2.28-2.39,1.47-.12,3.1.34,4.53.76,3.18.86,6.14,2.43,8.81,4.31,1.34.96,2.61,2.01,3.76,3.15.47.46,1.01.97,1.47,1.53.45.57.82,1.19.97,1.82.39,1.71-1.11,2.55-2.85,3.02-.08-.04-.16-.07-.23-.11l-2.43-1.12c-1.91-.91-3.79-1.89-5.63-2.93.47-1.95.96-3.89,1.49-5.82.11-.39-.01-.82-.47-1.03-.37-.17-.96-.05-1.07.34-.51,1.88-.98,3.78-1.44,5.68-.77-.45-1.53-.91-2.29-1.38ZM528.26,66.68c1.21.64,2.45,1.23,3.69,1.82-.37.05-.71.1-.99.14-1.97.27-3.96.39-5.95.38.26-1.22.53-2.44.81-3.66.81.45,1.61.9,2.43,1.32Z"/><path class="cls-1" d="M541.23,78.21l-9.23-4.7c-.94-.47-1.58.89-.65,1.35l9.19,4.68c.98.48,1.95,1,2.9,1.54-.24.45-.48.9-.73,1.34-.47.84.94,1.61,1.41.77.25-.44.49-.89.73-1.33.07.04.15.08.22.12l.18.1s.05.07.08.11c.5.47,1.26.75,1.86,1.06l2.38,1.24c.92.48,1.64-.8.73-1.31l-3.81-2.12c.04-.17.12-.35.16-.5l.55-1.74c.12-.37-.07-.65-.35-.8,2.38-4.83,4.36-9.85,5.88-15.06.28-.94-1.38-1.36-1.65-.42-1.7,5.97-4.07,11.74-6.95,17.22-.97-.54-1.93-1.06-2.93-1.55Z"/><path class="cls-1" d="M540.96,83.1c-2.26-1.34-4.5-2.7-6.73-4.1-.88-.55-1.53.8-.66,1.34,2.22,1.39,4.46,2.75,6.7,4.08,2.2,1.42,4.41,2.82,6.64,4.18.88.54,1.6-.77.73-1.31-2.24-1.37-4.46-2.77-6.67-4.2Z"/><path class="cls-1" d="M544.63,65.96c.07.09.16.15.26.2.2.09.43.13.63.07l.19-.08c.12-.07.21-.17.28-.29.13-.21.21-.45.26-.69.03-.15.03-.3.03-.45,0-.1,0-.19-.02-.29-.03-.2-.13-.39-.3-.53-.09-.08-.19-.13-.3-.16-.1-.05-.21-.07-.32-.06-.21.01-.42.08-.55.23-.13.15-.22.35-.18.55,0,.05,0,.11.01.16,0,.09-.02.18-.05.27-.03.07-.06.15-.1.22-.05.09-.07.19-.07.29-.01.1,0,.2.05.29.04.1.09.19.17.26Z"/><path class="cls-1" d="M556.34,82.1c-.39,3.26-.59,6.54-.59,9.82,0,.73,1.15,1.12,1.48.44.51-1.05,1.48-1.62,2.55-2.08,1.02-.44,2.1-.81,3.17-1.16,2.18-.71,4.45-1.36,6.7-1.77,1.68-.33,3.4-.56,5.14-.76.43.24.87.49,1.3.73-.87,1.01-1.56,2.21-2.32,3.3l-4.13,5.91c-.92-1.67-2.38-3.02-4.19-3.87-.94-.44-1.34,1.03-.41,1.46,1.74.81,3.12,2.36,3.71,4.13.21.64,1.05.86,1.44.3l3.9-5.53,1.92-2.71,1-1.41c.14-.19.27-.43.43-.6.05-.06.1-.1.16-.14,0,0,.02,0,.02.01.65.35,1.63-.2,1.12-.94-.24-.34-.53-.54-.84-.62-.16-.09-.32-.18-.48-.27,2.14-.15,4.31-.23,6.51-.18.62.01,1.21-.73.59-1.25-3.47-2.93-7.01-5.82-10.7-8.53-3.75-2.6-7.56-5.17-11.51-7.5-.96-.54-1.7.76-.74,1.3,3.87,2.28,7.6,4.79,11.28,7.33,3.1,2.25,6.07,4.65,8.99,7.09-2.32.02-4.62.13-6.87.36-.47-.27-.95-.52-1.41-.79l-2.41-1.42-2.43-1.38c-.59-.33-1.16-.69-1.74-1.03.54-.88,1.09-1.75,1.66-2.6.54-.8-.92-1.67-1.45-.87-.57.86-1.12,1.73-1.65,2.61-2.14-1.28-4.26-2.6-6.36-3.94-.92-.56-1.66.75-.74,1.3,2.09,1.34,4.2,2.65,6.33,3.93-.96,1.66-1.87,3.35-2.72,5.07-.42.86.98,1.71,1.41.84.85-1.72,1.77-3.41,2.74-5.06.58.34,1.14.69,1.73,1.02l2.42,1.37,2.11,1.24c-.14.02-.29.03-.43.05-3.82.53-7.64,1.59-11.22,2.86-1.18.42-2.44.87-3.45,1.59.07-2.42.24-4.83.54-7.23.12-.97-1.45-1.45-1.56-.47Z"/><path class="cls-1" d="M585.16,96.15c.54,1.05,1.49,2.26,1.06,3.4-.35.9,1.19,1.49,1.54.59.71-1.84-.75-3.41-1.43-5.13-.8-2.04,1.27-3.87,2.88-4.65.44-.22.78-.43,1.19.03.39.44.73.93,1.08,1.39.73.96,1.45,1.94,2.12,2.93,1.28,1.92,2.4,4,3.23,6.1.69,1.76,1.15,3.74.66,5.48-.51,1.82-1.97,3.15-3.74,3.83-.27.1-.54.19-.81.26l-2.87-2.17c-1.42-1.04-2.81-2.14-4.27-3.13l-4.39-2.96c-.87-.58-1.73.65-.86,1.23l4.37,2.95c1.46.98,2.84,2.07,4.25,3.11l1.65,1.25c-1.04,0-2.08-.16-3.1-.46-1-.29-1.99-.7-2.92-1.2-.94-.49-1.88-1-2.72-1.58-1.11-.75-2.18-1.57-3.19-2.44-.79-.67-1.92-1.63-2.2-2.66-.17-.6.32-1.13.62-1.58l1.09-1.6c.74-1.06,1.51-2.1,2.31-3.11.59-.76-.76-1.71-1.35-.95-.81,1.05-1.6,2.13-2.36,3.22l-1.08,1.61c-.34.51-.7,1.03-.8,1.66-.18,1.11.53,2.16,1.25,3,.85.99,1.88,1.83,2.9,2.64,3.83,2.9,8.53,5.67,13.4,4.83l.73.55c1.4,1.06,2.8,2.13,4.13,3.28.8.67,1.74-.5.94-1.17-1.28-1.1-2.62-2.13-3.96-3.15,1.59-.61,2.99-1.65,3.85-3.07,1.12-1.85,1.17-4.1.59-6.29-.64-2.39-1.86-4.71-3.18-6.92-.68-1.18-1.47-2.26-2.27-3.36-.42-.55-.83-1.1-1.24-1.64-.42-.54-.82-1.15-1.45-1.48-1.25-.66-2.57.18-3.47.81-1.07.75-2.02,1.77-2.51,2.98-.47,1.18-.22,2.41.38,3.59Z"/><path class="cls-1" d="M588.97,104.05c1.13-1.2,2.15-2.5,3.03-3.89.21-.33.16-.84-.22-1.11-.35-.25-.9-.23-1.12.12-.88,1.4-1.89,2.7-3.02,3.91-.27.29-.11.85.23,1.08.4.28.81.2,1.1-.11Z"/><path class="cls-1" d="M553.91,77.44c.48.13.81-.15.96-.53.8-2.12,1.45-4.29,1.95-6.51.21-.95-1.42-1.39-1.63-.43-.49,2.23-1.14,4.4-1.92,6.52-.14.38.25.85.64.95Z"/><path class="cls-1" d="M600.45,114.15c1.56.38,3.06.9,4.53,1.53-.29.37-.58.73-.88,1.09l-3.84,4.65c-.61.75.63,1.76,1.25,1.02l3.71-4.46c.43-.51.85-1.07,1.29-1.61,5.8,2.77,11.05,6.99,16.62,10.28.59.36,1.34-.21,1.08-.87-1.38-3.42-3.09-6.74-5.08-9.91.71-.97,1.45-1.91,2.27-2.79.65-.71-.63-1.84-1.28-1.13-.7.77-1.36,1.57-1.98,2.4-2.75-4.13-5.99-8-9.64-11.5-.12-.62-1.2-.98-1.58-.3-2.04,3.64-4.4,7.07-7.01,10.31-.37.46-.03,1.14.55,1.29ZM607.82,104.29c1.48,1.45,2.91,2.95,4.26,4.5,1.52,1.73,2.95,3.52,4.21,5.45.32.47.61.95.91,1.43-.23.34-.46.69-.68,1.04-.22.34.07.89.43,1.08.44.23.83.04,1.05-.31.06-.09.13-.18.19-.27.57.94,1.13,1.9,1.65,2.86.72,1.3,1.39,2.62,1.99,3.97-1.23-.77-2.46-1.54-3.67-2.33-1.87-1.22-3.72-2.47-5.59-3.66-1.61-1.06-3.32-1.99-5.05-2.83.45-.47.94-.91,1.49-1.26.83-.52-.17-1.85-.99-1.32-.78.5-1.45,1.16-2.07,1.86-1.33-.58-2.68-1.1-4.06-1.52,2.17-2.75,4.15-5.65,5.93-8.68Z"/><path class="cls-1" d="M616.87,126.14l-8.15-7.08c-.36-.29-.73-.23-.99-.02-.22-.03-.45.03-.63.23-.93,1.01-1.75,2.1-2.46,3.27-.28.46-.72,1-.8,1.56-.08.58.31,1,.74,1.38l7.02,6.19,1.61,1.41c.53.49,1.05,1.14,1.66,1.51.51.31,1.05.23,1.43-.17.52-.55.93-1.26,1.38-1.88l1.17-1.61c.34-.46.95-1.02.91-1.67-.04-.64-.61-1.07-1.05-1.48-.6-.56-1.23-1.08-1.85-1.63ZM616.43,131.5l-.66.91c-.13.18-.26.43-.42.64-.21-.18-.43-.44-.54-.55-.29-.27-.58-.55-.89-.81l-1.82-1.59-3.83-3.37-1.81-1.6c-.28-.25-.59-.61-.9-.8-.02-.02-.03-.03-.04-.05.06-.11.11-.25.15-.32.7-1.23,1.55-2.35,2.49-3.4l7.09,6.17,1.85,1.61c.31.26.59.57.9.83.04.04.06.05.08.07l-.34.47-1.31,1.81ZM618.12,129.26s.02.03,0,0h0Z"/><path class="cls-1" d="M625.27,140.49c-1.14-1.52-2.36-2.95-3.5-4.46-.63-.82-1.94-.08-1.31.75,1.16,1.54,2.38,3,3.55,4.53.56.73,1.15,1.44,1.73,2.17l-1.12,1.34c-.62.73.5,1.89,1.12,1.15l1.02-1.21c.28.35.55.71.84,1.05.75.9,1.53,1.77,2.3,2.66-.1.27-.06.56.18.81.17.18.47.27.73.24.19.21.36.43.55.64,1.24,1.46,2.49,2.91,3.78,4.33.7.77,1.81-.24,1.11-1.01-1.27-1.4-2.5-2.83-3.72-4.27-.21-.23-.41-.48-.62-.72.4-.49.81-.97,1.22-1.45,1.09,1.4,2.24,2.76,3.57,3.93,1.45,1.3,3.07,2.41,4.84,3.28,1.84.89,3.84,1.5,5.79,1.53,1.97.01,3.92-.56,5.55-1.55,1.67-1.01,3.18-2.68,3.08-4.91-.04-.95-.35-1.94-.89-2.78-.56-.82-1.35-1.46-2.32-1.76-1.01-.3-1.41,1.19-.39,1.49.69.21,1.23.69,1.58,1.28.34.61.49,1.32.44,1.99-.12,1.65-1.48,2.81-2.78,3.49-1.46.77-3.15,1.25-4.87,1.13-1.71-.11-3.44-.68-5-1.5-3.02-1.56-5.48-3.92-7.49-6.61-.05-.06-.09-.12-.13-.18,1.5-1.73,3.03-3.43,4.62-5.07.67-.69-.5-1.89-1.17-1.19-1.52,1.58-2.98,3.21-4.41,4.87-.93-1.44-1.7-2.98-2.3-4.58l5.45-6.48c.62-.74-.56-1.95-1.18-1.2l-4.89,5.87c-.1-.34-.2-.69-.28-1.03-.43-1.86-.76-3.96-.55-5.86.22-1.9,1-3.62,2.76-4.61.85-.48-.06-1.89-.91-1.41-3.65,2.1-3.92,6.71-3.13,10.65.22,1.24.54,2.46.95,3.66l-2.37,2.84c-.48-.6-.98-1.19-1.45-1.81ZM629.73,141.22c.65,1.56,1.46,3.06,2.41,4.46-.44.52-.88,1.04-1.31,1.57-.67-.77-1.36-1.54-2.02-2.33-.36-.44-.71-.89-1.07-1.34l1.99-2.37Z"/><path class="cls-1" d="M642.04,147.28c1.56-2.43,4.19-3.98,7.17-4.19.72-.05,1.76.1,1.87-.85.1-.89-.91-1.45-1.52-1.96-1.56-1.3-2.94-2.79-4.3-4.29-.62-.68-1.47-.06-1.3.64-.38-.05-.67.18-.79.51-1.05,3.02-1.94,6.2-2.58,9.42-.17.86.97,1.47,1.44.73ZM644.75,137.66s0-.01,0-.02c.69.75,1.37,1.5,2.11,2.2.44.43.89.84,1.36,1.24l.49.42c-.05,0-.11,0-.17,0-.46.04-.92.12-1.36.23-.9.21-1.77.53-2.57.96-.64.34-1.22.76-1.77,1.22.53-2.12,1.16-4.21,1.9-6.26Z"/><path class="cls-1" d="M654.51,159.65c-2.16.06-3.95,1.48-5.03,3.19-1.23,1.96-1.64,4.32-2.05,6.59-.18.97,1.34,1.2,1.53.22.62-3.14,1.34-7.22,4.79-8.26,1.36-.4,2.85.02,4.16.7.22,2.16.5,4.33.89,6.45.22,1.21.41,2.34,1.73,2.77,1.21.4,2.44.7,3.65,1.14,1.09.42,2.17.91,3.23,1.45.08.23.16.46.23.69.51,1.64.88,3.33,1.07,5,.16,1.44.18,3.09-.54,4.29-.84,1.4-2.55,1.56-4.04.88-1.91-.87-3.04-2.84-3.91-4.67-.44-.94-1.86-.43-1.42.51.9,1.91,2.02,3.86,3.82,5.05,1.44.95,3.31,1.42,4.88.83,3.62-1.34,3.02-6.34,2.28-9.67-.14-.64-.31-1.28-.49-1.91.61.35,1.21.7,1.8,1.08,1.25.79,2.46,1.65,3.63,2.58.59.46,1.16.95,1.73,1.44.55.5,1.08,1.03,1.61,1.57.51.52,1.34.07,1.24-.61-.27-2.07-1.2-3.97-2.34-5.78-1.13-1.82-2.47-3.55-3.66-5.22-.69-.97-1.36-1.94-2.08-2.89l-2.18-2.81-4.39-5.6c-1.62-2.13-3.43-4.12-5.15-6.17-.24-.28-.51-.34-.76-.29-.41-.55-1.4-.53-1.4.29,0,2.62.13,5.24.39,7.84-1.05-.43-2.15-.7-3.24-.68ZM663.29,170.52c-.53-.17-1.07-.34-1.61-.49-.26-.07-.58-.12-.83-.23-.32-.15-.32-.36-.39-.69-.39-1.98-.66-3.99-.89-6.01.99.68,1.92,1.48,2.76,2.35,1.77,1.86,3.21,4.02,4.25,6.34-1.06-.49-2.19-.89-3.3-1.26ZM658.95,154.14c3.64,4.19,7.01,8.6,10.42,12.97,1.77,2.29,3.39,4.7,5.06,7.06.96,1.41,1.96,2.85,2.63,4.4-2.61-2.29-5.48-4.23-8.46-5.79-.23-.63-.47-1.26-.75-1.88-.87-1.9-2.03-3.67-3.37-5.3-1.32-1.58-2.85-3-4.55-4.1-.19-.13-.38-.25-.58-.36-.22-2.35-.37-4.67-.42-7Z"/><path class="cls-1" d="M654.67,168.39l-5.59,4.18c-.77.58.21,1.84.99,1.26l5.61-4.15c.78-.57-.24-1.87-1.01-1.29Z"/><path class="cls-1" d="M653.88,177.05c1.47-1.29,2.85-2.67,4.14-4.14.27-.3.12-.86-.21-1.11-.37-.29-.81-.19-1.08.12-1.2,1.38-2.48,2.66-3.84,3.87-.3.27-.38.73-.1,1.09.26.33.78.44,1.09.18Z"/><path class="cls-1" d="M676.56,187.01c-.5,1.46-.12,3.16.31,4.66.3,1.04.69,2.06,1.12,3.06.41,1.01.85,2.02,1.31,3.01.34.75.7,1.48,1.06,2.22-1.12,1.03-2.23,2.08-3.32,3.14-.43-.32-.87-.64-1.29-.98-1.32-1.06-2.57-2.19-3.76-3.39-1.28-1.22-2.62-2.57-3.15-4.29-.95-3.11,1.52-6.08,4.61-5.56.99.17,1.22-1.4.23-1.57-3.14-.53-5.98,1.46-6.49,4.65-.6,3.62,2.2,6.39,4.63,8.72,1.29,1.24,2.67,2.41,4.12,3.49-1.39,1.37-2.77,2.75-4.13,4.16-.67.7.48,1.8,1.15,1.1,1.41-1.46,2.86-2.89,4.32-4.31.96.66,1.94,1.31,2.95,1.89,1.54.87,3.04,1.71,4.62,2.43.29.14.59.26.89.39.03.06.06.11.1.17,1.19,2,2.44,3.95,3.77,5.86.32.46,1.09.67,1.34.08.4-.95.07-2.21-.96-2.72-.15-.07-.29-.09-.42-.08-.58-.88-1.15-1.78-1.71-2.68.56.09,1.13.12,1.69.05,1.5-.2,2.6-1.28,2.89-2.84.3-1.57-.04-3.35-.35-4.97-.75-3.67-2.3-7.25-4.32-10.5-.51-.81-1.05-1.6-1.62-2.36-.59-.75-1.23-1.46-1.89-2.15-1.19-1.24-2.58-2.42-4.22-2.65-1.54-.21-2.98.47-3.49,1.96ZM683.54,207.07c-1.77-.89-3.5-1.91-5.15-3.02.9-.86,1.81-1.72,2.73-2.56.42.82.84,1.64,1.28,2.45.57,1.02,1.14,2.03,1.71,3.04.1.19.22.38.32.57-.34-.17-.64-.34-.89-.47ZM678,187.78c.43-1.42,2.06-1.36,3.23-.69,1.29.73,2.38,2.02,3.34,3.16,2.04,2.57,3.66,5.5,4.81,8.55.57,1.55,1.07,3.1,1.33,4.72.22,1.31.55,2.95.08,4.16-.64,1.63-2.37,1.48-4.07.88-.49-.84-.97-1.69-1.44-2.55-1.07-1.83-2.08-3.69-3.03-5.58,1.48-1.34,2.98-2.67,4.51-3.96.31-.26.45-.69.19-1.11-.21-.35-.77-.58-1.08-.32-1.48,1.26-2.94,2.56-4.38,3.87-.39-.8-.76-1.61-1.12-2.42-.33-.75-.66-1.5-.95-2.26-.31-.75-.62-1.5-.87-2.28-.42-1.27-.95-2.9-.56-4.17Z"/><path class="cls-1" d="M686.6,220.77c-1.62-3.05-3.35-6.04-5.01-9.06-.51-.92-1.81-.16-1.3.75,1.66,3.01,3.38,5.99,4.99,9.03l1.49,2.93c-.46.23-.91.47-1.37.7-.87.43-.12,1.85.74,1.43.46-.22.91-.46,1.36-.69l.21.41s0,.09,0,.14c.15.67.63,1.32.95,1.91l1.29,2.36c.5.91,1.82.26,1.34-.67l-1.98-3.88c.13-.12.29-.22.41-.32l1.43-1.12c.3-.24.31-.58.16-.86,4.69-2.64,9.16-5.67,13.34-9.11.75-.62-.37-1.9-1.12-1.28-4.8,3.98-9.99,7.39-15.45,10.3l-1.5-2.95Z"/><path class="cls-1" d="M679.05,218.22c2.22,4.74,4.17,9.6,6.37,14.34.43.93,1.77.26,1.34-.67-2.21-4.75-4.17-9.64-6.41-14.4-.42-.94-1.72-.2-1.31.74Z"/><path class="cls-1" d="M696.91,213.3l.2.04c.14.01.27-.02.39-.08.22-.1.43-.25.6-.42.11-.11.19-.23.28-.35.06-.08.1-.16.15-.25.09-.18.11-.4.05-.61-.03-.11-.08-.21-.16-.3-.06-.1-.14-.17-.23-.23-.18-.11-.39-.17-.58-.12-.19.05-.37.16-.46.35-.02.05-.05.09-.08.14-.06.07-.12.14-.19.2-.07.04-.13.09-.2.12-.09.05-.16.11-.22.2-.06.07-.11.16-.13.27-.03.1-.03.21,0,.31,0,.11.04.21.1.31.12.19.28.35.49.41Z"/><path class="cls-1" d="M710.6,231.81c.85,2.07,1.76,4.12,2.46,6.25.74,2.12,1.44,4.24,2.11,6.38.46,1.52.95,3.03,1.37,4.56-1.92-1.31-3.91-2.51-5.93-3.59-1.08-2.15-2.12-4.31-3.11-6.5-.29-.61-.57-1.22-.86-1.83.94-.42,1.89-.83,2.85-1.22.9-.36.17-1.89-.72-1.53-.96.39-1.9.8-2.84,1.23-1.06-2.26-2.09-4.53-3.06-6.83-.42-1-1.76-.33-1.35.66.96,2.29,1.99,4.56,3.04,6.8-1.73.83-3.43,1.71-5.1,2.65-.83.47-.14,1.96.7,1.49,1.67-.94,3.38-1.81,5.11-2.63.29.6.57,1.21.86,1.81.72,1.59,1.46,3.17,2.23,4.74-.13-.06-.26-.14-.39-.2-3.51-1.69-7.08-3.05-10.84-3.99-1.22-.31-2.52-.65-3.77-.62,1.41-1.95,2.91-3.84,4.5-5.65.64-.73-.39-2.01-1.04-1.26-2.15,2.47-4.15,5.06-5.99,7.76-.41.6.33,1.57.98,1.19,1.01-.58,2.14-.5,3.28-.28,1.1.21,2.2.51,3.28.82,2.21.64,4.33,1.44,6.47,2.35,1.58.68,3.15,1.45,4.7,2.26.22.44.45.89.68,1.33-1.29.34-2.54.94-3.78,1.41l-6.75,2.55c.17-1.9-.29-3.83-1.32-5.54-.54-.89-1.69.1-1.16.98.99,1.65,1.27,3.7.77,5.48-.18.65.4,1.3,1.03,1.06l6.34-2.36,3.12-1.16,1.62-.6c.22-.08.46-.21.69-.26.07-.02.14-.02.22-.03,0,0,0,.02.01.02.34.65,1.47.75,1.46-.14,0-.42-.14-.74-.35-.99-.09-.17-.17-.34-.26-.51,1.88,1.08,3.72,2.25,5.44,3.56.49.36,1.39.09,1.2-.7-.5-2.23-1.2-4.39-1.87-6.57-.68-2.18-1.4-4.35-2.15-6.51-.71-2.18-1.63-4.28-2.5-6.39-.89-2.11-1.81-4.21-2.77-6.3-.46-1-1.8-.34-1.35.66.93,2.04,1.84,4.1,2.71,6.16Z"/><path class="cls-1" d="M714.43,257.2c-1.05.7-1.54,1.86-1.7,3.18-.14,1.16-.03,2.7-1.03,3.4-.79.55.15,1.9.94,1.35,1.63-1.12,1.29-3.23,1.7-5.04.48-2.13,3.23-2.47,5-2.21.49.07.89.09.97.69.08.58.09,1.17.12,1.75.03.6.06,1.2.08,1.81,0,.61,0,1.22-.03,1.82-.07,2.32-.27,4.65-.77,6.85-.42,1.84-1.14,3.73-2.53,4.89-1.44,1.21-3.41,1.49-5.25,1.05-.28-.07-.55-.15-.82-.25l-1.17-3.41c-1.16-3.33-2.3-6.67-3.69-9.92-.4-.97-1.8-.44-1.4.53,1.39,3.23,2.52,6.56,3.68,9.87l.67,1.95c-2.55-1.72-4.3-4.72-5.36-7.63-.5-1.24-.93-2.52-1.28-3.81-.28-1-.68-2.42-.34-3.43.2-.58.9-.75,1.4-.95l1.8-.71c1.21-.46,2.43-.88,3.66-1.27.92-.29.32-1.84-.59-1.54-1.27.41-2.52.85-3.77,1.33l-1.8.72c-.57.23-1.16.46-1.59.92-.77.82-.77,2.07-.65,3.17.15,1.29.54,2.57.94,3.8.8,2.32,1.71,4.77,3.09,6.86,1.32,2.01,3.03,3.69,5.24,4.69l.3.87c.57,1.66,1.01,3.37,1.51,5.05.29,1,1.72.57,1.43-.44-.48-1.62-.91-3.26-1.45-4.86,1.66.39,3.39.33,4.92-.35,2-.9,3.28-2.72,4.03-4.86.81-2.33,1.1-4.93,1.24-7.49.08-1.35.1-2.71.09-4.08-.04-.69-.08-1.37-.11-2.05-.05-.68-.04-1.41-.37-2.03-.67-1.24-2.24-1.3-3.34-1.29-1.31.01-2.67.32-3.76,1.05Z"/><path class="cls-1" d="M711.38,269.06c1.61-.35,3.19-.85,4.7-1.5.36-.15.61-.6.44-1.04-.15-.4-.59-.71-.98-.54-1.51.66-3.09,1.16-4.69,1.52-.38.09-.59.65-.44,1.03.18.45.56.62.97.53Z"/><path class="cls-1" d="M698.61,227.39c1.85-1.3,3.61-2.72,5.27-4.27.71-.66-.4-1.94-1.11-1.27-1.66,1.56-3.41,2.99-5.26,4.3-.33.23-.26.84,0,1.14.33.37.76.34,1.09.1Z"/><path class="cls-1" d="M715.16,283.87c1.06,1.19,2.01,2.47,2.89,3.81-.45.14-.89.27-1.33.4l-5.8,1.67c-.93.27-.47,1.81.46,1.54l5.58-1.58c.64-.18,1.3-.4,1.97-.6,1.13,1.83,1.95,3.81,2.83,5.79,1.7,4.01,3.3,8.14,5.02,12.09.29.63,1.23.58,1.38-.1.87-3.62,1.29-7.32,1.43-11.07,1.13-.4,2.28-.73,3.45-1,.94-.22.51-1.87-.43-1.65-1.01.24-2,.53-2.98.86,0-.36.01-.71.01-1.07.08-4.64-.53-9.27-1.48-13.87.24-.58-.44-1.48-1.15-1.13-3.74,1.85-7.63,3.34-11.6,4.54-.57.17-.66.92-.27,1.37ZM726.71,296.2c.24.44.67.5,1.04.34.1-.04.21-.08.31-.12-.13,2.6-.39,5.17-.86,7.7-1.43-3.38-2.83-6.81-4.26-10.17-.74-1.79-1.58-3.53-2.53-5.2.65-.13,1.3-.22,1.95-.2.98.03.9-1.62-.08-1.65-.93-.03-1.85.14-2.76.37-.77-1.23-1.61-2.42-2.52-3.54,3.35-1.05,6.62-2.32,9.81-3.81.87,4.31,1.43,8.65,1.34,13,0,.56-.02,1.12-.03,1.69-.39.15-.78.31-1.17.48-.37.16-.44.77-.25,1.13Z"/><path class="cls-1" d="M720.85,308.1c.54-.19,1.36-.31,1.69-.86.33-.55.1-1.23-.04-1.81-.19-.8-.34-1.6-.56-2.4l-2.76-10.44c-.12-.45-.46-.61-.78-.58-.16-.15-.37-.23-.63-.17-1.34.31-2.63.74-3.89,1.3-.49.22-1.17.42-1.55.84-.41.44-.32,1.01-.18,1.56l2.33,9.06c.19.69.33,1.39.49,2.08.16.7.23,1.53.52,2.19.24.54.74.78,1.28.66.74-.16,1.48-.51,2.2-.76l1.87-.66ZM721.17,306.32c.02.09,0,.05,0,0h0ZM717.46,307.59c-.21.07-.46.21-.71.29-.07-.27-.11-.61-.14-.76l-.26-1.18c-.16-.79-.37-1.57-.57-2.35l-1.28-4.94-.6-2.34c-.09-.36-.14-.83-.3-1.17,0-.03,0-.04,0-.07.11-.06.23-.14.31-.18,1.27-.61,2.61-1.06,3.97-1.39l2.41,9.09c.22.79.42,1.58.58,2.38.09.4.16.81.27,1.2.01.04.02.08.03.1l-.54.19-2.1.75-1.05.38Z"/><path class="cls-1" d="M725.73,317.39c-.52,1.14-.94,2.33-1.29,3.55l-3.58,1.01c-.18-2.66-.29-5.33-.48-7.98-.06-1.04-1.56-1.16-1.51-.13.2,2.83.32,5.68.52,8.52l-1.65.46c-.92.26-.65,1.83.28,1.58l1.51-.42c.04.45.07.89.11,1.34.11,1.17.24,2.34.37,3.51-.21.17-.35.42-.29.75.04.24.23.47.45.6.03.28.07.57.1.85.18,1.91.4,3.81.65,5.71.14,1.03,1.62.83,1.49-.21-.25-1.87-.47-3.75-.65-5.63-.04-.32-.08-.63-.11-.95.61-.18,1.22-.35,1.83-.52.16,3.75.98,7.46,2.84,10.73,1.01,1.77,2.32,3.41,3.91,4.54,1.61,1.12,3.55,1.76,5.45,1.87,1.95.11,4.14-.4,5.32-2.3.5-.81.82-1.8.84-2.79,0-.99-.29-1.97-.92-2.77-.66-.82-1.83.18-1.17,1.01.45.56.62,1.26.58,1.95-.06.69-.35,1.37-.76,1.89-1.04,1.29-2.82,1.48-4.27,1.3-1.64-.19-3.3-.76-4.64-1.83-1.36-1.06-2.46-2.51-3.28-4.07-1.6-2.99-2.31-6.33-2.41-9.69,0-.08,0-.16,0-.24,2.21-.57,4.43-1.1,6.68-1.54.94-.19.66-1.84-.29-1.64-2.14.44-4.27.95-6.39,1.5.05-1.71.28-3.41.69-5.06l8.16-2.25c.92-.26.64-1.92-.29-1.66l-7.35,2.06c.11-.34.23-.68.35-1.01,1.4-3.55,3.72-7.72,7.78-7.38.97.09,1.02-1.6.04-1.68-4.22-.34-6.99,3.3-8.63,7.01ZM723.45,327.76c-.67.18-1.33.38-1.99.57-.12-1.02-.23-2.03-.33-3.05-.06-.57-.1-1.13-.15-1.7l3-.83c-.34,1.65-.52,3.33-.54,5.01Z"/><path class="cls-1" d="M730.7,334.72c2.66-1.12,5.71-.91,8.28.61.62.36,1.39,1.08,2.02.36.59-.68.07-1.71-.14-2.48-.54-1.95-.86-3.96-1.1-5.97-.13-.91-1.18-.88-1.43-.21-.28-.26-.65-.24-.94-.03-2.57,1.9-5.14,4.02-7.47,6.3-.63.61-.03,1.76.78,1.42ZM738.38,328.32s0-.01.01-.02c.13,1.01.27,2.02.48,3.02.12.6.26,1.2.41,1.79l.17.62s-.09-.06-.14-.09c-.41-.22-.82-.42-1.25-.58-.86-.33-1.76-.56-2.66-.66-.72-.08-1.43-.06-2.15,0,1.64-1.44,3.34-2.81,5.11-4.08Z"/><path class="cls-1" d="M741.68,348.24c-.03-.68-.85-1.23-1.32-.55-1.49,2.16-2.87,4.4-4.13,6.69-.62-.95-1.36-1.79-2.28-2.39-1.81-1.17-4.09-1.02-5.95-.23-2.13.91-3.8,2.64-5.43,4.27-.68.7.47,1.74,1.17,1.05,2.23-2.23,5.19-5.19,8.6-4.09,1.36.44,2.32,1.64,3.05,2.94-.39.72-.78,1.45-1.16,2.16-.62,1.2-1.22,2.42-1.78,3.65-.51,1.12-.99,2.16-.16,3.27.77,1.01,1.6,1.96,2.35,3.01.7.97,1.32,1.98,1.89,3.02-.07.23-.13.47-.2.7-.52,1.65-1.18,3.25-1.98,4.73-.69,1.28-1.61,2.65-2.89,3.23-1.48.68-2.99-.16-3.82-1.56-1.07-1.8-.88-4.06-.53-6.06.18-1.03-1.28-1.41-1.45-.38-.36,2.09-.55,4.33.25,6.33.64,1.6,1.91,3.05,3.53,3.45,3.73.95,6.1-3.52,7.39-6.68.24-.61.47-1.23.69-1.86.3.63.59,1.27.86,1.91,1.14,2.71,2,5.6,2.6,8.55.14.71,1.09.82,1.37.2,1.73-3.72,1.31-8.36,1.28-12.47-.11-4.74-.46-9.48-.73-14.22-.17-2.67-.51-5.33-.76-8-.04-.36-.23-.57-.46-.67ZM735.02,365.92c-.34-.45-.69-.89-1.04-1.32-.17-.21-.41-.43-.55-.66-.18-.3-.06-.48.08-.79.81-1.85,1.73-3.67,2.7-5.46.42,1.12.74,2.31.93,3.5.28,1.77.33,3.56.19,5.34-.06.77-.16,1.54-.29,2.3-.64-1.01-1.31-1.98-2.02-2.91ZM742.15,375.23c0,1.7-.03,3.44-.35,5.09-.87-3.35-2.07-6.56-3.64-9.52.17-.65.32-1.31.42-1.98.32-2.06.41-4.17.23-6.27-.18-2.05-.63-4.09-1.4-5.96-.09-.2-.18-.41-.28-.61,1.11-2.05,2.33-4.04,3.62-5.99l.35,3.43.22,2.18.14,2.19.5,8.76c.2,2.89.19,5.79.19,8.68Z"/><path class="cls-1" d="M729.15,359.27l-6.97.28c-.96.04-.87,1.64.09,1.6l6.98-.24c.97-.03.87-1.67-.1-1.64Z"/><path class="cls-1" d="M728.84,363.34c-1.77.45-3.56.79-5.36,1.01-.4.05-.73.39-.7.84.02.41.39.81.8.76,1.94-.23,3.86-.59,5.76-1.07.39-.1.59-.64.46-1.04-.14-.45-.56-.62-.95-.52Z"/><path class="cls-1" d="M742.58,391.94c-.26-1.69-.73-3.45-1.94-4.57-1.14-1.05-2.71-1.3-3.99-.36-1.25.92-1.91,2.53-2.42,4.02-.7,2.06-1.06,4.23-1.37,6.38-.14.81-.27,1.62-.39,2.43-1.51.22-3.02.45-4.52.71-.17-.51-.35-1.02-.5-1.54-.44-1.61-.94-3.26-1.26-4.93-.35-1.73-.68-3.6-.12-5.32,1.01-3.11,4.73-4.15,6.97-1.97.71.7,1.8-.46,1.08-1.16-2.27-2.21-5.74-2.18-7.99.16-2.55,2.65-1.92,6.52-1.15,9.81.43,1.72.86,3.42,1.4,5.08.01.04.03.08.04.12-1.93.34-3.85.7-5.77,1.09-.95.2-.64,1.75.31,1.56,2-.4,4.01-.77,6.02-1.11.41,1.09.84,2.17,1.33,3.23.74,1.59,1.57,3.13,2.49,4.62.17.28.35.55.54.82,0,.07,0,.13-.01.2-.16,2.32-.27,4.64-.28,6.96,0,.56.51,1.17,1.05.82.88-.56,1.33-1.78.79-2.78-.08-.14-.18-.23-.3-.3.03-1.06.08-2.12.14-3.18.41.4.85.74,1.36,1,1.34.69,2.86.41,4.01-.71,1.18-1.12,1.81-2.79,2.45-4.3,1.42-3.46,2.29-7.28,2.44-11.09.03-1.91-.11-3.83-.4-5.7ZM730.99,407.5c-.95-1.74-1.78-3.55-2.49-5.4,1.24-.2,2.47-.39,3.71-.57-.13.91-.26,1.83-.36,2.75-.16,1.37-.27,2.75-.37,4.12-.19-.33-.36-.64-.49-.9ZM741.38,399.15c-.16,1.64-.45,3.26-.86,4.84-.41,1.6-.94,3.16-1.59,4.64-.53,1.21-1.14,2.75-2.2,3.48-1.27.86-2.41.14-3.42-1-.16-.18-.31-.38-.46-.58.06-.97.12-1.95.18-2.92.15-2.11.41-4.21.71-6.31,1.99-.27,3.98-.52,5.97-.71.41-.04.76-.31.8-.81.03-.41-.3-.92-.7-.87-1.94.2-3.88.45-5.82.71.14-.88.29-1.76.44-2.63.25-1.61.54-3.21,1.01-4.77.38-1.28.89-2.92,1.94-3.75,1.17-.92,2.46.05,3.05,1.26.64,1.33.8,3.01.93,4.5.13,1.63.2,3.29.03,4.92Z"/><path class="cls-1" d="M743.95,424.06c-6.18.58-12.37.46-18.52-.23.12-1.1.22-2.2.35-3.29.35-3.44.76-6.87,1.06-10.31.07-1.05-1.43-1.15-1.5-.11-.29,3.43-.71,6.84-1.05,10.26-.13,1.09-.22,2.18-.35,3.27-.51-.06-1.02-.12-1.52-.2-.94-.13-1.13,1.46-.19,1.6.5.07,1,.14,1.51.2-.01.08-.02.17-.04.25l-.03.21s-.05.07-.07.12c-.26.63-.25,1.44-.33,2.11l-.31,2.67c-.12,1.03,1.34,1.24,1.49.2l.63-4.31c.18-.02.37-.02.52-.03l1.82-.12c.39-.03.58-.3.62-.62,5.37.47,10.79.5,16.15.02.96-.09.72-1.78-.23-1.69Z"/><path class="cls-1" d="M721.04,414.17c-.5,2.57-.97,5.15-1.42,7.72l-.33,1.93-.39,1.92-.75,3.85c-.19,1.01,1.3,1.21,1.49.2l.75-3.87.39-1.93.33-1.94c.44-2.59.92-5.17,1.42-7.76.2-1.02-1.3-1.14-1.49-.13Z"/><path class="cls-1" d="M740.41,418.68c-.19-.07-.4-.08-.58.03-.05.03-.1.05-.15.07-.09.03-.18.04-.27.06-.08,0-.16,0-.24-.02-.1-.01-.2,0-.29.04-.1.02-.18.08-.26.15-.08.07-.14.15-.18.26-.06.1-.09.2-.1.32-.01.22.03.45.16.62l.14.15c.11.09.23.14.37.15.24.04.49.04.73,0,.15-.03.29-.08.44-.13.09-.03.18-.07.26-.12.17-.1.32-.26.39-.47.04-.11.06-.22.05-.34,0-.11-.01-.22-.06-.32-.09-.19-.22-.36-.41-.43Z"/><path class="cls-1" d="M740.61,436.59l-.53,3.32c-.2,1.1-.45,2.2-.68,3.3-.48,2.19-1,4.38-1.54,6.55-.87,3.72-2.08,7.36-3.34,10.96-.84-2.16-1.75-4.25-2.78-6.27.08-.53.15-1.07.24-1.6.23-1.85.49-3.7.78-5.54.1-.66.23-1.33.35-1.99,1.01.18,2.02.38,3.03.6.94.21,1.24-1.46.29-1.67-1.01-.22-2.02-.41-3.03-.59.11-.62.21-1.24.32-1.86l.53-2.74.48-2.75c.19-1.06-1.29-1.27-1.48-.22l-.48,2.74-.53,2.73c-.12.62-.21,1.24-.32,1.86-1.9-.3-3.8-.53-5.71-.69-.96-.08-1.25,1.53-.29,1.62,1.91.17,3.82.42,5.72.72-.11.66-.24,1.32-.34,1.98-.27,1.73-.51,3.46-.73,5.2-.07-.13-.14-.27-.21-.4-2.01-3.39-4.26-6.55-6.75-9.43-.81-.95-1.69-1.96-2.72-2.64,2.29-.81,4.62-1.52,6.93-2.12.93-.24.77-1.88-.18-1.63-1.57.41-3.12.87-4.66,1.38-1.55.5-3.11,1.05-4.65,1.64-.68.26-.64,1.47.11,1.53,1.16.09,2.04.79,2.85,1.62.78.79,1.5,1.66,2.21,2.53,1.45,1.77,2.82,3.65,4.1,5.61.97,1.46,1.81,2.95,2.6,4.48-.08.5-.15,1.01-.22,1.51-1.25-.44-2.63-.66-3.91-.97l-7.01-1.71c1.25-1.46,2.01-3.3,2.05-5.32.04-1.04-1.46-.88-1.5.15-.04,1.93-1.04,3.77-2.48,4.96-.52.43-.43,1.29.23,1.45l6.56,1.64,3.22.81,1.67.42c.23.06.5.09.72.18.07.02.13.06.19.1,0,0,0,.02,0,.03-.1.73.76,1.45,1.28.71.24-.35.31-.69.28-1.01.02-.18.06-.36.08-.54.9,1.94,1.74,3.93,2.48,5.99.21.58,1.11.86,1.38.1.76-2.14,1.5-4.3,2.2-6.47.34-1.09.72-2.17,1.01-3.27.29-1.11.57-2.21.86-3.32.56-2.22,1.08-4.44,1.58-6.68.24-1.12.5-2.24.7-3.37l.54-3.4c.16-1.09-1.32-1.3-1.48-.22Z"/><path class="cls-1" d="M731.94,467.59c-1.08-.73-2.37-1.24-3.68-1.25-1.27-.02-2.34.66-3.24,1.65-.79.88-1.59,2.21-2.81,2.21-.97,0-.98,1.64-.01,1.64,1.97,0,2.93-1.93,4.31-3.18,1.63-1.48,4.08-.21,5.38,1,.36.33.68.57.39,1.11-.27.52-.61,1.01-.92,1.5-.64,1.03-1.31,2.05-2,3.03-1.36,1.88-2.72,3.72-4.44,5.24-1.41,1.27-3.11,2.41-4.91,2.58-1.89.18-3.66-.7-4.91-2.1-.2-.22-.37-.45-.54-.68.34-1.15.7-2.29,1.04-3.44.9-3.41,1.7-6.85,2.51-10.28.24-1.02-1.22-1.38-1.46-.36-.81,3.42-1.61,6.84-2.5,10.24-.19.66-.4,1.31-.59,1.96-.37-.96-.58-1.98-.67-3.04-.23-2.09,0-4.29.48-6.28.31-1.3.71-2.59,1.16-3.85.35-.98.88-2.37,1.68-3.01.48-.37,1.16-.11,1.68,0l1.89.44c1.26.31,2.5.65,3.74,1.02.93.28,1.27-1.34.35-1.61-1.28-.38-2.57-.72-3.86-1.03l-1.89-.42c-.6-.13-1.22-.27-1.83-.14-1.09.24-1.76,1.28-2.28,2.26-.63,1.14-1.05,2.41-1.45,3.65-.74,2.34-1.28,4.91-1.27,7.42,0,2.41.37,4.72,1.6,6.79-.6,1.98-1.18,3.96-1.79,5.94-.31,1,1.12,1.45,1.43.45.5-1.62.98-3.24,1.47-4.86,1.14,1.27,2.61,2.2,4.26,2.5,2.13.38,4.26-.38,6.11-1.72,2.02-1.46,3.79-3.42,5.28-5.47.8-1.08,1.57-2.19,2.31-3.34.37-.59.74-1.17,1.1-1.75.36-.58.79-1.18.87-1.88.17-1.4-1.08-2.33-1.99-2.94Z"/><path class="cls-1" d="M718.46,473.4c-.1.48.13.83.52.99,1.53.62,3.11,1.1,4.73,1.42.38.08.83-.15.93-.61.09-.42-.1-.92-.52-1-1.62-.31-3.2-.78-4.74-1.4-.37-.15-.84.2-.93.6Z"/><path class="cls-1" d="M738.72,432.23c.96-.14.79-1.82-.17-1.67-2.26.35-4.52.53-6.79.57-.41,0-.7.54-.66.94.05.49.43.71.84.7,2.26-.03,4.53-.2,6.78-.54Z"/><path class="cls-1" d="M726.87,490.57c-4.12-.59-8.17-1.54-12.12-2.8-.57-.18-1.06.39-.97.99.2,1.58.24,3.17.18,4.76-.45-.14-.89-.28-1.32-.42l-5.72-1.9c-.92-.3-1.44,1.22-.52,1.52l5.5,1.85c.63.22,1.3.41,1.96.62-.17,2.13-.5,4.26-.88,6.4-.82,4.29-2.06,8.51-2.69,12.82-.11.69.7,1.18,1.2.7,2.63-2.55,5.15-5.33,7.42-8.34,1.17.31,2.31.69,3.44,1.13.9.35,1.51-1.24.6-1.6-.98-.38-1.97-.7-2.98-.98.21-.29.43-.57.63-.87,1.3-1.97,2.52-4.01,3.66-6.11,1.06-2.01,2.13-4.04,2.95-6.17.52-.34.45-1.48-.33-1.59ZM722.93,497.65c-1.1,2.03-2.29,4-3.55,5.9-.3.47-.62.93-.95,1.38-.41-.09-.82-.18-1.23-.27-.4-.08-.81.38-.86.78-.06.49.26.78.66.86.11.02.22.05.33.07-.69.87-1.41,1.73-2.12,2.57-.97,1.13-1.98,2.2-3.01,3.26.27-1.41.56-2.83.88-4.23.48-2.18,1.06-4.32,1.41-6.53.33-1.92.62-3.83.8-5.74.6.25,1.18.55,1.71.93.78.58,1.68-.82.9-1.39-.75-.55-1.59-.93-2.47-1.25.08-1.44.08-2.89-.04-4.33,3.36,1.03,6.77,1.83,10.24,2.39-.77,1.92-1.73,3.77-2.7,5.59Z"/><path class="cls-1" d="M701.42,505.44l-.76,2c-.25.67-.64,1.41-.76,2.12-.1.59.19,1.07.7,1.28.7.28,1.51.41,2.24.61l1.91.51c.55.15,1.3.52,1.88.24.57-.27.75-.97.96-1.53l.87-2.3,1.9-5.05c.64-1.68,1.16-3.41,1.74-5.11.15-.44-.05-.77-.33-.93-.05-.21-.18-.41-.43-.5-1.28-.5-2.59-.87-3.94-1.12-.53-.1-1.2-.31-1.74-.18-.58.14-.81.66-1,1.19-.98,2.96-2.14,5.86-3.23,8.77ZM706.01,510.66c-.03.09-.03.04,0,0h0ZM705.68,498.31c.12-.35.34-.77.39-1.14.01-.03.02-.04.03-.06.12.01.27.01.35.02,1.39.21,2.75.59,4.06,1.09-.47,1.4-.92,2.81-1.42,4.2l-1.75,4.65-.86,2.29c-.14.38-.31.76-.43,1.15-.01.04-.02.07-.03.1l-.56-.15-2.16-.57-1.08-.28c-.21-.06-.5-.09-.75-.16.09-.26.24-.57.3-.71l.43-1.13.86-2.26,1.82-4.76c.29-.75.53-1.52.8-2.28Z"/><path class="cls-1" d="M703.48,522.35c-1.06.66-2.05,1.41-3.01,2.23l-3.52-1.19c.38-.67.75-1.35,1.14-2.01.94-1.64,1.92-3.25,2.93-4.86.55-.88-.61-1.83-1.16-.95-1.03,1.63-2.02,3.27-2.98,4.93-.47.8-.91,1.6-1.36,2.41l-1.62-.55c-.89-.3-1.56,1.15-.66,1.47l1.46.5c-.22.39-.44.78-.67,1.16-.59,1.02-1.16,2.05-1.73,3.08-.27.02-.53.15-.67.45-.11.22-.09.52.03.75-1.03,1.94-2.03,3.9-3,5.87-.48.92.86,1.59,1.34.67.97-1.98,1.97-3.95,3.01-5.9.6.2,1.21.4,1.81.61-.95,1.52-1.74,3.12-2.33,4.8-.65,1.84-1.18,3.72-1.36,5.67-.2,2.02-.07,4.1.65,5.95.72,1.85,1.98,3.48,3.49,4.65,1.55,1.2,3.64,2.01,5.65,1.1,1.71-.78,3.19-2.62,3.06-4.64-.07-1.04-1.62-.89-1.55.17.09,1.43-1.05,2.67-2.31,3.07-1.56.49-3.13-.36-4.24-1.33-1.25-1.09-2.32-2.5-2.85-4.16-.52-1.64-.58-3.44-.35-5.18.47-3.32,1.64-6.55,3.44-9.38.04-.07.09-.13.13-.2,2.15.78,4.28,1.6,6.39,2.5.89.38,1.61-1.13.71-1.51-2.02-.85-4.07-1.64-6.13-2.38,1.04-1.37,2.22-2.62,3.49-3.76l8.01,2.75c.91.31,1.58-1.24.66-1.55l-7.21-2.44c.28-.22.55-.44.83-.65,3.04-2.19,7.45-4.26,10.57-1.71.75.62,1.76-.73,1.01-1.35-3.26-2.65-7.69-1.25-11.13.89ZM698.92,526.01c-1.16,1.11-2.22,2.33-3.16,3.63-.65-.23-1.31-.44-1.97-.66.49-.9.99-1.79,1.5-2.68.29-.49.57-.99.85-1.48l2.96,1.02c-.06.06-.12.11-.18.17Z"/><path class="cls-1" d="M708.44,537.42c-.09-.37-.4-.56-.76-.55-3.24.09-6.47.43-9.66,1.01-.85.15-.98,1.45-.13,1.62,2.81.57,5.24,2.48,6.47,5.17.3.65.53,1.67,1.46,1.43.88-.22,1.05-1.36,1.32-2.11.62-1.93,1.43-3.8,2.37-5.6.43-.82-.46-1.39-1.05-.98ZM706.51,541.3c-.23.57-.44,1.15-.64,1.73l-.21.6s-.04-.1-.06-.14c-.2-.41-.45-.82-.71-1.19-.53-.77-1.15-1.47-1.84-2.06-.55-.47-1.15-.87-1.78-1.21,2.15-.28,4.3-.45,6.46-.51.01,0,.02,0,.04-.01-.45.92-.88,1.84-1.26,2.8Z"/><path class="cls-1" d="M698.52,555.66c-2.48.93-4.9,1.98-7.26,3.14.04-1.13-.08-2.24-.5-3.25-.81-1.98-2.78-3.15-4.77-3.54-2.28-.45-4.65.01-6.94.43-.97.18-.61,1.69.36,1.52,3.12-.57,7.27-1.32,9.44,1.51.87,1.14.96,2.67.82,4.16-1.91.99-3.79,2.03-5.62,3.16-1.06.63-2.06,1.21-2.01,2.58.05,1.26.2,2.51.2,3.79,0,1.17-.05,2.36-.14,3.55-.18.16-.37.32-.55.48-1.3,1.1-2.77,2.03-4.28,2.79-1.3.66-2.85,1.26-4.24,1.01-1.61-.28-2.37-1.82-2.25-3.44.14-2.09,1.65-3.8,2.98-5.31.7-.77-.29-1.91-.99-1.14-1.39,1.57-2.87,3.28-3.35,5.37-.39,1.67-.17,3.57.93,4.82,2.53,2.89,7.04.57,9.92-1.29.55-.36,1.09-.75,1.61-1.16-.1.7-.22,1.4-.36,2.08-.61,2.87-1.56,5.72-2.76,8.48-.29.67.43,1.29,1.02.94,1.78-1.04,3.25-2.57,4.56-4.26,1.31-1.69,2.5-3.53,3.57-5.28l3.79-6.03,1.88-3.03c.61-1.02,1.18-2.06,1.77-3.09l3.94-7.01c.18-.32.14-.6,0-.81.37-.58.01-1.49-.77-1.2ZM684.1,564.53c1.76-1.05,3.5-2.04,5.27-3-.26,1.18-.63,2.36-1.16,3.44-1.13,2.31-2.69,4.39-4.47,6.2.05-1.18.06-2.36.01-3.52-.02-.56-.06-1.11-.1-1.66-.02-.27-.09-.58-.07-.85.03-.35.23-.43.52-.6ZM693.66,564.59l-1.08,1.91-1.15,1.87-2.32,3.73-2.32,3.67c-.77,1.23-1.55,2.44-2.4,3.62-.97,1.39-1.99,2.8-3.2,3.97,1.21-3.24,2.06-6.57,2.4-9.94,2.03-1.84,3.83-3.99,5.23-6.39,1.06-1.77,1.77-3.75,2.15-5.74.04-.22.08-.45.12-.67,2.1-1.06,4.25-2.02,6.44-2.88l-3.86,6.86Z"/><path class="cls-1" d="M682.68,558.86l-5.91-3.72c-.82-.51-1.61.88-.79,1.4l5.9,3.75c.82.52,1.63-.91.81-1.42Z"/><path class="cls-1" d="M675.14,559.85c-.36-.19-.83-.09-1.06.29-.22.35-.14.89.22,1.07,1.73.91,3.52,1.7,5.36,2.38.38.14.85-.19.98-.59.14-.45-.11-.82-.49-.96-1.72-.63-3.39-1.36-5-2.2Z"/><path class="cls-1" d="M673.19,586c-1.56.05-3.02,1-4.29,1.93-1.75,1.29-3.29,2.87-4.78,4.45-.55.61-1.11,1.2-1.68,1.8-1.36-.67-2.73-1.33-4.11-1.97.15-.52.29-1.04.46-1.55.48-1.63,1.06-3.23,1.73-4.79.7-1.62,1.5-3.34,2.94-4.43,2.62-1.97,6.19-.78,6.87,2.33.19.98,1.75.64,1.53-.36-.67-3.15-3.55-5.08-6.67-4.39-3.56.76-5.29,4.27-6.53,7.41-.64,1.69-1.23,3.4-1.73,5.13-1.78-.81-3.57-1.61-5.38-2.37-.89-.38-1.53,1.07-.63,1.46,1.88.8,3.74,1.64,5.59,2.49-.29,1.13-.55,2.26-.75,3.41-.3,1.72-.49,3.46-.58,5.21-.02.32-.02.65-.02.98-.04.05-.08.1-.12.16-1.4,1.86-2.84,3.67-4.16,5.59-.32.46-.25,1.25.4,1.27,1.04.04,2.11-.71,2.23-1.84.02-.16-.02-.3-.07-.42.58-.79,1.18-1.58,1.78-2.35.05-.06.09-.12.14-.18.12.56.29,1.1.55,1.59.72,1.32,2.13,1.97,3.7,1.69,1.56-.3,3.06-1.28,4.44-2.17,1.57-1.01,3.08-2.19,4.48-3.49,1.41-1.29,2.71-2.71,3.8-4.28,1.11-1.55,2.1-3.2,2.93-4.91.75-1.54,1.37-3.25,1.01-4.85-.34-1.5-1.5-2.61-3.08-2.55ZM656.89,599.64c.2-1.97.56-3.93,1.03-5.85,1.13.53,2.26,1.08,3.38,1.64-.63.68-1.26,1.35-1.86,2.05-.91,1.04-1.79,2.1-2.65,3.18.04-.38.07-.73.1-1.01ZM674.75,590.36c-.23,1.45-1.06,2.92-1.81,4.22-.81,1.43-1.74,2.79-2.76,4.08-1.02,1.29-2.22,2.43-3.45,3.51-1.25,1.08-2.58,2.06-3.96,2.91-1.12.69-2.51,1.61-3.79,1.62-1.73,0-2.23-1.68-2.3-3.5.59-.78,1.19-1.55,1.81-2.3,1.13-1.39,2.3-2.74,3.5-4.06.22-.24.45-.48.68-.72,1.79.91,3.57,1.83,5.33,2.8.36.2.81.18,1.12-.21.24-.33.25-.94-.1-1.13-1.7-.92-3.44-1.82-5.18-2.7.61-.65,1.21-1.29,1.82-1.95,1.12-1.18,2.28-2.33,3.56-3.34,1.05-.83,2.4-1.9,3.74-1.98,1.49-.1,2,1.44,1.79,2.76Z"/><path class="cls-1" d="M658.18,620.64c-5.42-3.03-10.46-6.64-15.14-10.7.72-.83,1.44-1.68,2.16-2.51l3.38-3.93c1.12-1.31,2.27-2.6,3.33-3.97.65-.82-.52-1.76-1.17-.94-1.05,1.36-2.19,2.65-3.31,3.95l-3.36,3.91c-.72.82-1.43,1.66-2.15,2.49-.38-.34-.76-.67-1.14-1.02-.7-.65-1.76.57-1.06,1.21.37.34.75.68,1.12,1.02-.06.06-.11.13-.17.19l-.14.15s-.08.03-.12.06c-.58.37-1.02,1.04-1.47,1.55l-1.77,2.02c-.69.78.4,1.78,1.11,1.01l2.96-3.2c.16.08.31.19.45.27l1.57.94c.33.2.65.08.86-.16,4.15,3.43,8.6,6.52,13.29,9.17.84.47,1.61-1.06.77-1.52Z"/><path class="cls-1" d="M644.92,599.51c-3.76,3.66-7.36,7.44-11.13,11.07-.73.72.38,1.73,1.11,1.01,3.79-3.65,7.4-7.44,11.17-11.13.74-.72-.42-1.67-1.16-.96Z"/><path class="cls-1" d="M656.74,615.31c.14.06.29.1.43.14.09.02.19.04.28.05.2.02.41-.04.59-.16.1-.07.17-.15.23-.25.07-.09.11-.19.14-.3.04-.2.02-.43-.09-.59-.12-.16-.29-.29-.5-.31-.05,0-.11-.02-.16-.03-.09-.03-.17-.07-.25-.11-.06-.05-.13-.09-.19-.15-.08-.07-.17-.11-.27-.13-.09-.03-.19-.04-.3-.02-.11.01-.2.05-.29.11-.1.05-.19.12-.26.21-.13.17-.23.39-.22.6l.03.2c.04.13.11.24.21.33.17.17.39.31.61.41Z"/><path class="cls-1" d="M648.34,629.07c-5.74,6.03-12.01,11.54-18.68,16.44.53-2.26.95-4.52,1.25-6.76.37-.39.72-.8,1.1-1.19,1.29-1.34,2.51-2.76,3.8-4.1.46-.49.94-.96,1.41-1.45.73.72,1.45,1.46,2.15,2.21.66.71,1.84-.51,1.18-1.21-.71-.75-1.43-1.48-2.17-2.21.44-.45.87-.91,1.32-1.35l2-1.96,1.96-1.99c.76-.77-.34-1.78-1.1-1.02l-1.95,1.98-1.99,1.95c-.45.44-.88.9-1.32,1.35-1.39-1.32-2.83-2.59-4.32-3.81-.74-.61-1.9.56-1.15,1.17,1.48,1.23,2.91,2.51,4.3,3.83-.46.48-.94.95-1.4,1.44-1.21,1.26-2.35,2.57-3.55,3.83.01-.14.03-.28.05-.41.28-3.92.19-7.81-.23-11.6-.14-1.24-.28-2.57-.75-3.72,2.34.63,4.66,1.36,6.92,2.19.9.33,1.7-1.12.78-1.45-3.04-1.08-6.18-2.03-9.39-2.79-.71-.17-1.36.85-.77,1.33.9.73,1.23,1.81,1.43,2.95.19,1.09.3,2.22.39,3.34.19,2.29.26,4.61.21,6.95-.06,1.72-.23,3.45-.44,5.18-.34.36-.68.73-1.01,1.09-.78-1.08-1.79-2.03-2.67-3.02l-4.81-5.38c1.85-.51,3.53-1.59,4.72-3.21.62-.84-.71-1.55-1.32-.72-1.15,1.55-3.02,2.5-4.87,2.67-.67.06-1.08.82-.63,1.33l4.48,5.06,2.2,2.49,1.14,1.29c.15.18.36.36.49.55.04.06.07.12.1.19,0,0-.01.01-.02.02-.49.55-.19,1.63.65,1.31.39-.15.65-.39.8-.68.12-.14.25-.27.37-.4-.35,2.11-.79,4.23-1.34,6.36-.16.59.43,1.34,1.08.87,7.4-5.29,14.37-11.29,20.69-17.94.75-.81-.35-1.82-1.1-1.02Z"/><path class="cls-1" d="M621.29,646.56c-1.04-.73-2.3-.77-3.59-.46-1.15.28-2.55.93-3.56.24-.8-.54-1.73.81-.93,1.35,1.63,1.11,3.5.06,5.34-.2,2.18-.3,3.48,2.13,3.87,3.87.11.48.24.86-.3,1.14-.52.28-1.07.49-1.6.73-1.11.49-2.23.96-3.35,1.38-1.08.4-2.16.79-3.28,1.09-1.12.29-2.25.53-3.37.68-1.88.26-3.91.25-5.5-.63-1.65-.92-2.62-2.64-2.87-4.51-.04-.28-.06-.57-.06-.85.93-.76,1.86-1.52,2.79-2.29.68-.57,1.37-1.12,2.03-1.7l1.96-1.77,3.91-3.57c.77-.71-.23-1.83-1-1.12l-3.89,3.56-1.96,1.77c-.66.58-1.35,1.13-2.02,1.69-.53.44-1.06.87-1.59,1.31.7-2.97,2.89-5.66,5.14-7.79.99-.9,2.04-1.75,3.12-2.53.84-.61,2.04-1.48,3.1-1.52.62-.02,1.03.57,1.39.96l1.31,1.43c.86.96,1.69,1.95,2.5,2.96.62.77,1.82-.37,1.21-1.12-.84-1.04-1.71-2.05-2.6-3.04l-1.32-1.42c-.42-.44-.85-.92-1.43-1.15-1.02-.41-2.19.05-3.19.54-1.17.59-2.22,1.4-3.24,2.21-1.93,1.51-3.8,3.36-5.24,5.41-1.41,1.93-2.38,4.12-2.54,6.52-1.6,1.3-3.2,2.6-4.82,3.88-.84.62.08,1.8.93,1.18,1.32-1.05,2.64-2.11,3.95-3.17.23,1.68.92,3.28,2.11,4.45,1.54,1.52,3.73,2.09,6,2.02,2.47-.08,5.04-.69,7.47-1.5,1.27-.44,2.53-.93,3.78-1.46.64-.28,1.26-.55,1.89-.83.62-.28,1.31-.53,1.78-1.06.93-1.06.42-2.54.02-3.56-.48-1.21-1.26-2.37-2.33-3.12Z"/><path class="cls-1" d="M609.25,646.88c-.35.34-.36.76-.13,1.11.91,1.38,1.95,2.67,3.1,3.85.27.28.77.34,1.11.02.31-.3.43-.82.14-1.12-1.16-1.17-2.2-2.46-3.12-3.83-.22-.33-.81-.31-1.1-.03Z"/><path class="cls-1" d="M650.04,622.93c-2.06-.99-4.03-2.12-5.91-3.38-.34-.22-.88.05-1.07.4-.23.43-.05.82.29,1.05,1.88,1.26,3.85,2.4,5.9,3.4.87.43,1.68-1.05.8-1.48Z"/><path class="cls-1" d="M598.06,656.63c-.37-.47-1.11-.29-1.38.24-.74,1.4-1.6,2.74-2.54,4.03-.29-.37-.58-.73-.85-1.09l-3.65-4.8c-.59-.77-1.87.2-1.28.97l3.49,4.64c.4.54.84,1.07,1.27,1.62-1.33,1.67-2.8,3.26-4.34,4.79-3.15,3-6.46,5.92-9.46,9.06-.49.49-.1,1.35.6,1.25,3.64-.56,7.23-1.51,10.8-2.7.78.92,1.53,1.86,2.21,2.86.54.8,1.94-.18,1.4-.98-.59-.86-1.22-1.68-1.89-2.48.34-.12.68-.23,1.02-.35,4.29-1.69,8.4-3.89,12.39-6.39.63.04,1.24-.95.65-1.49-3.06-2.8-5.86-5.89-8.42-9.17ZM592.96,672.26c-.53.2-1.07.37-1.6.56-.28-.3-.56-.61-.86-.9-.29-.29-.88-.14-1.15.17-.33.37-.23.8.06,1.09.08.08.14.17.22.25-2.48.8-4.98,1.44-7.48,1.95,2.59-2.6,5.34-5.06,7.97-7.59,1.36-1.39,2.67-2.82,3.89-4.3.36.55.67,1.12.88,1.74.32.92,1.84.27,1.52-.65-.31-.88-.79-1.67-1.34-2.43.88-1.15,1.69-2.35,2.42-3.59,2.18,2.74,4.55,5.33,7.1,7.76-3.74,2.32-7.61,4.36-11.63,5.96Z"/><path class="cls-1" d="M590.15,662.14c-.77-1.13-1.64-2.18-2.62-3.15-.38-.38-.81-.93-1.33-1.13-.56-.21-1.04.09-1.49.43l-7.64,5.4-1.74,1.24c-.59.41-1.31.82-1.82,1.32-.42.42-.46.97-.16,1.43.42.63,1.01,1.2,1.51,1.77l1.29,1.51c.37.43.78,1.16,1.42,1.27.63.11,1.16-.38,1.65-.72l2-1.43,4.4-3.13c1.46-1.05,2.95-2.07,4.36-3.19.37-.28.39-.66.25-.96.08-.21.08-.44-.07-.66ZM577.91,670.6c-.05.04-.04.02,0,0h0ZM585.08,665.49l-4.05,2.88-2,1.42c-.33.24-.68.46-1,.71-.05.04-.06.05-.09.06l-.38-.43-1.46-1.68-.73-.84c-.14-.17-.36-.35-.52-.56.22-.17.52-.34.64-.42l.98-.7,1.97-1.4,4.17-2.93,1.98-1.38c.31-.21.72-.44.97-.72.03-.01.04-.02.06-.03.09.08.22.16.28.22,1.03.96,1.92,2.04,2.72,3.19-1.17.9-2.37,1.75-3.57,2.61Z"/><path class="cls-1" d="M569.23,678.82c-1.23-.03-2.49.01-3.75.13l-2.24-2.98c.7-.33,1.4-.65,2.1-.98,1.69-.83,3.41-1.63,5.14-2.39.95-.42.53-1.87-.43-1.45-1.76.78-3.5,1.58-5.22,2.42-.83.41-1.67.8-2.51,1.19l-1.03-1.37c-.57-.77-1.95.04-1.38.82l.93,1.26c-.4.19-.81.38-1.21.58-1.06.51-2.11,1.05-3.15,1.6-.23-.14-.52-.17-.81,0-.21.13-.37.39-.4.64-1.94,1.04-3.86,2.1-5.81,3.11-.91.49-.19,1.81.73,1.31,1.96-1.02,3.89-2.09,5.84-3.13.39.51.77,1.01,1.15,1.53-3.4,1.57-6.58,3.65-8.97,6.54-1.3,1.56-2.35,3.37-2.8,5.32-.46,1.92-.36,3.94.23,5.76.6,1.85,1.88,3.71,4.07,4.14,1.87.35,4.1-.38,5.13-2.12.53-.91-.83-1.64-1.37-.73-.73,1.25-2.37,1.63-3.62,1.26-1.57-.48-2.4-2.09-2.76-3.5-.41-1.58-.5-3.37,0-5.04.49-1.66,1.45-3.18,2.61-4.51,2.31-2.55,5.2-4.54,8.37-5.88,1.34,1.85,2.63,3.74,3.86,5.66.52.81,1.96-.04,1.43-.85-1.19-1.84-2.43-3.64-3.72-5.41,1.62-.56,3.29-.95,4.99-1.17l5.06,6.8c.58.77,2.03-.09,1.45-.86l-4.59-6.11c.36-.02.72-.03,1.07-.03,3.74-.1,8.52.64,9.67,4.52.27.94,1.86.38,1.59-.55-1.2-4.03-5.64-5.36-9.66-5.51ZM563.37,679.2c-1.58.27-3.13.69-4.63,1.25-.41-.56-.83-1.1-1.26-1.65.91-.47,1.82-.94,2.74-1.39.51-.25,1.03-.49,1.54-.74l1.86,2.5c-.08.01-.17.02-.25.04Z"/><path class="cls-1" d="M564.81,694.05c.14-.36-.02-.69-.32-.89-2.73-1.76-5.55-3.23-8.55-4.63-.8-.37-1.65.6-1.04,1.23,2.01,2.07,2.92,4.99,2.43,7.93-.12.71-.5,1.68.4,2.01.85.31,1.62-.54,2.27-1.01.82-.6,1.66-1.15,2.53-1.68.85-.55,1.72-1.07,2.61-1.56.81-.44.4-1.41-.32-1.4ZM561.03,696.17c-.52.33-1.03.67-1.53,1.03l-.52.38c0-.05.02-.11.03-.16.06-.46.1-.92.09-1.37,0-.92-.11-1.84-.34-2.71-.18-.7-.46-1.36-.78-2,.49.25.98.51,1.46.77,1.42.77,2.81,1.59,4.17,2.46.01,0,.03,0,.04.01-.89.51-1.75,1.05-2.62,1.59Z"/><path class="cls-1" d="M546.31,703.46c-2.56-.61-5.15-1.1-7.74-1.46.67-.92,1.19-1.91,1.41-2.98.44-2.1-.52-4.18-1.94-5.62-1.62-1.65-3.84-2.6-5.96-3.53-.9-.4-1.45,1.07-.56,1.46,2.89,1.28,6.73,2.98,6.93,6.55.08,1.42-.7,2.74-1.64,3.9-.8-.09-1.6-.17-2.42-.26-1.35-.15-2.7-.27-4.05-.34-1.23-.07-2.37-.15-3.11,1.03-.67,1.08-1.25,2.2-1.96,3.27-.66.97-1.36,1.95-2.12,2.85-.25.03-.49.06-.74.08-1.72.11-3.45.07-5.13-.14-1.44-.18-3.05-.55-4.06-1.53-1.17-1.14-.92-2.84.08-4.12,1.29-1.64,3.47-2.28,5.46-2.68,1.02-.21.85-1.7-.17-1.49-2.07.42-4.23,1.05-5.81,2.51-1.26,1.17-2.15,2.87-1.95,4.53.46,3.82,5.48,4.42,8.9,4.49.66.02,1.31.01,1.97-.02-.47.5-.96,1-1.46,1.49-2.12,2.04-4.5,3.88-7.05,5.5-.61.39-.37,1.31.31,1.35,4.1.27,8.28-1.79,12.1-3.3,4.37-1.86,8.68-3.84,13-5.82l7.18-3.62c.32-.16.45-.42.46-.67.63-.27.85-1.23.04-1.43ZM527.37,705.06c.29-.48.58-.96.85-1.44.13-.24.25-.54.42-.75.22-.27.43-.23.77-.21,2.03.08,4.08.3,6.09.53-.89.82-1.91,1.52-2.95,2.15-2.23,1.28-4.67,2.15-7.17,2.65.71-.95,1.37-1.93,1.99-2.92ZM537.28,708.15l-8,3.61c-1.32.58-2.64,1.19-3.98,1.75l-4.05,1.58c-1.58.61-3.22,1.21-4.87,1.5,1.34-.96,2.63-1.98,3.85-3.06,1.33-1.21,2.6-2.44,3.75-3.78,2.72-.36,5.4-1.15,7.9-2.37,1.84-.92,3.61-2.03,5.04-3.47.16-.16.32-.33.47-.49,2.32.29,4.63.7,6.92,1.21-2.34,1.18-4.67,2.38-7.04,3.52Z"/><path class="cls-1" d="M531.45,697.21l-2.78-6.4c-.39-.88-1.84-.22-1.46.66l2.75,6.41c.38.89,1.88.21,1.49-.68Z"/><path class="cls-1" d="M523.61,693.39c-.38.17-.62.66-.42,1.02.92,1.72,1.95,3.39,3.08,4.98.24.33.81.32,1.13.06.37-.29.38-.74.14-1.08-1.06-1.48-2.02-3.03-2.89-4.64-.19-.36-.63-.54-1.04-.35Z"/><path class="cls-1" d="M259.04,702.76c-1.55-3.33-5.39-4.13-8.74-4.6-1.78-.27-3.58-.45-5.37-.55.38-1.92.74-3.84,1.06-5.78.16-.96-1.4-1.23-1.57-.27-.34,2.01-.73,4.01-1.13,6.01-1.16-.02-2.33,0-3.5.08-1.75.12-3.49.35-5.22.66-.31.05-.63.11-.94.18-.06-.03-.12-.06-.18-.09-2.1-1-4.23-1.92-6.4-2.76-.52-.2-1.28.05-1.15.69.21,1.02,1.19,1.88,2.32,1.73.16-.02.29-.09.39-.17.91.38,1.81.77,2.71,1.18.07.03.14.06.2.1-.51.24-1,.53-1.42.91-1.13,1.01-1.42,2.52-.79,3.99.64,1.48,1.91,2.77,3.11,3.87,2.71,2.57,5.98,4.72,9.48,6.28,1.77.72,3.61,1.28,5.47,1.69,1.68.36,3.49.56,4.96-.17,1.39-.68,2.19-2.06,1.77-3.59-.41-1.5-1.68-2.69-2.88-3.7-1.67-1.4-3.57-2.5-5.46-3.59-.7-.43-1.41-.84-2.12-1.25.34-1.49.67-2.98.97-4.47.54.02,1.08.04,1.61.09,1.67.16,3.36.35,5.04.62,1.74.29,3.6.66,5.01,1.8,2.54,2.06,2.17,5.9-.67,7.21-.91.42-.22,1.85.7,1.43,2.89-1.32,4.1-4.57,2.73-7.51ZM245.59,706.48c1.41.81,2.81,1.66,4.09,2.66,1.06.82,2.41,1.88,2.81,3.16.44,1.42-.93,2.28-2.28,2.39-1.47.12-3.1-.34-4.54-.75-3.18-.85-6.15-2.43-8.82-4.31-1.34-.96-2.61-2.01-3.77-3.15-.47-.46-1.01-.97-1.47-1.53-.45-.57-.82-1.19-.97-1.82-.39-1.71,1.11-2.55,2.85-3.02.08.04.16.07.23.11l2.44,1.12c1.91.91,3.79,1.89,5.64,2.93-.47,1.95-.95,3.89-1.49,5.82-.11.39.01.82.47,1.03.37.17.96.05,1.07-.34.51-1.88.98-3.78,1.43-5.68.77.45,1.53.91,2.29,1.38ZM239.73,701.43c-1.21-.64-2.45-1.23-3.7-1.81.37-.05.71-.1.99-.14,1.97-.27,3.96-.39,5.95-.38-.26,1.22-.53,2.44-.81,3.66-.81-.45-1.62-.9-2.43-1.32Z"/><path class="cls-1" d="M226.74,689.91l9.24,4.7c.94.46,1.58-.89.65-1.35l-9.2-4.68c-.98-.48-1.95-1-2.91-1.53.24-.45.48-.9.73-1.35.47-.84-.94-1.61-1.42-.77-.25.44-.49.89-.73,1.33-.07-.04-.15-.08-.22-.12l-.18-.1s-.05-.07-.08-.11c-.5-.47-1.26-.75-1.86-1.06l-2.39-1.24c-.92-.48-1.64.8-.73,1.31l3.81,2.12c-.04.17-.12.35-.16.5l-.55,1.74c-.12.37.07.65.35.8-2.38,4.83-4.36,9.86-5.87,15.07-.28.94,1.38,1.36,1.65.42,1.7-5.98,4.07-11.74,6.93-17.22.97.53,1.94,1.06,2.93,1.55Z"/><path class="cls-1" d="M227.7,683.68c-2.2-1.42-4.42-2.81-6.64-4.18-.88-.54-1.6.77-.73,1.31,2.24,1.37,4.46,2.77,6.67,4.2,2.26,1.34,4.5,2.7,6.74,4.1.88.55,1.53-.8.66-1.35-2.22-1.39-4.46-2.75-6.71-4.08Z"/><path class="cls-1" d="M223.36,702.15c-.07-.09-.16-.15-.26-.2-.2-.09-.43-.13-.63-.07l-.19.08c-.12.07-.21.17-.28.29-.13.21-.21.45-.26.69-.03.15-.03.3-.03.45,0,.1,0,.19.02.29.03.2.13.39.3.53.09.08.19.13.3.16.1.05.21.07.32.06.21-.01.42-.08.55-.23.13-.15.22-.35.18-.55,0-.05,0-.11-.01-.16,0-.09.02-.18.05-.27.03-.07.06-.15.1-.22.05-.09.07-.19.06-.29.01-.1,0-.2-.05-.29-.04-.1-.09-.19-.17-.26Z"/><path class="cls-1" d="M211.62,686.02c.38-3.26.58-6.54.58-9.82,0-.73-1.15-1.12-1.48-.44-.51,1.05-1.48,1.62-2.55,2.08-1.02.44-2.1.81-3.17,1.16-2.18.71-4.45,1.36-6.71,1.78-1.68.33-3.4.56-5.14.76-.43-.24-.87-.49-1.3-.72.87-1.01,1.56-2.21,2.32-3.3l4.13-5.91c.93,1.67,2.38,3.02,4.2,3.87.94.44,1.34-1.03.4-1.46-1.74-.81-3.13-2.36-3.71-4.13-.21-.64-1.05-.86-1.45-.3l-3.9,5.53-1.92,2.71-.99,1.41c-.13.19-.27.43-.43.6-.05.06-.1.1-.16.14,0,0-.02,0-.02-.01-.65-.35-1.63.2-1.12.94.24.34.53.54.85.62.16.09.32.18.48.27-2.14.16-4.31.23-6.51.18-.62-.01-1.21.73-.59,1.25,3.47,2.93,7.02,5.82,10.71,8.53,3.76,2.6,7.57,5.17,11.52,7.49.96.54,1.7-.77.74-1.31-3.87-2.28-7.61-4.79-11.29-7.33-3.1-2.25-6.08-4.65-9-7.09,2.33-.02,4.62-.13,6.87-.36.47.27.95.52,1.41.79l2.41,1.42,2.43,1.38c.59.33,1.16.69,1.74,1.03-.54.88-1.09,1.75-1.66,2.6-.54.8.92,1.67,1.46.87.57-.86,1.12-1.73,1.65-2.61,2.14,1.28,4.26,2.59,6.36,3.94.93.56,1.66-.75.74-1.3-2.09-1.34-4.21-2.65-6.34-3.93.96-1.66,1.87-3.35,2.71-5.08.42-.86-.98-1.71-1.41-.84-.85,1.72-1.77,3.41-2.74,5.07-.58-.34-1.15-.69-1.73-1.02l-2.42-1.37-2.11-1.24c.14-.02.29-.03.43-.05,3.82-.53,7.64-1.59,11.22-2.86,1.18-.42,2.44-.87,3.45-1.6-.07,2.42-.24,4.83-.53,7.23-.12.97,1.45,1.45,1.56.47Z"/><path class="cls-1" d="M182.78,671.98c-.54-1.05-1.5-2.26-1.06-3.4.34-.91-1.19-1.49-1.54-.59-.71,1.84.76,3.41,1.43,5.14.8,2.04-1.27,3.87-2.88,4.65-.44.22-.78.43-1.19-.03-.39-.44-.73-.93-1.08-1.39-.73-.96-1.45-1.94-2.12-2.93-1.28-1.92-2.4-4-3.23-6.1-.69-1.76-1.15-3.74-.66-5.48.51-1.82,1.97-3.15,3.73-3.83.27-.1.54-.19.81-.26l2.88,2.17c1.42,1.04,2.81,2.14,4.28,3.13l4.39,2.96c.87.58,1.73-.65.86-1.23l-4.37-2.95c-1.46-.98-2.84-2.07-4.26-3.11l-1.65-1.25c1.04,0,2.08.16,3.11.46,1,.29,1.99.7,2.93,1.2.94.49,1.88,1,2.72,1.58,1.11.75,2.18,1.57,3.2,2.44.79.67,1.92,1.63,2.21,2.66.17.6-.32,1.13-.62,1.58l-1.09,1.6c-.74,1.06-1.51,2.1-2.3,3.11-.59.76.77,1.71,1.35.95.81-1.05,1.6-2.13,2.36-3.22l1.08-1.61c.34-.51.7-1.04.8-1.66.18-1.11-.53-2.16-1.25-3-.85-.99-1.88-1.83-2.91-2.63-3.84-2.9-8.53-5.67-13.41-4.83l-.73-.55c-1.4-1.06-2.8-2.13-4.13-3.28-.8-.67-1.74.5-.93,1.17,1.28,1.1,2.62,2.13,3.97,3.15-1.59.61-2.99,1.65-3.85,3.08-1.12,1.85-1.17,4.1-.58,6.29.64,2.39,1.86,4.71,3.18,6.92.68,1.18,1.47,2.26,2.27,3.36.42.55.83,1.1,1.25,1.64.42.54.82,1.15,1.45,1.48,1.25.66,2.57-.18,3.47-.81,1.07-.75,2.02-1.77,2.5-2.99.47-1.18.22-2.41-.38-3.6Z"/><path class="cls-1" d="M178.96,664.07c-1.13,1.2-2.15,2.5-3.03,3.89-.21.33-.16.84.22,1.11.35.25.9.23,1.12-.12.88-1.4,1.89-2.7,3.01-3.91.27-.29.11-.85-.23-1.08-.4-.28-.81-.2-1.1.11Z"/><path class="cls-1" d="M214.06,690.68c-.48-.13-.81.15-.96.53-.79,2.12-1.45,4.29-1.94,6.51-.21.95,1.42,1.39,1.63.43.49-2.23,1.13-4.4,1.92-6.53.14-.38-.25-.85-.64-.95Z"/><path class="cls-1" d="M167.47,653.98c-1.56-.38-3.06-.9-4.53-1.52.29-.37.58-.73.87-1.09l3.84-4.66c.61-.75-.63-1.76-1.25-1.02l-3.71,4.46c-.43.51-.85,1.07-1.29,1.61-5.8-2.77-11.06-6.99-16.63-10.28-.59-.36-1.34.21-1.08.87,1.38,3.42,3.1,6.74,5.09,9.92-.71.97-1.45,1.91-2.26,2.79-.65.71.63,1.84,1.28,1.13.7-.77,1.35-1.57,1.97-2.4,2.76,4.13,5.99,8,9.66,11.5.12.62,1.2.98,1.58.3,2.04-3.64,4.4-7.08,7-10.32.37-.46.03-1.14-.55-1.29ZM160.11,663.84c-1.48-1.45-2.91-2.95-4.26-4.5-1.52-1.73-2.95-3.52-4.21-5.45-.32-.47-.61-.95-.92-1.43.23-.34.46-.69.68-1.04.22-.34-.07-.89-.43-1.08-.44-.23-.83-.04-1.05.31-.06.09-.13.18-.19.27-.58-.94-1.13-1.9-1.66-2.86-.72-1.3-1.39-2.62-2-3.97,1.23.77,2.46,1.53,3.68,2.33,1.87,1.22,3.72,2.47,5.59,3.66,1.62,1.06,3.32,1.99,5.06,2.83-.45.47-.94.91-1.49,1.26-.83.52.17,1.85.99,1.32.78-.5,1.45-1.16,2.06-1.86,1.33.58,2.68,1.1,4.07,1.52-2.17,2.76-4.14,5.65-5.93,8.69Z"/><path class="cls-1" d="M156.3,636.47l-1.61-1.41c-.53-.49-1.05-1.14-1.67-1.51-.51-.31-1.06-.23-1.43.18-.52.56-.93,1.26-1.38,1.88l-1.17,1.61c-.34.46-.95,1.03-.91,1.67.04.64.61,1.07,1.05,1.48.6.56,1.23,1.08,1.85,1.63l8.16,7.08c.36.29.73.23.99.02.22.03.45-.03.63-.23.93-1.01,1.75-2.1,2.46-3.27.28-.46.72-1,.8-1.56.08-.58-.32-1-.74-1.38l-7.03-6.19ZM149.78,638.87s-.02-.03,0,0h0ZM159.76,647.58l-7.1-6.17-1.85-1.61c-.31-.26-.59-.57-.9-.83-.04-.04-.06-.05-.08-.07l.34-.47,1.31-1.81.66-.91c.13-.18.26-.43.42-.64.21.18.43.44.54.55.29.28.58.55.89.81l1.82,1.59,3.84,3.37,1.81,1.6c.28.25.59.61.9.8.02.02.03.03.04.05-.06.11-.11.25-.15.32-.7,1.23-1.55,2.36-2.49,3.4Z"/><path class="cls-1" d="M142.62,627.63c1.14,1.52,2.37,2.95,3.5,4.46.63.82,1.95.08,1.31-.75-1.16-1.54-2.39-3-3.56-4.53-.56-.73-1.15-1.44-1.73-2.17l1.12-1.34c.62-.74-.5-1.89-1.13-1.15l-1.01,1.21c-.28-.35-.55-.71-.84-1.05-.75-.9-1.53-1.78-2.3-2.66.09-.27.06-.56-.18-.81-.17-.18-.47-.27-.73-.24-.19-.21-.37-.43-.55-.64-1.24-1.46-2.49-2.91-3.78-4.33-.7-.77-1.81.24-1.11,1.01,1.27,1.4,2.51,2.83,3.73,4.27.21.23.41.48.62.72-.4.49-.81.97-1.22,1.45-1.09-1.4-2.25-2.76-3.57-3.93-1.46-1.3-3.07-2.41-4.84-3.28-1.84-.89-3.84-1.5-5.79-1.53-1.97-.01-3.93.56-5.55,1.55-1.67,1.01-3.18,2.68-3.08,4.91.04.95.35,1.94.89,2.78.56.82,1.35,1.46,2.32,1.76,1.01.3,1.41-1.19.39-1.5-.69-.21-1.23-.69-1.58-1.28-.34-.61-.49-1.32-.44-1.99.12-1.65,1.48-2.81,2.77-3.49,1.46-.77,3.15-1.25,4.87-1.13,1.71.11,3.44.68,5,1.5,3.02,1.56,5.48,3.92,7.5,6.61.05.06.09.12.13.18-1.5,1.73-3.02,3.43-4.62,5.07-.67.69.5,1.89,1.17,1.19,1.52-1.58,2.98-3.21,4.41-4.87.93,1.44,1.7,2.98,2.3,4.58l-5.45,6.49c-.61.74.56,1.95,1.18,1.2l4.89-5.87c.1.34.2.69.28,1.03.44,1.86.77,3.96.55,5.86-.22,1.9-1,3.62-2.76,4.62-.85.48.06,1.9.91,1.41,3.65-2.1,3.92-6.71,3.12-10.65-.22-1.24-.55-2.46-.95-3.66l2.36-2.84c.48.6.98,1.19,1.45,1.81ZM138.15,626.91c-.65-1.56-1.46-3.06-2.41-4.46.44-.52.88-1.04,1.31-1.57.67.77,1.36,1.54,2.02,2.33.37.44.71.89,1.07,1.34l-1.99,2.37Z"/><path class="cls-1" d="M125.83,620.85c-1.55,2.43-4.18,3.99-7.17,4.19-.72.05-1.76-.1-1.87.85-.1.89.91,1.45,1.52,1.96,1.56,1.3,2.94,2.79,4.3,4.29.62.68,1.47.06,1.3-.64.38.05.67-.18.79-.51,1.04-3.02,1.93-6.2,2.57-9.42.17-.86-.97-1.47-1.44-.73ZM123.14,630.47s0,.01,0,.02c-.69-.75-1.37-1.5-2.11-2.2-.44-.43-.9-.84-1.36-1.24l-.49-.42c.05,0,.11,0,.17,0,.46-.04.92-.12,1.36-.23.9-.21,1.77-.53,2.57-.96.64-.34,1.22-.76,1.77-1.22-.53,2.12-1.16,4.21-1.9,6.26Z"/><path class="cls-1" d="M113.36,608.47c2.16-.06,3.95-1.48,5.03-3.19,1.23-1.96,1.63-4.33,2.04-6.6.18-.97-1.34-1.2-1.53-.22-.62,3.14-1.33,7.23-4.78,8.26-1.36.4-2.85-.02-4.16-.7-.22-2.16-.5-4.33-.9-6.46-.22-1.21-.41-2.34-1.73-2.77-1.21-.4-2.44-.7-3.65-1.14-1.1-.42-2.17-.91-3.23-1.45-.08-.23-.16-.46-.23-.69-.51-1.64-.88-3.33-1.08-5-.16-1.44-.19-3.09.53-4.29.84-1.4,2.55-1.56,4.04-.88,1.91.87,3.05,2.84,3.91,4.67.44.94,1.86.43,1.42-.51-.9-1.91-2.02-3.86-3.82-5.05-1.44-.95-3.31-1.42-4.88-.83-3.62,1.34-3.02,6.34-2.27,9.67.14.64.31,1.28.49,1.91-.61-.35-1.21-.7-1.81-1.08-1.25-.79-2.46-1.66-3.63-2.58-.59-.46-1.16-.95-1.73-1.44-.55-.5-1.08-1.03-1.61-1.57-.51-.52-1.34-.07-1.24.61.27,2.07,1.21,3.97,2.34,5.79,1.13,1.82,2.47,3.55,3.66,5.23.69.97,1.36,1.95,2.08,2.89l2.18,2.82,4.4,5.61c1.63,2.13,3.43,4.12,5.16,6.17.24.28.51.34.76.29.41.55,1.4.53,1.4-.29,0-2.62-.14-5.24-.4-7.85,1.05.43,2.15.7,3.24.68ZM104.56,597.59c.53.17,1.07.34,1.61.49.26.07.58.12.83.23.32.15.32.36.39.69.39,1.98.67,4,.89,6.01-.99-.68-1.92-1.48-2.76-2.35-1.77-1.86-3.21-4.02-4.25-6.34,1.06.49,2.19.89,3.3,1.26ZM108.92,613.98c-3.64-4.19-7.02-8.6-10.43-12.98-1.78-2.29-3.39-4.7-5.07-7.06-.96-1.41-1.97-2.85-2.64-4.41,2.61,2.29,5.49,4.23,8.46,5.79.23.63.48,1.26.75,1.88.88,1.9,2.03,3.67,3.37,5.3,1.32,1.58,2.85,3,4.55,4.1.19.13.38.25.58.36.22,2.35.38,4.67.42,7.01Z"/><path class="cls-1" d="M113.19,599.72l5.59-4.18c.77-.58-.22-1.84-.99-1.26l-5.61,4.16c-.78.57.24,1.87,1.01,1.29Z"/><path class="cls-1" d="M114.96,592.33c.3-.27.38-.74.1-1.09-.26-.33-.79-.44-1.09-.18-1.46,1.29-2.85,2.67-4.14,4.14-.27.3-.12.86.21,1.11.38.29.81.19,1.08-.12,1.2-1.38,2.48-2.67,3.84-3.87Z"/><path class="cls-1" d="M91.28,581.1c.5-1.47.12-3.16-.32-4.67-.3-1.04-.69-2.06-1.12-3.06-.41-1.01-.85-2.02-1.31-3.01-.34-.75-.7-1.48-1.06-2.22,1.12-1.03,2.23-2.08,3.32-3.14.44.32.87.64,1.29.98,1.32,1.06,2.57,2.19,3.76,3.39,1.29,1.22,2.62,2.57,3.15,4.29.95,3.12-1.52,6.08-4.61,5.56-.99-.17-1.22,1.4-.23,1.57,3.14.53,5.98-1.46,6.49-4.66.6-3.62-2.21-6.39-4.64-8.72-1.29-1.25-2.67-2.41-4.12-3.49,1.39-1.37,2.77-2.75,4.12-4.16.67-.7-.48-1.8-1.15-1.1-1.41,1.46-2.86,2.89-4.32,4.31-.96-.66-1.94-1.31-2.95-1.89-1.54-.87-3.04-1.71-4.62-2.43-.29-.14-.59-.26-.89-.39-.03-.06-.06-.11-.1-.17-1.19-2-2.45-3.95-3.78-5.87-.32-.46-1.09-.67-1.34-.08-.4.95-.06,2.21.96,2.72.15.07.29.09.42.08.58.88,1.15,1.78,1.71,2.68-.56-.09-1.13-.12-1.69-.05-1.5.2-2.6,1.28-2.89,2.84-.3,1.57.04,3.35.35,4.97.75,3.67,2.31,7.25,4.33,10.5.51.81,1.05,1.6,1.62,2.36.59.75,1.23,1.46,1.89,2.15,1.19,1.24,2.58,2.42,4.22,2.65,1.54.21,2.98-.47,3.49-1.97ZM84.29,561.03c1.78.89,3.5,1.91,5.15,3.03-.9.86-1.81,1.72-2.73,2.56-.42-.82-.84-1.64-1.28-2.45-.57-1.02-1.14-2.03-1.71-3.04-.1-.19-.22-.38-.32-.57.34.17.64.34.89.47ZM89.84,580.33c-.43,1.42-2.06,1.36-3.23.69-1.29-.73-2.38-2.02-3.35-3.16-2.04-2.57-3.67-5.5-4.82-8.55-.57-1.55-1.07-3.1-1.33-4.72-.22-1.31-.55-2.95-.08-4.16.64-1.63,2.37-1.48,4.07-.88.49.84.97,1.69,1.44,2.55,1.07,1.83,2.08,3.69,3.04,5.58-1.48,1.34-2.98,2.67-4.51,3.96-.31.26-.45.69-.19,1.11.21.35.77.58,1.08.32,1.48-1.27,2.94-2.56,4.38-3.87.39.8.76,1.61,1.13,2.42.33.75.66,1.5.96,2.26.31.75.62,1.5.87,2.28.42,1.27.95,2.9.56,4.17Z"/><path class="cls-1" d="M81.22,547.32c1.63,3.05,3.35,6.04,5.02,9.07.51.92,1.81.16,1.3-.75-1.66-3.01-3.38-5.99-5-9.03l-1.49-2.93c.46-.23.91-.47,1.37-.7.87-.43.12-1.85-.74-1.43-.46.22-.91.46-1.36.69l-.21-.41s0-.09,0-.14c-.15-.67-.63-1.32-.95-1.91l-1.29-2.36c-.5-.91-1.82-.26-1.34.67l1.98,3.89c-.13.12-.29.22-.41.32l-1.43,1.13c-.3.24-.3.58-.16.86-4.69,2.64-9.16,5.67-13.34,9.12-.75.62.37,1.9,1.12,1.28,4.8-3.98,9.98-7.4,15.45-10.3l1.5,2.95Z"/><path class="cls-1" d="M81.05,536.21c2.21,4.75,4.18,9.65,6.42,14.4.42.94,1.73.2,1.31-.74-2.23-4.74-4.18-9.61-6.38-14.34-.43-.93-1.77-.26-1.34.67Z"/><path class="cls-1" d="M70.91,554.8l-.2-.04c-.14-.01-.27.02-.39.08-.22.1-.43.25-.6.42-.11.11-.19.23-.28.35-.06.08-.1.16-.15.25-.09.18-.11.4-.05.61.03.11.08.21.16.3.06.1.14.17.23.23.18.11.39.17.59.12.19-.05.37-.16.46-.35.02-.05.05-.09.08-.14.06-.07.12-.14.19-.2.07-.04.13-.09.2-.12.09-.05.16-.11.22-.2.06-.07.11-.16.13-.27.03-.1.03-.21,0-.31,0-.11-.04-.21-.1-.31-.12-.19-.28-.35-.49-.41Z"/><path class="cls-1" d="M57.21,536.29c-.85-2.08-1.77-4.12-2.47-6.26-.74-2.12-1.44-4.25-2.11-6.38-.46-1.53-.95-3.03-1.38-4.57,1.92,1.31,3.91,2.51,5.93,3.59,1.08,2.15,2.12,4.32,3.11,6.51.3.61.57,1.22.87,1.83-.94.42-1.89.83-2.85,1.22-.9.36-.17,1.9.72,1.53.96-.39,1.9-.8,2.84-1.23,1.06,2.26,2.1,4.53,3.06,6.83.42,1,1.76.33,1.35-.66-.96-2.3-1.99-4.56-3.05-6.81,1.73-.83,3.43-1.71,5.1-2.65.83-.47.14-1.96-.7-1.49-1.67.94-3.38,1.81-5.11,2.63-.29-.6-.57-1.21-.86-1.81-.72-1.59-1.46-3.17-2.23-4.74.13.06.26.14.39.2,3.52,1.69,7.09,3.05,10.84,3.99,1.22.31,2.52.65,3.77.62-1.41,1.95-2.91,3.84-4.49,5.66-.64.73.39,2.01,1.04,1.26,2.15-2.47,4.15-5.06,5.99-7.76.41-.6-.33-1.57-.98-1.19-1.01.58-2.14.5-3.28.28-1.1-.21-2.2-.51-3.28-.82-2.21-.64-4.34-1.44-6.48-2.35-1.58-.68-3.15-1.45-4.7-2.27-.22-.44-.45-.89-.68-1.33,1.29-.34,2.54-.94,3.78-1.41l6.75-2.55c-.17,1.9.29,3.83,1.32,5.55.54.89,1.69-.1,1.16-.98-.99-1.65-1.27-3.7-.77-5.49.18-.65-.4-1.3-1.03-1.06l-6.34,2.36-3.11,1.16-1.62.6c-.22.08-.46.21-.69.26-.07.02-.14.02-.22.03,0,0,0-.02-.01-.02-.35-.65-1.47-.76-1.46.14,0,.42.14.74.36.99.09.17.17.34.26.51-1.88-1.08-3.73-2.25-5.45-3.56-.49-.36-1.39-.09-1.2.7.5,2.23,1.2,4.39,1.87,6.58.68,2.18,1.4,4.35,2.15,6.51.71,2.18,1.63,4.28,2.51,6.39.89,2.11,1.81,4.21,2.77,6.3.46,1,1.8.34,1.35-.66-.94-2.04-1.84-4.1-2.71-6.17Z"/><path class="cls-1" d="M53.37,510.87c1.05-.7,1.54-1.86,1.7-3.18.14-1.17.02-2.7,1.02-3.4.79-.55-.15-1.9-.94-1.35-1.63,1.12-1.29,3.23-1.69,5.04-.48,2.13-3.22,2.47-5,2.21-.49-.07-.89-.09-.97-.69-.08-.58-.09-1.17-.12-1.75-.03-.6-.06-1.2-.08-1.81,0-.61,0-1.22.03-1.82.07-2.32.27-4.65.77-6.86.42-1.84,1.14-3.73,2.52-4.89,1.44-1.21,3.4-1.49,5.25-1.05.28.07.55.15.82.25l1.17,3.41c1.16,3.33,2.3,6.68,3.7,9.92.4.97,1.8.44,1.4-.53-1.39-3.23-2.53-6.56-3.68-9.88l-.67-1.95c2.55,1.72,4.3,4.72,5.36,7.63.5,1.24.93,2.52,1.29,3.81.28,1,.68,2.42.34,3.43-.2.58-.9.75-1.4.95l-1.8.71c-1.21.46-2.43.88-3.66,1.27-.92.29-.32,1.84.59,1.54,1.27-.41,2.52-.85,3.77-1.33l1.8-.72c.57-.23,1.16-.46,1.59-.92.77-.82.77-2.07.65-3.17-.15-1.29-.54-2.57-.94-3.8-.8-2.32-1.72-4.77-3.1-6.86-1.32-2.01-3.03-3.69-5.24-4.7l-.3-.87c-.57-1.66-1.01-3.37-1.51-5.05-.29-1-1.72-.57-1.43.44.48,1.62.91,3.26,1.45,4.86-1.66-.39-3.4-.33-4.92.35-2,.9-3.28,2.72-4.03,4.86-.81,2.33-1.1,4.93-1.24,7.49-.07,1.35-.1,2.71-.09,4.08.04.69.08,1.37.11,2.05.05.68.04,1.41.38,2.03.67,1.25,2.24,1.3,3.34,1.29,1.31-.01,2.67-.32,3.76-1.05Z"/><path class="cls-1" d="M56.42,499.01c-1.61.35-3.19.85-4.7,1.5-.36.15-.61.6-.44,1.04.16.4.59.71.98.54,1.51-.66,3.08-1.17,4.69-1.52.38-.09.59-.65.44-1.03-.18-.45-.56-.62-.97-.53Z"/><path class="cls-1" d="M69.21,540.71c-1.85,1.3-3.61,2.72-5.27,4.27-.71.66.4,1.94,1.11,1.27,1.66-1.56,3.41-2.99,5.26-4.3.33-.23.26-.84,0-1.14-.33-.37-.76-.34-1.09-.1Z"/><path class="cls-1" d="M52.63,484.19c-1.06-1.19-2.01-2.47-2.89-3.82.45-.14.89-.27,1.32-.4l5.8-1.67c.93-.27.47-1.81-.46-1.54l-5.58,1.58c-.64.18-1.3.4-1.97.6-1.13-1.83-1.95-3.81-2.83-5.8-1.7-4.01-3.3-8.15-5.03-12.1-.29-.63-1.23-.58-1.38.1-.87,3.63-1.29,7.33-1.43,11.08-1.13.4-2.28.73-3.45,1-.94.22-.51,1.87.43,1.65,1.01-.24,2-.53,2.98-.86,0,.36-.01.71-.01,1.07-.08,4.64.53,9.27,1.49,13.88-.24.58.44,1.48,1.15,1.13,3.74-1.85,7.63-3.35,11.6-4.55.57-.17.66-.92.27-1.37ZM41.07,471.86c-.24-.44-.67-.5-1.04-.34-.1.04-.21.08-.31.12.12-2.6.39-5.17.86-7.71,1.43,3.38,2.83,6.81,4.26,10.18.74,1.79,1.58,3.53,2.53,5.2-.65.13-1.3.22-1.95.2-.98-.03-.9,1.62.08,1.65.93.03,1.85-.14,2.76-.37.77,1.23,1.61,2.42,2.52,3.54-3.35,1.05-6.62,2.32-9.8,3.82-.87-4.31-1.43-8.65-1.35-13.01,0-.56.01-1.13.03-1.69.39-.15.78-.31,1.17-.48.37-.16.44-.77.25-1.13Z"/><path class="cls-1" d="M52.8,461.37c-.16-.7-.23-1.53-.52-2.19-.24-.54-.74-.78-1.28-.66-.74.16-1.48.51-2.2.76l-1.87.66c-.54.19-1.36.31-1.69.86-.33.55-.1,1.23.04,1.81.19.8.34,1.61.56,2.4l2.77,10.44c.12.45.46.61.78.58.16.15.37.23.63.17,1.34-.31,2.63-.74,3.89-1.3.49-.22,1.17-.42,1.55-.84.41-.44.32-1.01.18-1.56l-2.34-9.06c-.19-.69-.33-1.39-.49-2.08ZM46.6,461.73c-.02-.09,0-.05,0,0h0ZM54.18,472.91s0,.04,0,.07c-.11.06-.23.14-.31.18-1.27.61-2.61,1.07-3.97,1.39l-2.41-9.09c-.22-.79-.42-1.58-.59-2.38-.09-.4-.16-.81-.27-1.2-.01-.04-.02-.08-.03-.1l.54-.19,2.1-.75,1.05-.38c.21-.07.46-.21.71-.29.07.27.11.61.14.76l.26,1.18c.16.79.37,1.57.57,2.35l1.28,4.94.6,2.34c.09.36.14.83.3,1.17Z"/><path class="cls-1" d="M42.05,450.66c.52-1.14.94-2.34,1.29-3.55l3.58-1.01c.18,2.66.29,5.33.49,7.98.06,1.04,1.56,1.16,1.51.13-.2-2.83-.32-5.68-.53-8.52l1.65-.46c.92-.26.65-1.83-.28-1.58l-1.51.42c-.04-.45-.07-.89-.11-1.34-.11-1.17-.24-2.34-.38-3.51.21-.17.34-.42.29-.75-.04-.24-.23-.47-.45-.6-.03-.28-.07-.57-.1-.85-.18-1.91-.4-3.81-.65-5.71-.14-1.03-1.62-.83-1.49.21.25,1.87.47,3.75.65,5.63.04.32.08.63.11.95-.61.18-1.22.35-1.83.52-.16-3.75-.98-7.46-2.84-10.74-1.01-1.78-2.32-3.41-3.91-4.54-1.61-1.12-3.55-1.76-5.45-1.87-1.95-.11-4.14.4-5.32,2.3-.5.81-.82,1.8-.84,2.79,0,.99.29,1.97.92,2.77.66.82,1.83-.18,1.17-1.01-.45-.56-.62-1.26-.58-1.95.06-.69.35-1.37.76-1.89,1.04-1.29,2.82-1.48,4.27-1.31,1.64.19,3.3.76,4.64,1.83,1.36,1.06,2.46,2.51,3.28,4.07,1.6,2.99,2.31,6.34,2.41,9.7,0,.08,0,.16,0,.24-2.21.57-4.43,1.1-6.68,1.55-.94.19-.66,1.84.29,1.64,2.14-.44,4.27-.95,6.39-1.5-.05,1.71-.28,3.41-.69,5.07l-8.16,2.25c-.92.26-.64,1.93.29,1.66l7.35-2.07c-.11.34-.23.68-.35,1.01-1.39,3.55-3.72,7.73-7.78,7.39-.97-.09-1.02,1.6-.04,1.68,4.22.34,6.99-3.3,8.63-7.01ZM44.32,440.28c.67-.18,1.33-.38,1.99-.57.12,1.02.23,2.03.33,3.05.06.57.1,1.13.15,1.7l-3,.83c.34-1.65.52-3.33.53-5.01Z"/><path class="cls-1" d="M37.07,433.31c-2.66,1.12-5.71.91-8.28-.61-.62-.37-1.39-1.08-2.02-.36-.59.68-.07,1.71.14,2.48.54,1.95.86,3.96,1.1,5.98.13.91,1.18.88,1.43.21.28.26.65.24.94.03,2.57-1.9,5.14-4.02,7.47-6.31.63-.61.03-1.76-.78-1.42ZM29.39,439.71s0,.01-.01.02c-.13-1.01-.27-2.02-.48-3.02-.12-.6-.26-1.2-.41-1.79l-.17-.62s.09.06.14.09c.41.22.82.42,1.25.58.86.33,1.76.56,2.66.66.72.08,1.43.06,2.15,0-1.64,1.44-3.34,2.81-5.11,4.08Z"/><path class="cls-1" d="M26.09,419.79c.03.68.85,1.24,1.32.56,1.49-2.16,2.87-4.4,4.13-6.69.62.95,1.36,1.8,2.28,2.39,1.81,1.17,4.09,1.02,5.95.23,2.13-.92,3.8-2.64,5.43-4.28.68-.7-.47-1.74-1.17-1.05-2.23,2.23-5.19,5.2-8.6,4.09-1.36-.44-2.32-1.64-3.05-2.94.39-.72.78-1.46,1.16-2.16.62-1.2,1.22-2.42,1.78-3.65.51-1.12.99-2.16.16-3.27-.77-1.01-1.6-1.96-2.35-3.01-.7-.97-1.32-1.98-1.89-3.02.07-.23.13-.47.2-.7.52-1.65,1.18-3.25,1.98-4.73.69-1.28,1.61-2.65,2.89-3.24,1.48-.68,2.99.16,3.82,1.57,1.07,1.8.88,4.07.53,6.07-.18,1.03,1.28,1.41,1.45.38.36-2.09.55-4.33-.25-6.33-.64-1.6-1.91-3.05-3.53-3.45-3.73-.95-6.1,3.52-7.39,6.68-.24.61-.47,1.23-.69,1.86-.3-.63-.59-1.27-.86-1.91-1.14-2.71-2-5.6-2.6-8.56-.14-.71-1.09-.82-1.37-.2-1.73,3.72-1.31,8.36-1.28,12.47.11,4.75.46,9.49.73,14.23.17,2.68.51,5.34.76,8.01.04.36.23.57.46.67ZM32.75,402.1c.34.45.69.89,1.04,1.32.17.21.41.43.55.66.18.3.06.48-.08.79-.81,1.85-1.73,3.67-2.7,5.46-.42-1.12-.74-2.31-.93-3.5-.28-1.77-.33-3.57-.19-5.34.06-.77.16-1.54.29-2.3.64,1.01,1.31,1.98,2.02,2.91ZM25.62,392.77c0-1.7.03-3.44.35-5.09.87,3.35,2.07,6.56,3.64,9.53-.17.65-.32,1.31-.42,1.98-.32,2.06-.41,4.18-.23,6.28.18,2.05.63,4.09,1.4,5.96.09.2.18.41.28.61-1.11,2.05-2.33,4.04-3.62,5.99l-.35-3.43-.22-2.18-.14-2.19-.5-8.77c-.2-2.89-.19-5.79-.19-8.69Z"/><path class="cls-1" d="M38.62,408.75l6.97-.28c.96-.04.87-1.64-.09-1.6l-6.98.24c-.97.03-.87,1.67.1,1.64Z"/><path class="cls-1" d="M38.93,404.67c1.77-.45,3.56-.79,5.36-1.01.4-.05.73-.39.7-.85-.02-.41-.39-.81-.8-.76-1.94.23-3.86.59-5.76,1.07-.39.1-.59.64-.46,1.04.14.45.56.62.95.52Z"/><path class="cls-1" d="M46.81,364.53c-2,.4-4.01.77-6.02,1.12-.4-1.09-.84-2.17-1.33-3.23-.74-1.59-1.57-3.13-2.49-4.63-.17-.28-.35-.55-.54-.82,0-.07,0-.13.01-.2.16-2.32.27-4.64.28-6.97,0-.56-.51-1.17-1.05-.82-.88.56-1.33,1.78-.79,2.78.08.14.18.23.3.3-.03,1.06-.08,2.12-.14,3.18-.41-.4-.85-.74-1.36-1-1.34-.69-2.86-.41-4.01.71-1.18,1.13-1.81,2.79-2.45,4.3-1.42,3.46-2.29,7.28-2.44,11.1-.03,1.91.11,3.83.4,5.71.26,1.69.73,3.45,1.94,4.57,1.14,1.05,2.71,1.3,3.99.36,1.25-.92,1.91-2.53,2.42-4.02.7-2.06,1.06-4.23,1.37-6.38.14-.81.27-1.62.39-2.43,1.51-.22,3.02-.45,4.52-.71.17.51.35,1.02.5,1.54.44,1.62.94,3.26,1.26,4.93.35,1.73.68,3.6.12,5.33-1.01,3.11-4.73,4.15-6.97,1.97-.71-.7-1.8.46-1.08,1.16,2.27,2.22,5.74,2.18,7.99-.16,2.55-2.65,1.92-6.52,1.15-9.82-.43-1.72-.86-3.42-1.4-5.09-.01-.04-.03-.08-.04-.12,1.93-.34,3.85-.7,5.77-1.1.95-.2.64-1.75-.31-1.56ZM33.34,371.01c-.25,1.61-.54,3.22-1.01,4.77-.38,1.28-.89,2.92-1.94,3.75-1.17.92-2.46-.05-3.05-1.26-.64-1.33-.8-3.01-.93-4.5-.13-1.64-.2-3.29-.03-4.93.16-1.64.45-3.26.86-4.85.41-1.6.94-3.16,1.59-4.65.53-1.21,1.14-2.75,2.2-3.48,1.27-.86,2.41-.14,3.42,1,.16.18.31.38.46.58-.06.97-.12,1.95-.18,2.92-.15,2.11-.41,4.22-.71,6.32-1.99.27-3.98.52-5.97.72-.41.04-.76.31-.8.81-.03.41.3.92.7.87,1.94-.2,3.88-.45,5.82-.71-.14.88-.29,1.76-.44,2.64ZM35.56,366.47c.13-.91.26-1.83.36-2.75.16-1.37.27-2.75.37-4.13.19.34.36.64.49.9.95,1.74,1.78,3.55,2.49,5.41-1.24.2-2.47.39-3.71.57Z"/><path class="cls-1" d="M42.34,344.15c-.12,1.1-.22,2.2-.35,3.29-.35,3.44-.77,6.87-1.06,10.31-.07,1.05,1.43,1.15,1.5.11.29-3.43.71-6.85,1.05-10.27.13-1.09.22-2.18.35-3.27.51.06,1.02.12,1.52.2.94.13,1.13-1.46.19-1.6-.5-.07-1-.14-1.51-.2.01-.08.02-.17.04-.25l.03-.21s.05-.07.07-.12c.26-.63.25-1.44.33-2.11l.31-2.67c.12-1.03-1.33-1.24-1.49-.2l-.63,4.32c-.18.02-.37.02-.52.03l-1.82.12c-.39.03-.58.3-.62.62-5.37-.47-10.79-.5-16.15-.02-.96.09-.72,1.78.23,1.69,6.18-.58,12.37-.46,18.52.23Z"/><path class="cls-1" d="M48.48,344.15l.39-1.92.75-3.85c.19-1.01-1.3-1.21-1.49-.2l-.75,3.87-.39,1.93-.33,1.94c-.44,2.59-.92,5.18-1.42,7.76-.2,1.02,1.3,1.14,1.49.13.5-2.58.98-5.15,1.42-7.73l.33-1.93Z"/><path class="cls-1" d="M27.36,349.3c.19.07.4.08.58-.03.05-.03.1-.05.15-.07.09-.03.18-.04.27-.05.08,0,.16,0,.24.02.1.01.2,0,.29-.04.1-.02.18-.08.26-.15.08-.07.14-.15.18-.26.06-.1.09-.2.1-.32.01-.22-.03-.45-.16-.62l-.14-.15c-.11-.09-.23-.14-.37-.15-.24-.04-.49-.04-.73,0-.15.03-.29.08-.44.13-.09.03-.18.07-.26.12-.17.1-.32.26-.39.47-.04.11-.06.22-.05.34,0,.11.01.22.06.32.09.19.22.36.41.43Z"/><path class="cls-1" d="M27.16,331.38l.53-3.33c.2-1.11.45-2.2.68-3.3.48-2.19,1-4.38,1.54-6.55.87-3.72,2.08-7.36,3.34-10.96.84,2.16,1.75,4.26,2.77,6.27-.08.53-.15,1.07-.24,1.6-.23,1.85-.49,3.7-.78,5.54-.1.67-.23,1.33-.35,1.99-1.01-.18-2.02-.38-3.03-.61-.94-.21-1.24,1.46-.29,1.67,1.01.22,2.02.41,3.03.59-.11.62-.21,1.24-.32,1.86l-.53,2.75-.48,2.75c-.19,1.06,1.29,1.27,1.48.22l.48-2.74.53-2.73c.12-.62.21-1.24.32-1.86,1.89.3,3.8.53,5.71.69.96.08,1.25-1.53.29-1.62-1.91-.17-3.82-.42-5.71-.72.11-.66.24-1.32.34-1.98.27-1.73.51-3.47.74-5.2.07.13.14.27.21.4,2.01,3.4,4.26,6.55,6.75,9.43.81.95,1.69,1.96,2.72,2.64-2.29.81-4.62,1.52-6.93,2.12-.93.24-.77,1.88.18,1.63,1.57-.41,3.12-.87,4.66-1.38,1.55-.5,3.12-1.05,4.65-1.64.68-.26.64-1.47-.11-1.53-1.16-.09-2.04-.8-2.85-1.62-.78-.79-1.5-1.66-2.21-2.53-1.45-1.77-2.82-3.65-4.1-5.61-.97-1.46-1.81-2.95-2.6-4.49.08-.5.15-1.01.22-1.51,1.25.44,2.63.66,3.91.97l7.01,1.71c-1.25,1.46-2.01,3.3-2.05,5.32-.04,1.04,1.46.88,1.5-.15.04-1.94,1.04-3.77,2.48-4.96.52-.43.43-1.29-.23-1.45l-6.56-1.64-3.22-.81-1.67-.42c-.23-.06-.5-.09-.72-.18-.07-.02-.13-.06-.19-.1,0,0,0-.02,0-.03.1-.73-.76-1.45-1.28-.71-.24.35-.31.69-.28,1.01-.02.18-.06.36-.08.54-.9-1.94-1.74-3.93-2.48-6-.21-.58-1.11-.86-1.38-.1-.77,2.14-1.5,4.3-2.21,6.48-.34,1.09-.72,2.17-1.01,3.28-.29,1.11-.58,2.21-.86,3.32-.56,2.22-1.09,4.45-1.58,6.69-.24,1.12-.5,2.24-.7,3.37l-.54,3.4c-.16,1.09,1.32,1.3,1.48.22Z"/><path class="cls-1" d="M35.84,300.36c1.08.73,2.37,1.24,3.68,1.26,1.27.02,2.34-.66,3.24-1.65.79-.88,1.59-2.21,2.81-2.21.97,0,.98-1.64.01-1.64-1.97,0-2.93,1.93-4.31,3.18-1.63,1.48-4.08.21-5.38-1-.36-.33-.68-.57-.39-1.11.27-.52.61-1.01.92-1.5.65-1.03,1.31-2.05,2-3.03,1.36-1.88,2.72-3.73,4.44-5.24,1.41-1.28,3.11-2.42,4.91-2.59,1.89-.18,3.66.7,4.91,2.1.2.22.37.45.54.68-.34,1.15-.7,2.29-1.04,3.44-.9,3.42-1.7,6.85-2.51,10.29-.24,1.02,1.22,1.38,1.46.36.81-3.42,1.61-6.84,2.5-10.24.19-.66.4-1.31.59-1.97.37.96.57,1.99.66,3.04.23,2.09,0,4.3-.49,6.29-.31,1.3-.71,2.59-1.16,3.85-.35.98-.88,2.37-1.69,3.02-.48.37-1.16.11-1.68,0l-1.89-.44c-1.26-.31-2.5-.65-3.74-1.02-.93-.28-1.27,1.34-.35,1.61,1.28.38,2.57.72,3.86,1.03l1.89.42c.6.13,1.22.27,1.83.14,1.09-.24,1.77-1.28,2.28-2.26.63-1.14,1.05-2.41,1.45-3.65.74-2.34,1.28-4.91,1.28-7.42,0-2.41-.37-4.73-1.59-6.8.6-1.98,1.18-3.97,1.8-5.94.31-1-1.12-1.45-1.43-.45-.5,1.62-.98,3.24-1.47,4.86-1.14-1.27-2.61-2.2-4.26-2.5-2.13-.38-4.26.38-6.11,1.72-2.02,1.46-3.79,3.42-5.28,5.47-.8,1.08-1.57,2.2-2.31,3.34-.37.59-.74,1.17-1.1,1.75-.36.58-.79,1.18-.87,1.88-.17,1.4,1.08,2.33,1.99,2.94Z"/><path class="cls-1" d="M49.32,294.55c.1-.48-.13-.83-.52-.99-1.53-.62-3.11-1.1-4.73-1.42-.38-.08-.83.15-.93.61-.09.42.1.92.52,1,1.62.31,3.2.78,4.74,1.4.37.15.84-.2.93-.6Z"/><path class="cls-1" d="M29.06,335.74c-.96.14-.79,1.82.17,1.67,2.26-.35,4.52-.53,6.79-.57.41,0,.7-.54.66-.94-.05-.49-.43-.71-.84-.7-2.26.03-4.53.2-6.78.54Z"/><path class="cls-1" d="M40.92,277.37c4.12.59,8.17,1.54,12.12,2.8.57.18,1.06-.39.97-.99-.2-1.58-.24-3.17-.18-4.76.45.14.89.28,1.32.42l5.72,1.9c.92.3,1.44-1.22.52-1.52l-5.5-1.85c-.63-.22-1.3-.41-1.96-.62.17-2.13.5-4.26.88-6.4.82-4.29,2.06-8.52,2.7-12.82.11-.69-.7-1.18-1.2-.7-2.63,2.55-5.15,5.34-7.42,8.34-1.17-.31-2.31-.69-3.44-1.13-.9-.35-1.51,1.24-.6,1.6.98.38,1.97.7,2.98.98-.21.29-.43.57-.63.87-1.3,1.97-2.53,4.01-3.66,6.12-1.06,2.01-2.13,4.04-2.95,6.18-.52.34-.45,1.48.33,1.59ZM44.86,270.29c1.1-2.03,2.29-4,3.55-5.9.3-.47.62-.93.95-1.39.41.09.82.18,1.23.27.4.08.81-.38.86-.78.06-.49-.26-.78-.66-.86-.11-.02-.22-.05-.33-.07.69-.87,1.41-1.73,2.12-2.57.97-1.13,1.98-2.21,3.01-3.26-.27,1.42-.56,2.83-.88,4.23-.48,2.18-1.06,4.33-1.41,6.53-.33,1.92-.62,3.83-.8,5.74-.6-.25-1.18-.55-1.71-.93-.78-.58-1.68.82-.9,1.39.75.55,1.59.93,2.47,1.25-.08,1.44-.08,2.89.04,4.33-3.36-1.03-6.77-1.83-10.24-2.39.77-1.92,1.73-3.77,2.7-5.59Z"/><path class="cls-1" d="M67.19,257.09c-.7-.28-1.51-.41-2.24-.61l-1.91-.51c-.55-.15-1.3-.52-1.88-.24-.57.27-.75.97-.96,1.53l-.87,2.3-1.9,5.06c-.64,1.68-1.16,3.41-1.75,5.11-.15.44.05.77.33.93.05.22.18.41.43.5,1.28.5,2.59.87,3.94,1.12.53.1,1.2.31,1.74.18.58-.14.81-.66,1-1.19.98-2.96,2.14-5.86,3.24-8.78l.76-2c.25-.67.64-1.41.76-2.12.1-.59-.19-1.07-.7-1.28ZM61.79,257.27c.03-.08.03-.04,0,0h0ZM65.59,260.32l-.86,2.26-1.82,4.77c-.29.75-.53,1.52-.8,2.28-.12.35-.34.77-.39,1.14-.01.03-.02.04-.03.06-.12-.01-.27-.01-.35-.02-1.39-.21-2.75-.59-4.06-1.09.47-1.4.92-2.81,1.43-4.2l1.75-4.65.86-2.29c.14-.38.31-.76.43-1.15.01-.04.02-.07.03-.1l.56.15,2.16.57,1.08.28c.21.06.5.09.75.16-.09.26-.24.57-.3.71l-.43,1.13Z"/><path class="cls-1" d="M64.32,245.57c1.06-.66,2.05-1.41,3.01-2.23l3.52,1.19c-.38.67-.75,1.35-1.14,2.01-.94,1.64-1.92,3.26-2.94,4.86-.55.88.61,1.84,1.16.95,1.03-1.63,2.02-3.27,2.99-4.93.47-.8.92-1.61,1.37-2.41l1.62.55c.89.3,1.56-1.15.66-1.47l-1.46-.5c.22-.39.44-.78.67-1.16.59-1.02,1.17-2.05,1.73-3.08.27-.02.53-.15.67-.45.11-.22.09-.52-.03-.75,1.03-1.94,2.03-3.9,3-5.88.48-.92-.86-1.59-1.34-.67-.97,1.98-1.97,3.95-3.01,5.9-.6-.2-1.21-.4-1.81-.61.95-1.52,1.74-3.12,2.33-4.8.66-1.84,1.18-3.72,1.37-5.67.21-2.02.07-4.1-.65-5.95-.72-1.85-1.98-3.49-3.49-4.66-1.55-1.2-3.64-2.01-5.65-1.1-1.71.78-3.19,2.62-3.07,4.64.07,1.05,1.62.89,1.55-.17-.09-1.44,1.05-2.67,2.31-3.07,1.56-.49,3.13.36,4.24,1.33,1.25,1.09,2.32,2.5,2.85,4.16.52,1.64.57,3.44.35,5.18-.48,3.32-1.64,6.55-3.44,9.39-.04.07-.09.13-.13.2-2.15-.78-4.28-1.6-6.39-2.5-.89-.38-1.61,1.13-.71,1.51,2.02.85,4.07,1.64,6.13,2.38-1.04,1.37-2.23,2.63-3.49,3.76l-8.01-2.76c-.91-.31-1.58,1.24-.66,1.55l7.21,2.44c-.28.22-.55.44-.83.65-3.04,2.19-7.45,4.27-10.57,1.71-.75-.62-1.76.73-1.01,1.35,3.26,2.65,7.69,1.25,11.13-.89ZM68.89,241.91c1.16-1.11,2.22-2.33,3.16-3.63.65.23,1.31.44,1.97.66-.49.9-.99,1.79-1.51,2.68-.29.49-.57.99-.85,1.48l-2.96-1.02c.06-.06.12-.11.18-.17Z"/><path class="cls-1" d="M59.37,230.49c.09.37.4.56.76.55,3.24-.09,6.47-.43,9.66-1.01.85-.15.98-1.45.13-1.62-2.81-.57-5.23-2.48-6.46-5.17-.3-.65-.53-1.67-1.45-1.43-.88.22-1.05,1.36-1.32,2.11-.63,1.93-1.44,3.8-2.37,5.6-.43.82.46,1.39,1.05.98ZM61.3,226.61c.23-.57.44-1.15.64-1.73l.21-.6s.04.1.06.14c.2.41.45.82.71,1.19.53.77,1.15,1.47,1.84,2.06.55.47,1.15.87,1.78,1.21-2.15.28-4.3.45-6.46.51-.01,0-.02,0-.04.01.45-.92.88-1.84,1.26-2.8Z"/><path class="cls-1" d="M69.3,212.25c2.48-.93,4.9-1.98,7.26-3.14-.04,1.13.08,2.24.49,3.25.81,1.98,2.78,3.15,4.77,3.55,2.28.45,4.65-.01,6.94-.43.97-.18.61-1.69-.36-1.52-3.12.57-7.27,1.32-9.44-1.51-.87-1.14-.96-2.67-.82-4.16,1.91-.99,3.79-2.03,5.63-3.16,1.06-.63,2.06-1.21,2.01-2.59-.05-1.26-.19-2.51-.2-3.79,0-1.17.05-2.36.14-3.56.18-.16.37-.32.55-.48,1.3-1.1,2.78-2.03,4.29-2.79,1.3-.66,2.85-1.26,4.24-1.01,1.61.28,2.37,1.83,2.25,3.44-.14,2.09-1.65,3.8-2.98,5.31-.7.77.29,1.91.99,1.14,1.4-1.57,2.87-3.28,3.36-5.37.39-1.67.18-3.58-.93-4.83-2.53-2.89-7.04-.57-9.92,1.29-.55.36-1.09.75-1.61,1.16.1-.7.22-1.4.37-2.09.61-2.87,1.57-5.72,2.77-8.49.29-.67-.43-1.29-1.02-.94-1.78,1.04-3.25,2.57-4.57,4.26-1.31,1.69-2.5,3.53-3.58,5.29l-3.79,6.03-1.88,3.03c-.61,1.02-1.18,2.06-1.77,3.09l-3.94,7.01c-.18.32-.14.6-.01.81-.37.58-.01,1.49.76,1.2ZM83.73,203.37c-1.76,1.05-3.5,2.05-5.27,3,.26-1.18.63-2.36,1.16-3.44,1.13-2.31,2.69-4.39,4.48-6.2-.06,1.18-.06,2.36-.01,3.53.02.56.05,1.11.1,1.67.02.27.09.58.07.85-.03.35-.23.43-.52.6ZM74.17,203.31l1.08-1.91,1.15-1.87,2.32-3.73,2.32-3.68c.77-1.23,1.55-2.45,2.4-3.62.97-1.39,1.99-2.8,3.21-3.97-1.21,3.24-2.06,6.57-2.4,9.94-2.03,1.84-3.83,3.99-5.23,6.4-1.06,1.77-1.77,3.75-2.16,5.75-.04.22-.08.45-.12.67-2.1,1.06-4.25,2.02-6.44,2.88l3.86-6.86Z"/><path class="cls-1" d="M85.95,207.62c-.81-.52-1.63.91-.81,1.43l5.91,3.72c.82.51,1.61-.88.79-1.4l-5.89-3.75Z"/><path class="cls-1" d="M93.75,207.76c.22-.35.14-.89-.22-1.07-1.73-.91-3.52-1.7-5.36-2.38-.38-.14-.85.19-.98.59-.14.45.1.82.49.96,1.72.63,3.38,1.37,5,2.2.36.19.83.09,1.06-.29Z"/><path class="cls-1" d="M94.65,181.9c1.56-.05,3.02-1,4.29-1.93,1.76-1.29,3.29-2.87,4.78-4.46.55-.61,1.11-1.2,1.68-1.8,1.36.67,2.73,1.33,4.11,1.97-.15.52-.29,1.04-.46,1.55-.49,1.63-1.06,3.23-1.73,4.79-.7,1.62-1.5,3.34-2.95,4.43-2.63,1.97-6.2.77-6.87-2.33-.19-.98-1.75-.64-1.53.36.67,3.15,3.55,5.09,6.67,4.39,3.56-.76,5.29-4.27,6.53-7.42.64-1.7,1.23-3.4,1.74-5.13,1.78.81,3.57,1.61,5.38,2.37.89.38,1.53-1.07.64-1.46-1.88-.8-3.74-1.64-5.59-2.5.29-1.13.55-2.26.75-3.41.3-1.72.49-3.46.58-5.21.02-.32.02-.65.03-.98.04-.05.08-.1.12-.16,1.4-1.86,2.85-3.67,4.17-5.59.32-.46.25-1.25-.4-1.27-1.04-.04-2.11.71-2.23,1.84-.02.16.02.3.07.42-.58.79-1.18,1.58-1.78,2.35-.05.06-.09.12-.14.18-.12-.56-.29-1.1-.55-1.59-.72-1.32-2.12-1.97-3.7-1.69-1.56.3-3.07,1.28-4.44,2.17-1.57,1.02-3.08,2.19-4.48,3.49-1.41,1.29-2.71,2.72-3.81,4.29-1.11,1.55-2.1,3.2-2.94,4.91-.75,1.54-1.37,3.25-1.01,4.85.34,1.5,1.5,2.61,3.08,2.55ZM110.97,168.25c-.2,1.97-.56,3.93-1.03,5.85-1.13-.53-2.26-1.08-3.38-1.64.63-.68,1.26-1.35,1.87-2.05.91-1.04,1.79-2.1,2.65-3.18-.04.38-.07.73-.1,1.02ZM93.09,177.53c.23-1.45,1.07-2.92,1.81-4.22.82-1.43,1.74-2.79,2.76-4.08,1.02-1.29,2.22-2.43,3.45-3.51,1.25-1.08,2.58-2.06,3.96-2.92,1.12-.69,2.51-1.61,3.79-1.62,1.73,0,2.23,1.68,2.3,3.5-.59.78-1.19,1.55-1.82,2.3-1.13,1.39-2.3,2.74-3.51,4.06-.22.24-.45.48-.68.72-1.79-.91-3.57-1.83-5.33-2.8-.36-.2-.81-.18-1.12.21-.24.33-.25.94.1,1.13,1.7.92,3.43,1.82,5.18,2.7-.61.65-1.21,1.29-1.82,1.95-1.12,1.18-2.29,2.33-3.56,3.34-1.05.83-2.4,1.9-3.74,1.98-1.49.1-2-1.44-1.79-2.76Z"/><path class="cls-1" d="M109.69,147.24c5.42,3.03,10.46,6.64,15.13,10.7-.72.83-1.44,1.68-2.17,2.51l-3.38,3.93c-1.12,1.31-2.27,2.6-3.33,3.97-.65.82.52,1.76,1.17.94,1.05-1.36,2.2-2.65,3.31-3.96l3.36-3.91c.72-.82,1.43-1.66,2.15-2.49.38.34.76.67,1.14,1.02.7.65,1.76-.57,1.06-1.21-.37-.34-.75-.68-1.12-1.02.06-.06.11-.13.17-.19l.14-.15s.08-.03.12-.06c.58-.37,1.02-1.04,1.47-1.55l1.77-2.02c.69-.78-.4-1.78-1.11-1.01l-2.96,3.2c-.16-.08-.31-.19-.45-.27l-1.57-.94c-.33-.2-.65-.08-.86.16-4.15-3.43-8.6-6.52-13.29-9.17-.84-.47-1.61,1.06-.77,1.52Z"/><path class="cls-1" d="M132.97,156.3l-2.81,2.76-1.42,1.37-1.37,1.41c-1.84,1.88-3.7,3.74-5.58,5.58-.74.72.42,1.67,1.16.96,1.88-1.83,3.73-3.68,5.56-5.55l1.37-1.41,1.41-1.37,2.8-2.75c.73-.72-.38-1.74-1.11-1.01Z"/><path class="cls-1" d="M111.13,152.57c-.14-.06-.29-.1-.43-.14-.09-.02-.19-.04-.28-.05-.2-.02-.41.04-.59.16-.1.07-.17.15-.23.25-.07.09-.11.19-.14.3-.04.2-.02.43.09.59.12.16.29.29.5.31.05,0,.11.02.16.03.09.03.17.07.25.11.06.05.13.09.19.15.08.07.17.11.27.13.09.03.19.04.3.02.11-.01.2-.05.29-.11.1-.05.19-.12.26-.21.13-.17.23-.39.22-.6l-.03-.2c-.04-.13-.11-.25-.21-.33-.17-.17-.39-.31-.61-.41Z"/><path class="cls-1" d="M119.54,138.81c5.75-6.03,12.03-11.54,18.7-16.45-.53,2.26-.96,4.52-1.25,6.77-.37.39-.73.8-1.1,1.19-1.29,1.34-2.51,2.76-3.8,4.1-.46.49-.94.96-1.41,1.45-.73-.73-1.45-1.46-2.15-2.21-.66-.71-1.85.51-1.19,1.21.71.75,1.43,1.48,2.16,2.21-.44.45-.87.91-1.32,1.35l-2,1.96-1.96,1.99c-.76.77.34,1.78,1.1,1.02l1.95-1.98,1.99-1.95c.45-.44.88-.9,1.32-1.35,1.39,1.32,2.83,2.59,4.31,3.81.74.61,1.9-.56,1.15-1.17-1.48-1.23-2.91-2.51-4.3-3.83.46-.48.94-.95,1.4-1.44,1.21-1.26,2.36-2.57,3.56-3.84-.01.14-.03.28-.05.42-.29,3.92-.2,7.81.22,11.6.14,1.24.28,2.57.75,3.72-2.34-.63-4.66-1.36-6.92-2.19-.9-.33-1.7,1.12-.78,1.45,3.04,1.08,6.18,2.03,9.39,2.8.71.17,1.36-.85.78-1.33-.9-.73-1.23-1.81-1.43-2.95-.19-1.09-.3-2.22-.39-3.34-.19-2.29-.26-4.61-.2-6.95.06-1.72.23-3.45.45-5.18.34-.36.68-.73,1.01-1.09.78,1.08,1.79,2.03,2.67,3.02l4.8,5.38c-1.85.51-3.53,1.59-4.72,3.21-.62.84.71,1.55,1.32.72,1.15-1.55,3.02-2.5,4.87-2.67.67-.06,1.08-.82.63-1.33l-4.48-5.07-2.2-2.49-1.14-1.29c-.15-.18-.36-.36-.49-.55-.04-.06-.07-.12-.1-.19,0,0,.01-.01.02-.02.49-.55.19-1.63-.65-1.31-.39.15-.65.39-.8.68-.12.14-.25.27-.37.4.35-2.11.79-4.23,1.34-6.36.16-.59-.43-1.34-1.08-.87-1.84,1.34-3.66,2.71-5.47,4.1-.9.71-1.8,1.41-2.7,2.12-.89.72-1.73,1.48-2.6,2.24-1.71,1.51-3.41,3.05-5.08,4.62l-2.49,2.37c-.8.82-1.59,1.65-2.37,2.49-.75.81.35,1.82,1.1,1.02Z"/><path class="cls-1" d="M146.62,121.32c1.04.73,2.3.78,3.6.46,1.15-.28,2.55-.93,3.56-.24.8.54,1.73-.81.93-1.35-1.63-1.11-3.5-.06-5.34.2-2.18.3-3.48-2.13-3.86-3.87-.11-.48-.24-.86.3-1.14.52-.28,1.07-.49,1.6-.73,1.11-.49,2.23-.96,3.35-1.38,1.08-.4,2.16-.79,3.28-1.09,1.12-.29,2.25-.53,3.37-.68,1.88-.26,3.92-.25,5.5.63,1.65.92,2.62,2.64,2.87,4.51.04.28.06.57.06.85-.93.76-1.86,1.52-2.79,2.29-.68.57-1.37,1.12-2.03,1.7l-1.97,1.77-3.91,3.57c-.77.71.23,1.83,1,1.12l3.89-3.56,1.96-1.77c.66-.58,1.35-1.13,2.02-1.69.53-.44,1.06-.87,1.6-1.31-.71,2.98-2.9,5.67-5.15,7.79-.99.9-2.04,1.75-3.13,2.53-.84.61-2.04,1.48-3.11,1.52-.62.02-1.03-.57-1.39-.96l-1.31-1.43c-.86-.96-1.69-1.95-2.5-2.96-.61-.77-1.82.37-1.21,1.12.84,1.04,1.71,2.05,2.6,3.04l1.32,1.42c.42.44.85.92,1.43,1.15,1.02.41,2.19-.05,3.19-.54,1.17-.59,2.23-1.4,3.25-2.21,1.93-1.51,3.8-3.36,5.25-5.41,1.42-1.93,2.39-4.12,2.54-6.52,1.6-1.3,3.2-2.6,4.82-3.88.84-.62-.08-1.8-.93-1.18-1.32,1.05-2.64,2.11-3.95,3.17-.23-1.68-.92-3.28-2.1-4.45-1.54-1.52-3.72-2.09-6-2.03-2.48.08-5.04.69-7.47,1.5-1.27.44-2.53.93-3.78,1.46-.64.28-1.27.55-1.89.83-.62.28-1.31.53-1.78,1.06-.93,1.06-.43,2.54-.02,3.56.48,1.21,1.26,2.37,2.33,3.12Z"/><path class="cls-1" d="M158.66,121.01c.35-.34.36-.76.13-1.11-.91-1.38-1.94-2.67-3.1-3.85-.27-.28-.77-.34-1.11-.02-.31.3-.43.82-.14,1.12,1.16,1.17,2.2,2.46,3.11,3.83.22.33.81.31,1.1.03Z"/><path class="cls-1" d="M117.83,144.95c2.06.99,4.03,2.12,5.91,3.38.34.22.88-.05,1.08-.4.23-.43.05-.82-.29-1.05-1.88-1.26-3.85-2.4-5.89-3.4-.87-.43-1.69,1.05-.8,1.48Z"/><path class="cls-1" d="M169.86,111.25c.37.47,1.11.29,1.38-.24.75-1.4,1.6-2.74,2.55-4.03.29.37.58.73.85,1.09l3.65,4.8c.59.77,1.87-.2,1.28-.97l-3.49-4.64c-.4-.54-.84-1.07-1.27-1.62,1.33-1.67,2.8-3.26,4.34-4.79,3.16-3,6.47-5.92,9.47-9.06.49-.49.1-1.35-.6-1.25-3.64.56-7.24,1.51-10.8,2.7-.78-.92-1.53-1.86-2.21-2.86-.54-.8-1.94.18-1.4.98.59.86,1.22,1.68,1.89,2.48-.34.12-.68.23-1.02.35-4.29,1.68-8.41,3.89-12.4,6.39-.63-.04-1.24.95-.65,1.49,3.06,2.81,5.86,5.89,8.42,9.17ZM174.97,95.62c.53-.2,1.07-.37,1.6-.56.28.31.56.61.86.9.29.29.88.14,1.15-.17.33-.37.23-.8-.06-1.09-.08-.08-.14-.17-.22-.25,2.48-.8,4.98-1.44,7.49-1.95-2.6,2.6-5.34,5.06-7.98,7.59-1.36,1.39-2.67,2.82-3.89,4.3-.36-.55-.67-1.12-.88-1.74-.32-.92-1.84-.27-1.52.65.31.88.79,1.67,1.33,2.43-.88,1.15-1.69,2.35-2.43,3.59-2.18-2.74-4.55-5.34-7.09-7.77,3.74-2.32,7.62-4.36,11.63-5.96Z"/><path class="cls-1" d="M177.78,105.74c.77,1.14,1.64,2.18,2.62,3.15.38.38.81.93,1.33,1.14.56.22,1.04-.09,1.49-.43l7.65-5.4,1.75-1.24c.59-.41,1.31-.82,1.82-1.32.42-.42.47-.97.16-1.43-.42-.63-1.01-1.2-1.51-1.78l-1.29-1.51c-.37-.43-.78-1.16-1.42-1.27-.63-.11-1.16.38-1.66.72l-2.01,1.43-4.4,3.13c-1.46,1.05-2.95,2.06-4.36,3.19-.37.28-.39.66-.25.96-.08.21-.08.44.07.66ZM190.03,97.29c.05-.04.04-.02,0,0h0ZM182.85,102.4l4.05-2.88,2-1.42c.33-.24.68-.46,1-.71.05-.04.06-.05.09-.06l.38.43,1.46,1.68.73.84c.14.17.36.35.52.56-.22.17-.52.34-.64.42l-.99.7-1.97,1.4-4.18,2.93-1.98,1.38c-.31.21-.72.44-.97.72-.03.01-.04.02-.06.03-.09-.08-.22-.16-.28-.22-1.03-.96-1.92-2.04-2.72-3.2,1.17-.9,2.37-1.75,3.58-2.61Z"/><path class="cls-1" d="M198.72,89.07c1.23.03,2.49-.01,3.75-.13l2.24,2.98c-.7.33-1.4.65-2.1.98-1.7.83-3.41,1.63-5.14,2.39-.95.42-.53,1.87.42,1.45,1.76-.78,3.5-1.58,5.22-2.42.83-.41,1.67-.8,2.51-1.18l1.03,1.37c.57.77,1.95-.04,1.38-.82l-.93-1.26c.4-.19.81-.38,1.21-.58,1.06-.51,2.11-1.05,3.15-1.6.23.14.52.17.81,0,.21-.12.37-.39.4-.64,1.94-1.04,3.87-2.1,5.82-3.11.91-.49.19-1.81-.73-1.31-1.96,1.02-3.89,2.08-5.84,3.13-.39-.51-.77-1.01-1.15-1.53,3.41-1.57,6.59-3.64,8.98-6.54,1.3-1.56,2.36-3.37,2.8-5.32.46-1.92.36-3.94-.22-5.76-.6-1.86-1.87-3.72-4.07-4.14-1.87-.35-4.11.38-5.14,2.12-.53.91.83,1.64,1.37.73.73-1.25,2.37-1.63,3.63-1.26,1.57.48,2.39,2.09,2.76,3.5.41,1.59.5,3.37,0,5.04-.49,1.66-1.46,3.18-2.62,4.51-2.31,2.55-5.21,4.54-8.38,5.87-1.34-1.85-2.63-3.74-3.86-5.67-.52-.81-1.96.04-1.43.85,1.19,1.84,2.43,3.64,3.71,5.41-1.62.56-3.3.95-4.99,1.16l-5.06-6.8c-.58-.77-2.03.09-1.45.86l4.59,6.11c-.36.02-.72.03-1.07.03-3.74.1-8.53-.64-9.67-4.53-.27-.94-1.86-.38-1.59.55,1.2,4.03,5.64,5.37,9.66,5.51ZM204.59,88.68c1.58-.27,3.13-.69,4.64-1.25.41.56.83,1.1,1.26,1.65-.91.47-1.82.94-2.74,1.39-.51.25-1.03.49-1.54.74l-1.86-2.5c.08-.01.17-.02.25-.04Z"/><path class="cls-1" d="M203.16,73.84c-.14.36.01.69.32.89,2.73,1.76,5.54,3.23,8.55,4.63.8.37,1.65-.6,1.05-1.23-2.01-2.08-2.91-4.99-2.42-7.93.12-.71.5-1.68-.39-2.01-.85-.31-1.63.54-2.27,1.01-.82.6-1.67,1.15-2.53,1.68-.85.55-1.73,1.07-2.62,1.56-.81.44-.4,1.41.32,1.41ZM206.94,71.72c.52-.33,1.03-.67,1.53-1.03l.52-.38c0,.05-.02.11-.03.16-.06.46-.1.92-.1,1.37,0,.92.11,1.84.34,2.71.18.7.46,1.36.78,2-.49-.25-.98-.51-1.46-.77-1.42-.78-2.81-1.59-4.17-2.46-.01,0-.03,0-.04-.01.89-.51,1.75-1.05,2.62-1.59Z"/><path class="cls-1" d="M221.67,64.43c2.56.61,5.15,1.1,7.75,1.46-.67.92-1.19,1.91-1.42,2.98-.44,2.1.52,4.18,1.94,5.62,1.62,1.65,3.84,2.6,5.96,3.53.9.4,1.45-1.07.56-1.46-2.89-1.28-6.73-2.98-6.93-6.55-.08-1.42.7-2.74,1.65-3.9.8.09,1.61.18,2.42.26,1.35.15,2.7.27,4.05.35,1.23.07,2.38.15,3.11-1.02.67-1.08,1.25-2.2,1.97-3.27.66-.97,1.36-1.95,2.12-2.85.25-.03.49-.06.74-.08,1.72-.11,3.46-.07,5.13.14,1.44.18,3.06.55,4.06,1.54,1.17,1.14.92,2.84-.08,4.12-1.29,1.64-3.48,2.28-5.47,2.68-1.02.21-.85,1.7.17,1.49,2.08-.42,4.24-1.04,5.82-2.51,1.26-1.17,2.16-2.87,1.95-4.53-.46-3.82-5.48-4.42-8.9-4.5-.66-.02-1.32-.01-1.97.02.48-.5.96-1,1.47-1.48,2.12-2.04,4.51-3.88,7.05-5.5.61-.39.37-1.31-.31-1.35-4.1-.27-8.28,1.78-12.11,3.29-4.37,1.86-8.69,3.84-13.01,5.81l-7.18,3.62c-.32.16-.45.42-.46.67-.63.27-.85,1.23-.04,1.43ZM240.63,62.83c-.29.48-.58.96-.85,1.44-.13.24-.25.54-.42.75-.22.27-.43.23-.77.21-2.03-.08-4.08-.3-6.1-.53.89-.82,1.91-1.52,2.96-2.14,2.23-1.28,4.68-2.15,7.17-2.65-.71.95-1.38,1.93-1.99,2.92ZM230.71,59.74l8.01-3.61c1.33-.58,2.64-1.19,3.98-1.74l4.05-1.58c1.58-.61,3.22-1.21,4.88-1.5-1.34.96-2.63,1.98-3.85,3.06-1.33,1.21-2.6,2.44-3.75,3.78-2.72.36-5.41,1.15-7.91,2.36-1.85.92-3.61,2.03-5.05,3.47-.16.16-.32.33-.47.49-2.32-.29-4.63-.7-6.92-1.21,2.34-1.18,4.68-2.38,7.04-3.52Z"/><path class="cls-1" d="M236.54,70.69l2.78,6.4c.39.89,1.84.23,1.46-.66l-2.75-6.42c-.38-.89-1.88-.21-1.49.68Z"/><path class="cls-1" d="M244.38,74.51c.38-.17.62-.66.43-1.02-.92-1.72-1.94-3.39-3.08-4.99-.24-.33-.81-.32-1.14-.06-.37.29-.38.74-.14,1.08,1.06,1.49,2.02,3.03,2.88,4.64.19.36.63.54,1.04.35Z"/><path class="cls-1" d="M283,750.63h-6v-60.72c-129.88-45.41-217-168.07-217-305.91S147.12,123.5,277,78.09V17.37h6v65l-2.03.69C152.39,127.07,66,248,66,384s86.39,256.93,214.97,300.93l2.03.69v65Z"/><path class="cls-1" d="M491,750.63h-6v-65l2.03-.69c128.58-44,214.97-164.94,214.97-300.93s-86.39-256.92-214.97-300.93l-2.03-.69V17.37h6v60.72c129.88,45.42,217,168.08,217,305.91s-87.12,260.5-217,305.91v60.72Z"/><path class="cls-1" d="M463.88,690.97s-.98,6.97-5.53,7.46h-148.68c-4.55-.48-5.53-7.46-5.53-7.46h-1v19.91h1s.98-6.98,5.54-7.46h148.68c4.55.48,5.54,7.46,5.54,7.46h1v-19.91h-1Z"/><path class="cls-1" d="M463.14,714.86s-.41,3.1-2.17,4.29h-51.36l-.58,1c-5.15,8.91-14.74,14.45-25.03,14.45s-19.88-5.54-25.03-14.45l-.58-1h-51.35c-1.75-1.18-2.17-4.29-2.17-4.29h-1.75v12.57h1.75s.41-3.1,2.17-4.28h49.07c5.99,9.56,16.57,15.45,27.89,15.45s21.9-5.89,27.89-15.45h49.08c1.75,1.18,2.17,4.28,2.17,4.28h1.75v-12.57h-1.75Z"/><path class="cls-1" d="M463.88,57.11s-.98,6.98-5.53,7.46h-148.68c-4.55-.48-5.53-7.46-5.53-7.46h-1v19.91h1s.98-6.97,5.53-7.46h148.68c4.55.48,5.53,7.46,5.53,7.46h1v-19.91h-1Z"/><path class="cls-1" d="M673.53,374.04s-.98,6.98-5.54,7.46H100.01c-4.55-.48-5.54-7.46-5.54-7.46h-1v19.91h1s.98-6.97,5.53-7.46h567.99c4.55.48,5.53,7.46,5.53,7.46h1v-19.91h-1Z"/><path class="cls-1" d="M463.14,40.56s-.41,3.1-2.17,4.29h-49.08c-5.99-9.56-16.57-15.45-27.89-15.45s-21.9,5.89-27.89,15.45h-49.07c-1.75-1.18-2.17-4.29-2.17-4.29h-1.75v12.57h1.75s.41-3.1,2.17-4.28h51.35l.58-1c5.15-8.91,14.74-14.45,25.03-14.45s19.88,5.54,25.03,14.45l.58,1h51.36c1.75,1.18,2.17,4.28,2.17,4.28h1.75v-12.57h-1.75Z"/><path class="cls-1" d="M409.51,98.04c0-2.9-.49-5.69-1.38-8.28.08.79.12,1.6.12,2.41,0,13.39-10.85,24.24-24.24,24.24s-24.24-10.85-24.24-24.24c0-.81.04-1.62.12-2.41-.89,2.6-1.38,5.38-1.38,8.28,0,12.73,9.32,23.27,21.51,25.19v230.64h-14.02c4.83,0,4.83,8.31,0,8.31h36.04c-4.83,0-4.83-8.31,0-8.31h-14.02V123.23c12.19-1.92,21.51-12.47,21.51-25.19Z"/><path class="cls-1" d="M409.51,669.96c0-12.73-9.32-23.27-21.51-25.19v-230.64h14.02c-4.83,0-4.83-8.31,0-8.31h-36.04c4.83,0,4.83,8.31,0,8.31h14.02v230.64c-12.19,1.92-21.51,12.47-21.51,25.19,0,2.9.49,5.69,1.38,8.28-.08-.79-.12-1.6-.12-2.41,0-13.39,10.85-24.24,24.24-24.24s24.24,10.85,24.24,24.24c0,.81-.04,1.62-.12,2.41.89-2.6,1.38-5.38,1.38-8.28Z"/><path class="cls-1" d="M632.06,334.68v-1h-19.91v1s6.98.98,7.46,5.54v87.8c-.48,4.55-7.46,5.54-7.46,5.54v1h19.91v-1s-6.97-.98-7.46-5.53v-87.81c.48-4.55,7.46-5.53,7.46-5.53Z"/><path class="cls-1" d="M433.94,284.13v-1h-19.91v1s6.97.98,7.46,5.53v188.69c-.48,4.55-7.46,5.53-7.46,5.53v1h19.91v-1s-6.98-.98-7.46-5.54v-188.68c.48-4.55,7.46-5.54,7.46-5.54Z"/><path class="cls-1" d="M464.07,284.13v-1h-19.91v1s6.97.98,7.46,5.53v188.69c-.48,4.55-7.46,5.53-7.46,5.53v1h19.91v-1s-6.98-.98-7.46-5.54v-188.68c.48-4.55,7.46-5.54,7.46-5.54Z"/><path class="cls-1" d="M135.94,334.68v-1h19.91v1s-6.98.98-7.46,5.54v87.8c.48,4.55,7.46,5.54,7.46,5.54v1h-19.91v-1s6.97-.98,7.46-5.53v-87.81c-.48-4.55-7.46-5.53-7.46-5.53Z"/><path class="cls-1" d="M334.06,284.13v-1h19.91v1s-6.97.98-7.46,5.53v188.69c.48,4.55,7.46,5.53,7.46,5.53v1h-19.91v-1s6.98-.98,7.46-5.54v-188.68c-.48-4.55-7.46-5.54-7.46-5.54Z"/><path class="cls-1" d="M303.93,284.13v-1h19.91v1s-6.97.98-7.46,5.53v188.69c.48,4.55,7.46,5.53,7.46,5.53v1h-19.91v-1s6.98-.98,7.46-5.54v-188.68c-.48-4.55-7.46-5.54-7.46-5.54Z"/><path class="cls-1" d="M438.86,612.54c-12.01,0-21.79-9.77-21.79-21.79s9.77-21.79,21.79-21.79,21.79,9.77,21.79,21.79-9.77,21.79-21.79,21.79ZM438.86,572.97c-9.81,0-17.79,7.98-17.79,17.79s7.98,17.79,17.79,17.79,17.79-7.98,17.79-17.79-7.98-17.79-17.79-17.79Z"/><rect class="cls-1" x="436.86" y="570.97" width="4" height="39.57"/><rect class="cls-1" x="419.07" y="588.75" width="39.57" height="4"/><path class="cls-1" d="M329.14,612.54c-12.01,0-21.79-9.77-21.79-21.79s9.77-21.79,21.79-21.79,21.79,9.77,21.79,21.79-9.77,21.79-21.79,21.79ZM329.14,572.97c-9.81,0-17.79,7.98-17.79,17.79s7.98,17.79,17.79,17.79,17.79-7.98,17.79-17.79-7.98-17.79-17.79-17.79Z"/><rect class="cls-1" x="327.14" y="570.97" width="4" height="39.57"/><rect class="cls-1" x="309.35" y="588.75" width="39.57" height="4"/><path class="cls-1" d="M463.97,590.75c2.44,0,8.47-2.02,9.49-4.28.28,2.26,23.47,4.28,23.47,4.28,0,0-23.18,2.02-23.47,4.28-1.02-2.26-7.05-4.28-9.49-4.28Z"/><path class="cls-1" d="M304.03,590.75c-2.44,0-8.47-2.02-9.49-4.28-.28,2.26-23.47,4.28-23.47,4.28,0,0,23.18,2.02,23.47,4.28,1.02-2.26,7.05-4.28,9.49-4.28Z"/><path class="cls-1" d="M384,189.04c-10.81,0-18.78-6.77-21.7-9.67l-2.14-2.13,2.14-2.13c2.92-2.91,10.89-9.67,21.7-9.67s18.78,6.77,21.7,9.67l2.14,2.13-2.14,2.13c-2.92,2.91-10.89,9.67-21.7,9.67ZM368.92,177.24c3.23,2.59,8.55,5.8,15.08,5.8s11.85-3.22,15.08-5.8c-3.23-2.59-8.55-5.8-15.08-5.8s-11.85,3.22-15.08,5.8Z"/><path class="cls-1" d="M438.86,199.03c-12.01,0-21.79-9.77-21.79-21.79s9.77-21.79,21.79-21.79,21.79,9.77,21.79,21.79-9.77,21.79-21.79,21.79ZM438.86,159.45c-9.81,0-17.79,7.98-17.79,17.79s7.98,17.79,17.79,17.79,17.79-7.98,17.79-17.79-7.98-17.79-17.79-17.79Z"/><rect class="cls-1" x="436.86" y="157.45" width="4" height="39.57"/><rect class="cls-1" x="419.07" y="175.24" width="39.57" height="4"/><path class="cls-1" d="M329.14,199.03c-12.01,0-21.79-9.77-21.79-21.79s9.77-21.79,21.79-21.79,21.79,9.77,21.79,21.79-9.77,21.79-21.79,21.79ZM329.14,159.45c-9.81,0-17.79,7.98-17.79,17.79s7.98,17.79,17.79,17.79,17.79-7.98,17.79-17.79-7.98-17.79-17.79-17.79Z"/><rect class="cls-1" x="327.14" y="157.45" width="4" height="39.57"/><rect class="cls-1" x="309.35" y="175.24" width="39.57" height="4"/><path class="cls-1" d="M463.97,177.24c2.44,0,8.47,2.02,9.49,4.28.28-2.26,23.47-4.28,23.47-4.28,0,0-23.18-2.02-23.47-4.28-1.02,2.26-7.05,4.28-9.49,4.28Z"/><path class="cls-1" d="M304.03,177.24c-2.44,0-8.47,2.02-9.49,4.28-.28-2.26-23.47-4.28-23.47-4.28,0,0,23.18-2.02,23.47-4.28,1.02,2.26,7.05,4.28,9.49,4.28Z"/></g></svg>