<?xml version="1.0" encoding="UTF-8"?><svg id="Layer_1" xmlns="http://www.w3.org/2000/svg" viewBox="0 0 828.7 828.7"><defs><style>.cls-1{fill:#fff;}</style></defs><g id="Pentagram_7"><path class="cls-1" d="M482.08,279.33c-1.33-35.63-30.71-64.2-66.65-64.2s-65.32,28.58-66.65,64.21c-.44,7.03-1.81,16.57,1.84,24.92,3.77,8.62,7.85,12.85,7.85,12.85,0,0-4.34-22.68,6.83-27.14-7.22-.31-10.43-5.26-10.57-8.65.29-33.23,27.4-60.18,60.7-60.18s60.41,26.95,60.7,60.18c-.15,3.39-3.35,8.34-10.57,8.65,11.17,4.47,6.83,27.14,6.83,27.14,0,0,4.09-4.23,7.85-12.85,3.65-8.35,2.28-17.89,1.84-24.92Z"/><path class="cls-1" d="M571.82,431.17c-5.83-3.96-13.35-10.01-22.4-11.12-9.33-1.15-15.05.21-15.05.21,0,0,21.72,7.82,19.88,19.71,3.95-6.06,9.84-6.29,12.83-4.69,28.45,17.18,37.83,54.24,20.86,82.89-16.96,28.66-53.97,38.26-82.71,21.57-2.84-1.85-5.46-7.13-2.05-13.5-9.54,7.34-26.84-7.95-26.84-7.95,0,0,1.56,5.67,7.05,13.3,5.2,7.22,13.84,10.91,20.09,14.06,10.16,5.61,21.19,8.28,32.11,8.28,22.82,0,45.08-11.7,57.52-32.71,18.31-30.93,8.69-70.76-21.28-90.05Z"/><path class="cls-1" d="M325.52,526.24c3.41,6.37.79,11.65-2.05,13.5-28.74,16.69-65.75,7.08-82.71-21.57-16.96-28.65-7.59-65.71,20.86-82.89,2.99-1.6,8.88-1.37,12.83,4.69-1.85-11.89,19.88-19.71,19.88-19.71,0,0-5.72-1.36-15.05-.21-9.05,1.11-16.57,7.16-22.4,11.12-29.97,19.29-39.59,59.12-21.28,90.05,12.44,21.02,34.7,32.71,57.52,32.71,10.91,0,21.95-2.68,32.11-8.29,6.24-3.15,14.88-6.84,20.08-14.06,5.5-7.63,7.05-13.3,7.05-13.3,0,0-17.3,15.29-26.84,7.95Z"/><path class="cls-1" d="M828.7,414.35c-18.48-6.39-29-12.58-31.03-23.11-2.57-43.68-12.46-86.08-29.49-126.36-16.32-38.57-38.59-73.81-66.33-105.07-6.16-8.9-3.11-20.76,5.49-38.45-17.69,8.6-29.54,11.65-38.45,5.49-31.26-27.73-66.5-50.01-105.07-66.33-40.27-17.03-82.68-26.92-126.36-29.49-10.54-2.03-16.72-12.55-23.11-31.03-6.39,18.48-12.58,29-23.11,31.03-43.68,2.57-86.08,12.46-126.36,29.49-38.57,16.32-73.82,38.59-105.07,66.33-8.9,6.16-20.76,3.11-38.45-5.49,8.6,17.69,11.65,29.54,5.49,38.45-27.73,31.26-50.01,66.5-66.33,105.07-17.03,40.27-26.92,82.68-29.49,126.36-2.03,10.54-12.55,16.72-31.03,23.11,18.48,6.39,29,12.58,31.03,23.11,2.57,43.68,12.46,86.09,29.49,126.36,16.32,38.57,38.59,73.81,66.32,105.07,6.16,8.9,3.11,20.76-5.49,38.45,17.69-8.6,29.55-11.65,38.45-5.49,31.26,27.73,66.5,50.01,105.07,66.32,40.27,17.03,82.68,26.92,126.36,29.49,10.54,2.03,16.72,12.55,23.11,31.03,6.39-18.48,12.58-29,23.11-31.03,43.68-2.57,86.08-12.46,126.36-29.49,38.57-16.31,73.81-38.59,105.07-66.32,8.9-6.16,20.76-3.11,38.45,5.49-8.6-17.69-11.65-29.55-5.49-38.45,27.73-31.26,50.01-66.5,66.32-105.07,17.03-40.27,26.92-82.68,29.49-126.36,2.03-10.54,12.55-16.72,31.03-23.11ZM414.35,792.35c-208.43,0-378-169.57-378-378S205.92,36.35,414.35,36.35s378,169.57,378,378-169.57,378-378,378Z"/><path class="cls-1" d="M414.35,776.35c-48.87,0-96.28-9.57-140.91-28.45-43.11-18.23-81.82-44.33-115.06-77.58s-59.35-71.96-77.58-115.06c-18.88-44.63-28.45-92.04-28.45-140.91s9.57-96.28,28.45-140.91c18.23-43.11,44.33-81.82,77.58-115.06s71.96-59.35,115.06-77.58c44.63-18.88,92.04-28.45,140.91-28.45s96.28,9.57,140.91,28.45c43.11,18.23,81.82,44.33,115.06,77.58s59.35,71.96,77.58,115.06c18.88,44.63,28.45,92.04,28.45,140.91s-9.57,96.28-28.45,140.91c-18.23,43.11-44.33,81.82-77.58,115.06s-71.96,59.35-115.06,77.58c-44.63,18.88-92.04,28.45-140.91,28.45ZM414.35,58.35c-196.3,0-356,159.7-356,356s159.7,356,356,356,356-159.7,356-356S610.65,58.35,414.35,58.35Z"/><path class="cls-1" d="M725.76,599.38H102.94L414.35,60.01l311.41,539.37ZM113.34,593.38h602.03L414.35,72.01,113.34,593.38Z"/><path class="cls-1" d="M194.54,510.95c-1.76-.47-3.51-.98-5.26-1.51.05-.52.09-1.04.13-1.56.15-2.29.32-5.12-.11-7.64,1.06-1.94,2.08-3.91,3.02-5.92.55-1.17-.24-2.84-1.64-2.29-1.45.58-2.02,1.41-2.26,2.96-.03.19-.02.36,0,.51-.16.33-.34.65-.5.98,0,0,0-.01,0-.02-4.37-6.34-13.15,4.73-15.68,8.74-1.89,2.99-4.44,7.52-3.77,11.08.52,2.75,2.94,4.14,5.56,3.11,3.57-1.4,6.37-5.37,8.67-8.67,1.06.37,2.13.72,3.2,1.07-.32,1.97-.77,3.94-1.38,5.86-.6,1.89-1.35,4.08-3.23,5.01-2,.99-4.09.08-4.82-1.97-.67-1.86-3.68-.93-3,.96.99,2.76,3.15,4.79,6.19,4.66,3.5-.15,5.88-2.92,7.17-6.18.94-2.37,1.59-4.88,2.02-7.41,1.59.48,3.19.94,4.8,1.37,1.87.5,2.77-2.64.9-3.15ZM185.58,498.81c.22.3.39.67.53,1.07-1.36,2.42-2.82,4.78-4.39,7.06-1.67-.6-3.33-1.22-4.98-1.87-.25-.1-.5-.12-.73-.1.27-.36.55-.71.82-1.06,1.48-1.82,6.61-8.05,8.75-5.11ZM178.33,511.52c-1.03,1.29-2.11,2.57-3.35,3.64-.86.75-1.36,1.25-2.45.94-1.37-.38-1.19-1.41-.77-2.89.57-2.02,1.53-4.04,2.68-5.91.11.25.33.47.67.61,1.54.61,3.09,1.2,4.65,1.77-.46.62-.93,1.23-1.42,1.83ZM184.61,507.94c.66-.98,1.32-1.97,1.94-2.98-.05,1.13-.15,2.21-.21,3.06-.01.16-.03.32-.05.48-.56-.18-1.13-.37-1.69-.56Z"/><path class="cls-1" d="M206.18,487.3c-.84,1.31-1.71,2.6-2.57,3.9-.1-.28-.29-.54-.6-.73-.18-.11-.37-.22-.56-.33.99-1.12,1.64-2.95,2.27-4.1,1.02-1.85-1.52-3.33-2.6-1.5-.62,1.05-1.24,2.1-1.86,3.16-.08-.02-.18-.03-.28-.04-.48-.17-.96-.33-1.43-.5-.46-.16-.86-.08-1.17.14-4.64-2.44-9.46-4.52-14.44-6.24-1.83-.63-2.72,2.52-.9,3.15,5.58,1.93,10.92,4.35,16.04,7.22-2.19,3.73-4.39,7.46-6.58,11.19-1.07,1.83,1.52,3.33,2.6,1.5,2.19-3.73,4.39-7.46,6.58-11.19.23.14.46.27.68.4.24.15.48.2.71.2-1.62,2.4-3.26,4.79-4.93,7.16-1.22,1.73,1.39,3.22,2.6,1.5,3.11-4.4,6.12-8.86,9.04-13.38,1.15-1.78-1.45-3.27-2.6-1.5Z"/><path class="cls-1" d="M183.9,490.63s.09.02.13.03c.03.02.07.03.1.05.65.44,1.73.08,2.12-.68.43-.83.23-1.71-.48-2.18-.51-.34-1.17-.49-1.79-.45-.8.05-1.6.8-1.59,1.68,0,.86.62,1.59,1.48,1.54,0,0,.02,0,.03,0Z"/><path class="cls-1" d="M218.36,463.69c-1.77-1.11-3.54-2.22-5.32-3.33-1.09-.68-3.96-1.87-5.03-3.11.08-1.2-1.14-2.04-2.11-1.51-.15-1.42-.28-2.84-.36-4.27-.07-1.19-1.62-2.27-2.57-1.03-5.41,7.04-10.42,14.36-14.98,21.99-1.09,1.82,1.51,3.32,2.6,1.5,3.76-6.29,7.84-12.38,12.2-18.26.15,1.52.36,3.04.59,4.54-1.18,2.35-2.42,4.68-3.71,6.98-.66-.4-1.33-.8-1.98-1.21-1.63-1.04-3.28,1.82-1.65,2.85.66.42,1.32.82,1.99,1.22-1.1,1.88-2.22,3.74-3.39,5.58-1.14,1.79,1.46,3.28,2.6,1.5,1.17-1.84,2.29-3.71,3.39-5.59,1.46.8,2.95,1.57,4.46,2.28.53.25,1.05.16,1.48-.11.39,1.13.84,2.22,1.4,3.2-1.84-.06-3.66-.18-5.49-.39-1.92-.22-2.84,2.93-.9,3.15,3.31.38,6.64.56,10,.5,1.54-.02,2.14-2.31.88-3.03-1.91-1.1-2.54-3.93-3.22-5.98-.7-2.09-1.3-4.21-1.81-6.37-.33-1.42-.61-2.85-.86-4.29.04-.08.08-.15.11-.23.35.23.71.45,1.03.65,2.28,1.43,4.56,2.86,6.84,4.28-1.19.98-2.16,2.2-2.87,3.77-.87,1.91,1.72,3.43,2.6,1.5.78-1.72,1.88-3.03,3.58-3.81,1.23-.56,1.67-2.22.49-2.96ZM204.85,467.45c.24.9.48,1.91.75,2.96-1.13-.55-2.24-1.13-3.34-1.73.69-1.23,1.36-2.47,2.02-3.72.19.83.36,1.67.58,2.49Z"/><path class="cls-1" d="M222.92,446.53c.48-.84.18-1.69-.48-2.18-1.33-.99-2.72-1.85-4.2-2.59-1.72-.86-3.38,1.99-1.65,2.85,1.48.74,2.88,1.6,4.2,2.59.65.49,1.71.04,2.12-.68Z"/><path class="cls-1" d="M230.72,433.86c-.64,1.07-1.25,2.16-1.88,3.24-.97-1.39-2.37-2.45-4.33-2.96-3.09-.8-6.29.53-9.08,2.24-1.73,1.05-3.36,2.29-4.94,3.59-1.34,1.09-3.08,2.26-4.09,3.69-1.85,2.61.88,5.47,2.83,6.66,1.07.66,2.29,1.07,3.6.81,1.62-.32,3.19-2.3,4.75-2.1,1.92.25,2.84-2.9.9-3.15-1.9-.24-2.91.58-4.62,1.4-1.75.84-2.78.61-4.04-.71-1.53-1.61-.84-.8-.14-1.9.64-1,2.41-2.12,3.31-2.83.99-.78,2.02-1.53,3.07-2.22,1.99-1.3,4.28-2.65,6.61-2.47,2.31.18,3.65,1.43,4.32,3.14-2.32,4.03-4.62,8.07-6.85,12.15-1.02,1.85,1.58,3.36,2.6,1.5,1.51-2.75,3.04-5.48,4.59-8.2-.26,1.63-.77,3.22-1.4,4.5-.84,1.7-2.75,5.85-4.59,6.48-.88.3-2.42-1.04-3.1-1.44-1.03-.62-2.04-1.26-3.04-1.92-1.62-1.06-3.26,1.79-1.65,2.85,2.15,1.42,5.79,4.84,8.69,3.51,2.89-1.32,5.18-5.63,6.5-8.41,1.53-3.21,2.26-7.3,1.56-10.72,1.01-1.74,2.01-3.49,3.04-5.23,1.08-1.82-1.52-3.32-2.6-1.5Z"/><path class="cls-1" d="M195.9,482.63c1.79.7,2.68-2.45.9-3.15-2.11-.82-4.27-1.52-6.47-2.09-1.88-.48-2.78,2.66-.9,3.15,2.2.57,4.36,1.26,6.47,2.09Z"/><path class="cls-1" d="M243.93,410.18c-1.17-.49-2.06-.95-3.18.11-1.44,1.36-2.39,3.95-3.37,5.67-1.23,2.17-2.46,4.33-3.69,6.5,1.73-4.88,3.98-9.65,5.56-14.55.42-1.31-1.04-2.5-2.18-1.71-2.9,2.03-5.65,4.24-8.25,6.63-.92-.45-1.82-.94-2.7-1.47-1.66-1-3.3,1.86-1.65,2.85.61.36,1.22.7,1.84,1.02-3.09,3.1-5.93,6.47-8.53,10.09-1.03.53-1.27,2.57.12,3.12,3.82,1.5,7.48,3.29,11.03,5.34,1.04.6,2.24-.3,2.36-1.5.11-1.11.29-2.21.51-3.29,1.85,1.06,3.78,2.01,5.53,3.01,1.67.96,3.32-1.89,1.65-2.85-1.98-1.14-4.28-2.19-6.35-3.46.17-.57.34-1.14.53-1.71.03.28.14.53.3.73.08.34.27.66.64.89,2.28,1.4,5.68,3.94,7.76.78,1.37-2.08,2.52-4.34,3.76-6.5,1.06-1.84,2.71-3.93,3.21-5.99.12-.5.07-1.19-.33-1.52-1.3-1.04-3.06-1.54-4.59-2.18ZM229.53,423.32c-1.38-1.36-3.66.99-2.28,2.35.58.57,1.23,1.09,1.9,1.58-.21.85-.39,1.71-.54,2.57-2.51-1.36-5.08-2.58-7.72-3.69,2.53-3.43,5.32-6.63,8.34-9.56.26.11.52.22.78.33.76.3,1.69-.46,1.92-1.23.16-.56.03-1.02-.25-1.37.97-.86,1.97-1.7,2.99-2.51-1.54,4.02-3.26,7.98-4.55,12.05-.2-.17-.4-.34-.59-.52ZM241.43,421.16c-.43.75-1.29,2.96-2.03,3.31-.52.24-1.82-.54-2.76-1.14.93-1.64,1.87-3.29,2.8-4.93.88-1.55,1.81-3.85,2.97-5.39,1,.29,2.2.75,3.09,1.24-.47.95-1.19,1.91-1.66,2.73-.8,1.4-1.6,2.79-2.41,4.19Z"/><path class="cls-1" d="M260.33,387.55c-1.01,1.73-2.05,3.43-3.13,5.12-.1-.04-.2-.09-.31-.13,1.32-1.92,2.39-4.01,3.13-6.22,1.89-5.66,1.21-11.6-3.24-15.13-3.36-2.67-9.66-1.87-9.94,3.8-.1,2.07,2.97,1.93,3.07-.14.16-3.17,3.93-1.92,5.19-.81,1.41,1.24,2.45,2.96,2.78,4.92.6,3.6-.86,7.69-2.77,10.84-.29.47-.63.98-1.02,1.49-1.87-.87-3.72-1.77-5.55-2.73-1.71-.9-3.36,1.95-1.65,2.85,1.64.86,3.29,1.68,4.97,2.47-.76.78-1.58,1.55-2.45,2.26-2.42-1.12-4.85-2.24-7.27-3.35-1.74-.8-3.4,2.04-1.65,2.85l5.8,2.67c-3.35,1.92-6.89,2.58-9.48.16-1.41-1.32-3.7,1.02-2.28,2.35,4.13,3.86,10.01,2.13,14.66-.83.1-.06.2-.14.3-.21.72.33,1.43.66,2.15.99-1.37,1.88-2.77,3.73-4.23,5.55-1.32,1.63.74,3.85,2.07,2.2,1.7-2.11,3.33-4.29,4.92-6.48l.98.45c1.74.8,3.4-2.04,1.65-2.85l-.68-.31c.71-1.02,1.39-2.06,2.07-3.1.73-.31,1.25-1.12,1.21-1.82,1.13-1.76,2.22-3.54,3.28-5.35,1.07-1.83-1.53-3.33-2.6-1.5ZM252.46,397.53c.83-.73,1.6-1.51,2.34-2.33.19.08.38.16.58.25-.58.88-1.17,1.75-1.77,2.61-.38-.18-.76-.35-1.14-.53Z"/><path class="cls-1" d="M242.32,386.33c.23.29.58.5,1.04.52,3.22.2,6.45.13,9.7-.19,1.76-.17,2.16-2.69.5-3.18-1.89-.57-3.51-1.67-4.67-3.29-.76-1.05-1.02-3.04-2.23-3.6-.98-.46-1.89.11-2.44,1.05-1.2,2.03-1.91,4.33-3.18,6.38-.77,1.24.22,2.34,1.28,2.31ZM247.64,383.73c-.98,0-1.95,0-2.93-.05.3-.54.59-1.08.85-1.63.1-.2.19-.41.28-.61.02.03.03.07.05.1.49.8,1.08,1.54,1.74,2.19Z"/><path class="cls-1" d="M279.79,344.76c-2.94-1.21-6.44.49-9.41,2.77.41-2.87,1.12-5.7,2.07-8.49.45-1.3-1.06-2.51-2.18-1.71-4.21,3-6.6,8.2-9.19,12.61-3.12,5.31-6.17,10.66-9.23,16.01-.26.45-.29.88-.19,1.24-.28,1.08.45,2.36,1.76,1.9,2.12-.74,4.21-1.58,6.27-2.51.02.23.04.46.08.69,1.03,6.5,7.98,6.25,13.03,5.3,1.97-.37,1.28-3.44-.67-3.08-3.63.68-9.31,1.28-9.37-3.96,0-.15.02-.29.02-.44.1-.05.21-.1.31-.15,2.04-1.06,6.46-2.64,7.16-5.21.35-1.29-.13-2.92-.2-4.16-.07-1.24-.06-2.49-.01-3.74,1.4-1.26,2.93-2.36,4.51-3.23,1.68-.92,4.34-1.8,5.07.56.66,2.13-1.02,4.37-2.33,5.94-1.35,1.61.71,3.83,2.07,2.2,2.9-3.48,5.77-10.34.45-12.54ZM262.61,353.25c1.63-2.79,3.26-6.31,5.33-9.23-.46,2.15-.77,4.31-.92,6.48-.37.37-.73.74-1.04,1.09-2.78,3.02-5.39,7.26-6.14,11.52-1.28.61-2.57,1.16-3.87,1.69,2.2-3.85,4.4-7.71,6.64-11.54ZM266.5,359.45c-.73.74-1.96,1.32-3.03,1.84.75-2.23,2-4.36,3.4-6.13.02-.03.05-.06.07-.09.01.36.02.72.04,1.08.04.57.08,1.14.14,1.7.14,1.19.11.85-.62,1.6Z"/><path class="cls-1" d="M276.21,366.89c-1.98-1.23-3.95-2.45-5.93-3.68-1.64-1.02-3.29,1.83-1.65,2.85,1.98,1.23,3.95,2.45,5.93,3.68,1.64,1.02,3.29-1.83,1.65-2.85Z"/><path class="cls-1" d="M277.83,362.06c-1.82-.88-3.69-1.65-5.61-2.31-1.83-.63-2.72,2.52-.9,3.15,1.66.58,3.28,1.25,4.86,2.02,1.73.84,3.39-2.01,1.65-2.85Z"/><path class="cls-1" d="M299.89,328.48c-1.76-.47-3.51-.98-5.26-1.51.05-.52.09-1.04.13-1.56.15-2.29.32-5.12-.11-7.64,1.06-1.94,2.08-3.91,3.02-5.92.55-1.17-.24-2.84-1.64-2.29-1.45.58-2.02,1.41-2.26,2.96-.03.19-.02.36,0,.51-.16.33-.34.65-.5.98,0,0,0-.01,0-.02-4.37-6.34-13.15,4.73-15.68,8.74-1.89,2.99-4.44,7.52-3.77,11.08.52,2.75,2.94,4.14,5.56,3.11,3.57-1.4,6.37-5.37,8.67-8.67,1.06.37,2.13.72,3.2,1.07-.32,1.97-.77,3.94-1.38,5.86-.6,1.89-1.35,4.08-3.23,5.01-2,.99-4.09.08-4.82-1.96-.67-1.86-3.68-.93-3,.96.99,2.76,3.15,4.79,6.19,4.66,3.5-.15,5.88-2.92,7.17-6.18.94-2.37,1.59-4.88,2.02-7.41,1.59.48,3.19.94,4.8,1.37,1.87.5,2.77-2.64.9-3.15ZM290.93,316.34c.22.3.39.67.53,1.07-1.36,2.42-2.82,4.78-4.39,7.06-1.67-.6-3.33-1.22-4.98-1.87-.25-.1-.5-.12-.73-.1.27-.36.55-.71.82-1.06,1.48-1.82,6.61-8.05,8.75-5.11ZM283.67,329.06c-1.03,1.28-2.11,2.57-3.35,3.64-.86.75-1.36,1.25-2.45.94-1.37-.38-1.19-1.41-.77-2.89.57-2.02,1.53-4.04,2.68-5.91.11.26.33.47.67.61,1.54.61,3.09,1.2,4.65,1.77-.46.62-.93,1.23-1.42,1.83ZM289.95,325.48c.67-.98,1.32-1.97,1.94-2.98-.05,1.13-.15,2.21-.21,3.06-.01.16-.03.32-.05.48-.56-.18-1.13-.37-1.69-.56Z"/><path class="cls-1" d="M311.52,304.84c-.84,1.31-1.71,2.6-2.57,3.9-.1-.28-.29-.54-.6-.73-.18-.11-.37-.22-.56-.33.99-1.12,1.64-2.95,2.27-4.1,1.02-1.85-1.52-3.33-2.6-1.5-.62,1.05-1.24,2.1-1.86,3.16-.08-.02-.18-.03-.28-.04-.48-.17-.96-.33-1.43-.5-.46-.16-.86-.08-1.17.14-4.64-2.44-9.46-4.52-14.44-6.24-1.83-.63-2.72,2.52-.9,3.15,5.58,1.93,10.92,4.35,16.04,7.22-2.19,3.73-4.39,7.46-6.58,11.19-1.07,1.83,1.52,3.33,2.6,1.5,2.19-3.73,4.39-7.46,6.58-11.19.23.14.46.27.68.4.24.15.48.2.71.2-1.62,2.4-3.26,4.79-4.93,7.16-1.22,1.73,1.39,3.22,2.6,1.5,3.11-4.4,6.12-8.86,9.04-13.38,1.15-1.78-1.45-3.27-2.6-1.5Z"/><path class="cls-1" d="M289.25,308.16s.09.02.13.03c.03.02.07.03.1.05.65.44,1.73.08,2.12-.68.43-.83.23-1.71-.48-2.18-.51-.34-1.17-.49-1.79-.45-.8.05-1.6.8-1.59,1.68,0,.86.62,1.59,1.48,1.54,0,0,.02,0,.03,0Z"/><path class="cls-1" d="M323.7,281.23c-1.77-1.11-3.54-2.22-5.32-3.33-1.09-.68-3.96-1.87-5.03-3.11.08-1.2-1.14-2.04-2.11-1.51-.15-1.42-.28-2.84-.36-4.27-.07-1.19-1.62-2.27-2.57-1.03-5.41,7.04-10.42,14.36-14.98,21.99-1.09,1.82,1.51,3.32,2.6,1.5,3.76-6.29,7.84-12.38,12.2-18.26.15,1.52.36,3.04.59,4.54-1.18,2.35-2.42,4.68-3.71,6.98-.66-.4-1.33-.8-1.98-1.21-1.63-1.03-3.28,1.82-1.65,2.85.66.42,1.32.82,1.99,1.22-1.1,1.88-2.22,3.74-3.39,5.58-1.14,1.79,1.46,3.28,2.6,1.5,1.17-1.84,2.29-3.71,3.39-5.59,1.46.8,2.95,1.57,4.46,2.28.53.25,1.05.16,1.48-.11.39,1.13.84,2.22,1.4,3.2-1.84-.06-3.66-.18-5.49-.39-1.92-.22-2.84,2.93-.9,3.15,3.31.38,6.64.56,10,.5,1.54-.02,2.14-2.31.88-3.03-1.91-1.1-2.54-3.93-3.22-5.98-.7-2.09-1.3-4.21-1.81-6.37-.33-1.42-.61-2.85-.86-4.29.04-.08.08-.15.11-.23.35.23.71.45,1.03.65,2.28,1.43,4.56,2.86,6.84,4.28-1.19.98-2.16,2.2-2.87,3.77-.87,1.91,1.72,3.43,2.6,1.5.78-1.72,1.88-3.03,3.58-3.81,1.23-.56,1.67-2.22.49-2.96ZM310.2,284.99c.24.9.48,1.91.75,2.96-1.13-.55-2.24-1.13-3.34-1.73.69-1.23,1.36-2.47,2.02-3.72.19.83.36,1.66.58,2.49Z"/><path class="cls-1" d="M328.26,264.07c.48-.84.18-1.69-.48-2.18-1.33-.99-2.72-1.85-4.2-2.59-1.72-.86-3.38,1.99-1.65,2.85,1.48.74,2.88,1.6,4.2,2.59.65.49,1.71.04,2.12-.68Z"/><path class="cls-1" d="M336.07,251.4c-.64,1.07-1.25,2.16-1.88,3.24-.97-1.39-2.37-2.45-4.33-2.96-3.09-.8-6.29.53-9.08,2.24-1.73,1.05-3.36,2.29-4.94,3.59-1.34,1.09-3.08,2.26-4.09,3.69-1.85,2.61.88,5.47,2.83,6.66,1.07.66,2.29,1.07,3.6.81,1.62-.32,3.19-2.3,4.75-2.1,1.92.25,2.84-2.9.9-3.15-1.9-.24-2.91.58-4.62,1.4-1.75.84-2.78.61-4.04-.71-1.53-1.61-.84-.8-.14-1.9.64-1,2.41-2.12,3.31-2.83.99-.78,2.02-1.53,3.07-2.22,1.99-1.3,4.28-2.65,6.61-2.47,2.31.18,3.65,1.43,4.32,3.14-2.32,4.03-4.62,8.07-6.85,12.15-1.02,1.85,1.58,3.36,2.6,1.5,1.51-2.75,3.04-5.48,4.59-8.2-.26,1.63-.77,3.22-1.4,4.5-.84,1.7-2.75,5.85-4.59,6.48-.88.3-2.42-1.04-3.1-1.44-1.03-.62-2.04-1.26-3.04-1.92-1.62-1.06-3.26,1.79-1.65,2.85,2.15,1.42,5.79,4.84,8.69,3.51,2.89-1.32,5.18-5.63,6.5-8.41,1.53-3.21,2.26-7.3,1.56-10.72,1.01-1.74,2.01-3.49,3.04-5.23,1.08-1.82-1.52-3.32-2.6-1.5Z"/><path class="cls-1" d="M301.25,300.17c1.79.7,2.68-2.45.9-3.15-2.11-.82-4.27-1.52-6.47-2.09-1.88-.48-2.78,2.66-.9,3.15,2.2.57,4.36,1.26,6.47,2.09Z"/><path class="cls-1" d="M349.27,227.71c-1.17-.49-2.06-.95-3.18.11-1.44,1.36-2.39,3.95-3.37,5.67-1.23,2.17-2.46,4.33-3.69,6.5,1.73-4.88,3.98-9.65,5.56-14.55.42-1.31-1.04-2.5-2.18-1.71-2.9,2.03-5.65,4.24-8.25,6.63-.92-.45-1.82-.94-2.7-1.47-1.66-1-3.3,1.86-1.65,2.85.61.36,1.22.7,1.84,1.02-3.09,3.1-5.93,6.47-8.53,10.09-1.03.53-1.27,2.57.12,3.12,3.82,1.5,7.48,3.29,11.03,5.34,1.04.6,2.24-.3,2.36-1.5.11-1.11.29-2.21.51-3.29,1.85,1.06,3.78,2.01,5.53,3.01,1.67.96,3.32-1.89,1.65-2.85-1.98-1.14-4.28-2.19-6.35-3.46.17-.57.34-1.14.53-1.71.03.28.14.53.3.73.08.34.27.66.64.89,2.28,1.4,5.68,3.94,7.76.78,1.37-2.08,2.52-4.34,3.76-6.5,1.06-1.84,2.71-3.93,3.21-5.99.12-.5.07-1.19-.33-1.52-1.3-1.04-3.06-1.54-4.59-2.18ZM334.87,240.85c-1.38-1.36-3.66.99-2.28,2.35.58.57,1.23,1.09,1.9,1.58-.21.85-.39,1.71-.54,2.57-2.51-1.36-5.08-2.58-7.72-3.69,2.53-3.43,5.32-6.63,8.34-9.56.26.11.52.22.78.33.76.3,1.69-.46,1.92-1.23.16-.56.04-1.02-.25-1.37.97-.86,1.97-1.7,2.99-2.51-1.54,4.02-3.26,7.98-4.55,12.05-.2-.17-.4-.34-.59-.52ZM346.78,238.69c-.43.75-1.29,2.96-2.03,3.31-.52.24-1.82-.54-2.76-1.14.93-1.64,1.87-3.29,2.8-4.93.88-1.55,1.81-3.85,2.97-5.39,1,.29,2.2.75,3.09,1.24-.47.95-1.19,1.91-1.66,2.73-.8,1.4-1.6,2.79-2.41,4.19Z"/><path class="cls-1" d="M365.68,205.09c-1.01,1.73-2.05,3.43-3.13,5.12-.1-.04-.2-.09-.31-.13,1.32-1.92,2.39-4.01,3.13-6.22,1.89-5.66,1.21-11.6-3.24-15.13-3.36-2.67-9.66-1.87-9.94,3.81-.1,2.07,2.97,1.93,3.07-.14.16-3.17,3.93-1.92,5.19-.81,1.41,1.24,2.45,2.96,2.78,4.92.6,3.6-.86,7.69-2.77,10.84-.29.47-.63.98-1.02,1.49-1.87-.87-3.72-1.77-5.55-2.73-1.71-.9-3.36,1.95-1.65,2.85,1.64.86,3.29,1.68,4.97,2.47-.76.78-1.58,1.54-2.45,2.26l-7.27-3.35c-1.74-.8-3.4,2.04-1.65,2.85,1.93.89,3.87,1.78,5.8,2.67-3.35,1.92-6.89,2.58-9.48.16-1.41-1.32-3.7,1.02-2.28,2.35,4.13,3.86,10.01,2.13,14.66-.83.1-.06.2-.14.3-.21.72.33,1.43.66,2.15.99-1.37,1.88-2.77,3.73-4.23,5.55-1.32,1.63.74,3.85,2.07,2.2,1.7-2.11,3.33-4.29,4.92-6.48.33.15.65.3.98.45,1.74.8,3.4-2.04,1.65-2.85-.23-.1-.45-.21-.68-.31.71-1.02,1.39-2.06,2.07-3.1.73-.31,1.25-1.12,1.21-1.82,1.13-1.76,2.22-3.54,3.28-5.35,1.07-1.83-1.53-3.33-2.6-1.5ZM357.81,215.07c.83-.73,1.6-1.51,2.34-2.33.19.08.38.16.58.25-.58.88-1.17,1.75-1.77,2.61-.38-.18-.76-.35-1.14-.53Z"/><path class="cls-1" d="M347.67,203.86c.23.29.58.49,1.04.52,3.22.2,6.45.13,9.7-.19,1.76-.17,2.16-2.69.5-3.18-1.89-.57-3.51-1.67-4.67-3.29-.76-1.05-1.02-3.04-2.23-3.6-.98-.46-1.89.11-2.44,1.05-1.2,2.03-1.91,4.33-3.18,6.38-.77,1.24.22,2.34,1.28,2.31ZM352.99,201.27c-.98,0-1.95,0-2.93-.05.3-.54.59-1.08.85-1.63.1-.2.19-.41.28-.61.02.03.03.07.05.1.49.8,1.08,1.54,1.74,2.19Z"/><path class="cls-1" d="M385.13,162.29c-2.94-1.21-6.44.49-9.41,2.77.41-2.87,1.12-5.7,2.07-8.49.45-1.3-1.06-2.51-2.18-1.71-4.21,3-6.6,8.2-9.19,12.61-3.12,5.31-6.17,10.66-9.23,16.01-.26.45-.29.88-.19,1.24-.28,1.08.45,2.36,1.76,1.9,2.12-.74,4.21-1.58,6.27-2.51.02.23.04.46.08.69,1.03,6.5,7.98,6.25,13.03,5.3,1.97-.37,1.28-3.44-.67-3.08-3.63.68-9.31,1.28-9.37-3.96,0-.15.02-.29.02-.44.1-.05.21-.1.31-.15,2.04-1.06,6.46-2.64,7.16-5.21.35-1.29-.13-2.92-.2-4.16-.07-1.24-.06-2.49-.01-3.74,1.4-1.26,2.93-2.36,4.51-3.23,1.68-.92,4.34-1.8,5.07.56.66,2.13-1.02,4.37-2.33,5.94-1.35,1.61.71,3.83,2.07,2.2,2.9-3.48,5.77-10.34.45-12.54ZM367.96,170.79c1.63-2.79,3.26-6.31,5.33-9.23-.46,2.15-.77,4.31-.92,6.48-.37.37-.73.74-1.04,1.09-2.78,3.02-5.39,7.26-6.14,11.52-1.28.61-2.57,1.16-3.87,1.69,2.2-3.85,4.4-7.71,6.64-11.54ZM371.85,176.98c-.73.74-1.96,1.32-3.03,1.84.75-2.23,2-4.36,3.4-6.13.02-.03.05-.06.07-.09.01.36.02.72.04,1.08.04.57.08,1.14.14,1.7.14,1.19.11.85-.62,1.6Z"/><path class="cls-1" d="M381.56,184.43c-1.98-1.23-3.95-2.45-5.93-3.68-1.64-1.02-3.29,1.83-1.65,2.85,1.98,1.23,3.95,2.45,5.93,3.68,1.64,1.02,3.29-1.83,1.65-2.85Z"/><path class="cls-1" d="M383.17,179.59c-1.82-.88-3.69-1.65-5.61-2.31-1.83-.63-2.72,2.52-.9,3.15,1.66.58,3.28,1.25,4.86,2.02,1.73.84,3.39-2.01,1.65-2.85Z"/><path class="cls-1" d="M623.18,577.17c1.9-2.24,2.58-5.12.94-7.69-1.88-2.95-5.47-3.64-8.93-3.12-2.52.37-5.02,1.07-7.42,1.96-.38-1.62-.78-3.23-1.21-4.84-.5-1.87-3.68-1.08-3.17.8.47,1.76.91,3.53,1.32,5.31-.48.22-.95.44-1.42.67-2.06,1.02-4.6,2.29-6.57,3.91-2.21.05-4.42.15-6.63.34-1.29.11-2.34,1.63-1.16,2.56,1.22.97,2.23,1.05,3.69.48.18-.07.32-.16.44-.26.37-.02.73-.04,1.1-.05,0,0,0,.01,0,.02-3.31,6.96,10.68,9.02,15.41,9.21,3.53.14,8.73.09,11.48-2.28,2.12-1.83,2.12-4.62-.08-6.37-3-2.39-7.84-2.83-11.84-3.18-.21-1.1-.44-2.2-.68-3.3,1.87-.71,3.79-1.3,5.77-1.74,1.93-.43,4.2-.87,5.95.29,1.86,1.24,2.11,3.5.71,5.16-1.28,1.51,1.03,3.65,2.33,2.12ZM597.34,578.1c.15-.34.38-.67.66-1,2.77-.03,5.55.05,8.31.27.32,1.75.61,3.5.87,5.25.04.27.14.49.28.68-.45-.05-.89-.12-1.33-.19-2.32-.38-10.28-1.7-8.8-5.02ZM611.98,578.02c1.63.25,3.28.54,4.83,1.08,1.08.38,1.76.56,2.04,1.65.35,1.37-.63,1.74-2.12,2.11-2.04.52-4.26.7-6.45.64.16-.23.25-.52.19-.89-.24-1.64-.5-3.28-.79-4.91.77.09,1.53.19,2.29.31ZM605.73,574.38c-1.18-.09-2.36-.15-3.55-.19,1.01-.52,1.99-.97,2.75-1.35.14-.07.29-.13.44-.2.12.58.24,1.16.36,1.74Z"/><path class="cls-1" d="M584.69,570.98c4.33.04,8.66.07,12.98.11,2.12.02,2.12-2.98,0-3-4.33-.04-8.65-.07-12.98-.11,0-.26,0-.53,0-.79,0-.28-.06-.52-.18-.72,2.89.2,5.78.43,8.67.69,2.11.19,2.09-2.81,0-3-5.36-.49-10.73-.87-16.11-1.14-2.12-.11-2.11,2.89,0,3,1.56.08,3.11.19,4.66.28-.2.23-.32.52-.33.89,0,.22,0,.43,0,.65-1.46-.3-3.38.05-4.69.08-2.12.04-2.12,2.98,0,3,1.22.01,2.44.02,3.66.03.03.08.06.17.1.27.09.5.19.99.28,1.49.09.48.36.78.7.94.21,5.24.81,10.45,1.81,15.63.37,1.9,3.54,1.09,3.17-.8-1.12-5.79-1.69-11.63-1.77-17.5Z"/><path class="cls-1" d="M591.09,583.64s-.03-.08-.04-.13c0-.04,0-.08,0-.11.05-.78-.79-1.53-1.65-1.5-.93.04-1.59.66-1.65,1.5-.04.61.16,1.26.5,1.78.45.67,1.5.98,2.25.54.74-.43,1.07-1.33.59-2.05,0,0,0-.02-.01-.02Z"/><path class="cls-1" d="M573.3,586.21c-7.33-.11-14.64-.6-21.91-1.43,1.24-.89,2.45-1.83,3.64-2.78,2.63-.15,5.26-.24,7.9-.28-.01.77-.03,1.55-.06,2.32-.08,1.93,3.21,1.93,3.29,0,.03-.78.05-1.56.06-2.33,2.17.01,4.35.05,6.52.15,2.12.09,2.11-2.91,0-3-2.18-.09-4.36-.13-6.53-.15-.04-1.67-.12-3.34-.25-5.01-.05-.59-.39-.99-.84-1.22.79-.9,1.51-1.84,2.07-2.81.87,1.62,1.67,3.27,2.4,4.95.77,1.77,3.96,1,3.17-.8-1.33-3.06-2.84-6.02-4.57-8.91-.79-1.32-3.07-.7-3.07.76,0,2.2-2.14,4.16-3.57,5.78-1.46,1.65-3,3.23-4.61,4.75-1.06,1-2.16,1.95-3.29,2.89-.09,0-.17.01-.26.02.03-.42.03-.83.05-1.22.1-2.69.19-5.38.29-8.07,1.44.55,2.99.77,4.7.6,2.08-.2,2.11-3.21,0-3-1.88.18-3.57-.11-5.09-1.2-1.1-.79-2.76-.33-2.81,1.06-.07,2.09-.15,4.18-.22,6.27-.05,1.29.36,4.37-.18,5.91-1.08.53-1.19,2.01-.25,2.58-1.15.84-2.32,1.67-3.52,2.45-1,.65-1.16,2.54.39,2.74,8.8,1.17,17.65,1.84,26.54,1.98,2.12.03,2.12-2.97,0-3ZM560.55,577.09c.66-.66,1.42-1.37,2.19-2.12.08,1.25.15,2.5.17,3.76-1.41.02-2.82.06-4.23.11.63-.58,1.26-1.15,1.87-1.74Z"/><path class="cls-1" d="M546.47,575.19c.15-2.57,1.3-7.43-1.3-9.28-2.59-1.84-7.47-1.67-10.53-1.43-3.55.28-7.47,1.69-10.08,4.01-2.01,0-4.01,0-6.02-.02-2.12-.02-2.12,2.98,0,3,1.24.01,2.49,0,3.73.01-.71,1.53-.92,3.28-.38,5.23.85,3.07,3.61,5.18,6.48,6.74,1.78.97,3.67,1.76,5.57,2.48,1.61.61,3.49,1.54,5.24,1.7,3.18.3,4.3-3.49,4.36-5.78.03-1.25-.22-2.52-1.1-3.52-1.08-1.24-3.59-1.62-4.19-3.06-.75-1.79-3.93-1.01-3.17.8.74,1.77,1.96,2.23,3.52,3.3,1.6,1.1,1.92,2.11,1.4,3.85-.63,2.13-.28,1.13-1.58,1.07-1.19-.05-3.04-1.03-4.1-1.45-1.18-.47-2.33-.98-3.46-1.55-2.12-1.08-4.44-2.38-5.45-4.49-1-2.09-.59-3.88.56-5.31,4.65,0,9.3-.04,13.95-.14,2.11-.05,2.12-3.05,0-3-3.14.07-6.28.11-9.42.13,1.54-.59,3.19-.94,4.62-1.03,1.89-.12,6.44-.54,7.9.73.7.61.31,2.62.3,3.4-.02,1.2-.07,2.4-.14,3.6-.11,1.93,3.18,1.92,3.29,0Z"/><path class="cls-1" d="M533.4,571.9c-.97,0-1.55.69-1.65,1.5-.2,1.64-.24,3.28-.14,4.94.12,1.92,3.41,1.93,3.29,0-.1-1.65-.06-3.29.14-4.94.1-.81-.83-1.5-1.65-1.5Z"/><path class="cls-1" d="M578.17,577.25c-.29-1.9-3.46-1.09-3.17.8.34,2.24.82,4.45,1.43,6.65.52,1.87,3.7,1.08,3.17-.8-.61-2.19-1.09-4.41-1.43-6.65Z"/><path class="cls-1" d="M519.33,573.07c0-1.2-1.38-1.79-2.48-1.3-1.02.46-2.06.85-3.11,1.2,0-2.13-.15-4.28-.16-6.3,0-1.93-3.3-1.93-3.29,0,0,2.29.25,4.8.18,7.23-.58.14-1.16.27-1.74.4.22-.17.39-.38.48-.63.26-.24.44-.57.45-1,.07-2.67.57-6.89-3.21-7.11-2.48-.14-5.02-.01-7.51,0-2.12,0-4.76-.38-6.79.21-.5.15-1.07.53-1.15,1.05-.26,1.64.2,3.42.4,5.07.16,1.26.21,2.26,1.68,2.7,1.89.57,4.61.09,6.6.08,2.49-.02,4.98-.03,7.47-.05-5.09.95-10.35,1.38-15.39,2.46-1.34.29-1.65,2.16-.39,2.74,3.21,1.5,6.5,2.78,9.87,3.83.07,1.02.09,2.05.08,3.07-.03,1.93,3.26,1.93,3.29,0,.01-.71,0-1.41-.04-2.11,4.23,1.13,8.57,1.9,13,2.34.97.62,2.86-.19,2.64-1.67-.61-4.05-.89-8.13-.89-12.22ZM494.61,571.79c-.25-1.01-.45-2.28-.47-3.29,1.06-.06,2.25.07,3.2.07,1.61,0,3.22,0,4.83,0,.87,0,3.21-.36,3.88.1.47.33.45,1.84.39,2.96-1.89.01-3.78.03-5.67.04-1.78.01-4.24.36-6.15.13ZM504.19,580.57c-.12-.81-1.25-1.23-2.02-1.05-.56.14-.9.48-1.06.9-1.23-.41-2.46-.86-3.67-1.33,4.25-.67,8.54-1.17,12.71-2.08-.05.26-.09.52-.16.77-.49,1.88,2.69,2.68,3.17.8.2-.79.33-1.61.42-2.44.84-.24,1.67-.52,2.5-.81.08,2.85.31,5.69.67,8.53-4.24-.47-8.4-1.29-12.45-2.45-.04-.28-.07-.56-.11-.84Z"/><path class="cls-1" d="M486.32,570.78c2.07.32,2.96-2.57.88-2.89-2.68-.42-5.38-.76-8.08-1.04-.03-.35-.06-.7-.1-1.05-.18-1.91-3.47-1.93-3.29,0,.02.25.05.49.07.74-1.25-.1-2.5-.19-3.76-.27-.63-.46-1.57-.49-2.15-.11-2.09-.09-4.18-.15-6.28-.16-2.12-.01-2.12,2.99,0,3,2,.01,4,.06,6,.15.01.11.03.22.04.33-2.32-.18-4.67-.07-6.96.4-5.84,1.19-10.65,4.75-11.48,10.37-.63,4.24,3.21,9.3,8.26,6.7,1.85-.95.19-3.54-1.66-2.59-2.83,1.45-3.62-2.44-3.29-4.09.37-1.84,1.34-3.6,2.87-4.86,2.81-2.32,7.09-3.1,10.77-3.02.55.01,1.16.06,1.8.13.19,2.05.32,4.11.41,6.17.08,1.92,3.37,1.93,3.29,0-.07-1.85-.19-3.69-.35-5.54,1.05.27,2.13.6,3.18.99.24,2.66.49,5.32.73,7.98.18,1.91,3.47,1.93,3.29,0-.2-2.12-.39-4.24-.59-6.36,3.34,1.94,5.68,4.68,4.88,8.13-.44,1.88,2.73,2.69,3.17.8,1.28-5.5-3.16-9.73-8.05-12.28-.11-.06-.22-.1-.33-.15l-.22-2.36c2.31.25,4.62.53,6.92.89ZM476.19,570.82c-1.04-.35-2.11-.63-3.19-.86-.02-.21-.05-.41-.08-.62,1.05.07,2.1.14,3.15.23.04.42.08.83.12,1.25Z"/><path class="cls-1" d="M471.49,584.04c-1.44-2.89-3.11-5.65-5.02-8.3-1.03-1.43-3.41-.52-3.01,1.16.45,1.92.31,3.87-.51,5.69-.53,1.18-2.12,2.4-2,3.73.1,1.08,1.04,1.58,2.13,1.59,2.36.02,4.71-.51,7.11-.44,1.46.04,1.91-1.36,1.36-2.26.13-.35.14-.75-.07-1.16ZM465.56,584.59s.04-.06.06-.09c.44-.83.8-1.71,1.03-2.6.5.84.97,1.7,1.42,2.56-.61.01-1.23.03-1.84.08-.22.02-.45.04-.67.06Z"/><path class="cls-1" d="M445.76,580.04c.19-.13.38-.27.56-.41,5.11-4.15,1.42-10.04-1.92-13.93-1.3-1.52-3.62.62-2.33,2.12,2.41,2.8,5.76,7.42,1.26,10.1-.13.07-.26.13-.39.2-.1-.06-.19-.13-.29-.19-1.94-1.24-5.52-4.28-8.09-3.59-1.29.34-2.47,1.58-3.5,2.25-1.04.68-2.13,1.3-3.23,1.88-1.79-.59-3.51-1.35-5.05-2.29-1.64-1-3.73-2.86-2.05-4.67,1.52-1.63,4.29-1.3,6.31-.95,2.07.36,2.96-2.53.88-2.89-4.46-.78-11.84.17-11.08,5.88.42,3.15,3.64,5.33,7.1,6.76-2.69,1.08-5.49,1.88-8.39,2.45-1.35.26-1.64,2.17-.39,2.74,4.71,2.14,10.4,1.62,15.51,1.66,6.16.05,12.32.02,18.48-.02.52,0,.9-.18,1.17-.46,1.07-.3,1.82-1.57.77-2.47-1.7-1.46-3.47-2.85-5.31-4.17ZM433.09,578.93c.47-.32.95-.64,1.4-.98.96-.72.68-.52,1.7-.26,1.01.26,2.13,1.03,3.11,1.71-2.31.47-4.77.45-7.01.12-.04,0-.07-.01-.11-.02.3-.19.62-.37.91-.57ZM432.77,584.17c-3.23-.02-7.1.33-10.66,0,2.09-.67,4.12-1.49,6.07-2.44.51.14,1.01.26,1.46.36,4.01.9,8.98,1.04,13.04-.44,1.16.8,2.29,1.64,3.4,2.51-4.44.02-8.87.04-13.31.02Z"/><path class="cls-1" d="M440.85,572.55c.07-2.33.15-4.65.22-6.98.06-1.93-3.23-1.93-3.29,0-.07,2.33-.15,4.65-.22,6.98-.06,1.93,3.23,1.93,3.29,0Z"/><path class="cls-1" d="M436.76,571.8c-.33-1.73-.56-3.46-.68-5.21-.14-1.92-3.43-1.93-3.29,0,.15,2.02.42,4.02.8,6.01.37,1.9,3.54,1.09,3.17-.8Z"/><path class="cls-1" d="M404.49,566.35c-2.52.37-5.02,1.07-7.42,1.96-.38-1.62-.78-3.23-1.21-4.84-.5-1.87-3.68-1.08-3.17.8.47,1.76.91,3.53,1.32,5.31-.48.22-.95.44-1.42.67-2.06,1.02-4.6,2.29-6.57,3.91-2.21.05-4.42.15-6.63.34-1.29.11-2.34,1.63-1.16,2.56,1.22.97,2.23,1.05,3.69.48.18-.07.32-.16.44-.26.37-.02.73-.04,1.1-.05,0,0,0,.01,0,.02-3.31,6.96,10.68,9.02,15.41,9.21,3.53.14,8.73.09,11.48-2.28,2.12-1.83,2.12-4.62-.08-6.37-3-2.39-7.84-2.83-11.84-3.18-.21-1.1-.44-2.2-.68-3.3,1.87-.71,3.79-1.3,5.77-1.74,1.93-.43,4.2-.87,5.95.29,1.86,1.24,2.11,3.5.71,5.16-1.28,1.51,1.03,3.65,2.33,2.12,1.9-2.24,2.58-5.12.94-7.69-1.88-2.95-5.47-3.64-8.93-3.12ZM386.65,578.1c.15-.34.38-.67.66-1,2.77-.03,5.55.05,8.31.27.32,1.75.61,3.5.87,5.25.04.27.14.49.28.68-.45-.05-.89-.12-1.33-.19-2.32-.38-10.28-1.7-8.8-5.02ZM401.29,578.02c1.63.25,3.28.54,4.83,1.08,1.08.38,1.76.56,2.04,1.65.35,1.37-.63,1.74-2.12,2.11-2.04.52-4.26.7-6.45.64.16-.23.25-.52.19-.89-.24-1.64-.5-3.28-.79-4.91.77.09,1.53.19,2.29.31ZM395.04,574.38c-1.18-.09-2.36-.15-3.55-.19,1.01-.52,1.99-.97,2.75-1.35.14-.07.29-.13.44-.2.12.58.24,1.16.36,1.74Z"/><path class="cls-1" d="M374,570.98c4.33.04,8.66.07,12.98.11,2.12.02,2.12-2.98,0-3-4.33-.04-8.65-.07-12.98-.11,0-.26,0-.53,0-.79,0-.28-.06-.52-.18-.72,2.89.2,5.78.43,8.67.69,2.11.19,2.09-2.81,0-3-5.36-.49-10.73-.87-16.11-1.14-2.12-.11-2.11,2.89,0,3,1.56.08,3.11.19,4.66.28-.2.23-.32.52-.33.89,0,.22,0,.43,0,.65-1.46-.3-3.38.05-4.69.08-2.12.04-2.12,2.98,0,3,1.22.01,2.44.02,3.66.03.03.08.06.17.1.27.09.5.19.99.28,1.49.09.48.36.78.7.94.21,5.24.81,10.45,1.81,15.63.37,1.9,3.54,1.09,3.17-.8-1.12-5.79-1.69-11.63-1.77-17.5Z"/><path class="cls-1" d="M380.4,583.64s-.03-.08-.04-.13c0-.04,0-.08,0-.11.05-.78-.79-1.53-1.65-1.5-.93.04-1.59.66-1.65,1.5-.04.61.16,1.26.5,1.78.45.67,1.5.98,2.25.54.74-.43,1.07-1.33.59-2.05,0,0,0-.02-.01-.02Z"/><path class="cls-1" d="M362.61,586.21c-7.33-.11-14.64-.6-21.91-1.43,1.24-.89,2.45-1.83,3.64-2.78,2.63-.15,5.26-.24,7.9-.28-.01.77-.03,1.55-.06,2.32-.08,1.93,3.21,1.93,3.29,0,.03-.78.05-1.56.06-2.33,2.17.01,4.35.05,6.52.15,2.12.09,2.11-2.91,0-3-2.18-.09-4.36-.13-6.53-.15-.04-1.67-.12-3.34-.25-5.01-.05-.59-.39-.99-.84-1.22.79-.9,1.51-1.84,2.07-2.81.87,1.62,1.67,3.27,2.4,4.95.77,1.77,3.96,1,3.17-.8-1.33-3.06-2.84-6.02-4.57-8.91-.79-1.32-3.07-.7-3.07.76,0,2.2-2.14,4.16-3.57,5.78-1.46,1.65-3,3.23-4.61,4.75-1.06,1-2.16,1.95-3.29,2.89-.09,0-.17.01-.26.02.03-.42.03-.83.05-1.22.1-2.69.19-5.38.29-8.07,1.44.55,2.99.77,4.7.6,2.08-.2,2.11-3.21,0-3-1.88.18-3.57-.11-5.09-1.2-1.1-.79-2.76-.33-2.81,1.06-.07,2.09-.15,4.18-.22,6.27-.05,1.29.36,4.37-.18,5.91-1.08.53-1.19,2.01-.25,2.58-1.15.84-2.32,1.67-3.52,2.45-1,.65-1.16,2.54.39,2.74,8.8,1.17,17.65,1.84,26.54,1.98,2.12.03,2.12-2.97,0-3ZM349.86,577.09c.66-.66,1.42-1.37,2.19-2.12.08,1.25.15,2.5.17,3.76-1.41.02-2.82.06-4.23.11.63-.58,1.26-1.15,1.87-1.74Z"/><path class="cls-1" d="M335.77,575.19c.15-2.57,1.3-7.43-1.3-9.28-2.59-1.84-7.47-1.67-10.53-1.43-3.55.28-7.47,1.69-10.08,4.01-2.01,0-4.01,0-6.02-.02-2.12-.02-2.12,2.98,0,3,1.24.01,2.49,0,3.73.01-.71,1.53-.92,3.28-.38,5.23.85,3.07,3.61,5.18,6.48,6.74,1.78.97,3.67,1.76,5.57,2.48,1.61.61,3.49,1.54,5.24,1.7,3.18.3,4.3-3.49,4.36-5.78.03-1.25-.22-2.52-1.1-3.52-1.08-1.24-3.59-1.62-4.19-3.06-.75-1.79-3.93-1.01-3.17.8.74,1.77,1.96,2.23,3.52,3.3,1.6,1.1,1.92,2.11,1.4,3.85-.63,2.13-.28,1.13-1.58,1.07-1.19-.05-3.04-1.03-4.1-1.45-1.18-.47-2.33-.98-3.46-1.55-2.12-1.08-4.44-2.38-5.45-4.49-1-2.09-.59-3.88.56-5.31,4.65,0,9.3-.04,13.95-.14,2.11-.05,2.12-3.05,0-3-3.14.07-6.28.11-9.42.13,1.54-.59,3.19-.94,4.62-1.03,1.89-.12,6.44-.54,7.9.73.7.61.31,2.62.3,3.4-.02,1.2-.07,2.4-.14,3.6-.11,1.93,3.18,1.92,3.29,0Z"/><path class="cls-1" d="M322.71,571.9c-.97,0-1.55.69-1.65,1.5-.2,1.64-.24,3.28-.14,4.94.12,1.92,3.41,1.93,3.29,0-.1-1.65-.06-3.29.14-4.94.1-.81-.83-1.5-1.65-1.5Z"/><path class="cls-1" d="M367.48,577.25c-.29-1.9-3.46-1.09-3.17.8.34,2.24.82,4.45,1.43,6.65.52,1.87,3.7,1.08,3.17-.8-.61-2.19-1.09-4.41-1.43-6.65Z"/><path class="cls-1" d="M308.63,573.07c0-1.2-1.38-1.79-2.48-1.3-1.02.46-2.06.85-3.11,1.2,0-2.13-.15-4.28-.16-6.3,0-1.93-3.3-1.93-3.29,0,0,2.29.25,4.8.18,7.23-.58.14-1.16.27-1.74.4.22-.17.39-.38.48-.63.26-.24.44-.57.45-1,.07-2.67.57-6.89-3.21-7.11-2.48-.14-5.02-.01-7.51,0-2.12,0-4.76-.38-6.79.21-.5.15-1.07.53-1.15,1.05-.26,1.64.2,3.42.4,5.07.16,1.26.21,2.26,1.68,2.7,1.89.57,4.61.09,6.6.08,2.49-.02,4.98-.03,7.47-.05-5.09.95-10.35,1.38-15.39,2.46-1.34.29-1.65,2.16-.39,2.74,3.21,1.5,6.5,2.78,9.87,3.83.07,1.02.09,2.05.08,3.07-.03,1.93,3.26,1.93,3.29,0,.01-.71,0-1.41-.04-2.11,4.23,1.13,8.57,1.9,13,2.34.97.62,2.86-.19,2.64-1.67-.61-4.05-.89-8.13-.89-12.22ZM283.91,571.79c-.25-1.01-.45-2.28-.47-3.29,1.06-.06,2.25.07,3.2.07,1.61,0,3.22,0,4.83,0,.87,0,3.21-.36,3.88.1.47.33.45,1.84.39,2.96-1.89.01-3.78.03-5.67.04-1.78.01-4.24.36-6.15.13ZM293.5,580.57c-.12-.81-1.25-1.23-2.02-1.05-.56.14-.9.48-1.06.9-1.23-.41-2.46-.86-3.67-1.33,4.25-.67,8.54-1.17,12.71-2.08-.05.26-.09.52-.16.77-.49,1.88,2.69,2.68,3.17.8.2-.79.33-1.61.42-2.44.84-.24,1.67-.52,2.5-.81.08,2.85.31,5.69.67,8.53-4.24-.47-8.4-1.29-12.45-2.45-.04-.28-.07-.56-.11-.84Z"/><path class="cls-1" d="M275.63,570.78c2.07.32,2.96-2.57.88-2.89-2.68-.42-5.38-.76-8.08-1.04-.03-.35-.06-.7-.1-1.05-.18-1.91-3.47-1.93-3.29,0,.02.25.05.49.07.74-1.25-.1-2.5-.19-3.76-.27-.63-.46-1.57-.49-2.15-.11-2.09-.09-4.18-.15-6.28-.16-2.12-.01-2.12,2.99,0,3,2,.01,4,.06,6,.15.01.11.03.22.04.33-2.32-.18-4.67-.07-6.96.4-5.84,1.19-10.65,4.75-11.48,10.37-.63,4.24,3.21,9.3,8.26,6.7,1.85-.95.19-3.54-1.66-2.59-2.83,1.45-3.62-2.44-3.29-4.09.37-1.84,1.34-3.6,2.87-4.86,2.81-2.32,7.09-3.1,10.77-3.02.55.01,1.16.06,1.8.13.19,2.05.32,4.11.41,6.17.08,1.92,3.37,1.93,3.29,0-.07-1.85-.19-3.69-.35-5.54,1.05.27,2.13.6,3.18.99.24,2.66.49,5.32.73,7.98.18,1.91,3.47,1.93,3.29,0-.2-2.12-.39-4.24-.59-6.36,3.34,1.94,5.68,4.68,4.88,8.13-.44,1.88,2.73,2.69,3.17.8,1.28-5.5-3.16-9.73-8.05-12.28-.11-.06-.22-.1-.33-.15-.07-.79-.14-1.57-.22-2.36,2.31.25,4.62.53,6.92.89ZM265.5,570.82c-1.04-.35-2.11-.63-3.19-.86-.02-.21-.05-.41-.08-.62,1.05.07,2.1.14,3.15.23.04.42.08.83.12,1.25Z"/><path class="cls-1" d="M260.8,584.04c-1.44-2.89-3.11-5.65-5.02-8.3-1.03-1.43-3.41-.52-3.01,1.16.45,1.92.31,3.87-.51,5.69-.53,1.18-2.12,2.4-2,3.73.1,1.08,1.04,1.58,2.13,1.59,2.36.02,4.71-.51,7.11-.44,1.46.04,1.91-1.36,1.36-2.26.13-.35.14-.75-.07-1.16ZM254.87,584.59s.04-.06.06-.09c.44-.83.8-1.71,1.03-2.6.5.84.97,1.7,1.42,2.56-.61.01-1.23.03-1.84.08-.22.02-.45.04-.67.06Z"/><path class="cls-1" d="M235.07,580.04c.19-.13.38-.27.56-.41,5.11-4.15,1.42-10.04-1.92-13.93-1.3-1.52-3.62.62-2.33,2.12,2.41,2.8,5.76,7.42,1.26,10.1-.13.07-.26.13-.39.2-.1-.06-.19-.13-.29-.19-1.94-1.24-5.52-4.28-8.09-3.59-1.29.34-2.47,1.58-3.5,2.25-1.04.68-2.13,1.3-3.23,1.88-1.79-.59-3.51-1.35-5.05-2.29-1.64-1-3.73-2.86-2.05-4.67,1.52-1.63,4.29-1.3,6.31-.95,2.07.36,2.96-2.53.88-2.89-4.46-.78-11.84.17-11.08,5.88.42,3.15,3.64,5.33,7.1,6.76-2.69,1.08-5.49,1.88-8.39,2.45-1.35.26-1.64,2.17-.39,2.74,4.71,2.14,10.4,1.62,15.51,1.66,6.16.05,12.32.02,18.48-.02.52,0,.9-.18,1.17-.46,1.07-.3,1.82-1.57.77-2.47-1.7-1.46-3.47-2.85-5.31-4.17ZM222.39,578.93c.47-.32.95-.64,1.4-.98.96-.72.68-.52,1.7-.26,1.01.26,2.13,1.03,3.11,1.71-2.31.47-4.77.45-7.01.12-.04,0-.07-.01-.11-.02.3-.19.62-.37.91-.57ZM222.08,584.17c-3.23-.02-7.1.33-10.66,0,2.09-.67,4.12-1.49,6.07-2.44.51.14,1.01.26,1.46.36,4.01.9,8.98,1.04,13.04-.44,1.16.8,2.29,1.64,3.4,2.51-4.44.02-8.87.04-13.31.02Z"/><path class="cls-1" d="M230.16,572.55c.07-2.33.15-4.65.22-6.98.06-1.93-3.23-1.93-3.29,0-.07,2.33-.15,4.65-.22,6.98-.06,1.93,3.23,1.93,3.29,0Z"/><path class="cls-1" d="M226.07,571.8c-.33-1.73-.56-3.46-.68-5.21-.14-1.92-3.43-1.93-3.29,0,.15,2.02.42,4.02.8,6.01.37,1.9,3.54,1.09,3.17-.8Z"/><path class="cls-1" d="M450.36,180.65c1.91,1.28,4.28,2.84,6.67,3.73,1.15,1.89,2.34,3.75,3.61,5.57.74,1.06,2.58,1.21,2.8-.27.23-1.54-.21-2.45-1.43-3.44-.15-.12-.3-.2-.44-.25-.2-.31-.4-.62-.6-.92,0,0,.01,0,.02,0,7.68-.61,2.48-13.76.27-17.95-1.64-3.13-4.29-7.61-7.71-8.8-2.64-.92-5.06.48-5.47,3.25-.57,3.8,1.47,8.2,3.17,11.85-.85.74-1.69,1.48-2.52,2.24-1.55-1.26-3.03-2.63-4.39-4.12-1.34-1.46-2.86-3.2-2.72-5.3.14-2.23,1.98-3.58,4.11-3.19,1.95.35,2.64-2.72.67-3.08-2.89-.53-5.73.33-7.13,3.03-1.62,3.11-.41,6.56,1.76,9.3,1.58,1.99,3.43,3.81,5.41,5.45-1.21,1.14-2.41,2.29-3.59,3.47-1.37,1.37.9,3.72,2.28,2.35,1.29-1.29,2.61-2.55,3.94-3.8.43.31.86.6,1.29.89ZM460.13,181.86c-.37.04-.78,0-1.19-.08-1.42-2.38-2.73-4.83-3.92-7.33,1.35-1.15,2.72-2.28,4.12-3.38.21-.17.35-.37.45-.59.18.41.35.83.5,1.24.83,2.2,3.67,9.75.05,10.13ZM452.75,169.22c-.6-1.53-1.17-3.11-1.48-4.73-.21-1.12-.4-1.8.41-2.6,1.01-.99,1.82-.32,2.89.78,1.47,1.5,2.73,3.34,3.78,5.27-.28-.03-.57.05-.86.28-1.3,1.03-2.59,2.07-3.86,3.14-.3-.71-.6-1.42-.88-2.14ZM452.71,176.45c.52,1.07,1.05,2.13,1.61,3.17-.95-.61-1.84-1.24-2.54-1.71-.13-.09-.26-.19-.39-.28.44-.4.88-.79,1.33-1.18Z"/><path class="cls-1" d="M464.22,203.32c-.6-1.06-1.2-2.12-1.81-3.19.06-.06.11-.14.18-.22l1.15-.99c.37-.32.5-.7.47-1.08,4.43-2.8,8.65-5.93,12.63-9.39,1.46-1.27-.82-3.61-2.28-2.35-4.46,3.87-9.23,7.28-14.27,10.28-2.13-3.77-4.27-7.53-6.4-11.3-1.04-1.84-3.64-.35-2.6,1.5,2.13,3.76,4.27,7.53,6.4,11.29-.23.13-.46.26-.69.39-.25.14-.42.32-.53.52-1.27-2.6-2.52-5.22-3.73-7.85-.89-1.92-3.48-.41-2.6,1.5,2.25,4.89,4.61,9.73,7.07,14.52.97,1.89,3.56.38,2.6-1.5-.71-1.39-1.39-2.78-2.09-4.18.29.06.61.02.93-.16.19-.1.37-.21.56-.32.47,1.41,1.74,2.9,2.41,4.02,1.09,1.81,3.64.35,2.6-1.5Z"/><path class="cls-1" d="M469.51,187.51c.55-.27,1.01-.76,1.29-1.33.36-.72.1-1.79-.66-2.22-.75-.42-1.69-.26-2.07.51,0,0,0,.02-.01.02-.03.03-.06.06-.09.09-.03.02-.06.04-.1.06-.7.35-.93,1.45-.48,2.18.5.79,1.37,1.05,2.12.68Z"/><path class="cls-1" d="M484.91,222.06c1,.67,2.34.03,2.36-1.07,1.3.57,2.6,1.17,3.88,1.82,1.06.54,2.77-.27,2.18-1.71-3.39-8.2-7.23-16.2-11.55-23.97-1.03-1.85-3.63-.35-2.6,1.5,3.57,6.41,6.8,12.98,9.71,19.69-1.4-.63-2.81-1.21-4.23-1.76-1.45-2.2-2.84-4.44-4.19-6.7.68-.38,1.35-.75,2.04-1.11,1.71-.9.06-3.75-1.65-2.85-.69.36-1.37.73-2.05,1.11-1.08-1.89-2.13-3.79-3.14-5.72-.98-1.88-3.58-.38-2.6,1.5,1.01,1.93,2.06,3.84,3.14,5.73-1.43.87-2.83,1.77-4.21,2.72-.48.33-.66.83-.64,1.34-1.17-.23-2.35-.38-3.47-.39.97-1.56,1.99-3.08,3.08-4.56,1.15-1.55-1.11-3.93-2.28-2.35-1.98,2.68-3.8,5.47-5.43,8.41-.75,1.35.92,3.01,2.19,2.28,1.9-1.1,4.67-.23,6.79.2,2.16.44,4.3.98,6.42,1.62,1.39.42,2.77.9,4.15,1.4.05.07.1.14.14.21-.37.19-.74.39-1.08.57-2.38,1.26-4.76,2.52-7.13,3.79-.25-1.52-.83-2.97-1.83-4.37-1.22-1.7-3.83-.22-2.6,1.5,1.1,1.54,1.69,3.14,1.5,5.01-.13,1.34,1.09,2.56,2.32,1.9,1.85-.98,3.69-1.96,5.54-2.94,1.14-.6,3.6-2.5,5.21-2.8ZM477.65,214.23c-.9-.25-1.89-.54-2.93-.83,1.04-.7,2.1-1.38,3.17-2.03.72,1.21,1.46,2.41,2.21,3.6-.81-.25-1.62-.52-2.44-.75Z"/><path class="cls-1" d="M488.86,241.01c1.52-.65,2.97-1.43,4.34-2.35,1.6-1.06-.03-3.92-1.65-2.85-1.38.91-2.82,1.69-4.34,2.35-.75.32-.89,1.46-.48,2.18.48.84,1.37,1,2.12.68Z"/><path class="cls-1" d="M493.8,253.43c-.61-1.08-1.24-2.16-1.86-3.24,1.68-.15,3.3-.85,4.72-2.28,2.24-2.27,2.68-5.71,2.6-8.98-.05-2.02-.31-4.06-.64-6.07-.28-1.7-.42-3.79-1.15-5.39-1.33-2.9-5.17-1.97-7.18-.88-1.1.6-2.07,1.45-2.5,2.71-.53,1.56.39,3.91-.56,5.16-1.17,1.54,1.09,3.91,2.28,2.35,1.16-1.52.96-2.81,1.1-4.7.15-1.94.86-2.72,2.63-3.14,2.16-.52,1.12-.33,1.72.83.55,1.06.63,3.15.79,4.28.18,1.25.32,2.51.39,3.77.13,2.38.16,5.03-1.17,6.96-1.31,1.91-3.06,2.45-4.88,2.17-2.33-4.03-4.68-8.03-7.09-12.01-1.1-1.81-3.7-.31-2.6,1.5,1.63,2.68,3.23,5.38,4.82,8.09-1.28-1.04-2.41-2.29-3.21-3.48-1.05-1.58-3.69-5.3-3.32-7.21.18-.92,2.11-1.58,2.8-1.96,1.05-.58,2.11-1.14,3.19-1.68,1.73-.87.08-3.72-1.65-2.85-2.3,1.16-7.08,2.59-7.39,5.77-.3,3.17,2.29,7.3,4.03,9.84,2.02,2.94,5.2,5.63,8.52,6.73,1,1.74,2.01,3.47,3,5.22,1.04,1.85,3.64.35,2.6-1.5Z"/><path class="cls-1" d="M474.02,194.33c-1.59,1.62-3.27,3.14-5.04,4.56-1.5,1.2.78,3.55,2.28,2.35,1.77-1.42,3.45-2.93,5.04-4.56,1.36-1.39-.91-3.74-2.28-2.35Z"/><path class="cls-1" d="M509.21,273.9c-.46-1.92-2.22-4.04-3.23-5.75-1.26-2.15-2.52-4.3-3.78-6.45,3.37,3.94,6.37,8.27,9.82,12.1.92,1.02,2.69.35,2.57-1.03-.3-3.52-.84-7.01-1.61-10.45.85-.57,1.72-1.11,2.62-1.61,1.69-.94.04-3.79-1.65-2.85-.62.34-1.22.71-1.81,1.09-1.14-4.23-2.64-8.37-4.47-12.43.05-1.15-1.59-2.38-2.76-1.45-3.21,2.56-6.59,4.83-10.14,6.88-1.04.6-.86,2.09.12,2.79.9.65,1.77,1.35,2.6,2.09-1.84,1.07-3.63,2.27-5.37,3.28-1.67.97-.03,3.82,1.65,2.85,1.98-1.15,4.03-2.62,6.17-3.77.41.43.82.87,1.21,1.31-.26-.11-.52-.14-.78-.1-.34-.11-.71-.1-1.09.11-2.35,1.28-6.26,2.95-4.56,6.33,1.12,2.22,2.5,4.36,3.75,6.51,1.06,1.83,2.05,4.31,3.58,5.77.38.36,1,.66,1.48.47,1.55-.6,2.86-1.88,4.19-2.88,1.01-.77,1.85-1.31,1.5-2.8ZM502.64,254.52c-.79.22-1.56.52-2.32.85-.63-.6-1.28-1.19-1.95-1.75,2.43-1.5,4.78-3.11,7.05-4.84,1.71,3.91,3.08,7.92,4.11,12.01-.22.17-.45.34-.67.52-.64.51-.44,1.7.11,2.28.4.42.87.54,1.31.47.26,1.27.49,2.56.68,3.84-2.71-3.35-5.28-6.81-8.16-9.97.25-.09.5-.18.75-.25,1.87-.52.98-3.67-.9-3.15ZM501.87,273.23c-.81-1.39-1.62-2.78-2.42-4.18-.43-.75-1.92-2.6-1.85-3.41.05-.57,1.37-1.31,2.37-1.82.96,1.63,1.91,3.26,2.87,4.89.9,1.54,2.43,3.49,3.19,5.26-.75.72-1.75,1.53-2.62,2.05-.59-.89-1.06-1.99-1.54-2.8Z"/><path class="cls-1" d="M535.05,307.34c3.99-1.57,6.45-7.43,1.67-10.51-1.74-1.12-3.16,1.61-1.41,2.73,2.67,1.72-.3,4.36-1.9,4.9-1.78.6-3.79.64-5.65-.05-3.42-1.28-6.23-4.59-8-7.82-.27-.48-.53-1.03-.78-1.62,1.68-1.19,3.39-2.34,5.14-3.44,1.63-1.03,0-3.89-1.65-2.85-1.56.99-3.1,2.01-4.62,3.07-.3-1.04-.55-2.14-.73-3.26,2.18-1.54,4.36-3.08,6.54-4.62,1.57-1.11-.07-3.97-1.65-2.85-1.74,1.23-3.48,2.46-5.22,3.69.01-3.86,1.21-7.26,4.6-8.29,1.85-.56.96-3.71-.9-3.15-5.41,1.64-6.85,7.6-6.61,13.11,0,.12.02.24.03.36-.64.46-1.29.91-1.93,1.37-.94-2.13-1.85-4.27-2.69-6.44-.76-1.96-3.71-1.28-2.94.69.98,2.53,2.05,5.03,3.15,7.5-.29.21-.59.41-.88.62-1.57,1.11.07,3.97,1.65,2.85.2-.14.41-.29.61-.43.53,1.13,1.09,2.24,1.65,3.35-.1.79.34,1.64.97,1.96.96,1.86,1.96,3.7,2.99,5.52,1.05,1.84,3.65.34,2.6-1.5-.99-1.73-1.94-3.48-2.86-5.25.09-.07.18-.13.27-.2,1,2.09,2.27,4.06,3.81,5.8,3.95,4.46,9.44,6.84,14.72,4.76ZM514.76,294.01c-.47-.95-.94-1.9-1.39-2.86l1.03-.73c.22,1.09.51,2.16.86,3.22-.17.12-.33.24-.5.37Z"/><path class="cls-1" d="M526.02,298.4c1.44-1.35,3.2-2.2,5.19-2.4,1.29-.13,3.14.64,4.23-.13.89-.62.85-1.69.31-2.64-1.16-2.05-2.8-3.82-3.94-5.94-.69-1.28-2.13-.97-2.64-.05-.37.06-.72.25-.97.64-1.78,2.69-3.34,5.52-4.68,8.5-.73,1.61,1.25,3.21,2.51,2.03ZM531.64,292.74s-.07,0-.11,0c-.94.03-1.88.16-2.77.41.48-.85.98-1.69,1.5-2.51.32.53.64,1.05.99,1.56.13.18.26.36.39.54Z"/><path class="cls-1" d="M546.44,340.47c2.52-1.94,2.79-5.82,2.31-9.53,2.28,1.79,4.38,3.82,6.31,6.04.9,1.04,2.7.34,2.57-1.03-.5-5.15-3.8-9.82-6.32-14.27-3.04-5.36-6.14-10.68-9.25-15.99-.26-.45-.61-.69-.98-.78-.79-.78-2.27-.79-2.53.57-.42,2.2-.73,4.43-.96,6.68-.21-.1-.42-.2-.64-.28-6.15-2.35-9.41,3.79-11.11,8.63-.66,1.89,2.34,2.83,3,.96,1.22-3.48,3.55-8.7,8.11-6.14.13.07.24.16.37.24,0,.11-.02.23-.02.34-.1,2.29-.94,6.92.94,8.8.94.95,2.6,1.35,3.7,1.91,1.11.56,2.19,1.19,3.25,1.86.39,1.84.58,3.72.54,5.52-.05,1.92-.61,4.66-3.02,4.11-2.17-.5-3.27-3.07-3.97-4.99-.72-1.97-3.67-1.3-2.94.69,1.56,4.25,6.07,10.17,10.64,6.66ZM541,309.83c2.24,3.83,4.47,7.67,6.67,11.52,1.6,2.81,3.83,5.98,5.33,9.23-1.63-1.47-3.35-2.82-5.15-4.04-.14-.51-.28-1-.42-1.45-1.22-3.92-3.59-8.3-6.91-11.07.11-1.41.28-2.81.47-4.2ZM542.98,323.69c-.51-.25-1.03-.51-1.55-.73-1.1-.47-.79-.33-1.07-1.34-.28-1-.17-2.36-.08-3.54,1.56,1.76,2.78,3.91,3.61,6.01.01.03.02.07.04.1-.32-.17-.63-.35-.95-.51Z"/><path class="cls-1" d="M533.57,320.16c-2.05,1.1-4.1,2.2-6.15,3.3-1.7.91-.06,3.76,1.65,2.85,2.05-1.1,4.1-2.2,6.15-3.3,1.7-.91.06-3.76-1.65-2.85Z"/><path class="cls-1" d="M534.97,324.07c-1.33,1.15-2.72,2.21-4.17,3.2-1.59,1.08.04,3.94,1.65,2.85,1.67-1.13,3.27-2.37,4.81-3.7,1.46-1.27-.82-3.61-2.28-2.35Z"/><path class="cls-1" d="M555.7,363.11c1.91,1.28,4.28,2.84,6.67,3.73,1.15,1.89,2.34,3.75,3.61,5.57.74,1.06,2.58,1.21,2.8-.27.23-1.54-.21-2.45-1.43-3.44-.15-.12-.3-.2-.44-.25-.2-.31-.4-.62-.6-.92,0,0,.01,0,.02,0,7.68-.61,2.48-13.76.27-17.95-1.64-3.13-4.29-7.61-7.71-8.8-2.64-.92-5.06.48-5.47,3.25-.57,3.8,1.47,8.2,3.17,11.85-.85.74-1.69,1.48-2.52,2.24-1.55-1.26-3.03-2.63-4.39-4.12-1.34-1.46-2.86-3.2-2.72-5.3.14-2.23,1.98-3.58,4.11-3.19,1.95.35,2.64-2.72.67-3.08-2.89-.53-5.73.33-7.13,3.03-1.62,3.11-.41,6.56,1.76,9.3,1.58,1.99,3.43,3.81,5.41,5.45-1.21,1.14-2.41,2.29-3.59,3.47-1.37,1.37.9,3.72,2.28,2.35,1.29-1.29,2.61-2.55,3.94-3.8.43.31.86.6,1.29.89ZM565.47,364.33c-.37.04-.78,0-1.19-.08-1.42-2.38-2.73-4.83-3.92-7.33,1.35-1.15,2.72-2.28,4.12-3.38.21-.17.35-.37.45-.59.18.41.35.83.5,1.24.83,2.2,3.67,9.75.05,10.13ZM558.09,351.69c-.6-1.53-1.17-3.11-1.48-4.73-.21-1.12-.4-1.8.41-2.6,1.01-.99,1.82-.32,2.89.78,1.47,1.5,2.73,3.34,3.78,5.27-.28-.03-.57.05-.86.28-1.3,1.03-2.59,2.07-3.86,3.14-.3-.71-.6-1.42-.88-2.14ZM558.05,358.92c.52,1.07,1.05,2.13,1.61,3.17-.95-.61-1.84-1.24-2.54-1.71-.13-.09-.26-.19-.39-.28.44-.4.88-.79,1.33-1.18Z"/><path class="cls-1" d="M569.56,385.78c-.6-1.06-1.2-2.12-1.81-3.19.06-.06.11-.14.18-.22l1.15-.99c.37-.32.5-.7.47-1.08,4.43-2.8,8.65-5.93,12.63-9.39,1.46-1.27-.82-3.61-2.28-2.35-4.46,3.87-9.23,7.28-14.27,10.28-2.13-3.77-4.27-7.53-6.4-11.3-1.04-1.84-3.64-.35-2.6,1.5,2.13,3.76,4.27,7.53,6.4,11.29-.23.13-.46.26-.69.39-.25.14-.42.32-.53.52-1.27-2.6-2.52-5.22-3.73-7.85-.89-1.92-3.48-.41-2.6,1.5,2.25,4.89,4.61,9.73,7.07,14.52.97,1.89,3.56.38,2.6-1.5-.71-1.39-1.39-2.78-2.09-4.18.29.06.61.02.93-.16.19-.1.37-.21.56-.32.47,1.41,1.74,2.9,2.41,4.02,1.09,1.81,3.64.35,2.6-1.5Z"/><path class="cls-1" d="M574.86,369.97c.55-.27,1.01-.76,1.29-1.33.36-.72.1-1.79-.66-2.22-.75-.42-1.69-.26-2.07.51,0,0,0,.02-.01.02-.03.03-.06.06-.09.1-.03.02-.06.04-.1.06-.7.35-.93,1.45-.48,2.18.5.79,1.37,1.05,2.12.68Z"/><path class="cls-1" d="M590.25,404.52c1,.67,2.34.03,2.36-1.07,1.3.57,2.6,1.17,3.88,1.82,1.06.54,2.77-.27,2.18-1.71-3.39-8.2-7.23-16.2-11.55-23.97-1.03-1.85-3.63-.35-2.6,1.5,3.57,6.41,6.8,12.98,9.71,19.69-1.4-.63-2.81-1.21-4.23-1.76-1.45-2.2-2.84-4.44-4.19-6.7.68-.38,1.35-.75,2.04-1.11,1.71-.9.06-3.75-1.65-2.85-.69.36-1.37.73-2.05,1.11-1.08-1.89-2.13-3.79-3.14-5.72-.98-1.88-3.58-.38-2.6,1.5,1.01,1.93,2.06,3.84,3.14,5.73-1.43.87-2.83,1.77-4.21,2.72-.48.33-.66.83-.64,1.34-1.17-.23-2.35-.38-3.47-.39.97-1.56,1.99-3.08,3.08-4.56,1.15-1.55-1.11-3.93-2.28-2.35-1.98,2.68-3.8,5.47-5.43,8.41-.75,1.35.92,3.01,2.19,2.28,1.9-1.1,4.67-.23,6.79.2,2.16.44,4.3.98,6.42,1.62,1.39.42,2.77.9,4.15,1.4.05.07.1.14.14.21-.37.19-.74.39-1.08.57-2.38,1.26-4.76,2.52-7.13,3.79-.25-1.52-.83-2.97-1.83-4.37-1.22-1.7-3.83-.22-2.6,1.5,1.1,1.54,1.69,3.14,1.5,5.01-.13,1.34,1.09,2.56,2.32,1.9,1.85-.98,3.69-1.96,5.54-2.94,1.14-.6,3.6-2.5,5.21-2.8ZM582.99,396.69c-.9-.25-1.89-.54-2.93-.83,1.04-.7,2.1-1.38,3.17-2.03.72,1.21,1.46,2.41,2.21,3.6-.81-.25-1.62-.52-2.44-.75Z"/><path class="cls-1" d="M594.2,423.47c1.52-.65,2.97-1.43,4.34-2.35,1.6-1.06-.03-3.92-1.65-2.85-1.38.91-2.82,1.69-4.34,2.35-.75.32-.89,1.46-.48,2.18.48.84,1.37,1,2.12.68Z"/><path class="cls-1" d="M599.15,435.89c-.61-1.08-1.24-2.16-1.86-3.24,1.68-.15,3.3-.85,4.72-2.28,2.24-2.27,2.68-5.71,2.6-8.98-.05-2.02-.31-4.06-.64-6.07-.28-1.7-.42-3.79-1.15-5.39-1.33-2.9-5.17-1.97-7.18-.88-1.1.6-2.07,1.45-2.5,2.71-.53,1.56.39,3.91-.56,5.16-1.17,1.54,1.09,3.91,2.28,2.35,1.16-1.52.96-2.81,1.1-4.7.15-1.94.86-2.72,2.63-3.14,2.16-.52,1.12-.33,1.72.83.55,1.06.63,3.15.79,4.28.18,1.25.32,2.51.39,3.77.13,2.38.16,5.03-1.17,6.96-1.31,1.91-3.06,2.45-4.88,2.17-2.33-4.03-4.68-8.03-7.09-12.01-1.1-1.81-3.7-.31-2.6,1.5,1.63,2.68,3.23,5.38,4.82,8.09-1.28-1.04-2.41-2.29-3.21-3.48-1.05-1.58-3.69-5.3-3.32-7.21.18-.92,2.11-1.58,2.8-1.96,1.05-.58,2.11-1.14,3.19-1.68,1.73-.87.08-3.72-1.65-2.85-2.3,1.16-7.08,2.59-7.39,5.77-.3,3.17,2.29,7.3,4.03,9.84,2.02,2.94,5.2,5.63,8.52,6.73,1,1.74,2.01,3.47,3,5.22,1.04,1.85,3.64.35,2.6-1.5Z"/><path class="cls-1" d="M579.37,376.79c-1.59,1.62-3.27,3.14-5.04,4.56-1.5,1.2.78,3.55,2.28,2.35,1.77-1.42,3.45-2.93,5.04-4.56,1.36-1.39-.91-3.74-2.28-2.35Z"/><path class="cls-1" d="M614.56,456.36c-.46-1.92-2.22-4.04-3.23-5.75-1.26-2.15-2.52-4.3-3.78-6.45,3.37,3.94,6.37,8.27,9.82,12.1.92,1.02,2.69.35,2.57-1.03-.3-3.52-.84-7.01-1.61-10.45.85-.57,1.72-1.11,2.62-1.61,1.69-.94.04-3.79-1.65-2.85-.62.34-1.22.71-1.81,1.09-1.14-4.23-2.64-8.37-4.47-12.43.05-1.15-1.59-2.38-2.76-1.45-3.21,2.56-6.59,4.83-10.14,6.88-1.04.6-.86,2.09.12,2.79.9.65,1.77,1.35,2.6,2.09-1.84,1.07-3.63,2.27-5.37,3.28-1.67.97-.03,3.82,1.65,2.85,1.98-1.15,4.03-2.62,6.17-3.77.41.43.82.87,1.21,1.31-.26-.11-.52-.14-.78-.1-.34-.11-.71-.1-1.09.11-2.35,1.28-6.26,2.95-4.56,6.33,1.12,2.22,2.5,4.36,3.75,6.51,1.06,1.83,2.05,4.31,3.58,5.77.38.36,1,.66,1.48.47,1.55-.6,2.86-1.88,4.19-2.88,1.01-.77,1.85-1.31,1.5-2.8ZM607.98,436.98c-.79.22-1.56.52-2.32.85-.63-.6-1.28-1.19-1.95-1.75,2.43-1.5,4.78-3.11,7.05-4.84,1.71,3.91,3.08,7.92,4.11,12.01-.22.17-.45.34-.67.52-.64.51-.44,1.7.11,2.28.4.42.87.54,1.31.47.26,1.27.49,2.56.68,3.84-2.71-3.35-5.28-6.81-8.16-9.97.25-.09.5-.18.75-.25,1.87-.52.98-3.67-.9-3.15ZM607.22,455.7c-.81-1.39-1.62-2.78-2.42-4.18-.43-.75-1.92-2.6-1.85-3.41.05-.57,1.37-1.31,2.37-1.82.96,1.63,1.91,3.26,2.87,4.89.9,1.54,2.43,3.49,3.19,5.26-.75.72-1.75,1.53-2.62,2.05-.59-.89-1.06-1.99-1.54-2.8Z"/><path class="cls-1" d="M640.39,489.81c3.99-1.57,6.45-7.43,1.67-10.51-1.74-1.12-3.16,1.61-1.41,2.73,2.67,1.72-.3,4.36-1.9,4.9-1.78.6-3.79.64-5.65-.05-3.42-1.28-6.23-4.59-8-7.82-.27-.48-.53-1.03-.78-1.62,1.68-1.19,3.39-2.34,5.14-3.44,1.63-1.03,0-3.89-1.65-2.85-1.56.99-3.1,2.01-4.62,3.07-.3-1.04-.55-2.14-.73-3.26,2.18-1.54,4.36-3.08,6.54-4.62,1.57-1.11-.07-3.97-1.65-2.85-1.74,1.23-3.48,2.46-5.22,3.69.01-3.86,1.21-7.26,4.6-8.29,1.85-.56.96-3.71-.9-3.15-5.41,1.64-6.85,7.6-6.61,13.11,0,.12.02.24.03.36-.64.46-1.29.91-1.93,1.37-.94-2.13-1.85-4.27-2.69-6.44-.76-1.96-3.71-1.28-2.94.69.98,2.53,2.05,5.03,3.15,7.5-.29.21-.59.42-.88.62-1.57,1.11.07,3.97,1.65,2.85.2-.14.41-.29.61-.43.53,1.13,1.09,2.24,1.65,3.35-.1.79.34,1.64.97,1.96.96,1.86,1.96,3.7,2.99,5.52,1.05,1.84,3.65.34,2.6-1.5-.99-1.73-1.94-3.48-2.86-5.25.09-.07.18-.13.27-.2,1,2.09,2.27,4.06,3.81,5.8,3.95,4.46,9.44,6.85,14.72,4.76ZM620.11,476.47c-.47-.95-.94-1.9-1.39-2.86.34-.24.68-.48,1.03-.73.22,1.09.51,2.16.86,3.22-.17.12-.33.24-.5.37Z"/><path class="cls-1" d="M631.37,480.86c1.44-1.35,3.2-2.2,5.19-2.4,1.29-.13,3.14.64,4.23-.13.89-.62.85-1.69.31-2.64-1.16-2.05-2.8-3.82-3.94-5.94-.69-1.28-2.13-.97-2.64-.05-.37.06-.72.25-.97.64-1.78,2.69-3.34,5.52-4.68,8.5-.73,1.61,1.25,3.21,2.51,2.03ZM636.98,475.2s-.07,0-.11,0c-.94.03-1.88.16-2.77.41.48-.85.98-1.69,1.5-2.51.32.53.64,1.05.99,1.56.12.18.26.36.39.54Z"/><path class="cls-1" d="M656.66,504.15c-3.04-5.36-6.14-10.68-9.25-15.99-.26-.45-.61-.69-.98-.78-.79-.78-2.27-.79-2.53.57-.42,2.2-.73,4.43-.96,6.68-.21-.1-.42-.2-.64-.28-6.15-2.35-9.41,3.79-11.11,8.63-.66,1.89,2.34,2.83,3,.96,1.22-3.48,3.55-8.7,8.11-6.14.13.07.24.16.37.24,0,.11-.02.23-.02.34-.1,2.3-.94,6.92.94,8.8.94.95,2.6,1.35,3.7,1.91,1.11.56,2.19,1.19,3.25,1.86.39,1.84.58,3.72.54,5.52-.05,1.92-.61,4.66-3.02,4.11-2.17-.5-3.27-3.07-3.97-4.99-.72-1.97-3.67-1.3-2.94.69,1.56,4.25,6.07,10.17,10.64,6.66,2.52-1.94,2.79-5.82,2.31-9.53,2.28,1.79,4.38,3.82,6.31,6.04.9,1.04,2.7.34,2.57-1.03-.5-5.15-3.8-9.82-6.32-14.27ZM648.33,506.16c-.51-.25-1.03-.51-1.55-.73-1.1-.47-.79-.33-1.07-1.34-.28-1-.17-2.36-.08-3.54,1.56,1.76,2.78,3.91,3.61,6.01.01.03.02.07.04.1-.32-.17-.63-.35-.95-.51ZM652.78,507.56c-1.22-3.92-3.59-8.3-6.91-11.07.11-1.41.28-2.81.47-4.2,2.24,3.83,4.47,7.67,6.67,11.52,1.6,2.81,3.83,5.98,5.33,9.23-1.63-1.47-3.35-2.82-5.15-4.04-.14-.51-.28-1-.42-1.45Z"/><path class="cls-1" d="M638.91,502.62c-2.05,1.1-4.1,2.2-6.15,3.3-1.7.91-.06,3.76,1.65,2.85,2.05-1.1,4.1-2.2,6.15-3.3,1.7-.91.06-3.76-1.65-2.85Z"/><path class="cls-1" d="M640.31,506.54c-1.33,1.15-2.72,2.21-4.17,3.2-1.59,1.08.04,3.94,1.65,2.85,1.67-1.13,3.27-2.37,4.81-3.7,1.46-1.27-.82-3.61-2.28-2.35Z"/><path class="cls-1" d="M656.47,559.38H172.23l242.12-419.37,242.12,419.37ZM182.62,553.38h463.46l-231.73-401.37-231.73,401.37Z"/><path class="cls-1" d="M414.35,557.88l-117.59-203.68h235.19l-117.59,203.68ZM303.69,358.2l110.67,191.68,110.67-191.68h-221.33Z"/><path class="cls-1" d="M403.78,361.59c-1.46-.09-2.93-.12-4.39-.08-.35,0-.68.34-.67.75.02.4.29.76.67.75,1.46-.03,2.93,0,4.39.08.35.02.68-.36.67-.75-.02-.42-.29-.73-.67-.75Z"/><path class="cls-1" d="M398.85,363.87c-.34.18-.74.18-1.09.07-.46-.14-.82-.73-1.31-.66-.58.08-.89.84-1.03,1.4-.05.21-.08.42-.1.64-1.01-.66-1.81-1.67-2.31-2.87-.28-.67-1.28-.34-1.24.38.03.56.19,1.04.39,1.55.15.37.36.77.36,1.19,0,.42-.24.81-.39,1.18-.2.51-.3,1.03-.15,1.58.25.92,1.54.53,1.29-.4-.09-.34.12-.69.25-.98.13-.32.25-.65.3-1,.58.52,1.23.94,1.93,1.24.42.18.84-.27.84-.72,0-.42-.02-1,.13-1.45.86.55,1.84.65,2.81.15.33-.17.41-.7.24-1.03-.2-.38-.58-.44-.91-.27Z"/><path class="cls-1" d="M389.9,362.39c-.27-.2-.61-.37-.93-.57,1.84.05,3.64-.35,5.35-1.22.78-.4.1-1.69-.67-1.3-1.86.94-3.96,1.26-5.98.9-.53-.09-.91.33-.82.92.21,1.34,1.33,1.83,2.24,2.46.1.07.2.13.28.21.04.03.07.08.1.11-.1.02-.2.05-.23.05-.17.04-.35.07-.53.09-.68.08-1.37.06-2.05.04-.67-.01-1.35-.03-2.02-.04-.63-.01-1.4.11-2.01-.05-.29-.07-.29-.3-.3-.6,0-.02,0-.11.01-.2.08,0,.16,0,.24-.01.71-.03,1.42,0,2.13.07.86.08.85-1.42,0-1.5-.53-.05-1.06-.08-1.59-.08-.43,0-.95-.05-1.37.1-.14.05-.25.14-.35.23-.06-.02-.11-.04-.17-.04-.75,0-1.4-.22-2.04-.66-.41-.28-.81-.57-1.27-.66,1.31,0,2.61.01,3.92.05.86.02.86-1.48,0-1.5-3.63-.1-7.27-.09-10.9.03-.37.01-.57.3-.62.62-.04,0-.07.01-.11.03-1.27.57-2.57,1.21-3.72,2.06-.45.33-.76.79-.62,1.43.15.66.72,1.15,1.15,1.59.9.92,1.94,1.78,3.16,2.02.46.09,1.02.15,1.44-.12.23-.15.41-.4.49-.68.12-.37-.04-.73.04-1.08,0-.01.01-.02.02-.03,0,.01.01.02.02.03.78,1.18,2.12,2.12,3.35,2.6,1.25.48,2.6.2,3.41-1.01.52-.77-.64-1.52-1.15-.76-.96,1.42-3.19-.3-4.01-1.1-.11-.1-.26-.28-.42-.47.5-.09,1.01-.11,1.49-.3.42-.17.9-.47,1.1-.95.26-.62-.1-1.3-.59-1.61-.83-.54-2.16-.34-2.96.2-.65.44-.86,1.12-.79,1.82-.2.16-.38.34-.51.56-.18.3-.28.65-.29,1.01,0,.13,0,.31.02.45-.07,0-.15,0-.22,0-.78-.08-1.5-.57-2.11-1.11-.35-.31-.68-.66-1.01-1.01-.06-.07-.12-.15-.19-.21-.01-.01-.01-.01-.03-.02.16-.09.34-.25.48-.34.64-.41,1.3-.77,1.98-1.11-.02.65-.09,1.3-.23,1.95-.21.94,1.08,1.34,1.29.4.24-1.1.33-2.22.26-3.35,2.1-.07,4.21-.09,6.32-.08-.32.06-.64.32-.62.74.11,1.7,1,3.06,2.15,4.1,1.16,1.04,2.46,2.08,3.8,2.81,1.33.72,2.92,1.14,4.36.57,1.21-.48,2.24-1.61,2.46-3.06.02-.13,0-.24-.02-.35.56-.1,1.13-.32,1.36-.87.38-.9-.35-1.73-.97-2.19ZM374.21,362.67c-.11.03-.23.07-.34.09-.16.03-.32.05-.48.07.21-.08.44-.13.65-.15.05,0,.11,0,.16,0ZM386.37,367.52c-1.21.32-2.46-.18-3.51-.84-1.01-.64-2-1.4-2.92-2.19-.63-.55-1.26-1.22-1.59-2.05.29.19.57.43.84.57.58.29,1.19.43,1.81.45,0,.17.02.34.05.49.15.92.76,1.45,1.57,1.54.99.1,2,.05,2.99.08.86.02,1.72.07,2.58.02-.22.99-.92,1.7-1.81,1.94Z"/><path class="cls-1" d="M386.07,363.27c.86,0,.86-1.5,0-1.5s-.86,1.5,0,1.5Z"/><path class="cls-1" d="M366.59,365.29c-1.27-.25-2.53-.58-3.78-.97.1-.5.13-1.01.14-1.53.01-.71,0-1.42.39-2.02.29-.45-.1-1.16-.58-1.13-1.11.07-2.22.27-3.29.6-.83.25-.48,1.7.35,1.45.63-.19,1.26-.32,1.91-.42-.06.35-.09.71-.1,1.06-.01.45,0,.94-.05,1.41-.56.04-1.12-.06-1.67-.2-.38-.09-.75-.19-1.13-.28-.39-.09-.82-.22-1.22-.22-.48,0-.87.34-.96.88-.08.47-.11.95-.14,1.43-.07.93-.11,1.85-.11,2.78,0,.97,1.33.97,1.33,0,0-.83.03-1.67.09-2.5.02-.35.06-.7.09-1.04.08.02.16.03.24.05,1.12.24,2.21.6,3.33.59.08.15.2.28.37.34,1.03.34,2.08.62,3.14.87.08.1.17.18.29.2.39.09.79.14,1.19.12.33-.01.62-.28.66-.65.04-.34-.15-.76-.48-.82ZM357.88,364.28s0-.02,0,0c0,0,0,0,0,0Z"/><path class="cls-1" d="M356.32,359.5l-8.93-.06c-.69,0-.87,1-.34,1.4,1.77,1.31,3.74,2.81,4.11,5.34.11.73,1.17.71,1.29,0,.32-1.89,2.26-2.71,3.3-4.05.3-.39.16-.87-.11-1.13.23,0,.45,0,.68,0,.86,0,.86-1.49,0-1.5ZM354.81,361.07c-.85,1.1-2.07,1.86-2.88,2.97-.55-1.22-1.44-2.22-2.42-3.08,1.8.01,3.59.03,5.39.04-.03.03-.06.04-.08.07Z"/><path class="cls-1" d="M348.46,362.7c-.37.02-.66.33-.67.75,0,.24-.01.48-.03.72,0,.12-.02.24-.03.36,0,.05,0,.09-.01.14,0,.03,0,.05,0,.08-.06.47-.16.94-.28,1.4-.1.38.12.83.47.92.36.09.72-.12.82-.52.26-1,.39-2.05.41-3.09,0-.39-.31-.77-.67-.75Z"/><path class="cls-1" d="M345.46,358.22c-.32-.1-.76.12-.82.52-.36,2.41-.62,4.83-.79,7.27-.03.4.33.75.67.75.38,0,.64-.34.67-.75.16-2.3.41-4.59.74-6.87.06-.4-.09-.81-.47-.92Z"/><path class="cls-1" d="M342.33,364.06c-.25-.15-.5-.3-.74-.45.06-.41-.14-.88-.63-.89-1.3-.02-2.62-.11-3.93-.06-.33.01-.62.12-.82.43-.19.28-.23.65-.27.99-.1.74-.14,1.49-.1,2.23.02.44.41.91.84.72,1.86-.79,3.82-1.18,5.81-1.14.39,0,.81-.49.64-.95-.17-.46-.43-.65-.81-.88ZM340.29,364.21c.01.11.04.22.1.31-1.1.13-2.18.39-3.23.77,0-.25.02-.51.05-.76.01-.1.03-.2.04-.31,0-.02,0-.04,0-.06.01,0,.03,0,.04,0,.14,0,.27,0,.41,0,.86.01,1.72.03,2.57.04Z"/><path class="cls-1" d="M336.57,361.76c1.72.02,3.44.05,5.12.51.42.12.84-.23.84-.72,0-.64,0-1.29,0-1.93,0-.97-1.33-.97-1.33,0,0,.34,0,.68,0,1.02-1.52-.31-3.08-.36-4.63-.38-.86-.01-.86,1.49,0,1.5Z"/><path class="cls-1" d="M429.42,364.3c-1.46.03-2.93,0-4.39-.08-.35-.02-.68.36-.67.75.02.42.29.73.67.75,1.46.09,2.93.12,4.39.08.35,0,.68-.34.67-.75-.02-.4-.29-.76-.67-.75Z"/><path class="cls-1" d="M435.81,364.86c.28.67,1.28.34,1.24-.38-.03-.56-.19-1.04-.39-1.55-.15-.37-.36-.77-.36-1.19,0-.42.24-.81.39-1.18.2-.51.3-1.03.15-1.58-.25-.92-1.54-.53-1.29.4.09.34-.12.69-.25.98-.13.32-.25.65-.3,1-.58-.52-1.23-.94-1.93-1.24-.42-.18-.84.27-.84.72,0,.42.02,1-.13,1.45-.86-.55-1.84-.65-2.81-.15-.33.17-.41.7-.24,1.03.2.38.58.44.91.27.34-.18.74-.18,1.09-.07.46.14.82.73,1.31.66.58-.08.89-.84,1.03-1.4.05-.21.08-.42.1-.64,1.01.66,1.81,1.67,2.31,2.87Z"/><path class="cls-1" d="M442.74,364.05c-.86,0-.86,1.5,0,1.5s.86-1.5,0-1.5Z"/><path class="cls-1" d="M461.81,362.37c-.9-.92-1.94-1.78-3.16-2.02-.46-.09-1.02-.15-1.44.13-.23.15-.41.4-.49.68-.12.37.04.73-.04,1.08,0,.01-.01.02-.02.03,0-.01-.01-.02-.02-.03-.78-1.18-2.12-2.13-3.35-2.6-1.25-.48-2.6-.2-3.41,1.01-.52.77.64,1.52,1.15.76.96-1.42,3.19.3,4.01,1.1.11.1.26.27.42.47-.5.09-1.01.11-1.49.3-.42.17-.9.47-1.1.95-.26.62.1,1.3.59,1.61.83.54,2.16.34,2.96-.2.65-.44.86-1.12.79-1.82.2-.16.38-.34.51-.56.18-.3.28-.65.29-1.01,0-.13,0-.31-.02-.45.07,0,.15,0,.22,0,.78.08,1.5.57,2.11,1.11.35.31.68.66,1.01,1.01.06.07.12.15.19.21.01.01.01.01.03.02-.16.09-.34.25-.48.34-.64.41-1.3.77-1.98,1.11.02-.65.09-1.3.23-1.95.21-.94-1.08-1.34-1.29-.4-.24,1.1-.33,2.22-.26,3.35-2.11.07-4.21.09-6.32.08.32-.06.64-.32.62-.74-.11-1.7-1-3.06-2.15-4.1-1.16-1.04-2.46-2.08-3.8-2.81-1.33-.72-2.92-1.14-4.36-.57-1.21.48-2.24,1.61-2.46,3.06-.02.13,0,.24.02.35-.56.1-1.13.32-1.36.87-.38.9.35,1.73.97,2.19.27.2.61.37.93.57-1.84-.05-3.64.35-5.35,1.22-.78.4-.1,1.69.67,1.3,1.86-.94,3.96-1.26,5.98-.9.53.09.91-.33.82-.92-.21-1.34-1.32-1.83-2.24-2.46-.1-.07-.2-.13-.28-.21-.04-.03-.07-.08-.1-.11.1-.02.2-.05.23-.05.17-.04.35-.07.53-.09.68-.08,1.37-.06,2.05-.04.67.01,1.35.03,2.02.04.63.01,1.4-.11,2.01.05.29.07.29.3.3.6,0,.02,0,.11-.01.2-.08,0-.16,0-.24.01-.71.03-1.42,0-2.13-.07-.86-.08-.85,1.42,0,1.5.53.05,1.06.08,1.59.08.43,0,.95.05,1.37-.1.14-.05.25-.14.35-.23.06.02.11.04.17.04.75,0,1.4.22,2.04.66.41.28.81.57,1.27.66-1.31,0-2.61-.01-3.92-.05-.86-.02-.86,1.48,0,1.5,3.63.1,7.27.09,10.9-.03.37-.01.57-.3.62-.62.04,0,.07-.01.11-.03,1.27-.57,2.57-1.21,3.72-2.06.45-.33.76-.79.62-1.43-.15-.66-.72-1.15-1.15-1.59ZM454.61,364.64c.11-.03.23-.07.34-.09.16-.03.32-.05.48-.07-.21.08-.44.13-.65.15-.05,0-.11,0-.16,0ZM447.82,363.86c0-.17-.02-.34-.05-.49-.15-.92-.76-1.45-1.57-1.54-.99-.1-2-.05-2.99-.08-.86-.02-1.72-.07-2.58-.02.22-.99.92-1.7,1.81-1.94,1.21-.32,2.46.18,3.51.84,1.01.64,2,1.4,2.92,2.19.63.55,1.26,1.22,1.59,2.05-.29-.19-.57-.43-.84-.57-.58-.29-1.19-.43-1.81-.45Z"/><path class="cls-1" d="M472.22,363.39c.08-.47.11-.95.14-1.43.07-.93.11-1.85.11-2.78,0-.97-1.33-.97-1.33,0,0,.83-.03,1.67-.09,2.5-.02.35-.06.7-.09,1.04-.08-.02-.16-.03-.24-.05-1.12-.24-2.21-.6-3.33-.59-.08-.15-.2-.28-.37-.34-1.03-.34-2.08-.62-3.14-.87-.08-.1-.17-.18-.29-.2-.39-.09-.79-.14-1.19-.12-.33.01-.62.28-.66.65-.04.34.15.76.48.82,1.27.25,2.53.58,3.78.97-.1.5-.13,1.01-.14,1.53-.01.71,0,1.42-.39,2.02-.29.45.1,1.16.58,1.13,1.11-.07,2.22-.27,3.29-.6.83-.25.48-1.7-.35-1.45-.63.19-1.26.32-1.91.42.06-.35.09-.71.1-1.06.01-.45,0-.94.05-1.41.56-.04,1.12.06,1.67.2.38.09.75.19,1.13.28.39.09.82.22,1.22.22.48,0,.87-.34.96-.88ZM470.93,363.03s0,0,0,0c0,.01,0,.02,0,0Z"/><path class="cls-1" d="M477.64,361.14c-.11-.73-1.17-.71-1.29,0-.32,1.89-2.26,2.71-3.3,4.05-.3.39-.16.87.11,1.13-.23,0-.45,0-.68,0-.86,0-.86,1.49,0,1.5l8.93.06c.69,0,.87-1,.34-1.4-1.77-1.31-3.74-2.81-4.11-5.34ZM474,366.25c.85-1.1,2.07-1.86,2.88-2.97.55,1.22,1.44,2.22,2.42,3.08-1.8-.01-3.59-.03-5.39-.04.03-.03.06-.04.08-.07Z"/><path class="cls-1" d="M480.36,364.61c.37-.02.66-.33.67-.75,0-.24.01-.48.03-.72,0-.12.02-.24.03-.36,0-.05,0-.09.01-.14,0-.03,0-.05,0-.08.06-.47.16-.94.28-1.4.1-.38-.12-.83-.47-.92-.36-.09-.72.12-.82.52-.26,1-.39,2.05-.41,3.09,0,.39.31.77.67.75Z"/><path class="cls-1" d="M484.3,360.56c-.38,0-.64.34-.67.75-.16,2.3-.41,4.59-.74,6.87-.06.4.09.81.47.92.32.1.76-.12.82-.52.36-2.41.62-4.83.79-7.27.03-.4-.33-.75-.67-.75Z"/><path class="cls-1" d="M487.23,363.71c-.06.41.14.88.63.89,1.3.02,2.62.11,3.93.06.33-.01.62-.12.82-.43.19-.28.23-.65.27-.99.1-.74.14-1.48.1-2.23-.02-.44-.41-.91-.84-.72-1.86.79-3.82,1.18-5.81,1.14-.39,0-.81.49-.64.95.17.46.43.65.81.88.25.15.5.3.74.45ZM488.52,363.11c-.01-.11-.04-.22-.1-.31,1.1-.13,2.18-.39,3.23-.77,0,.25-.02.51-.05.76-.01.1-.03.2-.04.31,0,.02,0,.04-.01.06-.01,0-.03,0-.04,0-.14,0-.27,0-.41,0-.86-.01-1.72-.03-2.57-.04Z"/><path class="cls-1" d="M492.25,365.55c-1.72-.02-3.44-.05-5.12-.51-.42-.12-.84.23-.84.72,0,.64,0,1.29,0,1.93,0,.97,1.33.97,1.33,0,0-.34,0-.68,0-1.02,1.52.31,3.08.36,4.63.38.86.01.86-1.49,0-1.5Z"/><path class="cls-1" d="M469.44,446.34c-.35-.18-.82-.09-1.03.29-.81,1.47-1.67,2.91-2.58,4.31-.22.34-.08.86.27,1.04.38.2.8.07,1.03-.29.91-1.4,1.78-2.84,2.58-4.31.19-.35.1-.85-.27-1.04Z"/><path class="cls-1" d="M472.94,439.15c-.5-.25-1.01-.34-1.57-.39-.4-.04-.88-.03-1.24-.24-.36-.21-.56-.65-.8-.97-.33-.45-.72-.81-1.28-.94-.94-.21-1.34,1.26-.39,1.47.34.08.52.46.71.73.2.29.42.57.69.8-.78.32-1.52.75-2.18,1.3-.39.32-.24.97.14,1.2.36.21.87.48,1.18.85-.97.58-1.62,1.5-1.74,2.72-.04.41.37.76.75.75.44,0,.71-.36.76-.77.04-.42.26-.82.56-1.12.39-.38,1.1-.44,1.32-.96.26-.61-.22-1.3-.62-1.72-.15-.15-.32-.28-.48-.41,1.15-.67,2.48-.97,3.8-.87.74.06,1.03-1.1.38-1.42Z"/><path class="cls-1" d="M475.81,433.3c-.49.85.81,1.6,1.3.75.49-.85-.81-1.6-1.3-.75Z"/><path class="cls-1" d="M488.18,414.55c-.03-.61-.25-1.15-.88-1.33-.66-.18-1.4.14-2.03.34-1.31.43-2.65,1.03-3.56,2.13-.34.41-.71.93-.71,1.49,0,.3.11.6.31.83.26.3.65.32.92.58,0,0,.01.02.02.03-.01,0-.03,0-.04,0-1.47.18-3.05,1.04-4.17,2.02-1.13.99-1.66,2.47-1.08,3.89.37.9,1.68.13,1.31-.76-.68-1.67,2.09-3.01,3.25-3.43.15-.05.39-.12.65-.18-.21.54-.49,1.05-.59,1.63-.09.51-.11,1.13.19,1.56.38.57,1.18.55,1.73.22.94-.55,1.53-1.97,1.52-3.03,0-.87-.48-1.41-1.13-1.7-.03-.28-.08-.55-.2-.79-.16-.33-.4-.6-.71-.8-.11-.07-.26-.16-.4-.21.04-.07.08-.15.13-.22.52-.74,1.35-1.2,2.16-1.53.47-.19.96-.35,1.45-.49.09-.03.2-.05.29-.09.02,0,.03-.01.04-.02-.02.21.01.46,0,.65-.01.84-.08,1.68-.17,2.51-.56-.34-1.08-.74-1.55-1.2-.69-.67-1.78.4-1.08,1.08.81.79,1.73,1.44,2.75,1.93-1.15,2.12-2.33,4.22-3.54,6.3.13-.35.09-.8-.28-.98-1.54-.75-3.22-.54-4.78.08-1.57.63-3.21,1.4-4.6,2.36-1.39.96-2.66,2.32-2.99,4.03-.28,1.44.11,3.02,1.24,3.97.1.08.2.13.31.16-.23.61-.37,1.28-.02,1.78.56.83,1.7.52,2.45.14.33-.16.67-.42,1.03-.64-1.1,1.79-1.78,3.78-2.01,5.91-.1.97,1.4.95,1.51-.02.25-2.32,1.18-4.56,2.65-6.38.38-.47.24-1.07-.33-1.27-1.28-.47-2.34.4-3.41.99-.11.06-.23.13-.35.17-.05.02-.11.03-.16.05.04-.11.08-.23.09-.25.07-.19.14-.38.23-.57.32-.71.73-1.38,1.14-2.05.4-.66.8-1.32,1.2-1.98.37-.62.71-1.44,1.2-1.97.23-.25.43-.14.69,0,.02,0,.09.06.16.11-.04.08-.08.16-.13.24-.38.72-.81,1.41-1.27,2.07-.56.81.74,1.55,1.3.75.35-.5.68-1.01.98-1.54.25-.43.59-.92.7-1.41.04-.17.03-.32,0-.46.05-.05.1-.09.13-.15.42-.74.99-1.28,1.74-1.69.48-.26.96-.52,1.3-.93-.75,1.29-1.51,2.58-2.28,3.86-.51.84.79,1.59,1.3.75,2.17-3.55,4.24-7.16,6.21-10.81.2-.38.06-.73-.19-.94.02-.04.05-.07.05-.11.24-1.54.43-3.15.34-4.71ZM483.1,421.84c.04-.13.08-.26.13-.38.07-.17.14-.34.21-.51-.05.25-.14.51-.25.72-.03.06-.07.11-.1.17ZM479.98,426.6c-.58.43-1.04.97-1.42,1.58-.16-.08-.31-.15-.47-.21-.89-.32-1.69.02-2.23.79-.65.93-1.19,1.95-1.78,2.92-.51.84-1.04,1.67-1.49,2.55-.73-.72-.95-1.76-.64-2.77.41-1.36,1.57-2.35,2.74-3.06,1.13-.69,2.36-1.28,3.57-1.8.84-.36,1.78-.63,2.68-.55-.33.19-.7.35-.97.55Z"/><path class="cls-1" d="M492.2,408.08c-.19.72-.45,1.41-.73,2.1-.27-.24-.56-.45-.86-.64-.38-.24-.82-.47-1.19-.76.29-.57.7-1.08,1.12-1.56.29-.33.6-.65.89-.97.31-.34.66-.7.89-1.1.27-.47.2-1.04-.21-1.39-.36-.31-.77-.58-1.15-.85-.76-.54-1.54-1.04-2.34-1.5-.83-.49-1.6.84-.76,1.32.72.42,1.43.87,2.11,1.34.29.2.57.4.85.61-.06.07-.12.15-.18.22-.85.99-1.78,1.89-2.42,3.01-.18,0-.35.05-.51.2-.89.85-1.73,1.75-2.55,2.68-.13.03-.25.08-.34.19-.3.34-.57.71-.78,1.12-.18.33-.11.75.19.97.27.2.74.23.99-.06.94-1.14,1.95-2.22,3-3.26.38.34.8.63,1.25.9.61.37,1.23.71,1.53,1.39.22.52,1.06.48,1.31,0,.57-1.14,1.03-2.33,1.36-3.56.25-.95-1.2-1.32-1.46-.37ZM491.06,404.86s0,0,0,0c0,0,.01.01,0,0Z"/><path class="cls-1" d="M500.23,395.86c-2.15,1.1-4.57,2.3-6.97,1.41-.69-.26-1.28.8-.74,1.27,1.45,1.27,1.05,3.6,1.62,5.29.17.5.66.6,1.04.45l-.39.67c-.5.85.8,1.6,1.3.75,1.72-2.94,3.44-5.88,5.16-8.81.4-.68-.37-1.36-1.02-1.03ZM495.62,403.54s0-.08-.01-.12c-.47-1.39-.42-2.98-.92-4.34,1.37.06,2.74-.32,4.05-.86-1.04,1.77-2.08,3.55-3.12,5.32Z"/><path class="cls-1" d="M496.79,396.59c.34.2.84.08,1.03-.29.19-.37.09-.82-.27-1.04-.21-.12-.41-.25-.61-.39-.1-.07-.2-.14-.29-.21-.04-.03-.07-.05-.11-.08-.02-.02-.04-.03-.06-.05-.37-.3-.73-.63-1.06-.98-.27-.28-.79-.3-1.07,0-.28.31-.31.77-.02,1.08.72.76,1.55,1.41,2.44,1.95Z"/><path class="cls-1" d="M497.59,390.08c-.33-.23-.84-.05-1.03.29-.22.38-.07.81.27,1.04,1.9,1.31,3.74,2.7,5.52,4.17.31.26.75.31,1.07,0,.27-.27.33-.82.02-1.08-1.88-1.56-3.83-3.03-5.84-4.42Z"/><path class="cls-1" d="M498.93,389.91c.5.06.81-.1,1.23-.36.27-.17.55-.34.82-.51.32.26.85.3,1.13-.17.76-1.28,1.6-2.54,2.3-3.86.18-.33.25-.68.1-1.03-.14-.33-.43-.55-.7-.77-.59-.47-1.21-.88-1.88-1.21-.4-.2-1.02-.04-1.11.48-.38,2.24-1.16,4.38-2.33,6.33-.23.38-.04,1.05.45,1.11ZM502.05,383.82c.21.13.43.27.63.43.08.06.16.13.24.2.02.01.03.03.05.04,0,.01-.01.03-.02.04-.08.14-.16.27-.24.41-.5.84-1,1.69-1.51,2.53-.1-.04-.21-.07-.33-.05.51-1.16.91-2.36,1.19-3.59Z"/><path class="cls-1" d="M505.44,384.99c-1,1.69-2.01,3.39-3.37,4.82-.34.36-.29.95.14,1.2.56.32,1.11.65,1.67.97.83.49,1.6-.84.76-1.32-.3-.17-.59-.34-.89-.52,1.14-1.36,2.08-2.87,2.98-4.4.5-.85-.8-1.6-1.3-.75Z"/><path class="cls-1" d="M430.18,514.35c-.35-.18-.82-.09-1.03.29-.81,1.47-1.67,2.91-2.58,4.31-.22.34-.08.86.27,1.04.38.2.8.07,1.03-.29.91-1.4,1.78-2.84,2.58-4.31.19-.35.1-.85-.27-1.04Z"/><path class="cls-1" d="M433.67,507.16c-.5-.25-1.01-.34-1.56-.39-.4-.04-.88-.03-1.24-.24-.36-.21-.56-.65-.8-.97-.33-.45-.72-.81-1.28-.94-.94-.21-1.34,1.26-.39,1.47.34.08.52.46.71.73.2.29.42.57.69.8-.78.32-1.52.75-2.18,1.3-.39.32-.24.97.14,1.2.36.21.87.48,1.18.85-.97.58-1.62,1.5-1.74,2.71-.04.41.37.76.75.75.44,0,.71-.36.76-.77.04-.42.26-.82.56-1.12.39-.38,1.1-.44,1.32-.96.26-.61-.22-1.3-.62-1.72-.15-.15-.32-.28-.48-.41,1.15-.67,2.48-.97,3.8-.87.74.06,1.03-1.1.38-1.42Z"/><path class="cls-1" d="M436.55,501.31c-.49.85.81,1.6,1.3.75.49-.85-.81-1.6-1.3-.75Z"/><path class="cls-1" d="M448.91,482.56c-.03-.61-.25-1.15-.88-1.33-.66-.18-1.4.14-2.03.34-1.31.43-2.65,1.03-3.56,2.13-.34.41-.71.93-.71,1.49,0,.3.11.6.31.83.26.3.65.32.92.58,0,0,.01.02.02.03-.01,0-.03,0-.04,0-1.47.18-3.05,1.04-4.17,2.02-1.13.99-1.66,2.47-1.08,3.89.37.9,1.68.13,1.31-.76-.68-1.67,2.09-3.01,3.25-3.43.15-.05.39-.12.65-.18-.21.54-.49,1.05-.59,1.63-.09.51-.11,1.13.19,1.56.38.57,1.18.55,1.73.22.94-.55,1.53-1.97,1.52-3.03,0-.87-.48-1.41-1.13-1.7-.03-.28-.08-.55-.2-.79-.16-.33-.4-.6-.71-.8-.11-.07-.26-.16-.4-.21.04-.07.08-.15.13-.22.52-.74,1.35-1.2,2.16-1.53.47-.19.96-.35,1.45-.49.09-.03.2-.05.29-.09.02,0,.03-.01.04-.02-.02.21.01.46,0,.65-.01.84-.08,1.68-.17,2.51-.56-.34-1.08-.74-1.55-1.2-.69-.67-1.78.4-1.08,1.08.81.79,1.73,1.44,2.75,1.93-1.15,2.12-2.33,4.22-3.54,6.3.13-.35.09-.8-.28-.98-1.54-.74-3.22-.54-4.78.08-1.57.63-3.21,1.4-4.6,2.36-1.39.96-2.66,2.32-2.99,4.03-.28,1.44.11,3.02,1.24,3.97.1.08.2.13.31.16-.23.61-.37,1.28-.02,1.78.56.83,1.7.52,2.45.14.33-.16.67-.42,1.03-.64-1.1,1.79-1.78,3.78-2.01,5.91-.1.97,1.4.95,1.51-.02.25-2.32,1.18-4.56,2.65-6.38.38-.47.24-1.07-.33-1.27-1.28-.46-2.34.4-3.41.99-.11.06-.23.13-.35.17-.05.02-.11.03-.16.05.04-.11.08-.23.08-.25.07-.19.14-.38.23-.57.32-.71.73-1.38,1.14-2.05.4-.66.8-1.32,1.2-1.98.37-.62.71-1.44,1.2-1.97.23-.25.43-.14.69,0,.02,0,.09.06.16.11-.04.08-.08.16-.13.24-.38.72-.81,1.41-1.27,2.07-.56.81.74,1.55,1.3.75.35-.5.68-1.01.98-1.54.25-.43.59-.92.7-1.41.04-.17.03-.32,0-.46.05-.05.1-.09.13-.15.42-.74.99-1.28,1.74-1.69.48-.26.96-.52,1.3-.93-.75,1.29-1.51,2.58-2.28,3.86-.51.84.79,1.59,1.3.75,2.17-3.55,4.24-7.16,6.21-10.81.2-.38.06-.73-.19-.94.02-.04.05-.07.05-.11.24-1.54.43-3.15.34-4.71ZM443.84,489.84c.04-.13.08-.26.13-.38.07-.17.14-.34.21-.51-.05.25-.14.5-.25.72-.03.06-.07.11-.1.17ZM440.72,494.61c-.58.43-1.04.97-1.42,1.58-.16-.08-.31-.15-.47-.21-.89-.32-1.69.02-2.23.79-.65.93-1.19,1.95-1.78,2.92-.51.84-1.04,1.67-1.49,2.55-.73-.72-.95-1.76-.64-2.77.41-1.36,1.57-2.35,2.74-3.06,1.13-.69,2.36-1.28,3.57-1.8.84-.36,1.78-.63,2.68-.55-.33.19-.7.35-.97.55Z"/><path class="cls-1" d="M452.93,476.09c-.19.72-.45,1.41-.73,2.1-.27-.24-.56-.45-.86-.64-.38-.24-.82-.47-1.19-.76.29-.57.7-1.08,1.12-1.56.29-.33.6-.65.89-.97.31-.34.66-.71.89-1.1.27-.47.2-1.04-.21-1.39-.36-.31-.77-.58-1.15-.85-.76-.54-1.54-1.04-2.34-1.5-.83-.49-1.6.84-.76,1.32.72.42,1.43.87,2.11,1.34.29.2.57.4.85.61-.06.07-.12.15-.18.22-.85.99-1.78,1.89-2.42,3.01-.18,0-.35.05-.51.2-.89.85-1.73,1.75-2.55,2.68-.13.03-.25.08-.34.19-.3.34-.57.71-.78,1.12-.18.33-.11.75.19.97.27.2.74.23.99-.06.94-1.14,1.95-2.22,3-3.26.38.34.8.63,1.25.9.61.37,1.23.71,1.53,1.39.22.52,1.06.48,1.31,0,.57-1.14,1.03-2.33,1.36-3.56.25-.95-1.2-1.32-1.46-.37ZM451.8,472.87s0,0,0,0c0,0,.01.01,0,0Z"/><path class="cls-1" d="M460.97,463.86c-2.15,1.1-4.57,2.3-6.97,1.41-.69-.26-1.28.8-.74,1.27,1.45,1.27,1.05,3.6,1.62,5.29.17.5.66.6,1.04.45-.13.22-.26.45-.39.67-.5.85.8,1.6,1.3.75,1.72-2.94,3.44-5.88,5.16-8.81.4-.68-.37-1.37-1.02-1.03ZM456.35,471.55s0-.08-.01-.12c-.47-1.39-.42-2.98-.92-4.34,1.37.06,2.74-.32,4.05-.86-1.04,1.77-2.08,3.55-3.12,5.32Z"/><path class="cls-1" d="M457.53,464.6c.34.2.84.08,1.03-.29.19-.37.09-.82-.27-1.04-.21-.12-.41-.25-.61-.39-.1-.07-.2-.14-.29-.21-.04-.03-.07-.05-.11-.08-.02-.02-.04-.03-.06-.05-.37-.3-.73-.63-1.06-.98-.27-.28-.79-.3-1.07,0-.28.31-.31.77-.02,1.07.72.76,1.55,1.41,2.44,1.95Z"/><path class="cls-1" d="M458.33,458.09c-.33-.23-.84-.05-1.03.29-.22.38-.07.81.27,1.04,1.9,1.31,3.74,2.7,5.52,4.17.31.26.75.31,1.07,0,.27-.27.33-.82.02-1.07-1.88-1.56-3.83-3.03-5.84-4.42Z"/><path class="cls-1" d="M459.66,457.92c.5.06.81-.1,1.23-.36.27-.17.55-.34.82-.51.32.26.85.3,1.13-.17.76-1.28,1.6-2.54,2.3-3.86.18-.33.25-.68.1-1.03-.14-.33-.43-.55-.7-.77-.59-.47-1.21-.88-1.88-1.21-.4-.2-1.02-.04-1.11.48-.38,2.24-1.16,4.38-2.33,6.33-.23.38-.04,1.05.45,1.11ZM462.78,451.83c.21.13.43.27.63.43.08.06.16.13.24.2.02.01.03.03.05.04,0,.01-.01.03-.02.04-.08.14-.16.27-.24.41-.5.84-1,1.69-1.51,2.53-.1-.04-.21-.07-.33-.05.51-1.15.91-2.36,1.19-3.59Z"/><path class="cls-1" d="M466.17,453c-1,1.69-2.01,3.39-3.37,4.81-.34.36-.29.95.14,1.2.56.32,1.11.65,1.67.97.83.49,1.6-.84.76-1.32-.3-.17-.59-.34-.89-.52,1.14-1.36,2.08-2.87,2.98-4.4.5-.85-.8-1.6-1.3-.75Z"/><path class="cls-1" d="M366.08,456.65c-.87-1.43-1.68-2.9-2.44-4.39-.18-.36-.7-.5-1.03-.29-.36.23-.46.65-.27,1.04.76,1.49,1.57,2.96,2.44,4.39.21.34.68.51,1.03.29.34-.22.49-.67.27-1.04Z"/><path class="cls-1" d="M367.13,456.76c.35.25.58.64.69,1.04.14.53-.17,1.18.17,1.62.4.53,1.23.46,1.8.32.21-.05.41-.12.61-.21,0,1.33-.41,2.62-1.16,3.71-.42.62.44,1.44,1.04,1.04.47-.31.8-.71,1.12-1.16.24-.33.46-.74.83-.95.36-.21.84-.16,1.24-.21.56-.06,1.07-.22,1.46-.64.65-.71-.42-1.79-1.08-1.08-.24.26-.66.22-.99.25-.36.03-.71.08-1.04.2.12-.83.11-1.69-.03-2.53-.08-.5-.72-.7-1.11-.48-.37.21-.85.52-1.33.6-.02-1.13-.49-2.15-1.48-2.86-.33-.24-.84-.05-1.03.28-.21.38-.05.8.29,1.04Z"/><path class="cls-1" d="M373.92,469.72c-.49-.85-1.79-.1-1.3.75.49.85,1.79.1,1.3-.75Z"/><path class="cls-1" d="M385.56,489.71c.49-.48.58-1.28.72-1.93.28-1.35.44-2.81-.06-4.14-.19-.5-.45-1.08-.93-1.36-.26-.15-.58-.2-.87-.15-.39.07-.61.4-.96.5-.01,0-.03,0-.04,0,0-.01.02-.03.02-.04.58-1.37.63-3.17.34-4.62-.29-1.48-1.31-2.67-2.83-2.88-.96-.13-.95,1.39,0,1.52,1.78.24,1.56,3.32,1.34,4.53-.03.16-.09.4-.17.65-.36-.45-.67-.95-1.12-1.33-.39-.33-.92-.66-1.45-.62-.68.05-1.06.75-1.06,1.39,0,1.09.95,2.31,1.87,2.83.75.43,1.46.29,2.03-.13.25.12.51.21.78.23.36.03.72-.04,1.04-.21.12-.06.27-.15.38-.24.04.07.09.14.12.22.38.82.37,1.77.25,2.64-.07.51-.18,1.01-.3,1.51-.02.09-.06.2-.07.29,0,.02,0,.02,0,.03-.17-.12-.41-.21-.57-.3-.72-.43-1.41-.91-2.09-1.41.57-.31,1.17-.56,1.82-.75.93-.26.54-1.74-.39-1.47-1.09.31-2.11.78-3.05,1.42-1.26-2.05-2.48-4.13-3.68-6.22.24.29.64.48.99.24,1.41-.96,2.08-2.52,2.32-4.18.24-1.67.39-3.48.26-5.17-.14-1.68-.68-3.46-2-4.61-1.11-.96-2.67-1.41-4.06-.91-.12.04-.22.11-.29.19-.41-.51-.92-.96-1.53-.91-1,.08-1.3,1.21-1.34,2.05-.02.37.03.79.04,1.21-1-1.85-2.39-3.43-4.11-4.69-.79-.58-1.52.74-.74,1.31,1.88,1.37,3.36,3.3,4.2,5.48.22.57.8.74,1.27.35,1.04-.87.83-2.23.85-3.45,0-.13,0-.26.02-.39,0-.06.03-.11.04-.16.07.09.16.18.17.2.13.15.26.31.38.48.46.63.83,1.33,1.21,2.01.37.68.75,1.35,1.12,2.03.35.63.89,1.33,1.11,2.02.1.32-.1.44-.35.59-.02,0-.1.05-.18.09-.05-.08-.1-.15-.15-.23-.43-.69-.81-1.41-1.16-2.14-.42-.89-1.72-.13-1.3.75.26.55.54,1.09.84,1.62.25.43.5.97.88,1.31.12.11.26.18.4.23.02.06.03.13.07.19.43.74.62,1.5.6,2.35-.01.55-.03,1.09.15,1.59-.74-1.3-1.48-2.6-2.2-3.91-.47-.86-1.77-.11-1.3.75,1.99,3.65,4.08,7.25,6.26,10.79.22.36.59.42.89.31.03.03.05.07.09.1,1.22.98,2.52,1.95,3.91,2.65.54.28,1.12.36,1.59-.1ZM380.3,481.94c-.04-.06-.09-.13-.13-.2.11.11.21.22.3.34.13.16.25.33.38.5-.21-.18-.4-.42-.55-.64ZM376.18,469.04c-.48-.86-.94-1.74-1.48-2.58.99-.28,2.02.07,2.74.84.97,1.04,1.25,2.53,1.28,3.9.03,1.32-.07,2.69-.23,4-.11.9-.34,1.86-.86,2.6,0-.38.05-.78,0-1.12-.08-.72-.31-1.39-.65-2.02.14-.09.28-.19.4-.29.72-.61.83-1.48.43-2.32-.48-1.03-1.1-2.01-1.64-3Z"/><path class="cls-1" d="M387.56,496.52c-.53-.53-1-1.09-1.45-1.68.34-.11.67-.26.98-.43.4-.21.82-.47,1.25-.65.35.54.59,1.15.79,1.75.14.42.26.84.4,1.26.14.44.28.93.51,1.32.27.47.8.69,1.31.51.45-.16.89-.37,1.32-.57.84-.39,1.67-.82,2.47-1.28.84-.48.08-1.8-.76-1.32-.72.41-1.46.8-2.22,1.16-.32.15-.63.29-.95.43-.03-.09-.07-.17-.1-.26-.43-1.23-.74-2.49-1.39-3.6.09-.15.13-.33.08-.54-.29-1.2-.65-2.38-1.04-3.54.04-.13.05-.26,0-.39-.15-.43-.33-.85-.57-1.24-.2-.32-.59-.47-.94-.32-.31.13-.57.52-.44.88.52,1.39.95,2.8,1.32,4.23-.49.16-.95.38-1.41.63-.62.34-1.23.71-1.97.62-.56-.06-.95.68-.65,1.14.7,1.07,1.5,2.06,2.4,2.96.69.69,1.74-.38,1.05-1.07ZM390.93,497.15s-.02,0,0,0c0,0,0,0,0,0Z"/><path class="cls-1" d="M394.13,509.59c.12-2.41.29-5.11,2.27-6.74.57-.47-.06-1.51-.74-1.27-1.82.63-3.64-.89-5.39-1.24-.51-.1-.85.27-.91.67-.13-.23-.26-.45-.39-.68-.49-.85-1.79-.1-1.3.75,1.68,2.96,3.37,5.92,5.05,8.88.39.68,1.37.36,1.4-.36ZM389.9,501.8c1.44.29,2.79,1.13,4.22,1.37-.74,1.16-1.1,2.53-1.28,3.94l-3.05-5.36s.07.04.11.05Z"/><path class="cls-1" d="M394.95,507.28c.23.35.66.49,1.03.29.21-.12.42-.23.64-.33.11-.05.22-.1.33-.15.04-.02.09-.04.13-.05.02,0,.05-.02.07-.03.45-.17.91-.32,1.37-.43.38-.09.65-.53.53-.92-.12-.4-.51-.65-.92-.55-1.02.25-2,.63-2.91,1.14-.34.19-.49.69-.27,1.04Z"/><path class="cls-1" d="M400.72,509.16c-.22-.38-.66-.46-1.03-.29-2.08.99-4.21,1.89-6.37,2.7-.38.14-.65.5-.53.92.1.37.54.69.92.55,2.29-.85,4.54-1.8,6.75-2.85.37-.17.46-.7.27-1.04Z"/><path class="cls-1" d="M401.12,511.59c-.22-.39-.89-.56-1.19-.16-.3.4-.31.75-.3,1.24.01.32.02.64.03.96-.39.15-.68.58-.41,1.06.73,1.3,1.41,2.65,2.2,3.92.2.32.46.55.84.6.36.05.69-.1,1.01-.23.7-.27,1.36-.61,1.99-1.02.37-.25.55-.86.14-1.2-1.75-1.45-3.21-3.2-4.32-5.19ZM402.96,517.51c-.1.04-.19.07-.29.11-.02,0-.04.01-.06.02,0-.01-.02-.03-.02-.04-.08-.14-.15-.27-.23-.41l-1.44-2.57c.09-.07.16-.15.21-.26.74,1.02,1.59,1.96,2.51,2.82-.22.12-.45.23-.68.33Z"/><path class="cls-1" d="M398.45,514.2c-.14-.47-.68-.72-1.11-.48-.56.32-1.12.64-1.68.96-.84.48-.08,1.8.76,1.32.3-.17.59-.34.89-.51.6,1.67,1.45,3.23,2.32,4.78.48.86,1.78.11,1.3-.75-.96-1.71-1.93-3.43-2.48-5.33Z"/><path class="cls-1" d="M326.81,388.64c-.87-1.43-1.68-2.9-2.44-4.39-.18-.36-.7-.5-1.03-.29-.36.23-.46.65-.27,1.04.76,1.49,1.57,2.96,2.44,4.39.21.34.68.51,1.03.29.34-.22.49-.67.27-1.04Z"/><path class="cls-1" d="M327.87,388.76c.35.25.58.64.69,1.04.14.53-.17,1.18.17,1.62.4.53,1.23.46,1.8.32.21-.05.41-.12.61-.21,0,1.33-.41,2.62-1.16,3.71-.42.62.44,1.44,1.04,1.04.47-.31.8-.71,1.12-1.16.24-.33.46-.74.83-.95.36-.21.84-.16,1.24-.21.56-.06,1.07-.22,1.46-.64.65-.71-.42-1.79-1.08-1.08-.24.26-.66.22-.99.25-.36.03-.71.08-1.04.2.12-.83.11-1.69-.03-2.53-.08-.5-.72-.7-1.11-.48-.37.21-.85.52-1.33.6-.02-1.13-.49-2.15-1.48-2.86-.33-.24-.84-.05-1.03.28-.21.38-.05.8.29,1.04Z"/><path class="cls-1" d="M334.65,401.72c-.49-.85-1.79-.1-1.3.75.49.85,1.79.1,1.3-.75Z"/><path class="cls-1" d="M346.3,421.7c.49-.48.58-1.28.72-1.93.28-1.35.44-2.81-.06-4.14-.19-.5-.45-1.08-.93-1.36-.26-.15-.58-.2-.87-.15-.39.07-.61.4-.96.5-.01,0-.03,0-.04,0,0-.01.02-.03.02-.04.58-1.36.63-3.17.34-4.62-.29-1.48-1.31-2.67-2.83-2.88-.96-.13-.95,1.39,0,1.52,1.78.24,1.56,3.32,1.34,4.53-.03.16-.09.4-.17.65-.36-.45-.67-.95-1.12-1.33-.39-.33-.92-.66-1.45-.62-.68.05-1.06.75-1.06,1.39,0,1.09.95,2.31,1.87,2.83.75.43,1.46.29,2.03-.13.25.12.51.21.78.23.36.03.72-.04,1.04-.21.12-.06.27-.15.38-.24.04.07.09.14.12.22.38.82.37,1.77.25,2.64-.07.51-.18,1.01-.3,1.51-.02.09-.06.2-.07.29,0,.02,0,.02,0,.04-.17-.12-.41-.21-.57-.31-.72-.43-1.41-.91-2.09-1.41.57-.31,1.17-.56,1.82-.75.93-.26.54-1.74-.39-1.47-1.09.31-2.11.78-3.05,1.42-1.26-2.05-2.48-4.13-3.68-6.22.24.29.64.48.99.24,1.41-.96,2.08-2.52,2.32-4.18.24-1.67.39-3.48.26-5.17-.14-1.68-.68-3.46-2-4.61-1.11-.96-2.67-1.41-4.06-.91-.12.04-.22.11-.29.19-.41-.51-.92-.96-1.53-.91-1,.08-1.3,1.21-1.35,2.05-.02.37.03.79.04,1.21-1-1.85-2.39-3.43-4.11-4.69-.79-.58-1.52.74-.74,1.31,1.88,1.37,3.36,3.3,4.2,5.48.22.57.8.74,1.27.35,1.04-.87.83-2.23.85-3.45,0-.13,0-.26.02-.39,0-.05.03-.11.04-.16.07.09.16.18.17.2.13.15.26.31.38.48.46.63.83,1.33,1.21,2.01.37.68.75,1.35,1.12,2.03.35.63.89,1.33,1.11,2.02.1.32-.1.44-.35.59-.02,0-.1.05-.18.09-.05-.08-.1-.15-.15-.23-.43-.69-.81-1.41-1.16-2.14-.42-.89-1.72-.13-1.3.75.26.55.54,1.09.84,1.62.25.43.5.97.88,1.31.12.11.26.18.4.23.02.06.03.13.07.19.43.74.62,1.5.6,2.35-.01.55-.03,1.09.15,1.59-.74-1.3-1.48-2.6-2.2-3.91-.47-.86-1.77-.11-1.3.75,1.99,3.65,4.08,7.25,6.26,10.79.22.36.59.42.89.31.03.03.05.07.09.1,1.22.98,2.52,1.95,3.91,2.65.54.28,1.12.36,1.59-.1ZM341.03,413.93c-.04-.06-.09-.13-.13-.2.11.11.21.22.3.34.13.16.25.33.38.5-.21-.18-.4-.42-.55-.64ZM336.91,401.03c-.48-.86-.94-1.74-1.48-2.58.99-.28,2.02.07,2.74.84.97,1.04,1.25,2.53,1.28,3.9.03,1.32-.07,2.69-.23,4-.11.9-.34,1.86-.86,2.6,0-.38.05-.78,0-1.12-.08-.72-.31-1.39-.65-2.02.14-.09.28-.19.4-.29.72-.61.83-1.48.43-2.32-.48-1.03-1.1-2.01-1.64-3Z"/><path class="cls-1" d="M348.3,428.51c-.53-.53-1-1.09-1.45-1.68.34-.11.67-.26.98-.43.4-.21.82-.47,1.25-.65.35.54.59,1.15.79,1.75.14.42.26.84.4,1.26.14.44.28.93.51,1.32.27.47.8.69,1.31.51.45-.16.89-.37,1.32-.57.84-.39,1.67-.82,2.47-1.28.84-.48.08-1.8-.76-1.32-.72.41-1.46.8-2.22,1.16-.32.15-.63.29-.95.43-.03-.09-.07-.17-.1-.26-.43-1.23-.74-2.49-1.39-3.6.09-.15.13-.33.08-.54-.29-1.2-.65-2.38-1.04-3.54.04-.13.05-.26,0-.39-.15-.43-.33-.85-.57-1.24-.2-.32-.59-.47-.94-.32-.31.13-.57.52-.44.89.52,1.39.95,2.8,1.32,4.23-.49.15-.95.38-1.41.63-.62.34-1.23.71-1.97.62-.56-.07-.95.68-.65,1.14.7,1.07,1.5,2.06,2.4,2.96.69.69,1.74-.38,1.05-1.07ZM351.66,429.14s-.02,0,0,0c0,0,0,0,0,0Z"/><path class="cls-1" d="M354.87,441.59c.12-2.41.29-5.11,2.27-6.74.57-.47-.06-1.51-.74-1.27-1.82.63-3.64-.89-5.39-1.24-.51-.1-.85.27-.91.68-.13-.23-.26-.45-.39-.68-.49-.85-1.79-.1-1.3.75,1.68,2.96,3.37,5.92,5.05,8.88.39.68,1.37.36,1.4-.37ZM350.63,433.79c1.44.29,2.79,1.13,4.22,1.37-.74,1.16-1.1,2.53-1.28,3.94-1.02-1.79-2.03-3.57-3.05-5.36.04.01.07.04.11.05Z"/><path class="cls-1" d="M355.69,439.27c.23.35.66.49,1.03.29.21-.12.42-.23.64-.33.11-.05.22-.1.33-.15.04-.02.08-.04.13-.05.02,0,.05-.02.07-.03.45-.17.91-.32,1.37-.43.38-.09.65-.53.53-.92-.12-.4-.51-.65-.92-.55-1.02.25-2,.63-2.91,1.14-.34.19-.49.69-.27,1.04Z"/><path class="cls-1" d="M361.45,441.15c-.22-.38-.66-.46-1.03-.29-2.08.99-4.21,1.89-6.37,2.7-.38.14-.65.5-.53.92.1.37.54.69.92.55,2.29-.85,4.54-1.8,6.75-2.85.37-.17.46-.7.27-1.04Z"/><path class="cls-1" d="M363.03,451.22c.36.05.69-.1,1.01-.23.7-.27,1.36-.61,1.99-1.02.37-.25.55-.86.14-1.2-1.75-1.45-3.21-3.2-4.32-5.19-.22-.39-.89-.56-1.19-.16-.3.4-.31.75-.3,1.24.01.32.02.64.03.96-.39.15-.68.58-.41,1.06.73,1.3,1.41,2.65,2.2,3.92.2.32.46.55.84.6ZM361.66,446.61c.09-.07.16-.15.21-.26.74,1.02,1.59,1.96,2.51,2.82-.22.12-.45.23-.68.33-.1.04-.19.07-.29.11-.02,0-.04.01-.06.02,0-.01-.02-.03-.02-.04-.08-.14-.15-.27-.23-.41-.48-.86-.96-1.71-1.44-2.57Z"/><path class="cls-1" d="M359.19,446.2c-.14-.47-.68-.72-1.11-.48-.56.32-1.12.64-1.68.96-.84.48-.08,1.8.76,1.32.3-.17.59-.34.89-.51.6,1.67,1.45,3.23,2.32,4.78.48.86,1.78.11,1.3-.75-.96-1.71-1.93-3.43-2.48-5.33Z"/><path class="cls-1" d="M414.35,528.06l-91.77-158.95h183.54l-91.77,158.95ZM329.51,373.11l84.84,146.95,84.84-146.95h-169.68Z"/><path class="cls-1" d="M414.35,139.06c-9.17,0-16.63-7.46-16.63-16.63s7.46-16.63,16.63-16.63,16.63,7.46,16.63,16.63-7.46,16.63-16.63,16.63ZM414.35,109.8c-6.96,0-12.63,5.67-12.63,12.63s5.67,12.63,12.63,12.63,12.63-5.67,12.63-12.63-5.67-12.63-12.63-12.63Z"/><rect class="cls-1" x="399.72" y="120.43" width="29.26" height="4"/><rect class="cls-1" x="412.35" y="107.8" width="4" height="29.26"/><path class="cls-1" d="M671.49,585.15c-2.97,0-5.9-.8-8.52-2.37-7.86-4.71-10.43-14.95-5.71-22.81,4.71-7.86,14.95-10.43,22.81-5.71,7.86,4.71,10.43,14.95,5.71,22.81h0c-2.28,3.81-5.91,6.5-10.22,7.58-1.35.34-2.71.5-4.07.5ZM671.54,555.89c-4.3,0-8.49,2.19-10.85,6.13-3.58,5.97-1.63,13.75,4.34,17.33,2.89,1.73,6.29,2.24,9.56,1.42,3.27-.82,6.03-2.86,7.76-5.76h0c3.58-5.97,1.63-13.75-4.34-17.33-2.03-1.22-4.26-1.79-6.47-1.79Z"/><rect class="cls-1" x="656.89" y="566.51" width="29.26" height="4" transform="translate(-161.36 852.15) rotate(-59.06)"/><rect class="cls-1" x="669.52" y="553.88" width="4" height="29.26" transform="translate(-161.36 852.16) rotate(-59.06)"/><path class="cls-1" d="M157.21,555.15c-1.36,0-2.72-.17-4.07-.5-4.31-1.08-7.94-3.77-10.22-7.58-4.71-7.86-2.15-18.1,5.71-22.81,7.86-4.71,18.1-2.15,22.81,5.71,4.71,7.87,2.15,18.1-5.71,22.81-2.62,1.57-5.55,2.37-8.52,2.37ZM157.16,525.89c-2.21,0-4.44.58-6.47,1.79-5.97,3.58-7.92,11.35-4.34,17.33h0c1.73,2.89,4.49,4.94,7.76,5.76,3.27.82,6.67.32,9.56-1.42,5.97-3.58,7.92-11.35,4.34-17.33-2.36-3.94-6.56-6.13-10.85-6.13Z"/><rect class="cls-1" x="155.19" y="523.88" width="4" height="29.26" transform="translate(-254.51 157.45) rotate(-30.94)"/><rect class="cls-1" x="142.56" y="536.51" width="29.26" height="4" transform="translate(-254.47 157.41) rotate(-30.93)"/><path class="cls-1" d="M424.37,255.71v-1h-19.91v1s6.97.98,7.46,5.53v188.69c-.48,4.55-7.46,5.53-7.46,5.53v1h19.91v-1s-6.98-.98-7.46-5.54v-188.68c.48-4.55,7.46-5.54,7.46-5.54Z"/><path class="cls-1" d="M445.01,419.79s-1,7.98-5.59,8.83h-50.15c-4.59-.85-5.59-8.83-5.59-8.83h-3.06v23.66h3.06s1-7.98,5.58-8.83h50.16c4.58.85,5.58,8.83,5.58,8.83h3.06v-23.66h-3.06Z"/><path class="cls-1" d="M445.01,389.59s-1,7.98-5.58,8.83h-50.15c-4.59-.85-5.58-8.83-5.58-8.83h-3.06v23.66h3.06s1-7.98,5.58-8.83h50.16c4.58.85,5.58,8.83,5.58,8.83h3.06v-23.66h-3.06Z"/><path class="cls-1" d="M231.81,663.17v36.04c0-4.83,8.31-4.83,8.31,0v-36.04c0,4.83-8.31,4.83-8.31,0Z"/><path class="cls-1" d="M588.58,663.17v36.04c0-4.83,8.31-4.83,8.31,0v-36.04c0,4.83-8.31,4.83-8.31,0Z"/><path class="cls-1" d="M549.52,655.65c2.9,0,5.69.49,8.28,1.38-.79-.08-1.6-.12-2.41-.12-13.39,0-24.24,10.85-24.24,24.24,0,13.39,10.85,24.24,24.24,24.24.81,0,1.62-.04,2.41-.12-2.6.89-5.38,1.38-8.28,1.38-14.09,0-25.51-11.42-25.51-25.51,0-14.09,11.42-25.51,25.51-25.51Z"/><path class="cls-1" d="M498.51,655.65c-2.9,0-5.69.49-8.28,1.38.79-.08,1.6-.12,2.41-.12,13.39,0,24.24,10.85,24.24,24.24,0,13.39-10.85,24.24-24.24,24.24-.81,0-1.62-.04-2.41-.12,2.6.89,5.38,1.38,8.28,1.38,14.09,0,25.51-11.42,25.51-25.51,0-14.09-11.42-25.51-25.51-25.51Z"/><rect class="cls-1" x="235.96" y="676.2" width="356.78" height="10"/><path class="cls-1" d="M405.14,630.78c-9.32-5.99-20.41-9.48-32.31-9.48-33.08,0-59.9,26.82-59.9,59.9,0,33.08,26.82,59.9,59.9,59.9,11.91,0,22.99-3.49,32.31-9.48-11.46,9.64-26.23,15.45-42.38,15.45-36.38,0-65.87-29.49-65.87-65.87,0-36.38,29.49-65.87,65.87-65.87,16.14,0,30.92,5.82,42.38,15.45Z"/><path class="cls-1" d="M434.08,656.08c.85-4.58,8.83-5.58,8.83-5.58v-3.06h-23.66v3.06s7.98,1,8.83,5.58v50.15c-.85,4.58-8.83,5.58-8.83,5.58v3.06h23.66v-3.06s-7.98-1-8.83-5.58v-50.15Z"/><path class="cls-1" d="M290.9,131.51l-31.17-18.11c4.17,2.42,0,9.61-4.18,7.19l31.17,18.11c-4.17-2.42,0-9.61,4.18-7.19Z"/><path class="cls-1" d="M111.68,440.01l-31.17-18.11c4.17,2.42,0,9.61-4.18,7.19l31.17,18.11c-4.17-2.42,0-9.61,4.18-7.19Z"/><path class="cls-1" d="M137.81,410.01c-1.46,2.51-3.28,4.67-5.36,6.47.47-.65.91-1.32,1.32-2.02,6.73-11.58,2.79-26.41-8.78-33.14-11.58-6.73-26.41-2.79-33.14,8.78-.41.7-.78,1.42-1.11,2.15.53-2.69,1.51-5.35,2.97-7.86,7.08-12.18,22.69-16.32,34.87-9.24,12.18,7.08,16.32,22.69,9.24,34.87Z"/><path class="cls-1" d="M163.43,365.9c1.46-2.51,2.43-5.16,2.97-7.86-.33.73-.7,1.44-1.11,2.15-6.73,11.58-21.56,15.51-33.14,8.78-11.58-6.73-15.51-21.56-8.78-33.14.41-.7.85-1.38,1.32-2.02-2.08,1.8-3.9,3.96-5.36,6.47-7.08,12.18-2.94,27.79,9.24,34.87,12.18,7.08,27.79,2.94,34.87-9.24Z"/><rect class="cls-1" x="5.23" y="275.3" width="356.78" height="10" transform="translate(-150.99 298.26) rotate(-59.84)"/><path class="cls-1" d="M231.84,297.67c9.86-5.05,18.45-12.89,24.43-23.18,16.62-28.6,6.9-65.26-21.7-81.88-28.6-16.62-65.26-6.9-81.88,21.7-5.98,10.29-8.53,21.63-8.04,32.7-2.58-14.75-.18-30.45,7.93-44.4,18.28-31.46,58.59-42.14,90.05-23.87,31.46,18.28,42.14,58.59,23.87,90.05-8.11,13.96-20.56,23.81-34.65,28.88Z"/><path class="cls-1" d="M207.7,299.96s-4.84,6.37-9.22,4.85l-43.4-25.22c-3.54-3.04-.4-10.44-.4-10.44l-2.65-1.54-11.89,20.46,2.65,1.54s4.84-6.37,9.22-4.85l43.4,25.22c3.54,3.04.4,10.44.4,10.44l2.65,1.54,11.89-20.46-2.65-1.54Z"/><path class="cls-1" d="M721.16,447.59l31.19-18.07c-4.18,2.42-8.34-4.78-4.17-7.19l-31.19,18.07c4.18-2.42,8.34,4.78,4.17,7.19Z"/><path class="cls-1" d="M542.33,138.87l31.19-18.07c-4.18,2.42-8.34-4.78-4.17-7.19l-31.19,18.07c4.18-2.42,8.34,4.78,4.17,7.19Z"/><path class="cls-1" d="M555.4,176.44c-1.45-2.51-2.42-5.17-2.96-7.86.33.73.7,1.44,1.1,2.15,6.71,11.59,21.54,15.54,33.13,8.83,11.59-6.71,15.54-21.54,8.83-33.13-.41-.7-.85-1.38-1.31-2.03,2.07,1.8,3.9,3.96,5.35,6.47,7.06,12.19,2.9,27.79-9.29,34.85-12.19,7.06-27.79,2.9-34.85-9.29Z"/><path class="cls-1" d="M580.97,220.58c1.45,2.51,3.27,4.67,5.35,6.47-.47-.65-.9-1.32-1.31-2.03-6.71-11.59-2.76-26.42,8.83-33.13,11.59-6.71,26.42-2.76,33.13,8.83.41.7.77,1.42,1.1,2.15-.53-2.7-1.5-5.35-2.96-7.86-7.06-12.19-22.67-16.35-34.85-9.29-12.19,7.06-16.35,22.67-9.29,34.85Z"/><rect class="cls-1" x="640.26" y="102.21" width="10" height="356.78" transform="translate(-53.74 361.21) rotate(-30.08)"/><path class="cls-1" d="M606.24,313.84c-.51,11.07,2.03,22.41,8,32.71,16.58,28.62,53.23,38.39,81.85,21.81,28.62-16.58,38.39-53.23,21.81-81.85-5.97-10.3-14.54-18.14-24.4-23.21,14.08,5.08,26.52,14.95,34.61,28.92,18.23,31.48,7.5,71.78-23.98,90.02-31.48,18.23-71.78,7.5-90.02-23.98-8.09-13.97-10.47-29.67-7.87-44.41Z"/><path class="cls-1" d="M660.09,239l-2.65,1.54s3.14,7.41-.4,10.44l-43.44,25.16c-4.38,1.51-9.22-4.87-9.22-4.87l-2.65,1.54,11.86,20.47,2.65-1.54s-3.14-7.41.41-10.44l43.44-25.16c4.38-1.51,9.22,4.87,9.22,4.87l2.65-1.54-11.86-20.47Z"/></g></svg>