<?xml version="1.0" encoding="UTF-8"?><svg id="Layer_1" xmlns="http://www.w3.org/2000/svg" viewBox="0 0 1290.41 46"><defs><style>.cls-1{fill:#fff;}</style></defs><g id="Ruler_3"><path class="cls-1" d="M428.85,10.5s-1.34,9.42-7.71,9.42H54.94c-6.38,0-7.71-9.42-7.71-9.42h-1.29v25h1.29s1.34-9.42,7.71-9.42h366.2c6.38,0,7.71,9.42,7.71,9.42h1.29V10.5h-1.29Z"/><path class="cls-1" d="M23,0C10.32,0,0,10.32,0,23s10.32,23,23,23,23-10.32,23-23S35.68,0,23,0ZM39.72,20h-13.72V6.28c6.97,1.25,12.47,6.75,13.72,13.72ZM20,6.28v13.72H6.28c1.25-6.97,6.75-12.47,13.72-13.72ZM6.28,26h13.72v13.72c-6.97-1.25-12.47-6.75-13.72-13.72ZM26,39.72v-13.72h13.72c-1.25,6.97-6.75,12.47-13.72,13.72Z"/><path class="cls-1" d="M858.99,10.5s-1.34,9.42-7.71,9.42h-366.2c-6.38,0-7.71-9.42-7.71-9.42h-1.29v25h1.29s1.34-9.42,7.71-9.42h366.2c6.38,0,7.71,9.42,7.71,9.42h1.29V10.5h-1.29Z"/><path class="cls-1" d="M453.14,0c-12.68,0-23,10.32-23,23s10.32,23,23,23,23-10.32,23-23S465.82,0,453.14,0ZM469.86,20h-13.72V6.28c6.97,1.25,12.47,6.75,13.72,13.72ZM450.14,6.28v13.72h-13.72c1.25-6.97,6.75-12.47,13.72-13.72ZM436.42,26h13.72v13.72c-6.97-1.25-12.47-6.75-13.72-13.72ZM456.14,39.72v-13.72h13.72c-1.25,6.97-6.75,12.47-13.72,13.72Z"/><path class="cls-1" d="M1289.13,10.5s-1.34,9.42-7.71,9.42h-366.2c-6.38,0-7.71-9.42-7.71-9.42h-1.29v25h1.29s1.34-9.42,7.71-9.42h366.2c6.38,0,7.71,9.42,7.71,9.42h1.29V10.5h-1.29Z"/><path class="cls-1" d="M883.27,0c-12.68,0-23,10.32-23,23s10.32,23,23,23,23-10.32,23-23-10.32-23-23-23ZM899.99,20h-13.72V6.28c6.97,1.25,12.47,6.75,13.72,13.72ZM880.27,6.28v13.72h-13.72c1.25-6.97,6.75-12.47,13.72-13.72ZM866.56,26h13.72v13.72c-6.97-1.25-12.47-6.75-13.72-13.72ZM886.27,39.72v-13.72h13.72c-1.25,6.97-6.75,12.47-13.72,13.72Z"/></g></svg>