<?xml version="1.0" encoding="UTF-8"?><svg id="Layer_1" xmlns="http://www.w3.org/2000/svg" viewBox="0 0 1298.2 48.51"><defs><style>.cls-1{fill:#fff;}</style></defs><g id="Ruler_7"><path class="cls-1" d="M432.73,6.41V0h-193.61s4.89,5.72,5.51,13.37c.41,5.02-1.21,11.53-4.9,15.54-5.81,6.29-14.12,10.24-23.36,10.24s-17.55-3.94-23.36-10.24c-3.69-4.01-5.31-10.51-4.9-15.54C188.73,5.72,193.61,0,193.61,0H0s0,6.41,0,6.41h184.07c-.06.24-.23.91-.23.91-.59,2.49-.92,5.08-.92,7.75,0,18.47,14.97,33.44,33.44,33.44s33.44-14.97,33.44-33.44c0-2.67-.32-5.26-.92-7.75,0,0-.16-.67-.23-.91h184.07Z"/><polygon class="cls-1" points="315.14 12.78 315.14 14.54 245.86 14.54 245.86 18.54 315.14 18.54 315.14 20.31 317.54 20.31 317.54 12.78 315.14 12.78"/><polygon class="cls-1" points="186.88 14.54 117.59 14.54 117.59 12.78 115.19 12.78 115.19 20.31 117.59 20.31 117.59 18.54 186.88 18.54 186.88 14.54"/><path class="cls-1" d="M229.11,15.44h-4.74L233.25.04h-34.03l8.89,15.4h-4.74c-1.69-.31-2.05-3.25-2.05-3.25h-1.13v8.7h1.13s.37-2.94,2.05-3.25h6.02l6.85,11.86,6.85-11.86h6.02c1.69.31,2.05,3.25,2.05,3.25h1.13v-8.7h-1.13s-.37,2.94-2.05,3.25ZM206.15,4.04h20.17l-6.58,11.4h-7.01s-6.58-11.4-6.58-11.4ZM216.24,21.51l-2.23-3.86h4.46l-2.23,3.86Z"/><path class="cls-1" d="M865.47,6.41V0h-193.61s4.89,5.72,5.51,13.37c.41,5.02-1.21,11.53-4.9,15.54-5.81,6.29-14.12,10.24-23.36,10.24s-17.55-3.94-23.36-10.24c-3.69-4.01-5.31-10.51-4.9-15.54C621.46,5.72,626.34,0,626.34,0h-193.61s0,6.41,0,6.41h184.07c-.06.24-.23.91-.23.91-.59,2.49-.92,5.08-.92,7.75,0,18.47,14.97,33.44,33.44,33.44s33.44-14.97,33.44-33.44c0-2.67-.32-5.26-.92-7.75,0,0-.16-.67-.23-.91h184.07Z"/><polygon class="cls-1" points="747.87 12.78 747.87 14.54 678.59 14.54 678.59 18.54 747.87 18.54 747.87 20.31 750.27 20.31 750.27 12.78 747.87 12.78"/><polygon class="cls-1" points="619.61 14.54 550.33 14.54 550.33 12.78 547.92 12.78 547.92 20.31 550.33 20.31 550.33 18.54 619.61 18.54 619.61 14.54"/><path class="cls-1" d="M661.84,15.44h-4.74L665.98.04h-34.03l8.89,15.4h-4.74c-1.69-.31-2.05-3.25-2.05-3.25h-1.13v8.7h1.13s.37-2.94,2.05-3.25h6.02l6.85,11.86,6.85-11.86h6.02c1.69.31,2.05,3.25,2.05,3.25h1.13v-8.7h-1.13s-.37,2.94-2.05,3.25ZM638.88,4.04h20.17l-6.58,11.4h-7.01s-6.58-11.4-6.58-11.4ZM648.97,21.51l-2.23-3.86h4.46l-2.23,3.86Z"/><path class="cls-1" d="M1298.2,6.41V0h-193.61s4.89,5.72,5.51,13.37c.41,5.02-1.21,11.53-4.9,15.54-5.81,6.29-14.12,10.24-23.36,10.24s-17.55-3.94-23.36-10.24c-3.69-4.01-5.31-10.51-4.9-15.54C1054.19,5.72,1059.08,0,1059.08,0h-193.61s0,6.41,0,6.41h184.07c-.06.24-.23.91-.23.91-.59,2.49-.92,5.08-.92,7.75,0,18.47,14.97,33.44,33.44,33.44s33.44-14.97,33.44-33.44c0-2.67-.32-5.26-.92-7.75,0,0-.16-.67-.23-.91h184.07Z"/><polygon class="cls-1" points="1180.6 12.78 1180.6 14.54 1111.32 14.54 1111.32 18.54 1180.6 18.54 1180.6 20.31 1183.01 20.31 1183.01 12.78 1180.6 12.78"/><polygon class="cls-1" points="1052.34 14.54 983.06 14.54 983.06 12.78 980.66 12.78 980.66 20.31 983.06 20.31 983.06 18.54 1052.34 18.54 1052.34 14.54"/><path class="cls-1" d="M1094.57,15.44h-4.74L1098.72.04h-34.03l8.89,15.4h-4.74c-1.69-.31-2.05-3.25-2.05-3.25h-1.13v8.7h1.13s.37-2.94,2.05-3.25h6.02l6.85,11.86,6.85-11.86h6.02c1.69.31,2.05,3.25,2.05,3.25h1.13v-8.7h-1.13s-.37,2.94-2.05,3.25ZM1071.62,4.04h20.17l-6.58,11.4h-7.01s-6.58-11.4-6.58-11.4ZM1081.7,21.51l-2.23-3.86h4.46l-2.23,3.86Z"/></g></svg>