<?xml version="1.0" encoding="UTF-8"?><svg id="Layer_1" xmlns="http://www.w3.org/2000/svg" viewBox="0 0 1285.86 48.91"><defs><style>.cls-1{fill:#fff;}</style></defs><g id="Ruler_1"><path class="cls-1" d="M384.45,10.11c.85-4.58,8.83-5.58,8.83-5.58V1.47h-23.66v3.06s7.98,1,8.83,5.59v30.15c-.85,4.59-8.83,5.59-8.83,5.59v3.06h23.66v-3.06s-7.98-1-8.83-5.58V10.11Z"/><path class="cls-1" d="M50.17,10.11c.85-4.58,8.83-5.58,8.83-5.58V1.47h-23.66v3.06s7.98,1,8.83,5.58v30.15c-.85,4.59-8.83,5.58-8.83,5.58v3.06h23.66v-3.06s-7.98-1-8.83-5.58V10.11Z"/><path class="cls-1" d="M393.77,20.68H34.85C10.85,20.68,0,0,0,0v7.7c16.34,13.28,14.3,29.96,14.3,29.96,0,0,13.62-7.66,27.91-7.66h344.19c14.3,0,27.92,7.66,27.92,7.66,0,0-2.04-16.68,14.3-29.96V0s-10.85,20.68-34.85,20.68Z"/><path class="cls-1" d="M813.07,10.11c.85-4.58,8.83-5.58,8.83-5.58V1.47h-23.66v3.06s7.98,1,8.83,5.59v30.15c-.85,4.59-8.83,5.59-8.83,5.59v3.06h23.66v-3.06s-7.98-1-8.83-5.58V10.11Z"/><path class="cls-1" d="M478.79,10.11c.85-4.58,8.83-5.58,8.83-5.58V1.47h-23.66v3.06s7.98,1,8.83,5.58v30.15c-.85,4.59-8.83,5.58-8.83,5.58v3.06h23.66v-3.06s-7.98-1-8.83-5.58V10.11Z"/><path class="cls-1" d="M822.39,20.68h-358.92c-24,0-34.85-20.68-34.85-20.68v7.7c16.34,13.28,14.3,29.96,14.3,29.96,0,0,13.62-7.66,27.91-7.66h344.19c14.3,0,27.92,7.66,27.92,7.66,0,0-2.04-16.68,14.3-29.96V0s-10.85,20.68-34.85,20.68Z"/><path class="cls-1" d="M1241.69,10.11c.85-4.58,8.83-5.58,8.83-5.58V1.47h-23.66v3.06s7.98,1,8.83,5.59v30.15c-.85,4.59-8.83,5.59-8.83,5.59v3.06h23.66v-3.06s-7.98-1-8.83-5.58V10.11Z"/><path class="cls-1" d="M907.41,10.11c.85-4.58,8.83-5.58,8.83-5.58V1.47h-23.66v3.06s7.98,1,8.83,5.58v30.15c-.85,4.59-8.83,5.58-8.83,5.58v3.06h23.66v-3.06s-7.98-1-8.83-5.58V10.11Z"/><path class="cls-1" d="M1251.01,20.68h-358.92c-24,0-34.85-20.68-34.85-20.68v7.7c16.34,13.28,14.3,29.96,14.3,29.96,0,0,13.62-7.66,27.91-7.66h344.19c14.3,0,27.92,7.66,27.92,7.66,0,0-2.04-16.68,14.3-29.96V0s-10.85,20.68-34.85,20.68Z"/></g></svg>