<?xml version="1.0" encoding="UTF-8"?><svg id="Layer_1" xmlns="http://www.w3.org/2000/svg" viewBox="0 0 1294.83 25"><defs><style>.cls-1{fill:#fff;}</style></defs><g id="Ruler_5"><path class="cls-1" d="M425.69,0s-1.34,9.42-7.71,9.42c-.22,0-.41.02-.61.04v-.04H9.61v.04c-.2-.01-.39-.04-.61-.04C2.62,9.42,1.29,0,1.29,0H0v25h1.29s1.34-9.42,7.71-9.42c.22,0,.41-.02.61-.04v.04h407.75v-.04c.2.01.39.04.61.04,6.38,0,7.71,9.42,7.71,9.42h1.29V0h-1.29Z"/><path class="cls-1" d="M859.62,0s-1.34,9.42-7.71,9.42c-.22,0-.41.02-.61.04v-.04h-407.75v.04c-.2-.01-.39-.04-.61-.04-6.38,0-7.71-9.42-7.71-9.42h-1.29v25h1.29s1.34-9.42,7.71-9.42c.22,0,.41-.02.61-.04v.04h407.75v-.04c.2.01.39.04.61.04,6.38,0,7.71,9.42,7.71,9.42h1.29V0h-1.29Z"/><path class="cls-1" d="M1293.54,0s-1.34,9.42-7.71,9.42c-.22,0-.41.02-.61.04v-.04h-407.75v.04c-.2-.01-.39-.04-.61-.04-6.38,0-7.71-9.42-7.71-9.42h-1.29v25h1.29s1.34-9.42,7.71-9.42c.22,0,.41-.02.61-.04v.04h407.75v-.04c.2.01.39.04.61.04,6.38,0,7.71,9.42,7.71,9.42h1.29V0h-1.29Z"/></g></svg>