<?xml version="1.0" encoding="UTF-8"?><svg id="Layer_1" xmlns="http://www.w3.org/2000/svg" viewBox="0 0 1298.2 46"><defs><style>.cls-1{fill:#fff;}</style></defs><g id="Ruler_8"><path class="cls-1" d="M45.12,2.34v-1.06h-23.66v1.06s7.98,1,8.83,5.58v30.16c-.85,4.58-8.83,5.58-8.83,5.58v1.06h23.66v-1.06s-7.98-1-8.83-5.59V7.93c.85-4.59,8.83-5.59,8.83-5.59Z"/><path class="cls-1" d="M411.27,2.34v-1.06h-23.66v1.06s7.98,1,8.83,5.59v30.15c-.85,4.59-8.83,5.59-8.83,5.59v1.06h23.66v-1.06s-7.98-1-8.83-5.58V7.92c.85-4.58,8.83-5.58,8.83-5.58Z"/><path class="cls-1" d="M431.67,11.17s-1,7.98-5.58,8.83H6.65c-4.58-.85-5.58-8.83-5.58-8.83H0v23.66h1.06s1-7.98,5.58-8.83h419.44c4.58.85,5.58,8.83,5.58,8.83h1.06V11.17h-1.06Z"/><path class="cls-1" d="M79.09,46c-12.68,0-23-10.32-23-23S66.41,0,79.09,0s23,10.32,23,23-10.32,23-23,23ZM79.09,6c-9.37,0-17,7.63-17,17s7.63,17,17,17,17-7.63,17-17-7.63-17-17-17Z"/><path class="cls-1" d="M355.61,6.62c1.86,0,3.64.31,5.3.88-.51-.05-1.02-.08-1.54-.08-8.56,0-15.51,6.94-15.51,15.51,0,8.56,6.94,15.51,15.51,15.51.52,0,1.03-.03,1.54-.08-1.66.57-3.44.88-5.3.88-9.01,0-16.31-7.3-16.31-16.31s7.3-16.31,16.31-16.31Z"/><path class="cls-1" d="M477.86,2.34v-1.06h-23.66v1.06s7.98,1,8.83,5.58v30.16c-.85,4.58-8.83,5.58-8.83,5.58v1.06h23.66v-1.06s-7.98-1-8.83-5.59V7.93c.85-4.59,8.83-5.59,8.83-5.59Z"/><path class="cls-1" d="M844,2.34v-1.06h-23.66v1.06s7.98,1,8.83,5.59v30.15c-.85,4.59-8.83,5.59-8.83,5.59v1.06h23.66v-1.06s-7.98-1-8.83-5.58V7.92c.85-4.58,8.83-5.58,8.83-5.58Z"/><path class="cls-1" d="M864.4,11.17s-1,7.98-5.58,8.83h-419.44c-4.58-.85-5.58-8.83-5.58-8.83h-1.06v23.66h1.06s1-7.98,5.58-8.83h419.44c4.58.85,5.58,8.83,5.58,8.83h1.06V11.17h-1.06Z"/><path class="cls-1" d="M511.83,46c-12.68,0-23-10.32-23-23S499.14,0,511.83,0s23,10.32,23,23-10.32,23-23,23ZM511.83,6c-9.37,0-17,7.63-17,17s7.63,17,17,17,17-7.63,17-17-7.63-17-17-17Z"/><path class="cls-1" d="M788.34,6.62c1.86,0,3.64.31,5.3.88-.51-.05-1.02-.08-1.54-.08-8.56,0-15.51,6.94-15.51,15.51s6.94,15.51,15.51,15.51c.52,0,1.03-.03,1.54-.08-1.66.57-3.44.88-5.3.88-9.01,0-16.31-7.3-16.31-16.31,0-9.01,7.3-16.31,16.31-16.31Z"/><path class="cls-1" d="M910.59,2.34v-1.06h-23.66v1.06s7.98,1,8.83,5.58v30.16c-.85,4.58-8.83,5.58-8.83,5.58v1.06h23.66v-1.06s-7.98-1-8.83-5.59V7.93c.85-4.59,8.83-5.59,8.83-5.59Z"/><path class="cls-1" d="M1276.73,2.34v-1.06h-23.66v1.06s7.98,1,8.83,5.59v30.15c-.85,4.59-8.83,5.59-8.83,5.59v1.06h23.66v-1.06s-7.98-1-8.83-5.58V7.92c.85-4.58,8.83-5.58,8.83-5.58Z"/><path class="cls-1" d="M1297.13,11.17s-1,7.98-5.58,8.83h-419.44c-4.58-.85-5.58-8.83-5.58-8.83h-1.06v23.66h1.06s1-7.98,5.58-8.83h419.44c4.58.85,5.58,8.83,5.58,8.83h1.06V11.17h-1.06Z"/><path class="cls-1" d="M944.56,46c-12.68,0-23-10.32-23-23s10.32-23,23-23,23,10.32,23,23-10.32,23-23,23ZM944.56,6c-9.37,0-17,7.63-17,17s7.63,17,17,17,17-7.63,17-17-7.63-17-17-17Z"/><path class="cls-1" d="M1221.07,6.62c1.86,0,3.64.31,5.3.88-.51-.05-1.02-.08-1.54-.08-8.56,0-15.51,6.94-15.51,15.51,0,8.56,6.94,15.51,15.51,15.51.52,0,1.03-.03,1.54-.08-1.66.57-3.44.88-5.3.88-9.01,0-16.31-7.3-16.31-16.31s7.3-16.31,16.31-16.31Z"/></g></svg>