<?xml version="1.0" encoding="UTF-8"?><svg id="Layer_1" xmlns="http://www.w3.org/2000/svg" viewBox="0 0 1309.98 42.17"><defs><style>.cls-1{fill:#fff;}</style></defs><g id="Ruler_2"><path class="cls-1" d="M396.09,4.09V1.83h-16.28v2.26s5.85.79,6.11,4.47v26.88c-.26,3.68-6.11,4.47-6.11,4.47v2.26h16.28v-2.26s-5.84-.79-6.11-4.46V8.55c.27-3.67,6.11-4.46,6.11-4.46Z"/><path class="cls-1" d="M56.8,4.09V1.83h-16.28v2.26s5.84.79,6.11,4.46v26.9c-.27,3.67-6.11,4.46-6.11,4.46v2.26h16.28v-2.26s-5.85-.79-6.11-4.47V8.56c.26-3.68,6.11-4.47,6.11-4.47Z"/><path class="cls-1" d="M423.62,0c-7.17,0-13,5.83-13,13,0,1.77.36,3.46,1,5H25c.64-1.54,1-3.23,1-5C26,5.83,20.17,0,13,0S0,5.83,0,13s5.83,13,13,13h410.62c7.17,0,13-5.83,13-13s-5.83-13-13-13ZM8,13c0-2.76,2.24-5,5-5s5,2.24,5,5-2.24,5-5,5-5-2.24-5-5ZM423.62,18c-2.76,0-5-2.24-5-5s2.24-5,5-5,5,2.24,5,5-2.24,5-5,5Z"/><path class="cls-1" d="M832.77,4.09V1.83h-16.28v2.26s5.85.79,6.11,4.47v26.88c-.26,3.68-6.11,4.47-6.11,4.47v2.26h16.28v-2.26s-5.84-.79-6.11-4.46V8.55c.27-3.67,6.11-4.46,6.11-4.46Z"/><path class="cls-1" d="M493.48,4.09V1.83h-16.28v2.26s5.84.79,6.11,4.46v26.9c-.27,3.67-6.11,4.46-6.11,4.46v2.26h16.28v-2.26s-5.85-.79-6.11-4.47V8.56c.26-3.68,6.11-4.47,6.11-4.47Z"/><path class="cls-1" d="M860.3,0c-7.17,0-13,5.83-13,13,0,1.77.36,3.46,1,5h-386.62c.64-1.54,1-3.23,1-5,0-7.17-5.83-13-13-13s-13,5.83-13,13,5.83,13,13,13h410.62c7.17,0,13-5.83,13-13s-5.83-13-13-13ZM444.68,13c0-2.76,2.24-5,5-5s5,2.24,5,5-2.24,5-5,5-5-2.24-5-5ZM860.3,18c-2.76,0-5-2.24-5-5s2.24-5,5-5,5,2.24,5,5-2.24,5-5,5Z"/><path class="cls-1" d="M1269.45,4.09V1.83h-16.28v2.26s5.85.79,6.11,4.47v26.88c-.26,3.68-6.11,4.47-6.11,4.47v2.26h16.28v-2.26s-5.84-.79-6.11-4.46V8.55c.27-3.67,6.11-4.46,6.11-4.46Z"/><path class="cls-1" d="M930.16,4.09V1.83h-16.28v2.26s5.84.79,6.11,4.46v26.9c-.27,3.67-6.11,4.46-6.11,4.46v2.26h16.28v-2.26s-5.85-.79-6.11-4.47V8.56c.26-3.68,6.11-4.47,6.11-4.47Z"/><path class="cls-1" d="M1296.98,0c-7.17,0-13,5.83-13,13,0,1.77.36,3.46,1,5h-386.62c.64-1.54,1-3.23,1-5,0-7.17-5.83-13-13-13s-13,5.83-13,13,5.83,13,13,13h410.62c7.17,0,13-5.83,13-13s-5.83-13-13-13ZM881.36,13c0-2.76,2.24-5,5-5s5,2.24,5,5-2.24,5-5,5-5-2.24-5-5ZM1296.98,18c-2.76,0-5-2.24-5-5s2.24-5,5-5,5,2.24,5,5-2.24,5-5,5Z"/></g></svg>