<?xml version="1.0" encoding="UTF-8"?><svg id="Layer_1" xmlns="http://www.w3.org/2000/svg" viewBox="0 0 1294.83 46.79"><defs><style>.cls-1{fill:#fff;}</style></defs><g id="Ruler_6"><path class="cls-1" d="M425.69,21.29s-1.34,9.61-7.71,9.61c-.35,0-179.03.06-179.03.06.32-1.62.49-3.3.49-5.01,0-14.31-11.64-25.95-25.95-25.95s-25.95,11.64-25.95,25.95c0,1.71.17,3.39.49,5.01,0,0-178.68-.06-179.02-.06-6.38,0-7.71-9.61-7.71-9.61H0v25.51h1.29s1.34-9.61,7.71-9.61c.36,0,187.97-.06,187.97-.06-1.26-1.85-2.21-3.93-2.79-6.16-.42-1.6-.64-3.28-.64-5.01,0-11,8.95-19.95,19.95-19.95s19.95,8.95,19.95,19.95c0,1.73-.22,3.41-.64,5.01-.58,2.23-1.53,4.31-2.79,6.16,0,0,187.61.06,187.97.06,6.38,0,7.71,9.61,7.71,9.61h1.29v-25.51h-1.29Z"/><path class="cls-1" d="M313.37,8.86s-.98,6.98-5.54,7.46H119.15c-4.55-.48-5.54-7.46-5.54-7.46h-1v19.91h1s.98-6.97,5.53-7.46h188.68c4.55.48,5.53,7.46,5.53,7.46h1V8.86h-1Z"/><path class="cls-1" d="M213.49,31.65c-3.17,0-5.74-2.88-5.74-2.88,0,0,2.57-2.88,5.74-2.88s5.74,2.88,5.74,2.88c0,0-2.57,2.88-5.74,2.88Z"/><path class="cls-1" d="M859.62,21.29s-1.34,9.61-7.71,9.61c-.35,0-179.03.06-179.03.06.32-1.62.49-3.3.49-5.01,0-14.31-11.64-25.95-25.95-25.95s-25.95,11.64-25.95,25.95c0,1.71.17,3.39.49,5.01,0,0-178.68-.06-179.02-.06-6.38,0-7.71-9.61-7.71-9.61h-1.29v25.51h1.29s1.34-9.61,7.71-9.61c.36,0,187.97-.06,187.97-.06-1.26-1.85-2.21-3.93-2.79-6.16-.42-1.6-.64-3.28-.64-5.01,0-11,8.95-19.95,19.95-19.95s19.95,8.95,19.95,19.95c0,1.73-.22,3.41-.64,5.01-.58,2.23-1.53,4.31-2.79,6.16,0,0,187.61.06,187.97.06,6.38,0,7.71,9.61,7.71,9.61h1.29v-25.51h-1.29Z"/><path class="cls-1" d="M747.29,8.86s-.98,6.98-5.54,7.46h-188.68c-4.55-.48-5.54-7.46-5.54-7.46h-1v19.91h1s.98-6.97,5.53-7.46h188.68c4.55.48,5.53,7.46,5.53,7.46h1V8.86h-1Z"/><path class="cls-1" d="M647.42,31.65c-3.17,0-5.74-2.88-5.74-2.88,0,0,2.57-2.88,5.74-2.88s5.74,2.88,5.74,2.88c0,0-2.57,2.88-5.74,2.88Z"/><path class="cls-1" d="M1293.54,21.29s-1.34,9.61-7.71,9.61c-.35,0-179.03.06-179.03.06.32-1.62.49-3.3.49-5.01,0-14.31-11.64-25.95-25.95-25.95s-25.95,11.64-25.95,25.95c0,1.71.17,3.39.49,5.01,0,0-178.68-.06-179.02-.06-6.38,0-7.71-9.61-7.71-9.61h-1.29v25.51h1.29s1.34-9.61,7.71-9.61c.36,0,187.97-.06,187.97-.06-1.26-1.85-2.21-3.93-2.79-6.16-.42-1.6-.64-3.28-.64-5.01,0-11,8.95-19.95,19.95-19.95s19.95,8.95,19.95,19.95c0,1.73-.22,3.41-.64,5.01-.58,2.23-1.53,4.31-2.79,6.16,0,0,187.61.06,187.97.06,6.38,0,7.71,9.61,7.71,9.61h1.29v-25.51h-1.29Z"/><path class="cls-1" d="M1181.22,8.86s-.98,6.98-5.54,7.46h-188.68c-4.55-.48-5.54-7.46-5.54-7.46h-1v19.91h1s.98-6.97,5.53-7.46h188.68c4.55.48,5.53,7.46,5.53,7.46h1V8.86h-1Z"/><path class="cls-1" d="M1081.34,31.65c-3.17,0-5.74-2.88-5.74-2.88,0,0,2.57-2.88,5.74-2.88s5.74,2.88,5.74,2.88c0,0-2.57,2.88-5.74,2.88Z"/></g></svg>