<?xml version="1.0" encoding="UTF-8"?><svg id="Layer_1" xmlns="http://www.w3.org/2000/svg" viewBox="0 0 1302.24 32.63"><defs><style>.cls-1{fill:#fff;}</style></defs><g id="Ruler_4"><path class="cls-1" d="M34.31,26.38c-.49,2.63-5.06,3.2-5.06,3.2v1.76h13.57v-1.76s-4.58-.57-5.06-3.2V6.25c.49-2.63,5.06-3.2,5.06-3.2v-1.76h-13.57v1.76s4.58.57,5.06,3.2v20.12Z"/><path class="cls-1" d="M394.76,26.38c.49,2.63,5.06,3.2,5.06,3.2v1.76h-13.57v-1.76s4.58-.57,5.06-3.2V6.25c-.49-2.63-5.06-3.2-5.06-3.2v-1.76h13.57v1.76s-4.58.57-5.06,3.2v20.12Z"/><path class="cls-1" d="M412.02,16.31c0-8.56,6.94-15.51,15.51-15.51.52,0,1.03.03,1.54.08-1.66-.57-3.44-.88-5.3-.88-7.63,0-14.01,5.24-15.8,12.31H21.1C19.31,5.24,12.93,0,5.3,0,3.44,0,1.66.31,0,.88c.51-.05,1.02-.08,1.54-.08,8.56,0,15.51,6.94,15.51,15.51s-6.94,15.51-15.51,15.51c-.52,0-1.03-.03-1.54-.08,1.66.57,3.44.88,5.3.88,7.63,0,14.01-5.24,15.8-12.31h386.88c1.79,7.07,8.17,12.31,15.8,12.31,1.86,0,3.64-.31,5.3-.88-.51.05-1.02.08-1.54.08-8.56,0-15.51-6.94-15.51-15.51Z"/><path class="cls-1" d="M470.9,26.38c-.49,2.63-5.06,3.2-5.06,3.2v1.76h13.57v-1.76s-4.58-.57-5.06-3.2V6.25c.49-2.63,5.06-3.2,5.06-3.2v-1.76h-13.57v1.76s4.58.57,5.06,3.2v20.12Z"/><path class="cls-1" d="M831.35,26.38c.49,2.63,5.06,3.2,5.06,3.2v1.76h-13.57v-1.76s4.58-.57,5.06-3.2V6.25c-.49-2.63-5.06-3.2-5.06-3.2v-1.76h13.57v1.76s-4.58.57-5.06,3.2v20.12Z"/><path class="cls-1" d="M848.61,16.31c0-8.56,6.94-15.51,15.51-15.51.52,0,1.03.03,1.54.08-1.66-.57-3.44-.88-5.3-.88-7.63,0-14.01,5.24-15.8,12.31h-386.88c-1.79-7.07-8.17-12.31-15.8-12.31-1.86,0-3.64.31-5.3.88.51-.05,1.02-.08,1.54-.08,8.56,0,15.51,6.94,15.51,15.51s-6.94,15.51-15.51,15.51c-.52,0-1.03-.03-1.54-.08,1.66.57,3.44.88,5.3.88,7.63,0,14.01-5.24,15.8-12.31h386.88c1.79,7.07,8.17,12.31,15.8,12.31,1.86,0,3.64-.31,5.3-.88-.51.05-1.02.08-1.54.08-8.56,0-15.51-6.94-15.51-15.51Z"/><path class="cls-1" d="M907.48,26.38c-.49,2.63-5.06,3.2-5.06,3.2v1.76h13.57v-1.76s-4.58-.57-5.06-3.2V6.25c.49-2.63,5.06-3.2,5.06-3.2v-1.76h-13.57v1.76s4.58.57,5.06,3.2v20.12Z"/><path class="cls-1" d="M1267.94,26.38c.49,2.63,5.06,3.2,5.06,3.2v1.76h-13.57v-1.76s4.58-.57,5.06-3.2V6.25c-.49-2.63-5.06-3.2-5.06-3.2v-1.76h13.57v1.76s-4.58.57-5.06,3.2v20.12Z"/><path class="cls-1" d="M1285.2,16.31c0-8.56,6.94-15.51,15.51-15.51.52,0,1.03.03,1.54.08-1.66-.57-3.44-.88-5.3-.88-7.63,0-14.01,5.24-15.8,12.31h-386.88c-1.79-7.07-8.17-12.31-15.8-12.31-1.86,0-3.64.31-5.3.88.51-.05,1.02-.08,1.54-.08,8.56,0,15.51,6.94,15.51,15.51s-6.94,15.51-15.51,15.51c-.52,0-1.03-.03-1.54-.08,1.66.57,3.44.88,5.3.88,7.63,0,14.01-5.24,15.8-12.31h386.88c1.79,7.07,8.17,12.31,15.8,12.31,1.86,0,3.64-.31,5.3-.88-.51.05-1.02.08-1.54.08-8.56,0-15.51-6.94-15.51-15.51Z"/></g></svg>