<?xml version="1.0" encoding="UTF-8"?><svg id="Layer_1" xmlns="http://www.w3.org/2000/svg" viewBox="0 0 1303.28 57.28"><defs><style>.cls-1{fill:#fff;}</style></defs><g id="SimpleDivider_6"><path class="cls-1" d="M1268.43,32.39H34.85C10.85,32.39,0,11.71,0,11.71v7.7c16.34,13.28,14.3,29.96,14.3,29.96,0,0,13.62-7.66,27.92-7.66h1218.85c14.3,0,27.91,7.66,27.91,7.66,0,0-2.04-16.68,14.3-29.96v-7.7s-10.85,20.68-34.85,20.68Z"/><path class="cls-1" d="M626.59,53.79c-2.98-4.63-4.71-10.14-4.71-16.06,0-16.44,13.32-29.76,29.76-29.76,16.44,0,29.76,13.32,29.76,29.76,0,5.92-1.73,11.42-4.71,16.06,4.79-5.69,7.68-13.04,7.68-21.06,0-18.08-14.65-32.73-32.73-32.73-18.08,0-32.73,14.65-32.73,32.73,0,8.02,2.89,15.36,7.68,21.06Z"/><path class="cls-1" d="M607.21,6.98s-.98,6.98-5.53,7.46h-126.8c-4.55-.48-5.53-7.46-5.53-7.46h-1v19.92h1s.98-6.98,5.53-7.46h126.8c4.55.48,5.53,7.46,5.53,7.46h1V6.98h-1Z"/><path class="cls-1" d="M833.93,6.98s-.98,6.98-5.53,7.46h-126.8c-4.55-.48-5.53-7.46-5.53-7.46h-1v19.92h1s.98-6.98,5.53-7.46h126.8c4.55.48,5.53,7.46,5.53,7.46h1V6.98h-1Z"/><path class="cls-1" d="M659.78,19.2v-2.26h-16.28v2.26s5.85.79,6.11,4.46v26.89c-.26,3.68-6.11,4.46-6.11,4.46v2.26h16.28v-2.26s-5.85-.79-6.11-4.46v-26.89c.26-3.68,6.11-4.46,6.11-4.46Z"/></g></svg>