<?xml version="1.0" encoding="UTF-8"?><svg id="Layer_1" xmlns="http://www.w3.org/2000/svg" viewBox="0 0 1294.5 43.95"><defs><style>.cls-1{fill:#fff;}</style></defs><g id="SimpleDivider_7"><path class="cls-1" d="M646.56,43.95c-3.17,0-5.74-2.88-5.74-2.88,0,0,2.57-2.88,5.74-2.88s5.74,2.88,5.74,2.88c0,0-2.57,2.88-5.74,2.88Z"/><path class="cls-1" d="M1294.5,25.8s-12.64-3.21-13.08-10.5v-7.48c-3.31,0-6,6.01-6,9.32,0,1.48-1.2,2.68-2.68,2.68h-589.11v6l610.87-.02Z"/><path class="cls-1" d="M21.76,19.82c-1.48,0-2.67-1.2-2.67-2.68,0-3.31-2.69-9.32-6-9.32v7.48c-.45,7.29-13.09,10.5-13.09,10.5l610.87.02v-6H21.76Z"/><path class="cls-1" d="M688.46,28.7s-.22-.57-.31-.8c-6.56-16.72-22.88-27.9-40.89-27.9s-34.33,11.18-40.89,27.9c-.1.23-.31.8-.31.8-1.21,3.42,2.7,14.62,2.7,14.62,0,0,1.49-11.66,2.65-15.46,6.28-13.99,20.37-23.22,35.85-23.22s29.57,9.23,35.85,23.22c1.16,3.8,2.66,15.46,2.66,15.46,0,0,3.91-11.2,2.7-14.62Z"/><path class="cls-1" d="M646.56,33.39c-9.45,0-16.41-5.91-18.97-8.45l-2.14-2.13,2.14-2.13c2.55-2.54,9.51-8.45,18.97-8.45s16.41,5.91,18.97,8.45l2.14,2.13-2.14,2.13c-2.55,2.54-9.51,8.45-18.97,8.45ZM634.26,22.82c2.75,2.12,7.07,4.57,12.3,4.57s9.54-2.45,12.3-4.57c-2.76-2.12-7.08-4.57-12.3-4.57s-9.54,2.45-12.3,4.57Z"/></g></svg>