<?xml version="1.0" encoding="UTF-8"?><svg id="Layer_1" xmlns="http://www.w3.org/2000/svg" viewBox="0 0 1288.53 71.15"><defs><style>.cls-1{fill:#fff;}</style></defs><g id="SimpleDivider_5"><path class="cls-1" d="M35.06,12.54v-2.79H15.02v2.79s7.19.97,7.52,5.49v24.78c-.33,4.52-7.52,5.49-7.52,5.49v2.79h20.04v-2.79s-7.2-.97-7.52-5.5v-24.76c.32-4.53,7.52-5.5,7.52-5.5Z"/><path class="cls-1" d="M1288.47,27.1H.06s-3.09,6.64,35,6.64h1218.4c38.09,0,35-6.64,35-6.64Z"/><path class="cls-1" d="M1273.51,12.54v-2.79h-20.04v2.79s7.2.97,7.52,5.5v24.76c-.32,4.53-7.52,5.5-7.52,5.5v2.79h20.04v-2.79s-7.19-.97-7.52-5.49v-24.78c.33-4.52,7.52-5.49,7.52-5.49Z"/><path class="cls-1" d="M644.26,71.15s.48-3.22,1.5-6.04l38.96-60.39c1.86-2.09,4.35-4.72,4.35-4.72,0,0-2.92,1.98-5.54,2.81h-78.53c-2.61-.83-5.54-2.81-5.54-2.81,0,0,2.49,2.63,4.35,4.72l38.96,60.39c1.02,2.82,1.5,6.04,1.5,6.04ZM678.61,6.81l-34.35,53.24-34.35-53.24h68.7Z"/><path class="cls-1" d="M645.68,52.06c2.91-2.92,9.67-10.89,9.67-21.64s-6.76-18.71-9.67-21.64l-1.42-1.43-1.42,1.43c-2.91,2.92-9.67,10.89-9.67,21.64s6.76,18.71,9.67,21.64l1.42,1.43,1.42-1.43ZM637.17,30.42c0-7.81,4.23-14,7.09-17.29,2.86,3.29,7.09,9.48,7.09,17.29s-4.23,14-7.09,17.29c-2.86-3.29-7.09-9.48-7.09-17.29Z"/></g></svg>