<?xml version="1.0" encoding="UTF-8"?><svg id="Layer_1" xmlns="http://www.w3.org/2000/svg" viewBox="0 0 1306.24 56.25"><defs><style>.cls-1{fill:#fff;}</style></defs><g id="SimpleDivider_2"><path class="cls-1" d="M653.12,20.58c-7.16,0-12.43-4.48-14.37-6.4l-1.43-1.42,1.43-1.42c1.94-1.93,7.21-6.4,14.37-6.4s12.43,4.48,14.37,6.4l1.43,1.42-1.43,1.42c-1.94,1.93-7.21,6.4-14.37,6.4ZM643.17,12.75c2.13,1.71,5.65,3.82,9.95,3.82s7.82-2.11,9.95-3.82c-2.13-1.71-5.65-3.82-9.95-3.82s-7.82,2.12-9.95,3.82Z"/><path class="cls-1" d="M653.12,8.78c-.89.9-1.79,2.31-1.79,3.97,0,1.66.89,3.08,1.79,3.97.89-.9,1.79-2.31,1.79-3.97,0-1.66-.89-3.08-1.79-3.97Z"/><path class="cls-1" d="M1304.96,0s-1.34,9.61-7.71,9.61c-.36,0-622.27.06-622.27.06,0,0,4.69,5.49,5.29,12.84.39,4.82-1.16,11.07-4.71,14.92-5.58,6.04-13.56,9.83-22.43,9.83s-16.85-3.79-22.43-9.83c-3.55-3.85-5.1-10.1-4.71-14.92.6-7.35,5.29-12.84,5.29-12.84,0,0-621.91-.06-622.27-.06C2.62,9.61,1.29,0,1.29,0H0v25.51h1.29s1.34-9.61,7.71-9.61c.36,0,613.11-.06,613.11-.06-.06.23-.22.87-.22.87-.57,2.39-.88,4.88-.88,7.44,0,17.74,14.38,32.11,32.11,32.11s32.11-14.38,32.11-32.11c0-2.56-.31-5.05-.88-7.44,0,0-.16-.64-.22-.87,0,0,612.75.06,613.11.06,6.38,0,7.71,9.61,7.71,9.61h1.29V0h-1.29Z"/><path class="cls-1" d="M992.12,23.6s-1.06,3.21-3.29,4.3H317.41c-2.23-1.08-3.29-4.3-3.29-4.3h-1.04v14.59h1.04s1.06-3.21,3.29-4.3h671.42c2.23,1.08,3.29,4.3,3.29,4.3h1.04v-14.59h-1.04Z"/></g></svg>