<?xml version="1.0" encoding="UTF-8"?><svg id="Layer_1" xmlns="http://www.w3.org/2000/svg" viewBox="0 0 1304.99 82.25"><defs><style>.cls-1{fill:#fff;}</style></defs><g id="SimpleDivider_1"><rect class="cls-1" x="1294.98" y="35.26" width="3.74" height="11.74" transform="translate(2593.71 82.26) rotate(-180)"/><path class="cls-1" d="M669.54,41.13c0-8.72-6.59-15.92-15.04-16.92v-2.4h3.87v-3.74h-3.87V5.77h-4v12.3h-3.87v3.74h3.87v2.4c-8.46.99-15.04,8.2-15.04,16.92s6.59,15.92,15.04,16.92v2.4h-3.87v3.74h3.87v12.3h4v-12.3h3.87v-3.74h-3.87v-2.4c8.46-.99,15.04-8.2,15.04-16.92ZM665.54,41.13c0,6.51-4.8,11.91-11.04,12.87v-25.75c6.24.97,11.04,6.36,11.04,12.88ZM639.45,41.13c0-6.51,4.8-11.91,11.04-12.88v25.75c-6.24-.97-11.04-6.36-11.04-12.87Z"/><path class="cls-1" d="M699.79,38.13c-2.96-.54-5.67-2.39-7.02-5.32-3.86-18.7-20.45-32.81-40.28-32.81s-36.35,14.07-40.24,32.72c-1.33,2.98-4.07,4.86-7.05,5.4H8.14v6h597.06c2.98.54,5.72,2.42,7.05,5.4,3.89,18.66,20.45,32.72,40.24,32.72s36.42-14.1,40.28-32.81c1.34-2.93,4.06-4.78,7.01-5.32h597.06v-6h-597.06ZM652.5,6c16.51,0,30.39,11.45,34.13,26.83.23,2.5-.51,4.69-2.43,5.3h-63.39c-1.91-.61-2.65-2.77-2.44-5.25,3.72-15.4,17.61-26.87,34.13-26.87ZM686.62,49.42c-3.74,15.38-17.62,26.83-34.13,26.83s-30.41-11.47-34.13-26.87c-.22-2.48.52-4.65,2.43-5.25h63.39c1.92.61,2.66,2.79,2.43,5.3Z"/><path class="cls-1" d="M16.28,23.22v-2.26H0v2.26s5.84.79,6.11,4.46v26.89c-.26,3.67-6.11,4.46-6.11,4.46v2.26h16.28v-2.26s-5.85-.79-6.11-4.47v-26.88c.26-3.68,6.11-4.47,6.11-4.47Z"/><path class="cls-1" d="M1304.99,23.22v-2.26h-16.28v2.26s5.85.79,6.11,4.47v26.88c-.26,3.68-6.11,4.47-6.11,4.47v2.26h16.28v-2.26s-5.84-.79-6.11-4.46v-26.89c.27-3.67,6.11-4.46,6.11-4.46Z"/></g></svg>