<?xml version="1.0" encoding="UTF-8"?><svg id="Layer_1" xmlns="http://www.w3.org/2000/svg" viewBox="0 0 1328.71 80.34"><defs><style>.cls-1{fill:#fff;}</style></defs><g id="SimpleDivider_4"><path class="cls-1" d="M627.25,25.12c-1.71,0-3.36.29-4.89.82.47-.05.94-.07,1.42-.07,7.9,0,14.31,6.41,14.31,14.31s-6.41,14.31-14.31,14.31c-.48,0-.95-.02-1.42-.07,1.53.53,3.18.82,4.89.82,8.31,0,15.05-6.74,15.05-15.05s-6.74-15.05-15.05-15.05Z"/><path class="cls-1" d="M664.36,18.38c-12.01,0-21.79,9.77-21.79,21.79s9.77,21.79,21.79,21.79,21.79-9.77,21.79-21.79-9.77-21.79-21.79-21.79ZM664.36,57.96c-9.81,0-17.79-7.98-17.79-17.79s7.98-17.79,17.79-17.79,17.79,7.98,17.79,17.79-7.98,17.79-17.79,17.79Z"/><path class="cls-1" d="M690.62,40.17c0-7.9,6.41-14.31,14.31-14.31.48,0,.95.02,1.42.07-1.53-.53-3.18-.82-4.89-.82-8.31,0-15.05,6.74-15.05,15.05s6.74,15.05,15.05,15.05c1.71,0,3.36-.29,4.89-.82-.47.05-.94.07-1.42.07-7.9,0-14.31-6.41-14.31-14.31Z"/><path class="cls-1" d="M672.5,2.26V0h-16.28v2.26s5.84.79,6.11,4.46v66.89c-.27,3.67-6.11,4.46-6.11,4.46v2.26h16.28v-2.26s-5.85-.79-6.11-4.47V6.73c.26-3.68,6.11-4.47,6.11-4.47Z"/><path class="cls-1" d="M40.43,23.45h-17.66c-7.83,0-11.66,6-10,6h26.54v21.45H12.77c-1.66,0,2.17,6,10,6h17.66c4.34,0,6.73,1.84,6.73,1.84,0,0-1.85-2.39-1.85-6.73v-23.68c0-4.34,1.85-6.73,1.85-6.73,0,0-2.39,1.84-6.73,1.84Z"/><path class="cls-1" d="M1328.71,37.17H0c2.36,0,2.36,6,0,6h1328.71c-2.36,0-2.36-6,0-6Z"/><path class="cls-1" d="M1288.28,23.45h17.66c7.83,0,11.66,6,10,6h-26.54v21.45h26.54c1.66,0-2.17,6-10,6h-17.66c-4.34,0-6.73,1.84-6.73,1.84,0,0,1.85-2.39,1.85-6.73v-23.68c0-4.34-1.85-6.73-1.85-6.73,0,0,2.39,1.84,6.73,1.84Z"/></g></svg>