<?xml version="1.0" encoding="UTF-8"?><svg id="Layer_1" xmlns="http://www.w3.org/2000/svg" viewBox="0 0 1304.64 66.86"><defs><style>.cls-1{fill:#fff;}</style></defs><g id="SimpleDivider_3"><path class="cls-1" d="M1291.64,11.43c-7.17,0-13,5.83-13,13,0,1.77.36,3.46,1,5h-21.64v-9.45c.27-3.67,6.11-4.46,6.11-4.46v-2.26h-16.28v2.26s5.85.79,6.11,4.47v9.44h-574.04v8h574.04v9.44c-.26,3.68-6.11,4.47-6.11,4.47v2.26h16.28v-2.26s-5.84-.79-6.11-4.46v-9.45h33.63c7.17,0,13-5.83,13-13s-5.83-13-13-13ZM1291.64,29.43c-2.76,0-5-2.24-5-5s2.24-5,5-5,5,2.24,5,5-2.24,5-5,5Z"/><path class="cls-1" d="M624.74,37.43v-8H50.7v-9.45c.27-3.67,6.11-4.46,6.11-4.46v-2.26h-16.28v2.26s5.85.79,6.11,4.47v9.44h-21.64c.64-1.54,1-3.23,1-5,0-7.17-5.83-13-13-13S0,17.26,0,24.43s5.83,13,13,13h33.63v9.44c-.26,3.68-6.11,4.47-6.11,4.47v2.26h16.28v-2.26s-5.84-.79-6.11-4.46v-9.45h574.04ZM8,24.43c0-2.76,2.24-5,5-5s5,2.24,5,5-2.24,5-5,5-5-2.24-5-5Z"/><path class="cls-1" d="M658.26,33.43c0-5.82-2.66-10.54-5.94-10.54-3.28,0-5.94,4.72-5.94,10.54,0,5.82,2.66,10.54,5.94,10.54s5.94-4.72,5.94-10.54Z"/><path class="cls-1" d="M611.81,33.43c2.67,0,10.07,6.3,10.07,6.3,4.77,3.89,12.12,8.67,21.34,10.73,8.13,4.52,9.1,16.4,9.1,16.4,0,0,.98-11.88,9.1-16.4,9.21-2.05,16.57-6.83,21.34-10.73,0,0,7.4-6.3,10.07-6.3-2.67,0-10.07-6.3-10.07-6.3-4.77-3.89-12.12-8.67-21.34-10.73-8.12-4.52-9.1-16.4-9.1-16.4,0,0-.98,11.88-9.1,16.4-9.21,2.05-16.57,6.83-21.34,10.73,0,0-7.4,6.3-10.07,6.3ZM652.32,22.73c11.84,0,21.31,6.24,26.56,10.7-5.25,4.46-14.71,10.7-26.56,10.7-11.84,0-21.31-6.24-26.56-10.7,5.25-4.46,14.71-10.7,26.56-10.7Z"/></g></svg>