<?xml version="1.0" encoding="UTF-8"?><svg id="Layer_1" xmlns="http://www.w3.org/2000/svg" viewBox="0 0 1288.71 46"><defs><style>.cls-1{fill:#fff;}</style></defs><g id="SimpleDivider_8"><path class="cls-1" d="M1287.65,11.17s-1,7.98-5.58,8.83h-23.65V7.92c.85-4.58,8.83-5.58,8.83-5.58v-1.06h-23.66v1.06s7.98,1,8.83,5.58v12.07H36.29V7.93c.85-4.59,8.83-5.58,8.83-5.58v-1.06h-23.66v1.06s7.98,1,8.83,5.58v12.08H6.64c-4.58-.85-5.58-8.83-5.58-8.83H0v23.66h1.06s1-7.98,5.59-8.83h23.64v12.08c-.85,4.58-8.83,5.58-8.83,5.58v1.06h23.66v-1.06s-7.98-1-8.83-5.58v-12.08h1216.12v12.08c-.85,4.59-8.83,5.58-8.83,5.58v1.06h23.66v-1.06s-7.98-1-8.83-5.58v-12.08h23.64c4.59.85,5.59,8.83,5.59,8.83h1.06V11.17h-1.06Z"/><path class="cls-1" d="M644.36,46c-12.68,0-23-10.32-23-23s10.32-23,23-23,23,10.32,23,23-10.32,23-23,23ZM644.36,6c-9.37,0-17,7.63-17,17s7.63,17,17,17,17-7.63,17-17-7.63-17-17-17Z"/></g></svg>