<?xml version="1.0" encoding="UTF-8"?><svg id="Layer_1" xmlns="http://www.w3.org/2000/svg" viewBox="0 0 302.44 320.42"><defs><style>.cls-1{fill:#fff;}</style></defs><g id="Square_7"><polygon class="cls-1" points="273.82 275.58 267.82 275.58 267.82 49.49 163.41 49.49 163.41 43.49 273.82 43.49 273.82 275.58"/><polygon class="cls-1" points="34.62 275.58 28.62 275.58 28.62 43.49 139.02 43.49 139.02 49.49 34.62 49.49 34.62 275.58"/><path class="cls-1" d="M237.87,15.1s-1.01,5.74-5.69,6.01h-68.2v4h68.18c4.7.26,5.7,6.02,5.7,6.02h1V15.1h-1Z"/><path class="cls-1" d="M64.56,15.1h-1v16.03h1s1.01-5.76,5.7-6.02h68.17v-4h-68.19c-4.68-.27-5.69-6.01-5.69-6.01Z"/><path class="cls-1" d="M48.55,265.56s-.97,7.2-5.49,7.52H8.28c-4.52-.33-5.49-7.52-5.49-7.52H0v20.04h2.79s.97-7.19,5.49-7.52h34.77c4.52.33,5.49,7.52,5.49,7.52h2.79v-20.04h-2.79Z"/><path class="cls-1" d="M299.65,265.56s-.97,7.2-5.49,7.52h-34.77c-4.52-.33-5.49-7.52-5.49-7.52h-2.79v20.04h2.79s.97-7.19,5.49-7.52h34.77c4.52.33,5.49,7.52,5.49,7.52h2.79v-20.04h-2.79Z"/><path class="cls-1" d="M171.07,31.49c-1.36-9.01-8.71-16.09-17.85-17v-5.85c.95-4.58,9.83-5.57,9.83-5.57V0h-23.66v3.06s8.91,1,9.83,5.6v5.83c-9.15.91-16.5,7.98-17.86,17H16.62v269.21h115.82c10.46.52,18.78,9.14,18.78,19.73,0-10.58,8.32-19.2,18.78-19.73h115.82V31.49h-114.74ZM165.32,34.49c0,7.1-5.27,12.97-12.1,13.95v-27.9c6.83.98,12.1,6.85,12.1,13.95ZM149.22,20.54v27.9c-6.83-.98-12.11-6.85-12.11-13.95s5.28-12.97,12.11-13.95ZM279.82,294.7H22.62V37.49h108.74c1.45,9.67,9.79,17.11,19.86,17.11s18.4-7.44,19.86-17.11h108.74v257.21Z"/></g></svg>