<?xml version="1.0" encoding="UTF-8"?><svg id="Layer_1" xmlns="http://www.w3.org/2000/svg" viewBox="0 0 317.12 317.12"><defs><style>.cls-1{fill:#fff;}</style></defs><g id="Square_8"><path class="cls-1" d="M258,297.2s-.98,6.97-5.53,7.46H64.65c-4.55-.48-5.53-7.46-5.53-7.46h-1v19.91h1s.98-6.98,5.54-7.46h187.8c4.55.48,5.54,7.46,5.54,7.46h1v-19.91h-1Z"/><path class="cls-1" d="M258,0s-.98,6.98-5.54,7.46H64.66c-4.55-.48-5.54-7.46-5.54-7.46h-1v19.91h1s.98-6.97,5.53-7.46h187.81c4.55.48,5.53,7.46,5.53,7.46h1V0h-1Z"/><path class="cls-1" d="M317.12,89.12v-1h-19.92v1s6.98.99,7.46,5.54v127.8c-.48,4.55-7.46,5.54-7.46,5.54v1h19.92v-1s-6.97-.98-7.46-5.53v-127.82c.49-4.55,7.46-5.53,7.46-5.53Z"/><path class="cls-1" d="M19.92,89.12v-1H0v1s6.97.98,7.46,5.53v127.81c-.48,4.55-7.46,5.53-7.46,5.53v1h19.92v-1s-6.98-.99-7.46-5.54v-127.8c.48-4.55,7.46-5.54,7.46-5.54Z"/><path class="cls-1" d="M293.16,293.16H23.96V23.96h269.2v269.2ZM29.96,287.16h257.2V29.96H29.96v257.2Z"/><path class="cls-1" d="M52.46,266.64c0,2.9-.49,5.69-1.38,8.28.08-.79.12-1.6.12-2.41,0-13.39-10.85-24.24-24.24-24.24s-24.24,10.85-24.24,24.24c0,.81.04,1.62.12,2.41-.89-2.6-1.38-5.38-1.38-8.28,0-14.09,11.42-25.51,25.51-25.51,14.09,0,25.51,11.42,25.51,25.51Z"/><path class="cls-1" d="M26.96,310.16c-11.03,0-20-8.97-20-20s8.97-20,20-20,20,8.97,20,20-8.97,20-20,20ZM26.96,276.16c-7.72,0-14,6.28-14,14s6.28,14,14,14,14-6.28,14-14-6.28-14-14-14Z"/><polygon class="cls-1" points="29.96 307.16 23.96 307.16 23.96 293.16 9.96 293.16 9.96 287.16 29.96 287.16 29.96 307.16"/><path class="cls-1" d="M52.46,50.48c0-2.9-.49-5.69-1.38-8.28.08.79.12,1.6.12,2.41,0,13.39-10.85,24.24-24.24,24.24S2.72,58,2.72,44.61c0-.81.04-1.62.12-2.41-.89,2.6-1.38,5.38-1.38,8.28,0,14.09,11.42,25.51,25.51,25.51,14.09,0,25.51-11.42,25.51-25.51Z"/><path class="cls-1" d="M26.96,46.96c-11.03,0-20-8.97-20-20S15.93,6.96,26.96,6.96s20,8.97,20,20-8.97,20-20,20ZM26.96,12.96c-7.72,0-14,6.28-14,14s6.28,14,14,14,14-6.28,14-14-6.28-14-14-14Z"/><polygon class="cls-1" points="29.96 29.96 9.96 29.96 9.96 23.96 23.96 23.96 23.96 9.96 29.96 9.96 29.96 29.96"/><path class="cls-1" d="M264.65,266.64c0,2.9.49,5.69,1.38,8.28-.08-.79-.12-1.6-.12-2.41,0-13.39,10.85-24.24,24.24-24.24s24.24,10.85,24.24,24.24c0,.81-.04,1.62-.12,2.41.89-2.6,1.38-5.38,1.38-8.28,0-14.09-11.42-25.51-25.51-25.51s-25.51,11.42-25.51,25.51Z"/><path class="cls-1" d="M290.16,310.16c-11.03,0-20-8.97-20-20s8.97-20,20-20,20,8.97,20,20-8.97,20-20,20ZM290.16,276.16c-7.72,0-14,6.28-14,14s6.28,14,14,14,14-6.28,14-14-6.28-14-14-14Z"/><polygon class="cls-1" points="293.16 307.16 287.16 307.16 287.16 287.16 307.16 287.16 307.16 293.16 293.16 293.16 293.16 307.16"/><path class="cls-1" d="M264.65,50.48c0-2.9.49-5.69,1.38-8.28-.08.79-.12,1.6-.12,2.41,0,13.39,10.85,24.24,24.24,24.24,13.39,0,24.24-10.85,24.24-24.24,0-.81-.04-1.62-.12-2.41.89,2.6,1.38,5.38,1.38,8.28,0,14.09-11.42,25.51-25.51,25.51-14.09,0-25.51-11.42-25.51-25.51Z"/><path class="cls-1" d="M290.16,46.96c-11.03,0-20-8.97-20-20s8.97-20,20-20,20,8.97,20,20-8.97,20-20,20ZM290.16,12.96c-7.72,0-14,6.28-14,14s6.28,14,14,14,14-6.28,14-14-6.28-14-14-14Z"/><polygon class="cls-1" points="307.16 29.96 287.16 29.96 287.16 9.96 293.16 9.96 293.16 23.96 307.16 23.96 307.16 29.96"/></g></svg>