<?xml version="1.0" encoding="UTF-8"?><svg id="Layer_1" xmlns="http://www.w3.org/2000/svg" viewBox="0 0 282.74 327.17"><defs><style>.cls-1{fill:#fff;}</style></defs><g id="Square_4"><path class="cls-1" d="M241.65,44.05s3.09-6.64-35-6.64h-43.55l-20.23-31.37c-1.02-2.82-1.5-6.04-1.5-6.04,0,0-.48,3.22-1.5,6.04l-20.23,31.36h-43.55c-38.09,0-35,6.64-35,6.64h74.27l-14.44,22.38c-1.86,2.09-4.35,4.72-4.35,4.72,0,0,2.92-1.98,5.53-2.81h78.54c2.61.83,5.53,2.81,5.53,2.81,0,0-2.49-2.63-4.35-4.72l-14.44-22.38h74.27ZM141.37,11.1l16.97,26.31h-33.95l16.97-26.31ZM175.72,64.34h-68.7l13.09-20.29h42.51l13.09,20.29Z"/><path class="cls-1" d="M282.74,327.17s-5.23-13.54-6.77-23.86V68.3c1.54-10.32,6.77-23.86,6.77-23.86,0,0-13.54,5.23-23.86,6.77H23.86c-10.32-1.53-23.86-6.77-23.86-6.77,0,0,5.23,13.55,6.77,23.87v235c-1.53,10.32-6.77,23.87-6.77,23.87,0,0,13.54-5.23,23.86-6.77h235.01c10.32,1.53,23.86,6.77,23.86,6.77ZM12.77,57.21h257.2v257.2H12.77V57.21Z"/></g></svg>