<?xml version="1.0" encoding="UTF-8"?><svg id="Layer_1" xmlns="http://www.w3.org/2000/svg" viewBox="0 0 304.52 269.2"><defs><style>.cls-1{fill:#fff;}</style></defs><g id="Square_2"><path class="cls-1" d="M286.87,269.2H17.67V0h269.2v269.2ZM23.67,263.2h257.2V6H23.67v257.2Z"/><path class="cls-1" d="M38.55,28.22s-.97,7.2-5.5,7.52H8.28c-4.53-.32-5.5-7.52-5.5-7.52H0v20.04h2.79s.97-7.19,5.49-7.52h24.78c4.52.33,5.49,7.52,5.49,7.52h2.79v-20.04h-2.79Z"/><path class="cls-1" d="M37.39,69.54v17.66c0,7.83-6,11.66-6,10v-26.54s-21.45,0-21.45,0v26.54c0,1.66-6-2.17-6-10v-17.66c0-4.34-1.84-6.73-1.84-6.73,0,0,2.39,1.85,6.73,1.85h23.68c4.34,0,6.73-1.85,6.73-1.85,0,0-1.84,2.39-1.84,6.73Z"/><path class="cls-1" d="M301.74,28.22s-.97,7.2-5.5,7.52h-24.76c-4.53-.32-5.5-7.52-5.5-7.52h-2.79v20.04h2.79s.97-7.19,5.49-7.52h24.78c4.52.33,5.49,7.52,5.49,7.52h2.79v-20.04h-2.79Z"/><path class="cls-1" d="M267.14,69.54v17.66c0,7.83,6,11.66,6,10v-26.54s21.45,0,21.45,0v26.54c0,1.66,6-2.17,6-10v-17.66c0-4.34,1.84-6.73,1.84-6.73,0,0-2.39,1.85-6.73,1.85h-23.68c-4.34,0-6.73-1.85-6.73-1.85,0,0,1.84,2.39,1.84,6.73Z"/><path class="cls-1" d="M300.87,238.27s-.97,7.17-5.47,7.52h-130.38v2.5c0,7.04-5.72,12.76-12.76,12.76s-12.75-5.72-12.75-12.76v-2.5H9.13c-4.5-.35-5.47-7.52-5.47-7.52H.88v20.04h2.79s.97-7.22,5.52-7.52h125.51c1.22,8.61,8.63,15.26,17.57,15.26s16.37-6.65,17.58-15.26h125.51c4.54.3,5.52,7.52,5.52,7.52h2.79v-20.04h-2.79Z"/></g></svg>