<?xml version="1.0" encoding="UTF-8"?><svg id="Layer_1" xmlns="http://www.w3.org/2000/svg" viewBox="0 0 269.2 309.92"><defs><style>.cls-1{fill:#fff;}</style></defs><g id="Square_5"><path class="cls-1" d="M234.04,277.91s-.98,6.97-5.53,7.46H40.69c-4.55-.48-5.53-7.46-5.53-7.46h-1v19.91h1s.98-6.98,5.54-7.46h187.8c4.55.48,5.54,7.46,5.54,7.46h1v-19.91h-1Z"/><polygon class="cls-1" points="269.2 309.92 0 309.92 0 40.71 96.88 40.71 96.88 46.71 6 46.71 6 303.92 263.2 303.92 263.2 46.71 172.32 46.71 172.32 40.71 269.2 40.71 269.2 309.92"/><path class="cls-1" d="M175.16,43.71l-1.43-1.42c-3.72-3.7-11.96-10.85-23.25-14.78L134.6,0l-15.88,27.51c-11.3,3.93-19.53,11.08-23.25,14.78l-1.43,1.42,1.43,1.42c1.87,1.86,4.88,4.59,8.84,7.34l-5.88,10.19h72.36l-5.88-10.19c3.96-2.75,6.97-5.48,8.84-7.34l1.43-1.42ZM134.6,8l10.35,17.92c-3.26-.73-6.71-1.16-10.35-1.16s-7.09.43-10.35,1.16l10.35-17.92ZM147.79,30.84l11.75,20.35c-6.49,3.96-15.02,7.47-24.94,7.47s-18.44-3.51-24.94-7.47l11.75-20.35c4.04-1.27,8.45-2.08,13.19-2.08s9.15.82,13.19,2.08ZM99.76,43.71c3.28-3.04,8.7-7.38,15.72-10.6l-9.17,15.88c-2.68-1.89-4.89-3.75-6.55-5.28ZM105.35,58.66l2.31-4c2.36,1.43,4.97,2.81,7.81,4h-10.12ZM163.85,58.66h-10.12c2.84-1.2,5.45-2.57,7.81-4l2.31,4ZM162.89,48.99l-9.17-15.88c7.02,3.22,12.44,7.56,15.72,10.6-1.66,1.53-3.87,3.4-6.55,5.28Z"/><path class="cls-1" d="M32.05,25.83v-2.79H12.01v2.79s7.19.97,7.52,5.49v24.78c-.33,4.52-7.52,5.49-7.52,5.49v2.79h20.04v-2.79s-7.2-.97-7.52-5.5v-24.77c.32-4.53,7.52-5.5,7.52-5.5Z"/><path class="cls-1" d="M257.19,25.83v-2.79h-20.04v2.79s7.19.97,7.52,5.49v24.78c-.33,4.52-7.52,5.49-7.52,5.49v2.79h20.04v-2.79s-7.2-.97-7.52-5.5v-24.76c.32-4.53,7.52-5.5,7.52-5.5Z"/></g></svg>