<?xml version="1.0" encoding="UTF-8"?><svg id="Layer_1" xmlns="http://www.w3.org/2000/svg" viewBox="0 0 295.4 310.21"><defs><style>.cls-1{fill:#fff;}</style></defs><g id="Square_1"><path class="cls-1" d="M282.3,278.95V31.33c.12-7.5,13.1-10.79,13.1-10.79H0s12.98,3.29,13.1,10.79v247.62c-.12,7.5-13.1,10.79-13.1,10.79h295.4s-12.98-3.29-13.1-10.79ZM276.3,283.74H19.1V26.54h257.2v257.2Z"/><path class="cls-1" d="M151.88,286.67c0-4.1-1.87-7.42-4.18-7.42s-4.18,3.32-4.18,7.42c0,4.1,1.87,7.42,4.18,7.42,2.31,0,4.18-3.32,4.18-7.42Z"/><path class="cls-1" d="M119.17,286.67c1.88,0,7.09,4.44,7.09,4.44,3.36,2.74,8.54,6.11,15.03,7.55,5.72,3.18,6.41,11.55,6.41,11.55,0,0,.69-8.37,6.41-11.55,6.49-1.45,11.67-4.81,15.03-7.55,0,0,5.21-4.44,7.09-4.44-1.88,0-7.09-4.44-7.09-4.44-3.36-2.74-8.54-6.11-15.03-7.55-5.72-3.18-6.41-11.55-6.41-11.55,0,0-.69,8.37-6.41,11.55-6.49,1.45-11.67,4.81-15.03,7.55,0,0-5.21,4.44-7.09,4.44ZM147.7,279.14c8.34,0,15.01,4.4,18.7,7.54-3.69,3.14-10.36,7.54-18.7,7.54-8.34,0-15.01-4.4-18.7-7.54,3.7-3.14,10.36-7.54,18.7-7.54Z"/><path class="cls-1" d="M151.88,23.54c0-4.1-1.87-7.42-4.18-7.42s-4.18,3.32-4.18,7.42c0,4.1,1.87,7.42,4.18,7.42,2.31,0,4.18-3.32,4.18-7.42Z"/><path class="cls-1" d="M119.17,23.54c1.88,0,7.09,4.44,7.09,4.44,3.36,2.74,8.54,6.11,15.03,7.55,5.72,3.18,6.41,11.55,6.41,11.55,0,0,.69-8.37,6.41-11.55,6.49-1.45,11.67-4.81,15.03-7.55,0,0,5.21-4.44,7.09-4.44-1.88,0-7.09-4.44-7.09-4.44-3.36-2.74-8.54-6.11-15.03-7.55-5.72-3.18-6.41-11.55-6.41-11.55,0,0-.69,8.37-6.41,11.55-6.49,1.45-11.67,4.81-15.03,7.55,0,0-5.21,4.44-7.09,4.44ZM147.7,16c8.34,0,15.01,4.4,18.7,7.54-3.69,3.14-10.36,7.54-18.7,7.54-8.34,0-15.01-4.4-18.7-7.54,3.7-3.14,10.36-7.54,18.7-7.54Z"/></g></svg>