<?xml version="1.0" encoding="UTF-8"?><svg id="Layer_1" xmlns="http://www.w3.org/2000/svg" viewBox="0 0 294.54 284.83"><defs><style>.cls-1{fill:#fff;}</style></defs><g id="Square_3"><path class="cls-1" d="M147.27,37.12c-18.17,0-31.64-11.44-36.58-16.36l-2.14-2.13,2.14-2.13C115.63,11.58,129.1.14,147.27.14s31.64,11.44,36.58,16.36l2.14,2.13-2.14,2.13c-4.95,4.92-18.41,16.36-36.58,16.36ZM117.19,18.63c5.56,4.91,16.36,12.49,30.08,12.49s24.52-7.58,30.08-12.49c-5.56-4.91-16.36-12.49-30.08-12.49s-24.52,7.58-30.08,12.49Z"/><path class="cls-1" d="M267.97,15.63c-5.72-.66-8.95-5.97-12.29-15.63-3.34,9.66-6.57,14.97-12.29,15.63H51.15c-5.72-.66-8.95-5.97-12.29-15.63-3.34,9.66-6.57,14.97-12.29,15.63h-13.9v269.2h269.2V15.63h-13.9ZM275.87,278.83H18.67V21.63h257.2v257.2Z"/><path class="cls-1" d="M291.75,239.08s-.97,7.17-5.47,7.52H8.26c-4.5-.35-5.47-7.52-5.47-7.52H0v20.04h2.79s.97-7.22,5.52-7.52h277.93c4.54.3,5.52,7.52,5.52,7.52h2.79v-20.04h-2.79Z"/><path class="cls-1" d="M125.82,260.27c-1.65.68-3.34,1.22-5.07,1.67,0-.47-.02-.93-.02-1.38,0-2.01,0-4.02,0-6.03,0-.97-1.86-.97-1.86,0,0,1.93,0,3.87,0,5.8,0,.67.03,1.36.04,2.06-7.04,1.58-14.56,1.88-21.65,3.26-.76.15-.93,1.07-.22,1.37,3.73,1.56,7.6,2.88,11.57,3.95.12,1.2.16,2.4.13,3.6-.02.97,1.83.97,1.86,0,.03-1.04,0-2.07-.09-3.11,5.27,1.31,10.69,2.21,16.2,2.64.52.41,1.7,0,1.56-.77-.72-4.11-1.06-8.27-1.04-12.42,0-.59-.78-.9-1.4-.65ZM110.14,268.62c-.07-.4-.71-.62-1.14-.52-.54.12-.72.52-.65.92.02.11.03.22.05.33-2.76-.78-5.45-1.69-8.09-2.71,6.16-1,12.51-1.44,18.56-2.73-.05.66-.16,1.3-.38,1.92-.33.93,1.46,1.33,1.79.4.32-.89.43-1.81.46-2.75,1.57-.39,3.12-.84,4.63-1.4.04,3.51.35,7,.91,10.48-5.42-.45-10.77-1.37-15.96-2.71-.06-.41-.11-.82-.18-1.23Z"/><path class="cls-1" d="M97.52,259.62c.08.57,0,1.4.53,1.84.52.44,1.33.35,2.01.35.93,0,1.85-.01,2.78-.02,4.07-.02,8.14-.05,12.21-.07.52,0,.8-.29.87-.61.21-.12.37-.3.38-.57.07-1.37-.02-2.73-.26-4.09-.09-.53-.11-1.23-.46-1.71-.37-.51-1.02-.56-1.68-.56-3.6-.02-7.21-.01-10.82,0-.82,0-1.65,0-2.47.01-.83,0-1.79-.1-2.6.05-.68.12-1.07.56-1.07,1.11,0,.76.2,1.56.31,2.31l.27,1.97ZM99.42,260.31c-.1,0-.05-.01,0,0h0ZM99.69,255.68c.46,0,.93,0,1.39,0,.93,0,1.85,0,2.78-.01,1.96,0,3.91,0,5.87,0,.93,0,1.85,0,2.78,0,.43,0,.97.07,1.39,0,.03,0,.05,0,.08.01.03.12.09.26.11.34.3,1.39.4,2.79.35,4.2l-10.68.06c-.93,0-1.85.01-2.78.02-.46,0-.93-.02-1.39,0-.05,0-.09,0-.12,0-.02-.19-.05-.38-.08-.57-.1-.74-.2-1.48-.3-2.22-.05-.37-.1-.74-.15-1.11-.03-.22-.12-.5-.14-.76.32,0,.72.03.89.03Z"/><path class="cls-1" d="M258.84,263.17c-1.16-.71-2.41-1.34-3.7-1.9-.14-1.39-.29-2.78-.43-4.17h9.2c1.2,0,1.2-1.5,0-1.5h-9.36c-.04-.42-.09-.83-.13-1.25-.1-.96-1.96-.96-1.86,0,.04.42.09.83.13,1.25h-4.56c-.1-.77-.2-1.53-.32-2.3-.06-.41-.38-.75-.93-.75-.45,0-.99.35-.93.75.12.76.22,1.53.32,2.3h-8.52c-1.2,0-1.2,1.5,0,1.5h8.7c.07.62.15,1.24.21,1.86-.08-.01-.17-.03-.25-.04-4.45-.54-9.03-.19-13.18,1.26-2.15.75-4.17,1.83-5.63,3.32-1.46,1.5-2.4,3.36-2.74,5.24-.35,1.93-.03,4.16,1.89,5.52,1.64,1.16,4.15,1.62,6.04.58.98-.54.05-1.84-.94-1.3-1.35.74-3.12.3-4.16-.63-1.28-1.16-1.28-2.95-.91-4.38.41-1.61,1.24-3.21,2.62-4.44,1.36-1.22,3.14-2.1,5.01-2.7,3.94-1.28,8.24-1.5,12.37-.9.11,1.39.21,2.77.27,4.16.04.96,1.9.97,1.86,0-.05-1.28-.14-2.55-.24-3.83,1.62.34,3.19.81,4.7,1.4.29,2.81.58,5.63.88,8.44.1.95,1.96.96,1.86,0-.26-2.54-.53-5.07-.79-7.61.36.17.72.35,1.07.53,3.66,1.94,7.67,5.17,6.4,9.05-.31.93,1.49,1.33,1.79.4,1.32-4.04-1.98-7.57-5.75-9.88ZM248.55,259.27c-.07-.72-.15-1.44-.23-2.16h4.53c.12,1.14.24,2.27.35,3.41-1.5-.53-3.06-.94-4.65-1.24Z"/><path class="cls-1" d="M245.85,273.91c.33-.24.37-.6.19-.92-1.61-2.89-3.5-5.66-5.67-8.3-.58-.7-1.95-.27-1.7.58.83,2.78.1,5.78-1.93,8.12-.49.57-1.37,1.24-.68,1.95.65.68,1.84.3,2.7.2,2.19-.26,4.41-.33,6.62-.25,1,.03,1.15-1.01.47-1.37ZM241.11,273.83c-.67.04-1.34.1-2.01.17-.23.02-.47.05-.7.08.04-.04.08-.08.11-.13.31-.37.58-.76.83-1.16.5-.81.89-1.66,1.14-2.54.2-.7.3-1.41.34-2.12,1.32,1.82,2.54,3.69,3.61,5.62,0,.01.02.02.03.03-1.12-.02-2.24,0-3.36.06Z"/><path class="cls-1" d="M54.56,253.88c-1.08-.41-2.02.89-.94,1.3,3.03,1.14,6.56,2.5,8.14,5.02,1.6,2.55.03,5.55-2.62,7.2-.16-.41-.34-.81-.57-1.2-1.26-2.16-3.44-3.96-5.71-5.47-2.26-1.5-4.84-2.9-7.63-3.64-1.42-.38-2.97-.55-4.45-.26-1.43.28-2.57,1.02-3.51,1.9-1.26,1.18-2.5,2.41-3.65,3.67-1.31-2.02-1.85-4.36-1.2-6.61.27-.94-1.52-1.34-1.79-.4-.83,2.88-.03,5.85,1.82,8.34-1.43,1.69-2.71,3.62-2.8,5.7-.1,2.42,1.7,4.32,3.99,5.73,4.94,2.9,12.13,2.75,17.67,1.16,2.68-.77,5.64-1.89,7.25-3.88.86-1.06,1.11-2.26.98-3.45,3.22-1.72,5.43-4.87,4.54-8.02-1.04-3.66-5.64-5.64-9.51-7.1ZM37.39,261c.73-.72,1.42-1.52,2.33-2.1,1.04-.66,2.33-.82,3.61-.65,2.53.33,4.92,1.57,6.96,2.76,2.07,1.21,4.09,2.68,5.55,4.38.71.83,1.35,1.8,1.68,2.82-2.98,1.22-6.56,1.37-9.85,1.05v-6.99c0-.97-1.86-.97-1.86,0v6.76c-1.12-.17-2.23-.41-3.31-.72v-5.27c0-.97-1.86-.97-1.86,0v4.64c-1.66-.64-3.2-1.46-4.51-2.52-.52-.42-1.01-.88-1.44-1.37.86-.95,1.78-1.87,2.7-2.78ZM51.98,274.52c-5.33,1.83-12.51,2.23-17.4-.65-1.71-1.05-3.09-2.49-3.07-4.29.01-1.6.97-3.11,2.01-4.43.02-.03.04-.05.06-.08.02.02.03.04.05.06,1.83,1.87,4.3,3.24,7,4.18v2.73c0,.97,1.86.97,1.86,0v-2.17c.89.23,1.79.43,2.69.58.2.03.41.06.62.08v1.89c0,.97,1.86.97,1.86,0v-1.67c3.39.31,6.95.12,10.05-.99-.03.35-.09.71-.24,1.06-.8,1.89-3.38,2.95-5.5,3.69Z"/><path class="cls-1" d="M95.28,274.26h-27.86c-1.2,0-1.2,1.5,0,1.5h27.86c1.2,0,1.2-1.5,0-1.5Z"/><path class="cls-1" d="M95.49,269.66h-28.7c-1.2,0-1.2,1.5,0,1.5h28.7c1.2,0,1.2-1.5,0-1.5Z"/><path class="cls-1" d="M90.24,254.6s.02,0,.03,0c0,0,0,0-.03,0Z"/><path class="cls-1" d="M68.39,261.42v6.37c0,.97,1.86.97,1.86,0v-4.55c1.9,1.82,3.83,3.61,5.75,5.43.09.15.23.25.4.3.4.18.84.02,1.09-.27.02-.02.04-.04.06-.06.02-.03.04-.06.06-.1.08-.13.13-.28.09-.46-.05-.23.02-.6.14-.91.15-.4.41-.76.68-1.11.28-.36.59-.7.92-1.03.32.33.68.64,1.06.92,2.16,1.58,5,2.22,7.86,1.82.5-.07.77-.56.65-.92-.14-.42-.65-.59-1.14-.52-1.99.28-3.91-.13-5.53-1.09-.62-.37-1.18-.83-1.64-1.36.18-.15.36-.3.54-.45,2.02-1.64,4.22-3.12,6.37-4.65,1.07.25,2.18.57,3,1.17.96.7,1.11,1.58.75,2.6-.33.93,1.46,1.33,1.79.4.42-1.16.37-2.43-.54-3.44-.84-.93-2.1-1.49-3.4-1.89.77-.57,1.53-1.17,2.17-1.83.29-.3.38-.66.07-.98-.25-.26-.8-.41-1.17-.2,0,0-.04.03-.19.04.02,0-.33.02-.46.03-.59.02-1.18.01-1.77,0-.97-.02-1.95-.1-2.92-.05-4.04.22-8.04,1.31-12.11,1.25-2.05-.03-4.7-1.01-6.65-.07-2.26,1.09.13,3.53,1.16,4.57.35.35.71.7,1.06,1.05ZM79.78,262.42c-.07-.18-.14-.37-.19-.55-.02-.07-.03-.14-.05-.21,0-.03-.01-.08-.01-.11-.01-.17-.02-.34-.02-.51,0-.08.01-.16.02-.23,0-.03,0-.03,0-.04,0,0,0-.02.02-.06.04-.16.09-.32.15-.48,0-.02.06-.12.07-.15.02-.03.06-.1.07-.12.09-.14.19-.27.31-.4.03-.02.09-.09.11-.11.07-.06.14-.12.21-.17.21-.17.21-.16.41-.27.81-.43,1.72-.65,2.74-.73.61-.05,1.2-.02,1.79.06-.63.43-1.25.85-1.85,1.27-1.26.89-2.57,1.81-3.78,2.8ZM67.11,257.22c.02.06-.11-.17-.02-.07-.02-.02-.01-.03-.01-.05.01,0,.01,0,.03,0-.01,0-.01,0-.02,0,0,0,0,0-.01,0,0-.04.06-.04.08-.03.04-.01.08-.03.11-.04.76-.2,1.76-.08,2.58,0,.58.06,1.15.13,1.72.21.88.12,1.69.11,2.58.06,1.91-.12,3.8-.35,5.68-.59,1.73-.22,3.5-.54,5.25-.6,1.06-.04,2.13.05,3.19.06.05,0,.1,0,.15,0-.4.32-.82.64-1.24.94-.7-.14-1.41-.25-2.12-.33-1.39-.18-3.04.12-4.31.58-1.96.71-3.19,2.24-3.1,3.98.04.8.31,1.58.73,2.3-.56.54-1.07,1.09-1.52,1.69-.29.38-.53.77-.71,1.18-1.99-1.85-4-3.68-5.9-5.59v-2.09c0-.97-1.86-.97-1.86,0v.24c-.43-.46-.83-.93-1.11-1.44-.07-.14-.13-.28-.17-.42ZM67.04,257.12s-.02,0,0,0h0Z"/><path class="cls-1" d="M67.16,257.07s-.08.03-.06.03c.02,0,.02,0,.02,0,.05,0,.05-.01.05-.02Z"/><path class="cls-1" d="M158.51,270.34c-.44,1.04-.66,2.11-.69,3.2-4.18-.4-8.39-.51-12.6-.59-.11-1.06-.19-2.11-.25-3.17,4.49-.11,8.96-1.15,12.59-3.32.16-.09.25-.21.31-.33.22-.33.17-.76-.27-.95-.15-.11-.34-.15-.54-.14-2.02-.35-3.93-.96-5.92-1.4-2.31-.51-4.81-.85-7.2-.92-.92-.03-1.83.03-2.72.11-.62-3.26-2.05-6.36-4.62-9-.46-.47-1.37-.15-1.55.33-1.27,3.25-2.55,6.83-2.75,10.33-.77.15-1.53.29-2.3.4-.58.08-.86.72-.56,1.1.75.94,1.86,1.52,3.07,1.96.42,2.26,1.46,4.41,3.46,6.35.04.04.08.05.12.08.03.02.06.04.09.06.05.03.1.06.16.07.07.02.15.03.23.04.02,0,.04,0,.06,0,.09,0,.19-.02.28-.06,0,0,.02,0,.03-.01.05-.02.11-.03.16-.06,2.05-1.23,3.27-2.91,3.9-4.77.7.06,1.41.11,2.12.13.07,1.31.17,2.61.32,3.91.05.41.39.74.93.75,4.81.09,9.62.18,14.4.69.48.05.96-.39.93-.75-.09-1.25.12-2.45.62-3.64.39-.92-1.41-1.31-1.79-.4ZM139.54,267.96c-1-.14-2-.3-2.99-.51-.74-.16-1.58-.32-2.4-.54-.05-.41-.07-.83-.08-1.24,1.84-.4,3.68-.84,5.54-1.13.11,1.11.12,2.29-.07,3.43ZM136.27,256.01c1.68,2.12,2.67,4.55,3.13,7.03-1.77.28-3.52.67-5.27,1.06.24-2.74,1.17-5.53,2.14-8.09ZM132.05,266.07c.08-.01.15-.03.23-.04,0,.06,0,.12.01.17-.08-.04-.16-.08-.24-.13ZM136.78,272.69c-1.18-1.29-1.91-2.7-2.31-4.17.2.05.41.1.61.15,1.34.32,2.7.58,4.08.76-.44,1.23-1.18,2.36-2.38,3.25ZM141.37,268.16c.2-1.13.23-2.29.12-3.43-.01-.14-.04-.28-.05-.42.83-.08,1.66-.12,2.5-.1,2.32.07,4.73.42,6.96.93,1.31.3,2.59.67,3.9.98-3,1.39-6.41,2.08-9.88,2.16-.02-.84-.04-1.69-.03-2.53.01-.97-1.85-.97-1.86,0-.01.84,0,1.68.02,2.52-.56-.02-1.12-.05-1.68-.1Z"/><path class="cls-1" d="M160.6,257.19c-2.62-1.4-5.9-1.51-8.89-1.03-1.92.31-4.28.74-5.74,1.88-.71.55-1.02,1.33-.62,2.08.49.93,1.74,1.56,2.82,1.98,3.07,1.21,6.54,1.49,9.84,2.05,1.01.15,1.76-.06,2.21-.83.44-.75.79-1.55,1.12-2.34.28-.66.69-1.41.71-2.11.01-.79-.68-1.29-1.44-1.69ZM158.5,262.72c-2.35-.4-4.74-.66-7.05-1.21-1.14-.27-2.28-.6-3.28-1.12-.34-.18-.72-.39-.97-.66-.04-.04-.16-.22-.14-.17-.04-.06-.04-.11-.04-.13.04-.14.09-.19.27-.33.24-.18.55-.33.87-.47.71-.3,1.48-.5,2.25-.68,1.85-.42,3.78-.71,5.7-.51.77.08,1.55.24,2.27.48.45.15,1.69.54,1.8.95.1.35-1.49,3.86-1.68,3.83Z"/><path class="cls-1" d="M140.21,255.86h2.12v4.64c0,.97,1.86.97,1.86,0v-4.64h6.92c1.2,0,1.2-1.5,0-1.5h-6.92v-.94c0-.97-1.86-.97-1.86,0v.94h-2.12c-1.2,0-1.2,1.5,0,1.5Z"/><path class="cls-1" d="M223.36,265.05c-.33,1.67-1.67,2.99-3.5,3.78-1.31.57-2.8.77-4.27.74v-15.22c0-.97-1.86-.97-1.86,0v15.05c-.26-.04-.53-.08-.78-.14-.69-.14-1.36-.33-2.02-.54v-14.01c0-.97-1.86-.97-1.86,0v13.31c-1.05-.45-2.07-.95-3.07-1.48-2.09-1.11-4.25-2.22-6.14-3.55-1.77-1.24-3.35-2.82-3.81-4.69.52.12,1.01.35,1.44.57.71.35,1.39.72,2.15,1,1.6.58,3.32.87,5.08.85,1.2-.02,1.2-1.52,0-1.5-1.89.03-3.7-.35-5.32-1.15-1.49-.73-2.83-1.5-4.65-1.28-.38.05-.7.42-.68.72.34,4.8,5.86,7.53,10.3,9.94.61.33,1.24.66,1.89.98-.1-.03-.21-.06-.34-.06-1.21.05-2.42.07-3.63.13-.72.03-1.49.05-2.17.26-.65.2-1.16.57-1.32,1.13-.16.57-.01,1.18.12,1.74.23.97.52,1.94.75,2.91.07.31.45.51.82.54.08,0,.16,0,.24-.01.03,0,.06,0,.08,0,0,0,.01,0,.02,0,.07-.02.13-.05.19-.08.06-.03.11-.05.16-.08.01-.01.03-.01.04-.02.03-.03.29-.18.12-.09.09-.05.18-.09.27-.13.03-.01.03-.02.04-.02,0,0,.01,0,.04,0,.1-.03.21-.06.32-.08.42-.08.61-.09,1.15-.1.92-.01,1.84.04,2.75-.07.04,0,.38-.05.15-.02.2-.03.35-.04.54-.12.36-.17.57-.5.57-.83,0-.24-.12-.47-.18-.7-.06-.22-.12-.44-.16-.67-.17-.86-.17-1.84,0-2.7.06-.3-.08-.61-.36-.79.85.41,1.72.79,2.62,1.14v4.96c0,.97,1.86.97,1.86,0v-4.33c.92.27,1.86.48,2.81.62v3.82c0,.97,1.86.97,1.86,0v-3.67c1.57.04,3.16-.17,4.71-.75,2.43-.9,4.43-2.71,4.86-4.88.18-.94-1.61-1.35-1.79-.4ZM200.55,270.29s0,0,0,0c0,0,0,0,0,0,0,0,0,0,0,0ZM200.52,270.27s.01,0,.03-.02c0,0,0,.01,0,.02-.02,0-.03,0-.03,0ZM200.53,270.26s0,0,0,0c0,0,0,0,0,0ZM202.99,272.95c-.61.01-1.23.08-1.8.24-.14-.53-.28-1.07-.42-1.6-.07-.28-.1-.58-.19-.85,0,.02,0,.02.01.03,0-.01,0-.03,0-.04,0-.05-.01-.11-.02-.16,0-.09,0-.19,0-.28,0-.01,0-.02,0-.03,0,0,0,0,0,0,0,0,0,0,0,0,0,0,0,0,0,0,0,0,0,0,0,0,0-.01,0-.01,0-.02,0,0,.01,0,.02-.01,0,0,0,0,0,0,0,0,0,0,0,0,0,0,0,0,0,0,0-.01.01-.02.02-.03,0-.02,0-.01,0-.01.02-.02.03-.01.02.02,0,0,.02-.01.02-.02,0,.01-.01.01-.02.02.01,0,.02-.01.05-.02,0,0,0,0,0,0,.02,0,.04-.01.05-.02-.01,0-.02.01-.03.02.05-.01.1-.02.14-.04.13-.03.26-.05.39-.06.02,0,.04,0,.07,0,.06,0,.13-.01.19-.02.2-.02.4-.03.6-.04.92-.05,1.84-.07,2.76-.1-.05.47-.07.93-.03,1.4.03.41.1.81.18,1.21.03.14.07.27.1.41-.18,0-.35.02-.53.02-.53,0-1.07-.01-1.6,0ZM205.84,272.87h.02s.07-.01.1-.01c-.04,0-.08,0-.12.01Z"/><path class="cls-1" d="M182.24,255.7c8-.22,16.02-.23,24.02-.05,1.2.03,1.2-1.47,0-1.5-8.01-.18-16.02-.17-24.02.05-1.19.03-1.2,1.53,0,1.5Z"/><path class="cls-1" d="M196.16,269.83c-9.28-.19-18.56-.17-27.84.05-1.19.03-1.2,1.53,0,1.5,9.28-.22,18.56-.23,27.84-.05,1.2.02,1.2-1.48,0-1.5Z"/><path class="cls-1" d="M196.16,273.1c-9.28-.19-18.56-.17-27.84.05-1.19.03-1.2,1.53,0,1.5,9.28-.22,18.56-.23,27.84-.05,1.2.02,1.2-1.48,0-1.5Z"/><path class="cls-1" d="M196.6,266.14c-1.24,1.38-3.66,1.41-5.49.94-2.05-.53-4.14-1.59-5.78-2.7-.57-.38-1.47-1.08-2.08-1.85,0,0,.01,0,.02,0,1.22-.28,2.5-.27,3.74-.47,1.19-.19,2.42-.57,3.24-1.31.96-.87.19-1.99-.9-2.5-.99-.47-2.22-.52-3.34-.42-1.18.1-2.44.29-3.47.8-1.51.76-1.87,1.91-1.59,3.07-.39.19-.75.42-1.07.69-.61.53-.98,1.18-1.01,1.91-.02.37.17.8.07,1.16-.1.4-.76.31-1.18.29-2.14-.08-4.09-.98-5.76-2-1.01-.62-1.95-1.32-2.87-2.03-.26-.2-1.18-.74-1.13-1.07.04-.31,1.2-.67,1.5-.81,2.14-1,4.36-1.88,6.63-2.65.06,1.58-.14,3.15-.62,4.7-.3.94,1.5,1.34,1.79.4.64-2.03.86-4.11.62-6.19-.05-.43-.56-.92-1.18-.72-3.05.97-6,2.12-8.81,3.47-1.15.55-2.25,1.28-1.61,2.47.52.97,1.82,1.74,2.78,2.43,2.06,1.48,4.43,2.91,7.19,3.35,1.17.19,2.86.39,3.82-.34.45-.34.64-.79.67-1.29.03-.48-.18-.98-.02-1.45.13-.37.44-.66.82-.89.23.35.51.69.81.99.93.95,2.12,1.7,3.35,2.36,1.37.74,2.8,1.42,4.35,1.89,2.82.86,6.22.59,8.09-1.49.7-.78-.91-1.53-1.61-.76ZM183.06,260.19c.58-.52,1.57-.69,2.39-.81.82-.12,1.77-.2,2.58.01.17.04.33.1.48.18.06.03.21.17.3.22-.02.03-.05.07-.09.08-.08.04-.17.11-.25.15-.2.11-.42.21-.65.29-.9.3-1.91.38-2.87.47-.77.07-1.55.17-2.31.34,0-.33.11-.65.43-.94Z"/><path class="cls-1" d="M200.6,270.23s0,0,0,0c.02,0,.05-.02.1-.05h-.03s-.04.02-.06.03c0,0,0,0,0,0,0,0,0,0,0,0,0,0,0,0,0,0,0,0,0,0,0,0,0,0,0,0-.01.01-.01,0-.01,0-.02.01,0,0,0,0,0,0,0,0,0,0,0,0,0,0,0,0,0,0,0,0,0,0,0,.01,0,0,0,.01-.02.02,0,0,0,0,0,0,0,0,0,0,.01,0,0,0,0,0,0,0,0,0,0,0,0,0,0,0,.01-.01.02-.02Z"/><path class="cls-1" d="M200.59,270.77c.02.08.05.15,0,0h0Z"/><path class="cls-1" d="M225.26,260.51c2.31-.23,4.28-1.69,4.43-3.62.12-1.61-1.24-3.36-3.3-3.64-1.99-.26-4.1.67-5.47,1.77-1.33,1.07-2.18,2.74-.89,4.07,1.16,1.19,3.44,1.57,5.22,1.43ZM221.34,257.12s.06-.12.07-.13c.02-.03.04-.07.06-.1.09-.14.2-.28.32-.41.35-.38.97-.81,1.54-1.1.66-.33,1.3-.57,2.08-.67-.12.01.26-.01.33-.01s.12,0,.18,0c.03,0,.05,0,.06,0,.01,0,.02,0,.04,0,.32.05.59.15.8.27.55.34.82.79.97,1.33.14.54-.04,1.2-.55,1.73-.48.5-1.25.89-1.98.96-.3.02-.59.03-.89.02-.17,0-.33-.02-.5-.03,0,0-.03,0-.06,0-.1-.01-.2-.03-.29-.04-.32-.05-.64-.12-.94-.21-.04-.01-.08-.02-.12-.04-.01,0-.15-.06-.16-.06-.16-.06-.31-.14-.45-.21-.02-.01-.02-.01-.04-.02-.06-.04-.11-.08-.17-.12-.04-.03-.08-.06-.11-.09-.03-.02-.03-.02-.04-.03,0,0,0,0-.02-.02-.03-.04-.2-.3-.13-.16-.03-.05-.05-.1-.06-.16-.01-.04-.05-.26-.03-.1-.03-.29-.01-.35.09-.61Z"/></g></svg>