<?xml version="1.0" encoding="UTF-8"?><svg id="Layer_1" xmlns="http://www.w3.org/2000/svg" viewBox="0 0 314.21 300.13"><defs><style>.cls-1{fill:#fff;}</style></defs><g id="Square_6"><path class="cls-1" d="M263.2,35.48c0-2.9.49-5.69,1.38-8.28-.08.79-.12,1.6-.12,2.41,0,13.39,10.85,24.24,24.24,24.24s24.24-10.85,24.24-24.24c0-.81-.04-1.62-.12-2.41.89,2.6,1.38,5.38,1.38,8.28,0,14.09-11.42,25.51-25.51,25.51-14.09,0-25.51-11.42-25.51-25.51Z"/><path class="cls-1" d="M306.73,242.41h-36.04c4.83,0,4.83-8.31,0-8.31h36.04c-4.83,0-4.83,8.31,0,8.31Z"/><path class="cls-1" d="M306.73,255.4h-36.04c4.83,0,4.83,8.31,0,8.31h36.04c-4.83,0-4.83-8.31,0-8.31Z"/><path class="cls-1" d="M51.01,35.48c0-2.9-.49-5.69-1.38-8.28.08.79.12,1.6.12,2.41,0,13.39-10.85,24.24-24.24,24.24-13.39,0-24.24-10.85-24.24-24.24,0-.81.04-1.62.12-2.41C.49,29.79,0,32.58,0,35.48c0,14.09,11.42,25.51,25.51,25.51,14.09,0,25.51-11.42,25.51-25.51Z"/><path class="cls-1" d="M7.48,242.41h36.04c-4.83,0-4.83-8.31,0-8.31H7.48c4.83,0,4.83,8.31,0,8.31Z"/><path class="cls-1" d="M7.48,255.4h36.04c-4.83,0-4.83,8.31,0,8.31H7.48c4.83,0,4.83-8.31,0-8.31Z"/><path class="cls-1" d="M291.71,15.46h-5.23c-5.11-1.14-8.16-6.37-11.3-15.46-3.14,9.09-6.19,14.33-11.3,15.46H50.34c-5.11-1.14-8.16-6.37-11.3-15.46-3.14,9.09-6.19,14.33-11.3,15.46h-5.23v269.2h5.23c5.11,1.14,8.16,6.37,11.3,15.46,3.14-9.09,6.19-14.33,11.3-15.46h213.54c5.11,1.14,8.16,6.37,11.3,15.46,3.14-9.09,6.19-14.33,11.3-15.46h5.23V15.46ZM285.71,278.67H28.51V21.46h257.2v257.2Z"/></g></svg>