<?xml version="1.0" encoding="UTF-8"?><svg id="Layer_1" xmlns="http://www.w3.org/2000/svg" viewBox="0 0 325.96 389.84"><defs><style>.cls-1{fill:#fff;}</style></defs><g id="Symbol_3"><path class="cls-1" d="M285.01,261.01v7.53s-95.11,0-95.11,0c0,0,5.74-6.71,6.47-15.7.48-5.9-1.42-13.54-5.75-18.24-6.82-7.39-16.58-12.02-27.42-12.02-10.85,0-20.61,4.63-27.42,12.02-4.34,4.7-6.23,12.34-5.75,18.24.73,8.99,6.47,15.7,6.47,15.7H41.38s0-7.53,0-7.53h83.9c-.08-.28-1.34-7.02-1.34-10.16,0-21.68,17.58-36.25,39.26-36.25,21.68,0,39.26,14.57,39.26,36.25,0,3.13-1.27,9.88-1.34,10.16h83.9Z"/><path class="cls-1" d="M186.25,342.37s-.57,4.58-3.2,5.06h-17.16l4.86-70.96-7.77-59.23-7.77,59.23,4.86,70.96h-17.16c-2.63-.49-3.2-5.06-3.2-5.06h-1.76v13.57h1.76s.57-4.58,3.2-5.06h17.39l2.67,38.96,2.67-38.96h17.39c2.63.49,3.2,5.06,3.2,5.06h1.76v-13.57h-1.76Z"/><path class="cls-1" d="M325.96,169.37c-9.91,1.36-18.96-2.57-22.54-9.15-3.19-14.75-8.58-29.06-16.12-42.52.02-.02.04-.03.04-.03-3.57-7.74-9.53-24.6-9.53-24.6,0,0,.46,19.54-2.38,28.27-18.07,46.11-62.38,76.62-112.45,76.62s-94.38-30.51-112.45-76.62c-2.85-8.73-2.38-28.27-2.38-28.27,0,0-5.96,16.85-9.53,24.6,0,0,.02.01.04.03-7.54,13.46-12.94,27.77-16.12,42.52-3.58,6.58-12.63,10.52-22.54,9.15,10.06,1.38,17.79,7.78,19.31,15.22-.76,15.04.7,30.29,4.45,45.34,9.48,38.1,32.57,70.74,65.26,92.5,4.63,5.14,7.57,23.4,7.57,23.4,0,0,2.58-20.12,4.58-26.67,10.83-24.13,35.12-40.05,61.82-40.05s50.99,15.92,61.82,40.05c2,6.55,4.58,26.67,4.58,26.67,0,0,2.94-18.27,7.57-23.4,32.69-21.75,55.78-54.4,65.26-92.5,3.75-15.05,5.21-30.31,4.44-45.34,1.51-7.44,9.25-13.84,19.31-15.22ZM232.17,316.02c-12.08-27.05-39.29-44.89-69.19-44.89s-57.11,17.85-69.19,44.89C30.86,274.33,9.26,191.36,43.54,125.48c19.56,48.49,66.49,80.49,119.44,80.49s99.88-32,119.44-80.49c34.29,65.88,12.68,148.85-50.25,190.54Z"/><path class="cls-1" d="M212.63,149.07s-.98,6.97-5.53,7.46h-9.07c-1.29-18.22-16.51-32.65-35.05-32.65s-33.76,14.43-35.05,32.65h-8.64c-4.55-.48-5.53-7.46-5.53-7.46h-1v19.91h1s.98-6.98,5.54-7.46h8.64c1.29,18.22,16.51,32.65,35.05,32.65s33.76-14.43,35.05-32.65h9.07c4.55.48,5.54,7.46,5.54,7.46h1v-19.91h-1ZM192.02,156.53h-26.03v-26.5c13.85,1.42,24.85,12.58,26.03,26.5ZM159.98,130.04v26.5h-26.03c1.19-13.91,12.19-25.07,26.03-26.5ZM133.95,161.53h26.03v26.5c-13.85-1.42-24.85-12.58-26.03-26.5ZM165.98,188.03v-26.5h26.03c-1.19,13.91-12.19,25.07-26.03,26.5Z"/><path class="cls-1" d="M200.72,78.98v-41.19h-35.36V6.54c.48-4.55,7.46-5.53,7.46-5.53V0h-19.92v1s6.98.98,7.46,5.54v31.25h-35.36v41.18c-.48,4.55-7.46,5.54-7.46,5.54v1h19.91v-1s-6.97-.98-7.46-5.53v-36.18h30.36v8.84c-10.46.98-18.15,7.53-21.11,10.48l-1.43,1.42,1.43,1.42c2.97,2.95,10.66,9.5,21.11,10.48v13.55c-.48,4.55-7.46,5.54-7.46,5.54v1h19.92v-1s-6.97-.98-7.46-5.53v-13.52c10.58-.9,18.36-7.53,21.35-10.51l1.43-1.42-1.43-1.42c-2.99-2.97-10.78-9.61-21.35-10.51v-8.81h30.36v36.18c-.48,4.55-7.46,5.54-7.46,5.54v1h19.91v-1s-6.97-.98-7.46-5.53ZM143.59,63.53c3.24-2.85,9.2-7.05,16.78-7.88v15.75c-7.58-.82-13.53-5.02-16.78-7.88ZM182.38,63.53c-3.28,2.88-9.32,7.14-17.02,7.9v-15.8c7.69.76,13.74,5.02,17.02,7.9Z"/><path class="cls-1" d="M258.64,105.83c7.57-7.81,7.5-20.31-.21-28.02-7.79-7.79-20.46-7.79-28.25,0-3.77,3.77-5.85,8.79-5.85,14.13,0,3.18.74,6.25,2.13,9.01h-51.34v3c0,6.76-5.5,12.26-12.26,12.26s-12.25-5.5-12.25-12.26v-3h-51.35c1.39-2.76,2.13-5.83,2.13-9.01,0-5.34-2.08-10.35-5.85-14.13-3.77-3.77-8.79-5.85-14.13-5.85s-10.35,2.08-14.13,5.85c-7.71,7.71-7.78,20.21-.21,28.02.77,3.34-2.35,7.42-2.35,7.42l1.97,1.97,14.17-14.17-1.97-1.97s-4.43,3.38-7.84,2.22c-2.33-2.57-3.62-5.87-3.62-9.37,0-3.73,1.45-7.24,4.09-9.88,2.64-2.64,6.15-4.09,9.88-4.09s7.24,1.45,9.88,4.09c2.64,2.64,4.09,6.15,4.09,9.88s-1.46,7.24-4.09,9.88l-5.12,5.12h58.67c1.43,8.65,8.96,15.26,18,15.26s16.58-6.61,18.01-15.26h58.66l-5.12-5.12c-2.64-2.64-4.09-6.15-4.09-9.88s1.45-7.24,4.09-9.88c5.45-5.45,14.32-5.45,19.77,0,2.64,2.64,4.09,6.15,4.09,9.88,0,3.5-1.29,6.79-3.62,9.37-3.41,1.16-7.84-2.22-7.84-2.22l-1.97,1.97,14.17,14.17,1.97-1.97s-3.11-4.08-2.35-7.42Z"/><path class="cls-1" d="M112.46,235.97v-20.12c.49-2.63,5.06-3.2,5.06-3.2v-1.76h-13.57v1.76s4.58.57,5.06,3.2v8.06h-14.24v-8.06c.49-2.63,5.06-3.2,5.06-3.2v-1.76h-13.57v1.76s4.58.57,5.06,3.2v8.06h-14.24v-8.06c.49-2.63,5.06-3.2,5.06-3.2v-1.76h-13.57v1.76s4.58.57,5.06,3.2v8.06h-15.33c-.96-6.19-6.3-10.92-12.75-10.92-1.47,0-2.88.25-4.2.7.4-.04.81-.06,1.22-.06,6.78,0,12.28,5.5,12.28,12.28s-5.5,12.28-12.28,12.28c-.41,0-.82-.02-1.22-.06,1.32.45,2.73.7,4.2.7,6.46,0,11.79-4.74,12.75-10.92h15.33v8.06c-.49,2.63-5.06,3.2-5.06,3.2v1.76h13.57v-1.76s-4.58-.57-5.06-3.2v-8.06h14.24v8.06c-.49,2.63-5.06,3.2-5.06,3.2v1.76h13.57v-1.76s-4.58-.57-5.06-3.2v-8.06h14.24v8.06c-.49,2.63-5.06,3.2-5.06,3.2v1.76h13.57v-1.76s-4.58-.57-5.06-3.2Z"/><path class="cls-1" d="M271.08,225.9c0-6.78,5.5-12.28,12.28-12.28.41,0,.82.02,1.22.06-1.32-.45-2.73-.7-4.2-.7-6.46,0-11.79,4.74-12.75,10.92h-15.33v-8.06c.49-2.63,5.06-3.2,5.06-3.2v-1.76h-13.57v1.76s4.58.57,5.06,3.2v8.06h-14.24v-8.06c.49-2.63,5.06-3.2,5.06-3.2v-1.76h-13.57v1.76s4.58.57,5.06,3.2v8.06h-14.24v-8.06c.49-2.63,5.06-3.2,5.06-3.2v-1.76h-13.57v1.76s4.58.57,5.06,3.2v20.12c-.49,2.63-5.06,3.2-5.06,3.2v1.76s13.57,0,13.57,0v-1.76s-4.58-.57-5.06-3.2v-8.06h14.24v8.06c-.49,2.63-5.06,3.2-5.06,3.2v1.76h13.57v-1.76s-4.58-.57-5.06-3.2v-8.06h14.24v8.06c-.49,2.63-5.06,3.2-5.06,3.2v1.76h13.57v-1.76s-4.58-.57-5.06-3.2v-8.06h15.33c.96,6.19,6.3,10.92,12.75,10.92,1.47,0,2.88-.25,4.2-.7-.4.04-.81.06-1.22.06-6.78,0-12.28-5.5-12.28-12.28Z"/></g></svg>