<?xml version="1.0" encoding="UTF-8"?><svg id="Layer_1" xmlns="http://www.w3.org/2000/svg" viewBox="0 0 364.06 339.58"><defs><style>.cls-1{fill:#fff;}</style></defs><g id="Symbol_9"><path class="cls-1" d="M232.45,339.58c5.99-9.32,9.48-20.41,9.48-32.31,0-33.08-26.82-59.9-59.9-59.9-33.08,0-59.9,26.82-59.9,59.9,0,11.91,3.49,22.99,9.48,32.31-9.64-11.46-15.45-26.23-15.45-42.38,0-36.38,29.49-65.87,65.87-65.87,36.38,0,65.87,29.49,65.87,65.87,0,16.14-5.82,30.92-15.45,42.38Z"/><path class="cls-1" d="M232.45,0c5.99,9.32,9.48,20.41,9.48,32.31,0,33.08-26.82,59.9-59.9,59.9-33.08,0-59.9-26.82-59.9-59.9,0-11.91,3.49-22.99,9.48-32.31-9.64,11.46-15.45,26.23-15.45,42.38,0,36.38,29.49,65.87,65.87,65.87,36.38,0,65.87-29.49,65.87-65.87,0-16.14-5.82-30.92-15.45-42.38Z"/><path class="cls-1" d="M224.12,134.72c.85-4.59,8.83-5.58,8.83-5.58v-3.06h-23.66v3.06s7.98,1,8.83,5.58v70.16c-.85,4.58-8.83,5.58-8.83,5.58v3.06h23.66v-3.06s-7.98-1-8.83-5.58v-70.15Z"/><path class="cls-1" d="M260.16,144.72c.85-4.59,8.83-5.59,8.83-5.59v-3.06h-23.66v3.06s7.98,1,8.83,5.58v50.16c-.85,4.58-8.83,5.58-8.83,5.58v3.06h23.66v-3.06s-7.98-1-8.83-5.59v-50.15Z"/><path class="cls-1" d="M353.18,136.15c3.81,0,7.47.65,10.89,1.82-1.04-.1-2.1-.16-3.17-.16-17.59,0-31.86,14.26-31.86,31.86,0,17.59,14.26,31.86,31.86,31.86,1.07,0,2.13-.05,3.17-.16-3.41,1.17-7.07,1.82-10.89,1.82-18.51,0-33.52-15.01-33.52-33.52,0-18.51,15.01-33.52,33.52-33.52Z"/><path class="cls-1" d="M10.89,136.15c-3.81,0-7.47.65-10.89,1.82,1.04-.1,2.1-.16,3.17-.16,17.59,0,31.86,14.26,31.86,31.86,0,17.59-14.26,31.86-31.86,31.86-1.07,0-2.13-.05-3.17-.16,3.41,1.17,7.07,1.82,10.89,1.82,18.51,0,33.52-15.01,33.52-33.52,0-18.51-15.01-33.52-33.52-33.52Z"/><path class="cls-1" d="M341.37,157.79s-1.26,8.54-7.1,9H30.03c-5.84-.46-7.1-9-7.1-9h-3.63v24h3.63s1.26-8.54,7.1-9h304.25c5.84.46,7.1,9,7.1,9h3.63v-24h-3.63Z"/><path class="cls-1" d="M194.15,30.57v-3.63h-24v3.63s8.55,1.26,9,7.1v264.24c-.45,5.84-9,7.1-9,7.1v3.63h24v-3.63s-8.54-1.26-9-7.1V37.67c.46-5.84,9-7.1,9-7.1Z"/><path class="cls-1" d="M324.04,120.35v-1h-19.91v1s6.98.99,7.46,5.54v87.8c-.48,4.55-7.46,5.54-7.46,5.54v1h19.91v-1s-6.97-.98-7.46-5.53v-87.82c.49-4.55,7.46-5.53,7.46-5.53Z"/><path class="cls-1" d="M139.94,134.72c-.85-4.59-8.83-5.58-8.83-5.58v-3.06h23.66v3.06s-7.98,1-8.83,5.58v70.16c.85,4.58,8.83,5.58,8.83,5.58v3.06h-23.66v-3.06s7.98-1,8.83-5.58v-70.15Z"/><path class="cls-1" d="M103.91,144.72c-.85-4.59-8.83-5.59-8.83-5.59v-3.06h23.66v3.06s-7.98,1-8.83,5.58v50.16c.85,4.58,8.83,5.58,8.83,5.58v3.06h-23.66v-3.06s7.98-1,8.83-5.59v-50.15Z"/><path class="cls-1" d="M40.02,120.35v-1h9.96c4.44,0,9.96,0,9.96,0v1s-6.98.99-7.46,5.54v87.8c.48,4.55,7.46,5.54,7.46,5.54v1s-5.52,0-9.96,0h-9.96v-1s6.97-.98,7.46-5.53v-87.82c-.49-4.55-7.46-5.53-7.46-5.53Z"/><path class="cls-1" d="M295.31,282.95H68.99V56.63h226.32v226.32ZM72.99,278.95h218.32V60.63H72.99v218.32Z"/></g></svg>