<?xml version="1.0" encoding="UTF-8"?><svg id="Layer_1" xmlns="http://www.w3.org/2000/svg" viewBox="0 0 312.16 345.71"><defs><style>.cls-1{fill:#fff;}</style></defs><g id="Symbol_13"><path class="cls-1" d="M144.08,0v3.63s8.52,1.25,9,7.07v135.04h6V10.76c.43-5.87,9-7.13,9-7.13V0h-24Z"/><path class="cls-1" d="M159.08,334.95v-135.21h-6v135.27c-.48,5.81-9,7.07-9,7.07v3.63h24v-3.63s-8.57-1.26-9-7.13Z"/><path class="cls-1" d="M156.08,111.06c-15.61,0-27.19-9.85-31.45-14.08l-1.43-1.42,1.43-1.42c4.26-4.23,15.84-14.08,31.45-14.08s27.19,9.85,31.45,14.08l1.43,1.42-1.43,1.42c-4.26,4.23-15.84,14.08-31.45,14.08ZM128.94,95.56c4.74,4.31,14.54,11.5,27.14,11.5s22.4-7.19,27.14-11.5c-4.74-4.31-14.54-11.5-27.14-11.5s-22.4,7.19-27.14,11.5Z"/><path class="cls-1" d="M156.08,315.14L43.15,119.55h225.85l-112.92,195.59ZM57.01,127.55l99.07,171.59,99.07-171.59H57.01Z"/><path class="cls-1" d="M41.19,339.17v-9.47h36.19l-36.19-56.1v-58.28h17.56c2.63.49,3.2,5.06,3.2,5.06h1.76v-13.57h-1.76s-.57,4.58-3.2,5.06h-17.56v-15.52h17.56c2.63.49,3.2,5.06,3.2,5.06h1.76v-13.57h-1.76s-.57,4.58-3.2,5.06h-17.56v-33.85c.48-4.55,7.46-5.53,7.46-5.53v-1h-19.92v1s6.98.98,7.46,5.53v33.85h-17.56c-2.63-.49-3.2-5.06-3.2-5.06h-1.76v13.57h1.76s.57-4.58,3.2-5.06h17.56v15.52h-17.56c-2.63-.49-3.2-5.06-3.2-5.06h-1.76v13.57h1.76s.57-4.58,3.2-5.06h17.56v58.28L0,329.71h36.19v9.47c-.48,4.55-7.46,5.53-7.46,5.53v1h19.92v-1s-6.98-.98-7.46-5.53ZM70.04,325.71h-28.85v-44.72l28.85,44.72ZM7.34,325.71l28.85-44.72v44.72H7.34Z"/><path class="cls-1" d="M263.51,344.71v1h19.92v-1s-6.98-.98-7.46-5.53v-9.47s36.19,0,36.19,0l-36.19-56.1v-58.28s17.56,0,17.56,0c2.63.49,3.2,5.06,3.2,5.06h1.76v-13.57h-1.76s-.57,4.58-3.2,5.06h-17.56s0-15.52,0-15.52h17.56c2.63.49,3.2,5.06,3.2,5.06h1.76v-13.57h-1.76s-.57,4.58-3.2,5.06h-17.56s0-33.85,0-33.85c.48-4.55,7.46-5.53,7.46-5.53v-1h-19.92v1s6.98.98,7.46,5.53v33.85s-17.56,0-17.56,0c-2.63-.49-3.2-5.06-3.2-5.06h-1.76v13.57h1.76s.57-4.58,3.2-5.06h17.56s0,15.52,0,15.52h-17.56c-2.63-.49-3.2-5.06-3.2-5.06h-1.76v13.57h1.76s.57-4.58,3.2-5.06h17.56s0,58.28,0,58.28l-36.19,56.1h36.19s0,9.47,0,9.47c-.48,4.55-7.46,5.53-7.46,5.53ZM270.97,280.98v44.72s-28.85,0-28.85,0l28.85-44.72ZM275.97,325.71v-44.72s28.85,44.72,28.85,44.72h-28.85Z"/><path class="cls-1" d="M301.86,69.03c-.76-3.34,2.35-7.42,2.35-7.42l-1.97-1.97-14.17,14.17,1.97,1.97s4.43-3.38,7.84-2.22c2.33,2.57,3.62,5.87,3.62,9.37,0,3.73-1.45,7.24-4.09,9.88-5.45,5.45-14.32,5.45-19.77,0-2.64-2.64-4.09-6.15-4.09-9.88s1.45-7.24,4.09-9.88l5.12-5.12h-108.67c-1.43-8.65-8.96-15.26-18-15.26s-16.58,6.61-18.01,15.26H29.4l5.12,5.12c2.64,2.64,4.09,6.15,4.09,9.88s-1.45,7.24-4.09,9.88c-2.64,2.64-6.15,4.09-9.88,4.09s-7.24-1.45-9.88-4.09c-2.64-2.64-4.09-6.15-4.09-9.88,0-3.5,1.29-6.79,3.62-9.37,3.41-1.15,7.84,2.22,7.84,2.22l1.97-1.97-14.17-14.17-1.97,1.97s3.11,4.08,2.35,7.42c-3.63,3.75-5.64,8.66-5.64,13.89s2.08,10.35,5.85,14.13c3.77,3.77,8.79,5.85,14.13,5.85s10.35-2.08,14.13-5.85c3.77-3.77,5.85-8.79,5.85-14.13,0-3.18-.74-6.25-2.13-9.01h101.34v-3c0-6.76,5.5-12.26,12.26-12.26s12.25,5.5,12.25,12.26v3h101.35c-1.4,2.76-2.13,5.83-2.13,9.01,0,5.34,2.08,10.35,5.85,14.13,3.77,3.77,8.79,5.85,14.13,5.85s10.35-2.08,14.13-5.85,5.85-8.79,5.85-14.13-2.01-10.15-5.64-13.89Z"/><path class="cls-1" d="M197.09,211.63c-.3-2.81,2.12-5.99,2.12-5.99l-1.72-1.72-12.34,12.34,1.72,1.72s3.17-2.41,5.97-2.12c9.69,9.77,15.03,22.71,15.03,36.48s-5.39,26.84-15.17,36.62c-10.1,10.1-23.36,15.15-36.62,15.15-13.26,0-26.53-5.05-36.62-15.15-20.15-20.15-20.19-52.9-.14-73.1,2.8-.29,5.97,2.12,5.97,2.12l1.72-1.72-12.34-12.34-1.72,1.72s2.42,3.18,2.12,5.99c-22.38,22.55-22.34,59.1.15,81.58,11.27,11.27,26.07,16.9,40.87,16.9,14.8,0,29.6-5.63,40.87-16.9,10.92-10.92,16.93-25.43,16.93-40.87s-5.96-29.81-16.78-40.71Z"/><path class="cls-1" d="M307.93,161.03s-1,7.98-5.58,8.83h-83.41c-8.55-8.49-31.7-28.12-62.86-28.12s-54.31,19.63-62.86,28.12H9.81c-4.58-.85-5.58-8.83-5.58-8.83H1.16v23.66h3.06s1-7.98,5.58-8.83h83.66c8.73,8.61,31.73,27.88,62.61,27.88s53.88-19.27,62.61-27.88h83.66c4.58.85,5.58,8.83,5.58,8.83h3.06v-23.66h-3.06ZM156.07,149.74c-.09,8.29-4.82,20.19-12.09,20.19,6.41,0,10.85,12.69,11.87,25.81-25.08-.09-44.6-14.4-54.05-23,9.48-8.62,29.08-23,54.27-23ZM156.3,195.74c1.02-13.12,5.46-25.81,11.87-25.81-7.27,0-12-11.89-12.09-20.19,25.19,0,44.79,14.38,54.27,23-9.45,8.59-28.97,22.91-54.05,23Z"/></g></svg>