<?xml version="1.0" encoding="UTF-8"?><svg id="Layer_1" xmlns="http://www.w3.org/2000/svg" viewBox="0 0 291.76 408.37"><defs><style>.cls-1{fill:#fff;}</style></defs><g id="Symbol_6"><path class="cls-1" d="M207.72,347.16l-1.36-4.17c-8.55-26.21-34.09-29.82-60.42-29.82s-51.87,3.61-60.42,29.82l-1.36,4.17-2.25-3.77c-11-18.37-14.19-39.99-8.98-60.89,5.2-20.91,18.21-38.68,36.63-50.06l2.08-1.28.85,2.29c5.16,13.94,18.61,23.3,33.47,23.3s28.31-9.36,33.47-23.3l.85-2.29,2.08,1.28c18.42,11.38,31.43,29.16,36.63,50.06,5.2,20.9,2.01,42.52-8.98,60.89l-2.25,3.77ZM109.64,237.11c-33.25,21.95-44.63,65.8-26.39,100.52,10.65-24.98,37.5-28.47,62.69-28.47s52.04,3.49,62.69,28.47c18.23-34.72,6.86-78.56-26.39-100.52-6.31,14.23-20.59,23.63-36.29,23.63s-29.99-9.4-36.29-23.63Z"/><path class="cls-1" d="M263.53,218.87H28.34L145.94,15.19l117.59,203.68ZM35.27,214.87h221.33L145.94,23.19,35.27,214.87Z"/><path class="cls-1" d="M94.19,121.1c-.38-.2-.8-.07-1.03.29-.91,1.4-1.78,2.84-2.58,4.31-.19.35-.1.85.27,1.04.35.18.82.09,1.03-.29.81-1.47,1.67-2.91,2.58-4.31.22-.34.08-.86-.27-1.04Z"/><path class="cls-1" d="M93.81,127.4c.04-.41-.37-.76-.75-.75-.44,0-.71.36-.76.77-.04.42-.26.82-.56,1.12-.39.38-1.1.44-1.32.96-.26.61.22,1.3.62,1.72.15.15.32.28.48.41-1.15.67-2.48.97-3.8.87-.74-.06-1.03,1.1-.38,1.42.5.25,1.01.34,1.56.39.4.04.88.03,1.24.24.36.21.56.65.8.97.33.45.72.81,1.28.94.94.21,1.34-1.26.39-1.47-.34-.08-.52-.46-.71-.73-.2-.29-.42-.57-.69-.8.78-.32,1.52-.75,2.18-1.3.39-.32.24-.97-.14-1.2-.36-.21-.87-.48-1.19-.85.97-.58,1.62-1.5,1.74-2.71Z"/><path class="cls-1" d="M84.47,139.78c.49-.85-.81-1.6-1.3-.75-.49.85.81,1.6,1.3.75Z"/><path class="cls-1" d="M88.64,137.62c-.1-.08-.2-.13-.31-.16.23-.61.37-1.28.02-1.78-.56-.83-1.7-.52-2.45-.14-.33.16-.67.42-1.03.64,1.1-1.79,1.78-3.78,2.01-5.91.1-.97-1.4-.95-1.51.02-.25,2.32-1.18,4.56-2.65,6.38-.38.47-.24,1.07.33,1.27,1.28.46,2.34-.4,3.41-.99.11-.06.23-.13.35-.17.05-.02.11-.03.16-.05-.04.11-.08.23-.08.25-.07.19-.14.38-.23.57-.32.71-.73,1.38-1.14,2.05-.4.66-.8,1.32-1.2,1.98-.37.62-.71,1.44-1.2,1.97-.23.25-.43.14-.69,0-.02,0-.09-.06-.16-.11.04-.08.08-.16.13-.24.38-.72.81-1.41,1.27-2.07.56-.81-.74-1.55-1.3-.75-.35.5-.68,1.01-.98,1.54-.25.43-.59.92-.69,1.41-.04.17-.03.32,0,.46-.05.05-.09.09-.13.15-.42.74-.99,1.28-1.74,1.69-.48.26-.96.52-1.3.93.75-1.29,1.51-2.58,2.28-3.86.51-.84-.79-1.59-1.3-.75-2.17,3.55-4.24,7.16-6.21,10.81-.2.38-.06.73.19.94-.02.04-.05.07-.05.11-.24,1.54-.43,3.15-.34,4.71.03.61.25,1.15.88,1.33.66.18,1.4-.14,2.03-.34,1.31-.43,2.65-1.03,3.56-2.13.34-.41.71-.93.71-1.49,0-.3-.11-.6-.31-.83-.26-.3-.65-.32-.92-.58,0,0-.01-.02-.02-.03.01,0,.03,0,.04,0,1.47-.18,3.06-1.04,4.17-2.02,1.13-.99,1.66-2.47,1.08-3.89-.37-.9-1.68-.13-1.31.76.68,1.67-2.09,3.01-3.25,3.43-.15.05-.39.12-.65.18.21-.54.49-1.05.59-1.63.09-.51.11-1.13-.19-1.56-.38-.57-1.18-.55-1.73-.22-.94.55-1.53,1.97-1.52,3.03,0,.87.48,1.41,1.13,1.7.03.28.08.55.2.79.16.33.4.6.71.8.11.07.26.16.4.21-.04.07-.08.15-.13.22-.52.74-1.35,1.2-2.16,1.53-.47.19-.96.35-1.45.49-.09.03-.2.05-.29.09-.02,0-.03.01-.04.02.02-.21-.01-.46,0-.65.01-.84.08-1.68.17-2.51.56.34,1.08.74,1.55,1.2.69.67,1.78-.4,1.08-1.08-.81-.79-1.73-1.44-2.75-1.93,1.15-2.12,2.33-4.22,3.54-6.3-.13.35-.09.8.28.98,1.54.74,3.22.54,4.78-.08,1.57-.63,3.21-1.4,4.6-2.36,1.39-.96,2.66-2.32,2.99-4.03.28-1.44-.11-3.02-1.24-3.97ZM77.18,151.24c-.04.13-.08.26-.13.38-.07.17-.14.34-.21.51.05-.25.14-.51.25-.72.03-.06.07-.11.1-.17ZM88.33,141.61c-.41,1.36-1.57,2.35-2.74,3.06-1.13.69-2.36,1.28-3.57,1.8-.84.36-1.78.63-2.68.55.33-.19.7-.35.97-.55.58-.43,1.04-.97,1.42-1.58.16.08.31.15.47.21.89.32,1.69-.02,2.23-.79.65-.93,1.19-1.95,1.78-2.92.51-.84,1.04-1.67,1.49-2.55.73.72.95,1.76.64,2.77Z"/><path class="cls-1" d="M75.08,160.09c-.94,1.14-1.95,2.22-3,3.26-.38-.34-.8-.63-1.25-.9-.61-.37-1.23-.71-1.53-1.39-.22-.52-1.06-.48-1.31,0-.57,1.14-1.03,2.33-1.36,3.56-.25.95,1.2,1.32,1.46.37.19-.72.45-1.41.73-2.1.27.24.56.45.86.64.38.24.82.47,1.19.76-.29.57-.7,1.08-1.12,1.56-.29.33-.6.65-.89.97-.31.34-.66.71-.89,1.1-.27.47-.2,1.04.21,1.39.36.31.77.58,1.15.85.76.54,1.54,1.04,2.34,1.5.83.49,1.6-.84.76-1.32-.72-.42-1.43-.87-2.11-1.34-.29-.2-.57-.4-.85-.61.06-.07.12-.15.18-.22.85-.99,1.78-1.89,2.42-3.01.18,0,.35-.05.51-.2.89-.85,1.73-1.75,2.55-2.68.13-.03.25-.08.34-.19.3-.34.57-.71.78-1.12.18-.33.11-.75-.19-.97-.27-.2-.74-.23-.99.06ZM69.23,168.22s0,0,0,0c0,0-.01-.01,0,0Z"/><path class="cls-1" d="M66.14,169.25c-.17-.5-.66-.6-1.04-.45.13-.22.26-.45.39-.67.5-.85-.8-1.6-1.3-.75-1.72,2.94-3.44,5.88-5.16,8.81-.4.68.37,1.37,1.02,1.03,2.15-1.1,4.57-2.3,6.97-1.41.69.26,1.28-.8.74-1.27-1.45-1.27-1.05-3.6-1.62-5.29ZM61.55,174.85c1.04-1.77,2.08-3.55,3.12-5.32,0,.04,0,.08.01.12.47,1.39.42,2.98.92,4.34-1.37-.06-2.74.32-4.05.86Z"/><path class="cls-1" d="M63.49,176.48c-.34-.2-.84-.08-1.03.29-.19.37-.09.82.27,1.04.21.12.41.25.61.39.1.07.2.14.29.21.04.03.07.05.11.08.02.02.04.03.06.05.37.3.73.63,1.06.98.27.28.79.3,1.07,0,.28-.31.31-.77.02-1.08-.72-.76-1.55-1.41-2.44-1.95Z"/><path class="cls-1" d="M63.46,181.67c-1.9-1.31-3.74-2.7-5.52-4.17-.31-.26-.75-.31-1.07,0-.27.27-.33.82-.02,1.08,1.88,1.56,3.83,3.03,5.84,4.42.33.23.84.05,1.03-.29.22-.38.07-.81-.27-1.04Z"/><path class="cls-1" d="M61.36,183.16c-.5-.06-.81.1-1.23.36-.27.17-.55.34-.82.51-.32-.26-.85-.3-1.13.17-.76,1.28-1.6,2.54-2.3,3.86-.18.33-.25.68-.1,1.03.14.33.43.55.7.77.59.47,1.21.88,1.88,1.21.4.2,1.02.04,1.11-.48.38-2.24,1.16-4.38,2.33-6.33.23-.38.04-1.05-.45-1.11ZM58.24,189.25c-.21-.13-.43-.27-.63-.43-.08-.06-.16-.13-.24-.2-.02-.01-.03-.03-.05-.04,0-.01.01-.03.02-.04.08-.14.16-.27.24-.41.5-.84,1-1.69,1.51-2.53.1.04.21.07.33.05-.51,1.16-.91,2.36-1.19,3.59Z"/><path class="cls-1" d="M58.08,182.07c-.56-.32-1.11-.65-1.67-.97-.83-.49-1.6.84-.76,1.32.29.17.59.34.89.52-1.14,1.36-2.08,2.87-2.98,4.4-.5.85.8,1.6,1.3.75,1-1.69,2.01-3.39,3.37-4.82.34-.36.29-.95-.14-1.2Z"/><path class="cls-1" d="M133.45,53.1c-.38-.2-.8-.07-1.03.29-.91,1.4-1.78,2.84-2.58,4.31-.19.35-.1.85.27,1.04.35.18.82.09,1.03-.29.81-1.47,1.67-2.91,2.58-4.31.22-.34.08-.86-.27-1.04Z"/><path class="cls-1" d="M133.08,59.39c.04-.41-.37-.76-.75-.75-.44,0-.71.36-.76.77-.04.42-.26.82-.56,1.12-.39.38-1.1.44-1.32.96-.26.61.22,1.3.62,1.72.15.15.32.28.48.41-1.15.67-2.48.97-3.8.87-.74-.06-1.03,1.1-.38,1.42.5.25,1.01.34,1.56.39.4.04.88.03,1.24.24.36.21.56.65.8.97.33.45.72.81,1.28.94.94.21,1.34-1.26.39-1.47-.34-.08-.52-.46-.71-.73-.2-.29-.42-.57-.69-.8.78-.32,1.52-.75,2.18-1.3.39-.32.24-.97-.14-1.2-.36-.21-.87-.48-1.19-.85.97-.58,1.62-1.5,1.74-2.71Z"/><path class="cls-1" d="M123.74,71.77c.49-.85-.81-1.6-1.3-.75-.49.85.81,1.6,1.3.75Z"/><path class="cls-1" d="M127.9,69.62c-.1-.08-.2-.13-.31-.16.23-.61.37-1.28.02-1.78-.56-.83-1.7-.52-2.45-.14-.33.16-.67.42-1.03.64,1.1-1.79,1.78-3.78,2.01-5.91.1-.97-1.4-.95-1.51.02-.25,2.32-1.18,4.56-2.65,6.38-.38.47-.24,1.07.33,1.27,1.28.46,2.34-.4,3.41-.99.11-.06.23-.13.35-.17.05-.02.11-.03.16-.05-.04.11-.08.23-.08.25-.07.19-.14.38-.23.57-.32.71-.73,1.38-1.14,2.05-.4.66-.8,1.32-1.2,1.98-.37.62-.71,1.44-1.2,1.97-.23.25-.43.14-.69,0-.02,0-.09-.06-.16-.11.04-.08.08-.16.13-.24.38-.72.81-1.41,1.27-2.07.56-.81-.74-1.55-1.3-.75-.35.5-.68,1.01-.98,1.54-.25.43-.59.92-.69,1.41-.04.17-.03.32,0,.46-.05.05-.1.09-.13.15-.42.74-.99,1.28-1.74,1.69-.48.26-.96.52-1.3.93.75-1.29,1.51-2.58,2.29-3.86.51-.84-.79-1.59-1.3-.75-2.17,3.55-4.24,7.16-6.21,10.81-.2.38-.06.73.19.94-.02.04-.05.07-.05.11-.24,1.54-.43,3.15-.34,4.71.03.61.25,1.15.88,1.33.66.18,1.4-.14,2.03-.34,1.31-.43,2.65-1.03,3.56-2.13.34-.41.71-.93.71-1.49,0-.3-.11-.6-.31-.83-.26-.3-.65-.32-.92-.58,0,0-.01-.02-.02-.03.01,0,.03,0,.04,0,1.47-.18,3.06-1.04,4.17-2.02,1.13-.99,1.66-2.47,1.08-3.89-.37-.9-1.68-.13-1.31.76.68,1.67-2.09,3.01-3.25,3.43-.15.05-.39.12-.65.18.21-.54.49-1.05.59-1.63.09-.51.11-1.13-.19-1.56-.38-.57-1.18-.55-1.73-.22-.94.55-1.53,1.97-1.52,3.03,0,.87.48,1.41,1.13,1.7.03.28.08.55.2.79.16.33.4.6.71.8.11.07.26.16.4.21-.04.07-.08.15-.13.22-.52.74-1.35,1.2-2.16,1.53-.47.19-.96.35-1.45.49-.09.03-.2.05-.29.09-.02,0-.03.01-.04.02.02-.21-.01-.46,0-.65.01-.84.08-1.68.17-2.51.56.34,1.08.74,1.55,1.2.69.67,1.78-.4,1.08-1.08-.81-.79-1.73-1.44-2.75-1.93,1.15-2.12,2.33-4.22,3.54-6.3-.13.35-.09.8.28.98,1.54.74,3.22.54,4.78-.08,1.57-.63,3.21-1.4,4.6-2.36,1.39-.96,2.66-2.32,2.99-4.03.28-1.44-.11-3.02-1.24-3.97ZM116.45,83.23c-.04.13-.08.26-.13.38-.07.17-.14.34-.21.51.05-.25.14-.51.25-.72.03-.06.07-.11.1-.17ZM127.59,73.6c-.41,1.36-1.57,2.35-2.74,3.06-1.13.69-2.36,1.28-3.57,1.8-.84.36-1.78.63-2.68.55.33-.19.7-.35.97-.55.58-.43,1.04-.97,1.42-1.58.16.08.31.15.47.21.89.32,1.69-.02,2.23-.79.65-.93,1.19-1.95,1.78-2.92.51-.84,1.04-1.67,1.49-2.55.73.72.95,1.76.64,2.77Z"/><path class="cls-1" d="M114.35,92.08c-.94,1.14-1.95,2.22-3,3.26-.38-.34-.8-.63-1.25-.9-.61-.37-1.23-.71-1.53-1.39-.22-.52-1.06-.48-1.31,0-.57,1.14-1.03,2.33-1.36,3.56-.25.95,1.2,1.32,1.46.37.19-.72.45-1.41.73-2.1.27.24.56.45.86.64.38.24.82.47,1.19.76-.29.57-.7,1.08-1.12,1.56-.29.33-.6.65-.89.97-.31.34-.66.7-.89,1.1-.27.47-.2,1.04.21,1.39.36.31.77.58,1.15.85.76.54,1.54,1.04,2.34,1.5.83.49,1.6-.84.76-1.32-.72-.42-1.43-.87-2.11-1.34-.29-.2-.57-.4-.85-.61.06-.07.12-.15.18-.22.85-.99,1.78-1.89,2.42-3.01.18,0,.35-.05.51-.2.89-.85,1.73-1.75,2.55-2.68.13-.03.25-.08.34-.19.3-.34.57-.71.78-1.12.18-.33.11-.75-.19-.97-.27-.2-.74-.23-.99.06ZM108.49,100.21s0,0,0,0c0,0-.01-.01,0,0Z"/><path class="cls-1" d="M105.41,101.24c-.17-.5-.66-.6-1.04-.45.13-.22.26-.45.39-.67.5-.85-.8-1.6-1.3-.75-1.72,2.94-3.44,5.88-5.16,8.81-.4.68.37,1.37,1.02,1.03,2.15-1.1,4.57-2.3,6.97-1.41.69.26,1.28-.8.74-1.27-1.45-1.27-1.05-3.6-1.62-5.29ZM100.82,106.84c1.04-1.77,2.08-3.55,3.12-5.32,0,.04,0,.08.01.12.47,1.39.42,2.98.92,4.34-1.37-.06-2.74.32-4.05.86Z"/><path class="cls-1" d="M102.76,108.48c-.34-.2-.84-.08-1.03.29-.19.37-.09.82.27,1.04.21.12.41.25.61.39.1.07.2.14.29.21.04.03.07.05.11.08.02.02.04.03.06.05.37.3.73.63,1.06.98.27.28.79.3,1.07,0,.28-.31.31-.77.02-1.08-.72-.76-1.55-1.41-2.44-1.95Z"/><path class="cls-1" d="M102.72,113.66c-1.9-1.31-3.74-2.7-5.52-4.17-.31-.26-.75-.31-1.07,0-.27.27-.33.82-.02,1.08,1.88,1.56,3.83,3.03,5.84,4.42.33.23.84.05,1.03-.29.22-.38.07-.81-.27-1.04Z"/><path class="cls-1" d="M100.62,115.15c-.5-.06-.81.1-1.23.36-.27.17-.55.34-.82.51-.32-.26-.85-.3-1.13.17-.76,1.28-1.6,2.54-2.3,3.86-.18.33-.25.68-.1,1.03.14.33.43.55.7.77.59.47,1.21.88,1.88,1.21.4.2,1.02.04,1.11-.48.38-2.24,1.16-4.38,2.33-6.33.23-.38.04-1.05-.45-1.11ZM97.51,121.24c-.21-.13-.43-.27-.63-.43-.08-.06-.16-.13-.24-.2-.02-.01-.03-.03-.05-.04,0-.01.01-.03.02-.04.08-.14.16-.27.24-.41.5-.84,1-1.69,1.51-2.53.1.04.21.07.33.05-.51,1.16-.91,2.36-1.19,3.59Z"/><path class="cls-1" d="M94.11,120.07c1-1.69,2.01-3.39,3.37-4.82.34-.36.29-.95-.14-1.2-.56-.32-1.11-.65-1.67-.97-.83-.49-1.6.84-.76,1.32.29.17.59.34.89.52-1.14,1.36-2.08,2.87-2.98,4.4-.5.85.8,1.6,1.3.75Z"/><path class="cls-1" d="M160.89,210.06c-1.46.03-2.93,0-4.39-.08-.35-.02-.68.36-.67.75.02.42.29.73.67.75,1.46.09,2.93.12,4.39.08.35,0,.68-.34.67-.75-.02-.4-.29-.76-.67-.75Z"/><path class="cls-1" d="M167.28,210.62c.28.67,1.28.34,1.24-.38-.03-.56-.19-1.04-.39-1.55-.15-.37-.36-.77-.36-1.19,0-.41.24-.81.39-1.18.2-.51.3-1.03.15-1.58-.25-.92-1.54-.53-1.29.4.09.34-.12.69-.25.98-.13.32-.25.65-.3,1-.58-.52-1.23-.94-1.93-1.24-.42-.18-.84.27-.84.72,0,.42.02,1-.13,1.45-.86-.55-1.84-.65-2.81-.15-.33.17-.41.7-.24,1.03.2.38.58.44.91.27.34-.18.74-.18,1.09-.07.46.14.82.73,1.31.66.58-.08.89-.84,1.03-1.4.05-.21.08-.42.1-.64,1.01.66,1.81,1.67,2.31,2.87Z"/><path class="cls-1" d="M174.21,209.81c-.86,0-.86,1.5,0,1.5s.86-1.5,0-1.5Z"/><path class="cls-1" d="M193.28,208.13c-.9-.92-1.94-1.78-3.16-2.02-.46-.09-1.02-.15-1.44.13-.23.15-.41.4-.49.68-.12.37.04.73-.04,1.08,0,.01-.01.02-.02.03,0-.01-.01-.02-.02-.03-.78-1.18-2.12-2.13-3.35-2.6-1.25-.48-2.6-.2-3.41,1.01-.52.77.64,1.52,1.15.76.96-1.42,3.19.3,4.01,1.1.11.1.26.28.42.47-.5.09-1.01.11-1.49.3-.42.17-.9.47-1.1.95-.26.62.1,1.3.59,1.61.83.54,2.16.34,2.96-.2.65-.44.85-1.12.79-1.82.2-.16.38-.34.51-.56.18-.3.28-.65.29-1.01,0-.13,0-.31-.02-.45.07,0,.15,0,.22,0,.78.08,1.5.57,2.11,1.11.35.31.68.66,1.01,1.01.06.07.12.15.19.21.01.01.01.01.03.02-.16.09-.34.25-.48.34-.64.41-1.3.77-1.98,1.11.02-.65.09-1.3.23-1.95.21-.94-1.08-1.34-1.29-.4-.24,1.1-.33,2.22-.26,3.35-2.1.07-4.21.09-6.32.08.32-.06.64-.32.62-.74-.11-1.7-1-3.06-2.15-4.1-1.16-1.04-2.46-2.08-3.8-2.81-1.33-.72-2.92-1.14-4.36-.57-1.21.48-2.24,1.61-2.46,3.06-.02.13,0,.24.02.35-.56.1-1.13.32-1.36.87-.38.9.35,1.73.97,2.19.27.2.61.37.93.57-1.84-.05-3.64.35-5.35,1.22-.78.4-.1,1.69.67,1.3,1.86-.94,3.96-1.26,5.98-.9.53.09.91-.33.82-.92-.21-1.34-1.32-1.83-2.24-2.46-.1-.07-.2-.13-.28-.21-.04-.03-.07-.08-.1-.11.1-.02.2-.05.23-.05.17-.04.35-.07.53-.09.68-.08,1.37-.06,2.05-.04.67.01,1.35.03,2.02.04.63.01,1.4-.11,2.01.05.29.07.29.3.3.6,0,.02,0,.11-.01.2-.08,0-.16,0-.24.01-.71.03-1.42,0-2.13-.07-.86-.08-.85,1.42,0,1.5.53.05,1.06.08,1.59.08.43,0,.95.05,1.37-.1.14-.05.25-.14.35-.23.06.02.11.04.17.04.75,0,1.4.22,2.04.66.41.28.81.57,1.27.66-1.31,0-2.61-.01-3.92-.05-.86-.02-.86,1.48,0,1.5,3.63.1,7.27.09,10.9-.03.37-.01.57-.3.62-.62.04,0,.07-.01.11-.03,1.27-.57,2.57-1.21,3.72-2.06.45-.33.76-.79.62-1.43-.15-.66-.71-1.15-1.15-1.59ZM186.08,210.4c.11-.03.23-.07.34-.09.16-.03.32-.05.48-.07-.21.08-.44.13-.65.15-.05,0-.11,0-.17,0ZM179.29,209.62c0-.17-.02-.34-.05-.49-.15-.92-.76-1.45-1.57-1.54-.99-.1-2-.05-2.99-.08-.86-.02-1.72-.07-2.58-.02.22-.99.92-1.7,1.81-1.94,1.21-.32,2.46.18,3.51.84,1.01.64,2,1.4,2.92,2.19.63.55,1.26,1.22,1.59,2.05-.29-.19-.57-.43-.84-.57-.58-.29-1.19-.43-1.81-.45Z"/><path class="cls-1" d="M203.69,209.15c.08-.47.11-.95.14-1.43.07-.93.11-1.85.11-2.78,0-.97-1.33-.97-1.33,0,0,.83-.03,1.67-.09,2.5-.02.35-.06.7-.09,1.04-.08-.02-.16-.03-.24-.05-1.12-.24-2.21-.6-3.33-.59-.08-.15-.2-.28-.37-.34-1.03-.34-2.08-.62-3.14-.87-.08-.1-.17-.17-.29-.2-.39-.09-.79-.14-1.19-.12-.33.01-.62.28-.66.65-.04.34.15.76.48.82,1.27.25,2.53.58,3.78.97-.1.5-.13,1.01-.14,1.53-.01.71,0,1.42-.39,2.02-.29.45.1,1.16.58,1.13,1.11-.07,2.22-.27,3.29-.6.83-.25.48-1.7-.35-1.45-.63.19-1.26.32-1.91.42.06-.35.09-.71.1-1.06.01-.45,0-.94.05-1.41.56-.04,1.12.07,1.67.2.38.09.75.19,1.13.28.39.09.82.22,1.22.22.48,0,.87-.34.96-.88ZM202.4,208.79s0,0,0,0c0,.01,0,.02,0,0Z"/><path class="cls-1" d="M209.11,206.9c-.11-.73-1.17-.71-1.29,0-.32,1.89-2.26,2.71-3.3,4.05-.3.39-.16.87.11,1.13h-.68c-.86-.01-.86,1.49,0,1.5,2.98.02,5.95.04,8.93.06.69,0,.87-1,.34-1.4-1.77-1.31-3.74-2.81-4.11-5.34ZM205.47,212.01c.85-1.1,2.07-1.86,2.88-2.97.55,1.22,1.44,2.22,2.42,3.08-1.8-.01-3.59-.03-5.39-.04.03-.03.06-.04.08-.07Z"/><path class="cls-1" d="M211.83,210.37c.37-.02.66-.33.67-.75,0-.24.01-.48.03-.72,0-.12.02-.24.03-.36,0-.05.01-.1.02-.15,0-.02,0-.04,0-.06.06-.47.16-.94.28-1.4.1-.38-.12-.83-.47-.92-.36-.09-.72.12-.82.52-.26,1-.39,2.05-.41,3.09,0,.39.31.77.67.75Z"/><path class="cls-1" d="M215.77,206.31c-.38,0-.64.34-.67.75-.16,2.3-.41,4.59-.74,6.87-.06.4.09.81.47.92.32.1.76-.12.82-.52.36-2.41.62-4.83.79-7.27.03-.4-.33-.75-.67-.75Z"/><path class="cls-1" d="M218.7,209.46c-.06.41.14.88.62.89,1.3.02,2.62.11,3.93.06.33-.01.62-.12.82-.43.19-.28.23-.65.27-.99.1-.74.14-1.49.1-2.23-.02-.44-.41-.91-.84-.72-1.86.79-3.82,1.18-5.81,1.14-.39,0-.81.49-.64.95.17.46.43.65.81.88.25.15.5.3.74.45ZM219.99,208.86c-.01-.11-.04-.22-.1-.31,1.1-.13,2.18-.39,3.23-.77,0,.25-.02.51-.05.76-.01.1-.03.2-.04.31,0,.02,0,.04-.01.06-.01,0-.03,0-.04,0-.14,0-.27,0-.41,0-.86-.01-1.72-.03-2.57-.04Z"/><path class="cls-1" d="M223.72,211.31c-1.72-.02-3.44-.05-5.12-.51-.42-.12-.84.23-.84.72,0,.64,0,1.29,0,1.93,0,.97,1.33.97,1.33,0,0-.34,0-.68,0-1.02,1.52.31,3.08.36,4.63.38.86.01.86-1.49,0-1.5Z"/><path class="cls-1" d="M135.25,207.35c-1.46-.09-2.93-.12-4.39-.08-.35,0-.68.34-.67.75.02.4.29.76.67.75,1.46-.03,2.93,0,4.39.08.35.02.68-.36.67-.75-.02-.42-.29-.73-.67-.75Z"/><path class="cls-1" d="M130.32,209.63c-.34.18-.74.18-1.09.07-.46-.14-.82-.73-1.31-.66-.58.08-.89.84-1.03,1.4-.05.21-.08.42-.1.64-1.01-.66-1.81-1.67-2.31-2.87-.28-.67-1.28-.34-1.24.38.03.56.19,1.04.39,1.55.15.37.36.77.36,1.19,0,.41-.24.81-.39,1.18-.2.51-.3,1.03-.15,1.58.25.92,1.54.53,1.29-.4-.09-.34.12-.69.25-.98.13-.32.25-.65.3-1,.58.52,1.23.94,1.93,1.24.42.18.84-.27.84-.72,0-.42-.02-1,.13-1.45.86.55,1.84.65,2.81.15.33-.17.41-.7.24-1.03-.2-.38-.58-.44-.91-.27Z"/><path class="cls-1" d="M121.37,208.15c-.27-.2-.61-.37-.93-.57,1.84.05,3.64-.35,5.35-1.22.78-.4.1-1.69-.67-1.3-1.86.94-3.96,1.26-5.98.9-.53-.09-.91.33-.82.92.21,1.34,1.32,1.83,2.24,2.46.1.07.2.13.28.21.04.03.07.08.1.11-.1.02-.2.05-.23.05-.17.04-.35.07-.53.09-.68.08-1.37.06-2.05.04-.67-.01-1.35-.03-2.02-.04-.63-.01-1.4.11-2.01-.05-.29-.07-.29-.3-.29-.6,0-.02,0-.11.01-.2.08,0,.16,0,.24-.01.71-.03,1.42,0,2.13.07.86.08.85-1.42,0-1.5-.53-.05-1.06-.08-1.59-.08-.43,0-.95-.05-1.37.1-.14.05-.25.14-.35.23-.06-.02-.11-.04-.17-.04-.75,0-1.4-.22-2.04-.66-.41-.28-.81-.57-1.27-.66,1.31,0,2.61.01,3.92.05.86.02.86-1.48,0-1.5-3.63-.1-7.27-.09-10.9.03-.37.01-.57.3-.62.62-.04,0-.07.01-.11.03-1.27.57-2.57,1.21-3.72,2.06-.45.33-.76.79-.62,1.43.15.66.72,1.15,1.15,1.59.9.92,1.94,1.78,3.16,2.02.46.09,1.02.15,1.44-.13.23-.15.41-.4.49-.68.12-.37-.04-.73.04-1.08,0-.01.01-.02.02-.03,0,.01.01.02.02.03.78,1.18,2.12,2.13,3.35,2.6,1.25.48,2.6.2,3.41-1.01.52-.77-.64-1.52-1.15-.76-.96,1.42-3.19-.3-4.01-1.1-.11-.1-.26-.28-.42-.47.5-.09,1.01-.11,1.49-.3.42-.17.9-.47,1.1-.95.26-.62-.1-1.3-.59-1.61-.83-.54-2.16-.34-2.96.2-.65.44-.85,1.12-.79,1.82-.2.16-.38.34-.51.56-.18.3-.28.65-.29,1.01,0,.13,0,.31.02.45-.07,0-.15,0-.22,0-.78-.08-1.5-.57-2.11-1.11-.35-.31-.68-.66-1.01-1.01-.06-.07-.12-.15-.19-.21-.01-.01-.01-.01-.03-.02.16-.09.34-.25.48-.34.64-.41,1.3-.77,1.98-1.11-.02.65-.09,1.3-.23,1.95-.21.94,1.08,1.34,1.29.4.24-1.1.33-2.22.26-3.35,2.1-.07,4.21-.09,6.32-.08-.32.06-.64.32-.62.74.11,1.7,1,3.06,2.15,4.1,1.16,1.04,2.46,2.08,3.8,2.81,1.33.72,2.92,1.14,4.36.57,1.21-.48,2.24-1.61,2.46-3.06.02-.13,0-.24-.02-.35.56-.1,1.13-.32,1.36-.87.38-.9-.35-1.73-.97-2.19ZM105.68,208.43c-.11.03-.23.07-.34.09-.16.03-.32.05-.48.07.21-.08.44-.13.65-.15.05,0,.11,0,.17,0ZM117.84,213.28c-1.21.32-2.46-.18-3.51-.84-1.01-.64-2-1.4-2.92-2.19-.63-.55-1.26-1.22-1.59-2.05.29.19.57.43.84.57.58.29,1.19.43,1.81.45,0,.17.02.34.05.49.15.92.76,1.45,1.57,1.54.99.1,2,.05,2.99.08.86.02,1.72.07,2.58.02-.22.99-.92,1.7-1.81,1.94Z"/><path class="cls-1" d="M117.54,209.02c.86,0,.86-1.5,0-1.5s-.86,1.5,0,1.5Z"/><path class="cls-1" d="M98.06,211.05c-1.27-.25-2.53-.58-3.78-.97.1-.5.13-1.01.14-1.53.01-.71,0-1.42.39-2.02.29-.45-.1-1.16-.58-1.13-1.11.07-2.22.27-3.29.6-.83.25-.48,1.7.35,1.45.63-.19,1.26-.32,1.91-.42-.06.35-.09.71-.1,1.06-.01.45,0,.94-.05,1.41-.56.04-1.12-.07-1.67-.2-.38-.09-.75-.19-1.13-.28-.39-.09-.82-.22-1.22-.22-.48,0-.87.34-.96.88-.08.47-.11.95-.14,1.43-.07.93-.11,1.85-.11,2.78,0,.97,1.33.97,1.33,0,0-.83.03-1.67.09-2.5.02-.35.06-.7.09-1.04.08.02.16.03.24.05,1.12.24,2.21.6,3.33.59.08.15.2.28.37.34,1.03.34,2.08.62,3.14.87.08.1.17.17.29.2.39.09.79.14,1.19.12.33-.01.62-.28.66-.65.04-.34-.15-.76-.48-.82ZM89.35,210.04s0-.02,0,0c0,0,0,0,0,0Z"/><path class="cls-1" d="M87.8,205.26c-2.98-.02-5.95-.04-8.93-.06-.69,0-.87,1-.34,1.4,1.77,1.31,3.74,2.81,4.11,5.34.11.73,1.17.71,1.29,0,.32-1.89,2.26-2.71,3.3-4.05.3-.39.16-.87-.11-1.13h.68c.86.01.86-1.49,0-1.5ZM86.28,206.82c-.85,1.1-2.07,1.86-2.88,2.97-.55-1.22-1.44-2.22-2.42-3.08,1.8.01,3.59.03,5.39.04-.03.03-.06.04-.08.07Z"/><path class="cls-1" d="M79.93,208.46c-.37.02-.66.33-.67.75,0,.24-.01.48-.03.72,0,.12-.02.24-.03.36,0,.05-.01.1-.02.15,0,.02,0,.04,0,.06-.06.47-.16.94-.28,1.4-.1.38.12.83.47.92.36.09.72-.12.82-.52.26-1,.39-2.05.41-3.09,0-.39-.31-.77-.67-.75Z"/><path class="cls-1" d="M76.93,203.98c-.32-.1-.76.12-.82.52-.36,2.41-.62,4.83-.79,7.27-.03.4.33.75.67.75.38,0,.64-.34.67-.75.16-2.3.41-4.59.74-6.87.06-.4-.09-.81-.47-.92Z"/><path class="cls-1" d="M73.8,209.82c-.25-.15-.5-.3-.74-.45.06-.41-.14-.88-.62-.89-1.3-.02-2.62-.11-3.93-.06-.33.01-.62.12-.82.43-.19.28-.23.65-.27.99-.1.74-.14,1.49-.1,2.23.02.44.41.91.84.72,1.86-.79,3.82-1.18,5.81-1.14.39,0,.81-.49.64-.95-.17-.46-.43-.65-.81-.88ZM71.76,209.97c.01.11.04.22.1.31-1.1.13-2.18.39-3.23.77,0-.25.02-.51.05-.76.01-.1.03-.2.04-.31,0-.02,0-.04.01-.06.01,0,.03,0,.04,0,.14,0,.27,0,.41,0,.86.01,1.72.03,2.57.04Z"/><path class="cls-1" d="M68.04,207.52c1.72.02,3.44.05,5.12.51.42.12.84-.23.84-.72,0-.64,0-1.29,0-1.93,0-.97-1.33-.97-1.33,0,0,.34,0,.68,0,1.02-1.52-.31-3.08-.36-4.63-.38-.86-.01-.86,1.49,0,1.5Z"/><path class="cls-1" d="M194.21,116.42c.87,1.43,1.68,2.9,2.44,4.39.18.36.7.5,1.03.29.36-.23.46-.65.27-1.04-.76-1.49-1.57-2.96-2.44-4.39-.21-.34-.68-.51-1.03-.29-.34.22-.49.67-.27,1.04Z"/><path class="cls-1" d="M193.15,116.31c-.35-.25-.58-.64-.69-1.04-.14-.53.17-1.18-.17-1.62-.4-.53-1.23-.46-1.8-.32-.21.05-.41.12-.61.21,0-1.33.41-2.62,1.16-3.71.42-.62-.44-1.44-1.04-1.04-.47.31-.8.71-1.12,1.16-.24.33-.46.74-.83.95-.36.21-.84.16-1.24.21-.56.06-1.07.22-1.46.64-.65.71.42,1.79,1.08,1.08.24-.26.66-.22.99-.25.36-.03.71-.08,1.04-.2-.12.83-.11,1.69.03,2.53.08.5.72.7,1.11.48.37-.21.85-.52,1.33-.6.02,1.13.49,2.15,1.48,2.86.33.24.84.05,1.03-.28.21-.38.05-.8-.29-1.04Z"/><path class="cls-1" d="M194.13,108.87c-1.88-1.37-3.36-3.3-4.2-5.48-.22-.57-.8-.74-1.27-.35-1.04.87-.83,2.23-.85,3.45,0,.13,0,.26-.02.39,0,.05-.03.11-.04.16-.07-.09-.16-.18-.17-.2-.13-.15-.26-.31-.38-.48-.46-.63-.83-1.33-1.21-2.01-.37-.68-.75-1.35-1.12-2.03-.35-.63-.89-1.33-1.11-2.02-.1-.32.1-.44.35-.59.02,0,.1-.05.18-.09.05.08.1.15.15.23.43.69.81,1.41,1.16,2.14.42.89,1.72.13,1.3-.75-.26-.55-.54-1.09-.84-1.62-.25-.43-.5-.97-.88-1.31-.12-.11-.26-.18-.4-.23-.02-.06-.03-.13-.07-.19-.43-.74-.62-1.5-.6-2.35.01-.55.03-1.09-.15-1.59.74,1.3,1.48,2.6,2.2,3.91.47.86,1.77.11,1.3-.75-1.99-3.65-4.08-7.25-6.26-10.79-.22-.36-.59-.42-.89-.31-.03-.03-.05-.07-.09-.1-1.22-.98-2.52-1.95-3.91-2.65-.54-.28-1.12-.36-1.59.1-.49.48-.58,1.28-.72,1.93-.28,1.35-.44,2.81.06,4.14.19.5.45,1.08.93,1.36.26.15.58.2.87.15.39-.07.61-.4.96-.5.01,0,.03,0,.04,0,0,.01-.02.03-.02.04-.58,1.37-.63,3.17-.34,4.62.29,1.48,1.31,2.67,2.83,2.88.96.13.95-1.39,0-1.52-1.78-.24-1.56-3.32-1.34-4.53.03-.16.09-.4.17-.65.36.45.67.95,1.12,1.33.39.33.92.66,1.45.62.68-.05,1.06-.75,1.06-1.39,0-1.09-.95-2.31-1.87-2.83-.75-.43-1.46-.29-2.03.13-.25-.12-.51-.21-.78-.23-.36-.03-.72.04-1.04.21-.12.06-.27.15-.38.24-.04-.07-.09-.14-.12-.22-.38-.82-.37-1.77-.25-2.64.07-.51.18-1.01.3-1.51.02-.09.06-.2.07-.29,0-.02,0-.02,0-.04.17.12.41.21.57.31.72.43,1.41.91,2.09,1.41-.57.31-1.17.56-1.82.75-.93.26-.54,1.74.39,1.47,1.09-.31,2.11-.78,3.05-1.42,1.26,2.05,2.48,4.13,3.68,6.22-.24-.29-.64-.48-.99-.24-1.41.96-2.08,2.52-2.32,4.18-.24,1.67-.39,3.48-.26,5.17.14,1.68.68,3.46,2,4.61,1.11.96,2.67,1.41,4.06.91.12-.04.22-.11.29-.19.41.51.92.96,1.53.91,1-.08,1.3-1.21,1.34-2.05.02-.37-.03-.79-.04-1.21,1,1.85,2.39,3.43,4.11,4.69.79.58,1.52-.74.74-1.31ZM179.99,91.14c.04.07.09.13.13.2-.11-.11-.21-.22-.3-.34-.13-.16-.25-.33-.38-.5.21.18.4.42.55.64ZM182.85,105.77c-.97-1.04-1.25-2.53-1.28-3.9-.03-1.32.07-2.69.23-4,.11-.9.34-1.86.86-2.6,0,.38-.05.78,0,1.12.08.72.31,1.39.65,2.02-.14.09-.28.19-.4.29-.72.61-.83,1.48-.43,2.32.48,1.03,1.1,2.01,1.64,3,.48.86.94,1.74,1.48,2.58-.99.28-2.02-.07-2.74-.84Z"/><path class="cls-1" d="M186.37,103.35c.49.85,1.79.1,1.3-.75-.49-.85-1.79-.1-1.3.75Z"/><path class="cls-1" d="M175.53,79.58c.56.07.95-.68.65-1.14-.7-1.07-1.5-2.06-2.4-2.96-.69-.69-1.75.38-1.05,1.07.53.53,1,1.09,1.45,1.68-.34.11-.67.26-.98.43-.4.21-.81.47-1.25.65-.35-.54-.59-1.15-.79-1.75-.14-.42-.26-.84-.4-1.26-.14-.44-.28-.93-.51-1.32-.27-.47-.8-.69-1.31-.51-.45.16-.89.37-1.32.57-.84.39-1.67.82-2.47,1.28-.84.48-.08,1.8.76,1.32.72-.41,1.46-.8,2.22-1.16.32-.15.63-.29.95-.43.03.09.07.17.1.26.43,1.23.74,2.49,1.39,3.6-.09.15-.13.33-.08.54.29,1.2.65,2.38,1.04,3.54-.04.13-.05.26,0,.39.15.43.33.85.57,1.24.2.32.59.47.94.32.31-.13.57-.52.44-.88-.52-1.39-.95-2.8-1.32-4.23.49-.15.95-.38,1.41-.63.62-.34,1.23-.71,1.97-.62ZM169.36,75.92s.02,0,0,0c0,0,0,0,0,0Z"/><path class="cls-1" d="M170.01,72.74c.51.1.85-.27.91-.67.13.23.26.45.39.68.49.85,1.79.1,1.3-.75-1.68-2.96-3.37-5.92-5.05-8.88-.39-.68-1.37-.36-1.4.37-.12,2.41-.29,5.11-2.27,6.74-.57.47.06,1.51.74,1.27,1.82-.63,3.64.89,5.39,1.24ZM170.39,71.27c-1.44-.29-2.79-1.13-4.22-1.37.74-1.16,1.1-2.53,1.28-3.94,1.02,1.79,2.03,3.57,3.05,5.36-.04-.01-.07-.04-.11-.05Z"/><path class="cls-1" d="M165.34,65.79c-.23-.35-.66-.49-1.03-.29-.21.12-.42.23-.64.33-.11.05-.22.1-.33.15-.04.02-.08.04-.13.05-.02,0-.05.02-.07.03-.45.17-.91.32-1.37.43-.38.09-.65.53-.53.92.12.4.51.65.92.55,1.02-.25,2-.63,2.91-1.14.34-.19.49-.69.27-1.04Z"/><path class="cls-1" d="M167.51,60.58c-.1-.37-.54-.69-.92-.55-2.29.85-4.54,1.8-6.75,2.85-.37.17-.46.7-.27,1.04.22.38.66.46,1.03.29,2.08-.99,4.21-1.89,6.37-2.7.38-.14.65-.5.53-.92Z"/><path class="cls-1" d="M160.35,61.64c.3-.4.31-.75.3-1.24-.01-.32-.02-.64-.03-.96.39-.15.68-.58.41-1.06-.73-1.3-1.41-2.65-2.2-3.92-.2-.32-.46-.55-.84-.6-.35-.05-.69.1-1.01.23-.7.27-1.36.61-1.99,1.02-.37.25-.55.86-.14,1.2,1.75,1.45,3.21,3.2,4.32,5.19.22.39.89.56,1.19.16ZM156.64,55.9c.22-.12.45-.23.68-.33.1-.04.19-.07.29-.11.02,0,.04-.01.06-.02,0,.01.02.03.02.04.08.14.15.27.23.41.48.86.96,1.71,1.44,2.57-.09.07-.16.15-.21.26-.74-1.02-1.59-1.96-2.51-2.82Z"/><path class="cls-1" d="M161.83,58.87c.14.47.68.72,1.11.48.56-.32,1.12-.64,1.68-.96.84-.48.08-1.8-.76-1.32-.3.17-.59.34-.89.51-.6-1.67-1.45-3.23-2.32-4.78-.48-.86-1.78-.11-1.3.75.96,1.71,1.93,3.43,2.48,5.33Z"/><path class="cls-1" d="M237.21,188.07c-.76-1.49-1.57-2.96-2.44-4.39-.21-.34-.68-.51-1.03-.29-.34.22-.49.67-.27,1.04.87,1.43,1.68,2.9,2.44,4.39.18.36.7.5,1.03.29.36-.23.46-.65.27-1.04Z"/><path class="cls-1" d="M232.42,184.32c-.35-.25-.58-.64-.69-1.04-.14-.53.17-1.18-.17-1.62-.4-.53-1.23-.46-1.8-.32-.21.05-.41.12-.61.21,0-1.33.41-2.62,1.16-3.71.42-.62-.44-1.44-1.04-1.04-.47.31-.8.71-1.12,1.16-.24.33-.46.74-.83.95-.36.21-.84.16-1.24.21-.56.06-1.07.22-1.46.64-.65.71.42,1.79,1.08,1.08.24-.26.66-.22.99-.25.36-.03.71-.08,1.04-.2-.12.83-.11,1.69.03,2.53.08.5.72.7,1.11.48.37-.21.85-.52,1.33-.6.02,1.13.49,2.15,1.48,2.86.33.24.84.05,1.03-.28.21-.38.05-.8-.29-1.04Z"/><path class="cls-1" d="M233.4,176.88c-1.88-1.37-3.36-3.3-4.2-5.48-.22-.57-.8-.74-1.27-.35-1.04.87-.83,2.23-.85,3.45,0,.13,0,.26-.02.39,0,.06-.03.11-.04.16-.07-.09-.16-.18-.17-.2-.13-.15-.26-.31-.38-.48-.46-.63-.83-1.33-1.21-2.01-.37-.68-.75-1.35-1.12-2.03-.35-.63-.89-1.33-1.11-2.02-.1-.32.1-.44.35-.59.02,0,.1-.05.18-.09.05.08.1.15.15.23.43.69.81,1.41,1.16,2.14.42.89,1.72.13,1.3-.75-.26-.55-.54-1.09-.85-1.62-.25-.43-.5-.97-.88-1.31-.12-.11-.26-.18-.4-.23-.02-.06-.03-.13-.07-.19-.43-.74-.62-1.5-.6-2.35.01-.55.03-1.09-.15-1.59.74,1.3,1.48,2.6,2.2,3.91.47.86,1.77.11,1.3-.75-1.99-3.65-4.08-7.25-6.26-10.79-.22-.36-.58-.42-.89-.31-.03-.03-.05-.07-.09-.1-1.22-.98-2.52-1.95-3.91-2.65-.54-.28-1.12-.36-1.59.1-.49.48-.58,1.28-.72,1.93-.28,1.35-.44,2.81.06,4.14.19.5.45,1.08.93,1.36.26.15.58.2.87.15.39-.07.61-.4.96-.5.01,0,.03,0,.04,0,0,.01-.02.03-.02.04-.58,1.37-.63,3.17-.34,4.62.29,1.48,1.31,2.67,2.83,2.88.96.13.95-1.39,0-1.52-1.78-.24-1.56-3.32-1.34-4.53.03-.16.09-.4.17-.65.36.45.67.95,1.12,1.33.39.33.92.66,1.45.62.68-.05,1.06-.75,1.06-1.39,0-1.09-.95-2.31-1.87-2.83-.75-.43-1.46-.29-2.03.13-.25-.12-.51-.21-.78-.23-.36-.03-.72.04-1.04.21-.12.06-.27.15-.38.24-.04-.07-.09-.14-.12-.22-.38-.82-.37-1.77-.25-2.64.07-.51.18-1.01.3-1.51.02-.09.06-.2.07-.29,0-.02,0-.02,0-.04.17.12.41.21.57.31.72.43,1.41.91,2.09,1.41-.57.31-1.17.56-1.82.75-.93.26-.54,1.74.39,1.47,1.09-.31,2.11-.78,3.05-1.42,1.26,2.05,2.48,4.13,3.68,6.22-.24-.29-.64-.48-.99-.24-1.41.96-2.08,2.52-2.32,4.18-.24,1.67-.39,3.48-.26,5.17.14,1.68.68,3.46,2,4.61,1.11.96,2.67,1.41,4.06.91.12-.04.22-.11.29-.19.41.51.92.96,1.53.91,1-.08,1.3-1.21,1.34-2.05.02-.37-.03-.79-.04-1.21,1,1.85,2.39,3.43,4.11,4.69.79.58,1.52-.74.74-1.31ZM219.25,159.14c.04.07.09.13.13.2-.11-.11-.21-.22-.3-.34-.13-.16-.25-.33-.38-.5.21.18.4.42.55.64ZM222.12,173.78c-.97-1.04-1.25-2.53-1.28-3.9-.03-1.32.07-2.69.23-4,.11-.9.34-1.86.86-2.6,0,.38-.05.78,0,1.12.08.72.31,1.39.65,2.02-.14.09-.28.19-.4.29-.72.61-.83,1.48-.43,2.32.48,1.03,1.1,2.01,1.64,3,.48.86.94,1.74,1.48,2.58-.99.28-2.02-.07-2.74-.84Z"/><path class="cls-1" d="M225.63,171.36c.49.85,1.79.1,1.3-.75-.49-.85-1.79-.1-1.3.75Z"/><path class="cls-1" d="M214.79,147.59c.56.07.95-.68.65-1.14-.7-1.07-1.5-2.06-2.4-2.96-.69-.69-1.75.38-1.05,1.07.53.53,1,1.09,1.45,1.68-.34.11-.67.26-.98.43-.4.21-.81.47-1.25.65-.35-.54-.59-1.15-.79-1.75-.14-.42-.26-.84-.4-1.26-.14-.44-.28-.93-.51-1.32-.27-.47-.8-.69-1.31-.51-.45.16-.89.37-1.32.57-.84.39-1.67.82-2.47,1.28-.84.48-.08,1.8.76,1.32.72-.41,1.46-.8,2.22-1.16.32-.15.63-.29.96-.43.03.09.07.17.1.26.43,1.23.74,2.49,1.39,3.6-.09.15-.13.33-.08.54.29,1.2.65,2.38,1.04,3.54-.04.13-.05.26,0,.39.15.43.33.85.57,1.24.2.32.59.47.94.32.31-.13.57-.52.44-.88-.52-1.39-.95-2.8-1.32-4.23.49-.15.95-.38,1.41-.63.62-.34,1.23-.71,1.97-.62ZM208.62,143.93s.02,0,0,0c0,0,0,0,0,0Z"/><path class="cls-1" d="M209.28,140.75c.51.1.85-.27.91-.67.13.23.26.45.39.68.49.85,1.79.1,1.3-.75-1.68-2.96-3.37-5.92-5.05-8.88-.39-.68-1.37-.36-1.4.37-.12,2.41-.29,5.11-2.27,6.74-.57.47.06,1.51.74,1.27,1.82-.63,3.64.89,5.39,1.24ZM209.65,139.28c-1.44-.29-2.79-1.13-4.22-1.37.74-1.16,1.1-2.53,1.28-3.94,1.02,1.79,2.03,3.57,3.05,5.36-.04-.01-.07-.04-.11-.05Z"/><path class="cls-1" d="M204.6,133.8c-.23-.35-.66-.49-1.03-.29-.21.12-.42.23-.64.33-.11.05-.22.1-.33.15-.04.02-.08.04-.13.05-.02,0-.05.02-.07.03-.45.17-.91.32-1.37.43-.38.09-.65.53-.53.92.12.4.51.65.92.55,1.02-.25,2-.63,2.91-1.14.34-.19.49-.69.27-1.04Z"/><path class="cls-1" d="M206.77,128.59c-.1-.37-.54-.69-.92-.55-2.29.85-4.54,1.8-6.75,2.85-.37.17-.46.7-.27,1.04.22.38.66.46,1.03.29,2.08-.99,4.21-1.89,6.37-2.7.38-.14.65-.5.53-.92Z"/><path class="cls-1" d="M199.62,129.65c.3-.4.31-.75.3-1.24-.01-.32-.02-.64-.03-.96.39-.15.68-.58.41-1.06-.73-1.3-1.41-2.65-2.2-3.92-.2-.32-.46-.55-.84-.6-.36-.05-.69.1-1.01.23-.7.27-1.36.61-1.99,1.02-.37.25-.55.86-.14,1.2,1.75,1.45,3.21,3.2,4.32,5.19.22.39.89.56,1.19.16ZM195.9,123.9c.22-.12.45-.23.68-.33.1-.04.19-.07.29-.11.02,0,.04-.01.06-.02,0,.01.02.03.02.04.08.14.15.27.23.41.48.86.96,1.71,1.44,2.57-.09.07-.16.15-.21.26-.74-1.02-1.59-1.96-2.51-2.82Z"/><path class="cls-1" d="M201.1,126.88c.14.47.68.72,1.11.48.56-.32,1.12-.64,1.68-.96.84-.48.08-1.8-.76-1.32-.3.17-.59.34-.89.51-.6-1.67-1.45-3.23-2.32-4.78-.48-.86-1.78-.11-1.3.75.96,1.71,1.93,3.43,2.48,5.33Z"/><path class="cls-1" d="M237.71,203.96H54.17L145.94,45.01l91.77,158.95ZM61.09,199.96h169.69L145.94,53.01,61.09,199.96Z"/><path class="cls-1" d="M145.88,116.61c4.44,0,9.96,0,9.96,0v1s-7.5,1.04-7.5,6.02c0,4.98-4.91,4.98-4.91,0,0-4.98-7.5-6.02-7.5-6.02v-1s5.52,0,9.96,0Z"/><path class="cls-1" d="M145.88,408.37h9.96v-1s-7.5-1.04-7.5-6.02c0-4.98-4.91-4.98-4.91,0,0,4.98-7.5,6.02-7.5,6.02v1s5.52,0,9.96,0Z"/><rect class="cls-1" x="143.38" y="116.73" width="5" height="145.76"/><rect class="cls-1" x="143.38" y="308.12" width="5" height="100.13"/><path class="cls-1" d="M290.75,252.53s-.98,6.97-5.53,7.46H6.54c-4.55-.48-5.53-7.46-5.53-7.46H0v19.91h1s.98-6.98,5.54-7.46h278.68c4.55.48,5.54,7.46,5.54,7.46h1v-19.91h-1Z"/><path class="cls-1" d="M176.6,129.62s-1,7.98-5.58,8.83h-50.15c-4.58-.85-5.58-8.83-5.58-8.83h-3.06v23.66h3.06s1-7.98,5.58-8.83h50.15c4.58.85,5.58,8.83,5.58,8.83h3.06v-23.66h-3.06Z"/><path class="cls-1" d="M176.6,159.83s-1,7.98-5.59,8.83h-50.15c-4.59-.85-5.58-8.83-5.58-8.83h-3.06v23.66h3.06s1-7.98,5.58-8.83h50.16c4.58.85,5.58,8.83,5.58,8.83h3.06v-23.66h-3.06Z"/><path class="cls-1" d="M290.35,340.98s-1.34,9.67-7.71,9.67h-120.24c1.26,1.85,2.21,3.93,2.79,6.16.42,1.6.64,3.28.64,5.01,0,11-8.95,19.95-19.95,19.95s-19.95-8.95-19.95-19.95c0-1.73.22-3.41.64-5.01.58-2.23,1.53-4.31,2.79-6.16H9.12c-6.38,0-7.71-9.67-7.71-9.67H.12v25.51h1.29s1.34-9.67,7.71-9.67h111.3c-.32,1.62-.49,3.3-.49,5.01,0,14.31,11.64,25.95,25.95,25.95s25.95-11.64,25.95-25.95c0-1.71-.17-3.39-.49-5.01h111.3c6.38,0,7.71,9.67,7.71,9.67h1.29v-25.51h-1.29Z"/><path class="cls-1" d="M50.68,352c-2.8,0-5.49-.47-8-1.34.77.08,1.54.12,2.33.12,12.93,0,23.41-10.48,23.41-23.41,0-12.93-10.48-23.41-23.41-23.41-.79,0-1.56.04-2.33.12,2.51-.86,5.2-1.34,8-1.34,13.6,0,24.63,11.03,24.63,24.63,0,13.6-11.03,24.63-24.63,24.63Z"/><path class="cls-1" d="M21.85,327.36c9.83,0,20.83,3.92,20.83,9.96,0-6.04,8.02-9.96,13.51-9.96-5.49,0-13.51-3.92-13.51-9.96,0,6.04-11,9.96-20.83,9.96Z"/><path class="cls-1" d="M241.08,352c2.8,0,5.49-.47,8-1.34-.77.08-1.54.12-2.33.12-12.93,0-23.41-10.48-23.41-23.41,0-12.93,10.48-23.41,23.41-23.41.79,0,1.56.04,2.33.12-2.51-.86-5.2-1.34-8-1.34-13.6,0-24.63,11.03-24.63,24.63s11.03,24.63,24.63,24.63Z"/><path class="cls-1" d="M269.91,327.36c-9.83,0-20.83,3.92-20.83,9.96,0-6.04-8.02-9.96-13.51-9.96,5.49,0,13.51-3.92,13.51-9.96,0,6.04,11,9.96,20.83,9.96Z"/><path class="cls-1" d="M274.92,282.73c-6.5-1.04-8.44-5.22-8.21-7.48,1.57-7.21.87-14.67-1.72-21.57-4.58-11.86-16.36-19.93-28.82-21.3-2.02-.22-2.76,2.7-.84,3.45,1.63.64,3.37,1.45,4.98,2.32,4.57,2.48,8.81,5.71,11.96,9.82,6,7.68,7.43,18.78,4.31,27.86-11.05,29.9-83.23,27.71-110.69,28.29,0,0,0,0,0,0-27.58-.58-99.63,1.6-110.68-28.29-2.13-5.88-2.04-13.18-.18-19.19,2.38-8.2,9.04-14.53,16.45-18.49,1.56-.84,3.26-1.64,4.83-2.26.8-.26,1.36-1.02,1.27-1.9-.1-.98-.98-1.7-1.96-1.6-4.15.42-7.92,1.64-11.66,3.35-7.66,3.57-14.08,10-17.16,17.95-2.75,7.56-3.28,14.98-1.72,21.73.12,2.29-1.88,6.3-8.22,7.32,4.54-.23,10.23,2.04,14.96,6.14,2.97,3.54,6.79,6.63,11.44,9.11,27.67,14.32,71.73,13.72,102.64,14.14h0c22.85-.12,45.92-.38,68.65-3.94,15.58-2.73,34.75-6.72,45.39-19.27,4.74-4.12,10.45-6.41,15.01-6.18Z"/><path class="cls-1" d="M74.46,65.63v10h36s-7.62-8.91-8.59-20.85c-.64-7.83,1.88-17.98,7.64-24.23,9.05-9.81,22.02-15.96,36.42-15.96s27.37,6.15,36.42,15.96c5.76,6.25,8.28,16.39,7.64,24.23-.97,11.94-8.59,20.85-8.59,20.85h36v-10h-21.12c.1-.37,1.78-9.33,1.78-13.49,0-28.8-23.34-52.14-52.14-52.14s-52.14,23.34-52.14,52.14c0,4.16,1.68,13.11,1.78,13.49h-21.12Z"/><path class="cls-1" d="M150.07,286.1c0-4.11-1.88-7.45-4.19-7.45s-4.19,3.33-4.19,7.45c0,4.11,1.88,7.45,4.19,7.45s4.19-3.33,4.19-7.45Z"/><path class="cls-1" d="M117.27,286.1c1.89,0,7.11,4.45,7.11,4.45,3.37,2.75,8.56,6.13,15.07,7.58,5.74,3.19,6.43,11.58,6.43,11.58,0,0,.69-8.39,6.43-11.58,6.51-1.45,11.7-4.82,15.07-7.58,0,0,5.23-4.45,7.11-4.45-1.89,0-7.11-4.45-7.11-4.45-3.37-2.75-8.56-6.13-15.07-7.58-5.74-3.19-6.43-11.58-6.43-11.58,0,0-.69,8.39-6.43,11.58-6.51,1.45-11.7,4.83-15.07,7.58,0,0-5.23,4.45-7.11,4.45ZM145.88,278.54c8.36,0,15.05,4.41,18.76,7.56-3.71,3.15-10.39,7.56-18.76,7.56-8.36,0-15.05-4.41-18.76-7.56,3.71-3.15,10.39-7.56,18.76-7.56Z"/></g></svg>