<?xml version="1.0" encoding="UTF-8"?><svg id="Layer_1" xmlns="http://www.w3.org/2000/svg" viewBox="0 0 249.7 318.01"><defs><style>.cls-1{fill:#fff;}</style></defs><g id="Symbol_15"><path class="cls-1" d="M244.73,240.41s-.98,6.98-5.54,7.46H10.51c-4.55-.48-5.54-7.46-5.54-7.46h-1v19.91h1s.98-6.97,5.53-7.46h228.69c4.55.48,5.53,7.46,5.53,7.46h1v-19.91h-1Z"/><path class="cls-1" d="M244.73,264.53s-.98,6.98-5.54,7.46H10.51c-4.55-.48-5.54-7.46-5.54-7.46h-1v19.91h1s.98-6.97,5.53-7.46h228.69c4.55.48,5.53,7.46,5.53,7.46h1v-19.91h-1Z"/><path class="cls-1" d="M244.73,60.66s-.98,6.98-5.54,7.46H10.51c-4.55-.48-5.54-7.46-5.54-7.46h-1v19.91h1s.98-6.97,5.53-7.46h228.68c4.55.48,5.53,7.46,5.53,7.46h1v-19.91h-1Z"/><path class="cls-1" d="M239.19,92.24H10.51c-4.55-.48-5.53-7.46-5.53-7.46h-1v19.91h1s.98-6.97,5.53-7.46h228.68c4.55.48,5.53,7.46,5.53,7.46h1v-19.91h-1s-.98,6.98-5.53,7.46Z"/><path class="cls-1" d="M40.84,37.09v-1h-19.91v1s6.97.98,7.46,5.53v80.12c-.48,4.55-7.46,5.53-7.46,5.53v1h19.91v-1s-6.98-.99-7.46-5.54V42.63c.48-4.55,7.46-5.54,7.46-5.54Z"/><path class="cls-1" d="M228.78,37.09v-1h-19.92v1s6.97.98,7.46,5.53v80.12c-.48,4.55-7.46,5.53-7.46,5.53v1h19.92v-1s-6.98-.99-7.46-5.54V42.63c.48-4.55,7.46-5.54,7.46-5.54Z"/><path class="cls-1" d="M153.78,34.21s-.98,6.97-5.53,7.46h-46.8c-4.55-.48-5.53-7.46-5.53-7.46h-1v19.91h1s.98-6.98,5.54-7.46h46.79c4.55.48,5.54,7.46,5.54,7.46h1v-19.91h-1Z"/><path class="cls-1" d="M74.43,108.25c-5.99-9.32-9.48-20.41-9.48-32.31,0-33.08,26.82-59.9,59.9-59.9s59.9,26.82,59.9,59.9c0,11.91-3.49,22.99-9.48,32.31,9.64-11.46,15.45-26.23,15.45-42.38C190.72,29.49,161.23,0,124.85,0S58.98,29.49,58.98,65.87c0,16.14,5.82,30.92,15.45,42.38Z"/><path class="cls-1" d="M247.17,176.05c-11.87,0-21.7-3.45-34.85-15.19-13.15-11.74-22.81-29.3-22.81-29.3l-1.58,3.38s13.02,20.55,16.72,33.83c3.19,11.43-1.48,21.54-7.74,29.84l-72.07,83.77-72.07-83.77c-6.25-8.29-10.92-18.4-7.73-29.83,3.7-13.28,16.72-33.83,16.72-33.83l-1.58-3.38s-9.66,17.55-22.81,29.3c-13.15,11.74-22.98,15.19-34.85,15.19s19.06,5.55,25.58,10.75l86.79,100.88c4.7,6.89,9.95,21.8,9.95,30.33,0-8.52,5.25-23.44,9.95-30.33l86.79-100.88c6.52-5.2,36.99-10.75,25.58-10.75Z"/><path class="cls-1" d="M153.75,179.99c0-6.47,5.25-11.72,11.72-11.72,2.43,0,4.68.74,6.55,2-2.92-3.81-7.52-6.27-12.69-6.27-8.15,0-14.86,6.1-15.85,13.99h-16.63v-16.63c7.88-.99,13.99-7.7,13.99-15.85,0-5.17-2.46-9.77-6.27-12.69,1.26,1.87,2,4.12,2,6.55,0,5.79-4.2,10.59-9.72,11.54v-45.46c11.67-1.02,20.86-10.84,20.86-22.77,0-12.61-10.26-22.86-22.86-22.86s-22.86,10.26-22.86,22.86c0,11.93,9.19,21.75,20.86,22.77v45.46c-5.52-.95-9.72-5.75-9.72-11.54,0-2.43.74-4.68,2-6.55-3.81,2.92-6.27,7.52-6.27,12.69,0,8.15,6.1,14.86,13.99,15.85v16.63h-16.63c-.99-7.88-7.7-13.99-15.85-13.99-5.17,0-9.77,2.46-12.69,6.27,1.87-1.26,4.12-2,6.55-2,6.47,0,11.72,5.25,11.72,11.72s-5.25,11.72-11.72,11.72c-2.43,0-4.68-.74-6.55-2,2.92,3.81,7.52,6.27,12.69,6.27,8.15,0,14.86-6.1,15.85-13.99h16.63v16.63c-7.88.99-13.99,7.7-13.99,15.85,0,5.17,2.46,9.77,6.27,12.69-1.26-1.87-2-4.12-2-6.55,0-6.47,5.25-11.72,11.72-11.72s11.72,5.25,11.72,11.72c0,2.43-.74,4.68-2,6.55,3.81-2.92,6.27-7.52,6.27-12.69,0-8.15-6.1-14.86-13.99-15.85v-16.63h16.63c.99,7.88,7.7,13.99,15.85,13.99,5.17,0,9.77-2.46,12.69-6.27-1.87,1.26-4.12,2-6.55,2-6.47,0-11.72-5.25-11.72-11.72ZM105.99,82.68c0-10.4,8.46-18.86,18.86-18.86s18.86,8.46,18.86,18.86-8.46,18.86-18.86,18.86-18.86-8.46-18.86-18.86Z"/></g></svg>