<?xml version="1.0" encoding="UTF-8"?><svg id="Layer_1" xmlns="http://www.w3.org/2000/svg" viewBox="0 0 301.64 429.12"><defs><style>.cls-1{fill:#fff;}</style></defs><g id="Symbol_8"><path class="cls-1" d="M43.45,361.78l109.13-109.13-3.54-3.54-109.13,109.13c-3.56,2.88-9.19-1.36-9.19-1.36l-.71.71,14.08,14.08.71-.71s-4.24-5.63-1.36-9.19Z"/><path class="cls-1" d="M270.91,356.89s-5.63,4.24-9.19,1.36l-109.13-109.13-3.54,3.54,109.13,109.13c2.88,3.56-1.36,9.19-1.36,9.19l.71.71,14.08-14.08-.71-.71Z"/><path class="cls-1" d="M270.69,170.41s-.98,6.98-5.54,7.46H36.48c-4.55-.48-5.54-7.46-5.54-7.46h-1v19.91h1s.98-6.97,5.53-7.46h228.69c4.55.48,5.53,7.46,5.53,7.46h1v-19.91h-1Z"/><path class="cls-1" d="M270.69,240.92s-.98,6.98-5.53,7.46H36.48c-4.55-.48-5.53-7.46-5.53-7.46h-1v19.91h1s.98-6.98,5.53-7.46h228.68c4.55.48,5.53,7.46,5.53,7.46h1v-19.91h-1Z"/><path class="cls-1" d="M150.82,360.18c-60.23,0-109.23-49-109.23-109.23s49-109.23,109.23-109.23,109.23,49,109.23,109.23-49,109.23-109.23,109.23ZM150.82,145.71c-58.03,0-105.23,47.21-105.23,105.23s47.21,105.23,105.23,105.23,105.23-47.21,105.23-105.23-47.21-105.23-105.23-105.23Z"/><path class="cls-1" d="M150.82,345.01c-16.2,0-29.38-13.18-29.38-29.38s13.18-29.38,29.38-29.38,29.38,13.18,29.38,29.38-13.18,29.38-29.38,29.38ZM150.82,290.26c-13.99,0-25.38,11.38-25.38,25.38s11.38,25.38,25.38,25.38,25.38-11.38,25.38-25.38-11.38-25.38-25.38-25.38Z"/><path class="cls-1" d="M284.21,215.16H17.43c-12,0-17.43-10.34-17.43-10.34v3.85c8.17,6.64,7.15,14.98,7.15,14.98,0,0,6.81-3.83,13.96-3.83h259.43c7.15,0,13.96,3.83,13.96,3.83,0,0-1.02-8.34,7.15-14.98v-3.85s-5.43,10.34-17.43,10.34Z"/><path class="cls-1" d="M153.32,415.22V41.2c.75-5.27,11.47-9.67,19.23-9.67-7.76,0-18.48-4.41-19.23-9.67V6.54c.48-4.55,7.46-5.53,7.46-5.53V0h-19.92v1s6.98.98,7.46,5.53v15.32c-.75,5.27-11.47,9.67-19.23,9.67,7.76,0,18.48,4.41,19.23,9.67v374.02c-.48,4.55-7.46,5.53-7.46,5.53v1h19.92v-1s-6.98-.98-7.46-5.53Z"/><path class="cls-1" d="M176.08,84.86c0-7.9,6.41-14.31,14.31-14.31.48,0,.95.02,1.42.07-1.53-.53-3.18-.82-4.89-.82-7.08,0-13.01,4.9-14.61,11.49-1.71-10.32-10.69-18.22-21.49-18.22s-19.79,7.9-21.49,18.22c-1.6-6.59-7.53-11.49-14.61-11.49-1.71,0-3.36.29-4.89.82.47-.05.94-.07,1.42-.07,7.9,0,14.31,6.41,14.31,14.31s-6.41,14.31-14.31,14.31c-.48,0-.96-.02-1.42-.07,1.53.53,3.18.82,4.89.82,7.08,0,13.01-4.9,14.61-11.49,1.71,10.32,10.69,18.22,21.49,18.22s19.79-7.9,21.49-18.22c1.6,6.59,7.53,11.49,14.61,11.49,1.71,0,3.36-.29,4.89-.82-.47.05-.94.07-1.42.07-7.9,0-14.31-6.41-14.31-14.31ZM150.82,102.65c-9.81,0-17.79-7.98-17.79-17.79s7.98-17.79,17.79-17.79,17.79,7.98,17.79,17.79-7.98,17.79-17.79,17.79Z"/><path class="cls-1" d="M97.84,197.71c-.48.34-.99.59-1.5.82,0-.23,0-.45,0-.68,0-1.01,0-2.01,0-3.02,0-.48-.55-.48-.55,0,0,.97,0,1.93,0,2.9,0,.33,0,.68.01,1.03-2.08.79-4.3.94-6.39,1.63-.22.07-.27.54-.07.69,1.1.78,2.24,1.44,3.41,1.97.03.6.05,1.2.05,1.8,0,.48.54.48.55,0,0-.52,0-1.04-.03-1.55,1.55.66,3.16,1.1,4.78,1.32.15.2.5,0,.46-.38-.21-2.06-.31-4.13-.31-6.21,0-.3-.23-.45-.41-.32ZM93.21,201.88c-.02-.2-.21-.31-.34-.26-.16.06-.21.26-.19.46,0,.05,0,.11.01.16-.81-.39-1.6-.84-2.38-1.35,1.82-.5,3.68-.73,5.47-1.37-.02.33-.04.65-.11.96-.1.46.43.66.53.2.09-.45.13-.91.14-1.38.47-.2.93-.43,1.38-.71.01,1.76.1,3.52.27,5.26-1.61-.23-3.19-.69-4.73-1.36-.02-.2-.02-.41-.05-.61Z"/><path class="cls-1" d="M89.48,197.38c.02.28,0,.7.16.92.15.22.39.18.59.17.27,0,.55,0,.82,0,1.2-.01,2.4-.02,3.6-.04.16,0,.24-.15.26-.31.06-.06.11-.15.11-.28.02-.68,0-1.37-.08-2.04-.03-.27-.03-.62-.14-.86-.11-.25-.3-.28-.5-.28-1.06-.01-2.13,0-3.19,0-.24,0-.49,0-.73,0-.24,0-.53-.05-.77.02-.2.06-.32.28-.32.56,0,.38.06.78.09,1.16.03.33.05.66.08.99ZM90.04,197.73s-.01,0,0,0h0ZM90.13,195.41c.14,0,.27,0,.41,0,.27,0,.55,0,.82,0,.58,0,1.16,0,1.73,0,.27,0,.55,0,.82,0,.13,0,.29.04.41,0,.01,0,.01,0,.03,0,0,.06.02.13.03.17.09.69.12,1.4.1,2.1l-3.15.03c-.27,0-.55,0-.82,0-.14,0-.27,0-.41,0-.02,0-.03,0-.04,0,0-.1-.02-.19-.02-.29l-.09-1.11c-.01-.18-.03-.37-.04-.55,0-.11-.03-.25-.03-.38.09,0,.21.01.25.01Z"/><path class="cls-1" d="M137.11,199.16c-.34-.35-.71-.66-1.09-.93-.04-.7-.09-1.4-.13-2.1h2.72c.35,0,.35-.75,0-.75h-2.76c-.01-.21-.03-.42-.04-.63-.03-.48-.58-.48-.55,0,.01.21.03.42.04.63-.45,0-.9,0-1.36,0-.03-.38-.05-.77-.09-1.15-.02-.2-.11-.37-.27-.38-.13,0-.29.17-.27.38.03.38.06.77.08,1.15h-2.5c-.35,0-.35.75,0,.75h2.56c.02.31.05.62.07.93-.02,0-.05-.02-.07-.02-1.31-.27-2.67-.09-3.89.63-.63.37-1.23.92-1.66,1.66-.43.75-.71,1.68-.81,2.62-.1.96,0,2.08.56,2.76.48.58,1.23.81,1.78.29.29-.27.02-.92-.28-.65-.4.37-.92.15-1.23-.32-.38-.58-.38-1.47-.27-2.19.12-.81.37-1.61.77-2.22.4-.61.93-1.05,1.48-1.35,1.16-.64,2.43-.74,3.65-.44.03.69.07,1.38.09,2.07.01.48.56.48.55,0-.02-.64-.05-1.28-.08-1.92.48.17.95.41,1.4.71.09,1.4.17,2.81.26,4.21.03.48.58.48.55,0-.08-1.26-.15-2.52-.23-3.79.1.08.21.16.31.25,1.08.97,2.26,2.58,1.89,4.52-.09.47.44.67.53.2.39-2.02-.58-3.78-1.7-4.94ZM134.07,197.23c-.02-.37-.05-.73-.08-1.1.45,0,.9,0,1.35,0,.03.57.07,1.14.1,1.71-.44-.26-.9-.46-1.37-.61Z"/><path class="cls-1" d="M133.33,204.07c-.47-1.44-1.03-2.83-1.67-4.15-.17-.35-.58-.13-.5.29.24,1.39.03,2.89-.57,4.06-.14.28-.4.62-.2.98.19.34.54.15.8.1.65-.13,1.3-.17,1.95-.13.3.02.34-.52.13-.7.09-.12.12-.29.07-.45ZM131.28,204.57c-.07.01-.14.03-.21.04.01-.02.02-.04.03-.06.09-.19.17-.38.24-.58.15-.4.26-.83.34-1.27.06-.34.09-.69.1-1.03.39.9.75,1.82,1.07,2.78,0,.01.02.01.02.02-.34,0-.67-.01-1.01.02-.2.02-.4.05-.59.08Z"/><path class="cls-1" d="M76.8,194.51c-.32-.2-.6.44-.28.65.89.57,1.94,1.25,2.4,2.51.47,1.28,0,2.77-.78,3.6-.05-.2-.09-.4-.16-.59-.37-1.08-1.02-1.98-1.68-2.73-.67-.75-1.43-1.45-2.25-1.82-.42-.19-.88-.27-1.31-.13-.42.14-.76.51-1.04.95-.37.59-.73,1.21-1.07,1.84-.39-1.01-.55-2.18-.36-3.31.08-.47-.45-.67-.53-.2-.25,1.44,0,2.93.54,4.17-.42.85-.8,1.81-.83,2.85-.03,1.21.5,2.16,1.18,2.87,1.46,1.45,3.58,1.38,5.22.58.79-.38,1.67-.95,2.14-1.94.25-.53.32-1.13.28-1.73.95-.86,1.61-2.43,1.35-4.01-.31-1.83-1.67-2.82-2.81-3.55ZM71.73,198.07c.21-.36.42-.76.69-1.05.31-.33.69-.41,1.07-.32.75.17,1.45.78,2.05,1.38.61.6,1.21,1.34,1.64,2.19.21.42.4.9.49,1.41-.88.61-1.93.68-2.9.52v-3.49c0-.48-.55-.48-.55,0v3.36c-.33-.09-.66-.21-.98-.37v-2.61c0-.48-.55-.48-.55,0v2.31c-.49-.32-.95-.72-1.33-1.25-.15-.21-.29-.44-.42-.68.25-.47.52-.94.79-1.39ZM76.04,204.83c-1.57.92-3.69,1.12-5.14-.32-.5-.53-.91-1.24-.91-2.14,0-.8.29-1.55.59-2.22,0-.01.01-.02.02-.04,0,0,0,.02.01.03.54.93,1.27,1.6,2.07,2.07v1.39c0,.48.55.48.55,0v-1.09c.26.12.53.23.8.3.06.02.12.03.18.04v.94c0,.48.55.48.55,0v-.84c1,.15,2.04.06,2.95-.48,0,.17-.01.35-.06.52-.24.94-1,1.48-1.62,1.84Z"/><path class="cls-1" d="M88.83,204.7h-8.23c-.35,0-.35.75,0,.75h8.23c.35,0,.35-.75,0-.75Z"/><path class="cls-1" d="M88.89,202.4h-8.47c-.35,0-.35.75,0,.75h8.47c.35,0,.35-.75,0-.75Z"/><path class="cls-1" d="M80.89,198.27v3.19c0,.48.55.48.55,0v-2.29c.56.91,1.13,1.82,1.7,2.72.03.08.07.13.12.15.12.09.25,0,.32-.14,0,0,.01-.02.02-.03,0-.02.01-.03.02-.05.02-.07.04-.14.03-.23-.01-.11,0-.3.04-.46.05-.2.12-.38.2-.56.08-.18.18-.34.28-.51.09.16.2.32.31.46.64.79,1.48,1.11,2.32.91.15-.03.23-.28.19-.46-.04-.21-.19-.3-.34-.26-.59.14-1.15-.06-1.63-.54-.18-.18-.35-.42-.48-.68.05-.08.1-.15.16-.23.6-.82,1.25-1.56,1.88-2.32.32.12.65.29.89.59.28.35.33.79.22,1.3-.1.46.43.66.53.2.12-.58.11-1.21-.16-1.72-.25-.47-.62-.74-1.01-.95.23-.29.45-.58.64-.92.09-.15.11-.33.02-.49-.07-.13-.25-.21-.35-.1.02-.02.02,0-.05.02,0,0-.1.01-.14.01-.17.01-.35,0-.52,0-.29,0-.58-.05-.86-.02-1.19.11-2.37.65-3.58.63-.61-.01-1.39-.5-1.96-.03-.67.55.04,1.77.34,2.29.1.17.21.34.31.52ZM84.26,198.78c-.02-.09-.05-.18-.06-.27,0-.04-.01-.08-.02-.12,0,.06,0-.01,0-.04,0-.08,0-.17,0-.25,0-.04,0-.08,0-.12,0-.01,0-.02,0-.02,0,0,0-.01,0-.03.01-.08.03-.16.04-.24,0-.02.03-.11.02-.08-.01.03.02-.05.02-.06.03-.07.06-.14.1-.21-.03.05.02-.03.03-.04.02-.03.04-.06.06-.09.06-.08.06-.08.12-.13.24-.22.51-.32.81-.36.18-.02.35,0,.53.03-.19.21-.37.42-.55.64-.37.44-.75.9-1.11,1.39ZM80.51,196.18s-.03-.09,0-.03c-.01-.02,0-.03,0-.03,0,0,.03-.02.05-.03.22-.1.52-.04.76,0,.17.03.34.07.51.11.26.06.5.06.76.03.56-.06,1.12-.18,1.68-.3.51-.11,1.03-.27,1.55-.3.31-.02.63.02.94.03.01,0,.03,0,.04,0-.12.16-.24.32-.37.47-.21-.07-.41-.12-.62-.17-.41-.09-.9.06-1.27.29-.58.35-.94,1.12-.92,1.99.01.4.09.79.22,1.15-.17.27-.32.55-.45.85-.09.19-.15.39-.21.6-.59-.93-1.18-1.84-1.74-2.8v-1.04c0-.48-.55-.48-.55,0v.12c-.13-.23-.24-.47-.33-.72-.02-.07-.04-.14-.05-.21Z"/><path class="cls-1" d="M107.49,202.74c-.13.52-.18,1.06-.19,1.6-1.24-.2-2.49-.26-3.73-.3-.03-.53-.06-1.06-.08-1.59,1.32-.05,2.64-.58,3.72-1.66.05-.05.07-.11.09-.17.06-.17.05-.38-.08-.47-.04-.05-.1-.08-.16-.07-.6-.17-1.16-.48-1.75-.7-.68-.25-1.42-.43-2.13-.46-.28-.01-.55.01-.82.06-.18-1.63-.59-3.18-1.35-4.5-.14-.24-.4-.08-.46.17-.38,1.62-.75,3.42-.81,5.17-.23.08-.45.15-.68.2-.17.04-.25.36-.16.55.22.47.55.75.91.97.12,1.13.43,2.21,1.02,3.18.01.02.02.03.04.04,0,.01.02.02.03.03.02.01.03.03.05.04.02.01.04.02.07.02,0,0,.01,0,.02,0,.03,0,.05-.01.08-.03,0,0,0,0,0,0,.02-.01.03-.01.05-.03.61-.62.96-1.46,1.15-2.38.21.03.42.06.63.07.02.65.05,1.3.09,1.96.01.21.11.37.27.38,1.42.04,2.84.09,4.25.35.14.03.28-.19.27-.38-.03-.63.03-1.22.18-1.82.11-.46-.42-.65-.53-.2ZM101.89,201.54c-.3-.07-.59-.14-.88-.25-.22-.08-.47-.17-.71-.28-.01-.2-.02-.41-.02-.61.54-.2,1.08-.42,1.63-.56.03.55.04,1.14-.02,1.71ZM100.92,195.61c.49,1.05.78,2.25.92,3.49-.52.14-1.03.33-1.54.52.07-1.36.34-2.74.62-4.01ZM99.68,200.61s.04-.01.07-.02c0,.03,0,.05,0,.08-.02-.02-.05-.04-.07-.06ZM101.07,203.9c-.34-.64-.56-1.34-.68-2.08.06.03.12.05.18.08.39.16.8.29,1.2.38-.13.61-.35,1.17-.71,1.62ZM102.43,201.64c.06-.56.07-1.13.04-1.7,0-.07-.02-.14-.02-.21.25-.04.49-.06.74-.05.68.03,1.4.21,2.05.46.39.15.77.32,1.16.48-.89.7-1.89,1.05-2.92,1.09,0-.42-.02-.84-.01-1.27,0-.48-.55-.48-.55,0,0,.42,0,.83.01,1.25-.17,0-.34-.03-.51-.06Z"/><path class="cls-1" d="M105.48,195.66c-.57.16-1.26.37-1.69.94-.21.28-.3.66-.18,1.04.15.47.51.78.83.99.91.61,1.93.74,2.9,1.03.3.07.52-.03.65-.42.13-.38.23-.78.33-1.17.08-.33.2-.7.21-1.06,0-.4-.2-.64-.43-.85-.77-.7-1.74-.76-2.62-.51ZM107.49,198.93c-.69-.2-1.4-.33-2.08-.6-.34-.13-.67-.3-.97-.56-.1-.09-.21-.19-.29-.33-.01-.02-.05-.11-.04-.09-.01-.03-.01-.05-.01-.06.01-.07.02-.1.08-.17.07-.09.16-.16.26-.23.21-.15.44-.25.67-.34.54-.21,1.12-.36,1.68-.25.23.04.46.12.67.24.13.08.5.27.53.48.03.17-.44,1.93-.5,1.92Z"/><path class="cls-1" d="M102.09,195.5h.63v2.32c0,.48.55.48.55,0v-2.32h2.04c.35,0,.35-.75,0-.75h-2.04v-.47c0-.48-.55-.48-.55,0v.47h-.63c-.35,0-.35.75,0,.75Z"/><path class="cls-1" d="M126.64,200.1c-.1.83-.49,1.5-1.03,1.89-.39.28-.83.37-1.26.35v-7.6c0-.48-.55-.48-.55,0v7.51c-.08-.02-.16-.03-.23-.06-.2-.07-.4-.16-.6-.27v-7c0-.48-.55-.48-.55,0v6.65c-.31-.22-.61-.47-.91-.74-.62-.55-1.25-1.11-1.81-1.77-.52-.62-.96-1.41-1.1-2.34.14.06.28.17.4.28.21.18.41.36.63.5.47.29.98.44,1.5.42.35,0,.35-.76,0-.75-.56.01-1.09-.18-1.57-.57-.44-.37-.83-.75-1.37-.64-.11.02-.21.21-.2.36.1,2.4,1.73,3.76,3.04,4.97.18.17.37.33.56.49-.03-.02-.06-.03-.1-.03-.36.02-.71.04-1.07.06-.21.02-.44.03-.64.13-.19.1-.34.28-.39.57-.05.29,0,.59.04.87.07.49.15.97.22,1.45.02.15.13.25.24.27.02,0,.05,0,.07,0,0,0,.02,0,.02,0,0,0,0,0,0,0,.04-.02.08-.04.12-.09,0-.01.08-.09.04-.05.03-.02.05-.04.08-.07.05-.04-.03,0,.02-.01.03-.01.06-.03.09-.04.12-.04.18-.04.34-.05.27,0,.54.02.81-.04.01,0,.11-.03.05-.01.06-.01.1-.02.16-.06.11-.09.17-.25.17-.42,0-.12-.04-.24-.05-.35-.02-.11-.04-.22-.05-.33-.05-.43-.05-.92,0-1.35.02-.15-.02-.31-.11-.4.25.21.51.39.78.57v2.49c0,.48.55.48.55,0v-2.18c.27.14.55.25.83.32v1.92c0,.48.55.48.55,0v-1.84c.46.02.93-.08,1.39-.36.72-.45,1.31-1.36,1.43-2.44.05-.47-.47-.68-.53-.2ZM119.9,202.72s0,0,0,0h0s0,0,0,0ZM119.91,202.7s0,0,0,0c0,0,0,0,0,0ZM120.62,204.05c-.18,0-.36.04-.53.12-.04-.27-.08-.53-.12-.8-.02-.14-.03-.29-.06-.43,0,0,0,0,0,.01,0,0,0-.01,0-.02,0-.03,0-.05,0-.08,0-.05,0-.09,0-.14,0,0,0-.02,0-.03,0,0,0,0,0,.01h0s0,0,0-.01c0,0,0,0,0,0h0s0,0,0,0c0,0,0,0,0,0h0s0,0,0,0h0s0,0,0,0c0-.04,0-.03,0,0,0,0,.01-.01.01-.02,0,.01,0,.01-.01.02,0,0,.01,0,.02-.01,0,0,0,0,0,0,0,0,0,0,0,0,0,0,.01,0,.02-.01,0,0,0,0-.01,0,.02,0,.03-.01.05-.02.04-.01.08-.02.11-.03,0,0,.01,0,.02,0,.02,0,.04,0,.06,0,.06,0,.12-.01.18-.02.27-.02.54-.04.82-.05-.01.23-.02.46,0,.7,0,.2.03.41.05.61,0,.07.02.14.03.21-.05,0-.1,0-.16,0-.16,0-.32,0-.47,0ZM121.46,204.01s0,0,0,0c0,0,.02,0,.03,0-.01,0-.02,0-.03,0Z"/><path class="cls-1" d="M114.5,195.42c2.36-.11,4.73-.12,7.09-.02.35.01.35-.74,0-.75-2.36-.09-4.73-.08-7.09.02-.35.02-.35.77,0,.75Z"/><path class="cls-1" d="M118.61,202.49c-2.74-.09-5.48-.08-8.22.02-.35.01-.35.76,0,.75,2.74-.11,5.48-.12,8.22-.02.35.01.35-.74,0-.75Z"/><path class="cls-1" d="M118.61,204.12c-2.74-.09-5.48-.08-8.22.02-.35.01-.35.76,0,.75,2.74-.11,5.48-.12,8.22-.02.35.01.35-.74,0-.75Z"/><path class="cls-1" d="M118.74,200.64c-.37.69-1.08.7-1.62.47-.61-.26-1.22-.79-1.71-1.35-.17-.19-.44-.54-.61-.93,0,0,0,0,0,0,.36-.14.74-.14,1.1-.23.35-.09.71-.28.96-.66.28-.44.05-.99-.27-1.25-.29-.23-.66-.26-.99-.21-.35.05-.72.14-1.02.4-.45.38-.54.95-.46,1.53-.12.09-.23.21-.32.35-.18.26-.29.59-.3.95,0,.19.05.4.02.58-.03.2-.23.15-.35.14-.63-.04-1.21-.49-1.7-1-.3-.31-.58-.66-.85-1.02-.08-.1-.35-.37-.33-.53.01-.15.35-.33.44-.4.62-.49,1.28-.92,1.94-1.3.02.78-.02,1.56-.17,2.33-.09.47.44.67.53.2.19-1.01.25-2.06.18-3.1-.01-.22-.17-.46-.35-.36-.9.48-1.77,1.06-2.6,1.73-.34.28-.66.64-.47,1.24.15.49.54.87.82,1.22.61.74,1.31,1.45,2.12,1.68.35.09.85.2,1.13-.17.13-.17.19-.4.2-.64,0-.24-.05-.49,0-.72.04-.19.13-.33.25-.44.07.17.14.34.23.49.27.47.62.85.99,1.18.4.37.83.71,1.28.95.83.43,1.84.3,2.39-.74.21-.39-.27-.77-.47-.38ZM114.74,197.67c.17-.26.46-.35.71-.41.24-.06.52-.1.76,0,.05.02.1.05.14.09.02.02.06.08.09.11,0,.01-.02.03-.03.04-.02.02-.05.05-.07.08-.06.06-.12.11-.19.14-.27.15-.56.19-.85.23-.22.04-.46.09-.68.18,0-.17.03-.33.12-.47Z"/><path class="cls-1" d="M119.92,202.95s.02.09,0,0h0Z"/><path class="cls-1" d="M119.95,202.66s0,0,0,0c0,0,0,0,0,0-.03.01-.02.02,0,0Z"/><polygon class="cls-1" points="119.92 202.68 119.92 202.68 119.92 202.68 119.92 202.68 119.92 202.68 119.92 202.68 119.91 202.69 119.91 202.69 119.91 202.69 119.91 202.69 119.91 202.69 119.92 202.69 119.92 202.68"/><path class="cls-1" d="M127.2,197.83c.68-.12,1.26-.85,1.31-1.81.04-.8-.37-1.68-.97-1.82-.59-.13-1.21.33-1.62.88-.39.53-.64,1.37-.26,2.03.34.6,1.02.79,1.54.71ZM126.04,196.13s.03-.11.01-.05c0-.02.02-.05.03-.07.03-.07.06-.14.1-.2.1-.19.29-.41.46-.55.19-.17.38-.29.61-.33-.03,0,.08,0,.1,0,.02,0,.04,0,.05,0,.01,0,.01,0,.02,0,0,0,0,0,.01,0,.09.03.18.07.23.14.16.17.24.4.29.66.04.27-.01.6-.16.87-.14.25-.37.44-.59.48-.09.01-.17.02-.26.01-.05,0-.1,0-.15-.01,0,0,0,0-.02,0-.03,0-.06-.01-.09-.02-.09-.03-.19-.06-.28-.11-.02,0-.03-.02-.05-.03.05.03-.03-.02-.03-.02-.05-.03-.09-.07-.13-.11-.01,0,0,0-.01,0-.02-.02-.03-.04-.05-.06-.01-.02-.02-.03-.03-.05,0-.01,0-.01-.01-.01,0,0,0,0,0-.01,0-.02-.06-.15-.04-.08,0-.03-.01-.05-.02-.08,0-.01,0-.06,0-.07,0-.12,0-.16.03-.28Z"/><path class="cls-1" d="M208.89,197.1c-.03-.6-.05-1.2-.05-1.8,0-.48-.54-.48-.55,0,0,.52,0,1.04.03,1.55-1.55-.66-3.16-1.1-4.78-1.32-.15-.2-.5,0-.46.38.21,2.06.31,4.13.31,6.21,0,.3.23.45.41.32.48-.34.99-.59,1.5-.82,0,.23,0,.45,0,.68,0,1.01,0,2.01,0,3.02,0,.48.55.48.55,0,0-.97,0-1.93,0-2.9,0-.33,0-.68-.01-1.03,2.08-.79,4.3-.94,6.39-1.63.22-.07.27-.54.07-.69-1.1-.78-2.24-1.44-3.41-1.97ZM208.43,198.27c.02.2.21.31.34.26.16-.06.21-.26.19-.46,0-.05,0-.11-.01-.16.81.39,1.6.84,2.38,1.35-1.82.5-3.68.73-5.47,1.37.02-.33.04-.65.11-.96.1-.46-.43-.66-.53-.2-.09.45-.13.91-.13,1.38-.47.2-.93.43-1.38.71-.01-1.76-.1-3.52-.27-5.26,1.61.23,3.19.69,4.73,1.36.02.2.02.41.05.61Z"/><path class="cls-1" d="M212.15,202.78c-.02-.28,0-.7-.16-.92-.15-.22-.39-.18-.59-.17-.27,0-.55,0-.82,0-1.2.01-2.4.02-3.6.04-.16,0-.24.15-.26.31-.06.06-.11.15-.11.28-.02.68,0,1.37.08,2.05.03.27.03.62.13.86.11.25.3.28.5.28,1.06.01,2.13,0,3.19,0,.24,0,.49,0,.73,0,.25,0,.53.05.77-.02.2-.06.32-.28.32-.56,0-.38-.06-.78-.09-1.16-.03-.33-.05-.66-.08-.99ZM211.6,202.43s.01,0,0,0h0ZM211.51,204.74c-.14,0-.27,0-.41,0-.27,0-.55,0-.82,0-.58,0-1.16,0-1.73,0-.27,0-.55,0-.82,0-.13,0-.29-.03-.41,0-.01,0-.01,0-.03,0,0-.06-.02-.13-.03-.17-.09-.69-.12-1.4-.1-2.1l3.15-.03c.27,0,.55,0,.82,0,.14,0,.28,0,.41,0,.02,0,.03,0,.04,0,0,.1.02.19.02.29l.09,1.11c.01.18.03.37.04.55,0,.11.03.25.03.38-.09,0-.21-.01-.25-.01Z"/><path class="cls-1" d="M174.56,198.21c.1-.96,0-2.08-.56-2.76-.48-.58-1.23-.81-1.78-.29-.29.27-.02.92.28.65.4-.37.92-.15,1.23.32.38.58.38,1.47.27,2.19-.12.81-.37,1.61-.77,2.22-.4.61-.93,1.05-1.48,1.35-1.16.64-2.43.74-3.65.44-.03-.69-.07-1.38-.09-2.07-.01-.48-.56-.48-.55,0,.02.64.05,1.28.08,1.92-.48-.17-.95-.41-1.4-.71-.09-1.4-.17-2.81-.26-4.21-.03-.48-.58-.48-.55,0,.08,1.26.15,2.52.23,3.79-.1-.08-.21-.16-.31-.25-1.08-.97-2.27-2.58-1.89-4.52.09-.47-.44-.67-.53-.2-.39,2.02.58,3.78,1.7,4.94.34.35.71.66,1.09.93.04.7.09,1.4.13,2.1h-2.72c-.35,0-.35.75,0,.75h2.76c.01.21.03.42.04.63.03.48.58.48.55,0-.01-.21-.03-.42-.04-.63h1.36c.03.38.05.77.09,1.15.02.2.11.37.27.38.13,0,.29-.17.27-.38-.03-.38-.06-.77-.09-1.15h2.5c.35,0,.35-.75,0-.75h-2.56c-.02-.31-.05-.62-.07-.93.02,0,.05.02.07.02,1.31.27,2.67.09,3.89-.63.63-.37,1.23-.92,1.66-1.66.43-.75.71-1.68.81-2.62ZM167.64,204.03h-1.35c-.03-.57-.07-1.14-.1-1.71.44.26.91.46,1.37.61.02.37.05.73.08,1.1Z"/><path class="cls-1" d="M168.31,196.09c.48,1.44,1.03,2.83,1.67,4.15.17.35.58.13.5-.29-.24-1.39-.03-2.89.57-4.06.14-.28.4-.62.2-.98-.19-.34-.54-.15-.8-.1-.65.13-1.3.17-1.95.13-.3-.02-.34.52-.13.7-.09.12-.12.29-.07.45ZM170.36,195.59c.07-.01.14-.03.21-.04-.01.02-.02.04-.03.06-.09.19-.17.38-.24.58-.15.4-.26.83-.34,1.27-.06.34-.09.69-.1,1.03-.39-.9-.75-1.82-1.07-2.78,0-.01-.02-.01-.02-.02.34,0,.67.01,1.01-.02.2-.02.4-.05.59-.08Z"/><path class="cls-1" d="M232.19,197.86c.03-1.21-.5-2.16-1.18-2.87-1.46-1.45-3.58-1.38-5.22-.58-.79.38-1.67.95-2.14,1.94-.25.53-.32,1.13-.28,1.73-.95.86-1.61,2.43-1.35,4.01.31,1.83,1.67,2.82,2.81,3.55.32.2.6-.44.28-.65-.89-.57-1.94-1.25-2.4-2.51-.47-1.28,0-2.77.78-3.6.05.2.09.4.16.59.37,1.08,1.02,1.98,1.68,2.73.67.75,1.43,1.45,2.25,1.82.42.19.88.27,1.31.13.42-.14.76-.51,1.04-.95.37-.59.73-1.21,1.07-1.84.39,1.01.55,2.18.36,3.31-.08.47.45.67.53.2.25-1.44,0-2.93-.54-4.17.42-.85.8-1.81.83-2.85ZM225.6,195.32c1.57-.92,3.69-1.12,5.14.32.5.53.91,1.24.91,2.14,0,.8-.29,1.55-.59,2.22,0,.01-.01.02-.02.04,0,0,0-.02-.01-.03-.54-.93-1.27-1.6-2.07-2.07v-1.39c0-.48-.55-.48-.55,0v1.09c-.26-.12-.53-.23-.8-.3-.06-.02-.12-.03-.18-.04v-.94c0-.48-.55-.48-.55,0v.84c-1-.15-2.04-.06-2.95.48,0-.17.01-.35.06-.52.24-.94,1-1.48,1.62-1.84ZM229.91,202.08c-.21.36-.42.76-.69,1.05-.31.33-.69.41-1.07.32-.75-.17-1.45-.78-2.05-1.38-.61-.6-1.21-1.34-1.64-2.19-.21-.42-.4-.9-.49-1.41.88-.61,1.93-.68,2.9-.52v3.49c0,.48.55.48.55,0v-3.36c.33.09.66.21.98.37v2.61c0,.48.55.48.55,0v-2.31c.49.32.95.72,1.33,1.25.15.21.29.44.42.68-.25.47-.52.94-.79,1.4Z"/><path class="cls-1" d="M212.81,195.46h8.23c.35,0,.35-.75,0-.75h-8.23c-.35,0-.35.75,0,.75Z"/><path class="cls-1" d="M221.23,197.75c.35,0,.35-.75,0-.75h-8.47c-.35,0-.35.75,0,.75h8.47Z"/><path class="cls-1" d="M220.75,201.88v-3.19c0-.48-.55-.48-.55,0v2.29c-.56-.91-1.13-1.82-1.7-2.73-.03-.08-.07-.12-.12-.15-.12-.09-.25,0-.32.14,0,0-.01.02-.02.03,0,.02-.01.03-.02.05-.02.07-.04.14-.03.23.01.11,0,.3-.04.46-.05.2-.12.38-.2.56-.08.18-.18.34-.28.51-.09-.16-.2-.32-.31-.46-.64-.79-1.48-1.11-2.32-.91-.15.03-.23.28-.19.46.04.21.19.3.34.26.59-.14,1.15.06,1.63.54.18.18.35.42.48.68-.05.08-.1.15-.16.23-.6.82-1.25,1.56-1.88,2.32-.32-.12-.65-.29-.89-.59-.28-.35-.33-.79-.22-1.3.1-.46-.43-.66-.53-.2-.12.58-.11,1.21.16,1.72.25.47.62.74,1.01.95-.23.29-.45.58-.64.92-.08.15-.11.33-.02.49.07.13.25.21.35.1-.02.02-.02,0,.05-.02,0,0,.1-.01.14-.01.17-.01.35,0,.52,0,.28,0,.58.05.86.02,1.19-.11,2.37-.65,3.58-.63.61.01,1.39.5,1.96.03.67-.55-.04-1.77-.34-2.29-.1-.17-.21-.34-.31-.52ZM217.38,201.38c.02.09.05.18.06.27,0,.04.01.08.02.12,0-.06,0,.01,0,.04,0,.08,0,.17,0,.25,0,.04,0,.08,0,.12,0,.01,0,.02,0,.02,0,0,0,.01,0,.03-.01.08-.02.16-.04.24,0,.02-.03.11-.02.08.01-.03-.02.05-.02.06-.03.07-.06.14-.1.21.03-.05-.02.03-.03.04-.02.03-.04.06-.06.09-.06.08-.06.08-.12.13-.24.22-.51.32-.81.36-.18.02-.35,0-.53-.03.18-.21.37-.42.55-.64.37-.44.75-.9,1.11-1.39ZM221.13,203.98s.03.09,0,.03c.01.02,0,.03,0,.03,0,0-.03.02-.05.03-.22.1-.52.04-.76,0-.17-.03-.34-.07-.51-.11-.26-.06-.5-.06-.76-.03-.56.06-1.12.18-1.68.3-.51.11-1.03.27-1.55.3-.31.02-.63-.02-.94-.03-.01,0-.03,0-.04,0,.12-.16.24-.32.37-.47.21.07.42.12.62.17.41.09.9-.06,1.27-.29.58-.35.94-1.12.92-1.99-.01-.4-.09-.79-.22-1.15.17-.27.32-.55.45-.85.09-.19.15-.39.21-.6.59.93,1.18,1.85,1.75,2.8v1.04c0,.48.55.48.55,0v-.12c.13.23.24.47.33.72.02.07.04.14.05.21Z"/><path class="cls-1" d="M201.83,198.62c-.12-1.13-.43-2.21-1.02-3.18-.01-.02-.02-.03-.04-.04,0-.01-.02-.02-.03-.03-.02-.01-.03-.03-.05-.04-.02-.01-.04-.02-.07-.02,0,0-.01,0-.02,0-.03,0-.06.01-.08.03,0,0,0,0,0,0-.02.01-.03.01-.05.03-.61.62-.96,1.46-1.15,2.38-.21-.03-.42-.06-.63-.07-.02-.65-.05-1.3-.09-1.96-.01-.21-.11-.37-.27-.38-1.42-.04-2.84-.09-4.25-.35-.14-.03-.28.19-.27.38.03.63-.03,1.22-.18,1.82-.11.46.42.65.53.2.13-.52.18-1.06.19-1.6,1.24.2,2.48.26,3.73.3.03.53.06,1.06.08,1.59-1.32.05-2.65.58-3.72,1.66-.05.05-.07.1-.09.16-.07.17-.05.38.08.48.04.05.1.08.16.07.6.17,1.16.48,1.75.7.68.25,1.42.43,2.13.46.28.01.55-.01.82-.06.18,1.63.59,3.18,1.35,4.5.14.24.4.08.46-.17.38-1.62.75-3.42.81-5.17.23-.08.45-.15.68-.2.17-.04.25-.36.16-.55-.22-.47-.55-.75-.91-.97ZM201.96,199.55s-.04.01-.07.02c0-.03,0-.05,0-.08.02.02.05.04.07.06ZM199.73,200.32c-.03-.55-.04-1.14.02-1.71.3.07.59.14.88.25.22.08.47.17.71.28.01.2.02.41.02.61-.54.2-1.08.42-1.63.56ZM200.57,196.25c.34.64.56,1.34.68,2.08-.06-.03-.12-.05-.18-.08-.39-.16-.8-.29-1.2-.38.13-.61.35-1.17.71-1.62ZM198.45,200.48c-.69-.03-1.4-.21-2.05-.46-.39-.15-.77-.32-1.16-.48.89-.7,1.89-1.04,2.92-1.09,0,.42.02.84.01,1.27,0,.48.55.48.55,0,0-.42,0-.83-.01-1.25.17,0,.34.03.51.06-.06.56-.07,1.13-.04,1.7,0,.07.02.14.02.21-.25.04-.49.06-.74.05ZM200.72,204.55c-.49-1.05-.78-2.25-.92-3.49.52-.14,1.03-.33,1.54-.52-.07,1.36-.34,2.74-.62,4.01Z"/><path class="cls-1" d="M197.85,203.56c.21-.28.3-.66.18-1.04-.15-.47-.51-.78-.83-.99-.91-.61-1.93-.74-2.9-1.03-.3-.07-.52.03-.65.42-.13.38-.23.78-.33,1.17-.08.33-.21.7-.21,1.06,0,.4.2.64.43.85.77.7,1.74.76,2.62.51.57-.16,1.26-.37,1.69-.94ZM194.85,203.86c-.23-.04-.46-.12-.67-.24-.13-.08-.5-.27-.53-.48-.03-.17.44-1.93.5-1.92.69.2,1.4.33,2.08.6.34.13.67.3.97.56.1.09.21.19.29.33.01.02.05.11.04.09,0,.03.01.05.01.06-.01.07-.02.1-.08.17-.07.09-.16.16-.26.23-.21.15-.44.25-.67.34-.54.21-1.12.36-1.68.25Z"/><path class="cls-1" d="M199.55,204.65h-.63v-2.32c0-.48-.55-.48-.55,0v2.32h-2.04c-.35,0-.35.75,0,.75h2.04v.47c0,.48.55.48.55,0v-.47h.63c.35,0,.35-.75,0-.75Z"/><path class="cls-1" d="M180.13,199.31c.62.55,1.26,1.11,1.81,1.77.52.62.96,1.41,1.1,2.34-.14-.06-.28-.17-.4-.28-.21-.18-.41-.36-.63-.5-.47-.29-.98-.44-1.5-.42-.35,0-.35.76,0,.75.56-.01,1.09.18,1.57.57.44.37.83.75,1.37.64.11-.02.21-.21.2-.36-.1-2.4-1.73-3.76-3.04-4.97-.18-.17-.37-.33-.56-.49.03.02.06.03.1.03.36-.02.71-.04,1.07-.06.21-.02.44-.03.64-.13.19-.1.34-.28.39-.57.05-.29,0-.59-.04-.87-.07-.49-.15-.97-.22-1.45-.02-.15-.13-.25-.24-.27-.02,0-.05,0-.07,0,0,0-.02,0-.02,0,0,0,0,0,0,0-.04.02-.08.04-.12.09,0,.01-.08.09-.04.05-.03.02-.05.04-.08.07-.05.04.03,0-.02.01-.03.01-.06.03-.09.04-.12.04-.18.04-.34.05-.27,0-.54-.02-.81.04-.01,0-.11.03-.04.01-.06.01-.1.02-.16.06-.11.09-.17.25-.17.42,0,.12.03.24.05.35.02.11.04.22.05.33.05.43.05.92,0,1.35-.02.15.02.31.11.4-.25-.21-.51-.39-.78-.57v-2.49c0-.48-.55-.48-.55,0v2.18c-.27-.14-.55-.25-.83-.32v-1.92c0-.48-.55-.48-.55,0v1.84c-.46-.02-.93.08-1.39.36-.72.45-1.31,1.35-1.43,2.44-.05.47.47.68.53.2.1-.83.49-1.5,1.03-1.89.39-.28.82-.37,1.26-.35v7.6c0,.48.55.48.55,0v-7.51c.08.02.16.03.23.06.2.07.4.16.6.27v7c0,.48.55.48.55,0v-6.65c.31.22.61.47.91.74ZM181.74,197.44s0,0,0,0h0s0,0,0,0ZM181.73,197.46s0,0,0,0c0,0,0,0,0,0ZM181.01,196.11c.18,0,.36-.04.53-.12.04.27.08.53.12.8.02.14.03.29.06.43,0-.01,0-.01,0-.02,0,0,0,.01,0,.02,0,.03,0,.05,0,.08,0,.05,0,.09,0,.14,0,0,0,.02,0,.03,0,0,0,0,0,0h0s0,0,0,.01c0,0,0,0,0,0h0s0,0,0,0c0,0,0,0,0,0,0,0,0,0,0,0h0s0,0,0,0c0,.03,0,.03,0,0,0,0-.01.01-.01.02,0-.01,0-.01.01-.02,0,0-.01,0-.02.01,0,0,0,0,0,0,0,0,0,0,0,0,0,0-.01,0-.02.01,0,0,0,0,.01,0-.02,0-.03.01-.05.02-.04.01-.08.02-.11.03,0,0-.01,0-.02,0-.02,0-.04,0-.06,0-.06,0-.12.01-.18.02-.27.02-.54.03-.82.05.01-.23.02-.46,0-.7,0-.2-.03-.41-.05-.61,0-.07-.02-.14-.03-.21.05,0,.1,0,.16,0,.16,0,.32,0,.47,0ZM180.17,196.15s0,0,0,0c0,0-.02,0-.03,0,.01,0,.02,0,.03,0Z"/><path class="cls-1" d="M187.14,204.74c-2.36.11-4.73.12-7.09.02-.35-.01-.35.74,0,.75,2.36.09,4.73.08,7.09-.02.35-.02.35-.77,0-.75Z"/><path class="cls-1" d="M183.03,197.67c2.74.09,5.48.08,8.22-.02.35-.01.35-.76,0-.75-2.74.11-5.48.12-8.22.02-.35-.01-.35.74,0,.75Z"/><path class="cls-1" d="M183.03,196.04c2.74.09,5.48.08,8.22-.02.35-.01.35-.76,0-.75-2.74.11-5.48.12-8.22.02-.35-.01-.35.74,0,.75Z"/><path class="cls-1" d="M191.01,200.72c-.61-.74-1.31-1.45-2.12-1.68-.35-.09-.85-.2-1.13.17-.13.17-.19.4-.2.64,0,.24.05.49,0,.72-.04.19-.13.33-.25.44-.07-.17-.14-.34-.23-.49-.27-.47-.62-.85-.99-1.18-.4-.37-.83-.71-1.28-.95-.83-.43-1.84-.3-2.39.74-.21.39.27.77.47.38.37-.69,1.08-.7,1.62-.47.61.26,1.22.79,1.71,1.35.17.19.43.54.61.93,0,0,0,0,0,0-.36.14-.74.14-1.1.23-.35.09-.71.28-.96.66-.28.44-.05.99.27,1.25.29.23.66.26.99.21.35-.05.72-.14,1.02-.4.45-.38.54-.95.46-1.53.12-.09.23-.21.32-.35.18-.26.29-.59.3-.95,0-.19-.05-.4-.02-.58.03-.2.23-.15.35-.14.63.04,1.21.49,1.7,1,.3.31.58.66.85,1.02.08.1.35.37.33.53-.01.15-.35.33-.44.4-.62.49-1.28.92-1.94,1.3-.02-.78.02-1.56.17-2.33.09-.47-.44-.67-.53-.2-.19,1.01-.25,2.06-.18,3.1.01.22.17.46.35.36.9-.48,1.77-1.06,2.6-1.73.34-.28.66-.64.47-1.24-.15-.49-.54-.87-.82-1.22ZM186.9,202.49c-.17.26-.46.35-.71.41-.24.06-.52.1-.76,0-.05-.02-.1-.05-.14-.09-.02-.02-.06-.08-.09-.11,0-.01.02-.03.03-.04.02-.02.05-.05.07-.08.06-.06.12-.11.19-.14.27-.15.56-.19.85-.23.22-.04.45-.09.68-.18,0,.17-.03.33-.12.47Z"/><path class="cls-1" d="M181.72,197.2s-.01-.07,0,0h0Z"/><path class="cls-1" d="M181.69,197.49s0,0,0,0c0,0,0,0,0,0,.01,0,.02-.02.02-.02,0,0,0,0,0,0,0,0,0,0,0,0,0,0,0,0,0,0,0,0,0,0,0,0,0,0,0,0,0,0t0,0h0s0,0,0,0c0,0,0,0,0,0,0,0,0,0,0,0,0,0,0,0,0,0,0,0,0,0,0,0,0,0,0,0,0,0,0,0,0,0,0,0,0,0-.02.01-.03.03Z"/><path class="cls-1" d="M174.44,202.33c-.68.12-1.26.85-1.31,1.81-.04.8.37,1.68.97,1.82.59.13,1.21-.33,1.62-.88.39-.53.64-1.37.26-2.03-.34-.6-1.02-.79-1.54-.71ZM175.6,204.02s-.02.06-.02.07c0,.02-.01.03-.02.05-.03.07-.06.14-.09.2-.1.19-.29.41-.46.55-.19.17-.38.29-.61.33.03,0-.08,0-.1,0-.02,0-.04,0-.05,0-.01,0-.01,0-.02,0,0,0,0,0-.01,0-.1-.03-.18-.07-.24-.14-.16-.17-.24-.4-.29-.66-.04-.27.01-.6.16-.87.14-.25.37-.44.59-.48.09-.01.17-.02.26-.01.05,0,.1,0,.15.02,0,0,0,0,.02,0,.03,0,.06.01.09.02.09.03.19.06.28.11.02,0,.03.02.05.03-.05-.03.03.02.03.02.05.03.09.07.13.11.01,0,0,0,.01,0,.02.02.03.04.05.06.01.02.02.03.03.05,0,.01,0,.01.01.01,0,0,0,0,0,.01,0,.02.06.15.04.08,0,.03.01.05.02.08,0,.01,0,.07,0,.07,0,.12,0,.16-.03.28Z"/><path class="cls-1" d="M150.82,429.12s1.57-10.48,4.91-17.53l86.4-133.93c3.76-4.61,13.31-14.69,13.31-14.69,0,0-9.05,6.15-15.61,7.24h-42.43c-2.02-2.21-2.54-6.02-2.54-6.02h-2.79v20.04h2.79s.52-3.82,2.54-6.02h34.87l-81.44,126.23-81.44-126.23h34.86c2.02,2.21,2.54,6.02,2.54,6.02h2.79v-20.04h-2.79s-.52,3.82-2.54,6.02h-42.43c-6.56-1.09-15.61-7.24-15.61-7.24,0,0,9.56,10.1,13.31,14.7l86.39,133.91c3.34,7.05,4.91,17.54,4.91,17.54Z"/><rect class="cls-1" x="123.44" y="313.63" width="54.75" height="4"/></g></svg>