<?xml version="1.0" encoding="UTF-8"?><svg id="Layer_1" xmlns="http://www.w3.org/2000/svg" viewBox="0 0 337.24 309.25"><defs><style>.cls-1{fill:#fff;}</style></defs><g id="Symbol_14"><path class="cls-1" d="M214.35,286.83h-91.45l45.73-70.88,45.72,70.88ZM130.24,282.83h76.77l-38.38-59.5-38.39,59.5Z"/><path class="cls-1" d="M168.62,309.25c-85.26,0-154.63-69.37-154.63-154.63S83.36,0,168.62,0s154.63,69.37,154.63,154.63-69.37,154.63-154.63,154.63ZM168.62,4C85.56,4,17.99,71.57,17.99,154.63s67.57,150.63,150.63,150.63,150.63-67.57,150.63-150.63S251.68,4,168.62,4Z"/><path class="cls-1" d="M336.24,144.67s-.98,6.97-5.52,7.46H6.52c-4.54-.48-5.52-7.46-5.52-7.46H0v19.91h1s.98-6.98,5.52-7.46h324.19c4.54.48,5.52,7.46,5.52,7.46h1v-19.91h-1Z"/><path class="cls-1" d="M219.28,207.81s-1,7.98-5.58,8.83h-90.15c-4.58-.85-5.58-8.83-5.58-8.83h-3.06v23.66h3.06s1-7.98,5.58-8.83h90.15c4.58.85,5.58,8.83,5.58,8.83h3.06v-23.66h-3.06Z"/><path class="cls-1" d="M219.28,174.37s-1,7.98-5.58,8.83h-90.15c-4.58-.85-5.58-8.83-5.58-8.83h-3.06v23.66h3.06s1-7.98,5.58-8.83h90.15c4.58.85,5.58,8.83,5.58,8.83h3.06v-23.66h-3.06Z"/><path class="cls-1" d="M143.11,33.51c0-2.9.49-5.69,1.38-8.28-.08.79-.12,1.6-.12,2.41,0,13.39,10.85,24.24,24.24,24.24,13.39,0,24.24-10.85,24.24-24.24,0-.81-.04-1.62-.12-2.41.89,2.6,1.38,5.38,1.38,8.28,0,14.09-11.42,25.51-25.51,25.51-14.09,0-25.51-11.42-25.51-25.51Z"/><path class="cls-1" d="M186.64,273.91h-36.04c4.83,0,4.83-8.31,0-8.31h36.04c-4.83,0-4.83,8.31,0,8.31Z"/><rect class="cls-1" x="164.62" y="55.95" width="8" height="251.28"/><path class="cls-1" d="M168.62,124.52c-10.81,0-18.78-6.77-21.7-9.67l-2.14-2.13,2.14-2.13c2.92-2.91,10.89-9.67,21.7-9.67s18.78,6.77,21.7,9.67l2.14,2.13-2.14,2.13c-2.92,2.91-10.89,9.67-21.7,9.67ZM153.54,112.72c3.23,2.59,8.55,5.8,15.08,5.8s11.85-3.22,15.08-5.8c-3.23-2.59-8.55-5.8-15.08-5.8s-11.85,3.22-15.08,5.8Z"/><path class="cls-1" d="M223.48,90.93c-12.01,0-21.79,9.77-21.79,21.79s9.77,21.79,21.79,21.79,21.79-9.77,21.79-21.79-9.77-21.79-21.79-21.79ZM241.15,110.72h-15.67v-15.67c8.21.92,14.74,7.46,15.67,15.67ZM221.48,95.05v15.67h-15.67c.92-8.21,7.46-14.74,15.67-15.67ZM205.81,114.72h15.67v15.67c-8.21-.92-14.74-7.46-15.67-15.67ZM225.48,130.38v-15.67h15.67c-.92,8.21-7.46,14.74-15.67,15.67Z"/><path class="cls-1" d="M113.76,90.93c-12.01,0-21.79,9.77-21.79,21.79s9.77,21.79,21.79,21.79,21.79-9.77,21.79-21.79-9.77-21.79-21.79-21.79ZM131.42,110.72h-15.67v-15.67c8.21.92,14.74,7.46,15.67,15.67ZM111.76,95.05v15.67h-15.67c.92-8.21,7.46-14.74,15.67-15.67ZM96.09,114.72h15.67v15.67c-8.21-.92-14.74-7.46-15.67-15.67ZM115.76,130.38v-15.67h15.67c-.92,8.21-7.46,14.74-15.67,15.67Z"/><path class="cls-1" d="M248.59,112.72c2.44,0,8.47,2.02,9.49,4.28.28-2.26,23.47-4.28,23.47-4.28,0,0-23.18-2.02-23.47-4.28-1.02,2.26-7.05,4.28-9.49,4.28Z"/><path class="cls-1" d="M88.65,112.72c-2.44,0-8.47,2.02-9.49,4.28-.28-2.26-23.47-4.28-23.47-4.28,0,0,23.18-2.02,23.47-4.28,1.02,2.26,7.05,4.28,9.49,4.28Z"/><path class="cls-1" d="M91.14,190.65c-1.52-.76-3.64-.56-5.28-.54-3.98.06-8.04.46-11.95,1.17-3.16.57-7.01,1.49-9.04,4.22-2.1,2.81-1.16,6.76,1.64,8.68,1.59,1.1,3.1-1.5,1.51-2.59-.98-.68-1.47-1.95-1.27-3.12.24-1.44,1.6-2.3,2.83-2.86,3.31-1.5,7.18-1.81,10.76-2.16,1.92-.19,3.84-.33,5.76-.34.95,0,1.94-.03,2.88.07,1.04.11,1.04.5,1.27,1.47.65,2.77,1.28,5.63,1.29,8.49-2.22-1.53-5.11-2.17-7.78-2.32-4.17-.25-8.44.8-12.05,2.89-1.78,1.03-3.53,2.33-4.82,3.94-1.15,1.43-2.31,3.8-1.31,5.62.42.77,1.22,1.24,2.11,1.07,1.11-.22,1.84-1.34,2.59-2.08.75-.74,1.53-1.44,2.44-1.98.72-.43,2.42-1.39,3.31-1.14.44.12.97,1.01,1.25,1.38.42.54.82,1.11,1.2,1.68.73,1.11,1.27,2.33,1.99,3.44,1.35,2.07,3.54,2.56,5.84,2.86.59.08,1.34-.52,1.45-1.1.55-3.18,1.05-6.36,1.48-9.56.11-.81-.19-1.6-1.05-1.85-.7-.2-1.74.25-1.85,1.05-.37,2.76-.8,5.51-1.26,8.25-.33-.07-.65-.17-.95-.3-.84-.37-1.18-1.04-1.6-1.82-.94-1.75-2.03-3.4-3.27-4.95-.52-.65-1.08-1.48-1.84-1.86-.79-.39-1.67-.25-2.51-.09-1.59.3-3.07.98-4.4,1.9.47-.39.96-.74,1.4-1.05,2.8-1.93,6.13-3.11,9.53-3.31,3.33-.19,8.11.25,10,3.44.61,1.03,2.51.96,2.74-.36.7-4.01.11-7.95-.78-11.88-.37-1.64-.61-3.53-2.27-4.37Z"/><path class="cls-1" d="M80.37,177.53c-14.07,0-25.52,11.45-25.52,25.52s11.45,25.52,25.52,25.52,25.52-11.45,25.52-25.52-11.45-25.52-25.52-25.52ZM80.37,224.57c-11.87,0-21.52-9.65-21.52-21.52s9.65-21.52,21.52-21.52,21.52,9.65,21.52,21.52c0,3.55-.88,6.89-2.4,9.84.1-3.74.08-7.48-.07-11.21-.08-1.92-3.08-1.93-3,0,.21,5.26.18,10.52-.11,15.78-3.94,4.35-9.61,7.11-15.93,7.11Z"/><path class="cls-1" d="M271.02,196.35c-1.01-1.64-3.61-.14-2.59,1.51,1.31,2.12,1.92,4.93,1.4,7.4-.28,1.29-.87,2.38-1.93,3.21-.39.3-1.18.95-1.68,1.05-.36.07-1.2-.7-1.65-.92-2.04-.99-4-1-5.87-.47.95-.84,1.91-1.67,2.89-2.48.71.08,1.41-.52,1.59-1.26.94-.74,1.89-1.46,2.85-2.16,1.55-1.12.06-3.72-1.51-2.59-.69.5-1.37,1.01-2.04,1.52-.06-.51-.12-1.02-.25-1.52-.37-1.4-1.35-2.65-2.79-3.03-1.63-.43-3.1.43-4.33,1.41-1.3,1.04-2.51,2.21-3.88,3.17-1.27.89-2.73,1.75-4.32,1.8-1.16.03-2.47-.3-2.57-1.64-.2-2.77,2.38-5.38,4.63-6.56,3.34-1.76,7.17-1.57,10.6-.2.75.3,1.65-.33,1.85-1.05.23-.86-.29-1.54-1.05-1.85-6.58-2.64-15.27-.72-18.26,6.24-.74,1.72-1.13,3.72-.26,5.48.74,1.49,2.3,2.26,3.88,2.49,4.01.58,7.4-2.26,10.23-4.69.8-.69,2.73-2.81,3.34-.9.31.98.34,1.97.55,2.91-4.37,3.57-8.44,7.5-12.2,11.73-1.09,1.23.3,3.28,1.82,2.36,3.05-1.86,5.68-4.64,9.03-5.96,1.45-.57,3.1-.82,4.56-.17.79.35,1.38,1.04,2.21,1.3.82.26,1.59.08,2.34-.3,2.82-1.43,4.8-3.71,5.26-6.88.44-3.04-.21-6.33-1.83-8.95Z"/><path class="cls-1" d="M256.87,177.53c-14.07,0-25.52,11.45-25.52,25.52s11.45,25.52,25.52,25.52,25.52-11.45,25.52-25.52-11.45-25.52-25.52-25.52ZM256.87,224.57c-11.87,0-21.52-9.65-21.52-21.52s9.65-21.52,21.52-21.52,21.52,9.65,21.52,21.52-9.65,21.52-21.52,21.52Z"/></g></svg>