<?xml version="1.0" encoding="UTF-8"?><svg id="Layer_1" xmlns="http://www.w3.org/2000/svg" viewBox="0 0 347.21 387.64"><defs><style>.cls-1{fill:#fff;}</style></defs><g id="Symbol_4"><path class="cls-1" d="M196.75,355.83s-.57,4.58-3.2,5.06h-18.34v-18.34c.49-2.63,5.06-3.2,5.06-3.2v-1.76h-13.57v1.76s4.58.57,5.06,3.2v18.34h-18.34c-2.63-.49-3.2-5.06-3.2-5.06h-1.76v13.57h1.76s.57-4.58,3.2-5.06h18.34v18.34c-.49,2.63-5.06,3.2-5.06,3.2v1.76h13.57v-1.76s-4.58-.57-5.06-3.2v-18.34h18.34c2.63.49,3.2,5.06,3.2,5.06h1.76v-13.57h-1.76Z"/><path class="cls-1" d="M223.04,21.44s-.98,6.97-5.53,7.46h-87.81c-4.55-.48-5.53-7.46-5.53-7.46h-1v19.91h1s.98-6.98,5.54-7.46h87.8c4.55.48,5.54,7.46,5.54,7.46h1v-19.91h-1Z"/><path class="cls-1" d="M183.56,1V0h-19.91v1s6.97.98,7.46,5.53v188.72c-.48,4.55-7.46,5.53-7.46,5.53v1h19.91v-1s-6.98-.98-7.46-5.54V6.54c.48-4.55,7.46-5.54,7.46-5.54Z"/><path class="cls-1" d="M273.36,101.45s-.98,6.97-5.53,7.46H79.15c-4.55-.48-5.53-7.46-5.53-7.46h-1v19.91h1s.98-6.98,5.53-7.46h188.68c4.55.48,5.53,7.46,5.53,7.46h1v-19.91h-1Z"/><path class="cls-1" d="M273.36,131.58s-.98,6.97-5.53,7.46H79.15c-4.55-.48-5.53-7.46-5.53-7.46h-1v19.91h1s.98-6.98,5.54-7.46h188.68c4.55.48,5.54,7.46,5.54,7.46h1v-19.91h-1Z"/><path class="cls-1" d="M173.48,101.48l-38.69-59.98h77.38l-38.69,59.98ZM142.13,45.5l31.35,48.6,31.35-48.6h-62.7Z"/><path class="cls-1" d="M173.48,337.6s1.57-10.48,4.91-17.53l86.38-133.9c3.75-4.59,13.33-14.72,13.33-14.72,0,0-9.03,6.13-15.59,7.23H84.45c-6.56-1.1-15.59-7.23-15.59-7.23,0,0,9.58,10.13,13.33,14.72l86.38,133.9c3.34,7.05,4.91,17.53,4.91,17.53ZM254.92,186.68l-81.44,126.24-81.44-126.24h162.87Z"/><path class="cls-1" d="M50.56,146.54c.49,2.63,5.06,3.2,5.06,3.2v1.76s-13.57,0-13.57,0v-1.76s4.58-.57,5.06-3.2v-40.13c-.49-2.63-5.06-3.2-5.06-3.2v-1.76s13.57,0,13.57,0v1.76s-4.58.57-5.06,3.2v40.12Z"/><path class="cls-1" d="M296.42,146.54c-.49,2.63-5.06,3.2-5.06,3.2v1.76h13.57v-1.76s-4.58-.57-5.06-3.2v-40.13c.49-2.63,5.06-3.2,5.06-3.2v-1.76h-13.57v1.76s4.58.57,5.06,3.2v40.12Z"/><path class="cls-1" d="M206.75,234.27s-.57,4.58-3.2,5.06h-28.34v-28.34c.49-2.63,5.06-3.2,5.06-3.2v-1.76h-13.57v1.76s4.58.57,5.06,3.2v28.34h-28.34c-2.63-.49-3.2-5.06-3.2-5.06h-1.76v13.57h1.76s.57-4.58,3.2-5.06h28.34v28.34c-.49,2.63-5.06,3.2-5.06,3.2v1.76h13.57v-1.76s-4.58-.57-5.06-3.2v-28.34h28.34c2.63.49,3.2,5.06,3.2,5.06h1.76v-13.57h-1.76Z"/><path class="cls-1" d="M191.27,231.27c4.41,0,8-3.59,8-8s-3.59-8-8-8-8,3.59-8,8,3.59,8,8,8ZM191.27,219.27c2.21,0,4,1.79,4,4s-1.79,4-4,4-4-1.79-4-4,1.79-4,4-4Z"/><path class="cls-1" d="M155.7,250.84c-4.41,0-8,3.59-8,8s3.59,8,8,8,8-3.59,8-8-3.59-8-8-8ZM155.7,262.84c-2.21,0-4-1.79-4-4s1.79-4,4-4,4,1.79,4,4-1.79,4-4,4Z"/><path class="cls-1" d="M191.27,250.84c-4.41,0-8,3.59-8,8s3.59,8,8,8,8-3.59,8-8-3.59-8-8-8ZM191.27,262.84c-2.21,0-4-1.79-4-4s1.79-4,4-4,4,1.79,4,4-1.79,4-4,4Z"/><path class="cls-1" d="M155.7,231.27c4.41,0,8-3.59,8-8s-3.59-8-8-8-8,3.59-8,8,3.59,8,8,8ZM155.7,219.27c2.21,0,4,1.79,4,4s-1.79,4-4,4-4-1.79-4-4,1.79-4,4-4Z"/><path class="cls-1" d="M240.13,347.87c-1.33-35.62-30.71-64.2-66.65-64.2s-65.33,28.58-66.65,64.21c-.44,7.03-1.81,16.57,1.84,24.91,3.77,8.62,7.85,12.85,7.85,12.85,0,0-4.34-22.68,6.83-27.14-7.23-.31-10.43-5.26-10.57-8.65.29-33.23,27.4-60.18,60.7-60.18s60.41,26.95,60.7,60.19c-.15,3.39-3.35,8.33-10.57,8.64,11.17,4.47,6.83,27.14,6.83,27.14,0,0,4.09-4.23,7.85-12.85,3.65-8.35,2.28-17.9,1.84-24.93Z"/><path class="cls-1" d="M77.81,273.53c-.96.02-1.92.01-2.88.02-.05-2.35-.06-4.7.01-7.05.06-1.93-2.94-1.93-3,0-.07,2.36-.06,4.71,0,7.06-.93,0-1.87-.01-2.8-.02-.1-3.39-.08-6.79.09-10.18.09-1.93-2.91-1.93-3,0-.16,3.37-.19,6.75-.09,10.12-.76-.02-1.52-.02-2.27-.04-.56-.02-1.75.15-2.11-.41-.4-.62-.32-1.86-.36-2.55-.15-2.28-.06-4.58.31-6.83.13-.8-.21-1.61-1.05-1.85-.72-.2-1.71.24-1.85,1.05-.43,2.64-.6,5.3-.39,7.96,0,.08.01.16.02.24-.62-.47-1.31-.86-2.07-1.15-2.83-1.11-6.07-.54-8.62,1.01-1.31.8-2.78,1.9-3.36,3.36-.68,1.71.15,3.44,1.86,4.04,1.74.62,3.74.84,5.56,1.12,1.99.3,3.99.51,6,.63.17.01.32-.01.46-.05-.46,1.61-1.27,3.14-2.03,4.58-.9,1.71,1.69,3.23,2.59,1.51,1.52-2.9,3.08-6.02,2.74-9.4-.02-.17-.06-.33-.08-.5.08.02.15.04.24.06,1.21.23,2.49.18,3.72.21.28,0,.57,0,.85.02.13,2.56.32,5.11.6,7.66.09.81.62,1.49,1.5,1.5.74,0,1.59-.7,1.5-1.5-.28-2.53-.47-5.07-.6-7.61.05,0,.1,0,.16,0,.87,0,1.73,0,2.6,0,.11,2.42.27,4.83.51,7.24.08.81.63,1.5,1.5,1.5.75,0,1.58-.69,1.5-1.5-.24-2.41-.4-4.83-.51-7.25.92,0,1.85-.01,2.77-.03,1.93-.04,1.93-3.04,0-3ZM49.82,276.06c-.64-.13-1.29-.26-1.93-.41-.21-.05-.54-.09-.76-.18.25-.81,1.33-1.47,2.02-1.9,1.77-1.1,3.88-1.6,5.91-.95,1.88.6,3.23,2.14,3.49,4.11.03.21.03.42.04.62-.21-.15-.48-.26-.8-.28-2.68-.16-5.34-.49-7.97-1Z"/><path class="cls-1" d="M63.28,249.64c-14.07,0-25.52,11.45-25.52,25.52s11.45,25.52,25.52,25.52,25.52-11.45,25.52-25.52-11.45-25.52-25.52-25.52ZM63.28,296.67c-11.87,0-21.52-9.65-21.52-21.52s9.65-21.52,21.52-21.52,21.52,9.65,21.52,21.52-9.65,21.52-21.52,21.52Z"/><path class="cls-1" d="M341.47,274.94c-.12-31.77-25.99-57.58-57.79-57.58s-57.79,25.93-57.79,57.79,25.81,57.67,57.58,57.79c2.2,1.77,2.74,5.73,2.74,5.73h2.43v-17.46h-2.43s-.54,3.95-2.72,5.72c-28.47-.11-51.59-23.3-51.59-51.79s23.24-51.79,51.79-51.79,51.68,23.13,51.79,51.59c-1.78,2.19-5.72,2.72-5.72,2.72v2.43h17.46s0-2.43,0-2.43c0,0-3.96-.54-5.73-2.74Z"/><path class="cls-1" d="M121.08,275.16c0-31.87-25.93-57.79-57.79-57.79s-57.79,25.93-57.79,57.79h.08c-1.84,2.03-5.57,2.52-5.57,2.52v2.43h17.46v-2.43s-4.32-.58-5.96-3.02c.27-28.33,23.39-51.3,51.78-51.3s51.79,23.24,51.79,51.79-23.13,51.68-51.59,51.79c-2.19-1.78-2.72-5.72-2.72-5.72h-2.43v17.46h2.43s.54-3.96,2.74-5.73c31.77-.12,57.58-25.99,57.58-57.79Z"/><path class="cls-1" d="M300.22,271.59c-2.43-1.84-5.6-2.75-8.6-2.02-1.12.27-2.17.78-3.08,1.46,0-.02,0-.04,0-.05.23-2.72.06-5.44-.38-8.13-.13-.8-1.12-1.25-1.85-1.05-.85.23-1.18,1.04-1.05,1.85.36,2.2.46,4.44.32,6.66-.05.75.05,2.06-.37,2.72-.36.56-1.54.39-2.11.41-.76.02-1.52.02-2.27.04.1-3.37.07-6.75-.09-10.12-.09-1.92-3.09-1.93-3,0,.16,3.39.19,6.79.09,10.18-.93.01-1.87.02-2.8.02.05-2.35.06-4.71,0-7.06-.06-1.93-3.06-1.93-3,0,.07,2.35.06,4.7.01,7.05-.96,0-1.92,0-2.88-.02-1.93-.04-1.93,2.96,0,3,.92.02,1.85.02,2.77.03-.11,2.42-.27,4.84-.51,7.25-.08.81.75,1.5,1.5,1.5.88,0,1.42-.69,1.5-1.5.24-2.41.4-4.83.51-7.24.81,0,1.61,0,2.42,0,.11,0,.22,0,.33,0-.14,2.54-.32,5.08-.6,7.61-.09.81.75,1.49,1.5,1.5.89,0,1.41-.7,1.5-1.5.29-2.55.47-5.1.61-7.66.23,0,.45,0,.68-.01,1.29-.03,2.62.02,3.89-.21.08-.01.14-.05.21-.06-.51,3.51,1.08,6.84,2.68,9.9.9,1.71,3.49.2,2.59-1.51-.76-1.46-1.57-2.98-2.02-4.58.14.03.29.05.46.04,3.5-.21,7-.69,10.42-1.46.7-.16,1.42-.31,2.02-.72.79-.55,1.23-1.45,1.22-2.4,0-1.71-1.37-2.93-2.62-3.89ZM298.25,275.83c-2.99.64-6.02,1.05-9.07,1.23-.32.02-.58.12-.8.28.09-1.97,1.06-3.62,2.9-4.49,1.8-.86,3.95-.64,5.7.24.94.47,2.03,1.13,2.68,2,.15.2.13.35.19.37-.4.24-1.17.29-1.59.38Z"/><path class="cls-1" d="M283.68,249.64c-14.07,0-25.52,11.45-25.52,25.52s11.45,25.52,25.52,25.52,25.52-11.45,25.52-25.52-11.45-25.52-25.52-25.52ZM283.68,296.67c-11.87,0-21.52-9.65-21.52-21.52s9.65-21.52,21.52-21.52,21.52,9.65,21.52,21.52-9.65,21.52-21.52,21.52Z"/></g></svg>