<?xml version="1.0" encoding="UTF-8"?><svg id="Layer_1" xmlns="http://www.w3.org/2000/svg" viewBox="0 0 290.04 360.44"><defs><style>.cls-1{fill:#fff;}</style></defs><g id="Symbol_2"><path class="cls-1" d="M124.96,62.19c-2.63-.49-3.2-5.06-3.2-5.06h-1.76s0,13.57,0,13.57h1.76s.57-4.58,3.2-5.06h40.13c2.63.49,3.2,5.06,3.2,5.06h1.76s0-13.57,0-13.57h-1.76s-.57,4.58-3.2,5.06h-40.12Z"/><path class="cls-1" d="M17.61,72.19c-2.63-.49-3.2-5.06-3.2-5.06h-1.76s0,13.57,0,13.57h1.76s.57-4.58,3.2-5.06h40.13c2.63.49,3.2,5.06,3.2,5.06h1.76s0-13.57,0-13.57h-1.76s-.57,4.58-3.2,5.06H17.61Z"/><path class="cls-1" d="M17.61,91.84c-2.63-.49-3.2-5.06-3.2-5.06h-1.76s0,13.57,0,13.57h1.76s.57-4.58,3.2-5.06h40.13c2.63.49,3.2,5.06,3.2,5.06h1.76s0-13.57,0-13.57h-1.76s-.57,4.58-3.2,5.06H17.61Z"/><path class="cls-1" d="M17.61,111.49c-2.63-.49-3.2-5.06-3.2-5.06h-1.76s0,13.57,0,13.57h1.76s.57-4.58,3.2-5.06h40.13c2.63.49,3.2,5.06,3.2,5.06h1.76s0-13.57,0-13.57h-1.76s-.57,4.58-3.2,5.06H17.61Z"/><path class="cls-1" d="M272.44,72.19c2.63-.49,3.2-5.06,3.2-5.06h1.76s0,13.57,0,13.57h-1.76s-.57-4.58-3.2-5.06h-40.13c-2.63.49-3.2,5.06-3.2,5.06h-1.76s0-13.57,0-13.57h1.76s.57,4.58,3.2,5.06h40.12Z"/><path class="cls-1" d="M272.44,91.84c2.63-.49,3.2-5.06,3.2-5.06h1.76s0,13.57,0,13.57h-1.76s-.57-4.58-3.2-5.06h-40.13c-2.63.49-3.2,5.06-3.2,5.06h-1.76s0-13.57,0-13.57h1.76s.57,4.58,3.2,5.06h40.12Z"/><path class="cls-1" d="M272.44,111.49c2.63-.49,3.2-5.06,3.2-5.06h1.76s0,13.57,0,13.57h-1.76s-.57-4.58-3.2-5.06h-40.13c-2.63.49-3.2,5.06-3.2,5.06h-1.76s0-13.57,0-13.57h1.76s.57,4.58,3.2,5.06h40.12Z"/><path class="cls-1" d="M4.96,37.64c-2.63-.49-3.2-5.06-3.2-5.06H0s0,13.57,0,13.57h1.76s.57-4.58,3.2-5.06h280.13c2.63.49,3.2,5.06,3.2,5.06h1.76s0-13.57,0-13.57h-1.76s-.57,4.58-3.2,5.06H4.96Z"/><path class="cls-1" d="M4.96,341.47c-2.63-.49-3.2-5.06-3.2-5.06H0s0,13.57,0,13.57h1.76s.57-4.58,3.2-5.06h280.13c2.63.49,3.2,5.06,3.2,5.06h1.76s0-13.57,0-13.57h-1.76s-.57,4.58-3.2,5.06H4.96Z"/><path class="cls-1" d="M146.74,4.96c.49-2.63,5.06-3.2,5.06-3.2V0s-13.57,0-13.57,0v1.76s4.58.57,5.06,3.2v70.6s3.44,0,3.44,0V4.96Z"/><path class="cls-1" d="M147.11,285.13l-.37-.37v-17.57c.49-2.63,5.06-3.2,5.06-3.2v-1.76h-13.57v1.76s4.58.57,5.06,3.2v17.5l-.44.44c-4.92,4.95-16.36,18.41-16.36,36.58s11.44,31.64,16.36,36.58l2.13,2.14,2.13-2.14c4.92-4.95,16.36-18.41,16.36-36.58s-11.44-31.64-16.36-36.58ZM144.99,351.79c-4.91-5.56-12.49-16.36-12.49-30.08,0-12.23,6.02-22.13,10.8-28.07v13.67c-.49,2.63-5.06,3.2-5.06,3.2v1.76h13.57v-1.76s-4.58-.57-5.06-3.2v-13.58c4.77,5.95,10.73,15.82,10.73,27.99,0,13.72-7.58,24.52-12.49,30.08Z"/><path class="cls-1" d="M77.48,254.52h7.53s0-27.11,0-27.11c0,0-6.71,5.74-15.7,6.47-5.9.48-13.54-1.42-18.24-5.75-7.39-6.82-12.02-16.58-12.02-27.42,0-10.85,4.63-20.61,12.02-27.42,4.7-4.34,12.34-6.23,18.24-5.75,8.99.73,15.7,6.47,15.7,6.47v-27.11s-7.53,0-7.53,0v15.9c-.28-.08-7.02-1.34-10.16-1.34-21.68,0-36.25,17.58-36.25,39.26,0,21.68,14.57,39.26,36.25,39.26,3.13,0,9.88-1.27,10.16-1.34v15.9Z"/><path class="cls-1" d="M212.48,254.52h-7.53s0-27.11,0-27.11c0,0,6.71,5.74,15.7,6.47,5.9.48,13.54-1.42,18.24-5.75,7.39-6.82,12.02-16.58,12.02-27.42,0-10.85-4.63-20.61-12.02-27.42-4.7-4.34-12.34-6.23-18.24-5.75-8.99.73-15.7,6.47-15.7,6.47v-27.11s7.53,0,7.53,0v15.9c.28-.08,7.02-1.34,10.16-1.34,21.68,0,36.25,17.58,36.25,39.26,0,21.68-14.57,39.26-36.25,39.26-3.13,0-9.88-1.27-10.16-1.34v15.9Z"/><path class="cls-1" d="M284.24,188.7s-1.26,8.55-7.1,9h-106.62c-1.49-12.75-12.35-22.68-25.5-22.68s-24.01,9.93-25.5,22.68H12.9c-5.84-.45-7.1-9-7.1-9h-3.63v24h3.63s1.26-8.54,7.1-9h106.63c1.49,12.75,12.35,22.67,25.49,22.67s24-9.92,25.49-22.67h106.63c5.84.46,7.1,9,7.1,9h3.63v-24h-3.63ZM145.02,220.37c-10.85,0-19.68-8.83-19.68-19.68s8.83-19.68,19.68-19.68,19.68,8.83,19.68,19.68-8.83,19.68-19.68,19.68Z"/><path class="cls-1" d="M181.55,103.33s-1,8.89-5.59,9.83h-13.01c-.93-8.36-7.58-15.01-15.94-15.94v-13.01c.94-4.59,9.83-5.59,9.83-5.59v-3.06h-23.66v3.06s8.89,1,9.83,5.59v13.01c-8.36.93-15.01,7.58-15.94,15.94h-13.01c-4.59-.94-5.59-9.83-5.59-9.83h-3.06v23.66h3.06s1-8.89,5.59-9.83h13.01c.93,8.36,7.58,15.01,15.94,15.94v13.01c-.94,4.59-9.83,5.59-9.83,5.59v3.06h23.66v-3.06s-8.89-1-9.83-5.59v-13.01c8.36-.93,15.01-7.58,15.94-15.94h13.01c4.59.94,5.59,9.83,5.59,9.83h3.06v-23.66h-3.06ZM158.92,113.16h-11.89v-11.89c6.15.88,11.01,5.75,11.89,11.89ZM143.02,101.27v11.89h-11.89c.88-6.15,5.75-11.01,11.89-11.89ZM131.13,117.16h11.89v11.89c-6.15-.88-11.01-5.75-11.89-11.89ZM147.02,129.05v-11.89h11.89c-.88,6.15-5.75,11.01-11.89,11.89Z"/><rect class="cls-1" x="143.02" y="154.75" width="4" height="23.27"/><path class="cls-1" d="M63.76,336.4s8.04-5.46,13.16-5.73h136.19c5.12.27,13.16,5.73,13.16,5.73,0,0-9.06-9.58-11.09-12.39l-65.91-102.17c-2.89-5.43-4.25-14.49-4.25-14.49,0,0-1.36,9.06-4.25,14.49l-65.91,102.17c-2.03,2.81-11.1,12.39-11.1,12.39ZM145.02,226.32l63.45,98.35h-126.9l63.45-98.35Z"/><path class="cls-1" d="M267.44,251.14c-4.44,0-9.96,0-9.96,0v-1s7.5-1.04,7.5-6.02,4.91-4.98,4.91,0c0,4.98,7.5,6.02,7.5,6.02v1h-9.96Z"/><path class="cls-1" d="M267.44,150.26c-4.44,0-9.96,0-9.96,0v1s7.5,1.04,7.5,6.02c0,4.98,4.91,4.98,4.91,0,0-4.98,7.5-6.02,7.5-6.02v-1s-5.52,0-9.96,0Z"/><rect class="cls-1" x="264.94" y="150.38" width="5" height="100.64"/><path class="cls-1" d="M22.61,251.14c4.44,0,9.96,0,9.96,0v-1s-7.5-1.04-7.5-6.02c0-4.98-4.91-4.98-4.91,0,0,4.98-7.5,6.02-7.5,6.02v1s5.52,0,9.96,0Z"/><path class="cls-1" d="M22.61,150.26c4.44,0,9.96,0,9.96,0v1s-7.5,1.04-7.5,6.02c0,4.98-4.91,4.98-4.91,0,0-4.98-7.5-6.02-7.5-6.02v-1s5.52,0,9.96,0Z"/><rect class="cls-1" x="20.11" y="150.38" width="5" height="100.64"/><path class="cls-1" d="M114.74,291.3s-.98,6.97-5.53,7.46h-62.55c-.89-7.35-5.48-12.73-7.57-14.83l-1.42-1.43-1.42,1.43c-2.1,2.11-6.68,7.49-7.57,14.83h-7.28c-4.55-.48-5.53-7.46-5.53-7.46h-1v19.91h1s.98-6.98,5.54-7.46h7.28c.89,7.34,5.48,12.73,7.57,14.83l1.42,1.43,1.42-1.43c2.1-2.11,6.68-7.49,7.57-14.83h62.54c4.55.48,5.54,7.46,5.54,7.46h1v-19.91h-1ZM37.67,288.3c1.86,2.23,4.28,5.89,4.96,10.46h-9.92c.69-4.56,3.1-8.23,4.96-10.46ZM37.67,314.21c-1.86-2.23-4.28-5.89-4.96-10.46h9.92c-.69,4.56-3.1,8.23-4.96,10.46Z"/><path class="cls-1" d="M274.11,291.3s-.98,6.97-5.53,7.46h-7.28c-.89-7.35-5.48-12.73-7.57-14.83l-1.42-1.43-1.42,1.43c-2.1,2.11-6.68,7.49-7.57,14.83h-62.55c-4.55-.48-5.53-7.46-5.53-7.46h-1v19.91h1s.98-6.98,5.54-7.46h62.55c.89,7.34,5.48,12.73,7.57,14.83l1.42,1.43,1.42-1.43c2.1-2.11,6.68-7.49,7.57-14.83h7.28c4.55.48,5.54,7.46,5.54,7.46h1v-19.91h-1ZM252.3,288.3c1.86,2.23,4.28,5.89,4.96,10.46h-9.92c.69-4.56,3.1-8.23,4.96-10.46ZM252.3,314.21c-1.86-2.23-4.28-5.89-4.96-10.46h9.92c-.69,4.56-3.1,8.23-4.96,10.46Z"/><path class="cls-1" d="M116.22,69.96c-1.16.79-2.56,1.24-4.07,1.24-4.02,0-7.29-3.26-7.29-7.29s3.26-7.29,7.29-7.29c1.51,0,2.91.46,4.07,1.24-1.82-2.37-4.67-3.9-7.89-3.9-5.49,0-9.94,4.45-9.94,9.94s4.45,9.94,9.94,9.94c3.22,0,6.07-1.53,7.89-3.9Z"/><path class="cls-1" d="M173.82,69.96c1.16.79,2.56,1.24,4.07,1.24,4.02,0,7.29-3.26,7.29-7.29,0-4.02-3.26-7.29-7.29-7.29-1.51,0-2.91.46-4.07,1.24,1.82-2.37,4.67-3.9,7.89-3.9,5.49,0,9.94,4.45,9.94,9.94,0,5.49-4.45,9.94-9.94,9.94-3.22,0-6.07-1.53-7.89-3.9Z"/><path class="cls-1" d="M81.41,71.67c0,7.23,1.22,14.17,3.45,20.65-.2-1.98-.3-3.98-.3-6.01,0-33.37,27.05-60.43,60.43-60.43s60.43,27.05,60.43,60.43c0,2.03-.1,4.03-.3,6.01,2.22-6.48,3.45-13.42,3.45-20.65,0-35.11-28.46-63.57-63.57-63.57s-63.57,28.46-63.57,63.57Z"/><path class="cls-1" d="M85.01,94.19c0,2.06-4.1,7.13-8.69,7.99,4.59.24,8.69,19.75,8.69,19.75,0,0,4.1-19.52,8.69-19.75-4.59-.86-8.69-5.93-8.69-7.99Z"/><path class="cls-1" d="M205.03,94.19c0,2.06,4.1,7.13,8.69,7.99-4.59.24-8.69,19.75-8.69,19.75,0,0-4.1-19.52-8.69-19.75,4.59-.86,8.69-5.93,8.69-7.99Z"/></g></svg>