<?xml version="1.0" encoding="UTF-8"?><svg id="Layer_1" xmlns="http://www.w3.org/2000/svg" viewBox="0 0 345.71 345.71"><defs><style>.cls-1{fill:#fff;}</style></defs><g id="Symbol_12"><path class="cls-1" d="M272.4,139.22c-3.81,0-7.47.65-10.89,1.82,1.04-.1,2.1-.16,3.17-.16,17.59,0,31.86,14.26,31.86,31.86,0,17.59-14.26,31.86-31.86,31.86-1.07,0-2.13-.05-3.17-.16,3.41,1.17,7.07,1.82,10.89,1.82,18.51,0,33.52-15.01,33.52-33.52,0-18.51-15.01-33.52-33.52-33.52Z"/><path class="cls-1" d="M260.13,153.38c-2.2,0-4.32.37-6.29,1.05.6-.06,1.21-.09,1.83-.09,10.16,0,18.4,8.24,18.4,18.4,0,10.16-8.24,18.4-18.4,18.4-.62,0-1.23-.03-1.83-.09,1.97.68,4.09,1.05,6.29,1.05,10.69,0,19.36-8.67,19.36-19.36,0-10.69-8.67-19.36-19.36-19.36Z"/><path class="cls-1" d="M160.85,0v3.63s8.52,1.25,9,7.07v135.03h6V10.76c.43-5.86,9-7.12,9-7.12V0h-24Z"/><path class="cls-1" d="M175.85,334.95v-135.21h-6v135.26c-.48,5.82-9,7.07-9,7.07v3.63h24v-3.63s-8.57-1.26-9-7.12Z"/><path class="cls-1" d="M345.71,160.85h-3.63s-1.25,8.52-7.07,9h-135.03s0,6,0,6h134.98c5.86.43,7.12,9,7.12,9h3.63s0-24,0-24Z"/><path class="cls-1" d="M10.76,175.85h135.21s0-6,0-6H10.71c-5.82-.48-7.07-9-7.07-9H0s0,24,0,24h3.63s1.26-8.57,7.12-9Z"/><path class="cls-1" d="M120.81,294.52c14.86,0,31.49,2.38,31.49,6.04,0-3.66,12.12-6.04,20.42-6.04-8.3,0-20.42-2.38-20.42-6.04,0,3.66-16.63,6.04-31.49,6.04Z"/><path class="cls-1" d="M224.9,294.52c-14.86,0-31.49,2.38-31.49,6.04,0-3.66-12.12-6.04-20.42-6.04,8.3,0,20.42-2.38,20.42-6.04,0,3.66,16.63,6.04,31.49,6.04Z"/><path class="cls-1" d="M207.74,261.24s-.98,6.98-5.53,7.46h-58.68c-4.55-.48-5.53-7.46-5.53-7.46h-1v19.91h1s.98-6.98,5.53-7.46h58.68c4.55.48,5.53,7.46,5.53,7.46h1v-19.91h-1Z"/><path class="cls-1" d="M246.83,246.8s-4.37-6.13-5.29-14.19v-119.34c.92-8.06,5.29-14.19,5.29-14.19,0,0-6.12,4.37-14.18,5.29h-119.35c-8.06-.92-14.18-5.29-14.18-5.29,0,0,4.37,6.13,5.29,14.19v119.34c-.92,8.06-5.29,14.19-5.29,14.19,0,0,6.13-4.37,14.18-5.29h119.35c8.06.92,14.18,5.29,14.18,5.29ZM108.41,108.37h129.14v129.14H108.41V108.37Z"/><path class="cls-1" d="M90.78,172.73c0-12.39-9.44-22.62-21.5-23.87v-5.47c.48-4.55,7.46-5.53,7.46-5.53v-1h-19.92v1s6.98.98,7.46,5.53v5.47c-12.06,1.25-21.5,11.48-21.5,23.87s9.44,22.62,21.5,23.87v5.47c-.48,4.55-7.46,5.53-7.46,5.53v1h19.92v-1s-6.98-.98-7.46-5.53v-5.47c12.06-1.25,21.5-11.48,21.5-23.87ZM86.78,172.73c0,10.18-7.65,18.59-17.5,19.83v-39.65c9.85,1.24,17.5,9.65,17.5,19.83ZM46.78,172.73c0-10.18,7.65-18.59,17.5-19.83v39.65c-9.85-1.24-17.5-9.65-17.5-19.83Z"/><path class="cls-1" d="M172.85,201.73c-15.99,0-29-13.01-29-29s13.01-29,29-29,29,13.01,29,29-13.01,29-29,29ZM172.85,147.73c-13.79,0-25,11.21-25,25s11.21,25,25,25,25-11.21,25-25-11.21-25-25-25Z"/><path class="cls-1" d="M172.85,327.18c-85.16,0-154.44-69.28-154.44-154.44S87.69,18.29,172.85,18.29s154.44,69.28,154.44,154.44-69.28,154.44-154.44,154.44ZM172.85,22.29C89.9,22.29,22.41,89.78,22.41,172.73s67.49,150.44,150.44,150.44,150.44-67.49,150.44-150.44S255.81,22.29,172.85,22.29Z"/><path class="cls-1" d="M155.62,71.08c-9.92,0-18-8.07-18-18s8.08-18,18-18,18,8.07,18,18-8.08,18-18,18ZM155.62,39.08c-7.72,0-14,6.28-14,14s6.28,14,14,14,14-6.28,14-14-6.28-14-14-14Z"/><path class="cls-1" d="M190.09,71.08c-9.92,0-18-8.07-18-18s8.08-18,18-18,18,8.07,18,18-8.08,18-18,18ZM190.09,39.08c-7.72,0-14,6.28-14,14s6.28,14,14,14,14-6.28,14-14-6.28-14-14-14Z"/><path class="cls-1" d="M238.29,162.44v-9.14h-32.89s6.96,8.15,7.85,19.05c.58,7.16-1.72,16.43-6.98,22.14-8.27,8.97-20.12,14.59-33.28,14.59s-25.01-5.62-33.28-14.58c-5.26-5.71-7.57-14.98-6.98-22.14.89-10.91,7.85-19.05,7.85-19.05h-32.89v9.14h19.3c-.09.34-1.63,8.52-1.63,12.32,0,26.31,21.33,47.64,47.64,47.64s47.64-21.33,47.64-47.64c0-3.8-1.54-11.98-1.63-12.32h19.3Z"/><path class="cls-1" d="M121.46,277.65c-4.56-4.57-11.69-4.99-16.74-1.29l-10.84-10.84,5.7-5.7c2.2-1.51,5.84,1.32,5.84,1.32l1.24-1.24-9.59-9.59-1.24,1.24s2.83,3.64,1.32,5.84l-5.7,5.7-10.07-10.07,5.7-5.7c2.2-1.51,5.84,1.32,5.84,1.32l1.24-1.24-9.59-9.59-1.24,1.24s2.83,3.64,1.32,5.84l-5.7,5.7-10.07-10.07,5.7-5.7c2.2-1.51,5.84,1.32,5.84,1.32l1.24-1.24-9.59-9.59-1.24,1.24s2.83,3.64,1.32,5.84l-14.23,14.23c-2.2,1.52-5.84-1.32-5.84-1.32l-1.24,1.24,9.59,9.59,1.24-1.24s-2.83-3.64-1.32-5.84l5.7-5.7,10.07,10.07-5.7,5.7c-2.2,1.52-5.84-1.32-5.84-1.32l-1.24,1.24,9.59,9.59,1.24-1.24s-2.83-3.64-1.32-5.84l5.7-5.7,10.07,10.07-5.7,5.7c-2.2,1.52-5.85-1.32-5.85-1.32l-1.24,1.24,9.59,9.59,1.24-1.24s-2.83-3.64-1.32-5.84l5.7-5.7,10.84,10.84c-3.69,5.06-3.27,12.18,1.29,16.74,1.04,1.04,2.21,1.86,3.46,2.47-.31-.26-.62-.53-.91-.82-4.8-4.8-4.8-12.57,0-17.37,4.8-4.8,12.57-4.8,17.37,0,.29.29.56.59.82.91-.61-1.25-1.43-2.42-2.47-3.46Z"/><path class="cls-1" d="M224.25,277.65c4.56-4.57,11.69-4.99,16.74-1.29l10.84-10.84-5.7-5.7c-2.2-1.51-5.84,1.32-5.84,1.32l-1.24-1.24,9.59-9.59,1.24,1.24s-2.83,3.64-1.32,5.84l5.7,5.7,10.07-10.07-5.7-5.7c-2.2-1.51-5.84,1.32-5.84,1.32l-1.24-1.24,9.59-9.59,1.24,1.24s-2.83,3.64-1.32,5.84l5.7,5.7,10.07-10.07-5.7-5.7c-2.2-1.51-5.84,1.32-5.84,1.32l-1.24-1.24,9.59-9.59,1.24,1.24s-2.83,3.64-1.32,5.84l14.23,14.23c2.2,1.52,5.84-1.32,5.84-1.32l1.24,1.24-9.59,9.59-1.24-1.24s2.83-3.64,1.32-5.84l-5.7-5.7-10.07,10.07,5.7,5.7c2.2,1.52,5.84-1.32,5.84-1.32l1.24,1.24-9.59,9.59-1.24-1.24s2.83-3.64,1.32-5.84l-5.7-5.7-10.07,10.07,5.7,5.7c2.2,1.52,5.85-1.32,5.85-1.32l1.24,1.24-9.59,9.59-1.24-1.24s2.83-3.64,1.32-5.84l-5.7-5.7-10.84,10.84c3.69,5.06,3.27,12.18-1.29,16.74-1.04,1.04-2.21,1.86-3.46,2.47.31-.26.62-.53.91-.82,4.8-4.8,4.8-12.57,0-17.37-4.8-4.8-12.57-4.8-17.37,0-.29.29-.56.59-.82.91.61-1.25,1.43-2.42,2.47-3.46Z"/><path class="cls-1" d="M121.46,67.82c-4.56,4.57-11.69,4.99-16.74,1.29l-10.84,10.84,5.7,5.7c2.2,1.51,5.84-1.32,5.84-1.32l1.24,1.24-9.59,9.59-1.24-1.24s2.83-3.64,1.32-5.84l-5.7-5.7-10.07,10.07,5.7,5.7c2.2,1.51,5.84-1.32,5.84-1.32l1.24,1.24-9.59,9.59-1.24-1.24s2.83-3.64,1.32-5.84l-5.7-5.7-10.07,10.07,5.7,5.7c2.2,1.51,5.84-1.32,5.84-1.32l1.24,1.24-9.59,9.59-1.24-1.24s2.83-3.64,1.32-5.84l-14.23-14.23c-2.2-1.52-5.84,1.32-5.84,1.32l-1.24-1.24,9.59-9.59,1.24,1.24s-2.83,3.64-1.32,5.84l5.7,5.7,10.07-10.07-5.7-5.7c-2.2-1.52-5.84,1.32-5.84,1.32l-1.24-1.24,9.59-9.59,1.24,1.24s-2.83,3.64-1.32,5.84l5.7,5.7,10.07-10.07-5.7-5.7c-2.2-1.52-5.85,1.32-5.85,1.32l-1.24-1.24,9.59-9.59,1.24,1.24s-2.83,3.64-1.32,5.84l5.7,5.7,10.84-10.84c-3.69-5.06-3.27-12.18,1.29-16.74,1.04-1.04,2.21-1.86,3.46-2.47-.31.26-.62.53-.91.82-4.8,4.8-4.8,12.57,0,17.37,4.8,4.8,12.57,4.8,17.37,0,.29-.29.56-.59.82-.91-.61,1.25-1.43,2.42-2.47,3.46Z"/><path class="cls-1" d="M224.25,67.82c4.56,4.57,11.69,4.99,16.74,1.29l10.84,10.84-5.7,5.7c-2.2,1.51-5.84-1.32-5.84-1.32l-1.24,1.24,9.59,9.59,1.24-1.24s-2.83-3.64-1.32-5.84l5.7-5.7,10.07,10.07-5.7,5.7c-2.2,1.51-5.84-1.32-5.84-1.32l-1.24,1.24,9.59,9.59,1.24-1.24s-2.83-3.64-1.32-5.84l5.7-5.7,10.07,10.07-5.7,5.7c-2.2,1.51-5.84-1.32-5.84-1.32l-1.24,1.24,9.59,9.59,1.24-1.24s-2.83-3.64-1.32-5.84l14.23-14.23c2.2-1.52,5.84,1.32,5.84,1.32l1.24-1.24-9.59-9.59-1.24,1.24s2.83,3.64,1.32,5.84l-5.7,5.7-10.07-10.07,5.7-5.7c2.2-1.52,5.84,1.32,5.84,1.32l1.24-1.24-9.59-9.59-1.24,1.24s2.83,3.64,1.32,5.84l-5.7,5.7-10.07-10.07,5.7-5.7c2.2-1.52,5.85,1.32,5.85,1.32l1.24-1.24-9.59-9.59-1.24,1.24s2.83,3.64,1.32,5.84l-5.7,5.7-10.84-10.84c3.69-5.06,3.27-12.18-1.29-16.74-1.04-1.04-2.21-1.86-3.46-2.47.31.26.62.53.91.82,4.8,4.8,4.8,12.57,0,17.37-4.8,4.8-12.57,4.8-17.37,0-.29-.29-.56-.59-.82-.91.61,1.25,1.43,2.42,2.47,3.46Z"/><path class="cls-1" d="M177.05,172.85c0-4.11-1.88-7.45-4.19-7.45s-4.19,3.33-4.19,7.45c0,4.11,1.88,7.45,4.19,7.45s4.19-3.33,4.19-7.45Z"/><path class="cls-1" d="M144.24,172.85c1.89,0,7.11,4.45,7.11,4.45,3.37,2.75,8.56,6.13,15.07,7.58,5.74,3.19,6.43,11.58,6.43,11.58,0,0,.69-8.39,6.43-11.58,6.51-1.45,11.7-4.82,15.07-7.58,0,0,5.23-4.45,7.11-4.45-1.89,0-7.11-4.45-7.11-4.45-3.37-2.75-8.56-6.13-15.07-7.58-5.74-3.19-6.43-11.58-6.43-11.58,0,0-.69,8.39-6.43,11.58-6.51,1.45-11.7,4.83-15.07,7.58,0,0-5.23,4.45-7.11,4.45ZM172.85,165.3c8.36,0,15.05,4.41,18.76,7.56-3.71,3.15-10.39,7.56-18.76,7.56-8.36,0-15.05-4.41-18.76-7.56,3.71-3.15,10.39-7.56,18.76-7.56Z"/></g></svg>