<?xml version="1.0" encoding="UTF-8"?><svg id="Layer_1" xmlns="http://www.w3.org/2000/svg" viewBox="0 0 300.26 373.95"><defs><style>.cls-1{fill:#fff;}</style></defs><g id="Symbol_1"><path class="cls-1" d="M162.25,51.87v-3.63h-24v3.63s8.55,1.26,9,7.1v304.24c-.45,5.84-9,7.1-9,7.1v3.63h24v-3.63s-8.54-1.26-9-7.1V58.97c.46-5.84,9-7.1,9-7.1Z"/><path class="cls-1" d="M289.47,224.09s-1.26,8.54-7.1,9H18.13c-5.84-.46-7.1-9-7.1-9h-3.63v24h3.63s1.26-8.55,7.1-9h264.24c5.84.45,7.1,9,7.1,9h3.63v-24h-3.63Z"/><path class="cls-1" d="M233.72,111.41v-3.63h-24v3.63s8.54,1.26,9,7.1v48.79c-.46,5.84-9,7.1-9,7.1v3.63h24v-3.63s-8.55-1.26-9-7.1v-48.79c.45-5.84,9-7.1,9-7.1Z"/><path class="cls-1" d="M66.54,111.41v-3.63h24v3.63s-8.54,1.26-9,7.1v48.79c.46,5.84,9,7.1,9,7.1v3.63h-24v-3.63s8.55-1.26,9-7.1v-48.79c-.45-5.84-9-7.1-9-7.1Z"/><path class="cls-1" d="M289.47,259.03s-1.26,8.54-7.1,9H18.13c-5.84-.46-7.1-9-7.1-9h-3.63v24h3.63s1.26-8.54,7.1-9h264.25c5.84.46,7.1,9,7.1,9h3.63v-24h-3.63Z"/><path class="cls-1" d="M133.01,106.07c-9.92,0-18-8.07-18-18s8.08-18,18-18,18,8.07,18,18-8.08,18-18,18ZM133.01,74.07c-7.72,0-14,6.28-14,14s6.28,14,14,14,14-6.28,14-14-6.28-14-14-14Z"/><path class="cls-1" d="M167.49,106.07c-9.92,0-18-8.07-18-18s8.08-18,18-18,18,8.07,18,18-8.08,18-18,18ZM167.49,74.07c-7.72,0-14,6.28-14,14s6.28,14,14,14,14-6.28,14-14-6.28-14-14-14Z"/><path class="cls-1" d="M221.72,138.03h-36s7.62,8.91,8.59,20.85c.64,7.83-1.88,17.98-7.64,24.23-9.05,9.81-22.02,15.96-36.42,15.96s-27.37-6.15-36.42-15.96c-5.76-6.25-8.28-16.39-7.64-24.23.97-11.94,8.59-20.85,8.59-20.85h-36v10h21.12c-.1.37-1.78,9.33-1.78,13.49,0,26.31,19.49,48.05,44.81,51.62,3.97,2.31,7.33,18.33,7.33,18.33,0,0,3.36-16.02,7.33-18.33,25.32-3.56,44.81-25.31,44.81-51.62,0-4.16-1.68-13.11-1.78-13.49h21.12v-10Z"/><path class="cls-1" d="M200.91,317.48s-1,7.98-5.59,8.83h-9.39c-5.55-5.28-18.52-15.49-35.68-15.49s-30.13,10.21-35.68,15.49h-9.39c-4.59-.85-5.59-8.83-5.59-8.83h-3.06v23.66h3.06s1-7.98,5.58-8.83h9.39c5.55,5.28,18.52,15.49,35.69,15.49s30.14-10.22,35.69-15.49h9.39c4.58.85,5.58,8.83,5.58,8.83h3.06v-23.66h-3.06ZM150.25,316.83c11.13,0,20.33,4.98,26.38,9.49h-52.76c6.05-4.5,15.25-9.49,26.38-9.49ZM150.25,341.81c-11.13,0-20.34-4.99-26.39-9.49h52.77c-6.05,4.5-15.26,9.49-26.39,9.49Z"/><path class="cls-1" d="M200.91,281.98s-1,7.98-5.58,8.83h-90.16c-4.58-.85-5.58-8.83-5.58-8.83h-3.06v23.66h3.06s1-7.98,5.58-8.83h90.15c4.59.85,5.58,8.83,5.58,8.83h3.06v-23.66h-3.06Z"/><path class="cls-1" d="M300.26,150.13c-15.72-5.43-25.68-10.72-29.56-18.67-8.07-52.35-49.55-93.83-101.91-101.91-7.94-3.88-13.23-13.84-18.67-29.56-5.43,15.72-10.72,25.68-18.67,29.56-52.36,8.07-93.83,49.55-101.91,101.91-3.88,7.94-13.84,13.23-29.56,18.67,15.72,5.43,25.68,10.72,29.56,18.67,9.01,58.44,59.65,103.33,120.57,103.33s111.56-44.89,120.57-103.33c3.88-7.94,13.84-13.23,29.56-18.67ZM150.13,268.13c-65.07,0-118-52.93-118-118s52.93-118,118-118,118,52.93,118,118-52.93,118-118,118Z"/><path class="cls-1" d="M150.25,134.46c-15.33,0-27.8,12.47-27.8,27.8s12.47,27.8,27.8,27.8,27.8-12.47,27.8-27.8-12.47-27.8-27.8-27.8ZM150.25,138.46c12.11,0,22.12,9.09,23.6,20.8h-47.2c1.48-11.71,11.5-20.8,23.6-20.8ZM150.25,186.05c-12.11,0-22.12-9.09-23.6-20.8h47.2c-1.48,11.71-11.5,20.8-23.6,20.8Z"/></g></svg>