<?xml version="1.0" encoding="UTF-8"?><svg id="Layer_1" xmlns="http://www.w3.org/2000/svg" viewBox="0 0 325.29 325.29"><defs><style>.cls-1{fill:#fff;}</style></defs><g id="Symbol_16"><path class="cls-1" d="M108.44,81.07c-1.56-1.56-3.32-2.79-5.19-3.7.47.38.92.79,1.36,1.23,7.19,7.19,7.19,18.84,0,26.02-7.19,7.19-18.84,7.19-26.02,0-.44-.44-.85-.89-1.23-1.36.92,1.87,2.15,3.63,3.7,5.19,7.56,7.56,19.82,7.56,27.38,0,7.56-7.56,7.56-19.82,0-27.38Z"/><path class="cls-1" d="M244.34,216.97c1.56,1.56,2.79,3.32,3.7,5.19-.38-.47-.79-.92-1.23-1.36-7.19-7.19-18.84-7.19-26.02,0-7.19,7.19-7.19,18.84,0,26.02.44.44.89.85,1.36,1.23-1.87-.92-3.63-2.15-5.19-3.7-7.56-7.56-7.56-19.82,0-27.38,7.56-7.56,19.82-7.56,27.38,0Z"/><path class="cls-1" d="M244.34,108.44c1.56-1.56,2.79-3.32,3.7-5.19-.38.47-.79.92-1.23,1.36-7.19,7.19-18.84,7.19-26.02,0-7.19-7.19-7.19-18.84,0-26.02.44-.44.89-.85,1.36-1.23-1.87.92-3.63,2.15-5.19,3.7-7.56,7.56-7.56,19.82,0,27.38,7.56,7.56,19.82,7.56,27.38,0Z"/><path class="cls-1" d="M108.44,244.35c-1.56,1.56-3.32,2.79-5.19,3.7.47-.38.92-.79,1.36-1.23,7.19-7.19,7.19-18.84,0-26.02-7.19-7.19-18.84-7.19-26.02,0-.44.44-.85.89-1.23,1.36.92-1.87,2.15-3.63,3.7-5.19,7.56-7.56,19.82-7.56,27.38,0,7.56,7.56,7.56,19.82,0,27.38Z"/><path class="cls-1" d="M163.01,193.57c-31,0-54.02-19.56-62.48-27.97l-2.85-2.84,2.85-2.84c8.46-8.41,31.47-27.97,62.48-27.97s54.02,19.56,62.48,27.97l2.85,2.84-2.85,2.84c-8.46,8.41-31.47,27.97-62.48,27.97ZM109.16,162.77c9.42,8.56,28.87,22.81,53.85,22.81s44.43-14.25,53.85-22.81c-9.42-8.56-28.87-22.81-53.85-22.81s-44.43,14.25-53.85,22.81Z"/><path class="cls-1" d="M199.49,231.15v17.66c0,7.83-6,11.66-6,10v-26.54h-61.45v26.54c0,1.66-6-2.17-6-10v-17.66c0-4.34-1.84-6.73-1.84-6.73,0,0,2.39,1.85,6.73,1.85h63.68c4.34,0,6.73-1.85,6.73-1.85,0,0-1.84,2.39-1.84,6.73Z"/><path class="cls-1" d="M199.49,94.38v-17.66c0-7.83-6-11.66-6-10v26.54h-61.45v-26.54c0-1.66-6,2.17-6,10v17.66c0,4.34-1.84,6.73-1.84,6.73,0,0,2.39-1.85,6.73-1.85h63.68c4.34,0,6.73,1.85,6.73,1.85,0,0-1.84-2.39-1.84-6.73Z"/><path class="cls-1" d="M212.08,12.47s-.98,6.98-5.54,7.46h-41.28V6.54c.48-4.55,7.46-5.54,7.46-5.54V0h-19.92v1s6.97.98,7.46,5.53v13.4h-41.52c-4.55-.48-5.54-7.46-5.54-7.46h-1v19.91h1s.98-6.97,5.53-7.46h41.52v275.43h-41.53c-4.55-.48-5.53-7.46-5.53-7.46h-1v19.92h1s.98-6.98,5.54-7.46h41.52v13.4c-.49,4.55-7.46,5.53-7.46,5.53v1h19.92v-1s-6.98-.99-7.46-5.54v-13.39h41.28c4.55.48,5.54,7.46,5.54,7.46h1v-19.92h-1s-.98,6.97-5.53,7.46h-41.29V24.93h41.29c4.55.48,5.53,7.46,5.53,7.46h1V12.47h-1Z"/><path class="cls-1" d="M94.14,199.49h-17.66c-7.83,0-11.66-6-10-6h26.54v-61.45h-26.54c-1.66,0,2.17-6,10-6h17.66c4.34,0,6.73-1.84,6.73-1.84,0,0-1.85,2.39-1.85,6.73v63.68c0,4.34,1.85,6.73,1.85,6.73,0,0-2.39-1.84-6.73-1.84Z"/><path class="cls-1" d="M230.91,199.49h17.66c7.83,0,11.66-6,10-6h-26.54s0-61.45,0-61.45h26.54c1.66,0-2.17-6-10-6h-17.66c-4.34,0-6.73-1.84-6.73-1.84,0,0,1.85,2.39,1.85,6.73v63.68c0,4.34-1.85,6.73-1.85,6.73,0,0,2.39-1.84,6.73-1.84Z"/><path class="cls-1" d="M324.29,152.81s-.98,6.97-5.53,7.46h-13.4v-41.52c.48-4.55,7.46-5.53,7.46-5.53v-1h-19.92v1s6.98.98,7.46,5.53v41.52H24.93v-41.52c.48-4.55,7.46-5.54,7.46-5.54v-1H12.47v1s6.97.98,7.46,5.53v41.53H6.54c-4.55-.48-5.53-7.46-5.53-7.46H0v19.91h1s.98-6.98,5.54-7.46h13.39v41.29c-.48,4.55-7.46,5.53-7.46,5.53v1h19.91v-1s-6.98-.98-7.46-5.54v-41.28h275.43v41.28c-.48,4.55-7.46,5.53-7.46,5.53v1h19.92v-1s-6.98-.98-7.46-5.53v-41.28h13.39c4.55.48,5.54,7.46,5.54,7.46h1v-19.91h-1Z"/><path class="cls-1" d="M162.64,218.21c-30.57,0-55.45-24.87-55.45-55.45s24.87-55.45,55.45-55.45,55.45,24.87,55.45,55.45-24.87,55.45-55.45,55.45ZM162.64,111.32c-28.37,0-51.45,23.08-51.45,51.45s23.08,51.45,51.45,51.45,51.45-23.08,51.45-51.45-23.08-51.45-51.45-51.45Z"/><path class="cls-1" d="M250.08,243.99c19.83-21.33,31.97-49.88,31.97-81.23s-12.18-59.97-32.04-81.3c1.14-4.89,9.56-15.61,18.27-24.33-8.72,8.72-19.44,17.13-24.33,18.27-21.33-19.87-49.92-32.04-81.3-32.04s-59.9,12.15-81.23,31.97c-5.01-1.4-15.49-9.66-24.04-18.2,8.53,8.53,16.78,18.99,18.2,24.01-20.04,21.37-32.34,50.08-32.34,81.62s12.26,60.17,32.25,81.52c-1.63,5.12-9.73,15.36-18.11,23.74,8.38-8.38,18.62-16.48,23.74-18.11,21.36,19.99,50.03,32.25,81.52,32.25s60.25-12.3,81.62-32.34c5.02,1.42,15.48,9.67,24.01,18.2-8.54-8.54-16.8-19.02-18.2-24.04ZM83.61,246.78c1.15-4.26,6.1-11.08,10.48-15.46-4.38,4.38-11.2,9.33-15.46,10.48-19.45-20.67-31.39-48.48-31.39-79.03s12.05-58.62,31.66-79.32c4.27,1.27,10.9,6.1,15.19,10.4-4.29-4.29-9.11-10.9-10.39-15.17,20.66-19.4,48.43-31.31,78.94-31.31s58.54,12.01,79.23,31.57c-1.4,4.27-6.1,10.71-10.3,14.91,4.2-4.2,10.63-8.91,14.91-10.3,19.56,20.69,31.57,48.58,31.57,79.23s-11.91,58.29-31.31,78.94c-4.27-1.28-10.89-6.1-15.17-10.39,4.29,4.29,9.12,10.92,10.4,15.19-20.69,19.61-48.62,31.66-79.32,31.66s-58.37-11.94-79.03-31.39Z"/></g></svg>