<?xml version="1.0" encoding="UTF-8"?><svg id="Layer_1" xmlns="http://www.w3.org/2000/svg" viewBox="0 0 323.45 396"><defs><style>.cls-1{fill:#fff;}</style></defs><g id="Symbol_5"><path class="cls-1" d="M198.31,260.13l2.14-2.13-2.14-2.13c-4.72-4.69-17.18-15.31-34.08-16.28v-8.81c.48-4.55,7.46-5.54,7.46-5.54v-1h-19.91v1s6.97.98,7.46,5.53v8.81c-16.9.98-29.37,11.59-34.08,16.28l-2.14,2.13,2.14,2.13c4.72,4.69,17.18,15.3,34.08,16.28v113.05c-.48,4.55-7.46,5.53-7.46,5.53v1h19.91v-1s-6.98-.98-7.46-5.54v-113.05c16.9-.98,29.37-11.59,34.08-16.28ZM191.8,258c-5.22,4.61-15.05,11.57-27.58,12.4v-24.81c12.53.84,22.36,7.8,27.58,12.4ZM131.64,258c5.22-4.61,15.05-11.57,27.58-12.4v24.81c-12.53-.84-22.36-7.8-27.58-12.4Z"/><path class="cls-1" d="M26.3,40.64v-1H6.38v1s6.97.98,7.46,5.53v78.68c-.48,4.55-7.46,5.53-7.46,5.53v1h19.92v-1s-6.98-.98-7.46-5.53V46.17c.48-4.55,7.46-5.53,7.46-5.53Z"/><path class="cls-1" d="M317.06,40.64v-1h-19.92v1s6.97.98,7.46,5.53v78.69c-.49,4.55-7.46,5.53-7.46,5.53v1h19.92v-1s-6.98-.99-7.46-5.54V46.17c.48-4.55,7.46-5.54,7.46-5.54Z"/><path class="cls-1" d="M206.6,307.98s-.98,6.98-5.53,7.46h-78.68c-4.55-.48-5.53-7.46-5.53-7.46h-1v19.91h1s.98-6.97,5.53-7.46h78.68c4.55.48,5.53,7.46,5.53,7.46h1v-19.91h-1Z"/><path class="cls-1" d="M206.6,331.66s-.98,6.97-5.53,7.46h-78.68c-4.55-.48-5.53-7.46-5.53-7.46h-1v19.91h1s.98-6.98,5.54-7.46h78.68c4.55.48,5.54,7.46,5.54,7.46h1v-19.91h-1Z"/><path class="cls-1" d="M93.43,203.23c-.49,2.63-5.06,3.2-5.06,3.2v1.76h13.57v-1.76s-4.58-.57-5.06-3.2v-40.13c.49-2.63,5.06-3.2,5.06-3.2v-1.76h-13.57v1.76s4.58.57,5.06,3.2v40.12Z"/><path class="cls-1" d="M230.01,203.23c.49,2.63,5.06,3.2,5.06,3.2v1.76h-13.57v-1.76s4.58-.57,5.06-3.2v-40.13c-.49-2.63-5.06-3.2-5.06-3.2v-1.76h13.57v1.76s-4.58.57-5.06,3.2v40.12Z"/><path class="cls-1" d="M93.43,105.57c-.49,2.63-5.06,3.2-5.06,3.2v1.76h13.57v-1.76s-4.58-.57-5.06-3.2v-40.13c.49-2.63,5.06-3.2,5.06-3.2v-1.76h-13.57v1.76s4.58.57,5.06,3.2v40.12Z"/><path class="cls-1" d="M230.01,105.57c.49,2.63,5.06,3.2,5.06,3.2v1.76h-13.57v-1.76s4.58-.57,5.06-3.2v-40.13c-.49-2.63-5.06-3.2-5.06-3.2v-1.76h13.57v1.76s-4.58.57-5.06,3.2v40.12Z"/><path class="cls-1" d="M95.15,253.76c0,7.57,1.28,14.84,3.61,21.62-.2-2.07-.31-4.17-.31-6.29,0-34.94,28.33-63.27,63.27-63.27,34.94,0,63.27,28.33,63.27,63.27,0,2.12-.11,4.22-.31,6.29,2.33-6.78,3.61-14.05,3.61-21.62,0-36.77-29.8-66.57-66.57-66.57s-66.57,29.8-66.57,66.57Z"/><polygon class="cls-1" points="161.72 190.85 84.49 126.42 90.89 118.74 161.72 177.83 232.55 118.74 238.96 126.42 161.72 190.85"/><rect class="cls-1" x="61.94" y="59.32" width="6" height="50.47"/><rect class="cls-1" x="49.96" y="79.64" width="3.74" height="11.74"/><path class="cls-1" d="M161.72,102.55c-9.4,0-17.04-7.65-17.04-17.04s7.65-17.04,17.04-17.04,17.04,7.65,17.04,17.04-7.65,17.04-17.04,17.04ZM161.72,72.47c-7.19,0-13.04,5.85-13.04,13.04s5.85,13.04,13.04,13.04,13.04-5.85,13.04-13.04-5.85-13.04-13.04-13.04Z"/><rect class="cls-1" x="159.72" y="50.15" width="4" height="70.72"/><path class="cls-1" d="M320.38,0s-1,7.98-5.58,8.83H8.65C4.06,7.98,3.06,0,3.06,0H0v23.66h3.06s1-7.98,5.58-8.83h306.15c4.58.85,5.58,8.83,5.58,8.83h3.06V0h-3.06Z"/><rect class="cls-1" x="255.51" y="59.32" width="6" height="50.47"/><rect class="cls-1" x="269.74" y="79.64" width="3.74" height="11.74" transform="translate(543.23 171.02) rotate(180)"/><rect class="cls-1" x="159.72" y="50.15" width="4" height="70.72"/><path class="cls-1" d="M271.62,82.51h-62.6c-2.96-.54-5.67-2.39-7.01-5.32-3.86-18.7-20.45-32.81-40.28-32.81s-36.42,14.1-40.28,32.81c-1.34,2.94-4.06,4.78-7.02,5.32h-62.6v6h62.6c2.96.54,5.67,2.39,7.02,5.32,3.86,18.7,20.45,32.81,40.28,32.81s36.42-14.1,40.28-32.81c1.34-2.93,4.06-4.78,7.02-5.32h62.6v-6ZM161.72,50.38c16.51,0,30.39,11.45,34.13,26.83.23,2.5-.51,4.69-2.43,5.3h-63.39c-1.92-.61-2.66-2.79-2.43-5.29,3.74-15.38,17.62-26.83,34.13-26.83ZM161.72,120.64c-16.51,0-30.39-11.45-34.13-26.83-.23-2.5.51-4.68,2.43-5.29h63.39c1.93.61,2.66,2.79,2.43,5.3-3.74,15.38-17.62,26.83-34.13,26.83Z"/><path class="cls-1" d="M302.51,89.4l4.81-3.89-4.81-3.89c-9.87-7.98-20.17-15.12-30.77-21.38-1.71-6.02,1.75-24.54,1.75-24.54,0,0-5.01,11.39-26.52,11.75-22.48-9.99-45.87-16.15-69.16-18.1-7.81-1.81-16.08-6.98-16.08-12.42,0,5.44-8.27,10.61-16.08,12.42-23.29,1.96-46.68,8.12-69.17,18.1-21.51-.36-26.52-11.75-26.52-11.75,0,0,3.46,18.52,1.75,24.54-10.6,6.26-20.9,13.39-30.77,21.38l-4.81,3.89,4.81,3.89c9.87,7.98,20.17,15.12,30.77,21.38,1.71,6.02-1.75,24.54-1.75,24.54,0,0,5.01-11.39,26.52-11.75,27.66,12.29,56.7,18.8,85.24,18.8s57.58-6.51,85.24-18.8c21.51.36,26.52,11.75,26.52,11.75,0,0-3.46-18.52-1.75-24.54,10.6-6.26,20.9-13.39,30.77-21.38ZM32.16,85.51c39.37-30.26,85.15-46.85,129.56-46.85s90.19,16.6,129.56,46.85c-39.37,30.26-85.15,46.85-129.56,46.85s-90.19-16.6-129.56-46.85Z"/><path class="cls-1" d="M161.72,373.72c-60.23,0-109.23-49-109.23-109.23s49-109.23,109.23-109.23,109.23,49,109.23,109.23-49,109.23-109.23,109.23ZM161.72,159.26c-58.03,0-105.23,47.21-105.23,105.23s47.21,105.23,105.23,105.23,105.23-47.21,105.23-105.23-47.21-105.23-105.23-105.23Z"/><path class="cls-1" d="M320.02,145.43s-1,7.98-5.58,8.83h-30.15c-4.59-.85-5.58-8.83-5.58-8.83h-3.06v23.66h3.06s1-7.98,5.58-8.83h11.06c-.77,73.03-60.41,132.21-133.62,132.21S28.87,233.29,28.1,160.26h11.06c4.58.85,5.58,8.83,5.58,8.83h3.06v-23.66h-3.06s-1,7.98-5.58,8.83H9.01c-4.59-.85-5.58-8.83-5.58-8.83H.36v23.66h3.06s1-7.98,5.58-8.83h11.1c.77,77.44,64,140.21,141.62,140.21s140.85-62.77,141.62-140.21h11.1c4.58.85,5.58,8.83,5.58,8.83h3.06v-23.66h-3.06Z"/></g></svg>