<?xml version="1.0" encoding="UTF-8"?><svg id="Layer_1" xmlns="http://www.w3.org/2000/svg" viewBox="0 0 260.74 337.3"><defs><style>.cls-1{fill:#fff;}</style></defs><g id="Symbol_10"><path class="cls-1" d="M96.86,44c0-3.81.65-7.47,1.82-10.89-.1,1.04-.16,2.1-.16,3.17,0,17.59,14.26,31.86,31.86,31.86,17.59,0,31.86-14.26,31.86-31.86,0-1.07-.05-2.13-.16-3.17,1.17,3.41,1.82,7.07,1.82,10.89,0,18.51-15.01,33.52-33.52,33.52-18.51,0-33.52-15.01-33.52-33.52Z"/><path class="cls-1" d="M96.86,293.3c0,3.81.65,7.47,1.82,10.89-.1-1.04-.16-2.1-.16-3.17,0-17.59,14.26-31.86,31.86-31.86,17.59,0,31.86,14.26,31.86,31.86,0,1.07-.05,2.13-.16,3.17,1.17-3.41,1.82-7.07,1.82-10.89,0-18.51-15.01-33.52-33.52-33.52-18.51,0-33.52,15.01-33.52,33.52Z"/><path class="cls-1" d="M259.92,29.43v-3.63h-24v3.63s8.54,1.26,9,7.1v264.25c-.46,5.84-9,7.09-9,7.09v3.63h24v-3.63s-8.55-1.26-9-7.1V36.53c.45-5.84,9-7.1,9-7.1Z"/><path class="cls-1" d="M.83,29.43v-3.63h24v3.63s-8.54,1.26-9,7.1v264.25c.46,5.84,9,7.09,9,7.09v3.63H.83v-3.63s8.55-1.26,9-7.1V36.53c-.45-5.84-9-7.1-9-7.1Z"/><path class="cls-1" d="M130.37,194.26c-26.01,0-45.33-16.42-52.43-23.49l-2.14-2.13,2.14-2.13c7.1-7.06,26.42-23.49,52.43-23.49s45.33,16.42,52.43,23.49l2.14,2.13-2.14,2.13c-7.1,7.06-26.42,23.49-52.43,23.49ZM84.4,168.65c7.87,7.22,24.51,19.61,45.97,19.61s38.11-12.39,45.97-19.61c-7.87-7.22-24.51-19.61-45.97-19.61s-38.11,12.39-45.97,19.61Z"/><path class="cls-1" d="M130.37,299.02L0,168.65,130.37,38.28l130.37,130.37-130.37,130.37ZM5.66,168.65l124.72,124.72,124.72-124.72-124.72-124.72L5.66,168.65Z"/><path class="cls-1" d="M130.37,166.15s1.57-10.48,4.91-17.53L221.68,14.69c3.76-4.61,13.3-14.69,13.3-14.69,0,0-9.05,6.15-15.61,7.24h-42.43c-2.02-2.21-2.54-6.02-2.54-6.02h-2.79v20.04h2.79s.52-3.82,2.54-6.02h34.87l-81.44,126.23L48.93,15.24h34.86c2.02,2.21,2.54,6.02,2.54,6.02h2.79V1.22h-2.79s-.52,3.82-2.54,6.02h-42.43c-6.56-1.09-15.61-7.24-15.61-7.24,0,0,9.55,10.1,13.31,14.7l86.39,133.91c3.34,7.05,4.91,17.54,4.91,17.54Z"/><path class="cls-1" d="M219.38,330.06c6.56,1.09,15.61,7.24,15.61,7.24,0,0-9.54-10.09-13.3-14.69l-86.4-133.92c-3.34-7.05-4.91-17.53-4.91-17.53,0,0-1.57,10.49-4.92,17.54l-86.39,133.9c-3.76,4.6-13.31,14.7-13.31,14.7,0,0,9.05-6.15,15.61-7.24h42.43c2.02,2.21,2.54,6.02,2.54,6.02h2.79v-20.04h-2.79s-.52,3.82-2.54,6.02h-34.86l81.44-126.23,81.44,126.23h-34.87c-2.02-2.21-2.54-6.02-2.54-6.02h-2.79v20.04h2.79s.52-3.82,2.54-6.02h42.43Z"/><path class="cls-1" d="M130.37,246.69c-43.03,0-78.04-35.01-78.04-78.04s35.01-78.04,78.04-78.04,78.04,35.01,78.04,78.04-35.01,78.04-78.04,78.04ZM130.37,94.61c-40.83,0-74.04,33.22-74.04,74.04s33.21,74.04,74.04,74.04,74.04-33.22,74.04-74.04-33.21-74.04-74.04-74.04Z"/><path class="cls-1" d="M110.31,324.34c-2.63-.49-3.2-5.06-3.2-5.06h-1.76s0,13.57,0,13.57h1.76s.57-4.58,3.2-5.06h40.13c2.63.49,3.2,5.06,3.2,5.06h1.76s0-13.57,0-13.57h-1.76s-.57,4.58-3.2,5.06h-40.12Z"/><path class="cls-1" d="M193.79,166.81c-2.63-.49-3.2-5.06-3.2-5.06h-1.76s0,13.57,0,13.57h1.76s.57-4.58,3.2-5.06h40.13c2.63.49,3.2,5.06,3.2,5.06h1.76s0-13.57,0-13.57h-1.76s-.57,4.58-3.2,5.06h-40.12Z"/><path class="cls-1" d="M66.96,166.81c2.63-.49,3.2-5.06,3.2-5.06h1.76s0,13.57,0,13.57h-1.76s-.57-4.58-3.2-5.06H26.83c-2.63.49-3.2,5.06-3.2,5.06h-1.76s0-13.57,0-13.57h1.76s.57,4.58,3.2,5.06h40.12Z"/><path class="cls-1" d="M110.31,12.96c-2.63.49-3.2,5.06-3.2,5.06h-1.76s0-13.57,0-13.57h1.76s.57,4.58,3.2,5.06h40.13c2.63-.49,3.2-5.06,3.2-5.06h1.76s0,13.57,0,13.57h-1.76s-.57-4.58-3.2-5.06h-40.12Z"/></g></svg>