<?xml version="1.0" encoding="UTF-8"?><svg id="Layer_1" xmlns="http://www.w3.org/2000/svg" viewBox="0 0 321.76 361.76"><defs><style>.cls-1{fill:#fff;}</style></defs><g id="Symbol_11"><path class="cls-1" d="M127.36,342.94c0,3.81.65,7.47,1.82,10.89-.1-1.04-.16-2.1-.16-3.17,0-17.59,14.26-31.86,31.86-31.86,17.59,0,31.86,14.26,31.86,31.86,0,1.07-.05,2.13-.16,3.17,1.17-3.41,1.82-7.07,1.82-10.89,0-18.51-15.01-33.52-33.52-33.52-18.51,0-33.52,15.01-33.52,33.52Z"/><path class="cls-1" d="M127.36,18.82c0-3.81.65-7.47,1.82-10.89-.1,1.04-.16,2.1-.16,3.17,0,17.59,14.26,31.86,31.86,31.86,17.59,0,31.86-14.26,31.86-31.86,0-1.07-.05-2.13-.16-3.17,1.17,3.41,1.82,7.07,1.82,10.89,0,18.51-15.01,33.52-33.52,33.52-18.51,0-33.52-15.01-33.52-33.52Z"/><path class="cls-1" d="M181.17,248.29V113.47l116.75,67.41-116.75,67.41ZM185.17,120.4v120.96l104.75-60.48-104.75-60.48Z"/><path class="cls-1" d="M140.59,248.29L23.84,180.88l116.75-67.41v134.81ZM31.84,180.88l104.75,60.48v-120.96l-104.75,60.48Z"/><path class="cls-1" d="M160.88,0c4.44,0,9.96,0,9.96,0v1s-7.5,1.04-7.5,6.02c0,4.98-4.91,4.98-4.91,0,0-4.98-7.5-6.02-7.5-6.02V0s5.52,0,9.96,0Z"/><path class="cls-1" d="M160.88,361.76c4.44,0,9.96,0,9.96,0v-1s-7.5-1.04-7.5-6.02-4.91-4.98-4.91,0c0,4.98-7.5,6.02-7.5,6.02v1s5.52,0,9.96,0Z"/><rect class="cls-1" x="158.38" y=".12" width="5" height="361.52"/><path class="cls-1" d="M320.75,170.92s-.98,6.97-5.53,7.46H6.54c-4.55-.48-5.53-7.46-5.53-7.46H0v19.91h1s.98-6.98,5.54-7.46h308.68c4.55.48,5.54,7.46,5.54,7.46h1v-19.91h-1Z"/><path class="cls-1" d="M185.75,57.88s-.98,6.97-5.53,7.46h-38.68c-4.55-.48-5.53-7.46-5.53-7.46h-1v19.91h1s.98-6.98,5.53-7.46h38.68c4.55.48,5.53,7.46,5.53,7.46h1v-19.91h-1Z"/><path class="cls-1" d="M185.75,283.96s-.98,6.97-5.53,7.46h-38.69c-4.55-.48-5.53-7.46-5.53-7.46h-1v19.91h1s.98-6.98,5.54-7.46h38.68c4.55.48,5.54,7.46,5.54,7.46h1v-19.91h-1Z"/><path class="cls-1" d="M222,156.2v-1h-19.91v1s6.98.98,7.46,5.54v38.68c-.48,4.55-7.46,5.54-7.46,5.54v1h19.91v-1s-6.97-.98-7.46-5.53v-38.68c.48-4.55,7.46-5.53,7.46-5.53Z"/><path class="cls-1" d="M119.67,156.2v-1h-19.92v1s6.97.98,7.46,5.53v38.69c-.49,4.55-7.46,5.53-7.46,5.53v1h19.92v-1s-6.98-.99-7.46-5.54v-38.67c.48-4.55,7.46-5.54,7.46-5.54Z"/><path class="cls-1" d="M303.88,156v-1h-19.92v1s6.97.98,7.46,5.53v38.69c-.48,4.55-7.46,5.53-7.46,5.53v1h19.92v-1s-6.98-.98-7.46-5.54v-38.68c.48-4.55,7.46-5.54,7.46-5.54Z"/><path class="cls-1" d="M37.8,156v-1h-19.91v1s6.97.98,7.46,5.53v38.68c-.48,4.55-7.46,5.53-7.46,5.53v1h19.91v-1s-6.98-.98-7.46-5.54v-38.68c.48-4.55,7.46-5.54,7.46-5.54Z"/><path class="cls-1" d="M205.75,265.88s-.98,6.97-5.53,7.46h-78.68c-4.55-.48-5.53-7.46-5.53-7.46h-1v19.91h1s.98-6.98,5.53-7.46h78.68c4.55.48,5.53,7.46,5.53,7.46h1v-19.91h-1Z"/><path class="cls-1" d="M160.88,205.17c-13.39,0-24.29-10.9-24.29-24.29s10.9-24.29,24.29-24.29,24.29,10.9,24.29,24.29-10.9,24.29-24.29,24.29ZM160.88,160.59c-11.19,0-20.29,9.1-20.29,20.29s9.1,20.29,20.29,20.29,20.29-9.1,20.29-20.29-9.1-20.29-20.29-20.29Z"/><path class="cls-1" d="M234.74,254.94s-4.37-6.13-5.29-14.19v-119.35c.92-8.06,5.29-14.19,5.29-14.19,0,0-6.12,4.37-14.18,5.29h-119.35c-8.06-.92-14.18-5.29-14.18-5.29,0,0,4.37,6.12,5.29,14.18v119.36c-.92,8.06-5.29,14.18-5.29,14.18,0,0,6.13-4.37,14.18-5.29h119.35c8.06.92,14.18,5.29,14.18,5.29ZM96.31,116.51h129.14v129.14H96.31V116.51Z"/><path class="cls-1" d="M70.51,94.42c-7.98,0-14.23-6.87-14.49-7.17l-1.19-1.33,1.19-1.33c.26-.29,6.51-7.17,14.49-7.17s14.23,6.87,14.49,7.17l1.19,1.33-1.19,1.33c-.26.29-6.51,7.17-14.49,7.17ZM60.4,85.92c1.98,1.72,5.83,4.5,10.11,4.5s8.13-2.78,10.11-4.5c-1.98-1.72-5.83-4.5-10.11-4.5s-8.13,2.78-10.11,4.5Z"/><path class="cls-1" d="M251.25,94.42c-7.98,0-14.23-6.87-14.49-7.17l-1.19-1.33,1.19-1.33c.26-.29,6.51-7.17,14.49-7.17s14.23,6.87,14.49,7.17l1.19,1.33-1.19,1.33c-.26.29-6.51,7.17-14.49,7.17ZM241.14,85.92c1.98,1.72,5.83,4.5,10.11,4.5s8.13-2.78,10.11-4.5c-1.98-1.72-5.83-4.5-10.11-4.5s-8.13,2.78-10.11,4.5Z"/><path class="cls-1" d="M70.51,283.83c-7.93,0-14.17-6.34-14.44-6.61l-1.35-1.39,1.35-1.39c.26-.27,6.5-6.61,14.44-6.61s14.17,6.34,14.44,6.61l1.35,1.39-1.35,1.39c-.26.27-6.5,6.61-14.44,6.61ZM60.55,275.83c2.04,1.6,5.79,4,9.96,4s7.92-2.4,9.96-4c-2.04-1.6-5.79-4-9.96-4s-7.92,2.4-9.96,4Z"/><path class="cls-1" d="M251.25,283.83c-7.93,0-14.17-6.34-14.44-6.61l-1.35-1.39,1.35-1.39c.26-.27,6.5-6.61,14.44-6.61s14.17,6.34,14.44,6.61l1.35,1.39-1.35,1.39c-.26.27-6.5,6.61-14.44,6.61ZM241.29,275.83c2.04,1.6,5.79,4,9.96,4s7.92-2.4,9.96-4c-2.04-1.6-5.79-4-9.96-4s-7.92,2.4-9.96,4Z"/><path class="cls-1" d="M205.75,75.97s-.98,6.97-5.53,7.46h-78.69c-4.55-.48-5.53-7.46-5.53-7.46h-1v19.91h1s.98-6.98,5.54-7.46h78.68c4.55.48,5.54,7.46,5.54,7.46h1v-19.91h-1Z"/></g></svg>