<?xml version="1.0" encoding="UTF-8"?><svg id="Layer_1" xmlns="http://www.w3.org/2000/svg" viewBox="0 0 321.76 421.76"><defs><style>.cls-1{fill:#fff;}</style></defs><g id="Symbol_7"><path class="cls-1" d="M161.08,337.4c-18.17,0-31.64-11.44-36.58-16.36l-2.14-2.13,2.14-2.13c4.95-4.92,18.41-16.36,36.58-16.36s31.64,11.44,36.58,16.36l2.14,2.13-2.14,2.13c-4.95,4.92-18.42,16.36-36.58,16.36ZM131,318.91c5.56,4.91,16.36,12.49,30.08,12.49s24.52-7.58,30.08-12.49c-5.56-4.91-16.36-12.49-30.08-12.49s-24.52,7.58-30.08,12.49Z"/><path class="cls-1" d="M320.75,200.92s-.98,6.98-5.54,7.46H6.54c-4.55-.48-5.54-7.46-5.54-7.46H0v19.91h1s.98-6.97,5.53-7.46h308.69c4.55.48,5.53,7.46,5.53,7.46h1v-19.91h-1Z"/><path class="cls-1" d="M170.84,1V0h-19.92v1s6.97.98,7.46,5.53v408.69c-.48,4.55-7.46,5.53-7.46,5.53v1h19.92v-1s-6.98-.99-7.46-5.54V6.54c.48-4.55,7.46-5.54,7.46-5.54Z"/><path class="cls-1" d="M55.88,166v-1h-19.92v1s6.98.98,7.46,5.53v78.68c-.48,4.55-7.46,5.53-7.46,5.53v1h19.92v-1s-6.97-.98-7.46-5.53v-78.68c.48-4.55,7.46-5.53,7.46-5.53Z"/><path class="cls-1" d="M37.79,186v-1h-19.91v1s6.98.98,7.46,5.54v38.68c-.48,4.55-7.46,5.54-7.46,5.54v1h19.91v-1s-6.97-.98-7.46-5.53v-38.69c.48-4.55,7.46-5.53,7.46-5.53Z"/><path class="cls-1" d="M303.88,186v-1h-19.92v1s6.98.98,7.46,5.54v38.68c-.48,4.55-7.46,5.54-7.46,5.54v1h19.92v-1s-6.97-.98-7.46-5.53v-38.68c.48-4.55,7.46-5.53,7.46-5.53Z"/><path class="cls-1" d="M186.76,393.92c0,4.44,0,9.96,0,9.96h-1s-1.04-7.5-6.02-7.5-4.98-4.91,0-4.91,6.02-7.5,6.02-7.5h1s0,5.52,0,9.96Z"/><path class="cls-1" d="M135,393.92c0,4.44,0,9.96,0,9.96h1s1.04-7.5,6.02-7.5,4.98-4.91,0-4.91-6.02-7.5-6.02-7.5h-1s0,5.52,0,9.96Z"/><rect class="cls-1" x="135.12" y="391.42" width="51.52" height="5"/><path class="cls-1" d="M285.79,166v-1h-19.91v1s6.98.98,7.46,5.54v78.68c-.48,4.55-7.46,5.54-7.46,5.54v1h19.91v-1s-6.97-.98-7.46-5.53v-78.69c.48-4.55,7.46-5.53,7.46-5.53Z"/><path class="cls-1" d="M227.65,311.93c0-7.57-1.28-14.84-3.61-21.62.2,2.07.31,4.17.31,6.29,0,34.94-28.33,63.27-63.27,63.27-34.94,0-63.27-28.33-63.27-63.27,0-2.12.11-4.22.31-6.29-2.33,6.78-3.61,14.05-3.61,21.62,0,36.77,29.8,66.57,66.57,66.57,36.77,0,66.57-29.8,66.57-66.57Z"/><path class="cls-1" d="M160.88,252.94c-23.2,0-42.07-18.87-42.07-42.07s18.87-42.07,42.07-42.07,42.07,18.87,42.07,42.07-18.87,42.07-42.07,42.07ZM160.88,172.81c-20.99,0-38.07,17.08-38.07,38.07s17.08,38.07,38.07,38.07,38.07-17.08,38.07-38.07-17.08-38.07-38.07-38.07Z"/><path class="cls-1" d="M89.41,94.35v10h36s-7.62-8.91-8.59-20.85c-.64-7.83,1.88-17.98,7.64-24.23,9.05-9.81,22.02-15.96,36.42-15.96s27.37,6.15,36.42,15.96c5.76,6.25,8.28,16.39,7.64,24.23-.97,11.94-8.59,20.85-8.59,20.85h36v-10h-21.12c.1-.37,1.78-9.33,1.78-13.49,0-28.8-23.34-52.14-52.14-52.14s-52.14,23.34-52.14,52.14c0,4.16,1.68,13.11,1.78,13.49h-21.12Z"/><path class="cls-1" d="M177.6,115v-17.66c0-7.83-6-11.66-6-10v26.54s-21.45,0-21.45,0v-26.54c0-1.66-6,2.17-6,10v17.66c0,4.34-1.84,6.73-1.84,6.73,0,0,2.39-1.85,6.73-1.85h23.68c4.34,0,6.73,1.85,6.73,1.85,0,0-1.84-2.39-1.84-6.73Z"/><path class="cls-1" d="M234.94,284.74s-4.37-6.12-5.29-14.18v-119.36c.92-8.06,5.29-14.18,5.29-14.18,0,0-6.13,4.37-14.19,5.29h-119.35c-8.06-.92-14.19-5.29-14.19-5.29,0,0,4.37,6.13,5.29,14.19v119.35c-.92,8.06-5.29,14.19-5.29,14.19,0,0,6.12-4.37,14.18-5.29h119.35c8.06.92,14.18,5.29,14.18,5.29ZM96.51,146.31h129.14v129.14H96.51v-129.14Z"/><path class="cls-1" d="M45.92,316.65c-8.49,0-15.4-6.91-15.4-15.4s6.91-15.4,15.4-15.4,15.4,6.91,15.4,15.4-6.91,15.4-15.4,15.4ZM45.92,289.84c-6.29,0-11.4,5.12-11.4,11.4s5.12,11.4,11.4,11.4,11.4-5.12,11.4-11.4-5.12-11.4-11.4-11.4Z"/><path class="cls-1" d="M45.92,135.91c-8.49,0-15.4-6.91-15.4-15.4s6.91-15.4,15.4-15.4,15.4,6.91,15.4,15.4-6.91,15.4-15.4,15.4ZM45.92,109.1c-6.29,0-11.4,5.12-11.4,11.4s5.12,11.4,11.4,11.4,11.4-5.12,11.4-11.4-5.12-11.4-11.4-11.4Z"/><path class="cls-1" d="M275.83,316.65c-8.49,0-15.4-6.91-15.4-15.4s6.91-15.4,15.4-15.4,15.4,6.91,15.4,15.4-6.91,15.4-15.4,15.4ZM275.83,289.84c-6.29,0-11.4,5.12-11.4,11.4s5.12,11.4,11.4,11.4,11.4-5.12,11.4-11.4-5.12-11.4-11.4-11.4Z"/><path class="cls-1" d="M275.83,135.91c-8.49,0-15.4-6.91-15.4-15.4s6.91-15.4,15.4-15.4,15.4,6.91,15.4,15.4-6.91,15.4-15.4,15.4ZM275.83,109.1c-6.29,0-11.4,5.12-11.4,11.4s5.12,11.4,11.4,11.4,11.4-5.12,11.4-11.4-5.12-11.4-11.4-11.4Z"/></g></svg>