<?xml version="1.0" encoding="UTF-8"?><svg id="Layer_1" xmlns="http://www.w3.org/2000/svg" viewBox="0 0 1295.45 895.81"><defs><style>.cls-1{fill:#fff;}</style></defs><g id="WindowFrame_2"><path class="cls-1" d="M1295.45,840.63H0V55.18h1295.45v785.45ZM14,826.63h1267.45V69.18H14v757.45Z"/><path class="cls-1" d="M631.04,45.12c-1.98,3.09-3.14,6.75-3.14,10.69,0,10.95,8.88,19.82,19.82,19.82,10.95,0,19.82-8.88,19.82-19.82,0-3.94-1.15-7.61-3.14-10.69,3.19,3.79,5.11,8.68,5.11,14.02,0,12.04-9.76,21.8-21.8,21.8-12.04,0-21.8-9.76-21.8-21.8,0-5.34,1.92-10.23,5.11-14.02Z"/><path class="cls-1" d="M1004.68,32.75s-.97,7.19-5.49,7.52h-124.59c-4.52-.33-5.49-7.52-5.49-7.52h-2.79v20.04h2.79s.97-7.2,5.5-7.52h124.57c4.53.32,5.5,7.52,5.5,7.52h2.79v-20.04h-2.79Z"/><path class="cls-1" d="M1188.67,38.65c-3.69-.18-7.39-.23-11.08-.17-.88.02-1.72.68-1.68,1.5.04.8.74,1.52,1.68,1.5,3.69-.07,7.39-.01,11.08.17.88.04,1.72-.72,1.68-1.5-.04-.85-.74-1.45-1.68-1.5Z"/><path class="cls-1" d="M1176.21,43.2c-.85.35-1.86.37-2.75.15-1.16-.29-2.06-1.47-3.3-1.32-1.45.17-2.24,1.68-2.61,2.79-.14.41-.22.84-.28,1.26-2.54-1.32-4.56-3.34-5.81-5.72-.71-1.35-3.23-.68-3.14.76.07,1.12.47,2.09.98,3.1.37.74.91,1.55.9,2.38,0,.83-.62,1.61-.97,2.35-.49,1.02-.76,2.07-.38,3.16.63,1.84,3.89,1.06,3.25-.8-.23-.67.31-1.37.62-1.96.34-.64.63-1.31.77-2,1.47,1.03,3.11,1.88,4.88,2.48,1.05.35,2.12-.55,2.13-1.45,0-.85-.05-1.99.31-2.9,2.18,1.1,4.65,1.31,7.11.3.83-.34,1.03-1.4.6-2.05-.5-.76-1.47-.88-2.3-.54Z"/><path class="cls-1" d="M1153.63,40.23c-.68-.4-1.55-.74-2.35-1.14,4.63.11,9.19-.7,13.5-2.43,1.97-.79.26-3.38-1.7-2.59-4.7,1.89-10.01,2.52-15.1,1.79-1.33-.19-2.3.65-2.07,1.85.52,2.68,3.34,3.66,5.65,4.91.24.13.49.26.71.42.1.07.18.15.26.23-.25.04-.51.09-.57.1-.44.08-.88.13-1.33.17-1.71.16-3.45.11-5.17.08-1.7-.03-3.41-.06-5.11-.09-1.59-.03-3.53.21-5.08-.11-.73-.15-.74-.61-.75-1.2,0-.04.02-.22.03-.39.2,0,.4-.02.61-.02,1.79-.06,3.58,0,5.36.13,2.16.16,2.15-2.84,0-3-1.34-.1-2.68-.16-4.02-.15-1.1,0-2.41-.1-3.47.21-.34.1-.61.26-.85.45-.14-.03-.29-.06-.46-.05-1.89.01-3.54-.43-5.15-1.31-1.08-.6-2.16-1.19-3.39-1.35,3.36.02,6.72.05,10.07.12,2.17.05,2.17-2.95,0-3-9.17-.2-18.34-.18-27.51.05-.94.02-1.47.6-1.59,1.24-.09.01-.17.02-.26.05-3.21,1.13-6.49,2.42-9.38,4.12-1.12.66-1.93,1.58-1.57,2.85.38,1.33,1.8,2.29,2.9,3.17,2.27,1.83,4.89,3.57,7.99,4.03,1.16.17,2.56.29,3.63-.25.58-.3,1.03-.8,1.25-1.36.29-.74-.1-1.46.09-2.16,0-.03.03-.05.03-.07.02.02.04.05.06.08,1.97,2.36,5.36,4.25,8.46,5.2,3.15.97,6.55.4,8.61-2.02,1.31-1.54-1.61-3.03-2.91-1.51-2.43,2.85-8.06-.61-10.13-2.21-.27-.21-.67-.55-1.06-.94,1.27-.17,2.55-.21,3.78-.61,1.07-.35,2.27-.94,2.78-1.89.66-1.23-.26-2.59-1.49-3.22-2.1-1.08-5.46-.67-7.47.4-1.64.88-2.18,2.23-2.03,3.63-.49.32-.93.7-1.27,1.14-.45.6-.71,1.29-.74,2.02-.01.26-.02.61.03.9-.18,0-.36,0-.54-.01-1.98-.15-3.79-1.14-5.32-2.21-.89-.63-1.73-1.32-2.55-2.03-.15-.13-.31-.3-.48-.42-.03-.02-.04-.03-.06-.04.41-.18.85-.5,1.21-.68,1.62-.82,3.29-1.57,4.99-2.24-.04,1.32-.22,2.62-.58,3.92-.52,1.87,2.72,2.67,3.25.8.61-2.2.84-4.43.65-6.69,5.33-.13,10.65-.19,15.98-.17-.83.11-1.66.63-1.59,1.49.27,3.41,2.51,6.11,5.43,8.2,2.93,2.09,6.2,4.16,9.59,5.61,3.36,1.44,7.37,2.28,11.01,1.15,3.06-.95,5.64-3.21,6.21-6.12.05-.25.03-.49-.04-.7,1.42-.21,2.84-.64,3.42-1.74.96-1.8-.88-3.46-2.44-4.38ZM1114.14,40.8c-.33.08-.66.14-.98.18-.46.06-.92.11-1.38.15.57-.19,1.24-.28,1.82-.31.17-.01.35-.02.54-.02ZM1144.72,50.5c-3.05.64-6.22-.36-8.87-1.68-2.56-1.27-5.06-2.8-7.38-4.39-1.6-1.09-3.17-2.45-4.02-4.09.73.39,1.44.86,2.13,1.13,1.46.57,3,.85,4.58.9.02.34.06.68.12.99.37,1.85,1.91,2.91,3.96,3.07,2.49.2,5.05.11,7.54.15,2.17.04,4.37.13,6.54.04-.56,1.99-2.35,3.41-4.61,3.88Z"/><path class="cls-1" d="M1143.97,41.99c2.17,0,2.17-3,0-3s-2.17,3,0,3Z"/><path class="cls-1" d="M1094.81,46.04c-3.21-.49-6.38-1.14-9.52-1.91.25-1,.31-2.04.33-3.1.03-1.42,0-2.85.98-4.04.74-.91-.25-2.32-1.45-2.26-2.81.15-5.6.54-8.31,1.2-2.09.51-1.2,3.4.9,2.89,1.59-.38,3.19-.66,4.81-.86-.16.71-.23,1.44-.26,2.16-.04.91.02,1.89-.12,2.82-1.42.08-2.85-.13-4.23-.39-.95-.18-1.89-.39-2.84-.57-.99-.19-2.08-.44-3.09-.44-1.21,0-2.21.69-2.43,1.76-.19.94-.27,1.91-.36,2.85-.19,1.85-.28,3.71-.28,5.56,0,1.93,3.36,1.93,3.37,0,0-1.67.08-3.33.23-5,.06-.7.14-1.39.23-2.08.2.03.41.06.61.09,2.81.48,5.55,1.2,8.38,1.19.2.31.52.56.98.68,2.61.69,5.26,1.28,7.93,1.77.2.18.44.32.73.37.99.18,1.99.27,3,.24.83-.02,1.55-.55,1.65-1.3.09-.68-.37-1.52-1.21-1.65ZM1072.81,44.03s0-.03.01,0c0,0,0,0-.01,0Z"/><path class="cls-1" d="M1068.89,34.47c-7.51-.04-15.02-.09-22.53-.13-1.74-.01-2.2,2-.85,2.8,4.47,2.62,9.44,5.61,10.38,10.67.27,1.45,2.94,1.41,3.25,0,.81-3.79,5.71-5.42,8.32-8.09.76-.78.43-1.74-.26-2.25.56,0,1.13,0,1.69,0,2.17.01,2.17-2.99,0-3ZM1065.07,37.59c-2.13,2.19-5.23,3.68-7.27,5.89-1.4-2.42-3.63-4.4-6.09-6.11l13.54.08c-.06.05-.12.09-.17.14Z"/><path class="cls-1" d="M1049.03,40.86c-.92.04-1.67.66-1.68,1.5,0,.48-.03.96-.08,1.44-.02.24-.05.48-.08.72-.01.09-.02.18-.04.28,0,.05-.02.1-.02.15-.16.95-.4,1.89-.7,2.81-.24.75.3,1.67,1.18,1.85.9.18,1.81-.24,2.07-1.05.65-2,.99-4.1,1.03-6.18.01-.78-.78-1.54-1.68-1.5Z"/><path class="cls-1" d="M1041.47,31.9c-.81-.2-1.92.24-2.07,1.05-.9,4.82-1.57,9.67-1.99,14.54-.07.81.82,1.5,1.68,1.5.97,0,1.61-.69,1.68-1.5.4-4.6,1.03-9.18,1.87-13.74.15-.8-.23-1.61-1.18-1.85Z"/><path class="cls-1" d="M1033.56,43.58c-.62-.3-1.24-.6-1.85-.9.15-.83-.39-1.78-1.6-1.79-3.29-.04-6.62-.22-9.91-.12-.83.03-1.57.25-2.08.85-.48.57-.57,1.3-.69,1.98-.25,1.48-.35,2.97-.24,4.47.06.89,1.04,1.81,2.13,1.45,4.7-1.58,9.64-2.36,14.67-2.29.98.01,2.05-.99,1.62-1.9-.43-.92-1.09-1.3-2.05-1.76ZM1028.41,43.88c.03.21.1.41.25.6-2.76.27-5.49.77-8.14,1.52.02-.49.06-.99.13-1.47.03-.2.07-.41.11-.61,0-.04.02-.08.03-.12.03,0,.07,0,.09,0h1.04c2.16.04,4.32.06,6.49.09Z"/><path class="cls-1" d="M1019.03,38.99c4.33.05,8.69.09,12.91,1.02,1.06.23,2.13-.45,2.13-1.45,0-1.29,0-2.57.01-3.86,0-1.93-3.36-1.93-3.37,0,0,.67,0,1.35,0,2.02-3.85-.62-7.78-.69-11.69-.73-2.17-.02-2.17,2.98,0,3Z"/><path class="cls-1" d="M714.78,44.55c1.72-.04,3.44-.12,5.16-.27,1-.09,1.82-1.3.91-2.05-.95-.77-1.73-.84-2.87-.38-.14.06-.25.13-.34.2-.28.02-.57.03-.86.04,0,0,0,0,0-.01,2.57-5.57-8.3-7.22-11.99-7.37-2.75-.11-6.79-.07-8.93,1.82-1.65,1.46-1.65,3.69.06,5.09,2.34,1.92,6.1,2.26,9.21,2.54.17.88.34,1.76.53,2.64-1.45.57-2.95,1.04-4.49,1.39-1.5.34-3.27.7-4.63-.23-1.45-.99-1.65-2.8-.55-4.13,1-1.21-.8-2.92-1.81-1.7-1.48,1.79-2,4.1-.73,6.15,1.46,2.36,4.26,2.91,6.95,2.5,1.96-.3,3.9-.85,5.77-1.57.3,1.29.61,2.59.94,3.87.39,1.5,2.86.86,2.47-.64-.37-1.41-.71-2.83-1.03-4.25.37-.17.74-.35,1.1-.54,1.6-.81,3.58-1.83,5.1-3.13ZM714.3,41.4c-.12.28-.3.54-.52.8-2.16.03-4.32-.04-6.46-.21-.25-1.4-.48-2.8-.68-4.2-.03-.21-.11-.39-.22-.55.35.04.69.09,1.03.15,1.8.3,7.99,1.36,6.84,4.02ZM702.91,41.46c-1.27-.2-2.55-.44-3.76-.87-.84-.3-1.37-.45-1.59-1.32-.27-1.1.49-1.39,1.65-1.69,1.58-.41,3.31-.56,5.02-.51-.13.18-.19.42-.15.71.19,1.31.39,2.62.61,3.93-.6-.08-1.19-.15-1.78-.25ZM707.77,44.38c.92.07,1.84.12,2.76.16-.78.42-1.55.78-2.14,1.08-.11.06-.23.1-.34.16-.1-.46-.19-.93-.28-1.39Z"/><path class="cls-1" d="M726.69,50.13c0-.17,0-.34,0-.52,1.14.24,2.63-.04,3.65-.06,1.65-.03,1.65-2.39,0-2.4-.95,0-1.9-.02-2.86-.02-.02-.07-.04-.12-.07-.21-.07-.4-.15-.8-.22-1.19-.07-.38-.28-.63-.55-.76-.16-4.19-.63-8.36-1.41-12.5-.29-1.52-2.75-.88-2.47.64.87,4.64,1.32,9.31,1.38,14-3.37-.03-6.73-.06-10.1-.08-1.65-.01-1.65,2.39,0,2.4,3.37.03,6.73.06,10.1.08,0,.21,0,.42,0,.63,0,.23.05.42.14.58-2.25-.16-4.5-.34-6.74-.55-1.64-.15-1.63,2.25,0,2.4,4.17.39,8.35.7,12.53.91,1.65.08,1.64-2.32,0-2.4-1.21-.06-2.42-.15-3.63-.23.15-.18.25-.42.26-.71Z"/><path class="cls-1" d="M751.19,38.26c.9-.68,1.81-1.34,2.76-1.98.78-.52.9-2.03-.31-2.19-6.84-.93-13.73-1.47-20.64-1.58-1.65-.03-1.65,2.37,0,2.4,5.7.09,11.39.48,17.04,1.15-.97.72-1.91,1.46-2.83,2.23-2.05.12-4.09.2-6.14.22,0-.62.02-1.24.05-1.86.06-1.54-2.5-1.54-2.56,0-.03.62-.04,1.25-.05,1.87-1.69-.01-3.38-.04-5.07-.12-1.65-.07-1.64,2.33,0,2.4,1.69.07,3.39.11,5.08.12.03,1.34.09,2.67.2,4,.04.47.3.79.65.98-.61.72-1.17,1.47-1.61,2.24-.67-1.29-1.31-2.6-1.88-3.95-.6-1.42-3.08-.8-2.47.64,1.03,2.45,2.21,4.82,3.55,7.13.62,1.06,2.39.56,2.39-.61,0-1.76,1.66-3.33,2.78-4.62,1.13-1.32,2.33-2.59,3.59-3.8.83-.8,1.68-1.56,2.56-2.31.07,0,.14,0,.2-.01-.02.33-.03.67-.04.98-.07,2.15-.15,4.3-.22,6.46-1.12-.44-2.32-.61-3.65-.48-1.62.16-1.64,2.56,0,2.4,1.46-.15,2.77.09,3.96.96.85.63,2.15.27,2.19-.85.06-1.67.12-3.34.17-5.02.04-1.03-.28-3.5.14-4.73.84-.42.91-1.59.18-2.05ZM742.92,42.21c-.52.52-1.1,1.09-1.7,1.7-.06-1-.11-2-.13-3,1.1-.01,2.19-.05,3.29-.09-.49.46-.98.92-1.45,1.39Z"/><path class="cls-1" d="M764.04,46.36c.75,0,1.21-.55,1.28-1.2.15-1.31.19-2.63.11-3.95-.09-1.54-2.65-1.55-2.56,0,.08,1.32.04,2.63-.11,3.95-.07.65.64,1.2,1.28,1.2Z"/><path class="cls-1" d="M775.61,46.7c-.97-.01-1.94,0-2.91,0,.56-1.23.73-2.62.31-4.18-.66-2.46-2.81-4.14-5.04-5.39-1.38-.77-2.85-1.41-4.34-1.99-1.26-.49-2.72-1.23-4.08-1.36-2.47-.24-3.34,2.79-3.39,4.62-.03,1,.17,2.01.85,2.82.84.99,2.79,1.29,3.26,2.45.58,1.43,3.06.81,2.47-.64-.57-1.41-1.52-1.79-2.74-2.64-1.25-.88-1.49-1.69-1.09-3.08.49-1.71.21-.9,1.23-.86.92.04,2.37.82,3.19,1.16.92.38,1.82.79,2.69,1.24,1.65.86,3.45,1.9,4.24,3.59.78,1.67.46,3.1-.44,4.25-3.62,0-7.23.03-10.85.11-1.65.04-1.65,2.44,0,2.4,2.44-.06,4.87-.08,7.31-.1-1.2.47-2.47.75-3.58.83-1.47.1-5.01.44-6.15-.59-.55-.49-.24-2.09-.23-2.72.01-.96.06-1.92.11-2.88.09-1.54-2.47-1.54-2.56,0-.12,2.06-1.01,5.94,1.01,7.42,2.02,1.47,5.81,1.33,8.19,1.14,2.76-.22,5.8-1.35,7.83-3.21,1.57,0,3.13,0,4.7.01,1.65.02,1.65-2.38,0-2.4Z"/><path class="cls-1" d="M730.57,36.12c-.4-1.5-2.88-.86-2.47.64.47,1.75.84,3.52,1.11,5.32.23,1.52,2.69.88,2.47-.64-.27-1.79-.64-3.56-1.11-5.32Z"/><path class="cls-1" d="M796.72,40.03c-6.4-3.08-13.24-4.98-20.38-5.71-.76-.5-2.22.15-2.05,1.33.48,3.24.69,6.5.69,9.78,0,.96,1.07,1.43,1.93,1.04.79-.37,1.6-.68,2.42-.96,0,1.7.12,3.42.12,5.04,0,1.54,2.56,1.55,2.56,0,0-1.83-.19-3.84-.14-5.78.47-.12.94-.23,1.41-.33-.19.13-.34.3-.42.51-.21.19-.35.46-.36.8-.05,2.14-.44,5.52,2.49,5.69,1.93.12,3.91,0,5.84,0,1.65,0,3.7.3,5.28-.17.39-.12.83-.43.89-.84.2-1.32-.15-2.73-.31-4.05-.12-1.01-.16-1.81-1.31-2.16-1.47-.45-3.59-.07-5.13-.06-1.94.01-3.88.03-5.81.04,3.96-.76,8.05-1.11,11.97-1.97,1.05-.23,1.28-1.72.31-2.19ZM794.22,46.45c.19.8.35,1.82.36,2.63-.82.05-1.75-.06-2.49-.05-1.25,0-2.5,0-3.76,0-.68,0-2.5.29-3.02-.08-.36-.26-.35-1.47-.3-2.37,1.47-.01,2.94-.02,4.41-.03,1.38,0,3.3-.29,4.79-.1ZM779.78,41.01c-.16.63-.26,1.29-.33,1.95-.65.19-1.3.41-1.94.65-.06-2.28-.24-4.55-.52-6.82,5.19.6,10.23,1.88,15.02,3.81-3.31.54-6.64.94-9.89,1.66.04-.21.07-.42.12-.62.38-1.5-2.09-2.14-2.47-.64Z"/><path class="cls-1" d="M821.55,34.32c-1.44.76-.15,2.83,1.29,2.07,2.2-1.16,2.82,1.95,2.56,3.27-.29,1.48-1.04,2.88-2.23,3.89-2.19,1.86-5.52,2.48-8.38,2.42-.43,0-.9-.05-1.4-.11-.14-1.64-.26-3.29-.32-4.94-.06-1.54-2.62-1.55-2.56,0,.06,1.48.15,2.95.27,4.43-.82-.21-1.66-.48-2.48-.8-.19-2.13-.38-4.25-.57-6.38-.14-1.53-2.7-1.54-2.56,0,.15,1.7.3,3.39.46,5.09-2.59-1.55-4.42-3.74-3.8-6.5.34-1.51-2.13-2.15-2.47-.64-1,4.4,2.45,7.79,6.26,9.82.08.04.17.08.25.12.06.63.11,1.26.17,1.89-1.8-.2-3.59-.43-5.38-.71-1.61-.26-2.3,2.05-.68,2.31,2.09.33,4.18.59,6.28.82.03.29.05.57.08.86.14,1.53,2.7,1.54,2.56,0l-.05-.59c.96.08,1.93.14,2.9.2.49.38,1.24.42,1.7.11,1.62.08,3.25.12,4.88.13,1.65,0,1.65-2.39,0-2.4-1.55,0-3.1-.05-4.65-.12-.01-.09-.02-.18-.03-.26,1.8.14,3.62.05,5.39-.32,4.55-.95,8.28-3.8,8.93-8.3.49-3.39-2.49-7.44-6.43-5.36ZM811.1,48.41c-.82-.05-1.65-.11-2.47-.18l-.09-1c.82.28,1.66.51,2.51.69.02.16.03.33.05.49Z"/><path class="cls-1" d="M812.2,36.64c1.12,2.31,2.42,4.52,3.9,6.64.8,1.15,2.65.42,2.34-.92-.35-1.54-.24-3.1.4-4.56.41-.95,1.65-1.92,1.56-2.98-.07-.86-.81-1.26-1.66-1.27-1.84-.02-3.66.41-5.53.35-1.13-.04-1.49,1.09-1.06,1.81-.1.28-.11.6.05.93ZM816.81,36.21s-.03.05-.05.08c-.34.66-.62,1.37-.8,2.08-.39-.67-.75-1.36-1.11-2.05.48,0,.95-.03,1.43-.06.17-.01.35-.03.52-.05Z"/><path class="cls-1" d="M856.03,35.48c-3.66-1.71-8.09-1.29-12.07-1.33-4.79-.04-9.58-.01-14.37.01-.4,0-.69.15-.9.36-.84.23-1.43,1.26-.61,1.98,1.32,1.17,2.7,2.28,4.13,3.34-.15.11-.3.21-.44.33-3.98,3.32-1.11,8.03,1.49,11.15,1.01,1.22,2.82-.49,1.81-1.7-1.87-2.24-4.48-5.94-.98-8.08.1-.06.2-.1.3-.16.07.05.15.1.22.15,1.51.99,4.29,3.42,6.29,2.87,1-.27,1.92-1.26,2.73-1.8.81-.54,1.65-1.03,2.5-1.5,1.39.47,2.74,1.07,3.94,1.83,1.27.8,2.9,2.29,1.59,3.74-1.18,1.31-3.34,1.04-4.91.76-1.61-.29-2.3,2.02-.68,2.31,3.47.62,9.21-.14,8.62-4.7-.33-2.52-2.83-4.26-5.52-5.41,2.09-.87,4.27-1.51,6.52-1.96,1.05-.21,1.28-1.74.31-2.19ZM842.07,40.73c-.37.25-.74.51-1.09.78-.74.57-.53.42-1.32.21-.78-.21-1.65-.83-2.42-1.37,1.79-.38,3.71-.36,5.46-.1.03,0,.05.01.08.02-.24.15-.48.3-.71.46ZM844.75,38.21c-3.12-.72-6.98-.83-10.15.36-.91-.64-1.78-1.31-2.64-2.01,3.45-.02,6.9-.03,10.36-.01,2.51.01,5.51-.25,8.28,0-1.62.54-3.19,1.19-4.71,1.95-.4-.11-.78-.21-1.14-.29Z"/><path class="cls-1" d="M836.03,45.84c-.06,1.86-.11,3.72-.17,5.58-.05,1.54,2.51,1.54,2.56,0,.06-1.86.11-3.72.17-5.58.05-1.54-2.51-1.54-2.56,0Z"/><path class="cls-1" d="M839.21,46.44c.26,1.38.43,2.77.53,4.17.11,1.53,2.67,1.54,2.56,0-.11-1.61-.32-3.22-.62-4.81-.28-1.52-2.75-.88-2.47.64Z"/><path class="cls-1" d="M1220.48,21.53v1.65s4,.54,4.42,3.01v32.43h3V26.19c.41-2.47,4.42-3.01,4.42-3.01v-1.65h-11.84Z"/><path class="cls-1" d="M1235.54,21.53v1.65s4,.54,4.42,3.01v32.43h3V26.19c.42-2.47,4.42-3.01,4.42-3.01v-1.65h-11.84Z"/><path class="cls-1" d="M657.86,21.53v4h542.09s.06.08.09.12v33.35h4.23s0-20.28,0-20.23c0-9.52,5.38-17.23,12.02-17.23h-558.44Z"/><path class="cls-1" d="M290.77,32.75s.97,7.19,5.49,7.52h124.59c4.52-.33,5.49-7.52,5.49-7.52h2.79v20.04h-2.79s-.97-7.2-5.5-7.52h-124.57c-4.53.32-5.5,7.52-5.5,7.52h-2.79v-20.04h2.79Z"/><path class="cls-1" d="M106.77,38.65c3.69-.18,7.39-.23,11.08-.17.88.02,1.72.68,1.68,1.5-.04.8-.74,1.52-1.68,1.5-3.69-.07-7.39-.01-11.08.17-.88.04-1.72-.72-1.68-1.5.04-.85.74-1.45,1.68-1.5Z"/><path class="cls-1" d="M119.24,43.2c.85.35,1.86.37,2.75.15,1.16-.29,2.06-1.47,3.3-1.32,1.45.17,2.24,1.68,2.61,2.79.14.41.22.84.28,1.26,2.54-1.32,4.56-3.34,5.81-5.72.71-1.35,3.23-.68,3.14.76-.07,1.12-.47,2.09-.98,3.1-.37.74-.91,1.55-.9,2.38,0,.83.62,1.61.97,2.35.49,1.02.76,2.07.38,3.16-.63,1.84-3.89,1.06-3.25-.8.23-.67-.31-1.37-.62-1.96-.34-.64-.63-1.31-.77-2-1.47,1.03-3.11,1.88-4.88,2.48-1.05.35-2.12-.55-2.13-1.45,0-.85.05-1.99-.31-2.9-2.18,1.1-4.65,1.31-7.11.3-.83-.34-1.03-1.4-.6-2.05.5-.76,1.47-.88,2.3-.54Z"/><path class="cls-1" d="M139.38,44.62c.58,1.1,2,1.53,3.42,1.74-.07.21-.09.44-.04.7.57,2.91,3.15,5.17,6.21,6.12,3.64,1.13,7.65.29,11.01-1.15,3.38-1.45,6.66-3.53,9.59-5.61,2.92-2.08,5.16-4.79,5.43-8.2.07-.85-.77-1.37-1.59-1.49,5.33-.01,10.65.04,15.98.17-.18,2.26.04,4.49.65,6.69.52,1.88,3.77,1.08,3.25-.8-.36-1.3-.54-2.61-.58-3.92,1.7.67,3.37,1.42,4.99,2.24.36.18.8.5,1.21.68-.02.01-.04.02-.06.04-.17.11-.33.28-.48.42-.82.7-1.65,1.4-2.55,2.03-1.53,1.07-3.34,2.06-5.32,2.21-.18.01-.36.01-.54.01.05-.29.04-.64.03-.9-.03-.73-.29-1.42-.74-2.02-.33-.45-.77-.82-1.27-1.14.15-1.4-.39-2.76-2.03-3.63-2.01-1.07-5.37-1.48-7.47-.4-1.22.63-2.15,1.99-1.49,3.22.51.95,1.72,1.54,2.78,1.89,1.22.4,2.51.44,3.78.61-.39.39-.79.73-1.06.94-2.07,1.6-7.7,5.06-10.13,2.21-1.3-1.52-4.22-.02-2.91,1.51,2.06,2.41,5.47,2.98,8.61,2.02,3.1-.95,6.48-2.84,8.46-5.2.02-.02.04-.05.06-.08,0,.03.03.05.03.07.19.71-.2,1.42.09,2.16.22.56.66,1.06,1.25,1.36,1.07.55,2.47.42,3.63.25,3.09-.46,5.71-2.2,7.99-4.03,1.09-.88,2.52-1.84,2.9-3.17.36-1.27-.45-2.19-1.57-2.85-2.89-1.7-6.17-2.99-9.38-4.12-.09-.03-.17-.04-.26-.05-.13-.64-.66-1.22-1.59-1.24-9.17-.23-18.34-.25-27.51-.05-2.17.05-2.17,3.05,0,3,3.36-.07,6.72-.11,10.07-.12-1.23.15-2.31.75-3.39,1.35-1.6.88-3.26,1.32-5.15,1.31-.17,0-.32.02-.46.05-.24-.19-.51-.35-.85-.45-1.06-.31-2.37-.21-3.47-.21-1.34,0-2.68.05-4.02.15-2.15.16-2.16,3.16,0,3,1.79-.13,3.57-.19,5.36-.13.2,0,.4.02.61.02.01.17.03.36.03.39-.01.6-.02,1.06-.75,1.2-1.55.32-3.49.08-5.08.11-1.7.03-3.41.06-5.11.09-1.72.03-3.45.08-5.17-.08-.45-.04-.89-.1-1.33-.17-.06,0-.32-.06-.57-.1.09-.08.17-.16.26-.23.22-.16.47-.29.71-.42,2.31-1.26,5.13-2.24,5.65-4.91.23-1.19-.75-2.03-2.07-1.85-5.09.73-10.4.1-15.1-1.79-1.96-.79-3.67,1.8-1.7,2.59,4.31,1.73,8.87,2.54,13.5,2.43-.8.4-1.67.74-2.35,1.14-1.55.93-3.39,2.58-2.44,4.38ZM181.84,40.83c.58.04,1.25.12,1.82.31-.46-.05-.92-.09-1.38-.15-.32-.05-.66-.11-.98-.18.18,0,.36.01.54.02ZM146.12,46.62c2.18.1,4.37,0,6.54-.04,2.5-.04,5.06.05,7.54-.15,2.05-.17,3.59-1.23,3.96-3.07.06-.31.1-.64.12-.99,1.58-.05,3.12-.33,4.58-.9.69-.27,1.4-.74,2.13-1.13-.85,1.64-2.42,3-4.02,4.09-2.32,1.59-4.82,3.12-7.38,4.39-2.65,1.32-5.81,2.32-8.87,1.68-2.26-.47-4.05-1.89-4.61-3.88Z"/><path class="cls-1" d="M151.48,41.99c-2.17,0-2.17-3,0-3,2.17,0,2.17,3,0,3Z"/><path class="cls-1" d="M199.43,47.69c.1.75.82,1.28,1.65,1.3,1.01.03,2.01-.07,3-.24.29-.05.53-.19.73-.37,2.67-.49,5.31-1.08,7.93-1.77.46-.12.78-.37.98-.68,2.83,0,5.57-.71,8.38-1.19.2-.03.41-.06.61-.09.09.69.17,1.39.23,2.08.15,1.66.22,3.33.23,5,0,1.93,3.38,1.93,3.37,0,0-1.86-.1-3.71-.28-5.56-.09-.95-.17-1.92-.36-2.85-.22-1.07-1.22-1.76-2.43-1.76-1.02,0-2.1.25-3.09.44-.95.18-1.89.39-2.84.57-1.38.26-2.81.47-4.23.39-.14-.93-.08-1.91-.12-2.82-.03-.72-.1-1.45-.26-2.16,1.62.19,3.22.47,4.81.86,2.1.51,2.98-2.39.9-2.89-2.72-.66-5.5-1.05-8.31-1.2-1.2-.06-2.2,1.35-1.45,2.26.98,1.19.95,2.62.98,4.04.02,1.06.09,2.09.33,3.1-3.14.77-6.31,1.42-9.52,1.91-.84.13-1.3.97-1.21,1.65ZM222.62,44.02s0-.02.01,0c0,0,0,0-.01,0Z"/><path class="cls-1" d="M226.56,37.47c.56,0,1.13,0,1.69,0-.69.51-1.02,1.48-.26,2.25,2.61,2.68,7.51,4.31,8.32,8.09.3,1.41,2.98,1.45,3.25,0,.94-5.06,5.91-8.05,10.38-10.67,1.35-.79.89-2.81-.85-2.8-7.51.04-15.02.09-22.53.13-2.17.01-2.17,3.01,0,3ZM230.2,37.45l13.54-.08c-2.47,1.72-4.7,3.69-6.09,6.11-2.04-2.21-5.14-3.71-7.27-5.89-.05-.06-.11-.1-.17-.14Z"/><path class="cls-1" d="M246.42,40.86c.92.04,1.67.66,1.68,1.5,0,.48.03.96.08,1.44.02.24.05.48.08.72.01.09.02.18.04.28,0,.05.02.1.02.15.16.95.4,1.89.7,2.81.24.75-.3,1.67-1.18,1.85-.9.18-1.81-.24-2.07-1.05-.65-2-.99-4.1-1.03-6.18-.01-.78.78-1.54,1.68-1.5Z"/><path class="cls-1" d="M253.98,31.9c.81-.2,1.92.24,2.07,1.05.9,4.82,1.57,9.67,1.99,14.54.07.81-.82,1.5-1.68,1.5-.97,0-1.61-.69-1.68-1.5-.4-4.6-1.03-9.18-1.87-13.74-.15-.8.23-1.61,1.18-1.85Z"/><path class="cls-1" d="M259.84,45.34c-.43.91.64,1.91,1.62,1.9,5.03-.07,9.97.71,14.67,2.29,1.09.37,2.07-.56,2.13-1.45.1-1.5,0-2.98-.24-4.47-.12-.69-.21-1.41-.69-1.98-.51-.6-1.25-.83-2.08-.85-3.29-.1-6.62.08-9.91.12-1.22.01-1.75.96-1.6,1.79-.62.3-1.24.6-1.85.9-.95.46-1.61.84-2.05,1.76ZM273.52,43.8h1.04s.06,0,.09,0c0,.04.02.08.03.12.04.2.08.41.11.61.07.49.11.98.13,1.47-2.65-.75-5.38-1.25-8.14-1.52.15-.18.23-.39.25-.6,2.16-.03,4.32-.05,6.49-.08Z"/><path class="cls-1" d="M276.42,38.99c-4.33.05-8.69.09-12.91,1.02-1.06.23-2.13-.45-2.13-1.45,0-1.29,0-2.57-.01-3.86,0-1.93,3.36-1.93,3.37,0,0,.67,0,1.35,0,2.02,3.85-.62,7.78-.69,11.69-.73,2.17-.02,2.17,2.98,0,3Z"/><path class="cls-1" d="M585.77,47.68c.36.18.73.36,1.1.54-.32,1.42-.66,2.84-1.03,4.25-.39,1.5,2.08,2.14,2.47.64.34-1.29.65-2.58.94-3.87,1.87.71,3.81,1.27,5.77,1.57,2.69.41,5.49-.14,6.95-2.5,1.27-2.06.75-4.36-.73-6.15-1.01-1.22-2.81.49-1.81,1.7,1.09,1.33.89,3.14-.55,4.13-1.36.93-3.12.57-4.63.23-1.53-.35-3.03-.82-4.49-1.39.18-.88.36-1.76.53-2.64,3.12-.28,6.88-.62,9.21-2.54,1.71-1.4,1.71-3.63.06-5.09-2.13-1.89-6.18-1.93-8.93-1.82-3.68.15-14.56,1.81-11.99,7.37,0,0,0,0,0,.01-.29-.01-.57-.03-.86-.04-.09-.08-.2-.15-.34-.2-1.14-.45-1.92-.39-2.87.38-.92.74-.09,1.96.91,2.05,1.72.15,3.44.23,5.16.27,1.53,1.3,3.5,2.32,5.1,3.13ZM587.99,37.38c.34-.06.68-.11,1.03-.15-.11.15-.19.33-.22.55-.2,1.41-.43,2.81-.68,4.2-2.15.18-4.31.24-6.46.21-.22-.26-.4-.52-.52-.8-1.15-2.66,5.04-3.72,6.84-4.02ZM590.75,41.71c.22-1.31.43-2.62.61-3.93.04-.29-.02-.53-.15-.71,1.71-.05,3.44.1,5.02.51,1.16.3,1.92.59,1.65,1.69-.22.88-.75,1.02-1.59,1.32-1.2.43-2.49.67-3.76.87-.59.09-1.19.17-1.78.25ZM587.4,45.77c-.11-.06-.23-.1-.34-.16-.59-.3-1.36-.66-2.14-1.08.92-.03,1.84-.09,2.76-.16-.09.46-.18.93-.28,1.39Z"/><path class="cls-1" d="M568.76,50.13c0-.17,0-.34,0-.52-1.14.24-2.63-.04-3.65-.06-1.65-.03-1.65-2.39,0-2.4.95,0,1.9-.02,2.86-.02.02-.07.04-.12.07-.21.07-.4.15-.8.22-1.19.07-.38.28-.63.55-.76.16-4.19.63-8.36,1.41-12.5.29-1.52,2.75-.87,2.47.64-.87,4.64-1.32,9.31-1.38,14,3.37-.03,6.73-.06,10.1-.08,1.65-.01,1.65,2.39,0,2.4-3.37.03-6.73.06-10.1.08,0,.21,0,.42,0,.63,0,.23-.05.42-.14.58,2.25-.16,4.5-.34,6.74-.55,1.64-.15,1.63,2.25,0,2.4-4.17.39-8.35.7-12.53.91-1.65.08-1.64-2.32,0-2.4,1.21-.06,2.42-.15,3.63-.23-.15-.18-.25-.42-.26-.71Z"/><path class="cls-1" d="M544.43,40.31c.42,1.24.1,3.7.14,4.73.06,1.67.12,3.34.17,5.02.04,1.11,1.33,1.48,2.19.85,1.18-.87,2.49-1.11,3.96-.96,1.64.16,1.62-2.24,0-2.4-1.33-.13-2.53.04-3.65.48-.07-2.15-.15-4.3-.22-6.46-.01-.31-.02-.64-.04-.98.07,0,.13,0,.2.01.87.75,1.73,1.51,2.56,2.31,1.26,1.22,2.46,2.48,3.59,3.8,1.11,1.29,2.78,2.86,2.78,4.62,0,1.17,1.77,1.66,2.39.61,1.35-2.31,2.52-4.68,3.55-7.13.61-1.44-1.87-2.06-2.47-.64-.57,1.34-1.21,2.65-1.88,3.95-.44-.77-1-1.52-1.61-2.24.35-.18.61-.51.65-.98.1-1.33.17-2.67.2-4,1.69-.01,3.39-.04,5.08-.12,1.64-.07,1.65-2.47,0-2.4-1.69.07-3.38.11-5.07.12,0-.62-.02-1.24-.05-1.87-.06-1.54-2.62-1.54-2.56,0,.02.62.04,1.24.05,1.86-2.05-.03-4.1-.1-6.14-.22-.92-.76-1.86-1.51-2.83-2.23,5.66-.67,11.34-1.05,17.04-1.15,1.65-.03,1.65-2.43,0-2.4-6.92.11-13.8.65-20.64,1.58-1.21.16-1.08,1.67-.31,2.19.94.63,1.86,1.3,2.76,1.98-.73.46-.67,1.63.18,2.05ZM551.08,40.81c1.1.04,2.19.07,3.29.09-.02,1-.07,2-.13,3-.6-.6-1.19-1.18-1.7-1.7-.47-.48-.96-.93-1.45-1.39Z"/><path class="cls-1" d="M531.41,46.36c-.75,0-1.21-.55-1.28-1.2-.15-1.31-.19-2.63-.11-3.95.09-1.54,2.65-1.55,2.56,0-.08,1.32-.04,2.63.11,3.95.07.65-.64,1.2-1.28,1.2Z"/><path class="cls-1" d="M519.84,46.7c.97-.01,1.94,0,2.91,0-.56-1.23-.73-2.62-.31-4.18.66-2.46,2.81-4.14,5.04-5.39,1.38-.77,2.85-1.41,4.34-1.99,1.26-.49,2.72-1.23,4.08-1.36,2.47-.24,3.34,2.79,3.39,4.62.03,1-.17,2.01-.85,2.82-.84.99-2.79,1.29-3.26,2.45-.58,1.43-3.06.81-2.47-.64.57-1.41,1.52-1.79,2.74-2.64,1.25-.88,1.49-1.69,1.09-3.08-.49-1.71-.21-.9-1.23-.86-.92.04-2.37.82-3.19,1.16-.92.38-1.82.79-2.69,1.24-1.65.86-3.45,1.9-4.24,3.59-.78,1.67-.46,3.1.44,4.25,3.62,0,7.23.03,10.85.11,1.65.04,1.65,2.44,0,2.4-2.44-.06-4.87-.08-7.31-.1,1.2.47,2.47.75,3.58.83,1.47.1,5.01.44,6.15-.59.55-.49.24-2.09.23-2.72-.01-.96-.06-1.92-.11-2.88-.09-1.54,2.47-1.54,2.56,0,.12,2.06,1.01,5.94-1.01,7.42-2.02,1.47-5.81,1.33-8.19,1.14-2.76-.22-5.8-1.35-7.83-3.21-1.57,0-3.13,0-4.7.01-1.65.02-1.65-2.38,0-2.4Z"/><path class="cls-1" d="M564.87,36.12c.4-1.5,2.88-.86,2.47.64-.47,1.75-.84,3.52-1.11,5.32-.23,1.52-2.69.87-2.47-.64.27-1.79.64-3.56,1.11-5.32Z"/><path class="cls-1" d="M499.03,42.22c3.92.86,8.01,1.21,11.97,1.97-1.94-.01-3.88-.03-5.81-.04-1.54-.01-3.66-.39-5.13.06-1.14.35-1.18,1.15-1.31,2.16-.16,1.32-.51,2.74-.31,4.05.06.41.51.72.89.84,1.58.48,3.63.17,5.28.17,1.93,0,3.91.11,5.84,0,2.94-.18,2.55-3.55,2.49-5.69,0-.35-.15-.61-.36-.8-.08-.21-.23-.37-.42-.51.47.1.94.21,1.41.33.05,1.94-.14,3.95-.14,5.78,0,1.55,2.56,1.54,2.56,0,0-1.61.12-3.33.12-5.04.82.28,1.63.6,2.42.96.85.39,1.93-.08,1.93-1.04,0-3.27.22-6.53.69-9.78.17-1.18-1.29-1.83-2.05-1.33-7.14.73-13.98,2.63-20.38,5.71-.97.47-.74,1.96.31,2.19ZM506.02,46.55c1.47.01,2.94.02,4.41.03.05.89.06,2.11-.3,2.37-.52.37-2.34.08-3.02.08-1.25,0-2.5,0-3.76,0-.74,0-1.66.11-2.49.05.01-.81.17-1.83.36-2.63,1.49-.19,3.4.09,4.79.1ZM513.2,41.65c.05.2.08.41.12.62-3.24-.73-6.58-1.13-9.89-1.66,4.79-1.93,9.83-3.22,15.02-3.81-.28,2.27-.46,4.54-.52,6.82-.64-.24-1.29-.46-1.94-.65-.07-.66-.17-1.32-.33-1.95-.38-1.5-2.85-.86-2.47.64Z"/><path class="cls-1" d="M467.47,39.69c.65,4.5,4.39,7.34,8.93,8.3,1.77.37,3.59.47,5.39.32,0,.09-.02.18-.03.26-1.55.07-3.1.11-4.65.12-1.65,0-1.65,2.41,0,2.4,1.63,0,3.26-.06,4.88-.13.46.31,1.21.27,1.7-.11.97-.06,1.93-.11,2.9-.2l-.05.59c-.14,1.54,2.42,1.53,2.56,0,.03-.29.05-.57.08-.86,2.1-.23,4.19-.48,6.28-.82,1.62-.26.93-2.57-.68-2.31-1.79.29-3.59.51-5.38.71.06-.63.11-1.26.17-1.89.08-.04.17-.08.25-.12,3.81-2.04,7.26-5.42,6.26-9.82-.34-1.51-2.81-.87-2.47.64.63,2.76-1.2,4.95-3.8,6.5.15-1.7.3-3.39.46-5.09.14-1.54-2.42-1.53-2.56,0-.19,2.13-.38,4.25-.57,6.38-.82.32-1.66.58-2.48.8.12-1.47.21-2.95.27-4.43.06-1.55-2.5-1.54-2.56,0-.06,1.65-.18,3.29-.32,4.94-.5.06-.97.1-1.4.11-2.86.06-6.19-.56-8.38-2.42-1.19-1.01-1.94-2.42-2.23-3.89-.26-1.32.36-4.43,2.56-3.27,1.44.76,2.73-1.31,1.29-2.07-3.93-2.08-6.92,1.97-6.43,5.36ZM484.4,47.92c.85-.18,1.69-.41,2.51-.69l-.09,1c-.82.07-1.65.13-2.47.18.02-.16.03-.33.05-.49Z"/><path class="cls-1" d="M483.3,35.72c.43-.72.07-1.85-1.06-1.81-1.87.06-3.7-.37-5.53-.35-.85,0-1.58.41-1.66,1.27-.09,1.06,1.14,2.04,1.56,2.98.64,1.46.75,3.02.4,4.56-.31,1.34,1.54,2.07,2.34.92,1.48-2.12,2.78-4.33,3.9-6.64.16-.33.16-.65.05-.93ZM479.16,36.26c.48.04.95.05,1.43.06-.35.69-.72,1.37-1.11,2.05-.18-.72-.45-1.42-.8-2.08-.01-.03-.03-.05-.05-.08.17.02.35.04.52.05Z"/><path class="cls-1" d="M439.72,37.68c2.25.45,4.43,1.09,6.52,1.96-2.69,1.15-5.2,2.89-5.52,5.41-.59,4.57,5.15,5.33,8.62,4.7,1.62-.29.93-2.6-.68-2.31-1.57.28-3.73.55-4.91-.76-1.31-1.45.32-2.94,1.59-3.74,1.2-.76,2.55-1.36,3.94-1.83.86.47,1.7.96,2.5,1.5.81.54,1.72,1.53,2.73,1.8,2,.55,4.79-1.88,6.29-2.87.08-.05.15-.1.22-.15.1.06.21.1.3.16,3.51,2.14.89,5.84-.98,8.08-1,1.2.8,2.91,1.81,1.7,2.6-3.11,5.47-7.83,1.49-11.15-.14-.12-.29-.22-.44-.33,1.43-1.05,2.81-2.16,4.13-3.34.82-.73.23-1.75-.61-1.98-.21-.21-.5-.36-.9-.36-4.79-.03-9.58-.05-14.37-.01-3.98.03-8.41-.39-12.07,1.33-.97.45-.74,1.98.31,2.19ZM452.67,40.27s.06-.01.08-.02c1.74-.26,3.66-.28,5.46.1-.76.54-1.63,1.16-2.42,1.37-.79.21-.58.36-1.32-.21-.35-.27-.72-.53-1.09-.78-.23-.16-.47-.3-.71-.46ZM449.56,38.5c-1.51-.76-3.09-1.41-4.71-1.95,2.77-.26,5.77,0,8.28,0,3.45-.02,6.9,0,10.36.01-.86.69-1.74,1.37-2.64,2.01-3.16-1.19-7.03-1.08-10.15-.36-.36.08-.74.18-1.14.29Z"/><path class="cls-1" d="M459.42,45.84c.06,1.86.11,3.72.17,5.58.05,1.54-2.51,1.54-2.56,0-.06-1.86-.11-3.72-.17-5.58-.05-1.54,2.51-1.54,2.56,0Z"/><path class="cls-1" d="M456.23,46.44c-.26,1.38-.43,2.77-.53,4.17-.11,1.53-2.67,1.54-2.56,0,.11-1.61.32-3.22.62-4.81.28-1.52,2.75-.87,2.47.64Z"/><path class="cls-1" d="M74.97,21.53v1.65s-4,.54-4.42,3.01v32.43h-3V26.19c-.41-2.47-4.42-3.01-4.42-3.01v-1.65h11.84Z"/><path class="cls-1" d="M59.9,21.53v1.65s-4,.54-4.42,3.01v32.43h-3V26.19c-.42-2.47-4.42-3.01-4.42-3.01v-1.65h11.84Z"/><path class="cls-1" d="M79.15,21.53c6.64,0,12.02,7.72,12.02,17.23,0-.05,0,20.23,0,20.23h4.23s0-33.35,0-33.35c.03-.04.06-.08.09-.12h542.09s0-4,0-4c0,0-554.32,0-558.44,0Z"/><path class="cls-1" d="M678.38,80.94s-1,7.98-5.58,8.83h-50.16c-4.58-.85-5.58-8.83-5.58-8.83h-3.06v23.66h3.06s1-7.98,5.58-8.83h50.15c4.59.85,5.58,8.83,5.58,8.83h3.06v-23.66h-3.06Z"/><path class="cls-1" d="M1244.77,88.12s-.64,4.75-3.31,6.71v-.03h-513.49l-74.05-80.9c-4.22-4.71-6.2-13.9-6.2-13.9,0,0-1.98,9.19-6.2,13.9l-74.05,80.9H53.98v.03c-2.67-1.96-3.31-6.71-3.31-6.71h-2.79v20.04h2.79s.64-4.75,3.31-6.71v.04s499.95.02,500.61.02c14.81,0,21.28,11.4,21.28,11.4,0,0-4.37-10.71,3.2-20.87l68.66-75.01,68.66,75.01c7.57,10.16,3.2,20.87,3.2,20.87,0,0,6.47-11.4,21.28-11.4.66,0,500.61-.02,500.61-.02v-.04c2.67,1.96,3.31,6.71,3.31,6.71h2.79v-20.04h-2.79Z"/><path class="cls-1" d="M631.04,850.69c-1.98-3.09-3.14-6.75-3.14-10.69,0-10.95,8.88-19.82,19.82-19.82,10.95,0,19.82,8.88,19.82,19.82,0,3.94-1.15,7.61-3.14,10.69,3.19-3.79,5.11-8.68,5.11-14.02,0-12.04-9.76-21.8-21.8-21.8-12.04,0-21.8,9.76-21.8,21.8,0,5.34,1.92,10.23,5.11,14.02Z"/><path class="cls-1" d="M1004.68,863.05s-.97-7.19-5.49-7.52h-124.59c-4.52.33-5.49,7.52-5.49,7.52h-2.79v-20.04h2.79s.97,7.2,5.5,7.52h124.57c4.53-.32,5.5-7.52,5.5-7.52h2.79v20.04h-2.79Z"/><path class="cls-1" d="M1188.67,857.16c-3.69.18-7.39.23-11.08.17-.88-.02-1.72-.68-1.68-1.5.04-.8.74-1.52,1.68-1.5,3.69.07,7.39.01,11.08-.17.88-.04,1.72.72,1.68,1.5-.04.85-.74,1.45-1.68,1.5Z"/><path class="cls-1" d="M1176.21,852.6c-.85-.35-1.86-.37-2.75-.15-1.16.29-2.06,1.47-3.3,1.32-1.45-.17-2.24-1.68-2.61-2.79-.14-.41-.22-.84-.28-1.26-2.54,1.32-4.56,3.34-5.81,5.72-.71,1.35-3.23.68-3.14-.76.07-1.12.47-2.09.98-3.1.37-.74.91-1.55.9-2.38,0-.83-.62-1.61-.97-2.35-.49-1.02-.76-2.07-.38-3.16.63-1.84,3.89-1.06,3.25.8-.23.67.31,1.37.62,1.96.34.64.63,1.31.77,2,1.47-1.03,3.11-1.88,4.88-2.48,1.05-.35,2.12.55,2.13,1.45,0,.85-.05,1.99.31,2.9,2.18-1.1,4.65-1.31,7.11-.3.83.34,1.03,1.4.6,2.05-.5.76-1.47.88-2.3.54Z"/><path class="cls-1" d="M1156.06,851.19c-.58-1.1-2-1.53-3.42-1.74.07-.21.09-.44.04-.7-.57-2.91-3.15-5.17-6.21-6.12-3.64-1.13-7.65-.29-11.01,1.15-3.38,1.45-6.66,3.53-9.59,5.61-2.92,2.08-5.16,4.79-5.43,8.2-.07.85.77,1.37,1.59,1.49-5.33.01-10.65-.04-15.98-.17.18-2.26-.04-4.49-.65-6.69-.52-1.88-3.77-1.08-3.25.8.36,1.3.54,2.61.58,3.92-1.7-.67-3.37-1.42-4.99-2.24-.36-.18-.8-.5-1.21-.68.02-.01.04-.02.06-.04.17-.11.33-.28.48-.42.82-.7,1.65-1.4,2.55-2.03,1.53-1.07,3.34-2.06,5.32-2.21.18-.01.36-.01.54-.01-.05.29-.04.64-.03.9.03.73.29,1.42.74,2.02.33.45.77.82,1.27,1.14-.15,1.4.39,2.76,2.03,3.63,2.01,1.07,5.37,1.48,7.47.4,1.22-.63,2.15-1.99,1.49-3.22-.51-.95-1.72-1.54-2.78-1.89-1.22-.4-2.51-.44-3.78-.61.39-.39.79-.73,1.06-.94,2.07-1.6,7.7-5.06,10.13-2.21,1.3,1.52,4.22.02,2.91-1.51-2.06-2.41-5.47-2.98-8.61-2.02-3.1.95-6.48,2.84-8.46,5.2-.02.02-.04.05-.06.08,0-.03-.03-.05-.03-.07-.19-.71.2-1.42-.09-2.16-.22-.56-.66-1.06-1.25-1.36-1.07-.55-2.47-.42-3.63-.25-3.09.46-5.71,2.2-7.99,4.03-1.09.88-2.52,1.84-2.9,3.17-.36,1.27.45,2.19,1.57,2.85,2.89,1.7,6.17,2.99,9.38,4.12.09.03.17.04.26.05.13.64.66,1.22,1.59,1.24,9.17.23,18.34.25,27.51.05,2.17-.05,2.17-3.05,0-3-3.36.07-6.72.11-10.07.12,1.23-.15,2.31-.75,3.39-1.35,1.6-.88,3.26-1.32,5.15-1.31.17,0,.32-.02.46-.05.24.19.51.35.85.45,1.06.31,2.37.21,3.47.21,1.34,0,2.68-.05,4.02-.15,2.15-.16,2.16-3.16,0-3-1.79.13-3.57.19-5.36.13-.2,0-.4-.02-.61-.02-.01-.17-.03-.36-.03-.39.01-.6.02-1.06.75-1.2,1.55-.32,3.49-.08,5.08-.11,1.7-.03,3.41-.06,5.11-.09,1.72-.03,3.45-.08,5.17.08.45.04.89.1,1.33.17.06,0,.32.06.57.1-.09.08-.17.16-.26.23-.22.16-.47.29-.71.42-2.31,1.26-5.13,2.24-5.65,4.91-.23,1.19.75,2.03,2.07,1.85,5.09-.73,10.4-.1,15.1,1.79,1.96.79,3.67-1.8,1.7-2.59-4.31-1.73-8.87-2.54-13.5-2.43.8-.4,1.67-.74,2.35-1.14,1.55-.93,3.39-2.58,2.44-4.38ZM1113.6,854.98c-.58-.04-1.25-.12-1.82-.31.46.05.92.09,1.38.15.32.05.66.11.98.18-.18,0-.36-.01-.54-.02ZM1149.33,849.18c-2.18-.1-4.37,0-6.54.04-2.5.04-5.06-.05-7.54.15-2.05.17-3.59,1.23-3.96,3.07-.06.31-.1.64-.12.99-1.58.05-3.12.33-4.58.9-.69.27-1.4.74-2.13,1.13.85-1.64,2.42-3,4.02-4.09,2.32-1.59,4.82-3.12,7.38-4.39,2.65-1.32,5.81-2.32,8.87-1.68,2.26.47,4.05,1.89,4.61,3.88Z"/><path class="cls-1" d="M1143.97,853.82c2.17,0,2.17,3,0,3s-2.17-3,0-3Z"/><path class="cls-1" d="M1096.02,848.12c-.1-.75-.82-1.28-1.65-1.3-1.01-.03-2.01.07-3,.24-.29.05-.53.19-.73.37-2.67.49-5.31,1.08-7.93,1.77-.46.12-.78.37-.98.68-2.83,0-5.57.71-8.38,1.19-.2.03-.41.06-.61.09-.09-.69-.17-1.39-.23-2.08-.15-1.66-.22-3.33-.23-5,0-1.93-3.38-1.93-3.37,0,0,1.86.1,3.71.28,5.56.09.95.17,1.92.36,2.85.22,1.07,1.22,1.76,2.43,1.76,1.02,0,2.1-.25,3.09-.44.95-.18,1.89-.39,2.84-.57,1.38-.26,2.81-.47,4.23-.39.14.93.08,1.91.12,2.82.03.72.1,1.45.26,2.16-1.62-.19-3.22-.47-4.81-.86-2.1-.51-2.98,2.39-.9,2.89,2.72.66,5.5,1.05,8.31,1.2,1.2.06,2.2-1.35,1.45-2.26-.98-1.19-.95-2.62-.98-4.04-.02-1.06-.09-2.09-.33-3.1,3.14-.77,6.31-1.42,9.52-1.91.84-.13,1.3-.97,1.21-1.65ZM1072.83,851.78s0,.02-.01,0c0,0,0,0,.01,0Z"/><path class="cls-1" d="M1068.89,858.34c-.56,0-1.13,0-1.69,0,.69-.51,1.02-1.48.26-2.25-2.61-2.68-7.51-4.31-8.32-8.09-.3-1.41-2.98-1.45-3.25,0-.94,5.06-5.91,8.05-10.38,10.67-1.35.79-.89,2.81.85,2.8,7.51-.04,15.02-.09,22.53-.13,2.17-.01,2.17-3.01,0-3ZM1065.24,858.36l-13.54.08c2.47-1.72,4.7-3.69,6.09-6.11,2.04,2.21,5.14,3.71,7.27,5.89.05.06.11.1.17.14Z"/><path class="cls-1" d="M1049.03,854.94c-.92-.04-1.67-.66-1.68-1.5,0-.48-.03-.96-.08-1.44-.02-.24-.05-.48-.08-.72-.01-.09-.02-.18-.04-.28,0-.05-.02-.1-.02-.15-.16-.95-.4-1.89-.7-2.81-.24-.75.3-1.67,1.18-1.85.9-.18,1.81.24,2.07,1.05.65,2,.99,4.1,1.03,6.18.01.78-.78,1.54-1.68,1.5Z"/><path class="cls-1" d="M1041.47,863.91c-.81.2-1.92-.24-2.07-1.05-.9-4.82-1.57-9.67-1.99-14.54-.07-.81.82-1.5,1.68-1.5.97,0,1.61.69,1.68,1.5.4,4.6,1.03,9.18,1.87,13.74.15.8-.23,1.61-1.18,1.85Z"/><path class="cls-1" d="M1035.61,850.46c.43-.91-.64-1.91-1.62-1.9-5.03.07-9.97-.71-14.67-2.29-1.09-.37-2.07.56-2.13,1.45-.1,1.5,0,2.98.24,4.47.12.69.21,1.41.69,1.98.51.6,1.25.83,2.08.85,3.29.1,6.62-.08,9.91-.12,1.22-.01,1.75-.96,1.6-1.79.62-.3,1.24-.6,1.85-.9.95-.46,1.61-.84,2.05-1.76ZM1021.93,852.01h-1.04s-.06,0-.09,0c0-.04-.02-.08-.03-.12-.04-.2-.08-.41-.11-.61-.07-.49-.11-.98-.13-1.47,2.65.75,5.38,1.25,8.14,1.52-.15.18-.23.39-.25.6-2.16.03-4.32.05-6.49.08Z"/><path class="cls-1" d="M1019.03,856.82c4.33-.05,8.69-.09,12.91-1.02,1.06-.23,2.13.45,2.13,1.45,0,1.29,0,2.57.01,3.86,0,1.93-3.36,1.93-3.37,0,0-.67,0-1.35,0-2.02-3.85.62-7.78.69-11.69.73-2.17.02-2.17-2.98,0-3Z"/><path class="cls-1" d="M709.68,848.12c-.36-.18-.73-.36-1.1-.54.32-1.42.66-2.84,1.03-4.25.39-1.5-2.08-2.14-2.47-.64-.34,1.29-.65,2.58-.94,3.87-1.87-.71-3.81-1.27-5.77-1.57-2.69-.41-5.49.14-6.95,2.5-1.27,2.06-.75,4.36.73,6.15,1.01,1.22,2.81-.49,1.81-1.7-1.09-1.33-.89-3.14.55-4.13,1.36-.93,3.12-.57,4.63-.23,1.53.35,3.03.82,4.49,1.39-.18.88-.36,1.76-.53,2.64-3.12.28-6.88.62-9.21,2.54-1.71,1.4-1.71,3.63-.06,5.09,2.13,1.89,6.18,1.93,8.93,1.82,3.68-.15,14.56-1.81,11.99-7.37,0,0,0,0,0-.01.29.01.57.03.86.04.09.08.2.15.34.2,1.14.45,1.92.39,2.87-.38.92-.74.09-1.96-.91-2.05-1.72-.15-3.44-.23-5.16-.27-1.53-1.3-3.5-2.32-5.1-3.13ZM707.46,858.42c-.34.06-.68.11-1.03.15.11-.15.19-.33.22-.55.2-1.41.43-2.81.68-4.2,2.15-.18,4.31-.24,6.46-.21.22.26.4.52.52.8,1.15,2.66-5.04,3.72-6.84,4.02ZM704.7,854.1c-.22,1.31-.43,2.62-.61,3.93-.04.29.02.53.15.71-1.71.05-3.44-.1-5.02-.51-1.16-.3-1.92-.59-1.65-1.69.22-.88.75-1.02,1.59-1.32,1.2-.43,2.49-.67,3.76-.87.59-.09,1.19-.17,1.78-.25ZM708.05,850.04c.11.06.23.1.34.16.59.3,1.36.66,2.14,1.08-.92.03-1.84.09-2.76.16.09-.46.18-.93.28-1.39Z"/><path class="cls-1" d="M726.69,845.67c0,.17,0,.34,0,.52,1.14-.24,2.63.04,3.65.06,1.65.03,1.65,2.39,0,2.4-.95,0-1.9.02-2.86.02-.02.07-.04.12-.07.21-.07.4-.15.8-.22,1.19-.07.38-.28.63-.55.76-.16,4.19-.63,8.36-1.41,12.5-.29,1.52-2.75.88-2.47-.64.87-4.64,1.32-9.31,1.38-14-3.37.03-6.73.06-10.1.08-1.65.01-1.65-2.39,0-2.4,3.37-.03,6.73-.06,10.1-.08,0-.21,0-.42,0-.63,0-.23.05-.42.14-.58-2.25.16-4.5.34-6.74.55-1.64.15-1.63-2.25,0-2.4,4.17-.39,8.35-.7,12.53-.91,1.65-.08,1.64,2.32,0,2.4-1.21.06-2.42.15-3.63.23.15.18.25.42.26.71Z"/><path class="cls-1" d="M751.02,855.49c-.42-1.24-.1-3.7-.14-4.73-.06-1.67-.12-3.34-.17-5.02-.04-1.11-1.33-1.48-2.19-.85-1.18.87-2.49,1.11-3.96.96-1.64-.16-1.62,2.24,0,2.4,1.33.13,2.53-.04,3.65-.48.07,2.15.15,4.3.22,6.46.01.31.02.64.04.98-.07,0-.13,0-.2-.01-.87-.75-1.73-1.51-2.56-2.31-1.26-1.22-2.46-2.48-3.59-3.8-1.11-1.29-2.78-2.86-2.78-4.62,0-1.17-1.77-1.66-2.39-.61-1.35,2.31-2.52,4.68-3.55,7.13-.61,1.44,1.87,2.06,2.47.64.57-1.34,1.21-2.65,1.88-3.95.44.77,1,1.52,1.61,2.24-.35.18-.61.51-.65.98-.1,1.33-.17,2.67-.2,4-1.69.01-3.39.04-5.08.12-1.64.07-1.65,2.47,0,2.4,1.69-.07,3.38-.11,5.07-.12,0,.62.02,1.24.05,1.87.06,1.54,2.62,1.54,2.56,0-.02-.62-.04-1.24-.05-1.86,2.05.03,4.1.1,6.14.22.92.76,1.86,1.51,2.83,2.23-5.66.67-11.34,1.05-17.04,1.15-1.65.03-1.65,2.43,0,2.4,6.92-.11,13.8-.65,20.64-1.58,1.21-.16,1.08-1.67.31-2.19-.94-.63-1.86-1.3-2.76-1.98.73-.46.67-1.63-.18-2.05ZM744.37,854.99c-1.1-.04-2.19-.07-3.29-.09.02-1,.07-2,.13-3,.6.6,1.19,1.18,1.7,1.7.47.48.96.93,1.45,1.39Z"/><path class="cls-1" d="M764.04,849.45c.75,0,1.21.55,1.28,1.2.15,1.31.19,2.63.11,3.95-.09,1.54-2.65,1.55-2.56,0,.08-1.32.04-2.63-.11-3.95-.07-.65.64-1.2,1.28-1.2Z"/><path class="cls-1" d="M775.61,849.11c-.97.01-1.94,0-2.91,0,.56,1.23.73,2.62.31,4.18-.66,2.46-2.81,4.14-5.04,5.39-1.38.77-2.85,1.41-4.34,1.99-1.26.49-2.72,1.23-4.08,1.36-2.47.24-3.34-2.79-3.39-4.62-.03-1,.17-2.01.85-2.82.84-.99,2.79-1.29,3.26-2.45.58-1.43,3.06-.81,2.47.64-.57,1.41-1.52,1.79-2.74,2.64-1.25.88-1.49,1.69-1.09,3.08.49,1.71.21.9,1.23.86.92-.04,2.37-.82,3.19-1.16.92-.38,1.82-.79,2.69-1.24,1.65-.86,3.45-1.9,4.24-3.59.78-1.67.46-3.1-.44-4.25-3.62,0-7.23-.03-10.85-.11-1.65-.04-1.65-2.44,0-2.4,2.44.06,4.87.08,7.31.1-1.2-.47-2.47-.75-3.58-.83-1.47-.1-5.01-.44-6.15.59-.55.49-.24,2.09-.23,2.72.01.96.06,1.92.11,2.88.09,1.54-2.47,1.54-2.56,0-.12-2.06-1.01-5.94,1.01-7.42,2.02-1.47,5.81-1.33,8.19-1.14,2.76.22,5.8,1.35,7.83,3.21,1.57,0,3.13,0,4.7-.01,1.65-.02,1.65,2.38,0,2.4Z"/><path class="cls-1" d="M730.57,859.68c-.4,1.5-2.88.86-2.47-.64.47-1.75.84-3.52,1.11-5.32.23-1.52,2.69-.88,2.47.64-.27,1.79-.64,3.56-1.11,5.32Z"/><path class="cls-1" d="M796.42,853.59c-3.92-.86-8.01-1.21-11.97-1.97,1.94.01,3.88.03,5.81.04,1.54.01,3.66.39,5.13-.06,1.14-.35,1.18-1.15,1.31-2.16.16-1.32.51-2.74.31-4.05-.06-.41-.51-.72-.89-.84-1.58-.48-3.63-.17-5.28-.17-1.93,0-3.91-.11-5.84,0-2.94.18-2.55,3.55-2.49,5.69,0,.35.15.61.36.8.08.21.23.37.42.51-.47-.1-.94-.21-1.41-.33-.05-1.94.14-3.95.14-5.78,0-1.55-2.56-1.54-2.56,0,0,1.61-.12,3.33-.12,5.04-.82-.28-1.63-.6-2.42-.96-.85-.39-1.93.08-1.93,1.04,0,3.27-.22,6.53-.69,9.78-.17,1.18,1.29,1.83,2.05,1.33,7.14-.73,13.98-2.63,20.38-5.71.97-.47.74-1.96-.31-2.19ZM789.43,849.25c-1.47-.01-2.94-.02-4.41-.03-.05-.89-.06-2.11.3-2.37.52-.37,2.34-.08,3.02-.08,1.25,0,2.5,0,3.76,0,.74,0,1.66-.11,2.49-.05-.01.81-.17,1.83-.36,2.63-1.49.19-3.4-.09-4.79-.1ZM782.25,854.15c-.05-.2-.08-.41-.12-.62,3.24.73,6.58,1.12,9.89,1.66-4.79,1.93-9.83,3.22-15.02,3.81.28-2.27.46-4.54.52-6.82.64.24,1.29.46,1.94.65.07.66.17,1.32.33,1.95.38,1.5,2.85.86,2.47-.64Z"/><path class="cls-1" d="M827.97,856.12c-.65-4.5-4.39-7.34-8.93-8.3-1.77-.37-3.59-.47-5.39-.32,0-.09.02-.18.03-.26,1.55-.07,3.1-.11,4.65-.12,1.65,0,1.65-2.41,0-2.4-1.63,0-3.26.06-4.88.13-.46-.31-1.21-.27-1.7.11-.97.06-1.93.11-2.9.2l.05-.59c.14-1.54-2.42-1.53-2.56,0-.03.29-.05.57-.08.86-2.1.23-4.19.48-6.28.82-1.62.26-.93,2.57.68,2.31,1.79-.29,3.59-.51,5.38-.71-.06.63-.11,1.26-.17,1.89-.08.04-.17.08-.25.12-3.81,2.04-7.26,5.42-6.26,9.82.34,1.51,2.81.87,2.47-.64-.63-2.76,1.2-4.95,3.8-6.5-.15,1.7-.3,3.39-.46,5.09-.14,1.54,2.42,1.53,2.56,0,.19-2.13.38-4.25.57-6.38.82-.32,1.66-.58,2.48-.8-.12,1.47-.21,2.95-.27,4.43-.06,1.55,2.5,1.54,2.56,0,.06-1.65.18-3.29.32-4.94.5-.06.97-.1,1.4-.11,2.86-.06,6.19.56,8.38,2.42,1.19,1.01,1.94,2.42,2.23,3.89.26,1.32-.36,4.43-2.56,3.27-1.44-.76-2.73,1.31-1.29,2.07,3.93,2.08,6.92-1.97,6.43-5.36ZM811.05,847.89c-.85.18-1.69.41-2.51.69l.09-1c.82-.07,1.65-.13,2.47-.18-.02.16-.03.33-.05.49Z"/><path class="cls-1" d="M812.14,860.09c-.43.72-.07,1.85,1.06,1.81,1.87-.06,3.7.37,5.53.35.85,0,1.58-.41,1.66-1.27.09-1.06-1.14-2.04-1.56-2.98-.64-1.46-.75-3.02-.4-4.56.31-1.34-1.54-2.07-2.34-.92-1.48,2.12-2.78,4.33-3.9,6.64-.16.33-.16.65-.05.93ZM816.29,859.55c-.48-.04-.95-.05-1.43-.06.35-.69.72-1.37,1.11-2.05.18.72.45,1.42.8,2.08.01.03.03.05.05.08-.17-.02-.35-.04-.52-.05Z"/><path class="cls-1" d="M855.72,858.13c-2.25-.45-4.43-1.09-6.52-1.96,2.69-1.15,5.2-2.89,5.52-5.41.59-4.57-5.15-5.33-8.62-4.7-1.62.29-.93,2.6.68,2.31,1.57-.28,3.73-.55,4.91.76,1.31,1.45-.32,2.94-1.59,3.74-1.2.76-2.55,1.36-3.94,1.83-.86-.47-1.7-.96-2.5-1.5-.81-.54-1.72-1.53-2.73-1.8-2-.55-4.79,1.88-6.29,2.87-.08.05-.15.1-.22.15-.1-.06-.21-.1-.3-.16-3.51-2.14-.89-5.84.98-8.08,1-1.2-.8-2.91-1.81-1.7-2.6,3.11-5.47,7.83-1.49,11.15.14.12.29.22.44.33-1.43,1.05-2.81,2.16-4.13,3.34-.82.73-.23,1.75.61,1.98.21.21.5.36.9.36,4.79.03,9.58.05,14.37.01,3.98-.03,8.41.39,12.07-1.33.97-.45.74-1.98-.31-2.19ZM842.78,855.53s-.06.01-.08.02c-1.74.26-3.66.28-5.46-.1.76-.54,1.63-1.16,2.42-1.37.79-.21.58-.36,1.32.21.35.27.72.53,1.09.78.23.16.47.3.71.46ZM845.89,857.31c1.51.76,3.09,1.41,4.71,1.95-2.77.26-5.77,0-8.28,0-3.45.02-6.9,0-10.36-.01.86-.69,1.74-1.37,2.64-2.01,3.16,1.19,7.03,1.08,10.15.36.36-.08.74-.18,1.14-.29Z"/><path class="cls-1" d="M836.03,849.97c-.06-1.86-.11-3.72-.17-5.58-.05-1.54,2.51-1.54,2.56,0,.06,1.86.11,3.72.17,5.58.05,1.54-2.51,1.54-2.56,0Z"/><path class="cls-1" d="M839.21,849.37c.26-1.38.43-2.77.53-4.17.11-1.53,2.67-1.54,2.56,0-.11,1.61-.32,3.22-.62,4.81-.28,1.52-2.75.88-2.47-.64Z"/><path class="cls-1" d="M1220.48,874.27v-1.65s4-.54,4.42-3.01v-32.43h3v32.43c.41,2.47,4.42,3.01,4.42,3.01v1.65h-11.84Z"/><path class="cls-1" d="M1235.54,874.27v-1.65s4-.54,4.42-3.01v-32.43h3v32.43c.42,2.47,4.42,3.01,4.42,3.01v1.65h-11.84Z"/><path class="cls-1" d="M1216.29,874.27c-6.64,0-12.02-7.72-12.02-17.23,0,.05,0-20.23,0-20.23h-4.23v33.35s-.06.08-.09.12h-542.09v4h558.44Z"/><path class="cls-1" d="M290.77,863.05s.97-7.19,5.49-7.52h124.59c4.52.33,5.49,7.52,5.49,7.52h2.79v-20.04h-2.79s-.97,7.2-5.5,7.52h-124.57c-4.53-.32-5.5-7.52-5.5-7.52h-2.79v20.04h2.79Z"/><path class="cls-1" d="M106.77,857.16c3.69.18,7.39.23,11.08.17.88-.02,1.72-.68,1.68-1.5-.04-.8-.74-1.52-1.68-1.5-3.69.07-7.39.01-11.08-.17-.88-.04-1.72.72-1.68,1.5.04.85.74,1.45,1.68,1.5Z"/><path class="cls-1" d="M119.24,852.6c.85-.35,1.86-.37,2.75-.15,1.16.29,2.06,1.47,3.3,1.32,1.45-.17,2.24-1.68,2.61-2.79.14-.41.22-.84.28-1.26,2.54,1.32,4.56,3.34,5.81,5.72.71,1.35,3.23.68,3.14-.76-.07-1.12-.47-2.09-.98-3.1-.37-.74-.91-1.55-.9-2.38,0-.83.62-1.61.97-2.35.49-1.02.76-2.07.38-3.16-.63-1.84-3.89-1.06-3.25.8.23.67-.31,1.37-.62,1.96-.34.64-.63,1.31-.77,2-1.47-1.03-3.11-1.88-4.88-2.48-1.05-.35-2.12.55-2.13,1.45,0,.85.05,1.99-.31,2.9-2.18-1.1-4.65-1.31-7.11-.3-.83.34-1.03,1.4-.6,2.05.5.76,1.47.88,2.3.54Z"/><path class="cls-1" d="M141.82,855.57c.68.4,1.55.74,2.35,1.14-4.63-.11-9.19.7-13.5,2.43-1.97.79-.26,3.38,1.7,2.59,4.7-1.89,10.01-2.52,15.1-1.79,1.33.19,2.3-.65,2.07-1.85-.52-2.68-3.34-3.66-5.65-4.91-.24-.13-.49-.26-.71-.42-.1-.07-.18-.15-.26-.23.25-.04.51-.09.57-.1.44-.08.88-.13,1.33-.17,1.71-.16,3.45-.11,5.17-.08,1.7.03,3.41.06,5.11.09,1.59.03,3.53-.21,5.08.11.73.15.74.61.75,1.2,0,.04-.02.22-.03.39-.2,0-.4.02-.61.02-1.79.06-3.58,0-5.36-.13-2.16-.16-2.15,2.84,0,3,1.34.1,2.68.16,4.02.15,1.1,0,2.41.1,3.47-.21.34-.1.61-.26.85-.45.14.03.29.06.46.05,1.89-.01,3.54.43,5.15,1.31,1.08.6,2.16,1.19,3.39,1.35-3.36-.02-6.72-.05-10.07-.12-2.17-.05-2.17,2.95,0,3,9.17.2,18.34.18,27.51-.05.94-.02,1.47-.6,1.59-1.24.09-.01.17-.02.26-.05,3.21-1.13,6.49-2.42,9.38-4.12,1.12-.66,1.93-1.58,1.57-2.85-.38-1.33-1.8-2.29-2.9-3.17-2.27-1.83-4.89-3.57-7.99-4.03-1.16-.17-2.56-.29-3.63.25-.58.3-1.03.8-1.25,1.36-.29.74.1,1.46-.09,2.16,0,.03-.03.05-.03.07-.02-.02-.04-.05-.06-.08-1.97-2.36-5.36-4.25-8.46-5.2-3.15-.97-6.55-.4-8.61,2.02-1.31,1.54,1.61,3.03,2.91,1.51,2.43-2.85,8.06.61,10.13,2.21.27.21.67.55,1.06.94-1.27.17-2.55.21-3.78.61-1.07.35-2.27.94-2.78,1.89-.66,1.23.26,2.59,1.49,3.22,2.1,1.08,5.46.67,7.47-.4,1.64-.88,2.18-2.23,2.03-3.63.49-.32.93-.7,1.27-1.14.45-.6.71-1.29.74-2.02.01-.26.02-.61-.03-.9.18,0,.36,0,.54.01,1.98.15,3.79,1.14,5.32,2.21.89.63,1.73,1.32,2.55,2.03.15.13.31.3.48.42.03.02.04.03.06.04-.41.18-.85.5-1.21.68-1.62.82-3.29,1.57-4.99,2.24.04-1.32.22-2.62.58-3.92.52-1.87-2.72-2.67-3.25-.8-.61,2.2-.84,4.43-.65,6.69-5.33.13-10.65.19-15.98.17.83-.11,1.66-.63,1.59-1.49-.27-3.41-2.51-6.11-5.43-8.2-2.93-2.09-6.2-4.16-9.59-5.61-3.36-1.44-7.37-2.28-11.01-1.15-3.06.95-5.64,3.21-6.21,6.12-.05.25-.03.49.04.7-1.42.21-2.84.64-3.42,1.74-.96,1.8.88,3.46,2.44,4.38ZM181.31,855c.33-.08.66-.14.98-.18.46-.06.92-.11,1.38-.15-.57.19-1.24.28-1.82.31-.17.01-.35.02-.54.02ZM150.73,845.3c3.05-.64,6.22.36,8.87,1.68,2.56,1.27,5.06,2.8,7.38,4.39,1.6,1.09,3.17,2.45,4.02,4.09-.73-.39-1.44-.86-2.13-1.13-1.46-.57-3-.85-4.58-.9-.02-.34-.06-.68-.12-.99-.37-1.85-1.91-2.91-3.96-3.07-2.49-.2-5.05-.11-7.54-.15-2.17-.04-4.37-.13-6.54-.04.56-1.99,2.35-3.41,4.61-3.88Z"/><path class="cls-1" d="M151.48,853.82c-2.17,0-2.17,3,0,3,2.17,0,2.17-3,0-3Z"/><path class="cls-1" d="M200.64,849.76c3.21.49,6.38,1.14,9.52,1.91-.25,1-.31,2.04-.33,3.1-.03,1.42,0,2.85-.98,4.04-.74.91.25,2.32,1.45,2.26,2.81-.15,5.6-.54,8.31-1.2,2.09-.51,1.2-3.4-.9-2.89-1.59.38-3.19.66-4.81.86.16-.71.23-1.44.26-2.16.04-.91-.02-1.89.12-2.82,1.42-.08,2.85.13,4.23.39.95.18,1.89.39,2.84.57.99.19,2.08.44,3.09.44,1.21,0,2.21-.69,2.43-1.76.19-.94.27-1.91.36-2.85.19-1.85.28-3.71.28-5.56,0-1.93-3.36-1.93-3.37,0,0,1.67-.08,3.33-.23,5-.06.7-.14,1.39-.23,2.08-.2-.03-.41-.06-.61-.09-2.81-.48-5.55-1.2-8.38-1.19-.2-.31-.52-.56-.98-.68-2.61-.69-5.26-1.28-7.93-1.77-.2-.18-.44-.32-.73-.37-.99-.18-1.99-.27-3-.24-.83.02-1.55.55-1.65,1.3-.09.68.37,1.52,1.21,1.65ZM222.63,851.78s0,.03-.01,0c0,0,0,0,.01,0Z"/><path class="cls-1" d="M226.56,861.34c7.51.04,15.02.09,22.53.13,1.74.01,2.2-2,.85-2.8-4.47-2.62-9.44-5.61-10.38-10.67-.27-1.45-2.94-1.41-3.25,0-.81,3.79-5.71,5.42-8.32,8.09-.76.78-.43,1.74.26,2.25-.56,0-1.13,0-1.69,0-2.17-.01-2.17,2.99,0,3ZM230.37,858.21c2.13-2.19,5.23-3.68,7.27-5.89,1.4,2.42,3.63,4.4,6.09,6.11l-13.54-.08c.06-.05.12-.09.17-.14Z"/><path class="cls-1" d="M246.42,854.94c.92-.04,1.67-.66,1.68-1.5,0-.48.03-.96.08-1.44.02-.24.05-.48.08-.72.01-.09.02-.18.04-.28,0-.05.02-.1.02-.15.16-.95.4-1.89.7-2.81.24-.75-.3-1.67-1.18-1.85-.9-.18-1.81.24-2.07,1.05-.65,2-.99,4.1-1.03,6.18-.01.78.78,1.54,1.68,1.5Z"/><path class="cls-1" d="M253.98,863.91c.81.2,1.92-.24,2.07-1.05.9-4.82,1.57-9.67,1.99-14.54.07-.81-.82-1.5-1.68-1.5-.97,0-1.61.69-1.68,1.5-.4,4.6-1.03,9.18-1.87,13.74-.15.8.23,1.61,1.18,1.85Z"/><path class="cls-1" d="M261.89,852.22c.62.3,1.24.6,1.85.9-.15.83.39,1.78,1.6,1.79,3.29.04,6.62.22,9.91.12.83-.03,1.57-.25,2.08-.85.48-.57.57-1.3.69-1.98.25-1.48.35-2.97.24-4.47-.06-.89-1.04-1.81-2.13-1.45-4.7,1.58-9.64,2.36-14.67,2.29-.98-.01-2.05.99-1.62,1.9.43.92,1.09,1.3,2.05,1.76ZM267.03,851.93c-.03-.21-.1-.41-.25-.6,2.76-.27,5.49-.77,8.14-1.52-.02.49-.06.99-.13,1.47-.03.2-.07.41-.11.61,0,.04-.02.08-.03.12-.03,0-.07,0-.09,0h-1.04c-2.16-.04-4.32-.06-6.49-.09Z"/><path class="cls-1" d="M276.42,856.82c-4.33-.05-8.69-.09-12.91-1.02-1.06-.23-2.13.45-2.13,1.45,0,1.29,0,2.57-.01,3.86,0,1.93,3.36,1.93,3.37,0,0-.67,0-1.35,0-2.02,3.85.62,7.78.69,11.69.73,2.17.02,2.17-2.98,0-3Z"/><path class="cls-1" d="M580.66,851.25c-1.72.04-3.44.12-5.16.27-1,.09-1.82,1.3-.91,2.05.95.77,1.73.84,2.87.38.14-.06.25-.13.34-.2.28-.02.57-.03.86-.04,0,0,0,0,0,.01-2.57,5.57,8.3,7.22,11.99,7.37,2.75.11,6.79.07,8.93-1.82,1.65-1.46,1.65-3.69-.06-5.09-2.34-1.92-6.1-2.26-9.21-2.54-.17-.88-.34-1.76-.53-2.64,1.45-.57,2.95-1.04,4.49-1.39,1.5-.34,3.27-.7,4.63.23,1.45.99,1.65,2.8.55,4.13-1,1.21.8,2.92,1.81,1.7,1.48-1.79,2-4.1.73-6.15-1.46-2.36-4.26-2.91-6.95-2.5-1.96.3-3.9.85-5.77,1.57-.3-1.29-.61-2.59-.94-3.87-.39-1.5-2.86-.86-2.47.64.37,1.41.71,2.83,1.03,4.25-.37.17-.74.35-1.1.54-1.6.81-3.58,1.83-5.1,3.13ZM581.15,854.41c.12-.28.3-.54.52-.8,2.16-.03,4.32.04,6.46.21.25,1.4.48,2.8.68,4.2.03.21.11.39.22.55-.35-.04-.69-.09-1.03-.15-1.8-.3-7.99-1.36-6.84-4.02ZM592.53,854.35c1.27.2,2.55.44,3.76.87.84.3,1.37.45,1.59,1.32.27,1.1-.49,1.39-1.65,1.69-1.58.41-3.31.56-5.02.51.13-.18.19-.42.15-.71-.19-1.31-.39-2.62-.61-3.93.6.08,1.19.15,1.78.25ZM587.68,851.43c-.92-.07-1.84-.12-2.76-.16.78-.42,1.55-.78,2.14-1.08.11-.06.23-.1.34-.16.1.46.19.93.28,1.39Z"/><path class="cls-1" d="M568.76,845.67c0,.17,0,.34,0,.52-1.14-.24-2.63.04-3.65.06-1.65.03-1.65,2.39,0,2.4.95,0,1.9.02,2.86.02.02.07.04.12.07.21.07.4.15.8.22,1.19.07.38.28.63.55.76.16,4.19.63,8.36,1.41,12.5.29,1.52,2.75.87,2.47-.64-.87-4.64-1.32-9.31-1.38-14,3.37.03,6.73.06,10.1.08,1.65.01,1.65-2.39,0-2.4-3.37-.03-6.73-.06-10.1-.08,0-.21,0-.42,0-.63,0-.23-.05-.42-.14-.58,2.25.16,4.5.34,6.74.55,1.64.15,1.63-2.25,0-2.4-4.17-.39-8.35-.7-12.53-.91-1.65-.08-1.64,2.32,0,2.4,1.21.06,2.42.15,3.63.23-.15.18-.25.42-.26.71Z"/><path class="cls-1" d="M544.25,857.54c-.9.68-1.81,1.34-2.76,1.98-.78.52-.9,2.03.31,2.19,6.84.93,13.73,1.47,20.64,1.58,1.65.03,1.65-2.37,0-2.4-5.7-.09-11.39-.48-17.04-1.15.97-.72,1.91-1.46,2.83-2.23,2.05-.12,4.09-.2,6.14-.22,0,.62-.02,1.24-.05,1.86-.06,1.54,2.5,1.54,2.56,0,.03-.62.04-1.25.05-1.87,1.69.01,3.38.04,5.07.12,1.65.07,1.64-2.33,0-2.4-1.69-.07-3.39-.11-5.08-.12-.03-1.34-.09-2.67-.2-4-.04-.47-.3-.79-.65-.98.61-.72,1.17-1.47,1.61-2.24.67,1.29,1.31,2.6,1.88,3.95.6,1.42,3.08.8,2.47-.64-1.03-2.45-2.21-4.82-3.55-7.13-.62-1.06-2.39-.56-2.39.61,0,1.76-1.66,3.33-2.78,4.62-1.13,1.32-2.33,2.59-3.59,3.8-.83.8-1.68,1.56-2.56,2.31-.07,0-.14,0-.2.01.02-.33.03-.67.04-.98.07-2.15.15-4.3.22-6.46,1.12.44,2.32.61,3.65.48,1.62-.16,1.64-2.56,0-2.4-1.46.15-2.77-.09-3.96-.96-.85-.63-2.15-.27-2.19.85-.06,1.67-.12,3.34-.17,5.02-.04,1.03.28,3.5-.14,4.73-.84.42-.91,1.59-.18,2.05ZM552.53,853.6c.52-.52,1.1-1.09,1.7-1.7.06,1,.11,2,.13,3-1.1.01-2.19.05-3.29.09.49-.46.98-.92,1.45-1.39Z"/><path class="cls-1" d="M531.41,849.45c-.75,0-1.21.55-1.28,1.2-.15,1.31-.19,2.63-.11,3.95.09,1.54,2.65,1.55,2.56,0-.08-1.32-.04-2.63.11-3.95.07-.65-.64-1.2-1.28-1.2Z"/><path class="cls-1" d="M519.84,849.11c.97.01,1.94,0,2.91,0-.56,1.23-.73,2.62-.31,4.18.66,2.46,2.81,4.14,5.04,5.39,1.38.77,2.85,1.41,4.34,1.99,1.26.49,2.72,1.23,4.08,1.36,2.47.24,3.34-2.79,3.39-4.62.03-1-.17-2.01-.85-2.82-.84-.99-2.79-1.29-3.26-2.45-.58-1.43-3.06-.81-2.47.64.57,1.41,1.52,1.79,2.74,2.64,1.25.88,1.49,1.69,1.09,3.08-.49,1.71-.21.9-1.23.86-.92-.04-2.37-.82-3.19-1.16-.92-.38-1.82-.79-2.69-1.24-1.65-.86-3.45-1.9-4.24-3.59-.78-1.67-.46-3.1.44-4.25,3.62,0,7.23-.03,10.85-.11,1.65-.04,1.65-2.44,0-2.4-2.44.06-4.87.08-7.31.1,1.2-.47,2.47-.75,3.58-.83,1.47-.1,5.01-.44,6.15.59.55.49.24,2.09.23,2.72-.01.96-.06,1.92-.11,2.88-.09,1.54,2.47,1.54,2.56,0,.12-2.06,1.01-5.94-1.01-7.42-2.02-1.47-5.81-1.33-8.19-1.14-2.76.22-5.8,1.35-7.83,3.21-1.57,0-3.13,0-4.7-.01-1.65-.02-1.65,2.38,0,2.4Z"/><path class="cls-1" d="M564.87,859.68c.4,1.5,2.88.86,2.47-.64-.47-1.75-.84-3.52-1.11-5.32-.23-1.52-2.69-.87-2.47.64.27,1.79.64,3.56,1.11,5.32Z"/><path class="cls-1" d="M498.72,855.78c6.4,3.08,13.24,4.98,20.38,5.71.76.5,2.22-.15,2.05-1.33-.48-3.24-.69-6.5-.69-9.78,0-.96-1.07-1.43-1.93-1.04-.79.37-1.6.68-2.42.96,0-1.7-.12-3.42-.12-5.04,0-1.54-2.56-1.55-2.56,0,0,1.83.19,3.84.14,5.78-.47.12-.94.23-1.41.33.19-.13.34-.3.42-.51.21-.19.35-.46.36-.8.05-2.14.44-5.52-2.49-5.69-1.93-.12-3.91,0-5.84,0-1.65,0-3.7-.3-5.28.17-.39.12-.83.43-.89.84-.2,1.32.15,2.73.31,4.05.12,1.01.16,1.81,1.31,2.16,1.47.45,3.59.07,5.13.06,1.94-.01,3.88-.03,5.81-.04-3.96.76-8.05,1.11-11.97,1.97-1.05.23-1.28,1.72-.31,2.19ZM501.23,849.36c-.19-.8-.35-1.82-.36-2.63.82-.05,1.75.06,2.49.05,1.25,0,2.5,0,3.76,0,.68,0,2.5-.29,3.02.08.36.26.35,1.47.3,2.37-1.47.01-2.94.02-4.41.03-1.38,0-3.3.29-4.79.1ZM515.67,854.79c.16-.63.26-1.29.33-1.95.65-.19,1.3-.41,1.94-.65.06,2.28.24,4.55.52,6.82-5.19-.6-10.23-1.88-15.02-3.81,3.31-.54,6.64-.94,9.89-1.66-.04.21-.07.42-.12.62-.38,1.5,2.09,2.14,2.47.64Z"/><path class="cls-1" d="M473.9,861.48c1.44-.76.15-2.83-1.29-2.07-2.2,1.16-2.82-1.95-2.56-3.27.29-1.48,1.04-2.88,2.23-3.89,2.19-1.86,5.52-2.48,8.38-2.42.43,0,.9.05,1.4.11.14,1.64.26,3.29.32,4.94.06,1.54,2.62,1.55,2.56,0-.06-1.48-.15-2.95-.27-4.43.82.21,1.66.48,2.48.8.19,2.13.38,4.25.57,6.38.14,1.53,2.7,1.54,2.56,0-.15-1.7-.3-3.39-.46-5.09,2.59,1.55,4.42,3.74,3.8,6.5-.34,1.51,2.13,2.15,2.47.64,1-4.4-2.45-7.79-6.26-9.82-.08-.04-.17-.08-.25-.12-.06-.63-.11-1.26-.17-1.89,1.8.2,3.59.43,5.38.71,1.61.26,2.3-2.05.68-2.31-2.09-.33-4.18-.59-6.28-.82-.03-.29-.05-.57-.08-.86-.14-1.53-2.7-1.54-2.56,0l.05.59c-.96-.08-1.93-.14-2.9-.2-.49-.38-1.24-.42-1.7-.11-1.62-.08-3.25-.12-4.88-.13-1.65,0-1.65,2.39,0,2.4,1.55,0,3.1.05,4.65.12.01.09.02.18.03.26-1.8-.14-3.62-.05-5.39.32-4.55.95-8.28,3.8-8.93,8.3-.49,3.39,2.49,7.44,6.43,5.36ZM484.35,847.4c.82.05,1.65.11,2.47.18l.09,1c-.82-.28-1.66-.51-2.51-.69-.02-.16-.03-.33-.05-.49Z"/><path class="cls-1" d="M483.25,859.16c-1.12-2.31-2.42-4.52-3.9-6.64-.8-1.15-2.65-.42-2.34.92.35,1.54.24,3.1-.4,4.56-.41.95-1.65,1.92-1.56,2.98.07.86.81,1.26,1.66,1.27,1.84.02,3.66-.41,5.53-.35,1.13.04,1.49-1.09,1.06-1.81.1-.28.11-.6-.05-.93ZM478.64,859.6s.03-.05.05-.08c.34-.66.62-1.37.8-2.08.39.67.75,1.36,1.11,2.05-.48,0-.95.03-1.43.06-.17.01-.35.03-.52.05Z"/><path class="cls-1" d="M439.42,860.32c3.66,1.71,8.09,1.29,12.07,1.33,4.79.04,9.58.01,14.37-.01.4,0,.69-.15.9-.36.84-.23,1.43-1.26.61-1.98-1.32-1.17-2.7-2.28-4.13-3.34.15-.11.3-.21.44-.33,3.98-3.32,1.11-8.03-1.49-11.15-1.01-1.22-2.82.49-1.81,1.7,1.87,2.24,4.48,5.94.98,8.08-.1.06-.2.1-.3.16-.07-.05-.15-.1-.22-.15-1.51-.99-4.29-3.42-6.29-2.87-1,.27-1.92,1.26-2.73,1.8-.81.54-1.65,1.03-2.5,1.5-1.39-.47-2.74-1.07-3.94-1.83-1.27-.8-2.9-2.29-1.59-3.74,1.18-1.31,3.34-1.04,4.91-.76,1.61.29,2.3-2.02.68-2.31-3.47-.62-9.21.14-8.62,4.7.33,2.52,2.83,4.26,5.52,5.41-2.09.87-4.27,1.51-6.52,1.96-1.05.21-1.28,1.74-.31,2.19ZM453.37,855.07c.37-.25.74-.51,1.09-.78.74-.57.53-.42,1.32-.21.78.21,1.65.83,2.42,1.37-1.79.38-3.71.36-5.46.1-.03,0-.05-.01-.08-.02.24-.15.48-.3.71-.46ZM450.7,857.59c3.12.72,6.98.83,10.15-.36.91.64,1.78,1.31,2.64,2.01-3.45.02-6.9.03-10.36.01-2.51-.01-5.51.25-8.28,0,1.62-.54,3.19-1.19,4.71-1.95.4.11.78.21,1.14.29Z"/><path class="cls-1" d="M459.42,849.97c.06-1.86.11-3.72.17-5.58.05-1.54-2.51-1.54-2.56,0-.06,1.86-.11,3.72-.17,5.58-.05,1.54,2.51,1.54,2.56,0Z"/><path class="cls-1" d="M456.23,849.37c-.26-1.38-.43-2.77-.53-4.17-.11-1.53-2.67-1.54-2.56,0,.11,1.61.32,3.22.62,4.81.28,1.52,2.75.87,2.47-.64Z"/><path class="cls-1" d="M74.97,874.27v-1.65s-4-.54-4.42-3.01v-32.43h-3v32.43c-.41,2.47-4.42,3.01-4.42,3.01v1.65h11.84Z"/><path class="cls-1" d="M59.9,874.27v-1.65s-4-.54-4.42-3.01v-32.43h-3v32.43c-.42,2.47-4.42,3.01-4.42,3.01v1.65h11.84Z"/><path class="cls-1" d="M637.59,874.27v-4H95.5s-.06-.08-.09-.12v-33.35h-4.23s0,20.28,0,20.23c0,9.52-5.38,17.23-12.02,17.23,4.11,0,558.44,0,558.44,0Z"/><path class="cls-1" d="M678.38,814.86s-1-7.98-5.58-8.83h-50.16c-4.58.85-5.58,8.83-5.58,8.83h-3.06v-23.66h3.06s1,7.98,5.58,8.83h50.15c4.59-.85,5.58-8.83,5.58-8.83h3.06v23.66h-3.06Z"/><path class="cls-1" d="M1244.77,807.69s-.64-4.75-3.31-6.71v.03h-513.49l-74.05,80.9c-4.22,4.71-6.2,13.9-6.2,13.9,0,0-1.98-9.19-6.2-13.9l-74.05-80.9H53.98v-.03c-2.67,1.96-3.31,6.71-3.31,6.71h-2.79v-20.04h2.79s.64,4.75,3.31,6.71v-.04s499.95-.02,500.61-.02c14.81,0,21.28-11.4,21.28-11.4,0,0-4.37,10.71,3.2,20.87l68.66,75.01,68.66-75.01c7.57-10.16,3.2-20.87,3.2-20.87,0,0,6.47,11.4,21.28,11.4.66,0,500.61.02,500.61.02v.04c2.67-1.96,3.31-6.71,3.31-6.71h2.79v20.04h-2.79Z"/></g></svg>