<?xml version="1.0" encoding="UTF-8"?><svg id="Layer_1" xmlns="http://www.w3.org/2000/svg" viewBox="0 0 1407.31 831.78"><defs><style>.cls-1{fill:#fff;}</style></defs><g id="WindowFrame_6"><path class="cls-1" d="M129.43,433.89v-36c0,4.82-8,4.82-8,0v36c0-4.82,8-4.82,8,0Z"/><path class="cls-1" d="M60.16,433.89v-36c0,4.82,8,4.82,8,0v36c0-4.82-8-4.82-8,0Z"/><path class="cls-1" d="M98.1,801.67h.03v-350.45c5.36-5.74,15.15-18.52,15.15-35.32s-9.79-29.58-15.15-35.32V30.12h-.03c1.96-2.67,6.71-3.31,6.71-3.31v-2.79h-20.04v2.79s4.75.64,6.71,3.31h-.03v350.46c-5.36,5.74-15.15,18.52-15.15,35.32s9.78,29.58,15.15,35.32v350.45h.03c-1.96,2.67-6.71,3.31-6.71,3.31v2.79h20.04v-2.79s-4.75-.64-6.71-3.31ZM94.8,385.81c4.91,5.56,12.49,16.36,12.49,30.08s-7.58,24.52-12.49,30.08c-4.91-5.56-12.49-16.36-12.49-30.08s7.58-24.52,12.49-30.08Z"/><path class="cls-1" d="M145.46,404.07s-1,7.98-5.58,8.83H49.72c-4.58-.85-5.58-8.83-5.58-8.83h-3.06v23.66h3.06s1-7.98,5.59-8.83h90.15c4.59.85,5.59,8.83,5.59,8.83h3.06v-23.66h-3.06Z"/><path class="cls-1" d="M54.48,347.35c0-1.83-.31-3.6-.88-5.24.05.5.08,1.01.08,1.53,0,8.47-6.87,15.33-15.33,15.33-8.47,0-15.33-6.87-15.33-15.33,0-.51.03-1.02.08-1.53-.56,1.64-.88,3.4-.88,5.24,0,8.91,7.22,16.13,16.13,16.13,8.91,0,16.13-7.22,16.13-16.13Z"/><path class="cls-1" d="M38.35,328.47c0,6.44,2.57,13.64,6.52,13.64-3.96,0-6.52,5.25-6.52,8.85,0-3.6-2.57-8.85-6.52-8.85,3.96,0,6.52-7.21,6.52-13.64Z"/><path class="cls-1" d="M54.48,484.43c0,1.83-.31,3.6-.88,5.24.05-.5.08-1.01.08-1.53,0-8.47-6.87-15.33-15.33-15.33-8.47,0-15.33,6.87-15.33,15.33,0,.51.03,1.02.08,1.53-.56-1.64-.88-3.4-.88-5.24,0-8.91,7.22-16.13,16.13-16.13,8.91,0,16.13,7.22,16.13,16.13Z"/><path class="cls-1" d="M38.35,503.31c0-6.44,2.57-13.64,6.52-13.64-3.96,0-6.52-5.25-6.52-8.85,0,3.6-2.57,8.85-6.52,8.85,3.96,0,6.52,7.21,6.52,13.64Z"/><path class="cls-1" d="M1277.88,433.89v-36c0,4.82,8,4.82,8,0v36c0-4.82-8-4.82-8,0Z"/><path class="cls-1" d="M1347.15,433.89v-36c0,4.82-8,4.82-8,0v36c0-4.82,8-4.82,8,0Z"/><path class="cls-1" d="M1361.38,461.82h0c6.73,0,13.11-1.47,18.88-4.08,3.39-1.53,6.56-3.47,9.45-5.74,10.7-8.42,17.6-21.47,17.6-36.11s-6.9-27.69-17.6-36.1c-2.89-2.27-6.06-4.21-9.45-5.74-5.76-2.61-12.15-4.07-18.88-4.07h0c-4.51,0-8.88.65-13,1.88V27.73c0-.08,0-.15,0-.24,0-23.49,18-27.49,18-27.49H40.94s17.91,3.99,17.99,27.34v344.51c-4.12-1.23-8.49-1.88-13-1.88-25.32,0-45.93,20.6-45.93,45.92s20.61,45.93,45.93,45.93c4.51,0,8.88-.65,13-1.88v344.5c-.08,23.35-17.99,27.34-17.99,27.34h1325.44s-18-4-18-27.49c0-.08,0-.15,0-.24v-344.11c4.12,1.23,8.49,1.88,13,1.88ZM1340.38,823.79H66.93v-374.35c-2.49,1.58-5.17,2.87-8,3.86-4.07,1.42-8.45,2.19-13,2.19-21.83,0-39.59-17.77-39.59-39.6s17.76-39.59,39.59-39.59c4.55,0,8.93.77,13,2.19,2.83.99,5.51,2.28,8,3.86V8h1273.45v374.35s0,0,0,0h0c.38-.24.78-.47,1.18-.7,1.36-.8,2.78-1.51,4.24-2.15.85-.36,1.7-.71,2.58-1.02,4.07-1.42,8.45-2.19,13-2.19,3.75,0,7.38.54,10.82,1.52,16.58,4.72,28.77,20,28.77,38.07s-12.18,33.36-28.77,38.08c-3.44.98-7.07,1.52-10.82,1.52-4.55,0-8.93-.77-13-2.19-.85-.3-1.68-.63-2.5-.98-1.51-.65-2.97-1.39-4.37-2.21-.38-.22-.76-.44-1.13-.67h0s0,0,0,0v374.35Z"/><path class="cls-1" d="M1315.82,801.67h.03v-350.45c5.36-5.74,15.15-18.52,15.15-35.32s-9.78-29.58-15.15-35.32V30.12h-.03c1.96-2.67,6.71-3.31,6.71-3.31v-2.79h-20.04v2.79s4.75.64,6.71,3.31h-.03v350.46c-5.36,5.74-15.15,18.52-15.15,35.32s9.78,29.58,15.15,35.32v350.45h.03c-1.96,2.67-6.71,3.31-6.71,3.31v2.79h20.04v-2.79s-4.75-.64-6.71-3.31ZM1312.52,385.81c4.91,5.56,12.49,16.36,12.49,30.08s-7.58,24.52-12.49,30.08c-4.91-5.56-12.49-16.36-12.49-30.08s7.58-24.52,12.49-30.08Z"/><path class="cls-1" d="M1366.24,415.9c0,5.28,0,11.83,0,11.83h-3.06s-1.11-8.91-6.38-8.91c-5.28,0-5.28-5.83,0-5.83,5.28,0,6.38-8.91,6.38-8.91h3.06s0,6.55,0,11.83Z"/><path class="cls-1" d="M1363.18,404.07s-1,7.98-5.58,8.83h-90.16c-4.58-.85-5.58-8.83-5.58-8.83h-3.06v23.66h3.06s1-7.98,5.59-8.83h90.15c4.59.85,5.59,8.83,5.59,8.83h3.06v-23.66h-3.06Z"/><path class="cls-1" d="M1352.84,347.35c0-1.83.31-3.6.88-5.24-.05.5-.08,1.01-.08,1.53,0,8.47,6.87,15.33,15.33,15.33,8.47,0,15.33-6.87,15.33-15.33,0-.51-.03-1.02-.08-1.53.56,1.64.88,3.4.88,5.24,0,8.91-7.22,16.13-16.13,16.13-8.91,0-16.13-7.22-16.13-16.13Z"/><path class="cls-1" d="M1368.97,328.47c0,6.44-2.57,13.64-6.52,13.64,3.96,0,6.52,5.25,6.52,8.85,0-3.6,2.57-8.85,6.52-8.85-3.96,0-6.52-7.21-6.52-13.64Z"/><path class="cls-1" d="M1352.84,484.43c0,1.83.31,3.6.88,5.24-.05-.5-.08-1.01-.08-1.53,0-8.47,6.87-15.33,15.33-15.33,8.47,0,15.33,6.87,15.33,15.33,0,.51-.03,1.02-.08,1.53.56-1.64.88-3.4.88-5.24,0-8.91-7.22-16.13-16.13-16.13-8.91,0-16.13,7.22-16.13,16.13Z"/><path class="cls-1" d="M1368.97,503.31c0-6.44-2.57-13.64-6.52-13.64,3.96,0,6.52-5.25,6.52-8.85,0,3.6,2.57,8.85,6.52,8.85-3.96,0-6.52,7.21-6.52,13.64Z"/></g></svg>