<?xml version="1.0" encoding="UTF-8"?><svg id="Layer_1" xmlns="http://www.w3.org/2000/svg" viewBox="0 0 1332.46 874.8"><defs><style>.cls-1{fill:#fff;}</style></defs><g id="WindowFrame_5"><path class="cls-1" d="M36.28,209.08v206.7s6.64,3.06,6.64-34.72v-137.25c0-37.79-6.64-34.72-6.64-34.72Z"/><path class="cls-1" d="M209.08,36.28h206.7s3.06,6.64-34.72,6.64c-37.79,0-99.47,0-137.25,0-37.79,0-34.72-6.64-34.72-6.64Z"/><path class="cls-1" d="M150.89,59.24c-3.31-8.46-11-14.23-16.28-18.88-12.38-11.52-28.4-17.85-45.4-17.85s-34.57,6.94-47.17,19.54h0c-12.6,12.6-19.54,29.35-19.54,47.17s6.33,33.02,17.85,45.4c4.66,5.28,10.43,12.97,18.89,16.28,8.76,3.43,14.64,3.53,14.64,3.53,0,0-19.1-12.97-14.36-24.02-5.33,4.89-11.1,3.65-13.6,1.36-11.23-11.42-17.41-26.5-17.41-42.54s6.32-31.46,17.78-42.93l-2.12-2.12,2.12,2.12c11.47-11.47,26.71-17.78,42.93-17.78s31.12,6.19,42.54,17.42c2.29,2.5,3.53,8.26-1.36,13.59,11.06-4.74,24.02,14.36,24.02,14.36,0,0-.1-5.88-3.53-14.64Z"/><path class="cls-1" d="M105.66,101.41l-15.61-15.61,15.61-15.61c3.84-2.65,10.2,2.29,10.2,2.29l2.17-2.17-16.73-16.73-2.17,2.17s4.94,6.35,2.3,10.19l-15.61,15.61-15.61-15.61c-2.64-3.84,2.3-10.19,2.3-10.19l-2.17-2.17-16.73,16.73,2.17,2.17s6.35-4.94,10.19-2.29l15.61,15.61-15.61,15.61c-3.84,2.64-10.19-2.3-10.19-2.3l-2.17,2.17,16.73,16.73,2.17-2.17s-4.94-6.35-2.3-10.19l15.61-15.61,15.61,15.61c2.64,3.84-2.29,10.19-2.29,10.19l2.17,2.17,16.73-16.73-2.17-2.17s-6.35,4.94-10.19,2.29Z"/><path class="cls-1" d="M51.01,171.76c0-2.9-.49-5.69-1.38-8.28.08.79.12,1.6.12,2.41,0,13.39-10.85,24.24-24.24,24.24-13.39,0-24.24-10.85-24.24-24.24,0-.81.04-1.62.12-2.41C.49,166.08,0,168.86,0,171.76c0,14.09,11.42,25.51,25.51,25.51,14.09,0,25.51-11.42,25.51-25.51Z"/><path class="cls-1" d="M7.48,435.91h36.04c-4.83,0-4.83-8.31,0-8.31H7.48c4.83,0,4.83,8.31,0,8.31Z"/><path class="cls-1" d="M171.76,51.01c-2.9,0-5.69-.49-8.28-1.38.79.08,1.6.12,2.41.12,13.39,0,24.24-10.85,24.24-24.24,0-13.39-10.85-24.24-24.24-24.24-.81,0-1.62.04-2.41.12C166.08.49,168.86,0,171.76,0c14.09,0,25.51,11.42,25.51,25.51,0,14.09-11.42,25.51-25.51,25.51Z"/><path class="cls-1" d="M435.91,7.48v36.04c0-4.83-8.31-4.83-8.31,0V7.48c0,4.83,8.31,4.83,8.31,0Z"/><path class="cls-1" d="M1296.18,209.08v206.7s-6.64,3.06-6.64-34.72c0-37.79,0-99.47,0-137.25,0-37.79,6.64-34.72,6.64-34.72Z"/><path class="cls-1" d="M1123.37,36.28h-206.7s-3.06,6.64,34.72,6.64c37.79,0,99.47,0,137.25,0,37.79,0,34.72-6.64,34.72-6.64Z"/><path class="cls-1" d="M1290.41,42.05h0c-12.6-12.6-29.35-19.54-47.17-19.54s-33.02,6.33-45.4,17.85c-5.28,4.66-12.97,10.43-16.28,18.89-3.43,8.76-3.53,14.64-3.53,14.64,0,0,12.97-19.1,24.02-14.36-4.89-5.33-3.65-11.1-1.36-13.59,11.42-11.23,26.5-17.41,42.54-17.41s31.46,6.32,42.93,17.78l2.12-2.12-2.12,2.12c23.54,23.55,23.66,61.77.37,85.47-2.49,2.29-8.26,3.53-13.59-1.36,4.74,11.06-14.36,24.02-14.36,24.02,0,0,5.88-.1,14.63-3.53,8.48-3.32,14.27-11.05,18.93-16.33,24.25-26.13,23.68-67.11-1.73-92.52Z"/><path class="cls-1" d="M1266.51,101.41l-15.61-15.61,15.61-15.61c3.84-2.65,10.19,2.29,10.19,2.29l2.17-2.17-16.73-16.73-2.17,2.17s4.93,6.35,2.3,10.19l-15.61,15.61-15.61-15.61c-2.64-3.84,2.3-10.19,2.3-10.19l-2.17-2.17-16.73,16.73,2.17,2.17s6.35-4.94,10.19-2.29l15.61,15.61-15.61,15.61c-3.84,2.64-10.19-2.29-10.19-2.29l-2.17,2.17,16.73,16.73,2.17-2.17s-4.94-6.35-2.29-10.19l15.61-15.61,15.61,15.61c2.64,3.84-2.3,10.19-2.3,10.19l2.17,2.17,16.73-16.73-2.17-2.17s-6.35,4.94-10.19,2.3Z"/><path class="cls-1" d="M1281.45,171.76c0-2.9.49-5.69,1.38-8.28-.08.79-.12,1.6-.12,2.41,0,13.39,10.85,24.24,24.24,24.24,13.39,0,24.24-10.85,24.24-24.24,0-.81-.04-1.62-.12-2.41.89,2.6,1.38,5.38,1.38,8.28,0,14.09-11.42,25.51-25.51,25.51-14.09,0-25.51-11.42-25.51-25.51Z"/><path class="cls-1" d="M1324.97,435.91h-36.04c4.83,0,4.83-8.31,0-8.31h36.04c-4.83,0-4.83,8.31,0,8.31Z"/><path class="cls-1" d="M1160.69,51.01c2.9,0,5.69-.49,8.28-1.38-.79.08-1.6.12-2.41.12-13.39,0-24.24-10.85-24.24-24.24,0-13.39,10.85-24.24,24.24-24.24.81,0,1.62.04,2.41.12-2.6-.89-5.38-1.38-8.28-1.38-14.09,0-25.51,11.42-25.51,25.51,0,14.09,11.42,25.51,25.51,25.51Z"/><path class="cls-1" d="M896.55,7.48v36.04c0-4.83,8.31-4.83,8.31,0V7.48c0,4.83-8.31,4.83-8.31,0Z"/><path class="cls-1" d="M36.28,665.72v-206.7s6.64-3.06,6.64,34.72v137.25c0,37.79-6.64,34.72-6.64,34.72Z"/><path class="cls-1" d="M209.08,838.52h206.7s3.06-6.64-34.72-6.64-99.47,0-137.25,0-34.72,6.64-34.72,6.64Z"/><path class="cls-1" d="M130.4,815.29c4.89,5.33,3.65,11.09,1.36,13.59-11.42,11.23-26.51,17.42-42.55,17.42s-31.46-6.32-42.93-17.78l-2.12,2.12,2.12-2.12c-11.47-11.47-17.78-26.71-17.78-42.93s6.18-31.12,17.41-42.54c2.49-2.3,8.26-3.54,13.6,1.35-4.74-11.06,14.36-24.02,14.36-24.02,0,0-5.88.1-14.64,3.53-8.46,3.31-14.23,11-18.89,16.28-11.52,12.38-17.85,28.4-17.85,45.4s6.94,34.57,19.54,47.17h0c12.6,12.6,29.35,19.54,47.17,19.54s33.02-6.33,45.4-17.85c5.28-4.66,12.97-10.43,16.28-18.89,3.43-8.76,3.53-14.64,3.53-14.64,0,0-12.97,19.1-24.02,14.36Z"/><path class="cls-1" d="M105.65,804.6l-15.61-15.61,15.61-15.61c3.84-2.65,10.19,2.29,10.19,2.29l2.17-2.17-16.73-16.73-2.17,2.17s4.94,6.35,2.3,10.19l-15.61,15.61-15.61-15.61c-2.64-3.84,2.3-10.19,2.3-10.19l-2.17-2.17-16.73,16.73,2.17,2.17s6.35-4.94,10.19-2.3l15.61,15.61-15.61,15.61c-3.84,2.64-10.19-2.3-10.19-2.3l-2.17,2.17,16.73,16.73,2.17-2.17s-4.94-6.35-2.3-10.19l15.61-15.61,15.61,15.61c2.64,3.84-2.3,10.19-2.3,10.19l2.17,2.17,16.73-16.73-2.17-2.17s-6.35,4.94-10.19,2.29Z"/><path class="cls-1" d="M51.01,703.03c0,2.9-.49,5.69-1.38,8.28.08-.79.12-1.6.12-2.41,0-13.39-10.85-24.24-24.24-24.24-13.39,0-24.24,10.85-24.24,24.24,0,.81.04,1.62.12,2.41-.89-2.6-1.38-5.38-1.38-8.28,0-14.09,11.42-25.51,25.51-25.51,14.09,0,25.51,11.42,25.51,25.51Z"/><path class="cls-1" d="M7.48,438.89h36.04c-4.83,0-4.83,8.31,0,8.31H7.48c4.83,0,4.83-8.31,0-8.31Z"/><path class="cls-1" d="M171.76,823.79c-2.9,0-5.69.49-8.28,1.38.79-.08,1.6-.12,2.41-.12,13.39,0,24.24,10.85,24.24,24.24,0,13.39-10.85,24.24-24.24,24.24-.81,0-1.62-.04-2.41-.12,2.6.89,5.38,1.38,8.28,1.38,14.09,0,25.51-11.42,25.51-25.51,0-14.09-11.42-25.51-25.51-25.51Z"/><path class="cls-1" d="M435.91,867.31v-36.04c0,4.83-8.31,4.83-8.31,0v36.04c0-4.83,8.31-4.83,8.31,0Z"/><path class="cls-1" d="M1310.95,776.02V98.78c1.35-4.83,6.53-7.79,15.34-10.84-8.81-3.04-13.99-6-15.34-10.84V21.51h-55.6c-4.83-1.35-7.79-6.53-10.84-15.34-3.04,8.81-6,13.99-10.84,15.34H98.78c-4.83-1.35-7.79-6.53-10.84-15.34-3.04,8.81-6,13.99-10.84,15.34H21.51v55.61c-1.35,4.83-6.53,7.79-15.34,10.83,8.81,3.04,13.99,6,15.34,10.83v677.24c-1.35,4.83-6.53,7.79-15.34,10.83,8.81,3.04,13.99,6,15.34,10.83v55.6h55.6c4.83,1.35,7.79,6.53,10.84,15.34,3.04-8.81,6-13.99,10.84-15.34h1134.9c4.83,1.35,7.79,6.53,10.84,15.34,3.04-8.81,6-13.99,10.84-15.34h55.6v-55.6c1.35-4.83,6.53-7.79,15.34-10.84-8.81-3.04-13.99-6-15.34-10.84ZM1302.95,845.29H29.51V29.51h1273.45v815.79Z"/><path class="cls-1" d="M1296.18,665.72v-206.7s-6.64-3.06-6.64,34.72c0,37.79,0,99.47,0,137.25,0,37.79,6.64,34.72,6.64,34.72Z"/><path class="cls-1" d="M1123.37,838.52h-206.7s-3.06-6.64,34.72-6.64c37.79,0,99.47,0,137.25,0,37.79,0,34.72,6.64,34.72,6.64Z"/><path class="cls-1" d="M1292.14,740.23c-4.66-5.28-10.44-13-18.92-16.32-8.76-3.43-14.63-3.53-14.63-3.53,0,0,19.1,12.97,14.36,24.02,5.33-4.89,11.09-3.65,13.59-1.36,23.3,23.7,23.18,61.93-.36,85.48l2.12,2.12-2.12-2.12c-11.47,11.47-26.71,17.78-42.93,17.78s-31.12-6.19-42.54-17.41c-2.29-2.5-3.53-8.26,1.36-13.59-11.06,4.74-24.02-14.36-24.02-14.36,0,0,.1,5.88,3.53,14.64,3.31,8.46,11,14.23,16.28,18.89,12.38,11.52,28.4,17.85,45.39,17.85s34.57-6.94,47.17-19.54h0c25.42-25.42,25.98-66.4,1.73-92.53Z"/><path class="cls-1" d="M1266.51,804.6l-15.61-15.61,15.61-15.61c3.84-2.64,10.19,2.29,10.19,2.29l2.17-2.17-16.73-16.73-2.17,2.17s4.94,6.35,2.3,10.19l-15.61,15.61-15.61-15.61c-2.64-3.84,2.29-10.19,2.29-10.19l-2.17-2.17-16.73,16.73,2.17,2.17s6.35-4.94,10.19-2.29l15.61,15.61-15.61,15.61c-3.84,2.65-10.19-2.29-10.19-2.29l-2.17,2.17,16.73,16.73,2.17-2.17s-4.94-6.35-2.29-10.19l15.61-15.61,15.61,15.61c2.64,3.84-2.3,10.19-2.3,10.19l2.17,2.17,16.73-16.73-2.17-2.17s-6.35,4.94-10.19,2.29Z"/><path class="cls-1" d="M1281.45,703.03c0,2.9.49,5.69,1.38,8.28-.08-.79-.12-1.6-.12-2.41,0-13.39,10.85-24.24,24.24-24.24,13.39,0,24.24,10.85,24.24,24.24,0,.81-.04,1.62-.12,2.41.89-2.6,1.38-5.38,1.38-8.28,0-14.09-11.42-25.51-25.51-25.51-14.09,0-25.51,11.42-25.51,25.51Z"/><path class="cls-1" d="M1324.97,438.89h-36.04c4.83,0,4.83,8.31,0,8.31h36.04c-4.83,0-4.83-8.31,0-8.31Z"/><path class="cls-1" d="M1160.69,823.79c2.9,0,5.69.49,8.28,1.38-.79-.08-1.6-.12-2.41-.12-13.39,0-24.24,10.85-24.24,24.24,0,13.39,10.85,24.24,24.24,24.24.81,0,1.62-.04,2.41-.12-2.6.89-5.38,1.38-8.28,1.38-14.09,0-25.51-11.42-25.51-25.51,0-14.09,11.42-25.51,25.51-25.51Z"/><path class="cls-1" d="M896.55,867.31v-36.04c0,4.83,8.31,4.83,8.31,0v36.04c0-4.83-8.31-4.83-8.31,0Z"/></g></svg>