<?xml version="1.0" encoding="UTF-8"?><svg id="Layer_1" xmlns="http://www.w3.org/2000/svg" viewBox="0 0 1321.24 863.58"><defs><style>.cls-1{fill:#fff;}</style></defs><g id="WindowFrame_4"><path class="cls-1" d="M57.65,409.36c3.85-3.55,10.1-5.1,14.92-4.71,7.35.6,12.84,5.29,12.84,5.29,0,0,.06-365.62.06-365.98,0-6.38,9.61-7.71,9.61-7.71v-1.29h-25.51v1.29s9.61,1.34,9.61,7.71c0,.36.06,356.81.06,356.81-.23-.06-.87-.22-.87-.22-2.39-.57-4.88-.88-7.44-.88-17.74,0-32.11,14.38-32.11,32.11s14.38,32.11,32.11,32.11c2.56,0,5.05-.31,7.44-.88h.02s.62-.16.85-.22c0,0-.06,356.46-.06,356.81,0,6.38-9.61,7.71-9.61,7.71v1.29h25.51v-1.29s-9.61-1.34-9.61-7.71c0-.36-.06-365.98-.06-365.98,0,0-5.49,4.69-12.84,5.29-4.82.39-11.07-1.16-14.92-4.71-6.04-5.58-9.83-13.56-9.83-22.43s3.79-16.86,9.83-22.43Z"/><path class="cls-1" d="M33.03,74.96c2.95-.85,5.91-1.64,8.89-2.37.7,1.74,1.47,3.45,2.29,5.11,1.24,2.49,2.63,4.88,4.14,7.16.28.42.57.84.88,1.25.06,3.83.25,7.65.58,11.46.08.89.93,1.78,1.69,1.14,1.23-1.03,1.72-3.03.77-4.53-.14-.22-.31-.36-.49-.45-.1-1.68-.18-3.36-.24-5.04.66.57,1.38,1.06,2.16,1.4,2.1.91,4.34.27,5.88-1.63,1.55-1.91,2.43-4.58,3.23-7,1.84-5.54,2.75-11.52,2.72-17.46-.02-2.97-.27-5.94-.77-8.85-.44-2.62-1.19-5.35-3.04-7.08-1.73-1.62-4.1-2.02-5.99-.5-1.85,1.48-2.79,4.05-3.51,6.44-.99,3.3-1.47,6.78-1.87,10.23-.15,1.29-.27,2.59-.39,3.88-2.25.46-4.49.95-6.72,1.48-.3-.81-.6-1.61-.87-2.43-.85-2.59-1.56-5.24-2.12-7.93-.58-2.8-1.12-5.85-.34-8.67,1.42-5.1,6.97-6.76,10.39-3.31,1.09,1.1,2.69-.76,1.59-1.87-3.47-3.51-8.67-3.52-11.98.32-3.74,4.34-2.69,10.72-1.43,16.05.67,2.85,1.51,5.65,2.5,8.38-2.86.7-5.7,1.46-8.54,2.28-1.41.41-.81,2.95.6,2.55ZM52.7,63.45c.33-2.57.72-5.14,1.37-7.63.54-2.05,1.24-4.66,2.79-5.99,1.72-1.48,3.7.03,4.61,1.92,1,2.06,1.28,4.68,1.52,7,.53,5.09.33,10.29-.62,15.3-.48,2.53-1.13,5.02-1.98,7.41-.68,1.94-1.47,4.43-2.98,5.72-2.04,1.74-4.19.16-5.96-2.02-.05-4.94.13-9.88.53-14.8,2.95-.58,5.91-1.11,8.88-1.56.61-.09,1.12-.54,1.12-1.32,0-.64-.52-1.41-1.12-1.32-2.89.44-5.77.95-8.65,1.5.14-1.41.3-2.81.48-4.21ZM49.71,70.82c-.12,1.48-.23,2.96-.3,4.44-.11,2.21-.16,4.42-.19,6.63-.31-.52-.59-.99-.82-1.38-1.58-2.69-2.98-5.53-4.21-8.47,1.83-.43,3.67-.84,5.51-1.22Z"/><path class="cls-1" d="M69.95,104.65c-9.14,1.92-18.41,2.89-27.69,2.92.06-7.4.11-14.79.17-22.19.01-1.7-2.24-1.7-2.25,0-.06,7.39-.11,14.78-.17,22.17-.77-.01-1.53-.01-2.3-.03-1.45-.04-1.45,2.6,0,2.64.76.02,1.52.02,2.28.03,0,.25,0,.5,0,.75-.02.07-.06.12-.08.2-.26,1.08-.08,2.38-.06,3.48.03,1.46.05,2.92.08,4.38.03,1.7,2.24,1.7,2.25,0,.02-2.37.04-4.73.05-7.1.25-.06.55-.08.77-.12.9-.18,1.79-.36,2.69-.55.57-.12.81-.6.81-1.11,8.06-.28,16.11-1.26,24.05-2.93,1.42-.3.82-2.85-.6-2.55Z"/><path class="cls-1" d="M34.83,118.43c.39-8.63.96-17.25,1.71-25.85.15-1.69-2.1-1.68-2.25,0-.75,8.6-1.32,17.22-1.71,25.85-.08,1.7,2.17,1.69,2.25,0Z"/><path class="cls-1" d="M63.86,96.92c-.29-.08-.61-.06-.87.13-.07.05-.14.09-.21.13-.13.06-.26.1-.4.13-.12,0-.24.02-.36.01-.15,0-.3.03-.43.11-.14.05-.26.14-.36.27-.11.12-.19.26-.23.43-.07.16-.1.33-.1.51.01.34.11.7.33.93.08.07.15.14.23.21.18.12.36.18.57.18.36.03.74-.02,1.1-.13.22-.06.42-.17.63-.27.13-.07.25-.14.37-.23.24-.18.44-.46.52-.79.05-.18.05-.35.02-.53,0-.18-.05-.34-.13-.49-.15-.28-.39-.53-.67-.61Z"/><path class="cls-1" d="M67.38,124.5c-.17,12.89-1,25.75-2.49,38.52-1.92-3.01-3.94-5.93-6.08-8.73-.27-4.82-.43-9.65-.46-14.48,1.55.01,3.1.04,4.65.12,1.45.07,1.45-2.57,0-2.64-1.55-.08-3.11-.11-4.66-.12,0-3.92.09-7.85.25-11.77.07-1.7-2.18-1.69-2.25,0-.17,3.92-.24,7.85-.25,11.78-2.87.04-5.74.18-8.6.44-1.43.13-1.45,2.77,0,2.64,2.86-.26,5.74-.4,8.61-.44.03,3.81.13,7.63.3,11.44-3.97-4.86-8.26-9.36-12.85-13.42-1.45-1.28-3-2.68-4.7-3.5,3.16-1.91,6.4-3.64,9.72-5.16,1.33-.61.75-3.17-.6-2.55-4.5,2.06-8.87,4.45-13.1,7.19-.94.61-.56,2.57.57,2.46,1.74-.17,3.22.73,4.63,1.83,1.36,1.06,2.65,2.24,3.93,3.43,2.61,2.41,5.11,4.97,7.51,7.66,1.77,1.99,3.46,4.07,5.11,6.2.05.8.1,1.59.16,2.39-1.97-.28-4.04-.17-6.02-.25-3.6-.14-7.21-.28-10.81-.41,1.35-2.75,1.86-5.91,1.45-9.14-.22-1.68-2.38-.96-2.17.7.4,3.11-.43,6.37-2.17,8.75-.63.86-.22,2.22.8,2.25,3.38.13,6.76.26,10.14.39l4.98.19c.86.03,1.72.07,2.58.1.35.01.76-.02,1.11.04.11.02.21.05.31.09,0,.01,0,.03,0,.04.09,1.16,1.58,1.98,2.1.67.25-.63.24-1.2.08-1.69-.02-.28-.04-.56-.06-.85,1.95,2.7,3.81,5.48,5.56,8.36.49.81,1.9.92,2.06-.32,1.76-13.99,2.75-28.1,2.93-42.24.02-1.7-2.23-1.7-2.25,0Z"/><path class="cls-1" d="M49.72,168.88c-2-.13-3.99-.22-5.99-.24-.97,0-1.94,0-2.91.01-.92.02-1.87,0-2.73.45-1.52.78-2.19,2.7-2.61,4.47-.49,2.07-.63,4.26-.73,6.4-.39,7.91.69,16.9,6.09,22.36,0,3.36-.02,6.72-.06,10.07-.02,1.7,2.23,1.7,2.25,0,.03-2.74.05-5.47.06-8.21,2.17,1.43,4.68,2.17,7.17,1.87,3.23-.4,5.96-2.53,8.05-5.36,2.28-3.09,3.94-6.79,5.39-10.48.76-1.95,1.46-3.93,2.1-5.93.33-1.01.64-2.03.94-3.05.3-1.01.7-2.06.57-3.15-.27-2.17-2.43-3.11-3.98-3.71-1.84-.71-3.91-1.02-5.82-.57-1.85.44-3.15,1.88-4.09,3.74-.83,1.65-1.49,4.02-3.26,4.51-1.41.39-.81,2.94.6,2.55,2.86-.79,3.53-4.13,5.07-6.58,1.82-2.89,5.84-1.83,8.19-.49.64.37,1.2.61.99,1.54-.2.89-.51,1.75-.77,2.62-.55,1.8-1.13,3.59-1.77,5.35-1.23,3.38-2.63,6.73-4.41,9.76-1.48,2.54-3.43,5.02-5.95,6.09-2.63,1.12-5.55.59-7.96-1.01-.37-.24-.71-.51-1.05-.79,0-7.67-.07-15.33-.23-23-.04-1.7-2.29-1.7-2.25,0,.15,6.84.22,13.68.23,20.52-2.79-3.97-3.83-9.58-3.91-14.65-.03-2.2.06-4.4.25-6.59.15-1.69.35-4.11,1.37-5.44.59-.77,1.67-.61,2.47-.62.97-.02,1.94-.02,2.91,0,1.94.02,3.87.1,5.81.23,1.45.1,1.44-2.55,0-2.64Z"/><path class="cls-1" d="M47.04,189.85c2.46.33,4.93.4,7.4.23.59-.04,1.15-.58,1.12-1.32-.03-.68-.5-1.37-1.12-1.32-2.47.18-4.94.1-7.4-.23-.59-.08-1.15.66-1.12,1.32.03.78.5,1.24,1.12,1.32Z"/><path class="cls-1" d="M53.7,120.5c3.36-.54,6.69-1.3,9.97-2.29,1.4-.42.81-2.97-.6-2.55-3.28.99-6.61,1.75-9.97,2.29-.6.1-.93,1-.79,1.62.18.76.78,1.02,1.38.92Z"/><path class="cls-1" d="M36.49,253.91c.18.96.84,1.52,1.67,1.52,1.14,0,2.33-.29,3.47-.44.99-.13,1.97-.25,2.96-.38.85-.11,2.09,0,2.76-.76.65-.74.53-1.89.52-2.85,0-1.32-.02-2.63-.03-3.95-.04-5.78-.07-11.56-.11-17.34,0-.73-.43-1.13-.91-1.23-.18-.3-.46-.52-.87-.54-2.05-.09-4.1.03-6.14.36-.8.13-1.85.16-2.57.65-.76.52-.84,1.46-.84,2.39-.03,5.12-.02,10.24,0,15.36,0,1.17,0,2.34.02,3.51,0,1.18-.15,2.54.07,3.69ZM45.62,251.92c0,.15-.02.08,0,0h0ZM45.48,230.57c.03,5.05.06,10.11.1,15.16,0,1.32.02,2.63.03,3.95,0,.65-.03,1.32.01,1.98,0,.07,0,.13,0,.17-.29.03-.57.07-.86.11-1.11.14-2.22.29-3.32.43-.55.07-1.11.14-1.66.21-.33.04-.75.17-1.14.2-.01-.45.04-1.02.04-1.26,0-.66,0-1.32-.01-1.98,0-1.32-.01-2.63-.02-3.95,0-2.78-.01-5.56,0-8.34,0-1.32,0-2.63,0-3.95,0-.61.1-1.38,0-1.97,0-.05.01-.07.02-.11.18-.05.39-.13.51-.16,2.08-.43,4.19-.57,6.29-.5Z"/><path class="cls-1" d="M67.01,236.04c-1.55-.04-3.1,0-4.64.13,1.97-7.47,3.3-15.16,3.95-22.97.63-.73.02-2.44-1.16-2.24-6.17,1.03-12.4,1.51-18.63,1.48-.89,0-1.35,1.11-.97,1.99,1.01,2.34,1.83,4.74,2.51,7.2-.7.01-1.39.03-2.08.03-3.02,0-6.03,0-9.05,0-1.45,0-1.45,2.65,0,2.64,2.9,0,5.8-.01,8.71,0,1,0,2.04-.04,3.09-.06,2.37,10,2.82,20.68,4.89,30.75.22,1.08,1.61,1.32,2.06.32,2.35-5.3,4.33-10.79,5.94-16.43,1.79-.17,3.59-.23,5.39-.19,1.45.04,1.45-2.61,0-2.64ZM55.12,250.65c-1.5-8.75-2.16-17.76-4.09-26.37.98.07,1.95.23,2.88.54,1.39.47,1.99-2.08.6-2.55-1.33-.45-2.72-.6-4.12-.65-.58-2.23-1.27-4.43-2.1-6.58,5.26-.06,10.5-.5,15.71-1.29-.68,7.7-2.06,15.3-4.07,22.66-.62.08-1.23.16-1.85.26-.6.1-.93,1-.79,1.62.18.76.78,1.02,1.38.92.16-.03.33-.04.5-.07-1.16,3.92-2.53,7.75-4.06,11.49Z"/><path class="cls-1" d="M64.43,309.17c1.12,1.91.45,4.44-.95,5.9-1.73,1.82-4.42,1.81-6.56,1.29-2.42-.59-4.82-1.76-6.67-3.72-1.83-1.93-3.14-4.46-4.05-7.12-1.79-5.23-2.2-10.91-1.51-16.42,3.42-.35,6.84-.61,10.26-.75,1.44-.06,1.45-2.7,0-2.64-3.28.13-6.56.37-9.83.7.52-2.7,1.31-5.33,2.33-7.82,4.22-.42,8.44-.83,12.66-1.25,1.43-.14,1.45-2.78,0-2.64-3.8.37-7.61.75-11.41,1.12.26-.51.52-1.02.8-1.52,2.9-5.19,7.75-10.9,13.57-9.09,1.4.43,2-2.11.6-2.55-6.05-1.88-11.35,2.81-14.82,8.17-1.07,1.65-2.01,3.42-2.84,5.25-1.85.18-3.69.36-5.54.54.41-4.32.93-8.62,1.56-12.91.25-1.66-1.92-2.38-2.17-.7-.68,4.59-1.24,9.21-1.67,13.83-.85.08-1.71.17-2.56.25-1.43.14-1.45,2.78,0,2.64.78-.08,1.56-.15,2.33-.23-.22,2.65-.4,5.3-.54,7.95-.36.21-.62.59-.63,1.14,0,.41.21.87.52,1.12-.16,3.59-.25,7.19-.26,10.79,0,1.7,2.25,1.7,2.25,0,0-3.6.1-7.21.26-10.81.95-.13,1.9-.26,2.85-.37-.65,6.05-.09,12.23,1.98,17.86,1.12,3.05,2.75,5.92,4.98,7.99,2.24,2.08,5.04,3.41,7.86,3.9,2.89.5,6.24.04,8.28-2.68,1.74-2.32,2.43-5.89.87-8.58-.81-1.39-2.76-.07-1.94,1.33ZM40.22,279.31c1.55-.15,3.09-.3,4.64-.46-.93,2.51-1.63,5.14-2.09,7.82-1.03.12-2.06.25-3.09.39.14-2.59.33-5.17.55-7.75Z"/><path class="cls-1" d="M67,289.96c.05-1.43-1.51-1.64-2.06-.67-.35-.46-.91-.53-1.39-.27-4.33,2.28-8.49,4.98-12.45,8.05-1.05.82-.4,2.77.87,2.41,4.18-1.17,8.67-.14,12.19,2.74.85.69,1.85,1.95,2.93.97,1.02-.92.45-2.61.3-3.83-.39-3.11-.5-6.26-.38-9.4ZM63.27,298.53c-1.21-.7-2.5-1.26-3.81-1.62-1.04-.28-2.09-.45-3.14-.51,2.72-1.87,5.51-3.58,8.39-5.1.02,0,.03-.02.04-.03-.03,1.59-.01,3.17.09,4.76.06.95.14,1.9.25,2.85.04.33.08.66.12.99-.07-.05-.13-.11-.19-.16-.56-.43-1.14-.83-1.74-1.17Z"/><path class="cls-1" d="M66.51,323.75c0-.55-.25-.91-.57-1.1.06-1.06-1.1-2.06-1.9-1.07-2.54,3.12-4.93,6.41-7.15,9.85-.79-1.58-1.76-3.01-3.05-4.08-2.53-2.11-5.96-2.23-8.85-1.23-3.31,1.15-6.06,3.7-8.73,6.17-1.14,1.05.46,2.91,1.59,1.87,3.65-3.37,8.5-7.68,13.43-5.44,1.96.89,3.21,2.92,4.13,5.06-1.76,2.87-3.41,5.84-4.92,8.9-.86,1.73-1.68,3.36-.52,5.2,1.06,1.68,2.23,3.26,3.25,4.98.94,1.58,1.81,3.22,2.62,4.9-.11.37-.21.74-.33,1.1-.83,2.57-1.86,5.08-3.11,7.42-1.07,2.01-2.5,4.18-4.43,5.09-2.25,1.06-4.47-.32-5.68-2.61-1.55-2.95-1.19-6.64-.63-9.86.29-1.66-1.88-2.37-2.17-.7-.6,3.38-.95,7.05.19,10.33.91,2.63,2.77,5,5.19,5.67,5.57,1.55,9.25-5.55,11.28-10.47.39-.95.75-1.92,1.09-2.9.43,1.01.85,2.02,1.24,3.05,1.63,4.31,2.84,8.85,3.65,13.47.2,1.12,1.61,1.28,2.06.32,2.7-5.79,2.21-12.96,2.29-19.34.09-7.36.1-14.72.08-22.08-.01-4.15-.03-8.31-.05-12.46ZM53.96,349.55c-.47-.73-.95-1.46-1.44-2.18-.24-.35-.58-.71-.77-1.1-.24-.5-.04-.77.19-1.25,1.38-2.88,2.9-5.68,4.51-8.4.54,1.83.91,3.74,1.09,5.65.38,4.04.03,8.11-.81,12.03-.86-1.63-1.78-3.22-2.76-4.75ZM64.3,351.08c-.03,4.51-.07,9.02-.16,13.53-.05,2.64-.14,5.35-.67,7.91-1.21-5.24-2.95-10.31-5.17-15.07,1.14-4.16,1.76-8.52,1.63-12.89-.09-3.23-.59-6.47-1.57-9.5-.11-.34-.23-.67-.34-1,1.95-3.1,4.04-6.06,6.26-8.89.04,8.64.08,17.27.03,25.91Z"/><path class="cls-1" d="M45.75,338.37c-3.49-.12-6.98-.24-10.47-.35-1.45-.05-1.45,2.59,0,2.64,3.49.12,6.98.24,10.47.35,1.45.05,1.45-2.59,0-2.64Z"/><path class="cls-1" d="M46.32,345.81c-.17-.74-.78-1.05-1.38-.92-2.69.56-5.4.94-8.12,1.14-.61.04-1.12.58-1.12,1.32,0,.68.52,1.37,1.12,1.32,2.92-.21,5.83-.63,8.72-1.24.6-.13.94-.98.79-1.62Z"/><path class="cls-1" d="M69.96,788.62c-2.95.85-5.91,1.64-8.89,2.37-.7-1.74-1.47-3.45-2.29-5.11-1.24-2.49-2.63-4.88-4.14-7.16-.28-.42-.57-.84-.88-1.25-.06-3.83-.25-7.65-.58-11.46-.08-.89-.93-1.78-1.69-1.14-1.23,1.03-1.72,3.03-.77,4.53.14.22.31.36.49.45.1,1.68.18,3.36.24,5.04-.66-.57-1.38-1.06-2.16-1.4-2.1-.91-4.34-.27-5.88,1.63-1.55,1.91-2.43,4.58-3.23,7-1.84,5.54-2.75,11.52-2.72,17.46.02,2.97.27,5.94.77,8.85.44,2.62,1.19,5.35,3.04,7.08,1.73,1.62,4.1,2.02,5.99.5,1.85-1.48,2.79-4.05,3.51-6.44.99-3.3,1.47-6.78,1.87-10.23.15-1.29.27-2.59.39-3.88,2.25-.46,4.49-.95,6.72-1.48.3.81.6,1.61.87,2.43.85,2.59,1.56,5.24,2.12,7.93.58,2.8,1.12,5.85.33,8.67-1.42,5.1-6.97,6.76-10.39,3.31-1.09-1.1-2.69.76-1.59,1.87,3.47,3.51,8.67,3.52,11.98-.32,3.74-4.34,2.69-10.72,1.43-16.05-.67-2.85-1.51-5.65-2.5-8.38,2.86-.7,5.7-1.46,8.54-2.28,1.41-.41.81-2.95-.6-2.55ZM50.29,800.13c-.33,2.57-.72,5.14-1.37,7.63-.54,2.05-1.24,4.66-2.79,5.99-1.72,1.48-3.7-.03-4.61-1.92-1-2.06-1.28-4.68-1.52-7-.53-5.09-.33-10.29.62-15.3.48-2.53,1.13-5.02,1.98-7.41.68-1.94,1.47-4.43,2.98-5.72,2.04-1.74,4.19-.16,5.96,2.02.05,4.94-.13,9.88-.53,14.8-2.95.58-5.91,1.11-8.88,1.56-.61.09-1.12.54-1.12,1.32,0,.64.52,1.41,1.12,1.32,2.89-.44,5.77-.95,8.65-1.5-.14,1.41-.3,2.81-.48,4.21ZM53.27,792.76c.12-1.48.23-2.96.3-4.44.11-2.21.16-4.42.19-6.63.31.52.59.99.82,1.38,1.58,2.69,2.98,5.53,4.21,8.47-1.83.43-3.67.84-5.51,1.22Z"/><path class="cls-1" d="M60.56,778.2c-.01,1.7,2.24,1.7,2.25,0,.06-7.39.11-14.78.17-22.17.77.01,1.53.01,2.3.03,1.45.04,1.45-2.6,0-2.64-.76-.02-1.52-.02-2.28-.03,0-.25,0-.5,0-.75.02-.07.06-.12.08-.2.26-1.08.08-2.38.06-3.48-.03-1.46-.05-2.92-.08-4.38-.03-1.7-2.24-1.7-2.25,0-.02,2.37-.04,4.73-.05,7.1-.25.06-.55.08-.77.12-.9.18-1.79.36-2.69.55-.57.12-.81.6-.81,1.11-8.06.28-16.11,1.26-24.05,2.93-1.42.3-.82,2.85.6,2.55,9.14-1.92,18.41-2.89,27.69-2.92-.06,7.4-.11,14.79-.17,22.19Z"/><path class="cls-1" d="M68.16,745.15c-.39,8.63-.96,17.25-1.71,25.85-.15,1.69,2.1,1.68,2.25,0,.75-8.6,1.32-17.22,1.71-25.85.08-1.7-2.17-1.69-2.25,0Z"/><path class="cls-1" d="M40.96,763.62c-.36-.03-.74.02-1.1.13-.22.06-.42.17-.63.27-.13.07-.25.14-.37.23-.24.18-.44.46-.52.79-.05.18-.05.35-.02.53,0,.18.05.34.13.49.15.28.39.53.67.61.29.08.61.06.87-.13.07-.05.14-.09.21-.13.13-.06.26-.1.4-.13.12,0,.24-.02.36-.01.15,0,.3-.03.43-.11.14-.05.26-.14.36-.27.11-.12.19-.26.23-.43.07-.16.1-.33.1-.51-.01-.34-.11-.7-.33-.93l-.23-.21c-.18-.12-.36-.18-.57-.18Z"/><path class="cls-1" d="M35.61,739.08c.17-12.89,1-25.75,2.49-38.52,1.92,3.01,3.94,5.93,6.08,8.73.27,4.82.43,9.65.46,14.48-1.55-.01-3.1-.04-4.65-.12-1.45-.07-1.45,2.57,0,2.64,1.55.08,3.11.11,4.66.12,0,3.92-.09,7.85-.25,11.77-.07,1.7,2.18,1.69,2.25,0,.17-3.92.24-7.85.25-11.78,2.87-.04,5.74-.18,8.6-.44,1.43-.13,1.45-2.77,0-2.64-2.86.26-5.73.4-8.61.44-.03-3.81-.13-7.63-.3-11.44,3.97,4.86,8.26,9.36,12.85,13.42,1.45,1.28,3,2.68,4.7,3.5-3.16,1.91-6.4,3.64-9.72,5.16-1.33.61-.75,3.17.6,2.55,4.5-2.06,8.87-4.45,13.1-7.19.94-.61.56-2.57-.57-2.46-1.74.17-3.22-.73-4.63-1.83-1.36-1.06-2.65-2.24-3.93-3.43-2.61-2.41-5.11-4.97-7.51-7.66-1.77-1.99-3.46-4.07-5.11-6.2-.05-.8-.1-1.59-.16-2.39,1.97.28,4.04.17,6.02.25,3.6.14,7.21.28,10.81.41-1.35,2.75-1.86,5.91-1.45,9.14.22,1.68,2.38.96,2.17-.7-.4-3.11.43-6.37,2.17-8.75.63-.86.22-2.22-.8-2.25-3.38-.13-6.76-.26-10.14-.39-1.66-.06-3.32-.13-4.98-.19-.86-.03-1.72-.07-2.58-.1-.35-.01-.76.02-1.11-.04-.11-.02-.21-.05-.31-.09,0-.01,0-.03,0-.04-.09-1.16-1.58-1.98-2.1-.67-.25.63-.24,1.2-.08,1.69.02.28.04.56.06.85-1.95-2.7-3.81-5.48-5.56-8.36-.49-.81-1.9-.92-2.06.32-1.76,13.99-2.75,28.1-2.93,42.24-.02,1.7,2.23,1.7,2.25,0Z"/><path class="cls-1" d="M53.27,694.7c2,.13,3.99.22,5.99.24.97,0,1.94,0,2.91-.01.92-.02,1.87,0,2.73-.45,1.52-.78,2.19-2.7,2.61-4.47.49-2.07.63-4.26.73-6.4.39-7.91-.69-16.9-6.09-22.36,0-3.36.02-6.72.06-10.07.02-1.7-2.23-1.7-2.25,0-.03,2.74-.05,5.47-.06,8.21-2.17-1.43-4.68-2.17-7.17-1.87-3.23.4-5.96,2.53-8.05,5.36-2.28,3.09-3.94,6.79-5.39,10.48-.76,1.95-1.46,3.93-2.1,5.93-.33,1.01-.64,2.03-.94,3.05-.3,1.01-.7,2.06-.57,3.15.27,2.17,2.43,3.11,3.98,3.71,1.84.71,3.91,1.02,5.82.57,1.85-.44,3.15-1.88,4.09-3.74.83-1.65,1.49-4.02,3.26-4.51,1.41-.39.81-2.94-.6-2.55-2.86.79-3.53,4.13-5.07,6.58-1.82,2.89-5.84,1.83-8.19.49-.64-.37-1.2-.61-.99-1.54.2-.89.51-1.75.77-2.62.55-1.8,1.13-3.59,1.77-5.35,1.23-3.38,2.63-6.73,4.41-9.76,1.48-2.54,3.43-5.02,5.95-6.09,2.63-1.12,5.55-.59,7.96,1.01.37.24.71.51,1.05.79,0,7.67.07,15.33.23,23,.04,1.7,2.29,1.7,2.25,0-.15-6.84-.22-13.68-.23-20.52,2.79,3.97,3.83,9.58,3.91,14.65.03,2.2-.06,4.4-.25,6.59-.15,1.69-.35,4.11-1.37,5.44-.59.77-1.67.61-2.47.62-.97.02-1.94.02-2.91,0-1.94-.02-3.87-.1-5.81-.23-1.45-.1-1.44,2.55,0,2.64Z"/><path class="cls-1" d="M55.95,673.73c-2.46-.33-4.93-.4-7.4-.23-.59.04-1.15.58-1.12,1.32.03.68.5,1.37,1.12,1.32,2.47-.18,4.94-.1,7.4.23.59.08,1.15-.66,1.12-1.32-.03-.78-.5-1.24-1.12-1.32Z"/><path class="cls-1" d="M49.29,743.08c-3.36.54-6.69,1.3-9.97,2.29-1.4.42-.81,2.97.6,2.55,3.28-.99,6.61-1.75,9.97-2.29.6-.1.93-1,.79-1.62-.18-.76-.78-1.02-1.38-.92Z"/><path class="cls-1" d="M66.5,609.67c-.18-.96-.84-1.52-1.67-1.52-1.14,0-2.33.29-3.47.44-.99.13-1.97.25-2.96.38-.85.11-2.09,0-2.76.76-.65.74-.53,1.89-.52,2.85,0,1.32.02,2.63.03,3.95.04,5.78.07,11.56.11,17.34,0,.73.43,1.13.91,1.23.18.3.46.52.87.54,2.05.09,4.1-.03,6.14-.36.8-.13,1.85-.16,2.57-.65.76-.52.84-1.46.84-2.39.03-5.12.02-10.24,0-15.36,0-1.17,0-2.34-.02-3.51,0-1.18.15-2.54-.07-3.69ZM57.37,611.66c0-.15.02-.08,0,0h0ZM57.51,633.01c-.03-5.05-.06-10.11-.1-15.16,0-1.32-.02-2.63-.03-3.95,0-.65.03-1.32-.01-1.98,0-.07,0-.13,0-.17.29-.04.57-.07.86-.11,1.11-.14,2.22-.29,3.32-.43.55-.07,1.11-.14,1.66-.21.33-.04.75-.17,1.14-.2.01.45-.04,1.02-.04,1.26,0,.66,0,1.32.01,1.98,0,1.32.01,2.63.02,3.95,0,2.78.01,5.56,0,8.34,0,1.32,0,2.63,0,3.95,0,.61-.1,1.38,0,1.97,0,.05-.01.07-.02.11-.18.05-.39.13-.51.16-2.08.43-4.19.57-6.29.5Z"/><path class="cls-1" d="M35.98,627.54c1.55.04,3.1-.01,4.64-.13-1.97,7.47-3.3,15.16-3.95,22.97-.63.73-.02,2.44,1.16,2.24,6.17-1.03,12.4-1.51,18.63-1.48.89,0,1.35-1.11.97-1.99-1.01-2.34-1.83-4.74-2.51-7.2.7-.01,1.39-.03,2.08-.03,3.02,0,6.03,0,9.05,0,1.45,0,1.45-2.65,0-2.64-2.9,0-5.8.01-8.71,0-1,0-2.04.04-3.09.06-2.37-10-2.82-20.68-4.89-30.75-.22-1.08-1.61-1.32-2.06-.32-2.35,5.3-4.33,10.79-5.94,16.43-1.79.17-3.59.23-5.39.19-1.45-.04-1.45,2.61,0,2.64ZM47.87,612.93c1.5,8.75,2.16,17.76,4.09,26.37-.98-.07-1.95-.23-2.88-.54-1.39-.47-1.99,2.08-.6,2.55,1.33.45,2.72.6,4.12.65.58,2.23,1.27,4.43,2.1,6.58-5.26.06-10.5.5-15.71,1.29.68-7.7,2.06-15.3,4.07-22.66.62-.08,1.23-.16,1.85-.26.6-.1.93-1,.79-1.62-.18-.76-.78-1.02-1.38-.92-.16.03-.33.04-.5.07,1.16-3.92,2.53-7.75,4.06-11.49Z"/><path class="cls-1" d="M38.56,554.41c-1.12-1.91-.45-4.44.95-5.9,1.73-1.82,4.42-1.81,6.56-1.29,2.42.59,4.82,1.76,6.67,3.72,1.83,1.93,3.14,4.46,4.05,7.12,1.79,5.24,2.2,10.91,1.51,16.42-3.42.35-6.84.61-10.26.75-1.44.06-1.45,2.7,0,2.64,3.28-.13,6.56-.37,9.83-.7-.52,2.7-1.31,5.33-2.33,7.82-4.22.42-8.44.83-12.66,1.25-1.43.14-1.45,2.78,0,2.64,3.8-.37,7.61-.75,11.41-1.12-.26.51-.52,1.02-.8,1.52-2.9,5.19-7.75,10.9-13.57,9.09-1.4-.43-2,2.11-.6,2.55,6.05,1.88,11.35-2.81,14.82-8.17,1.07-1.65,2.01-3.42,2.84-5.25l5.54-.54c-.41,4.32-.93,8.62-1.56,12.91-.25,1.66,1.92,2.38,2.17.7.68-4.59,1.24-9.2,1.67-13.83.85-.08,1.71-.17,2.56-.25,1.43-.14,1.45-2.78,0-2.64-.78.08-1.56.15-2.33.23.22-2.65.4-5.3.54-7.95.36-.21.62-.59.63-1.14,0-.41-.21-.87-.52-1.12.16-3.59.25-7.19.26-10.79,0-1.7-2.25-1.7-2.25,0,0,3.6-.1,7.21-.26,10.81-.95.13-1.9.26-2.85.37.65-6.05.09-12.23-1.98-17.86-1.12-3.05-2.75-5.92-4.98-7.99-2.24-2.08-5.04-3.41-7.86-3.9-2.89-.5-6.24-.04-8.28,2.68-1.74,2.32-2.43,5.89-.87,8.58.81,1.39,2.76.07,1.94-1.33ZM62.77,584.27c-1.55.15-3.09.3-4.64.46.93-2.51,1.63-5.14,2.09-7.82,1.03-.12,2.06-.25,3.09-.39-.14,2.59-.33,5.17-.55,7.75Z"/><path class="cls-1" d="M35.98,573.62c-.05,1.43,1.51,1.64,2.06.67.35.46.91.53,1.39.27,4.33-2.28,8.49-4.98,12.45-8.05,1.05-.82.4-2.77-.87-2.41-4.18,1.17-8.67.14-12.19-2.74-.85-.69-1.85-1.95-2.93-.97-1.02.92-.45,2.61-.3,3.83.39,3.11.5,6.26.38,9.4ZM39.72,565.05c1.21.7,2.5,1.26,3.81,1.62,1.04.28,2.09.45,3.14.51-2.72,1.87-5.51,3.58-8.39,5.1-.02,0-.03.02-.04.03.03-1.59.01-3.17-.09-4.76-.06-.95-.14-1.9-.25-2.85-.04-.33-.08-.66-.12-.99.07.05.13.11.19.16.56.43,1.14.83,1.74,1.17Z"/><path class="cls-1" d="M36.48,539.83c0,.55.25.91.57,1.1-.06,1.06,1.1,2.06,1.9,1.07,2.54-3.12,4.93-6.41,7.15-9.85.79,1.58,1.76,3.01,3.05,4.08,2.53,2.11,5.96,2.23,8.85,1.23,3.31-1.15,6.06-3.7,8.73-6.17,1.14-1.05-.46-2.91-1.59-1.87-3.65,3.37-8.5,7.68-13.43,5.44-1.96-.89-3.21-2.92-4.13-5.06,1.76-2.87,3.41-5.84,4.92-8.9.86-1.73,1.68-3.36.52-5.2-1.06-1.68-2.23-3.26-3.25-4.98-.94-1.58-1.81-3.22-2.62-4.9.11-.37.21-.74.33-1.1.83-2.57,1.86-5.08,3.11-7.42,1.07-2.01,2.5-4.18,4.43-5.09,2.25-1.06,4.47.32,5.68,2.61,1.55,2.95,1.19,6.64.62,9.86-.29,1.66,1.88,2.37,2.17.7.6-3.38.95-7.05-.19-10.33-.91-2.63-2.77-5-5.19-5.67-5.57-1.55-9.25,5.55-11.28,10.47-.39.95-.75,1.92-1.09,2.9-.43-1.01-.85-2.02-1.24-3.05-1.63-4.31-2.84-8.85-3.65-13.47-.2-1.12-1.61-1.28-2.06-.32-2.7,5.79-2.21,12.96-2.29,19.34-.09,7.36-.1,14.72-.08,22.08.01,4.15.03,8.31.05,12.46ZM49.03,514.03c.47.73.95,1.46,1.44,2.18.24.35.58.71.77,1.1.24.5.04.77-.19,1.25-1.38,2.88-2.9,5.68-4.51,8.4-.54-1.83-.91-3.74-1.09-5.65-.38-4.04-.03-8.1.81-12.03.86,1.63,1.78,3.22,2.76,4.75ZM38.69,512.49c.03-4.51.07-9.02.16-13.53.05-2.64.14-5.35.67-7.91,1.21,5.24,2.95,10.31,5.17,15.07-1.14,4.16-1.76,8.52-1.63,12.89.09,3.23.59,6.47,1.57,9.5.11.34.23.67.34,1-1.95,3.1-4.04,6.06-6.26,8.89-.04-8.64-.08-17.27-.03-25.91Z"/><path class="cls-1" d="M57.23,525.21c3.49.12,6.98.24,10.47.35,1.45.05,1.45-2.59,0-2.64-3.49-.12-6.98-.24-10.47-.35-1.45-.05-1.45,2.59,0,2.64Z"/><path class="cls-1" d="M56.67,517.77c.17.74.78,1.05,1.38.92,2.69-.56,5.4-.94,8.12-1.14.61-.04,1.12-.58,1.12-1.32,0-.68-.52-1.37-1.12-1.32-2.92.21-5.83.63-8.72,1.24-.6.13-.94.98-.79,1.62Z"/><path class="cls-1" d="M1242.85,463.02c2.39.57,4.88.88,7.44.88,17.74,0,32.11-14.38,32.11-32.11,0-17.74-14.38-32.11-32.11-32.11-2.56,0-5.05.31-7.44.88,0,0-.64.16-.87.22,0,0,.06-356.46.06-356.81,0-6.38,9.61-7.71,9.61-7.71v-1.29h-25.51v1.29s9.61,1.34,9.61,7.71c0,.36.06,365.98.06,365.98,0,0,5.49-4.69,12.84-5.29,4.82-.39,11.07,1.16,14.92,4.71,6.04,5.58,9.83,13.56,9.83,22.43s-3.79,16.85-9.83,22.43c-3.85,3.55-10.1,5.1-14.92,4.71-7.35-.6-12.84-5.29-12.84-5.29,0,0-.06,365.62-.06,365.98,0,6.38-9.61,7.71-9.61,7.71v1.29h25.51v-1.29s-9.61-1.34-9.61-7.71c0-.36-.06-356.81-.06-356.81.23.06.87.22.87.22Z"/><path class="cls-1" d="M1251.28,74.96c2.95-.85,5.91-1.64,8.89-2.37.7,1.74,1.47,3.45,2.29,5.11,1.24,2.49,2.63,4.88,4.14,7.16.28.42.57.84.88,1.25.06,3.83.25,7.65.58,11.46.08.89.93,1.78,1.69,1.14,1.23-1.03,1.72-3.03.77-4.53-.14-.22-.31-.36-.49-.45-.1-1.68-.18-3.36-.24-5.04.66.57,1.38,1.06,2.16,1.4,2.1.91,4.34.27,5.88-1.63,1.55-1.91,2.43-4.58,3.23-7,1.84-5.54,2.75-11.52,2.72-17.46-.02-2.97-.27-5.94-.77-8.85-.44-2.62-1.19-5.35-3.04-7.08-1.73-1.62-4.1-2.02-5.99-.5-1.85,1.48-2.79,4.05-3.51,6.44-.99,3.3-1.47,6.78-1.87,10.23-.15,1.29-.27,2.59-.39,3.88-2.25.46-4.49.95-6.72,1.48-.3-.81-.6-1.61-.87-2.43-.85-2.59-1.56-5.24-2.12-7.93-.58-2.8-1.12-5.85-.34-8.67,1.42-5.1,6.97-6.76,10.39-3.31,1.09,1.1,2.69-.76,1.59-1.87-3.47-3.51-8.67-3.52-11.98.32-3.74,4.34-2.69,10.72-1.43,16.05.67,2.85,1.51,5.65,2.5,8.38-2.86.7-5.7,1.46-8.54,2.28-1.41.41-.81,2.95.6,2.55ZM1270.95,63.45c.33-2.57.72-5.14,1.37-7.63.54-2.05,1.24-4.66,2.79-5.99,1.72-1.48,3.7.03,4.61,1.92,1,2.06,1.28,4.68,1.52,7,.53,5.09.33,10.29-.62,15.3-.48,2.53-1.13,5.02-1.98,7.41-.68,1.94-1.47,4.43-2.98,5.72-2.04,1.74-4.19.16-5.96-2.02-.05-4.94.13-9.88.53-14.8,2.95-.58,5.91-1.11,8.88-1.56.61-.09,1.12-.54,1.12-1.32,0-.64-.52-1.41-1.12-1.32-2.89.44-5.77.95-8.65,1.5.14-1.41.3-2.81.48-4.21ZM1267.96,70.82c-.12,1.48-.23,2.96-.3,4.44-.11,2.21-.16,4.42-.19,6.63-.31-.52-.59-.99-.82-1.38-1.58-2.69-2.98-5.53-4.21-8.47,1.83-.43,3.67-.84,5.51-1.22Z"/><path class="cls-1" d="M1288.2,104.65c-9.14,1.92-18.41,2.89-27.69,2.92.06-7.4.11-14.79.17-22.19.01-1.7-2.24-1.7-2.25,0-.06,7.39-.11,14.78-.17,22.17-.77-.01-1.53-.01-2.3-.03-1.45-.04-1.45,2.6,0,2.64.76.02,1.52.02,2.28.03v.75c-.03.07-.07.12-.09.2-.26,1.08-.08,2.38-.06,3.48.03,1.46.05,2.92.08,4.38.03,1.7,2.24,1.7,2.25,0,.02-2.37.04-4.73.05-7.1.25-.06.55-.08.77-.12.9-.18,1.79-.36,2.69-.55.57-.12.81-.6.81-1.11,8.06-.28,16.11-1.26,24.05-2.93,1.42-.3.82-2.85-.6-2.55Z"/><path class="cls-1" d="M1253.08,118.43c.39-8.63.96-17.25,1.71-25.85.15-1.69-2.1-1.68-2.25,0-.75,8.6-1.32,17.22-1.71,25.85-.08,1.7,2.17,1.69,2.25,0Z"/><path class="cls-1" d="M1282.11,96.92c-.29-.08-.61-.06-.87.13-.07.05-.14.09-.21.13-.13.06-.26.1-.4.13-.12,0-.24.02-.36.01-.15,0-.3.03-.43.11-.14.05-.26.14-.36.27-.11.12-.19.26-.23.43-.07.16-.1.33-.1.51.01.34.11.7.33.93.08.07.15.14.23.21.18.12.36.18.57.18.36.03.74-.02,1.1-.13.22-.06.42-.17.63-.27.13-.07.25-.14.37-.23.24-.18.44-.46.52-.79.05-.18.05-.35.02-.53,0-.18-.05-.34-.13-.49-.15-.28-.39-.53-.67-.61Z"/><path class="cls-1" d="M1285.63,124.5c-.17,12.89-1,25.75-2.49,38.52-1.92-3.01-3.94-5.93-6.08-8.73-.27-4.82-.43-9.65-.46-14.48,1.55.01,3.1.04,4.65.12,1.45.07,1.45-2.57,0-2.64-1.55-.08-3.11-.11-4.66-.12,0-3.92.09-7.85.25-11.77.07-1.7-2.18-1.69-2.25,0-.17,3.92-.24,7.85-.25,11.78-2.87.04-5.74.18-8.6.44-1.43.13-1.45,2.77,0,2.64,2.86-.26,5.73-.4,8.61-.44.03,3.81.13,7.63.3,11.44-3.97-4.86-8.26-9.36-12.85-13.42-1.45-1.28-3-2.68-4.7-3.5,3.16-1.91,6.4-3.64,9.72-5.16,1.33-.61.75-3.17-.6-2.55-4.5,2.06-8.87,4.45-13.1,7.19-.94.61-.56,2.57.57,2.46,1.74-.17,3.22.73,4.63,1.83,1.36,1.06,2.65,2.24,3.93,3.43,2.61,2.41,5.11,4.97,7.51,7.66,1.77,1.99,3.46,4.07,5.11,6.2.05.8.1,1.59.16,2.39-1.97-.28-4.04-.17-6.02-.25-3.6-.14-7.21-.28-10.81-.41,1.35-2.75,1.86-5.91,1.45-9.14-.22-1.68-2.38-.96-2.17.7.4,3.11-.43,6.37-2.17,8.75-.63.86-.22,2.22.8,2.25,3.38.13,6.76.26,10.14.39,1.66.06,3.32.13,4.98.19.86.03,1.72.07,2.58.1.35.01.76-.02,1.11.04.11.02.21.05.31.09,0,.01,0,.03,0,.04.09,1.16,1.58,1.98,2.1.67.25-.63.24-1.2.08-1.69-.02-.28-.04-.56-.06-.85,1.95,2.7,3.81,5.48,5.56,8.36.49.81,1.9.92,2.06-.32,1.76-13.99,2.75-28.1,2.93-42.24.02-1.7-2.23-1.7-2.25,0Z"/><path class="cls-1" d="M1267.97,168.88c-2-.13-3.99-.22-5.99-.24-.97,0-1.94,0-2.91.01-.92.02-1.87,0-2.73.45-1.52.78-2.19,2.7-2.61,4.47-.49,2.07-.63,4.26-.73,6.4-.39,7.91.69,16.9,6.09,22.36,0,3.36-.02,6.72-.06,10.07-.02,1.7,2.23,1.7,2.25,0,.03-2.74.05-5.47.06-8.21,2.17,1.43,4.68,2.17,7.17,1.87,3.23-.4,5.96-2.53,8.05-5.36,2.28-3.09,3.94-6.79,5.39-10.48.76-1.95,1.46-3.93,2.1-5.93.33-1.01.64-2.03.94-3.05.3-1.01.7-2.06.57-3.15-.27-2.17-2.43-3.11-3.98-3.71-1.84-.71-3.91-1.02-5.82-.57-1.85.44-3.15,1.88-4.09,3.74-.83,1.65-1.49,4.02-3.26,4.51-1.41.39-.81,2.94.6,2.55,2.86-.79,3.53-4.13,5.07-6.58,1.82-2.89,5.84-1.83,8.19-.49.64.37,1.2.61.99,1.54-.2.89-.51,1.75-.77,2.62-.55,1.8-1.13,3.59-1.77,5.35-1.23,3.38-2.63,6.73-4.41,9.76-1.48,2.54-3.43,5.02-5.95,6.09-2.63,1.12-5.55.59-7.96-1.01-.37-.24-.71-.51-1.05-.79,0-7.67-.07-15.33-.23-23-.04-1.7-2.29-1.7-2.25,0,.15,6.84.22,13.68.23,20.52-2.79-3.97-3.83-9.58-3.91-14.65-.03-2.2.06-4.4.25-6.59.15-1.69.35-4.11,1.37-5.44.59-.77,1.67-.61,2.47-.62.97-.02,1.94-.02,2.91,0,1.94.02,3.87.1,5.81.23,1.45.1,1.44-2.55,0-2.64Z"/><path class="cls-1" d="M1265.29,189.85c2.46.33,4.93.4,7.4.23.59-.04,1.15-.58,1.12-1.32-.03-.68-.5-1.37-1.12-1.32-2.47.18-4.94.1-7.4-.23-.59-.08-1.15.66-1.12,1.32.03.78.5,1.24,1.12,1.32Z"/><path class="cls-1" d="M1271.95,120.5c3.36-.54,6.69-1.3,9.97-2.29,1.4-.42.81-2.97-.6-2.55-3.28.99-6.61,1.75-9.97,2.29-.6.1-.93,1-.79,1.62.18.76.78,1.02,1.38.92Z"/><path class="cls-1" d="M1254.74,253.91c.18.96.84,1.52,1.67,1.52,1.14,0,2.33-.29,3.47-.44.99-.13,1.97-.25,2.96-.38.85-.11,2.09,0,2.76-.76.65-.74.53-1.89.52-2.85,0-1.32-.02-2.63-.03-3.95-.04-5.78-.07-11.56-.11-17.34,0-.73-.43-1.13-.91-1.23-.18-.3-.46-.52-.87-.54-2.05-.09-4.1.03-6.14.36-.8.13-1.85.16-2.57.65-.76.52-.84,1.46-.84,2.39-.03,5.12-.02,10.24,0,15.36,0,1.17,0,2.34.02,3.51,0,1.18-.15,2.54.07,3.69ZM1263.87,251.92c0,.15-.02.08,0,0h0ZM1263.73,230.57c.03,5.05.06,10.11.1,15.16,0,1.32.02,2.63.03,3.95,0,.65-.03,1.32.01,1.98,0,.07,0,.13,0,.17-.29.03-.57.07-.86.11-1.11.14-2.22.29-3.32.43-.55.07-1.11.14-1.66.21-.33.04-.75.17-1.14.2-.01-.45.04-1.02.04-1.26,0-.66,0-1.32-.01-1.98,0-1.32-.01-2.63-.02-3.95,0-2.78-.01-5.56,0-8.34,0-1.32,0-2.63,0-3.95,0-.61.1-1.38,0-1.97,0-.05,0-.07.02-.11.18-.05.39-.13.51-.16,2.08-.43,4.19-.57,6.29-.5Z"/><path class="cls-1" d="M1285.26,236.04c-1.55-.04-3.1,0-4.64.13,1.97-7.47,3.3-15.16,3.95-22.97.63-.73.02-2.44-1.16-2.24-6.17,1.03-12.4,1.51-18.63,1.48-.89,0-1.35,1.11-.97,1.99,1.01,2.34,1.83,4.74,2.51,7.2-.7.01-1.39.03-2.08.03-3.02,0-6.03,0-9.05,0-1.45,0-1.45,2.65,0,2.64,2.9,0,5.8-.01,8.71,0,1,0,2.04-.04,3.09-.06,2.37,10,2.82,20.68,4.89,30.75.22,1.08,1.61,1.32,2.06.32,2.35-5.3,4.33-10.79,5.94-16.43,1.79-.17,3.59-.23,5.39-.19,1.45.04,1.45-2.61,0-2.64ZM1273.37,250.65c-1.5-8.75-2.16-17.76-4.09-26.37.98.07,1.95.23,2.88.54,1.39.47,1.99-2.08.6-2.55-1.33-.45-2.72-.6-4.12-.65-.58-2.23-1.27-4.43-2.1-6.58,5.26-.06,10.5-.5,15.71-1.29-.68,7.7-2.06,15.3-4.07,22.66-.62.08-1.23.16-1.85.26-.6.1-.93,1-.79,1.62.18.76.78,1.02,1.38.92.16-.03.33-.04.5-.07-1.16,3.92-2.53,7.75-4.06,11.49Z"/><path class="cls-1" d="M1282.68,309.17c1.12,1.91.45,4.44-.95,5.9-1.73,1.82-4.42,1.81-6.56,1.29-2.42-.59-4.82-1.76-6.67-3.72-1.83-1.93-3.14-4.46-4.05-7.12-1.79-5.23-2.2-10.91-1.51-16.42,3.42-.35,6.84-.61,10.26-.75,1.44-.06,1.45-2.7,0-2.64-3.28.13-6.56.37-9.83.7.52-2.7,1.31-5.33,2.33-7.82,4.22-.42,8.44-.83,12.66-1.25,1.43-.14,1.45-2.78,0-2.64-3.8.37-7.61.75-11.41,1.12.26-.51.52-1.02.8-1.52,2.9-5.19,7.75-10.9,13.57-9.09,1.4.43,2-2.11.6-2.55-6.05-1.88-11.35,2.81-14.82,8.17-1.07,1.65-2.01,3.42-2.84,5.25-1.85.18-3.69.36-5.54.54.41-4.32.93-8.62,1.56-12.91.25-1.66-1.92-2.38-2.17-.7-.68,4.59-1.24,9.21-1.67,13.83l-2.56.25c-1.43.14-1.45,2.78,0,2.64.78-.08,1.56-.15,2.33-.23-.22,2.65-.4,5.3-.54,7.95-.36.21-.62.59-.63,1.14,0,.41.21.87.52,1.12-.16,3.59-.25,7.19-.26,10.79,0,1.7,2.25,1.7,2.25,0,0-3.6.1-7.21.26-10.81.95-.13,1.9-.26,2.85-.37-.65,6.05-.09,12.23,1.98,17.86,1.12,3.05,2.75,5.92,4.98,7.99,2.24,2.08,5.04,3.41,7.86,3.9,2.89.5,6.24.04,8.28-2.68,1.74-2.32,2.43-5.89.87-8.58-.81-1.39-2.76-.07-1.94,1.33ZM1258.47,279.31c1.55-.15,3.09-.3,4.64-.46-.93,2.51-1.63,5.14-2.09,7.82-1.03.12-2.06.25-3.09.39.14-2.59.33-5.17.55-7.75Z"/><path class="cls-1" d="M1285.26,289.96c.05-1.43-1.51-1.64-2.06-.67-.35-.46-.91-.53-1.39-.27-4.33,2.28-8.49,4.98-12.45,8.05-1.05.82-.4,2.77.87,2.41,4.18-1.17,8.67-.14,12.19,2.74.85.69,1.85,1.95,2.93.97,1.02-.92.45-2.61.3-3.83-.39-3.11-.5-6.26-.38-9.4ZM1281.52,298.53c-1.21-.7-2.5-1.26-3.81-1.62-1.04-.28-2.09-.45-3.14-.51,2.72-1.87,5.51-3.58,8.39-5.1.02,0,.03-.02.04-.03-.03,1.59-.01,3.17.09,4.76.06.95.14,1.9.25,2.85.04.33.08.66.12.99-.07-.05-.13-.11-.19-.16-.56-.43-1.14-.83-1.74-1.17Z"/><path class="cls-1" d="M1284.76,323.75c0-.55-.25-.91-.57-1.1.06-1.06-1.1-2.06-1.9-1.07-2.54,3.12-4.92,6.41-7.15,9.85-.79-1.58-1.76-3.01-3.05-4.08-2.53-2.11-5.96-2.23-8.85-1.23-3.31,1.15-6.06,3.7-8.73,6.17-1.14,1.05.46,2.91,1.59,1.87,3.65-3.37,8.5-7.68,13.43-5.44,1.96.89,3.21,2.92,4.13,5.06-1.76,2.87-3.41,5.84-4.92,8.9-.86,1.73-1.68,3.36-.52,5.2,1.06,1.68,2.23,3.26,3.25,4.98.94,1.58,1.81,3.22,2.62,4.9-.11.37-.21.74-.33,1.1-.83,2.57-1.86,5.08-3.11,7.42-1.07,2.01-2.5,4.18-4.43,5.09-2.25,1.06-4.47-.32-5.68-2.61-1.55-2.95-1.19-6.64-.63-9.86.29-1.66-1.88-2.37-2.17-.7-.6,3.38-.95,7.05.19,10.33.91,2.63,2.77,5,5.19,5.67,5.57,1.55,9.25-5.55,11.28-10.47.39-.95.75-1.92,1.09-2.9.43,1.01.85,2.02,1.24,3.05,1.63,4.31,2.84,8.85,3.65,13.47.2,1.12,1.61,1.28,2.06.32,2.7-5.79,2.21-12.96,2.29-19.34.09-7.36.1-14.72.08-22.08-.01-4.15-.03-8.31-.05-12.46ZM1272.21,349.55c-.47-.73-.95-1.46-1.44-2.18-.24-.35-.58-.71-.77-1.1-.24-.5-.04-.77.19-1.25,1.38-2.88,2.9-5.68,4.51-8.4.54,1.83.91,3.74,1.09,5.65.38,4.04.03,8.11-.81,12.03-.86-1.63-1.78-3.22-2.76-4.75ZM1282.55,351.08c-.03,4.51-.07,9.02-.16,13.53-.05,2.64-.14,5.35-.67,7.91-1.21-5.24-2.95-10.31-5.17-15.07,1.14-4.16,1.76-8.52,1.63-12.89-.09-3.23-.59-6.47-1.57-9.5-.11-.34-.23-.67-.34-1,1.95-3.1,4.04-6.06,6.26-8.89.04,8.64.08,17.27.03,25.91Z"/><path class="cls-1" d="M1264.01,338.37c-3.49-.12-6.98-.24-10.47-.35-1.45-.05-1.45,2.59,0,2.64,3.49.12,6.98.24,10.47.35,1.45.05,1.45-2.59,0-2.64Z"/><path class="cls-1" d="M1264.57,345.81c-.17-.74-.78-1.05-1.38-.92-2.69.56-5.4.94-8.12,1.14-.61.04-1.12.58-1.12,1.32,0,.68.52,1.37,1.12,1.32,2.92-.21,5.83-.63,8.72-1.24.6-.13.94-.98.79-1.62Z"/><path class="cls-1" d="M1288.21,788.62c-2.95.85-5.91,1.64-8.89,2.37-.7-1.74-1.47-3.45-2.29-5.11-1.24-2.49-2.63-4.88-4.14-7.16-.28-.42-.57-.84-.88-1.25-.06-3.83-.25-7.65-.58-11.46-.08-.89-.93-1.78-1.69-1.14-1.23,1.03-1.72,3.03-.77,4.53.14.22.31.36.49.45.1,1.68.18,3.36.24,5.04-.66-.57-1.38-1.06-2.16-1.4-2.1-.91-4.34-.27-5.88,1.63-1.55,1.91-2.43,4.58-3.23,7-1.84,5.54-2.75,11.52-2.72,17.46.02,2.97.27,5.94.77,8.85.44,2.62,1.19,5.35,3.04,7.08,1.73,1.62,4.1,2.02,5.99.5,1.85-1.48,2.79-4.05,3.51-6.44.99-3.3,1.47-6.78,1.87-10.23.15-1.29.27-2.59.39-3.88,2.25-.46,4.49-.95,6.72-1.48.3.81.6,1.61.87,2.43.85,2.59,1.56,5.24,2.12,7.93.58,2.8,1.12,5.85.34,8.67-1.42,5.1-6.97,6.76-10.39,3.31-1.09-1.1-2.69.76-1.59,1.87,3.47,3.51,8.67,3.52,11.98-.32,3.74-4.34,2.69-10.72,1.43-16.05-.67-2.85-1.51-5.65-2.5-8.38,2.86-.7,5.7-1.46,8.54-2.28,1.41-.41.81-2.95-.6-2.55ZM1268.54,800.13c-.33,2.57-.72,5.14-1.37,7.63-.54,2.05-1.24,4.66-2.79,5.99-1.72,1.48-3.7-.03-4.61-1.92-1-2.06-1.28-4.68-1.52-7-.53-5.09-.33-10.29.62-15.3.48-2.53,1.13-5.02,1.98-7.41.68-1.94,1.47-4.43,2.98-5.72,2.04-1.74,4.19-.16,5.96,2.02.05,4.94-.13,9.88-.53,14.8-2.95.58-5.91,1.11-8.88,1.56-.61.09-1.12.54-1.12,1.32,0,.64.52,1.41,1.12,1.32,2.89-.44,5.77-.95,8.65-1.5-.14,1.41-.3,2.81-.48,4.21ZM1271.53,792.76c.12-1.48.23-2.96.3-4.44.11-2.21.16-4.42.19-6.63.31.52.59.99.82,1.38,1.58,2.69,2.98,5.53,4.21,8.47-1.83.43-3.67.84-5.51,1.22Z"/><path class="cls-1" d="M1278.81,778.2c-.01,1.7,2.24,1.7,2.25,0,.06-7.39.11-14.78.17-22.17.77.01,1.53.01,2.3.03,1.45.04,1.45-2.6,0-2.64-.76-.02-1.52-.02-2.28-.03v-.75c.03-.07.07-.13.09-.2.26-1.08.08-2.38.06-3.48-.03-1.46-.05-2.92-.08-4.38-.03-1.7-2.24-1.7-2.25,0-.02,2.37-.04,4.73-.05,7.1-.25.06-.55.08-.77.12-.9.18-1.79.36-2.69.55-.57.12-.81.6-.81,1.11-8.06.28-16.11,1.26-24.05,2.93-1.42.3-.82,2.85.6,2.55,9.14-1.92,18.41-2.89,27.69-2.92-.06,7.4-.11,14.79-.17,22.19Z"/><path class="cls-1" d="M1286.41,745.15c-.39,8.63-.96,17.25-1.71,25.85-.15,1.69,2.1,1.68,2.25,0,.75-8.6,1.32-17.22,1.71-25.85.08-1.7-2.17-1.69-2.25,0Z"/><path class="cls-1" d="M1259.21,763.62c-.36-.03-.74.02-1.1.13-.22.06-.42.17-.63.27-.13.07-.25.14-.37.23-.24.18-.44.46-.52.79-.05.18-.05.35-.02.53,0,.18.05.34.13.49.15.28.39.53.67.61.29.08.61.06.87-.13.07-.05.14-.09.21-.13.13-.06.26-.1.4-.13.12,0,.24-.02.36-.01.15,0,.3-.03.43-.11.14-.05.26-.14.36-.27.11-.12.19-.26.23-.43.07-.16.1-.33.1-.51-.01-.34-.11-.7-.33-.93-.08-.07-.15-.14-.23-.21-.18-.12-.36-.18-.57-.18Z"/><path class="cls-1" d="M1253.86,739.08c.17-12.89,1-25.75,2.49-38.52,1.92,3.01,3.94,5.93,6.08,8.73.27,4.82.43,9.65.46,14.48-1.55-.01-3.1-.04-4.65-.12-1.45-.07-1.45,2.57,0,2.64,1.55.08,3.11.11,4.66.12,0,3.92-.09,7.85-.25,11.77-.07,1.7,2.18,1.69,2.25,0,.17-3.92.24-7.85.25-11.78,2.87-.04,5.74-.18,8.6-.44,1.43-.13,1.45-2.77,0-2.64-2.86.26-5.73.4-8.61.44-.03-3.81-.13-7.63-.3-11.44,3.97,4.86,8.26,9.36,12.85,13.42,1.45,1.28,3,2.68,4.7,3.5-3.16,1.91-6.4,3.64-9.72,5.16-1.33.61-.75,3.17.6,2.55,4.5-2.06,8.87-4.45,13.1-7.19.94-.61.56-2.57-.57-2.46-1.74.17-3.22-.73-4.63-1.83-1.36-1.06-2.65-2.24-3.93-3.43-2.61-2.41-5.11-4.97-7.51-7.66-1.77-1.99-3.46-4.07-5.11-6.2-.05-.8-.1-1.59-.16-2.39,1.97.28,4.04.17,6.02.25,3.6.14,7.21.28,10.81.41-1.35,2.75-1.86,5.91-1.45,9.14.22,1.68,2.38.96,2.17-.7-.4-3.11.43-6.37,2.17-8.75.63-.86.22-2.22-.8-2.25-3.38-.13-6.76-.26-10.14-.39-1.66-.06-3.32-.13-4.98-.19-.86-.03-1.72-.07-2.58-.1-.35-.01-.76.02-1.11-.04-.11-.02-.21-.05-.31-.09,0-.01,0-.03,0-.04-.09-1.16-1.58-1.98-2.1-.67-.25.63-.24,1.19-.08,1.69.02.28.04.56.06.85-1.95-2.7-3.81-5.48-5.56-8.36-.49-.81-1.9-.92-2.06.32-1.76,13.99-2.75,28.1-2.93,42.24-.02,1.7,2.23,1.7,2.25,0Z"/><path class="cls-1" d="M1271.52,694.7c2,.13,3.99.22,5.99.24.97,0,1.94,0,2.91-.01.92-.02,1.87,0,2.73-.45,1.52-.78,2.19-2.7,2.61-4.47.49-2.07.63-4.26.73-6.4.39-7.91-.69-16.9-6.09-22.36,0-3.36.02-6.72.06-10.07.02-1.7-2.23-1.7-2.25,0-.03,2.74-.05,5.47-.06,8.21-2.17-1.43-4.68-2.17-7.17-1.87-3.23.4-5.96,2.53-8.05,5.36-2.28,3.09-3.94,6.79-5.39,10.48-.76,1.95-1.46,3.93-2.1,5.93-.33,1.01-.64,2.03-.94,3.05-.3,1.01-.7,2.06-.57,3.15.27,2.17,2.43,3.11,3.98,3.71,1.84.71,3.91,1.02,5.82.57,1.85-.44,3.15-1.88,4.09-3.74.83-1.65,1.49-4.02,3.26-4.51,1.41-.39.81-2.94-.6-2.55-2.86.79-3.53,4.13-5.07,6.58-1.82,2.89-5.84,1.83-8.19.49-.64-.37-1.2-.61-.99-1.54.2-.89.51-1.75.77-2.62.55-1.8,1.13-3.59,1.77-5.35,1.23-3.38,2.63-6.73,4.41-9.76,1.48-2.54,3.43-5.02,5.95-6.09,2.63-1.12,5.55-.59,7.96,1.01.37.24.71.51,1.05.79,0,7.67.07,15.33.23,23,.04,1.7,2.29,1.7,2.25,0-.15-6.84-.22-13.68-.23-20.52,2.79,3.97,3.83,9.58,3.91,14.65.03,2.2-.06,4.4-.25,6.59-.15,1.69-.35,4.11-1.37,5.44-.59.77-1.67.61-2.47.62-.97.02-1.94.02-2.91,0-1.94-.02-3.87-.1-5.81-.23-1.45-.1-1.44,2.55,0,2.64Z"/><path class="cls-1" d="M1274.2,673.73c-2.46-.33-4.93-.4-7.4-.23-.59.04-1.15.58-1.12,1.32.03.68.5,1.37,1.12,1.32,2.47-.18,4.94-.1,7.4.23.59.08,1.15-.66,1.12-1.32-.03-.78-.5-1.24-1.12-1.32Z"/><path class="cls-1" d="M1267.54,743.08c-3.36.54-6.69,1.3-9.97,2.29-1.4.42-.81,2.97.6,2.55,3.28-.99,6.61-1.75,9.97-2.29.6-.1.93-1,.79-1.62-.18-.76-.78-1.02-1.38-.92Z"/><path class="cls-1" d="M1284.75,609.67c-.18-.96-.84-1.52-1.67-1.52-1.14,0-2.33.29-3.47.44-.99.13-1.97.25-2.96.38-.85.11-2.09,0-2.76.76-.65.74-.53,1.89-.52,2.85,0,1.32.02,2.63.03,3.95.04,5.78.07,11.56.11,17.34,0,.73.43,1.13.91,1.23.18.3.46.52.87.54,2.05.09,4.1-.03,6.14-.36.8-.13,1.85-.16,2.57-.65.76-.52.84-1.46.84-2.39.03-5.12.02-10.24,0-15.36,0-1.17,0-2.34-.02-3.51,0-1.18.15-2.54-.07-3.69ZM1275.62,611.66c0-.15.02-.08,0,0h0ZM1275.76,633.01c-.03-5.05-.06-10.11-.1-15.16,0-1.32-.02-2.63-.03-3.95,0-.65.03-1.32-.01-1.98,0-.07,0-.13,0-.17.29-.04.57-.07.86-.11,1.11-.14,2.22-.29,3.32-.43.55-.07,1.11-.14,1.66-.21.33-.04.75-.17,1.14-.2.01.45-.04,1.02-.04,1.26,0,.66,0,1.32.01,1.98,0,1.32.01,2.63.02,3.95,0,2.78.01,5.56,0,8.34,0,1.32,0,2.63,0,3.95,0,.61-.1,1.38,0,1.97,0,.05,0,.07-.02.11-.18.05-.39.13-.51.16-2.08.43-4.19.57-6.29.5Z"/><path class="cls-1" d="M1254.23,627.54c1.55.04,3.1-.01,4.64-.13-1.97,7.47-3.3,15.16-3.95,22.97-.63.73-.02,2.44,1.16,2.24,6.17-1.03,12.4-1.51,18.63-1.48.89,0,1.35-1.11.97-1.99-1.01-2.34-1.83-4.74-2.51-7.2.7-.01,1.39-.03,2.08-.03,3.02,0,6.03,0,9.05,0,1.45,0,1.45-2.65,0-2.64-2.9,0-5.8.01-8.71,0-1,0-2.04.04-3.09.06-2.37-10-2.82-20.68-4.89-30.75-.22-1.08-1.61-1.32-2.06-.32-2.35,5.3-4.33,10.79-5.94,16.43-1.79.17-3.59.23-5.39.19-1.45-.04-1.45,2.61,0,2.64ZM1266.12,612.93c1.5,8.75,2.16,17.76,4.09,26.37-.98-.07-1.95-.23-2.88-.54-1.39-.47-1.99,2.08-.6,2.55,1.33.45,2.72.6,4.12.65.58,2.23,1.27,4.43,2.1,6.58-5.26.06-10.5.5-15.71,1.29.68-7.7,2.06-15.3,4.07-22.66.62-.08,1.23-.16,1.85-.26.6-.1.93-1,.79-1.62-.18-.76-.78-1.02-1.38-.92-.16.03-.33.04-.5.07,1.16-3.92,2.53-7.75,4.06-11.49Z"/><path class="cls-1" d="M1256.81,554.41c-1.12-1.91-.45-4.44.95-5.9,1.73-1.82,4.42-1.81,6.56-1.29,2.42.59,4.82,1.76,6.67,3.72,1.83,1.93,3.14,4.46,4.05,7.12,1.79,5.24,2.2,10.91,1.51,16.42-3.42.35-6.84.61-10.26.75-1.44.06-1.45,2.7,0,2.64,3.28-.13,6.56-.37,9.83-.7-.52,2.7-1.31,5.33-2.33,7.82-4.22.42-8.44.83-12.66,1.25-1.43.14-1.45,2.78,0,2.64,3.8-.37,7.61-.75,11.41-1.12-.26.51-.52,1.02-.8,1.52-2.9,5.19-7.75,10.9-13.57,9.09-1.4-.43-2,2.11-.6,2.55,6.05,1.88,11.35-2.81,14.82-8.17,1.07-1.65,2.01-3.42,2.84-5.25,1.85-.18,3.69-.36,5.54-.54-.41,4.32-.93,8.62-1.56,12.91-.25,1.66,1.92,2.38,2.17.7.68-4.59,1.24-9.2,1.67-13.83l2.56-.25c1.43-.14,1.45-2.78,0-2.64-.78.08-1.56.15-2.33.23.22-2.65.4-5.3.54-7.95.36-.21.62-.59.63-1.14,0-.41-.21-.87-.52-1.12.16-3.59.25-7.19.26-10.79,0-1.7-2.25-1.7-2.25,0,0,3.6-.1,7.21-.26,10.81-.95.13-1.9.26-2.85.37.65-6.05.09-12.23-1.98-17.86-1.12-3.05-2.75-5.92-4.98-7.99-2.24-2.08-5.04-3.41-7.86-3.9-2.89-.5-6.24-.04-8.28,2.68-1.74,2.32-2.43,5.89-.87,8.58.81,1.39,2.76.07,1.94-1.33ZM1281.02,584.27c-1.55.15-3.09.3-4.64.46.93-2.51,1.63-5.14,2.09-7.82,1.03-.12,2.06-.25,3.09-.39-.14,2.59-.33,5.17-.55,7.75Z"/><path class="cls-1" d="M1254.23,573.62c-.05,1.43,1.51,1.64,2.06.67.35.46.91.53,1.39.27,4.33-2.28,8.49-4.98,12.45-8.05,1.05-.82.4-2.77-.87-2.41-4.18,1.17-8.67.14-12.19-2.74-.85-.69-1.85-1.95-2.93-.97-1.02.92-.45,2.61-.3,3.83.39,3.11.5,6.26.38,9.4ZM1257.97,565.05c1.21.7,2.5,1.26,3.81,1.62,1.04.28,2.09.45,3.14.51-2.72,1.87-5.51,3.58-8.39,5.1-.02,0-.03.02-.04.03.03-1.59.01-3.17-.09-4.76-.06-.95-.14-1.9-.25-2.85-.04-.33-.08-.66-.12-.99.07.05.13.11.19.16.56.43,1.14.83,1.74,1.17Z"/><path class="cls-1" d="M1254.73,539.83c0,.55.25.91.57,1.1-.06,1.06,1.1,2.06,1.9,1.07,2.54-3.12,4.92-6.41,7.15-9.85.79,1.58,1.76,3.01,3.05,4.08,2.53,2.11,5.96,2.23,8.85,1.23,3.31-1.15,6.06-3.7,8.73-6.17,1.14-1.05-.46-2.91-1.59-1.87-3.65,3.37-8.5,7.68-13.43,5.44-1.96-.89-3.21-2.92-4.13-5.06,1.76-2.87,3.41-5.84,4.92-8.9.86-1.73,1.68-3.36.52-5.2-1.06-1.68-2.23-3.26-3.25-4.98-.94-1.58-1.81-3.22-2.62-4.9.11-.37.21-.74.33-1.1.83-2.57,1.86-5.08,3.11-7.42,1.07-2.01,2.5-4.18,4.43-5.09,2.25-1.06,4.47.32,5.68,2.61,1.55,2.95,1.19,6.64.63,9.86-.29,1.66,1.88,2.37,2.17.7.6-3.38.95-7.05-.19-10.33-.91-2.63-2.77-5-5.19-5.67-5.57-1.55-9.25,5.55-11.28,10.47-.39.95-.75,1.92-1.09,2.9-.43-1.01-.85-2.02-1.24-3.05-1.63-4.31-2.84-8.85-3.65-13.47-.2-1.12-1.61-1.28-2.06-.32-2.7,5.79-2.21,12.96-2.29,19.34-.09,7.36-.1,14.72-.08,22.08.01,4.15.03,8.31.05,12.46ZM1267.28,514.03c.47.73.95,1.46,1.44,2.18.24.35.58.71.77,1.1.24.5.04.77-.19,1.25-1.38,2.88-2.9,5.68-4.51,8.4-.54-1.83-.91-3.74-1.09-5.65-.38-4.04-.03-8.1.81-12.03.86,1.63,1.78,3.22,2.76,4.75ZM1256.94,512.49c.03-4.51.07-9.02.16-13.53.05-2.64.14-5.35.67-7.91,1.21,5.24,2.95,10.31,5.17,15.07-1.14,4.16-1.76,8.52-1.63,12.89.09,3.23.59,6.47,1.57,9.5.11.34.23.67.34,1-1.95,3.1-4.04,6.06-6.26,8.89-.04-8.64-.08-17.27-.03-25.91Z"/><path class="cls-1" d="M1275.48,525.21c3.49.12,6.98.24,10.47.35,1.45.05,1.45-2.59,0-2.64-3.49-.12-6.98-.24-10.47-.35-1.45-.05-1.45,2.59,0,2.64Z"/><path class="cls-1" d="M1274.92,517.77c.17.74.78,1.05,1.38.92,2.69-.56,5.4-.94,8.12-1.14.61-.04,1.12-.58,1.12-1.32,0-.68-.52-1.37-1.12-1.32-2.92.21-5.83.63-8.72,1.24-.6.13-.94.98-.79,1.62Z"/><path class="cls-1" d="M1321.24,863.58s-13.44-16.64-15.9-36.66V36.66c2.45-20.02,15.9-36.66,15.9-36.66,0,0-16.63,13.44-36.66,15.9h-34.89c-4.81-1.37-7.76-6.54-10.79-15.32-3.04,8.78-5.99,13.96-10.79,15.32H93.13c-4.81-1.37-7.76-6.54-10.79-15.32-3.04,8.78-5.99,13.96-10.79,15.32h-34.89C16.63,13.44,0,0,0,0c0,0,13.44,16.63,15.9,36.66v790.26c-2.45,20.02-15.9,36.66-15.9,36.66,0,0,16.64-13.44,36.66-15.9h34.88c4.81,1.37,7.76,6.54,10.79,15.32,3.04-8.78,5.99-13.96,10.79-15.32h1134.98c4.81,1.37,7.76,6.54,10.79,15.32,3.04-8.78,5.99-13.96,10.79-15.32h34.88c20.03,2.45,36.66,15.9,36.66,15.9ZM23.9,23.9h1273.45v815.79H23.9V23.9Z"/></g></svg>