<?xml version="1.0" encoding="UTF-8"?><svg id="Layer_1" xmlns="http://www.w3.org/2000/svg" viewBox="0 0 1281.45 857.58"><defs><style>.cls-1{fill:#fff;}</style></defs><g id="WindowFrame_3"><path class="cls-1" d="M1278.66,30.02s-.52,3.82-2.54,6.02H5.33c-2.02-2.21-2.54-6.02-2.54-6.02H0v20.04h2.79s.52-3.82,2.54-6.02h1270.79c2.02,2.21,2.54,6.02,2.54,6.02h2.79v-20.04h-2.79Z"/><path class="cls-1" d="M640.72,61.83c-12.01,0-21.79-9.77-21.79-21.79s9.77-21.79,21.79-21.79,21.79,9.77,21.79,21.79-9.77,21.79-21.79,21.79ZM640.72,22.25c-9.81,0-17.79,7.98-17.79,17.79s7.98,17.79,17.79,17.79,17.79-7.98,17.79-17.79-7.98-17.79-17.79-17.79Z"/><rect class="cls-1" x="638.72" y="20.25" width="4" height="39.57"/><path class="cls-1" d="M892.34,50.26s-.41,3.1-2.17,4.28h-223.84l-.58,1c-5.15,8.91-14.74,14.45-25.03,14.45s-19.88-5.54-25.03-14.45l-.58-1h-223.84c-1.75-1.18-2.17-4.28-2.17-4.28h-1.75v12.57h1.75s.41-3.1,2.17-4.29h221.56c5.99,9.56,16.57,15.45,27.89,15.45s21.9-5.89,27.89-15.45h221.55c1.75,1.18,2.17,4.29,2.17,4.29h1.75v-12.57h-1.75Z"/><path class="cls-1" d="M1258.44,50.06s-.97,7.2-5.5,7.52h-24.76c-4.53-.32-5.5-7.52-5.5-7.52h-2.79v20.04h2.79s.97-7.19,5.49-7.52h24.78c4.52.33,5.49,7.52,5.49,7.52h2.79v-20.04h-2.79Z"/><path class="cls-1" d="M58.77,50.06s-.97,7.2-5.5,7.52h-24.76c-4.53-.32-5.5-7.52-5.5-7.52h-2.79v20.04h2.79s.97-7.19,5.49-7.52h24.78c4.52.33,5.49,7.52,5.49,7.52h2.79v-20.04h-2.79Z"/><path class="cls-1" d="M50.91,29.07v-2.79h-20.04v2.79s3.97.54,6.15,2.66v820.4c-2.18,2.13-6.15,2.66-6.15,2.66v2.79h20.04v-2.79s-3.97-.54-6.15-2.66V31.73c2.18-2.13,6.15-2.66,6.15-2.66Z"/><path class="cls-1" d="M58.77,813.76s-.97,7.19-5.49,7.52h-24.78c-4.52-.33-5.49-7.52-5.49-7.52h-2.79v20.04h2.79s.97-7.2,5.5-7.52h24.76c4.53.32,5.5,7.52,5.5,7.52h2.79v-20.04h-2.79Z"/><path class="cls-1" d="M1278.66,833.8s-.52,3.82-2.54,6.02H5.33c-2.02-2.21-2.54-6.02-2.54-6.02H0v20.04h2.79s.52-3.82,2.54-6.02h1270.79c2.02,2.21,2.54,6.02,2.54,6.02h2.79v-20.04h-2.79Z"/><path class="cls-1" d="M1250.58,29.07v-2.79h-20.04v2.79s3.97.54,6.15,2.66v820.4c-2.18,2.13-6.15,2.66-6.15,2.66v2.79h20.04v-2.79s-3.97-.54-6.15-2.66V31.74c2.18-2.13,6.15-2.66,6.15-2.66Z"/><path class="cls-1" d="M1258.44,813.76s-.97,7.19-5.49,7.52h-24.78c-4.52-.33-5.49-7.52-5.49-7.52h-2.79v20.04h2.79s.97-7.2,5.5-7.52h24.76c4.53.32,5.5,7.52,5.5,7.52h2.79v-20.04h-2.79Z"/><path class="cls-1" d="M656.01,4.97c0-1.74-.29-3.41-.83-4.97.05.48.07.96.07,1.45,0,8.02-6.51,14.53-14.53,14.53s-14.53-6.51-14.53-14.53c0-.49.02-.97.07-1.45-.53,1.56-.83,3.23-.83,4.97,0,8.44,6.84,15.29,15.29,15.29s15.29-6.84,15.29-15.29Z"/><path class="cls-1" d="M24.17,115.53v17.66c0,7.83,6,11.66,6,10v-26.54h21.45v26.54c0,1.66,6-2.17,6-10v-17.66c0-4.34,1.84-6.73,1.84-6.73,0,0-2.39,1.85-6.73,1.85h-23.68c-4.34,0-6.73-1.85-6.73-1.85,0,0,1.84,2.39,1.84,6.73Z"/><path class="cls-1" d="M1257.28,115.53v17.66c0,7.83-6,11.66-6,10v-26.54s-21.45,0-21.45,0v26.54c0,1.66-6-2.17-6-10v-17.66c0-4.34-1.84-6.73-1.84-6.73,0,0,2.39,1.85,6.73,1.85h23.68c4.34,0,6.73-1.85,6.73-1.85,0,0-1.84,2.39-1.84,6.73Z"/></g></svg>