<?xml version="1.0" encoding="UTF-8"?><svg id="Layer_1" xmlns="http://www.w3.org/2000/svg" viewBox="0 0 1335.31 888.83"><defs><style>.cls-1{fill:#fff;}</style></defs><g id="WindowFrame_1"><path class="cls-1" d="M55.29,0c12.12,7.7,20.17,21.23,20.17,36.65,0,23.97-19.43,43.4-43.4,43.4-12.69,0-24.12-5.45-32.05-14.14,7.73,15.13,23.46,25.49,41.62,25.49,25.8,0,46.72-20.92,46.72-46.72,0-21.05-13.92-38.84-33.05-44.69Z"/><path class="cls-1" d="M665.34,62.05H49.79s-3.06-6.64,34.72-6.64h575.71l5.11,6.64Z"/><path class="cls-1" d="M55.97,99.91v-1h-19.91v1s6.97.98,7.46,5.53v305.15c-.48,4.55-7.46,5.53-7.46,5.53v1h19.91v-1s-6.98-.98-7.46-5.54V105.45c.48-4.55,7.46-5.54,7.46-5.54Z"/><path class="cls-1" d="M26.93,466.2c-12.01,0-21.79-9.77-21.79-21.79s9.77-21.79,21.79-21.79,21.79,9.77,21.79,21.79-9.77,21.79-21.79,21.79ZM26.93,426.63c-9.81,0-17.79,7.98-17.79,17.79s7.98,17.79,17.79,17.79,17.79-7.98,17.79-17.79-7.98-17.79-17.79-17.79Z"/><rect class="cls-1" x="7.14" y="442.42" width="39.57" height="4"/><path class="cls-1" d="M1280.02,0c-12.12,7.7-20.17,21.23-20.17,36.65,0,23.97,19.43,43.4,43.4,43.4,12.69,0,24.12-5.45,32.05-14.14-7.73,15.13-23.46,25.49-41.62,25.49-25.8,0-46.72-20.92-46.72-46.72,0-21.05,13.92-38.84,33.05-44.69Z"/><path class="cls-1" d="M669.97,62.05h615.55s3.06-6.64-34.72-6.64c-37.79,0-575.71,0-575.71,0l-5.11,6.64Z"/><path class="cls-1" d="M1299.25,99.91v-1h-19.91v1s6.97.98,7.46,5.53v305.14c-.48,4.55-7.46,5.53-7.46,5.53v1h19.91v-1s-6.98-.98-7.46-5.53V105.45c.48-4.55,7.46-5.53,7.46-5.53Z"/><path class="cls-1" d="M55.29,888.83c12.12-7.7,20.17-21.23,20.17-36.65,0-23.97-19.43-43.4-43.4-43.4-12.69,0-24.12,5.45-32.05,14.14,7.73-15.13,23.46-25.49,41.62-25.49,25.8,0,46.72,20.92,46.72,46.72,0,21.05-13.92,38.84-33.05,44.69Z"/><path class="cls-1" d="M665.34,826.79H49.79s-3.06,6.64,34.72,6.64h575.71l5.11-6.64Z"/><path class="cls-1" d="M55.97,472.71v-1h-19.91v1s6.97.98,7.46,5.53v305.15c-.48,4.55-7.46,5.53-7.46,5.53v1h19.91v-1s-6.98-.98-7.46-5.54v-305.14c.48-4.55,7.46-5.54,7.46-5.54Z"/><path class="cls-1" d="M1280.02,888.83c-12.12-7.7-20.17-21.23-20.17-36.65,0-23.97,19.43-43.4,43.4-43.4,12.69,0,24.12,5.45,32.05,14.14-7.73-15.13-23.46-25.49-41.62-25.49-25.8,0-46.72,20.92-46.72,46.72,0,21.05,13.92,38.84,33.05,44.69Z"/><path class="cls-1" d="M22.93,28.52v831.79h1289.45V28.52H22.93ZM681.46,36.52c-2.34,1.96-13.8,11.96-13.8,19.78,0-7.82-11.46-17.82-13.8-19.78h27.61ZM653.85,852.31c2.34-1.96,13.8-11.96,13.8-19.78,0,7.81,11.46,17.82,13.8,19.78h-27.61ZM1304.38,852.31h-606.48c-12.03-2.77-30.25-22.17-30.25-39.91,0,17.74-18.22,37.14-30.25,39.91H30.93V36.52h606.47c12.03,2.77,30.25,22.17,30.25,39.91,0-17.74,18.22-37.14,30.25-39.91h606.47v815.79Z"/><path class="cls-1" d="M669.97,826.79h615.55s3.06,6.64-34.72,6.64c-37.79,0-575.71,0-575.71,0l-5.11-6.64Z"/><path class="cls-1" d="M1299.25,472.71v-1h-19.91v1s6.97.98,7.46,5.53v305.14c-.48,4.55-7.46,5.53-7.46,5.53v1h19.91v-1s-6.98-.98-7.46-5.53v-305.14c.48-4.55,7.46-5.53,7.46-5.53Z"/><path class="cls-1" d="M1308.38,466.2c-12.01,0-21.79-9.77-21.79-21.79s9.77-21.79,21.79-21.79,21.79,9.77,21.79,21.79-9.77,21.79-21.79,21.79ZM1308.38,426.63c-9.81,0-17.79,7.98-17.79,17.79s7.98,17.79,17.79,17.79,17.79-7.98,17.79-17.79-7.98-17.79-17.79-17.79Z"/><rect class="cls-1" x="1288.59" y="442.42" width="39.57" height="4"/></g></svg>